<svg width="810" height="469" viewBox="0 0 810 469" fill="none" xmlns="http://www.w3.org/2000/svg">
<g clip-path="url(#clip0_1_763)">
<path d="M512.859 450.876L426.459 450.818C424.815 450.817 423.202 450.374 421.788 449.537C420.374 448.699 419.211 447.498 418.419 446.057C417.628 444.617 417.238 442.99 417.289 441.347C417.341 439.705 417.833 438.106 418.713 436.718L461.958 368.58C462.787 367.273 463.933 366.198 465.29 365.453C466.646 364.708 468.169 364.318 469.717 364.319C471.264 364.32 472.786 364.712 474.142 365.459C475.497 366.206 476.641 367.283 477.469 368.591L520.623 436.786C521.501 438.175 521.991 439.774 522.041 441.417C522.09 443.06 521.698 444.686 520.905 446.125C520.112 447.565 518.947 448.765 517.531 449.601C516.116 450.436 514.503 450.877 512.859 450.876Z" fill="#F4F4F4"/>
<path d="M462.972 433.139C463.026 431.821 463.465 430.548 464.237 429.478C465.008 428.408 466.077 427.588 467.311 427.121C468.544 426.654 469.888 426.56 471.174 426.85C472.461 427.14 473.634 427.803 474.547 428.754C475.461 429.706 476.074 430.905 476.311 432.203C476.548 433.501 476.398 434.839 475.881 436.052C475.363 437.266 474.5 438.3 473.399 439.026C472.298 439.753 471.008 440.14 469.689 440.139C468.783 440.138 467.887 439.954 467.054 439.598C466.221 439.242 465.468 438.722 464.841 438.068C464.214 437.414 463.725 436.641 463.404 435.794C463.083 434.947 462.936 434.044 462.972 433.139ZM464.511 398.539L464.143 388.475L475.304 388.483L474.923 398.546L473.356 421.709H466.047L464.511 398.539Z" fill="white"/>
<path d="M778.038 437.715L698.8 437.662C697.293 437.66 695.813 437.254 694.516 436.486C693.22 435.718 692.153 434.615 691.427 433.294C690.702 431.973 690.345 430.481 690.393 428.974C690.441 427.468 690.892 426.002 691.7 424.729L731.361 362.239C732.121 361.041 733.173 360.054 734.416 359.371C735.66 358.687 737.057 358.33 738.476 358.331C739.896 358.332 741.292 358.691 742.535 359.376C743.778 360.061 744.827 361.05 745.586 362.249L785.163 424.792C785.969 426.066 786.419 427.534 786.464 429.041C786.51 430.548 786.15 432.04 785.422 433.36C784.694 434.681 783.624 435.782 782.326 436.548C781.027 437.314 779.546 437.717 778.038 437.715Z" fill="#F4F4F4"/>
<path d="M732.286 421.448C732.336 420.24 732.739 419.072 733.447 418.092C734.155 417.111 735.135 416.36 736.266 415.931C737.397 415.503 738.629 415.417 739.809 415.684C740.989 415.95 742.064 416.558 742.901 417.43C743.739 418.303 744.301 419.403 744.518 420.592C744.736 421.782 744.599 423.01 744.124 424.122C743.649 425.234 742.858 426.183 741.849 426.849C740.839 427.516 739.656 427.871 738.447 427.87C737.616 427.869 736.794 427.7 736.03 427.373C735.266 427.047 734.575 426.57 734 425.97C733.425 425.37 732.976 424.661 732.682 423.884C732.387 423.107 732.253 422.278 732.286 421.448ZM733.697 389.717L733.36 380.486L743.596 380.493L743.248 389.723L741.81 410.968H735.11L733.697 389.717Z" fill="white"/>
<path d="M458.665 189.621L365.551 189.558C363.78 189.556 362.041 189.078 360.518 188.175C358.994 187.272 357.74 185.976 356.887 184.424C356.035 182.871 355.614 181.118 355.67 179.348C355.725 177.577 356.255 175.854 357.203 174.358L403.809 100.924C404.703 99.5168 405.939 98.3583 407.401 97.556C408.862 96.7537 410.503 96.3336 412.171 96.3347C413.838 96.3358 415.478 96.7581 416.939 97.5623C418.399 98.3665 419.633 99.5266 420.526 100.935L467.034 174.435C467.98 175.932 468.506 177.656 468.559 179.426C468.612 181.196 468.189 182.948 467.334 184.499C466.479 186.05 465.224 187.344 463.699 188.245C462.174 189.145 460.436 189.621 458.665 189.621Z" fill="#F4F4F4"/>
<path d="M404.9 170.5C404.958 169.08 405.432 167.708 406.264 166.555C407.096 165.402 408.248 164.519 409.577 164.016C410.907 163.512 412.355 163.411 413.742 163.724C415.128 164.037 416.392 164.751 417.376 165.777C418.36 166.803 419.021 168.096 419.276 169.494C419.531 170.893 419.37 172.335 418.812 173.643C418.253 174.95 417.323 176.065 416.137 176.848C414.95 177.63 413.56 178.047 412.138 178.046C411.162 178.045 410.196 177.846 409.298 177.462C408.4 177.079 407.589 176.518 406.913 175.813C406.238 175.109 405.711 174.275 405.365 173.362C405.019 172.449 404.861 171.476 404.9 170.5ZM406.558 133.214L406.158 122.368L418.187 122.375L417.776 133.222L416.088 158.185H408.21L406.558 133.214Z" fill="white"/>
<path d="M681.094 267.168L593.994 267.109C592.337 267.108 590.711 266.662 589.285 265.817C587.859 264.973 586.686 263.761 585.888 262.309C585.09 260.856 584.697 259.216 584.75 257.56C584.802 255.904 585.298 254.292 586.186 252.893L629.786 184.201C630.622 182.884 631.777 181.8 633.145 181.049C634.512 180.298 636.047 179.904 637.607 179.906C639.167 179.907 640.701 180.302 642.068 181.055C643.434 181.808 644.588 182.894 645.422 184.212L688.927 252.962C689.813 254.363 690.307 255.976 690.357 257.633C690.407 259.289 690.011 260.929 689.21 262.381C688.41 263.832 687.235 265.042 685.807 265.884C684.379 266.726 682.752 267.17 681.094 267.168Z" fill="#F4F4F4"/>
<path d="M630.8 249.287C630.855 247.958 631.298 246.675 632.076 245.597C632.854 244.519 633.932 243.693 635.176 243.222C636.419 242.751 637.774 242.657 639.071 242.95C640.368 243.243 641.55 243.91 642.47 244.87C643.391 245.829 644.009 247.038 644.248 248.346C644.487 249.654 644.336 251.004 643.814 252.227C643.292 253.45 642.422 254.492 641.313 255.225C640.203 255.957 638.903 256.348 637.573 256.347C636.66 256.346 635.756 256.16 634.916 255.801C634.076 255.442 633.317 254.917 632.684 254.258C632.052 253.599 631.559 252.819 631.235 251.965C630.911 251.111 630.763 250.2 630.8 249.287ZM632.352 214.406L631.981 204.259L643.234 204.267L642.85 214.413L641.27 237.767H633.9L632.352 214.406Z" fill="white"/>
<path d="M555.188 220.3C554.741 219.413 554.029 218.687 553.151 218.223C552.273 217.758 551.273 217.578 550.288 217.707C550.296 217.619 550.277 217.531 550.233 217.455C550.187 217.396 550.127 217.35 550.058 217.322C549.989 217.294 549.914 217.285 549.84 217.295L553.162 214.914C554.156 214.234 554.87 213.217 555.172 212.051C555.474 210.885 555.344 209.649 554.806 208.572C554.24 207.526 553.306 206.727 552.184 206.33C551.063 205.933 549.834 205.967 548.736 206.425C548.744 206.378 548.712 206.333 548.706 206.285L550.07 205.306C551.004 204.661 551.686 203.714 552.002 202.624C552.317 201.533 552.246 200.368 551.801 199.324C551.508 198.675 551.075 198.1 550.533 197.639C549.991 197.177 549.354 196.842 548.666 196.658C547.979 196.473 547.259 196.443 546.559 196.57C545.859 196.697 545.196 196.978 544.617 197.392L541.467 199.65C541.458 199.631 541.467 199.609 541.454 199.592C541.441 199.575 541.408 199.568 541.39 199.549C542.113 198.735 542.539 197.7 542.596 196.613C542.653 195.526 542.34 194.451 541.706 193.566C540.219 191.174 536.787 191.666 534.751 193.123L516.212 205.923L519.526 200.345C520.194 199.271 520.429 197.984 520.184 196.744C519.939 195.504 519.232 194.403 518.206 193.664C517.664 193.301 517.053 193.052 516.412 192.933C515.77 192.813 515.111 192.826 514.475 192.97C513.838 193.114 513.238 193.387 512.71 193.77C512.183 194.154 511.739 194.642 511.406 195.203L493.313 225.663C491.19 229.236 490.545 233.496 491.513 237.538C492.481 241.58 494.988 245.085 498.499 247.308C502.571 249.887 507.321 251.19 512.139 251.052C516.957 250.914 521.624 249.34 525.542 246.532L553.542 226.465C554.47 225.773 555.138 224.787 555.436 223.669C555.735 222.55 555.648 221.363 555.188 220.3Z" fill="#E98862"/>
<g opacity="0.25">
<path d="M523.12 212.31C523.189 212.403 523.291 212.465 523.405 212.484C523.519 212.503 523.636 212.476 523.731 212.41L541.345 200.21C541.397 200.179 541.443 200.138 541.478 200.089C541.514 200.04 541.539 199.984 541.552 199.924C541.565 199.865 541.566 199.804 541.554 199.744C541.543 199.685 541.519 199.628 541.485 199.578C541.451 199.528 541.406 199.486 541.355 199.453C541.303 199.421 541.246 199.4 541.186 199.391C541.126 199.382 541.065 199.385 541.006 199.4C540.947 199.416 540.893 199.443 540.845 199.481L523.231 211.681C523.134 211.748 523.068 211.851 523.047 211.966C523.026 212.082 523.052 212.201 523.119 212.298L523.12 212.31Z" fill="#0C0C0C"/>
</g>
<g opacity="0.25">
<path d="M528.286 220.227C528.355 220.32 528.457 220.382 528.571 220.401C528.685 220.42 528.802 220.393 528.897 220.327L548.555 206.711C548.652 206.644 548.718 206.541 548.739 206.426C548.76 206.31 548.734 206.191 548.667 206.094C548.598 206.001 548.495 205.937 548.381 205.916C548.266 205.895 548.148 205.919 548.05 205.982L528.392 219.6C528.295 219.667 528.229 219.77 528.208 219.885C528.187 220.001 528.213 220.12 528.28 220.217L528.286 220.227Z" fill="#0C0C0C"/>
</g>
<g opacity="0.25">
<path d="M533.833 228.834C533.902 228.927 534.004 228.989 534.118 229.008C534.232 229.027 534.349 229 534.444 228.934L550.125 218.073C550.217 218.004 550.279 217.902 550.297 217.789C550.315 217.675 550.289 217.559 550.223 217.465C550.158 217.37 550.058 217.305 549.946 217.282C549.833 217.26 549.716 217.282 549.619 217.344L533.938 228.205C533.89 228.238 533.849 228.281 533.818 228.329C533.786 228.378 533.765 228.433 533.755 228.49C533.744 228.548 533.745 228.607 533.758 228.663C533.77 228.72 533.794 228.774 533.827 228.822L533.833 228.834Z" fill="#0C0C0C"/>
</g>
<path d="M485.336 214.685L440.3 318.678L378.166 233.639L324.324 282.181L416.273 401.265L416.873 402.112C420.553 407.153 425.457 411.174 431.121 413.796C436.785 416.418 443.023 417.555 449.248 417.099C455.473 416.644 461.479 414.611 466.701 411.192C471.923 407.773 476.189 403.081 479.096 397.558L543.853 247.231L485.336 214.685Z" fill="#367CFF"/>
<path d="M435.093 329.559C434.977 329.559 434.864 329.529 434.763 329.473C434.662 329.416 434.578 329.335 434.517 329.236C434.457 329.138 434.423 329.025 434.419 328.91C434.415 328.794 434.44 328.68 434.493 328.577L439.702 318.371C439.789 318.222 439.93 318.112 440.095 318.063C440.261 318.015 440.439 318.031 440.593 318.11C440.746 318.189 440.864 318.323 440.921 318.486C440.979 318.649 440.972 318.827 440.902 318.985L435.693 329.192C435.636 329.302 435.551 329.395 435.445 329.46C435.339 329.525 435.217 329.559 435.093 329.559Z" fill="#0C0C0C"/>
<path d="M214.451 114.167C214.451 114.167 208.565 145.531 200.081 156.151C175.656 186.724 165.281 223.164 183.468 245.023C201.655 266.882 332.416 282.789 347.661 239.334C360.496 202.749 343.077 196.568 342.428 165.045C342.134 150.781 340.228 120.718 340.228 120.718" fill="#0A0A0A"/>
<path d="M320.532 222.759C320.305 222.73 317.782 264.597 269.143 260.947C235.471 258.425 223.466 222.7 222.694 222.7C226.324 221.928 232.438 220.806 234.05 219.946C239.35 217.097 245.913 214.133 247.622 203.836C248.607 197.901 246.936 167.536 247.45 161.536L299.136 173.073C298.414 185.754 293.359 215.152 311.076 220.356C314.024 221.216 317.2 222.008 320.532 222.759Z" fill="#E98862"/>
<path opacity="0.52" d="M299.861 208.341C299.051 205.732 298.53 203.042 298.306 200.319C297.738 194.106 297.851 187.849 298.644 181.661C288.139 180.243 278.242 175.907 270.078 169.146C269.118 172.69 263.84 188.178 265.301 191.546C268.064 197.914 281.044 208.341 299.861 208.341Z" fill="#0C0C0C"/>
<path d="M290.687 198.225C270.219 197.764 245.007 186.541 242.805 158.947L240.819 134.047C238.619 106.454 251.325 82.928 277.305 80.855C303.285 78.782 324.49 99.602 326.691 127.195L327.571 138.218C328.417 148.807 327.205 199.048 290.687 198.225Z" fill="#E98862"/>
<path opacity="0.52" d="M302.784 161.6H302.835C303.888 161.507 304.935 161.358 305.972 161.151C307.521 160.831 309.572 160.246 309.458 158.866C309.333 157.294 303.673 140.673 303.027 138.783C302.967 138.622 302.847 138.491 302.692 138.418C302.537 138.344 302.36 138.334 302.198 138.389C302.035 138.445 301.901 138.561 301.823 138.714C301.746 138.867 301.731 139.044 301.782 139.208C304.198 146.287 308.063 157.908 308.147 158.971C307.926 159.433 305.342 160.079 302.73 160.288C302.56 160.301 302.402 160.38 302.289 160.507C302.176 160.635 302.117 160.801 302.124 160.971C302.131 161.141 302.203 161.302 302.327 161.42C302.45 161.537 302.614 161.603 302.784 161.602V161.6Z" fill="#0C0C0C"/>
<path opacity="0.52" d="M298.536 168.7C294.325 168.779 290.191 169.847 286.468 171.818C286.312 171.897 286.194 172.034 286.14 172.199C286.085 172.365 286.099 172.545 286.177 172.701C286.256 172.857 286.393 172.975 286.558 173.029C286.724 173.084 286.904 173.071 287.06 172.992C295.094 168.94 302.627 168.975 308.844 173.092C308.97 173.179 309.099 173.259 309.233 173.333C309.389 173.406 309.567 173.415 309.73 173.357C309.892 173.3 310.026 173.181 310.102 173.027C310.178 172.872 310.19 172.694 310.136 172.53C310.082 172.367 309.966 172.231 309.813 172.152C309.764 172.125 309.683 172.07 309.571 171.995C306.302 169.823 302.46 168.676 298.536 168.7Z" fill="#0C0C0C"/>
<path d="M219.533 140.357L242.808 138.633C260.848 133.502 269.302 104.142 269.302 104.142C269.302 104.142 288.092 126.87 340.229 120.718C340.229 120.718 337.678 48.658 260.283 61.186C235.327 65.225 215.297 87.775 213.944 120.653C213 143.694 219.533 140.357 219.533 140.357Z" fill="#0A0A0A"/>
<path d="M245.09 167.225C237.19 167.855 230.12 159.919 229.49 152.025C228.86 144.131 234.913 139.264 242.808 138.634L247.3 143.6L251.879 166.685L245.09 167.225Z" fill="#E98862"/>
<path d="M309.084 126.352C311.499 125.138 314.195 124.596 316.891 124.782C318.219 124.866 319.526 125.149 320.77 125.621C322.003 126.083 323.172 126.698 324.251 127.453C324.401 127.552 324.506 127.705 324.544 127.88C324.582 128.055 324.551 128.238 324.456 128.39C324.362 128.542 324.211 128.651 324.037 128.694C323.863 128.737 323.679 128.71 323.525 128.619L323.479 128.592C322.475 127.957 321.395 127.45 320.265 127.084C319.149 126.716 317.983 126.519 316.808 126.5C314.479 126.444 312.176 127.006 310.134 128.128L310.067 128.166C309.83 128.295 309.552 128.327 309.292 128.253C309.032 128.179 308.811 128.007 308.677 127.773C308.543 127.538 308.506 127.261 308.574 126.999C308.643 126.738 308.81 126.514 309.042 126.375L309.084 126.352Z" fill="#0C0C0C"/>
<path d="M288.212 128.949C286.021 128.156 283.66 127.956 281.367 128.37C280.209 128.57 279.087 128.944 278.041 129.48C276.981 130.016 275.992 130.683 275.099 131.466L275.058 131.498C274.99 131.557 274.911 131.602 274.825 131.631C274.739 131.659 274.649 131.67 274.559 131.664C274.469 131.658 274.381 131.633 274.3 131.593C274.22 131.553 274.148 131.497 274.088 131.428C274.029 131.36 273.984 131.281 273.956 131.195C273.927 131.11 273.916 131.019 273.922 130.929C273.929 130.839 273.953 130.751 273.993 130.671C274.034 130.59 274.09 130.518 274.158 130.459C275.108 129.547 276.168 128.759 277.315 128.112C278.47 127.454 279.717 126.973 281.015 126.686C283.65 126.085 286.398 126.205 288.971 127.033C289.231 127.119 289.446 127.304 289.569 127.549C289.692 127.793 289.713 128.077 289.627 128.336C289.542 128.596 289.356 128.812 289.112 128.935C288.867 129.058 288.584 129.079 288.324 128.993L288.282 128.978L288.212 128.949Z" fill="#0C0C0C"/>
<path d="M242.889 138.35L242.731 137.693C272.768 130.43 268.757 101.293 268.713 100.993L269.38 100.893C269.425 101.2 273.536 130.939 242.889 138.35Z" fill="#0C0C0C"/>
<path opacity="0.1" d="M282.049 161.378C285.426 161.378 288.164 159.37 288.164 156.892C288.164 154.414 285.426 152.406 282.049 152.406C278.672 152.406 275.934 154.414 275.934 156.892C275.934 159.37 278.672 161.378 282.049 161.378Z" fill="#0C0C0C"/>
<path opacity="0.1" d="M318.4 155.82C318.407 158.295 321.143 160.302 324.521 160.307C325.105 160.307 325.687 160.246 326.258 160.126C326.758 157.236 327.104 154.44 327.328 151.84C326.431 151.499 325.478 151.33 324.518 151.34C321.14 151.33 318.4 153.337 318.4 155.82Z" fill="#0C0C0C"/>
<path d="M380.962 314.933C379.43 332.933 371.978 445.22 370.505 467.39H167.505C166.359 447.39 161.205 359.963 156.861 320.863C152.71 283.552 144.561 264.872 150.535 253.842C160.29 235.814 174.299 219.555 201.159 217.307C212.321 216.373 232.916 220.356 232.916 220.356C232.916 220.356 234.329 248.949 268.033 250.541C313.913 252.705 310.863 220.434 311.077 220.356C320.534 216.898 352.191 211.356 366.689 220.928C394.344 239.191 384.214 276.792 380.962 314.933Z" fill="#367CFF"/>
<path d="M315.189 139.475C316.962 139.475 318.399 138.038 318.399 136.265C318.399 134.492 316.962 133.055 315.189 133.055C313.416 133.055 311.979 134.492 311.979 136.265C311.979 138.038 313.416 139.475 315.189 139.475Z" fill="#0C0C0C"/>
<path d="M283.718 140.525C285.491 140.525 286.928 139.088 286.928 137.315C286.928 135.542 285.491 134.105 283.718 134.105C281.945 134.105 280.508 135.542 280.508 137.315C280.508 139.088 281.945 140.525 283.718 140.525Z" fill="#0C0C0C"/>
<path d="M379.412 326.614L377.79 355.195L379.138 355.272L380.76 326.691L379.412 326.614Z" fill="#0C0C0C"/>
<path d="M0.647 232.921C1.17389 232.08 1.949 231.423 2.86526 231.041C3.78152 230.66 4.7937 230.572 5.762 230.79C5.76207 230.702 5.78931 230.616 5.84 230.544C5.89079 230.489 5.95511 230.449 6.02642 230.428C6.09773 230.406 6.17349 230.404 6.246 230.421L3.158 227.744C2.23027 226.976 1.61201 225.898 1.41752 224.709C1.22303 223.521 1.46546 222.302 2.1 221.278C2.76008 220.287 3.76493 219.577 4.91939 219.285C6.07384 218.993 7.29547 219.141 8.347 219.7C8.347 219.652 8.378 219.61 8.39 219.563L7.121 218.463C6.25054 217.735 5.65841 216.728 5.44483 215.614C5.23126 214.499 5.40936 213.345 5.949 212.347C6.30021 211.728 6.78435 211.195 7.36653 210.786C7.9487 210.377 8.61441 210.102 9.31566 209.981C10.0169 209.86 10.7362 209.896 11.4217 210.087C12.1073 210.278 12.7419 210.618 13.28 211.084L16.209 213.623C16.22 213.605 16.209 213.582 16.227 213.566C16.245 213.55 16.275 213.547 16.295 213.529C15.6498 212.652 15.3217 211.582 15.3646 210.495C15.4074 209.407 15.8187 208.366 16.531 207.543C18.231 205.298 21.604 206.101 23.498 207.743L40.778 222.2L37.992 216.34C37.4263 215.21 37.3108 213.907 37.6689 212.694C38.027 211.482 38.8319 210.451 39.921 209.809C40.4947 209.497 41.1258 209.306 41.7758 209.247C42.4259 209.187 43.0813 209.261 43.702 209.463C44.3227 209.665 44.8957 209.991 45.3861 210.422C45.8764 210.853 46.2738 211.379 46.554 211.969L61.765 243.969C63.5498 247.723 63.8006 252.024 62.4641 255.96C61.1277 259.895 58.3094 263.154 54.608 265.045C50.3153 267.238 45.4657 268.098 40.6808 267.517C35.8958 266.935 31.3935 264.938 27.751 261.781L1.722 239.216C0.859622 238.441 0.284209 237.398 0.0890804 236.256C-0.106048 235.113 0.0905538 233.938 0.647 232.921Z" fill="#E98862"/>
<g opacity="0.25">
<path d="M33.315 227.914C33.2383 228.001 33.1308 228.054 33.0154 228.063C32.8999 228.071 32.7857 228.034 32.697 227.96L16.281 214.19C16.1961 214.113 16.1443 214.006 16.1365 213.891C16.1288 213.777 16.1656 213.664 16.2392 213.576C16.3129 213.488 16.4178 213.432 16.5318 213.42C16.6459 213.408 16.7602 213.44 16.851 213.51L33.267 227.281C33.3571 227.357 33.4135 227.465 33.4238 227.582C33.4341 227.699 33.3975 227.816 33.322 227.906L33.315 227.914Z" fill="#0C0C0C"/>
</g>
<g opacity="0.25">
<path d="M27.442 235.321C27.3656 235.408 27.2581 235.462 27.1426 235.471C27.0271 235.479 26.9127 235.443 26.824 235.368L8.5 220C8.41006 219.924 8.35385 219.816 8.34373 219.699C8.3336 219.582 8.37039 219.465 8.446 219.375C8.52371 219.288 8.63144 219.235 8.74733 219.225C8.86322 219.215 8.97858 219.249 9.07 219.321L27.391 234.689C27.4356 234.726 27.4724 234.772 27.4993 234.824C27.5262 234.875 27.5426 234.932 27.5476 234.99C27.5526 235.048 27.5461 235.106 27.5285 235.162C27.5109 235.217 27.4825 235.269 27.445 235.313L27.442 235.321Z" fill="#0C0C0C"/>
</g>
<g opacity="0.25">
<path d="M21.126 243.381C21.0495 243.468 20.942 243.521 20.8266 243.53C20.7111 243.539 20.5968 243.502 20.508 243.428L5.894 231.169C5.80396 231.093 5.74763 230.985 5.73741 230.868C5.72719 230.751 5.76391 230.635 5.8395 230.545C5.91509 230.454 6.02335 230.398 6.14046 230.388C6.25758 230.378 6.37396 230.414 6.464 230.49L21.079 242.748C21.1687 242.824 21.2247 242.932 21.2349 243.049C21.245 243.166 21.2084 243.283 21.133 243.373L21.126 243.381Z" fill="#0C0C0C"/>
</g>
<path d="M68.905 231.578L103.139 319.371L153.123 249.183L206.965 297.724L129.865 415.458L129.265 416.306C125.584 421.347 120.681 425.367 115.017 427.989C109.353 430.611 103.115 431.748 96.89 431.292C90.6653 430.837 84.659 428.804 79.437 425.385C74.2151 421.967 69.9494 417.275 67.042 411.752L11.733 262.774L68.905 231.578Z" fill="#367CFF"/>
<path d="M108.348 330.253C108.463 330.253 108.577 330.223 108.678 330.166C108.778 330.11 108.863 330.028 108.923 329.93C108.983 329.831 109.017 329.719 109.021 329.604C109.026 329.488 109.001 329.374 108.948 329.271L103.739 319.064C103.65 318.918 103.51 318.811 103.345 318.765C103.181 318.718 103.005 318.736 102.853 318.814C102.701 318.892 102.584 319.024 102.526 319.185C102.468 319.345 102.472 319.522 102.539 319.679L107.748 329.885C107.804 329.996 107.89 330.089 107.996 330.154C108.102 330.219 108.224 330.253 108.348 330.253Z" fill="#0C0C0C"/>
<path d="M161.005 368.694C160.807 368.694 160.617 368.619 160.472 368.485C160.326 368.351 160.237 368.167 160.221 367.97L158.083 341.553C158.066 341.345 158.133 341.139 158.268 340.98C158.403 340.821 158.596 340.722 158.804 340.705C159.012 340.688 159.218 340.755 159.377 340.89C159.536 341.025 159.635 341.218 159.652 341.426L161.79 367.843C161.798 367.946 161.786 368.05 161.755 368.148C161.723 368.246 161.672 368.338 161.605 368.416C161.538 368.495 161.456 368.56 161.364 368.607C161.272 368.654 161.172 368.683 161.069 368.691L161.005 368.694Z" fill="#292A2E"/>
<path d="M720.168 256.959H718.168V66.848H514.531V64.848H720.168V256.959Z" fill="#0A0A0A"/>
<path d="M709.335 8.542L649.719 111.8C648.723 113.526 648.198 115.484 648.198 117.477C648.198 119.47 648.723 121.428 649.719 123.154C650.716 124.88 652.149 126.314 653.875 127.31C655.601 128.307 657.559 128.832 659.552 128.832H778.784C780.777 128.832 782.735 128.307 784.461 127.31C786.187 126.314 787.62 124.88 788.617 123.154C789.613 121.428 790.138 119.47 790.138 117.477C790.138 115.484 789.613 113.526 788.617 111.8L729 8.542C728.003 6.81614 726.57 5.38299 724.844 4.38658C723.118 3.39017 721.16 2.86561 719.167 2.86561C717.175 2.86561 715.217 3.39017 713.491 4.38658C711.765 5.38299 710.332 6.81614 709.335 8.542Z" fill="white"/>
<path d="M778.784 129.831H659.553C657.384 129.831 655.254 129.261 653.375 128.176C651.497 127.092 649.937 125.532 648.853 123.654C647.768 121.776 647.197 119.645 647.197 117.477C647.197 115.308 647.768 113.177 648.853 111.299L708.469 8.042C709.553 6.16343 711.113 4.60339 712.991 3.51874C714.869 2.43409 717 1.86306 719.169 1.86306C721.338 1.86306 723.469 2.43409 725.347 3.51874C727.225 4.60339 728.785 6.16343 729.869 8.042L789.483 111.3C790.567 113.178 791.138 115.309 791.138 117.477C791.138 119.646 790.567 121.777 789.483 123.655C788.398 125.533 786.839 127.092 784.96 128.177C783.082 129.261 780.952 129.832 778.783 129.832L778.784 129.831ZM719.168 3.865C717.348 3.85391 715.558 4.32763 713.982 5.23749C712.406 6.14735 711.101 7.46051 710.2 9.042L650.586 112.3C649.677 113.874 649.198 115.66 649.198 117.477C649.198 119.295 649.677 121.081 650.585 122.655C651.494 124.229 652.801 125.536 654.375 126.445C655.95 127.354 657.735 127.832 659.553 127.832H778.784C780.602 127.832 782.387 127.353 783.961 126.444C785.535 125.536 786.842 124.228 787.751 122.654C788.66 121.08 789.138 119.295 789.138 117.477C789.138 115.66 788.66 113.874 787.751 112.3L728.135 9.042C727.235 7.46073 725.929 6.14772 724.353 5.23788C722.777 4.32804 720.988 3.85419 719.168 3.865Z" fill="#292A2E"/>
<path d="M711.262 98.365C711.325 96.8125 711.842 95.3127 712.751 94.0521C713.659 92.7915 714.918 91.8257 716.371 91.2748C717.824 90.7239 719.406 90.6123 720.922 90.9537C722.438 91.2952 723.82 92.0747 724.896 93.1953C725.973 94.3159 726.696 95.7282 726.976 97.2565C727.256 98.7848 727.08 100.362 726.471 101.791C725.862 103.221 724.847 104.44 723.55 105.296C722.254 106.153 720.735 106.61 719.181 106.61C718.114 106.609 717.057 106.393 716.075 105.974C715.093 105.555 714.206 104.943 713.467 104.173C712.727 103.403 712.151 102.492 711.772 101.494C711.393 100.496 711.22 99.4316 711.262 98.365ZM713.047 57.6L712.605 45.743H725.757L725.315 57.6L723.487 84.894H714.875L713.047 57.6Z" fill="#292A2E"/>
<path d="M803.946 384.089H634.39C629.327 384.089 628.19 378.189 629.812 375.08L640.479 360.845C640.874 360.087 641.47 359.452 642.201 359.009C642.932 358.565 643.771 358.331 644.626 358.331H793.71C794.565 358.331 795.404 358.565 796.135 359.009C796.866 359.452 797.462 360.087 797.857 360.845L808.524 375.08C810.148 378.193 809.009 384.089 803.946 384.089Z" fill="#292A2E"/>
<path d="M642.977 255.105V348.431C642.977 352.043 645.905 354.972 649.518 354.972H788.817C792.429 354.972 795.358 352.043 795.358 348.431V255.105C795.358 251.493 792.429 248.564 788.817 248.564H649.518C645.905 248.564 642.977 251.493 642.977 255.105Z" fill="#292A2E"/>
<path d="M791.242 256.658V346.879C791.242 347.996 790.798 349.068 790.008 349.858C789.218 350.648 788.146 351.092 787.029 351.092H651.07C650.51 351.092 649.956 350.982 649.439 350.767C648.921 350.553 648.451 350.239 648.056 349.843C647.66 349.448 647.346 348.978 647.132 348.46C646.917 347.943 646.807 347.389 646.807 346.829V256.708C646.807 256.148 646.917 255.594 647.132 255.077C647.346 254.559 647.66 254.089 648.056 253.694C648.451 253.298 648.921 252.984 649.439 252.77C649.956 252.555 650.51 252.445 651.07 252.445H787.029C788.146 252.445 789.218 252.889 790.008 253.679C790.798 254.469 791.242 255.541 791.242 256.658Z" fill="white"/>
<path d="M803.946 380.731H634.39C633.586 380.731 632.796 380.524 632.095 380.129C631.395 379.735 630.808 379.167 630.391 378.479C629.974 377.792 629.742 377.008 629.716 376.205C629.69 375.401 629.872 374.605 630.244 373.892L640.479 357.486C640.874 356.728 641.47 356.093 642.201 355.65C642.932 355.206 643.771 354.972 644.626 354.972H793.71C794.565 354.972 795.404 355.206 796.135 355.65C796.866 356.093 797.462 356.728 797.857 357.486L808.092 373.892C808.464 374.605 808.646 375.401 808.62 376.205C808.594 377.008 808.362 377.792 807.945 378.479C807.528 379.167 806.941 379.735 806.241 380.129C805.54 380.524 804.75 380.731 803.946 380.731Z" fill="#292A2E"/>
<path opacity="0.1" d="M803.946 380.731H634.39C633.586 380.731 632.796 380.524 632.095 380.129C631.395 379.735 630.808 379.167 630.391 378.479C629.974 377.792 629.742 377.008 629.716 376.205C629.69 375.401 629.872 374.605 630.244 373.892L640.479 357.486C640.874 356.728 641.47 356.093 642.201 355.65C642.932 355.206 643.771 354.972 644.626 354.972H793.71C794.565 354.972 795.404 355.206 796.135 355.65C796.866 356.093 797.462 356.728 797.857 357.486L808.092 373.892C808.464 374.605 808.646 375.401 808.62 376.205C808.594 377.008 808.362 377.792 807.945 378.479C807.528 379.167 806.941 379.735 806.241 380.129C805.54 380.524 804.75 380.731 803.946 380.731Z" fill="white"/>
<path d="M714.425 271.335L685.666 321.146C685.185 321.979 684.933 322.923 684.933 323.885C684.933 324.846 685.186 325.791 685.667 326.623C686.147 327.456 686.839 328.147 687.672 328.628C688.504 329.109 689.449 329.362 690.41 329.362H747.926C748.887 329.362 749.832 329.109 750.664 328.628C751.497 328.147 752.189 327.456 752.669 326.623C753.15 325.791 753.403 324.846 753.403 323.885C753.403 322.923 753.151 321.979 752.67 321.146L723.911 271.335C723.43 270.502 722.739 269.811 721.906 269.331C721.074 268.85 720.129 268.597 719.168 268.597C718.207 268.597 717.262 268.85 716.43 269.331C715.597 269.811 714.906 270.502 714.425 271.335Z" fill="#367CFF"/>
<path d="M715.354 314.665C715.384 313.916 715.634 313.192 716.072 312.584C716.51 311.975 717.118 311.509 717.819 311.243C718.52 310.978 719.284 310.924 720.015 311.088C720.746 311.253 721.413 311.629 721.933 312.17C722.452 312.711 722.801 313.392 722.936 314.13C723.071 314.867 722.987 315.628 722.693 316.318C722.399 317.008 721.909 317.596 721.283 318.009C720.658 318.423 719.925 318.643 719.175 318.643C718.66 318.643 718.15 318.538 717.677 318.336C717.203 318.134 716.775 317.839 716.418 317.467C716.061 317.096 715.783 316.656 715.6 316.175C715.417 315.693 715.334 315.18 715.354 314.665ZM716.216 295L716 289.276H722.344L722.135 295L721.253 308.169H717.1L716.216 295Z" fill="white"/>
<path d="M552.384 1H405.383V122.037H552.384V1Z" fill="white"/>
<path d="M552.385 123.037H405.385C405.12 123.037 404.865 122.932 404.678 122.744C404.49 122.557 404.385 122.302 404.385 122.037V1C404.385 0.734784 404.49 0.48043 404.678 0.292893C404.865 0.105357 405.12 0 405.385 0L552.385 0C552.65 0 552.905 0.105357 553.092 0.292893C553.28 0.48043 553.385 0.734784 553.385 1V122.037C553.385 122.302 553.28 122.557 553.092 122.744C552.905 122.932 552.65 123.037 552.385 123.037ZM406.385 121.037H551.385V2H406.385V121.037Z" fill="#292A2E"/>
<path d="M547.015 6.204H438.349V38.882H547.015V6.204Z" fill="#367CFF"/>
<g opacity="0.69">
<path d="M547.015 6.204H438.349V38.882H547.015V6.204Z" fill="white"/>
</g>
<path d="M547.016 39.426H438.35C438.278 39.4261 438.208 39.4122 438.142 39.3849C438.075 39.3576 438.015 39.3175 437.965 39.267C437.914 39.2165 437.874 39.1565 437.846 39.0904C437.819 39.0243 437.805 38.9535 437.805 38.882V6.2C437.805 6.12839 437.819 6.05746 437.846 5.99128C437.874 5.9251 437.914 5.86497 437.964 5.81433C438.015 5.7637 438.075 5.72356 438.141 5.69622C438.207 5.66888 438.278 5.65487 438.35 5.655H547.016C547.161 5.655 547.299 5.71242 547.401 5.81463C547.504 5.91683 547.561 6.05546 547.561 6.2V38.882C547.561 38.9535 547.547 39.0243 547.519 39.0904C547.492 39.1565 547.452 39.2165 547.401 39.267C547.351 39.3175 547.291 39.3576 547.224 39.3849C547.158 39.4122 547.088 39.4261 547.016 39.426ZM438.9 38.337H546.471V6.749H438.9V38.337Z" fill="#292A2E"/>
<path d="M454.857 29.247C458.56 29.247 461.561 26.2455 461.561 22.543C461.561 18.8405 458.56 15.839 454.857 15.839C451.154 15.839 448.153 18.8405 448.153 22.543C448.153 26.2455 451.154 29.247 454.857 29.247Z" fill="white"/>
<path d="M454.857 29.791C453.423 29.791 452.022 29.3659 450.83 28.5693C449.638 27.7728 448.708 26.6407 448.16 25.3161C447.611 23.9915 447.468 22.534 447.747 21.1278C448.027 19.7216 448.717 18.43 449.731 17.4162C450.745 16.4024 452.037 15.712 453.443 15.4323C454.849 15.1526 456.307 15.2961 457.631 15.8448C458.956 16.3935 460.088 17.3226 460.884 18.5147C461.681 19.7068 462.106 21.1083 462.106 22.542C462.104 24.4639 461.339 26.3065 459.98 27.6655C458.621 29.0245 456.779 29.7889 454.857 29.791ZM454.857 16.384C453.639 16.384 452.448 16.7452 451.435 17.422C450.422 18.0989 449.633 19.0608 449.167 20.1863C448.701 21.3118 448.579 22.5502 448.816 23.7449C449.054 24.9397 449.641 26.0371 450.502 26.8984C451.364 27.7597 452.461 28.3462 453.656 28.5838C454.851 28.8213 456.089 28.6992 457.215 28.2329C458.34 27.7666 459.302 26.977 459.979 25.964C460.655 24.9511 461.016 23.7602 461.016 22.542C461.014 20.9092 460.365 19.3438 459.21 18.1893C458.055 17.0349 456.49 16.3856 454.857 16.384Z" fill="#292A2E"/>
<path d="M516.6 22.415H470.21C470.065 22.415 469.927 22.3576 469.825 22.2554C469.722 22.1532 469.665 22.0145 469.665 21.87C469.665 21.7255 469.722 21.5868 469.825 21.4846C469.927 21.3824 470.065 21.325 470.21 21.325H516.6C516.672 21.325 516.742 21.3391 516.809 21.3665C516.875 21.3939 516.935 21.434 516.985 21.4846C517.036 21.5352 517.076 21.5953 517.104 21.6614C517.131 21.7276 517.145 21.7984 517.145 21.87C517.145 21.9416 517.131 22.0124 517.104 22.0786C517.076 22.1447 517.036 22.2048 516.985 22.2554C516.935 22.306 516.875 22.3461 516.809 22.3735C516.742 22.4009 516.672 22.415 516.6 22.415Z" fill="#292A2E"/>
<path d="M528.851 22.415H527.121C526.976 22.415 526.838 22.3576 526.736 22.2554C526.633 22.1532 526.576 22.0145 526.576 21.87C526.576 21.7255 526.633 21.5868 526.736 21.4846C526.838 21.3824 526.976 21.325 527.121 21.325H528.851C528.996 21.325 529.134 21.3824 529.236 21.4846C529.339 21.5868 529.396 21.7255 529.396 21.87C529.396 22.0145 529.339 22.1532 529.236 22.2554C529.134 22.3576 528.996 22.415 528.851 22.415Z" fill="#292A2E"/>
<path d="M522.779 22.415H521.05C520.905 22.415 520.767 22.3576 520.665 22.2554C520.562 22.1532 520.505 22.0145 520.505 21.87C520.505 21.7255 520.562 21.5868 520.665 21.4846C520.767 21.3824 520.905 21.325 521.05 21.325H522.779C522.851 21.325 522.921 21.3391 522.988 21.3665C523.054 21.3939 523.114 21.434 523.164 21.4846C523.215 21.5352 523.255 21.5953 523.283 21.6614C523.31 21.7276 523.324 21.7984 523.324 21.87C523.324 21.9416 523.31 22.0124 523.283 22.0786C523.255 22.1447 523.215 22.2048 523.164 22.2554C523.114 22.306 523.054 22.3461 522.988 22.3735C522.921 22.4009 522.851 22.415 522.779 22.415Z" fill="#292A2E"/>
<path d="M535.338 22.415H533.608C533.463 22.415 533.325 22.3576 533.223 22.2554C533.12 22.1532 533.063 22.0145 533.063 21.87C533.063 21.7255 533.12 21.5868 533.223 21.4846C533.325 21.3824 533.463 21.325 533.608 21.325H535.338C535.41 21.325 535.48 21.3391 535.547 21.3665C535.613 21.3939 535.673 21.434 535.723 21.4846C535.774 21.5352 535.814 21.5953 535.841 21.6614C535.869 21.7276 535.883 21.7984 535.883 21.87C535.883 21.9416 535.869 22.0124 535.841 22.0786C535.814 22.1447 535.774 22.2048 535.723 22.2554C535.673 22.306 535.613 22.3461 535.547 22.3735C535.48 22.4009 535.41 22.415 535.338 22.415Z" fill="#292A2E"/>
<path d="M547.015 44.602H438.349V77.28H547.015V44.602Z" fill="#367CFF"/>
<g opacity="0.69">
<path d="M547.015 44.602H438.349V77.28H547.015V44.602Z" fill="white"/>
</g>
<path d="M547.016 77.824H438.35C438.278 77.8241 438.208 77.8102 438.142 77.7829C438.075 77.7556 438.015 77.7156 437.965 77.665C437.914 77.6145 437.874 77.5545 437.846 77.4884C437.819 77.4223 437.805 77.3515 437.805 77.28V44.6C437.805 44.5284 437.819 44.4575 437.846 44.3913C437.874 44.3251 437.914 44.265 437.964 44.2143C438.015 44.1637 438.075 44.1236 438.141 44.0962C438.207 44.0689 438.278 44.0549 438.35 44.055H547.016C547.088 44.055 547.158 44.0691 547.225 44.0965C547.291 44.1239 547.351 44.164 547.401 44.2146C547.452 44.2652 547.492 44.3253 547.52 44.3914C547.547 44.4576 547.561 44.5284 547.561 44.6V77.28C547.561 77.3515 547.547 77.4223 547.519 77.4884C547.492 77.5545 547.452 77.6145 547.401 77.665C547.351 77.7156 547.291 77.7556 547.224 77.7829C547.158 77.8102 547.088 77.8241 547.016 77.824ZM438.9 76.735H546.471V45.147H438.9V76.735Z" fill="#292A2E"/>
<path d="M454.857 67.645C458.56 67.645 461.561 64.6435 461.561 60.941C461.561 57.2385 458.56 54.237 454.857 54.237C451.154 54.237 448.153 57.2385 448.153 60.941C448.153 64.6435 451.154 67.645 454.857 67.645Z" fill="white"/>
<path d="M454.857 68.189C453.423 68.189 452.022 67.7638 450.83 66.9673C449.637 66.1707 448.708 65.0385 448.16 63.7138C447.611 62.3892 447.468 60.9316 447.747 59.5254C448.027 58.1192 448.718 56.8276 449.732 55.8138C450.745 54.8001 452.037 54.1098 453.443 53.8302C454.85 53.5506 456.307 53.6943 457.632 54.2431C458.956 54.7919 460.088 55.7212 460.885 56.9134C461.681 58.1056 462.106 59.5072 462.106 60.941C462.104 62.8627 461.339 64.7051 459.98 66.0638C458.621 67.4226 456.779 68.1869 454.857 68.189ZM454.857 54.782C453.639 54.782 452.448 55.1432 451.435 55.82C450.422 56.4967 449.633 57.4586 449.167 58.5841C448.701 59.7095 448.579 60.9478 448.816 62.1426C449.054 63.3373 449.641 64.4347 450.502 65.2961C451.363 66.1574 452.461 66.744 453.655 66.9817C454.85 67.2193 456.089 67.0973 457.214 66.6312C458.339 66.165 459.301 65.3756 459.978 64.3628C460.655 63.3499 461.016 62.1591 461.016 60.941C461.014 59.308 460.365 57.7424 459.21 56.5877C458.056 55.433 456.49 54.7836 454.857 54.782Z" fill="#292A2E"/>
<path d="M516.6 60.813H470.21C470.065 60.813 469.927 60.7556 469.825 60.6534C469.722 60.5512 469.665 60.4125 469.665 60.268C469.665 60.1235 469.722 59.9848 469.825 59.8826C469.927 59.7804 470.065 59.723 470.21 59.723H516.6C516.745 59.723 516.883 59.7804 516.985 59.8826C517.088 59.9848 517.145 60.1235 517.145 60.268C517.145 60.4125 517.088 60.5512 516.985 60.6534C516.883 60.7556 516.745 60.813 516.6 60.813Z" fill="#292A2E"/>
<path d="M528.851 60.813H527.121C526.976 60.813 526.838 60.7556 526.736 60.6534C526.633 60.5512 526.576 60.4125 526.576 60.268C526.576 60.1235 526.633 59.9848 526.736 59.8826C526.838 59.7804 526.976 59.723 527.121 59.723H528.851C528.996 59.723 529.134 59.7804 529.236 59.8826C529.339 59.9848 529.396 60.1235 529.396 60.268C529.396 60.4125 529.339 60.5512 529.236 60.6534C529.134 60.7556 528.996 60.813 528.851 60.813Z" fill="#292A2E"/>
<path d="M522.779 60.813H521.05C520.905 60.813 520.767 60.7556 520.665 60.6534C520.562 60.5512 520.505 60.4125 520.505 60.268C520.505 60.1235 520.562 59.9848 520.665 59.8826C520.767 59.7804 520.905 59.723 521.05 59.723H522.779C522.924 59.723 523.062 59.7804 523.164 59.8826C523.267 59.9848 523.324 60.1235 523.324 60.268C523.324 60.4125 523.267 60.5512 523.164 60.6534C523.062 60.7556 522.924 60.813 522.779 60.813Z" fill="#292A2E"/>
<path d="M535.338 60.813H533.608C533.463 60.813 533.325 60.7556 533.223 60.6534C533.12 60.5512 533.063 60.4125 533.063 60.268C533.063 60.1235 533.12 59.9848 533.223 59.8826C533.325 59.7804 533.463 59.723 533.608 59.723H535.338C535.483 59.723 535.621 59.7804 535.723 59.8826C535.826 59.9848 535.883 60.1235 535.883 60.268C535.883 60.4125 535.826 60.5512 535.723 60.6534C535.621 60.7556 535.483 60.813 535.338 60.813Z" fill="#292A2E"/>
<path d="M547.015 83H438.349V115.678H547.015V83Z" fill="#367CFF"/>
<g opacity="0.69">
<path d="M547.015 83H438.349V115.678H547.015V83Z" fill="white"/>
</g>
<path d="M547.016 116.223H438.35C438.278 116.223 438.207 116.209 438.141 116.182C438.075 116.154 438.015 116.114 437.964 116.064C437.914 116.013 437.874 115.953 437.846 115.887C437.819 115.821 437.805 115.75 437.805 115.678V83C437.805 82.9284 437.819 82.8575 437.846 82.7913C437.874 82.7251 437.914 82.665 437.964 82.6143C438.015 82.5637 438.075 82.5236 438.141 82.4962C438.207 82.4689 438.278 82.4549 438.35 82.455H547.016C547.161 82.455 547.299 82.5124 547.401 82.6146C547.504 82.7168 547.561 82.8555 547.561 83V115.678C547.561 115.823 547.504 115.961 547.401 116.063C547.299 116.166 547.161 116.223 547.016 116.223ZM438.9 115.133H546.471V83.545H438.9V115.133Z" fill="#292A2E"/>
<path d="M454.857 106.043C458.56 106.043 461.561 103.042 461.561 99.339C461.561 95.6365 458.56 92.635 454.857 92.635C451.154 92.635 448.153 95.6365 448.153 99.339C448.153 103.042 451.154 106.043 454.857 106.043Z" fill="white"/>
<path d="M454.857 106.587C453.423 106.587 452.022 106.162 450.83 105.365C449.637 104.569 448.708 103.436 448.16 102.112C447.611 100.787 447.468 99.3296 447.747 97.9234C448.027 96.5172 448.718 95.2256 449.732 94.2118C450.745 93.1981 452.037 92.5078 453.443 92.2282C454.85 91.9486 456.307 92.0923 457.632 92.6411C458.956 93.1899 460.088 94.1192 460.885 95.3114C461.681 96.5036 462.106 97.9052 462.106 99.339C462.104 101.261 461.339 103.103 459.98 104.462C458.621 105.821 456.779 106.585 454.857 106.587ZM454.857 93.18C453.639 93.18 452.448 93.5412 451.435 94.218C450.422 94.8947 449.633 95.8566 449.167 96.9821C448.701 98.1075 448.579 99.3458 448.816 100.541C449.054 101.735 449.641 102.833 450.502 103.694C451.363 104.555 452.461 105.142 453.655 105.38C454.85 105.617 456.089 105.495 457.214 105.029C458.339 104.563 459.301 103.774 459.978 102.761C460.655 101.748 461.016 100.557 461.016 99.339C461.014 97.706 460.365 96.1404 459.21 94.9857C458.056 93.831 456.49 93.1816 454.857 93.18Z" fill="#292A2E"/>
<path d="M516.6 99.211H470.21C470.065 99.211 469.927 99.1536 469.825 99.0514C469.722 98.9492 469.665 98.8105 469.665 98.666C469.665 98.5215 469.722 98.3828 469.825 98.2806C469.927 98.1784 470.065 98.121 470.21 98.121H516.6C516.745 98.121 516.883 98.1784 516.985 98.2806C517.088 98.3828 517.145 98.5215 517.145 98.666C517.145 98.8105 517.088 98.9492 516.985 99.0514C516.883 99.1536 516.745 99.211 516.6 99.211Z" fill="#292A2E"/>
<path d="M528.851 99.211H527.121C526.976 99.211 526.838 99.1536 526.736 99.0514C526.633 98.9492 526.576 98.8105 526.576 98.666C526.576 98.5215 526.633 98.3828 526.736 98.2806C526.838 98.1784 526.976 98.121 527.121 98.121H528.851C528.996 98.121 529.134 98.1784 529.236 98.2806C529.339 98.3828 529.396 98.5215 529.396 98.666C529.396 98.8105 529.339 98.9492 529.236 99.0514C529.134 99.1536 528.996 99.211 528.851 99.211Z" fill="#292A2E"/>
<path d="M522.779 99.211H521.05C520.905 99.211 520.767 99.1536 520.665 99.0514C520.562 98.9492 520.505 98.8105 520.505 98.666C520.505 98.5215 520.562 98.3828 520.665 98.2806C520.767 98.1784 520.905 98.121 521.05 98.121H522.779C522.924 98.121 523.062 98.1784 523.164 98.2806C523.267 98.3828 523.324 98.5215 523.324 98.666C523.324 98.8105 523.267 98.9492 523.164 99.0514C523.062 99.1536 522.924 99.211 522.779 99.211Z" fill="#292A2E"/>
<path d="M535.338 99.211H533.608C533.463 99.211 533.325 99.1536 533.223 99.0514C533.12 98.9492 533.063 98.8105 533.063 98.666C533.063 98.5215 533.12 98.3828 533.223 98.2806C533.325 98.1784 533.463 98.121 533.608 98.121H535.338C535.483 98.121 535.621 98.1784 535.723 98.2806C535.826 98.3828 535.883 98.5215 535.883 98.666C535.883 98.8105 535.826 98.9492 535.723 99.0514C535.621 99.1536 535.483 99.211 535.338 99.211Z" fill="#292A2E"/>
<path d="M432.643 123.037C432.378 123.037 432.123 122.932 431.936 122.744C431.748 122.557 431.643 122.302 431.643 122.037V1C431.643 0.734784 431.748 0.48043 431.936 0.292893C432.123 0.105357 432.378 0 432.643 0C432.908 0 433.163 0.105357 433.35 0.292893C433.538 0.48043 433.643 0.734784 433.643 1V122.037C433.643 122.302 433.538 122.557 433.35 122.744C433.163 122.932 432.908 123.037 432.643 123.037Z" fill="#292A2E"/>
<path d="M584.122 70.324C586.594 70.324 588.598 68.32 588.598 65.848C588.598 63.376 586.594 61.372 584.122 61.372C581.65 61.372 579.646 63.376 579.646 65.848C579.646 68.32 581.65 70.324 584.122 70.324Z" fill="white"/>
<path d="M584.122 71.324C583.039 71.3242 581.98 71.0031 581.079 70.4014C580.178 69.7996 579.476 68.9443 579.061 67.9434C578.646 66.9426 578.538 65.8413 578.749 64.7787C578.96 63.7162 579.482 62.7402 580.248 61.9742C581.014 61.2081 581.99 60.6865 583.053 60.4752C584.115 60.2639 585.217 60.3724 586.217 60.7871C587.218 61.2018 588.074 61.9039 588.675 62.8048C589.277 63.7056 589.598 64.7647 589.598 65.848C589.596 67.2998 589.019 68.6918 587.992 69.7184C586.966 70.745 585.574 71.3224 584.122 71.324ZM584.122 62.371C583.434 62.3708 582.762 62.5746 582.19 62.9565C581.618 63.3384 581.172 63.8814 580.909 64.5167C580.646 65.152 580.577 65.8512 580.711 66.5257C580.845 67.2003 581.176 67.8199 581.662 68.3063C582.148 68.7926 582.768 69.1239 583.442 69.2581C584.117 69.3924 584.816 69.3236 585.451 69.0604C586.087 68.7973 586.63 68.3516 587.012 67.7798C587.394 67.208 587.598 66.5357 587.598 65.848C587.597 64.9263 587.23 64.0427 586.579 63.3909C585.927 62.7391 585.044 62.3723 584.122 62.371Z" fill="#292A2E"/>
<path d="M636.022 70.324C638.494 70.324 640.498 68.32 640.498 65.848C640.498 63.376 638.494 61.372 636.022 61.372C633.55 61.372 631.546 63.376 631.546 65.848C631.546 68.32 633.55 70.324 636.022 70.324Z" fill="white"/>
<path d="M636.022 71.324C634.939 71.324 633.88 71.0027 632.979 70.4009C632.078 69.799 631.376 68.9436 630.962 67.9427C630.547 66.9419 630.439 65.8406 630.65 64.7781C630.862 63.7157 631.383 62.7398 632.15 61.9738C632.916 61.2079 633.892 60.6863 634.954 60.4751C636.017 60.2639 637.118 60.3725 638.119 60.7872C639.119 61.2019 639.975 61.904 640.576 62.8049C641.178 63.7057 641.499 64.7647 641.499 65.848C641.497 67.3 640.92 68.6921 639.893 69.7187C638.866 70.7453 637.474 71.3227 636.022 71.324ZM636.022 62.371C635.334 62.371 634.662 62.5749 634.09 62.957C633.518 63.339 633.073 63.8821 632.81 64.5174C632.547 65.1527 632.478 65.8519 632.612 66.5263C632.746 67.2008 633.077 67.8203 633.563 68.3066C634.05 68.7929 634.669 69.124 635.344 69.2582C636.018 69.3924 636.717 69.3235 637.353 69.0603C637.988 68.7972 638.531 68.3515 638.913 67.7797C639.295 67.2079 639.499 66.5357 639.499 65.848C639.498 64.9261 639.132 64.0422 638.48 63.3903C637.828 62.7384 636.944 62.3718 636.022 62.371Z" fill="#292A2E"/>
<path d="M719.168 204.479C727.859 204.479 734.904 197.434 734.904 188.743C734.904 180.052 727.859 173.007 719.168 173.007C710.477 173.007 703.432 180.052 703.432 188.743C703.432 197.434 710.477 204.479 719.168 204.479Z" fill="white"/>
<path d="M719.168 205.479C715.858 205.48 712.622 204.499 709.869 202.66C707.116 200.822 704.97 198.208 703.703 195.15C702.436 192.092 702.104 188.727 702.749 185.48C703.394 182.234 704.988 179.251 707.328 176.91C709.669 174.569 712.651 172.975 715.898 172.329C719.144 171.683 722.509 172.014 725.568 173.281C728.626 174.547 731.24 176.692 733.079 179.445C734.918 182.197 735.9 185.433 735.9 188.743C735.895 193.179 734.131 197.433 730.994 200.57C727.857 203.708 723.604 205.473 719.168 205.479ZM719.168 174.007C716.253 174.006 713.404 174.87 710.98 176.489C708.556 178.107 706.667 180.408 705.551 183.101C704.435 185.794 704.142 188.757 704.711 191.615C705.279 194.474 706.682 197.1 708.743 199.162C710.803 201.223 713.429 202.627 716.288 203.196C719.146 203.764 722.109 203.473 724.802 202.358C727.495 201.242 729.797 199.354 731.416 196.93C733.036 194.507 733.9 191.658 733.9 188.743C733.896 184.837 732.342 181.092 729.58 178.329C726.819 175.567 723.074 174.013 719.168 174.007Z" fill="#292A2E"/>
<path d="M725.645 196.221C725.38 196.221 725.125 196.116 724.938 195.928L711.984 182.973C711.802 182.784 711.701 182.532 711.703 182.27C711.706 182.007 711.811 181.757 711.996 181.571C712.182 181.386 712.432 181.281 712.695 181.278C712.957 181.276 713.209 181.377 713.398 181.559L726.352 194.514C726.492 194.654 726.587 194.832 726.626 195.026C726.664 195.22 726.644 195.421 726.569 195.604C726.493 195.786 726.365 195.943 726.2 196.052C726.036 196.162 725.843 196.221 725.645 196.221Z" fill="#0A0A0A"/>
<path d="M712.691 196.221C712.493 196.221 712.3 196.162 712.136 196.052C711.971 195.943 711.843 195.786 711.767 195.604C711.692 195.421 711.672 195.22 711.71 195.026C711.749 194.832 711.844 194.654 711.984 194.514L724.938 181.559C725.127 181.377 725.379 181.276 725.641 181.278C725.904 181.281 726.154 181.386 726.34 181.571C726.525 181.757 726.63 182.007 726.633 182.27C726.635 182.532 726.534 182.784 726.352 182.973L713.4 195.928C713.307 196.021 713.196 196.095 713.075 196.145C712.953 196.195 712.823 196.221 712.691 196.221Z" fill="#0A0A0A"/>
<path d="M404.184 468.086H149.116C149.019 468.096 148.92 468.085 148.827 468.054C148.735 468.024 148.649 467.974 148.576 467.909C148.504 467.843 148.446 467.763 148.406 467.673C148.367 467.584 148.346 467.487 148.346 467.389C148.346 467.292 148.367 467.195 148.406 467.106C148.446 467.016 148.504 466.936 148.576 466.87C148.649 466.805 148.735 466.755 148.827 466.725C148.92 466.694 149.019 466.683 149.116 466.693H404.184C404.357 466.71 404.517 466.791 404.633 466.92C404.75 467.049 404.814 467.216 404.814 467.389C404.814 467.563 404.75 467.73 404.633 467.859C404.517 467.988 404.357 468.069 404.184 468.086Z" fill="#292A2E"/>
</g>
<defs>
<clipPath id="clip0_1_763">
<rect width="809.213" height="468.086" fill="white"/>
</clipPath>
</defs>
</svg>
