<svg width="767" height="484" viewBox="0 0 767 484" fill="none" xmlns="http://www.w3.org/2000/svg">
<g clip-path="url(#clip0_1_2620)">
<path d="M546.816 168.276H175V415.388H546.816V168.276Z" fill="#DEE8F5"/>
<path opacity="0.55" d="M550.972 164.308H166.888V227.109H550.972V164.308Z" fill="#C1D8ED"/>
<path d="M616.229 432.723H105.588V458.346H616.229V432.723Z" fill="#F3F5FD"/>
<path d="M598.314 407.1H123.502V432.723H598.314V407.1Z" fill="#F3F5FD"/>
<path d="M598.314 425.868H123.502V432.723H598.314V425.868Z" fill="#DEE8F5"/>
<path d="M616.229 451.491H105.588V458.346H616.229V451.491Z" fill="#DEE8F5"/>
<path d="M633.355 458.346H89.143V483.969H633.355V458.346Z" fill="#F3F5FD"/>
<path d="M633.355 477.114H89.143V483.969H633.355V477.114Z" fill="#DEE8F5"/>
<path d="M200.745 187.537H159.655V395.569H200.745V187.537Z" fill="#F3F5FD"/>
<path d="M304.4 187.537H263.31V395.569H304.4V187.537Z" fill="#F3F5FD"/>
<path d="M562.16 187.537H521.07V395.569H562.16V187.537Z" fill="#F3F5FD"/>
<path d="M147.282 168.276H213.12V191.882C213.12 192.673 212.806 193.432 212.246 193.991C211.687 194.551 210.928 194.865 210.137 194.865H150.265C149.474 194.865 148.715 194.551 148.156 193.991C147.596 193.432 147.282 192.673 147.282 191.882V168.276Z" fill="#C1D8ED"/>
<path d="M250.936 168.276H316.774V191.882C316.774 192.673 316.46 193.432 315.9 193.991C315.341 194.551 314.582 194.865 313.791 194.865H253.919C253.128 194.865 252.369 194.551 251.81 193.991C251.25 193.432 250.936 192.673 250.936 191.882V168.276Z" fill="#C1D8ED"/>
<path d="M508.7 168.276H574.538V191.882C574.538 192.673 574.224 193.432 573.664 193.991C573.105 194.551 572.346 194.865 571.555 194.865H511.68C510.889 194.865 510.13 194.551 509.571 193.991C509.011 193.432 508.697 192.673 508.697 191.882V168.276H508.7Z" fill="#C1D8ED"/>
<path d="M150.265 388.448H210.136C210.927 388.448 211.686 388.762 212.245 389.322C212.805 389.881 213.119 390.64 213.119 391.431V407.1H147.282V391.431C147.282 390.64 147.596 389.881 148.156 389.322C148.715 388.762 149.474 388.448 150.265 388.448Z" fill="#C1D8ED"/>
<path d="M253.919 388.448H313.79C314.581 388.448 315.34 388.762 315.899 389.322C316.459 389.881 316.773 390.64 316.773 391.431V407.1H250.936V391.431C250.936 390.64 251.25 389.881 251.81 389.322C252.369 388.762 253.128 388.448 253.919 388.448Z" fill="#C1D8ED"/>
<path d="M511.68 388.448H571.551C572.342 388.448 573.101 388.762 573.66 389.322C574.22 389.881 574.534 390.64 574.534 391.431V407.1H508.7V391.431C508.7 390.64 509.014 389.882 509.573 389.323C510.131 388.763 510.889 388.449 511.68 388.448Z" fill="#C1D8ED"/>
<path d="M174.98 206.279C174.98 205.137 174.054 204.211 172.912 204.211C171.77 204.211 170.844 205.137 170.844 206.279V376.827C170.844 377.969 171.77 378.895 172.912 378.895C174.054 378.895 174.98 377.969 174.98 376.827V206.279Z" fill="#C1D8ED"/>
<path d="M189.557 206.279C189.557 205.137 188.631 204.211 187.489 204.211C186.347 204.211 185.421 205.137 185.421 206.279V376.827C185.421 377.969 186.347 378.895 187.489 378.895C188.631 378.895 189.557 377.969 189.557 376.827V206.279Z" fill="#C1D8ED"/>
<path d="M278.634 206.279C278.634 205.137 277.708 204.211 276.566 204.211C275.424 204.211 274.498 205.137 274.498 206.279V376.827C274.498 377.969 275.424 378.895 276.566 378.895C277.708 378.895 278.634 377.969 278.634 376.827V206.279Z" fill="#C1D8ED"/>
<path d="M293.212 206.279C293.212 205.137 292.286 204.211 291.144 204.211C290.002 204.211 289.076 205.137 289.076 206.279V376.827C289.076 377.969 290.002 378.895 291.144 378.895C292.286 378.895 293.212 377.969 293.212 376.827V206.279Z" fill="#C1D8ED"/>
<path d="M461.705 187.537H420.615V395.569H461.705V187.537Z" fill="#F3F5FD"/>
<path d="M408.241 168.276H474.079V191.882C474.079 192.673 473.765 193.432 473.205 193.991C472.646 194.551 471.887 194.865 471.096 194.865H411.224C410.433 194.865 409.674 194.551 409.115 193.991C408.555 193.432 408.241 192.673 408.241 191.882V168.276Z" fill="#C1D8ED"/>
<path d="M411.224 388.448H471.1C471.891 388.448 472.65 388.762 473.209 389.322C473.769 389.881 474.083 390.64 474.083 391.431V407.1H408.241V391.431C408.241 390.64 408.555 389.881 409.115 389.322C409.674 388.762 410.433 388.448 411.224 388.448Z" fill="#C1D8ED"/>
<path d="M435.939 206.279C435.939 205.137 435.013 204.211 433.871 204.211C432.729 204.211 431.803 205.137 431.803 206.279V376.827C431.803 377.969 432.729 378.895 433.871 378.895C435.013 378.895 435.939 377.969 435.939 376.827V206.279Z" fill="#C1D8ED"/>
<path d="M450.516 206.279C450.516 205.137 449.59 204.211 448.448 204.211C447.306 204.211 446.38 205.137 446.38 206.279V376.827C446.38 377.969 447.306 378.895 448.448 378.895C449.59 378.895 450.516 377.969 450.516 376.827V206.279Z" fill="#C1D8ED"/>
<path d="M536.395 206.279C536.395 205.137 535.469 204.211 534.327 204.211C533.185 204.211 532.259 205.137 532.259 206.279V376.827C532.259 377.969 533.185 378.895 534.327 378.895C535.469 378.895 536.395 377.969 536.395 376.827V206.279Z" fill="#C1D8ED"/>
<path d="M550.972 206.279C550.972 205.137 550.046 204.211 548.904 204.211C547.762 204.211 546.836 205.137 546.836 206.279V376.827C546.836 377.969 547.762 378.895 548.904 378.895C550.046 378.895 550.972 377.969 550.972 376.827V206.279Z" fill="#C1D8ED"/>
<path d="M592.5 159.014V174.145C592.5 174.959 592.177 175.739 591.601 176.315C591.026 176.89 590.246 177.214 589.432 177.214H131.434C130.62 177.214 129.839 176.891 129.264 176.315C128.688 175.74 128.365 174.959 128.365 174.145V159.664C128.365 158.95 128.54 158.246 128.874 157.615C129.208 156.983 129.691 156.443 130.282 156.041L358.44 0.759C359.167 0.264419 360.026 -5.93436e-05 360.905 -5.93436e-05C361.784 -5.93436e-05 362.643 0.264419 363.37 0.759L590.579 155.391C591.17 155.792 591.655 156.332 591.989 156.964C592.324 157.595 592.5 158.299 592.5 159.014Z" fill="#DEE8F5"/>
<path d="M531.347 151.677H190.469C190.217 151.677 189.971 151.596 189.769 151.446C189.566 151.296 189.416 151.085 189.342 150.844C189.268 150.603 189.273 150.345 189.356 150.107C189.439 149.869 189.597 149.664 189.805 149.522L360.241 33.522C360.437 33.3891 360.668 33.318 360.905 33.318C361.141 33.318 361.372 33.3891 361.568 33.522L532.011 149.522C532.219 149.664 532.377 149.869 532.46 150.107C532.543 150.345 532.548 150.603 532.474 150.844C532.4 151.085 532.25 151.296 532.047 151.446C531.845 151.596 531.599 151.677 531.347 151.677Z" fill="#F3F5FD"/>
<path d="M216.361 422.326H273.98C274.753 422.326 275.494 422.633 276.04 423.179C276.586 423.725 276.893 424.466 276.893 425.239V439.961C276.893 440.733 276.586 441.474 276.039 442.02C275.493 442.566 274.752 442.873 273.98 442.873H216.361V422.326Z" fill="#8DDBE0"/>
<path d="M144.788 422.326H114.244V442.874H144.788V422.326Z" fill="#0CBC8B"/>
<path d="M36.91 422.326H113.966V442.873H36.91C36.138 442.872 35.3979 442.565 34.8522 442.019C34.3065 441.473 34 440.733 34 439.961V425.239C34 424.467 34.3065 423.726 34.8521 423.18C35.3978 422.634 36.1379 422.327 36.91 422.326Z" fill="#8DDBE0"/>
<path opacity="0.15" d="M216.361 422.326H273.98C274.753 422.326 275.494 422.633 276.04 423.179C276.586 423.725 276.893 424.466 276.893 425.239V439.961C276.893 440.733 276.586 441.474 276.039 442.02C275.493 442.566 274.752 442.873 273.98 442.873H216.361V422.326Z" fill="#0F1011"/>
<path d="M144.788 422.326H216.846C217.619 422.326 218.36 422.633 218.906 423.179C219.452 423.725 219.759 424.466 219.759 425.239V439.961C219.759 440.733 219.452 441.474 218.905 442.02C218.359 442.566 217.618 442.873 216.846 442.873H144.788V422.326Z" fill="#8DDBE0"/>
<path d="M182.363 442.873H239.982C240.755 442.873 241.496 443.18 242.042 443.726C242.588 444.272 242.895 445.013 242.895 445.786V460.508C242.895 461.281 242.588 462.022 242.042 462.568C241.496 463.114 240.755 463.421 239.982 463.421H182.363V442.873Z" fill="#8DDBE0"/>
<path d="M110.791 442.873H80.247V463.421H110.791V442.873Z" fill="#0CBC8B"/>
<path d="M2.913 442.873H79.969V463.421H2.913C2.14042 463.421 1.39949 463.114 0.853198 462.568C0.306904 462.022 0 461.281 0 460.508L0 445.786C0 445.013 0.306904 444.272 0.853198 443.726C1.39949 443.18 2.14042 442.873 2.913 442.873Z" fill="#8DDBE0"/>
<path opacity="0.15" d="M182.363 442.873H239.982C240.755 442.873 241.496 443.18 242.042 443.726C242.588 444.272 242.895 445.013 242.895 445.786V460.508C242.895 461.281 242.588 462.022 242.042 462.568C241.496 463.114 240.755 463.421 239.982 463.421H182.363V442.873Z" fill="#0F1011"/>
<path d="M110.79 442.873H182.848C183.621 442.873 184.362 443.18 184.908 443.726C185.454 444.272 185.761 445.013 185.761 445.786V460.508C185.761 461.281 185.454 462.022 184.908 462.568C184.362 463.114 183.621 463.421 182.848 463.421H110.79V442.873Z" fill="#8DDBE0"/>
<path d="M193.87 463.421H251.49C252.262 463.421 253.003 463.728 253.549 464.275C254.095 464.821 254.402 465.562 254.402 466.334V481.056C254.402 481.828 254.095 482.569 253.549 483.115C253.003 483.662 252.262 483.969 251.49 483.969H193.87V463.421Z" fill="#8DDBE0"/>
<path opacity="0.15" d="M193.87 463.421H251.49C252.262 463.421 253.003 463.728 253.549 464.275C254.095 464.821 254.402 465.562 254.402 466.334V481.056C254.402 481.828 254.095 482.569 253.549 483.115C253.003 483.662 252.262 483.969 251.49 483.969H193.87V463.421Z" fill="#0F1011"/>
<path d="M122.298 463.421H91.754V483.969H122.298V463.421Z" fill="#0CBC8B"/>
<path d="M14.42 463.421H91.476V483.969H14.42C13.6474 483.969 12.9065 483.662 12.3602 483.116C11.8139 482.57 11.507 481.829 11.507 481.056V466.334C11.507 465.561 11.8139 464.82 12.3602 464.274C12.9065 463.728 13.6474 463.421 14.42 463.421Z" fill="#8DDBE0"/>
<path d="M122.3 463.421H194.358C195.131 463.421 195.872 463.728 196.418 464.274C196.964 464.82 197.271 465.561 197.271 466.334V481.056C197.271 481.829 196.964 482.57 196.418 483.116C195.872 483.662 195.131 483.969 194.358 483.969H122.3V463.421Z" fill="#8DDBE0"/>
<path d="M120.7 306.428C119.931 305.618 118.876 305.138 117.76 305.092H85.694C84.5778 305.138 83.5235 305.617 82.755 306.428C69.2509 320.452 56.9164 335.557 45.875 351.592C32.513 371.368 34.651 389.808 51.488 406.911C64.85 420.541 82.488 422.411 101.729 422.411C120.97 422.411 138.608 420.541 151.97 406.911C168.807 389.811 170.945 371.368 157.582 351.592C146.465 335.614 134.134 320.514 120.7 306.428Z" fill="#0CBC8B"/>
<path d="M148.763 265.006C144.071 259.751 136.216 264.381 128.437 269.919C125.95 271.686 122.875 272.422 119.858 271.971C116.841 271.521 114.115 269.919 112.253 267.502C108.861 263.122 105.159 259.394 101.729 259.394C98.458 259.394 94.729 263.115 91.296 267.494C89.3939 269.9 86.6252 271.466 83.5827 271.857C80.5402 272.247 77.4659 271.43 75.018 269.582C67.486 263.902 59.873 259.089 55.229 264.476C42.453 282.676 79.815 309.663 83.289 312.603C84.089 313.138 119.634 313.138 120.169 312.603C123.643 309.927 162.7 280.958 148.763 265.006Z" fill="#0CBC8B"/>
<path d="M125.246 313.377H78.212C77.6855 313.377 77.1642 313.273 76.6778 313.072C76.1914 312.87 75.7495 312.575 75.3772 312.203C75.0049 311.831 74.7096 311.389 74.5082 310.902C74.3067 310.416 74.203 309.894 74.203 309.368C74.203 308.842 74.3067 308.32 74.5082 307.834C74.7096 307.347 75.0049 306.905 75.3772 306.533C75.7495 306.161 76.1914 305.866 76.6778 305.664C77.1642 305.463 77.6855 305.359 78.212 305.359H125.246C126.301 305.385 127.306 305.816 128.052 306.562C128.798 307.308 129.229 308.313 129.255 309.368C129.265 309.897 129.168 310.423 128.97 310.914C128.772 311.405 128.477 311.851 128.103 312.225C127.729 312.599 127.283 312.894 126.792 313.092C126.301 313.29 125.775 313.387 125.246 313.377Z" fill="#262626"/>
<path d="M98.678 399.481V391.557C96.1587 391.242 93.6932 390.589 91.348 389.616C88.9143 388.666 86.6728 387.284 84.732 385.535L89.8 377.69C91.5618 379.077 93.4922 380.235 95.545 381.137C97.3111 381.892 99.2113 382.283 101.132 382.286C103.351 382.286 104.975 381.837 106.005 380.939C106.549 380.408 106.97 379.763 107.237 379.051C107.504 378.339 107.611 377.577 107.55 376.819C107.559 376.161 107.426 375.508 107.159 374.906C106.892 374.305 106.499 373.767 106.005 373.332C104.821 372.273 103.518 371.355 102.122 370.598C100.563 369.727 98.886 368.855 97.09 367.984C95.3072 367.121 93.6205 366.071 92.058 364.854C90.5238 363.666 89.2099 362.217 88.176 360.575C87.0977 358.756 86.5617 356.666 86.631 354.552C86.4983 351.036 87.6376 347.59 89.84 344.846C92.1113 342.208 95.2394 340.454 98.675 339.893V331.731H106.361V339.731C108.713 340.037 110.978 340.82 113.017 342.031C114.916 343.192 116.649 344.605 118.168 346.231L112.305 352.888C111.077 351.71 109.689 350.71 108.184 349.916C106.777 349.236 105.23 348.897 103.667 348.925C102.122 348.821 100.587 349.24 99.309 350.114C98.7736 350.6 98.359 351.205 98.0981 351.879C97.8372 352.554 97.7372 353.28 97.806 354C97.8021 354.617 97.9393 355.227 98.207 355.783C98.4748 356.34 98.8661 356.827 99.351 357.209C100.545 358.189 101.848 359.028 103.234 359.709C104.792 360.501 106.469 361.32 108.266 362.166C110.053 363.005 111.74 364.042 113.297 365.256C114.853 366.47 116.17 367.962 117.181 369.656C118.268 371.602 118.802 373.808 118.726 376.036C118.818 379.551 117.729 382.996 115.635 385.821C113.575 388.543 110.485 390.352 106.364 391.249V399.49L98.678 399.481Z" fill="#F1F1F1"/>
<path d="M592.885 345.609C592.885 345.609 570.845 329.269 563 335.7C555.9 341.516 564.123 364.729 564.123 364.729C564.123 364.729 583.072 366.435 592.885 345.609Z" fill="#DEE8F5"/>
<path d="M738.245 398.816C738.245 439.993 704.373 473.374 651.101 473.374C597.829 473.374 554.644 439.993 554.644 398.816C554.644 357.639 597.829 324.258 651.101 324.258C704.373 324.258 738.245 357.639 738.245 398.816Z" fill="#C1D8ED"/>
<path d="M610.571 441.607H604.357C603.833 441.683 603.301 441.683 602.777 441.607H596.563C594.951 441.607 593.405 442.247 592.265 443.387C591.125 444.527 590.485 446.073 590.485 447.685V478.185C590.485 478.944 590.634 479.696 590.925 480.397C591.215 481.098 591.641 481.735 592.177 482.272C592.714 482.809 593.351 483.235 594.052 483.525C594.753 483.815 595.505 483.965 596.264 483.965H603.076C603.242 483.965 603.405 483.954 603.567 483.94C603.729 483.954 603.892 483.965 604.058 483.965H610.87C612.403 483.965 613.873 483.356 614.957 482.272C616.041 481.188 616.65 479.718 616.65 478.185V447.685C616.65 446.073 616.009 444.527 614.869 443.387C613.729 442.247 612.183 441.607 610.571 441.607Z" fill="#C1D8ED"/>
<path d="M693.037 441.607H686.823C686.299 441.683 685.767 441.683 685.243 441.607H679.029C677.417 441.607 675.871 442.247 674.731 443.387C673.591 444.527 672.95 446.073 672.95 447.685V478.185C672.95 479.718 673.559 481.188 674.643 482.272C675.727 483.356 677.197 483.965 678.73 483.965H685.542C685.708 483.965 685.871 483.954 686.033 483.94C686.195 483.954 686.358 483.965 686.524 483.965H693.336C694.869 483.965 696.339 483.356 697.423 482.272C698.507 481.188 699.116 479.718 699.116 478.185V447.685C699.116 446.073 698.475 444.527 697.335 443.387C696.195 442.247 694.649 441.607 693.037 441.607Z" fill="#C1D8ED"/>
<path d="M572.384 374.519C574.124 374.519 575.534 373.109 575.534 371.369C575.534 369.629 574.124 368.219 572.384 368.219C570.644 368.219 569.234 369.629 569.234 371.369C569.234 373.109 570.644 374.519 572.384 374.519Z" fill="#111314"/>
<path d="M747.623 411.464C746.885 411.464 746.149 411.399 745.423 411.269C743.436 410.912 741.557 410.107 739.927 408.917C738.297 407.726 736.96 406.181 736.015 404.397C735.104 402.593 734.627 400.602 734.622 398.581C734.617 396.56 735.085 394.566 735.987 392.758C736.968 390.555 738.415 388.59 740.229 387C735.785 385.989 731.224 385.595 726.673 385.828C725.729 385.899 724.795 385.591 724.077 384.973C723.36 384.355 722.917 383.478 722.846 382.534C722.776 381.589 723.083 380.656 723.701 379.938C724.319 379.22 725.197 378.778 726.141 378.707C726.788 378.658 740.396 377.715 750.05 383.239C757.471 382.793 764.55 386.284 764.91 386.465C765.329 386.675 765.703 386.966 766.01 387.32C766.316 387.675 766.55 388.086 766.698 388.531C766.846 388.976 766.905 389.446 766.871 389.913C766.837 390.381 766.712 390.837 766.502 391.257C766.291 391.676 766.001 392.049 765.646 392.356C765.292 392.663 764.88 392.897 764.435 393.045C763.537 393.343 762.556 393.272 761.71 392.848C760.482 392.264 759.209 391.779 757.903 391.398C758.914 393.568 759.49 395.916 759.598 398.308C759.764 400.198 759.493 402.1 758.804 403.868C758.116 405.635 757.029 407.221 755.629 408.5C753.408 410.427 750.563 411.48 747.623 411.464ZM748.355 390.671C748.055 390.745 747.755 390.833 747.472 390.934C746.348 391.341 745.322 391.98 744.46 392.809C743.599 393.637 742.922 394.638 742.472 395.746C742.027 396.564 741.784 397.475 741.762 398.406C741.74 399.336 741.941 400.259 742.347 401.096C742.795 401.907 743.416 402.61 744.166 403.153C744.917 403.697 745.778 404.068 746.688 404.241C747.427 404.384 748.188 404.359 748.916 404.169C749.643 403.978 750.319 403.627 750.893 403.141C751.481 402.571 751.928 401.872 752.201 401.1C752.473 400.328 752.563 399.504 752.463 398.691C752.426 397.244 752.086 395.821 751.466 394.513C750.846 393.205 749.96 392.041 748.863 391.096C748.7 390.951 748.53 390.81 748.355 390.671Z" fill="#C1D8ED"/>
<path d="M739.232 397.823C738.633 397.822 738.044 397.671 737.519 397.384C736.994 397.096 736.55 396.681 736.227 396.176C735.905 395.672 735.714 395.095 735.673 394.497C735.632 393.9 735.742 393.302 735.992 392.758C736.836 390.773 738.084 388.986 739.658 387.511C741.231 386.035 743.094 384.904 745.129 384.189C754.004 381.078 764.469 386.239 764.91 386.46C765.329 386.67 765.703 386.961 766.01 387.315C766.316 387.67 766.55 388.081 766.698 388.526C766.846 388.971 766.905 389.441 766.871 389.908C766.837 390.376 766.712 390.832 766.502 391.252C766.291 391.671 766.001 392.044 765.646 392.351C765.292 392.658 764.88 392.892 764.435 393.04C763.537 393.338 762.556 393.267 761.71 392.843C759.444 391.719 752.453 389.177 747.473 390.934C746.349 391.341 745.323 391.98 744.461 392.809C743.6 393.637 742.923 394.638 742.473 395.746C742.188 396.366 741.731 396.89 741.156 397.258C740.582 397.626 739.914 397.822 739.232 397.823Z" fill="#DEE8F5"/>
<path d="M588.2 353.376C587.415 352.619 586.921 351.61 586.808 350.525C586.694 349.44 586.966 348.35 587.577 347.447C591.77 341.285 601.377 328.636 607.99 331.224C614.043 333.591 615.49 348.755 615.843 355.59C615.922 356.562 615.668 357.532 615.122 358.34C614.577 359.149 613.774 359.748 612.843 360.04C607.985 361.36 598.119 362.361 588.2 353.376Z" fill="#DEE8F5"/>
<path d="M537.289 386.341L608.158 386.962V433.745L543.498 433.459" fill="#C1D8ED"/>
<path d="M544.089 433.504C549.922 432.62 553.049 421.337 551.073 408.302C549.098 395.268 542.768 385.419 536.935 386.303C531.102 387.187 527.975 398.47 529.951 411.504C531.926 424.538 538.256 434.388 544.089 433.504Z" fill="#DEE8F5"/>
<path d="M674.358 330.554H626.924C625.025 330.554 623.486 332.093 623.486 333.992V333.993C623.486 335.892 625.025 337.431 626.924 337.431H674.358C676.257 337.431 677.796 335.892 677.796 333.993V333.992C677.796 332.093 676.257 330.554 674.358 330.554Z" fill="#E9EFF4"/>
<path d="M677.5 335.385C677.23 335.994 676.789 336.511 676.231 336.875C675.673 337.238 675.021 337.431 674.355 337.431H626.923C626.257 337.431 625.605 337.238 625.048 336.874C624.49 336.51 624.05 335.992 623.782 335.382C623.951 334.992 624.193 334.638 624.496 334.339C624.813 334.018 625.191 333.764 625.608 333.59C626.025 333.417 626.472 333.329 626.923 333.33H674.358C675.025 333.33 675.677 333.525 676.235 333.89C676.793 334.255 677.232 334.774 677.5 335.385Z" fill="#0F1011"/>
<path d="M654.586 308.289C673.902 308.289 689.561 292.63 689.561 273.314C689.561 253.998 673.902 238.339 654.586 238.339C635.27 238.339 619.611 253.998 619.611 273.314C619.611 292.63 635.27 308.289 654.586 308.289Z" fill="#0CBC8B"/>
<g opacity="0.29">
<path d="M654.586 295.987C667.108 295.987 677.259 285.836 677.259 273.314C677.259 260.792 667.108 250.641 654.586 250.641C642.064 250.641 631.913 260.792 631.913 273.314C631.913 285.836 642.064 295.987 654.586 295.987Z" fill="white"/>
</g>
<path d="M647.165 281.412L649.28 278.133C650.582 279.293 652.239 279.976 653.98 280.072C655.849 280.072 656.671 279.297 656.671 277.796C656.671 274.403 647.966 274.464 647.966 268.513C647.966 264.688 650.616 262.251 654.795 262.251C655.982 262.234 657.158 262.476 658.242 262.959C659.327 263.443 660.293 264.157 661.073 265.051L658.647 267.829C658.189 267.326 657.636 266.92 657.019 266.634C656.402 266.348 655.734 266.189 655.055 266.165C653.469 266.165 652.608 266.805 652.608 268.286C652.608 271.431 661.313 271.157 661.313 277.461C661.313 281.247 658.807 283.987 653.98 283.987C651.481 283.93 649.077 283.021 647.165 281.412ZM652.965 259.019H656.182V263.769H652.965V259.019ZM652.965 282.005H656.182V287.216H652.965V282.005Z" fill="white"/>
<path d="M677.797 220.619C692.95 220.619 705.234 208.335 705.234 193.182C705.234 178.029 692.95 165.745 677.797 165.745C662.644 165.745 650.36 178.029 650.36 193.182C650.36 208.335 662.644 220.619 677.797 220.619Z" fill="#0CBC8B"/>
<g opacity="0.29">
<path d="M677.797 210.968C687.62 210.968 695.583 203.005 695.583 193.182C695.583 183.359 687.62 175.396 677.797 175.396C667.974 175.396 660.011 183.359 660.011 193.182C660.011 203.005 667.974 210.968 677.797 210.968Z" fill="white"/>
</g>
<path d="M671.975 199.536L673.634 196.963C674.656 197.873 675.957 198.409 677.323 198.484C678.789 198.484 679.434 197.876 679.434 196.699C679.434 194.037 672.605 194.085 672.605 189.416C672.605 186.416 674.684 184.504 677.962 184.504C678.893 184.49 679.816 184.68 680.666 185.058C681.517 185.437 682.275 185.997 682.887 186.698L680.987 188.878C680.628 188.485 680.193 188.167 679.709 187.944C679.225 187.72 678.702 187.596 678.169 187.578C676.925 187.578 676.249 188.078 676.249 189.242C676.249 191.709 683.079 191.493 683.079 196.442C683.079 199.412 681.113 201.561 677.326 201.561C675.364 201.516 673.476 200.801 671.975 199.536ZM676.525 181.968H679.049V185.694H676.525V181.968ZM676.525 200H679.049V204.089H676.525V200Z" fill="white"/>
</g>
<defs>
<clipPath id="clip0_1_2620">
<rect width="766.881" height="483.969" fill="white"/>
</clipPath>
</defs>
</svg>
