<svg width="591" height="495" viewBox="0 0 591 495" fill="none" xmlns="http://www.w3.org/2000/svg">
<g clip-path="url(#clip0_1_1932)">
<path d="M470.005 442.327H438.711V494.391H470.005V442.327Z" fill="#F3F5FD"/>
<path d="M407.33 399.463H376.036V494.391H407.33V399.463Z" fill="#F3F5FD"/>
<path d="M344.662 353.654H313.36V494.39H344.662V353.654Z" fill="#F3F5FD"/>
<path d="M281.988 309.565H250.693V494.391H281.988V309.565Z" fill="#F3F5FD"/>
<path d="M219.32 262.511H188.018V494.391H219.32V262.511Z" fill="#F3F5FD"/>
<path d="M156.644 218.511H125.35V494.391H156.644V218.511Z" fill="#F3F5FD"/>
<path d="M93.97 173.396H62.675V494.39H93.97V173.396Z" fill="#F3F5FD"/>
<path d="M31.302 131.112H0V494.391H31.302V131.112Z" fill="#F3F5FD"/>
<path d="M549.602 441.641L530.442 468.431L507.432 451.961L0.002 88.901V48.411L526.032 424.771L549.602 441.641Z" fill="#FD5D76"/>
<path d="M554.188 383.594L590.4 494.607L478.407 494.391L554.188 383.594Z" fill="#FD5D76"/>
<path d="M426.742 233.531C467.577 233.531 500.68 200.428 500.68 159.593C500.68 118.758 467.577 85.655 426.742 85.655C385.907 85.655 352.804 118.758 352.804 159.593C352.804 200.428 385.907 233.531 426.742 233.531Z" fill="#0CBC8B"/>
<g opacity="0.29">
<path d="M426.742 207.524C453.214 207.524 474.673 186.065 474.673 159.593C474.673 133.121 453.214 111.662 426.742 111.662C400.27 111.662 378.811 133.121 378.811 159.593C378.811 186.065 400.27 207.524 426.742 207.524Z" fill="white"/>
</g>
<path d="M411.06 176.713L415.53 169.781C419.074 172.496 422.174 173.881 425.47 173.881C429.422 173.881 431.16 172.241 431.16 169.068C431.16 161.896 412.76 162.025 412.76 149.445C412.76 141.357 418.36 136.206 427.197 136.206C429.706 136.169 432.193 136.679 434.485 137.701C436.777 138.722 438.819 140.23 440.469 142.12L435.341 147.993C432.807 145.693 430.658 144.476 427.747 144.476C424.393 144.476 422.573 145.829 422.573 148.965C422.573 155.614 440.973 155.033 440.973 168.359C440.973 176.359 435.673 182.159 425.473 182.159C420.188 182.04 415.103 180.118 411.06 176.713ZM423.321 129.373H430.128V139.413H423.321V129.373ZM423.321 177.966H430.128V188.983H423.321V177.966Z" fill="white"/>
<path d="M135.029 39.356C135.329 43.025 131.505 46.441 130.874 49.899C130.222 53.477 132.56 58.021 131.035 61.231C129.488 64.487 124.472 65.543 122.153 68.272C119.834 71.001 119.599 76.121 116.635 78.172C113.713 80.195 108.851 78.619 105.426 79.839C102.115 81.018 99.359 85.339 95.69 85.639C92.021 85.939 88.605 82.114 85.147 81.484C81.569 80.832 77.025 83.17 73.815 81.644C70.559 80.097 69.502 75.081 66.774 72.762C64.046 70.443 58.925 70.208 56.874 67.244C54.852 64.322 56.427 59.46 55.207 56.035C54.028 52.724 49.707 49.969 49.407 46.299C49.107 42.629 52.932 39.214 53.562 35.756C54.214 32.178 51.876 27.634 53.401 24.424C54.949 21.168 59.964 20.112 62.284 17.383C64.604 14.654 64.838 9.534 67.802 7.483C70.724 5.46 75.585 7.036 79.011 5.816C82.322 4.637 85.077 0.316 88.747 0.016C92.417 -0.284 95.832 3.541 99.29 4.171C102.867 4.823 107.412 2.485 110.622 4.011C113.877 5.558 114.934 10.574 117.663 12.893C120.392 15.212 125.512 15.447 127.563 18.411C129.585 21.333 128.01 26.195 129.23 29.62C130.409 32.931 134.732 35.686 135.029 39.356Z" fill="#0F1011"/>
<path d="M76.018 82.5C76.018 82.5 83.754 78.407 82.047 57.349L98.026 54.4C98.026 54.4 96.214 73.277 104.291 79.278L76.018 82.5Z" fill="#E98862"/>
<g opacity="0.2">
<path d="M101.021 75.328L87.757 65.163L98.182 65.063C98.4806 68.6317 99.4434 72.1131 101.021 75.328Z" fill="black"/>
</g>
<path d="M72.989 49.175C74.089 55.565 77.57 61.617 83.204 63.686C89.3443 66.1292 95.9891 67.0331 102.559 66.319C120.05 64.9 116.626 25.129 108.329 17.397C100.032 9.665 75.659 14.535 72.683 27.453C71.144 34.133 71.942 43.093 72.989 49.175Z" fill="#E98862"/>
<path d="M98.013 44.276C98.8133 44.276 99.462 43.6273 99.462 42.827C99.462 42.0267 98.8133 41.378 98.013 41.378C97.2127 41.378 96.564 42.0267 96.564 42.827C96.564 43.6273 97.2127 44.276 98.013 44.276Z" fill="#0F1011"/>
<path d="M109.446 43.349C110.246 43.349 110.895 42.7003 110.895 41.9C110.895 41.0997 110.246 40.451 109.446 40.451C108.646 40.451 107.997 41.0997 107.997 41.9C107.997 42.7003 108.646 43.349 109.446 43.349Z" fill="#0F1011"/>
<path d="M111.959 38.815H111.95L108.113 38.763C108.024 38.7618 107.935 38.743 107.853 38.7077C107.771 38.6724 107.696 38.6213 107.634 38.5572C107.572 38.4931 107.523 38.4174 107.489 38.3343C107.456 38.2512 107.44 38.1624 107.441 38.073C107.441 37.9833 107.459 37.8945 107.493 37.8118C107.528 37.7292 107.579 37.6543 107.644 37.5917C107.708 37.5292 107.784 37.4801 107.868 37.4475C107.951 37.4149 108.04 37.3995 108.13 37.402L111.968 37.453C112.149 37.4542 112.321 37.5271 112.448 37.6556C112.575 37.7842 112.646 37.9579 112.644 38.1385C112.643 38.3191 112.57 38.4919 112.442 38.6187C112.313 38.7456 112.14 38.8162 111.959 38.815Z" fill="#0F1011"/>
<path d="M94.889 40.2C94.7225 40.1993 94.5621 40.1377 94.438 40.0268C94.3139 39.9159 94.2347 39.7634 94.2153 39.5981C94.196 39.4327 94.2379 39.2661 94.3331 39.1295C94.4283 38.993 94.5702 38.896 94.732 38.857L98.517 37.95C98.6051 37.9257 98.6972 37.9194 98.7878 37.9315C98.8785 37.9436 98.9657 37.9738 99.0444 38.0203C99.1231 38.0668 99.1916 38.1287 99.2459 38.2022C99.3001 38.2758 99.339 38.3595 99.3603 38.4484C99.3815 38.5374 99.3846 38.6296 99.3694 38.7198C99.3542 38.8099 99.321 38.8961 99.2718 38.9731C99.2226 39.0501 99.1584 39.1165 99.083 39.1682C99.0076 39.2199 98.9226 39.2559 98.833 39.274L95.048 40.181C94.996 40.1937 94.9426 40.2001 94.889 40.2Z" fill="#0F1011"/>
<path d="M107.758 57.765C107.758 57.765 102.581 56.309 98.665 56.965C98.665 56.965 99.287 53.497 103.518 53.865C107.749 54.233 107.758 57.765 107.758 57.765Z" fill="white"/>
<path d="M84.772 32.634C85.8211 47.6079 84.1729 62.6486 79.906 77.04C79.906 77.04 67.713 56.015 65.827 38.51C64.059 22.1 76.159 12.422 84.33 10.6C115.382 3.686 117.617 26.368 117.617 26.368C111.96 38.134 81.411 38.082 81.411 38.082" fill="#0F1011"/>
<path d="M90.691 49.066C90.7659 49.8752 90.6796 50.6911 90.437 51.4667C90.1943 52.2422 89.8002 52.9619 89.2775 53.5841C88.7547 54.2063 88.1138 54.7186 87.3917 55.0913C86.6696 55.464 85.8807 55.6897 85.0707 55.7554C84.2608 55.8211 83.4458 55.7254 82.6731 55.4739C81.9004 55.2224 81.1852 54.8201 80.569 54.2903C79.9529 53.7605 79.448 53.1137 79.0836 52.3874C78.7191 51.6611 78.5024 50.8697 78.446 50.059C78.3669 49.2523 78.451 48.438 78.6931 47.6645C78.9353 46.891 79.3306 46.1741 79.8555 45.5565C80.3804 44.939 81.0242 44.4333 81.7486 44.0697C82.473 43.7061 83.2631 43.4919 84.072 43.44C88.451 43.3 90.417 45.685 90.691 49.066Z" fill="#E98862"/>
<g opacity="0.2">
<path d="M104.439 50.87C104.319 50.8701 104.203 50.8271 104.113 50.749C104.022 50.6709 103.962 50.5628 103.944 50.4443C103.926 50.3259 103.952 50.205 104.016 50.1036C104.079 50.0022 104.177 49.9271 104.292 49.892L107.24 48.992L105.183 44.4C105.156 44.3401 105.141 44.2754 105.139 44.2097C105.138 44.1441 105.149 44.0787 105.172 44.0173C105.196 43.9559 105.231 43.8998 105.276 43.852C105.321 43.8043 105.375 43.7659 105.435 43.739C105.495 43.7121 105.56 43.6974 105.625 43.6955C105.691 43.6936 105.756 43.7047 105.818 43.7281C105.879 43.7515 105.935 43.7868 105.983 43.8319C106.031 43.877 106.069 43.9311 106.096 43.991L108.385 49.101C108.414 49.1657 108.429 49.2357 108.428 49.3066C108.428 49.3774 108.413 49.4474 108.384 49.5118C108.354 49.5763 108.312 49.6338 108.258 49.6806C108.205 49.7273 108.143 49.7622 108.075 49.783L104.585 50.851C104.538 50.8646 104.488 50.871 104.439 50.87Z" fill="black"/>
</g>
<path d="M141.384 483.571L120.531 481.092C121.469 473.199 122.531 463.718 122.603 462.164C122.603 462.264 122.603 462.345 122.603 462.408H143.603C143.6 463.038 143.6 464.954 141.384 483.571Z" fill="#E98862"/>
<path d="M57.708 486.082L36.708 486.014C36.708 486.014 36.779 464.329 36.779 462.408H57.779C57.779 464.335 57.708 486.082 57.708 486.082Z" fill="#E98862"/>
<path d="M112.136 476.941L149.136 476.31C147.398 432.279 147.292 386.092 146.75 341.953C139.529 294.38 135.727 242.137 126.815 194.904L49.689 191.111C49.689 191.111 47.489 222.238 46.729 234.663C43.017 294.944 35.815 406.61 31.3 475.748L68.168 478.863C74.807 411.077 85.087 312.307 91.41 241.1C98.671 275.769 103.61 311.668 109.924 346.04C111.186 389.063 112.255 434.042 112.136 476.941Z" fill="#262626"/>
<path d="M83.236 494.2C83.8008 494.197 84.359 494.078 84.8757 493.85C85.3924 493.622 85.8566 493.29 86.2392 492.875C86.6218 492.459 86.9146 491.97 87.0994 491.436C87.2841 490.902 87.3569 490.336 87.313 489.773C87.2519 488.993 86.9691 488.246 86.4981 487.621C86.027 486.996 85.3873 486.518 84.654 486.244L60.211 478.057C59.7375 477.9 59.2357 477.848 58.74 477.903C58.2443 477.958 57.7664 478.12 57.339 478.377C53.9786 480.708 49.959 481.9 45.871 481.777C42.6872 481.551 39.6311 480.434 37.051 478.555C36.8243 478.369 36.5493 478.251 36.2582 478.215C35.9671 478.18 35.6718 478.227 35.4068 478.353C35.1419 478.479 34.9182 478.678 34.7618 478.926C34.6055 479.174 34.523 479.462 34.524 479.755V491.707C34.524 492.06 34.5936 492.409 34.7288 492.734C34.864 493.06 35.0622 493.355 35.3119 493.604C35.5616 493.853 35.858 494.05 36.1841 494.184C36.5102 494.318 36.8595 494.386 37.212 494.385L83.236 494.2Z" fill="#C1D8ED"/>
<path d="M166.97 494.2C167.535 494.197 168.093 494.078 168.61 493.85C169.126 493.622 169.59 493.29 169.973 492.875C170.355 492.459 170.648 491.969 170.833 491.436C171.017 490.902 171.09 490.336 171.046 489.773C170.985 488.993 170.703 488.246 170.232 487.621C169.761 486.996 169.121 486.518 168.388 486.244L143.945 478.057C143.472 477.9 142.97 477.848 142.474 477.903C141.978 477.958 141.5 478.12 141.073 478.377C137.713 480.708 133.693 481.9 129.605 481.777C126.421 481.551 123.365 480.434 120.785 478.555C120.558 478.369 120.283 478.251 119.992 478.216C119.701 478.18 119.406 478.228 119.141 478.354C118.876 478.479 118.652 478.678 118.495 478.926C118.339 479.174 118.256 479.462 118.257 479.755V491.707C118.257 492.06 118.327 492.409 118.462 492.734C118.597 493.06 118.795 493.356 119.045 493.605C119.295 493.853 119.592 494.05 119.918 494.184C120.244 494.318 120.593 494.386 120.946 494.385L166.97 494.2Z" fill="#C1D8ED"/>
<path d="M181.921 82.525C181.921 82.525 182.071 70.515 190.656 71.14C196.073 71.534 221.807 70.34 222.19 72.683C223.138 78.483 199.599 79.901 197.462 85.306L181.921 82.525Z" fill="#E98862"/>
<path d="M187.617 71.525C187.617 71.525 199.566 67.625 202.502 68.325C205.102 68.943 199.683 73.175 199.683 73.175L187.617 71.525Z" fill="#E98862"/>
<path d="M131.628 192.528C127.438 202.158 50.3 206.158 49.2 189.218C48.5 178.438 57.921 169.028 57.921 148.018C57.921 127.008 38.548 105.248 54.3 89.5C58.871 84.93 61.69 76.91 71.31 76.9C72.03 82.51 106.09 82.53 106.35 77.03C107.65 77.05 108.66 77.07 109.29 77.1C142.47 78.53 124.764 116.29 124.445 144.03C124.053 176.488 135.948 182.608 131.628 192.528Z" fill="white"/>
<path d="M106.348 77.028C106.088 82.528 103.098 90.618 93.868 91.228C81.568 92.038 72.028 82.508 71.308 76.898H71.338C83.448 76.9 99.288 76.918 106.348 77.028Z" fill="#E98862"/>
<path d="M180.912 75.509L159.506 115.478L126.544 83.323C123.569 79.547 118.882 77.192 111.713 76.878C111.168 76.855 105.545 76.678 105.213 77.012C103.203 79.022 102.094 114.435 103.094 134.112C104.187 155.412 103.064 182.012 104.079 197.305C104.145 198.309 104.418 199.287 104.882 200.18C105.346 201.072 105.989 201.859 106.773 202.49C107.556 203.12 108.461 203.582 109.432 203.845C110.403 204.108 111.417 204.166 112.412 204.017C123.194 202.37 131.602 199.561 132.828 196.744C137.148 186.824 127.179 176.482 127.569 144.022C127.669 135.286 129.152 125.522 130.186 116.21L154.838 140.258C156.003 141.395 157.417 142.245 158.967 142.741C160.517 143.238 162.162 143.367 163.771 143.119C165.38 142.871 166.909 142.252 168.237 141.311C169.566 140.371 170.657 139.134 171.426 137.699L199.426 85.42L180.912 75.509Z" fill="#367CFF"/>
<path d="M149.272 151.4L93.539 153.1L81.6 128.108C79.674 108.962 77.121 92.646 75.95 84.087C74.45 76.16 75.25 76.722 71.488 76.719C61.869 76.729 53.802 79.855 49.232 84.425C33.482 100.175 52.811 127.015 52.811 148.015C52.811 169.015 43.311 178.435 44.011 189.215C44.442 195.948 47.883 204.466 73.835 206.291C75.9362 206.439 78.0139 205.774 79.6392 204.434C81.2645 203.095 82.3133 201.182 82.569 199.091C83.4952 191.007 83.9806 182.878 84.023 174.741C84.9178 174.981 85.8397 175.105 86.766 175.11C86.878 175.11 86.989 175.11 87.1 175.104L149.938 173.188L149.272 151.4Z" fill="#367CFF"/>
<path d="M68.826 100.635L71.306 92.505L66.526 89.375L70.456 76.745C72.8601 76.646 75.2681 76.6961 77.666 76.895C80.026 84.785 82.566 118.665 83.486 131.895L68.826 100.635Z" fill="#367CFF"/>
<path d="M110.226 92.505L113.926 104.635L103.236 137.215C103.236 137.215 101.106 87.995 103.936 76.965C104.933 76.8308 105.938 76.7557 106.944 76.74C108.998 76.711 111.11 76.851 111.11 76.851L115.01 89.375L110.226 92.505Z" fill="#367CFF"/>
<g opacity="0.24">
<path d="M68.826 100.635L71.306 92.505L66.526 89.375L70.456 76.745C72.8601 76.646 75.2681 76.6961 77.666 76.895C80.026 84.785 82.566 118.665 83.486 131.895L68.826 100.635Z" fill="white"/>
</g>
<g opacity="0.24">
<path d="M110.226 92.505L113.926 104.635L103.236 137.215C103.236 137.215 101.106 87.995 103.936 76.965C104.933 76.8308 105.938 76.7557 106.944 76.74C108.998 76.711 111.11 76.851 111.11 76.851L115.01 89.375L110.226 92.505Z" fill="white"/>
</g>
<path d="M144.789 99.413L132.647 150.384C132.458 151.177 132.452 152.003 132.627 152.799C132.803 153.595 133.157 154.341 133.662 154.98C134.167 155.62 134.811 156.137 135.545 156.493C136.278 156.849 137.083 157.034 137.898 157.034H209.482C210.665 157.034 211.815 156.645 212.755 155.928C213.695 155.211 214.375 154.205 214.688 153.065L228.68 102.094C228.9 101.293 228.932 100.452 228.773 99.6361C228.615 98.8206 228.27 98.0526 227.766 97.3919C227.263 96.7312 226.613 96.1957 225.869 95.827C225.124 95.4582 224.305 95.2663 223.474 95.266H150.041C148.827 95.2661 147.648 95.6755 146.695 96.4279C145.742 97.1803 145.071 98.232 144.789 99.413Z" fill="#9EBCEA"/>
<path d="M193.683 150.69H107.164C105.412 150.69 103.992 152.11 103.992 153.862C103.992 155.614 105.412 157.034 107.164 157.034H193.683C195.435 157.034 196.855 155.614 196.855 153.862C196.855 152.11 195.435 150.69 193.683 150.69Z" fill="#9EBCEA"/>
<path d="M183.594 134.112C188.27 134.112 192.06 130.322 192.06 125.646C192.06 120.97 188.27 117.18 183.594 117.18C178.918 117.18 175.128 120.97 175.128 125.646C175.128 130.322 178.918 134.112 183.594 134.112Z" fill="white"/>
<path d="M167.29 163.724C162.8 166.494 155.85 167.804 149.79 168.284L149.45 157.244C152.3 157.164 156.68 156.864 160.97 157.034C162.908 155.454 164.024 154.984 166.014 152.994C168.132 150.876 173.69 149.604 174.74 152.994C175.79 156.384 171.23 161.284 167.29 163.724Z" fill="#E98862"/>
<path d="M317.83 452.524H238.453C234.646 452.524 231.559 455.611 231.559 459.418V466.671C231.559 470.478 234.646 473.565 238.453 473.565H317.83C321.637 473.565 324.724 470.478 324.724 466.671V459.418C324.724 455.611 321.637 452.524 317.83 452.524Z" fill="#0CBC8B"/>
<path d="M305.473 431.483H226.096C222.289 431.483 219.202 434.57 219.202 438.377V445.63C219.202 449.437 222.289 452.524 226.096 452.524H305.473C309.28 452.524 312.367 449.437 312.367 445.63V438.377C312.367 434.57 309.28 431.483 305.473 431.483Z" fill="#0CBC8B"/>
<path d="M317.83 410.44H238.453C234.646 410.44 231.559 413.527 231.559 417.334V424.587C231.559 428.394 234.646 431.481 238.453 431.481H317.83C321.637 431.481 324.724 428.394 324.724 424.587V417.334C324.724 413.527 321.637 410.44 317.83 410.44Z" fill="#0CBC8B"/>
<path d="M311.652 389.781H232.275C228.468 389.781 225.381 392.868 225.381 396.675V403.928C225.381 407.735 228.468 410.822 232.275 410.822H311.652C315.459 410.822 318.546 407.735 318.546 403.928V396.675C318.546 392.868 315.459 389.781 311.652 389.781Z" fill="#0CBC8B"/>
<path d="M299.294 368.739H219.917C216.11 368.739 213.023 371.826 213.023 375.633V382.886C213.023 386.693 216.11 389.78 219.917 389.78H299.294C303.101 389.78 306.188 386.693 306.188 382.886V375.633C306.188 371.826 303.101 368.739 299.294 368.739Z" fill="#0CBC8B"/>
<path d="M310.392 473.565H231.015C227.208 473.565 224.121 476.652 224.121 480.459V487.712C224.121 491.519 227.208 494.606 231.015 494.606H310.392C314.199 494.606 317.286 491.519 317.286 487.712V480.459C317.286 476.652 314.199 473.565 310.392 473.565Z" fill="#0CBC8B"/>
<path d="M434.461 473.565H355.084C351.277 473.565 348.19 476.652 348.19 480.459V487.712C348.19 491.519 351.277 494.606 355.084 494.606H434.461C438.268 494.606 441.355 491.519 441.355 487.712V480.459C441.355 476.652 438.268 473.565 434.461 473.565Z" fill="#0CBC8B"/>
<path d="M430.103 452.523H350.726C346.919 452.523 343.832 455.61 343.832 459.417V466.67C343.832 470.477 346.919 473.564 350.726 473.564H430.103C433.91 473.564 436.997 470.477 436.997 466.67V459.417C436.997 455.61 433.91 452.523 430.103 452.523Z" fill="#0CBC8B"/>
<path d="M434.461 431.482H355.084C351.277 431.482 348.19 434.569 348.19 438.376V445.629C348.19 449.436 351.277 452.523 355.084 452.523H434.461C438.268 452.523 441.355 449.436 441.355 445.629V438.376C441.355 434.569 438.268 431.482 434.461 431.482Z" fill="#0CBC8B"/>
</g>
<defs>
<clipPath id="clip0_1_1932">
<rect width="590.4" height="494.607" fill="white"/>
</clipPath>
</defs>
</svg>
