<svg width="1116" height="775" viewBox="0 0 1116 775" fill="none" xmlns="http://www.w3.org/2000/svg">
<g clip-path="url(#clip0_1_593)">
<path opacity="0.2" d="M333.548 100.376L332.755 100.176L81.066 627.108L968.322 695.6L969.322 695.677L1001.83 267.927L1001.9 267.086L333.548 100.376ZM588.429 439.241L84.558 624.437L333.5 103.258L588.429 439.241ZM589.907 440.828L964.7 693.309L87.25 625.579L589.907 440.828ZM590.37 438.492L335.819 103L997.666 268.087L590.37 438.492ZM967.533 692.809L592.139 439.92L999.712 269.4L967.533 692.809Z" fill="#367CFF"/>
<path d="M1115.23 276.835C1114.43 297.12 1108.73 316.91 1098.61 334.513C1088.5 352.116 1074.28 367.008 1057.15 377.918C1040.03 388.827 1020.53 395.429 1000.3 397.16C980.071 398.891 959.725 395.698 941 387.856C932.218 384.175 923.888 379.496 916.176 373.91C901.436 363.268 889.167 349.569 880.21 333.748V333.734C870.659 316.813 865.162 297.907 864.151 278.503C863.139 259.099 866.641 239.724 874.381 221.902C882.121 204.079 893.888 188.294 908.758 175.787C923.628 163.28 941.196 154.391 960.081 149.819C978.966 145.246 998.654 145.116 1017.6 149.436C1036.54 153.757 1054.23 162.412 1069.26 174.72C1084.3 187.029 1096.27 202.656 1104.25 220.374C1112.22 238.092 1115.98 257.418 1115.23 276.834L1115.23 276.835Z" fill="white"/>
<path opacity="0.09" d="M1115.23 276.835C1114.43 297.12 1108.73 316.91 1098.61 334.513C1088.5 352.116 1074.28 367.008 1057.15 377.918C1040.03 388.827 1020.53 395.429 1000.3 397.16C980.071 398.891 959.725 395.698 941 387.856C932.218 384.175 923.888 379.496 916.176 373.91C901.436 363.268 889.167 349.569 880.21 333.748V333.734C870.659 316.813 865.162 297.907 864.151 278.503C863.139 259.099 866.641 239.724 874.381 221.902C882.121 204.079 893.888 188.294 908.758 175.787C923.628 163.28 941.196 154.391 960.081 149.819C978.966 145.246 998.654 145.116 1017.6 149.436C1036.54 153.757 1054.23 162.412 1069.26 174.72C1084.3 187.029 1096.27 202.656 1104.25 220.374C1112.22 238.092 1115.98 257.418 1115.23 276.834L1115.23 276.835Z" fill="#367CFF"/>
<path d="M1019.37 176.256C1019.37 176.256 1049.41 176.624 1039.05 218.029L1036.23 218.167L1030.5 218.446" fill="#0C0C0C"/>
<path d="M985.819 261.47C985.959 261.457 986.513 287.283 1016.53 286.198C1037.31 285.45 1045.56 263.751 1046.03 263.769C1043.82 263.208 1040.08 262.369 1039.11 261.803C1035.91 259.924 1031.95 257.943 1031.14 251.565C1030.68 247.889 1032.43 229.245 1032.26 225.538L1000.17 231.403C1000.31 239.225 1002.72 257.437 991.697 260.216C989.861 260.676 987.888 261.087 985.819 261.47Z" fill="#E98862"/>
<path opacity="0.52" d="M998.884 253.09C999.445 251.504 999.83 249.86 1000.03 248.19C1000.53 244.38 1000.61 240.527 1000.27 236.699C1006.77 236.077 1012.96 233.645 1018.15 229.679C1018.65 231.879 1021.53 241.541 1020.55 243.579C1018.7 247.433 1010.46 253.54 998.884 253.09Z" fill="#0C0C0C"/>
<path d="M1006.17 248.527C1018.74 247.627 1033.92 239.97 1034.44 222.927L1034.92 207.552C1035.45 190.512 1026.92 176.421 1010.88 175.925C994.836 175.425 982.416 188.871 981.889 205.911L981.679 212.718C981.647 215.057 981.775 217.396 982.061 219.718C982.773 225.858 983.879 235.194 987.922 241.569C991.738 247.587 998.132 249.1 1006.17 248.527Z" fill="#E98862"/>
<path d="M1033.29 228.091C1038.16 228.241 1042.28 223.147 1042.43 218.272C1042.58 213.397 1038.71 210.585 1033.83 210.434L1031.22 213.623L1029.09 227.961L1033.29 228.091Z" fill="#E98862"/>
<path d="M982.714 224.864C983.595 225.908 984.723 226.716 985.995 227.213C987.268 227.71 988.645 227.881 990 227.71C992.9 227.345 994.823 228.535 997.244 228.296C999.276 228.096 999.628 227.157 1003.1 226.952C1016.48 226.159 1026.53 225.315 1027.18 208.516L1035.7 200.949C1035.7 200.949 1039.51 247.501 1014.33 253.689C998.856 257.489 984.345 256.1 982.479 241.569C980.963 229.762 982.714 224.864 982.714 224.864Z" fill="#0C0C0C"/>
<path d="M989.057 215.142C990.149 215.142 991.034 214.257 991.034 213.165C991.034 212.073 990.149 211.188 989.057 211.188C987.965 211.188 987.08 212.073 987.08 213.165C987.08 214.257 987.965 215.142 989.057 215.142Z" fill="#0C0C0C"/>
<path d="M1006.72 214.774C1007.81 214.774 1008.7 213.889 1008.7 212.797C1008.7 211.705 1007.81 210.82 1006.72 210.82C1005.63 210.82 1004.74 211.705 1004.74 212.797C1004.74 213.889 1005.63 214.774 1006.72 214.774Z" fill="#0C0C0C"/>
<path d="M1028.58 220.165C1028.58 220.165 1027.37 196.019 1020.08 194.396C1015.23 193.315 1003.3 200.009 992.392 197.723C987.623 196.723 983.058 197.823 982.554 200.077C982.354 200.969 978.58 193.058 986.254 183.432C992.363 175.768 1012.23 173.612 1021.07 176.322C1045.54 183.828 1034.82 211.515 1034.82 211.515L1033.57 219.809L1028.58 220.165Z" fill="#0C0C0C"/>
<path d="M1039.7 200.695C1046.9 200.695 1052.74 194.856 1052.74 187.653C1052.74 180.45 1046.9 174.611 1039.7 174.611C1032.5 174.611 1026.66 180.45 1026.66 187.653C1026.66 194.856 1032.5 200.695 1039.7 200.695Z" fill="#0C0C0C"/>
<g opacity="0.52">
<path d="M997.483 227.52H997.452C995.881 227.475 993.252 227.225 993.282 226.05C993.31 225.076 996.274 214.638 996.612 213.45C996.641 213.348 996.709 213.261 996.802 213.21C996.895 213.158 997.004 213.145 997.107 213.174C997.209 213.204 997.295 213.272 997.347 213.365C997.398 213.457 997.411 213.567 997.382 213.669C996.066 218.292 994.102 225.41 994.082 226.069C994.229 226.351 995.847 226.669 997.474 226.716C997.58 226.715 997.682 226.756 997.758 226.83C997.834 226.904 997.877 227.005 997.878 227.111C997.88 227.218 997.839 227.32 997.765 227.396C997.69 227.472 997.589 227.515 997.483 227.516V227.52Z" fill="#0C0C0C"/>
</g>
<path d="M992.7 206.448C991.077 205.967 989.354 205.933 987.713 206.348C986.905 206.547 986.132 206.865 985.419 207.294C984.713 207.714 984.063 208.222 983.484 208.805C983.384 208.895 983.323 209.021 983.316 209.156C983.308 209.29 983.355 209.422 983.444 209.523C983.534 209.623 983.66 209.683 983.795 209.691C983.93 209.698 984.062 209.652 984.162 209.562L984.193 209.536C984.733 209.049 985.331 208.632 985.975 208.295C986.609 207.959 987.289 207.721 987.994 207.589C989.385 207.317 990.823 207.417 992.163 207.88L992.214 207.899C992.309 207.936 992.409 207.953 992.511 207.95C992.612 207.947 992.712 207.925 992.805 207.883C992.897 207.841 992.98 207.781 993.049 207.707C993.118 207.633 993.172 207.545 993.207 207.45C993.242 207.355 993.258 207.254 993.253 207.152C993.249 207.051 993.224 206.952 993.181 206.86C993.137 206.768 993.076 206.686 993 206.618C992.925 206.55 992.837 206.498 992.741 206.465L992.7 206.448Z" fill="#0C0C0C"/>
<path d="M1004.35 207.882C1005.64 207.29 1007.06 207.051 1008.47 207.187C1009.18 207.25 1009.88 207.421 1010.55 207.694C1011.22 207.967 1011.86 208.323 1012.44 208.755L1012.47 208.777C1012.58 208.848 1012.71 208.875 1012.84 208.851C1012.97 208.828 1013.08 208.757 1013.16 208.652C1013.24 208.547 1013.27 208.417 1013.25 208.288C1013.24 208.159 1013.17 208.041 1013.07 207.959C1012.44 207.435 1011.74 206.993 1011 206.643C1010.25 206.286 1009.45 206.044 1008.62 205.924C1006.95 205.672 1005.24 205.875 1003.67 206.511C1003.49 206.591 1003.34 206.74 1003.27 206.926C1003.19 207.112 1003.19 207.32 1003.27 207.505C1003.35 207.691 1003.49 207.838 1003.68 207.916C1003.86 207.994 1004.07 207.996 1004.26 207.922L1004.29 207.906L1004.35 207.882Z" fill="#0C0C0C"/>
<path d="M1084.44 325.957C1083.32 334.4 1082.23 345.997 1081.26 357.988C1077.45 362.041 1073.38 365.838 1069.07 369.354C1066.33 371.579 1063.5 373.695 1060.58 375.7C1044.82 386.46 1026.82 393.497 1007.94 396.276C989.053 399.056 969.786 397.507 951.59 391.746C951.342 380.608 951.004 365.584 950.668 351.82C950.283 335.943 949.894 321.727 949.685 317.056C948.823 298.518 943.909 286.149 947.624 276.035C948.735 273.041 950.521 270.344 952.843 268.152C961.498 259.681 982.997 259.874 991.62 260.209C991.77 260.215 989.106 280.116 1017.48 279.876C1038.33 279.705 1039.89 262.082 1039.89 262.082C1039.89 262.082 1050.17 263.151 1056.99 264.336C1068.16 266.291 1075.41 270.385 1081.06 276.499C1086.33 282.2 1089.44 288.252 1084.44 325.957Z" fill="#367CFF"/>
<path d="M917.648 262.171L918.506 240.936C918.526 240.469 918.448 240.003 918.277 239.568C918.107 239.133 917.847 238.738 917.516 238.409C917.184 238.079 916.787 237.823 916.351 237.655C915.914 237.488 915.448 237.413 914.981 237.436C914.121 237.505 913.318 237.892 912.726 238.52C912.135 239.148 911.798 239.974 911.781 240.836L911.597 245.39L905.6 230.807C904.962 229.174 903.134 227.578 901.349 228.415C900.641 228.692 900.048 229.201 899.667 229.858C899.285 230.516 899.138 231.283 899.249 232.035C899.232 232.037 899.215 232.041 899.199 232.046C899.188 232.052 899.177 232.06 899.167 232.068L898.183 229.55C898.001 229.084 897.716 228.664 897.351 228.321C896.986 227.978 896.549 227.722 896.071 227.569C895.594 227.417 895.089 227.373 894.593 227.441C894.097 227.509 893.622 227.686 893.203 227.961C892.552 228.407 892.074 229.062 891.848 229.818C891.623 230.574 891.663 231.385 891.964 232.114L892.383 233.185C892.358 233.212 892.337 233.242 892.322 233.276C891.871 232.618 891.201 232.142 890.432 231.933C889.663 231.724 888.844 231.795 888.122 232.133C887.343 232.528 886.741 233.201 886.437 234.02C886.132 234.839 886.148 235.742 886.48 236.55L887.52 239.212C887.479 239.185 887.432 239.168 887.383 239.162C887.334 239.156 887.284 239.163 887.238 239.18C887.184 239.204 887.138 239.243 887.106 239.292C886.542 238.817 885.837 238.541 885.1 238.506C884.363 238.47 883.635 238.678 883.028 239.097C882.399 239.55 881.942 240.202 881.73 240.947C881.518 241.693 881.564 242.488 881.86 243.204L890.637 265.663C891.865 268.805 894.003 271.509 896.777 273.427C899.552 275.346 902.836 276.393 906.209 276.433C909.118 276.467 911.925 275.366 914.035 273.364C916.145 271.362 917.391 268.616 917.509 265.709L917.648 262.171Z" fill="#E98862"/>
<g opacity="0.2">
<path d="M905.111 246.5C905.035 246.529 904.951 246.528 904.876 246.496C904.801 246.464 904.742 246.403 904.711 246.328L899.028 232.451C899.01 232.413 899 232.371 898.999 232.329C898.997 232.287 899.004 232.245 899.02 232.206C899.035 232.166 899.058 232.131 899.088 232.101C899.117 232.07 899.153 232.047 899.192 232.031C899.231 232.015 899.273 232.007 899.315 232.008C899.357 232.008 899.399 232.018 899.437 232.035C899.476 232.052 899.51 232.077 899.539 232.108C899.567 232.14 899.589 232.176 899.603 232.216L905.286 246.093C905.302 246.131 905.309 246.171 905.309 246.212C905.309 246.253 905.301 246.293 905.285 246.331C905.269 246.368 905.246 246.403 905.217 246.431C905.188 246.46 905.154 246.483 905.116 246.498L905.111 246.5Z" fill="#0C0C0C"/>
</g>
<g opacity="0.2">
<path d="M899.06 249.176C898.984 249.206 898.899 249.204 898.824 249.172C898.75 249.139 898.69 249.079 898.66 249.003L892.318 233.516C892.288 233.44 892.289 233.356 892.321 233.281C892.353 233.206 892.413 233.147 892.488 233.116C892.564 233.089 892.647 233.091 892.721 233.123C892.795 233.154 892.855 233.212 892.888 233.285L899.23 248.772C899.261 248.848 899.261 248.934 899.229 249.01C899.197 249.086 899.136 249.146 899.06 249.177V249.176Z" fill="#0C0C0C"/>
</g>
<g opacity="0.2">
<path d="M892.523 252.111C892.447 252.141 892.362 252.139 892.287 252.107C892.213 252.074 892.153 252.014 892.123 251.938L887.064 239.585C887.033 239.509 887.033 239.424 887.065 239.348C887.097 239.272 887.157 239.212 887.234 239.18C887.31 239.149 887.395 239.15 887.471 239.181C887.547 239.213 887.607 239.274 887.638 239.35L892.7 251.7C892.731 251.776 892.731 251.862 892.699 251.938C892.667 252.014 892.606 252.074 892.53 252.105L892.523 252.111Z" fill="#0C0C0C"/>
</g>
<path d="M987.941 295.463L936.261 374.919C934.381 377.807 931.863 380.226 928.902 381.989C924.498 379.56 920.247 376.862 916.175 373.91C907.495 367.647 899.652 360.3 892.835 352.048L881.98 267.884L925.423 260.923L930.376 301.435L950.224 270.922L987.941 295.463Z" fill="#367CFF"/>
<path d="M994 231.855C998.74 232.17 1003.45 230.896 1007.39 228.234C1007.52 228.142 1007.68 228.092 1007.85 228.087C1008.01 228.083 1008.17 228.126 1008.31 228.211C1008.46 228.295 1008.57 228.418 1008.64 228.565C1008.72 228.712 1008.75 228.877 1008.73 229.041C1008.41 231.841 1007.03 236.991 1001.16 237.647C997.362 238.07 994.613 235.157 993.228 233.22C993.132 233.086 993.077 232.927 993.068 232.763C993.059 232.598 993.098 232.435 993.179 232.291C993.26 232.148 993.38 232.031 993.526 231.954C993.671 231.876 993.836 231.842 994 231.855Z" fill="white"/>
<path d="M1098.45 334.887C1090.82 348.054 1080.86 359.731 1069.07 369.354C1066.33 371.579 1063.5 373.695 1060.58 375.7L1040.4 298.909L1085.86 286.952L1098.45 334.887Z" fill="#367CFF"/>
<path d="M1061.03 375.4C1060.88 375.494 1060.73 375.6 1060.58 375.7C1060.44 375.8 1060.3 375.9 1060.15 375.993L1044.77 317.493L1045.74 317.24L1061.03 375.4Z" fill="#0C0C0C"/>
<path d="M950.79 355.437C950.665 355.432 950.546 355.38 950.458 355.292C950.369 355.203 950.317 355.085 950.311 354.96L949.319 333.16C949.313 333.027 949.36 332.898 949.45 332.8C949.539 332.702 949.664 332.643 949.797 332.638C949.929 332.632 950.059 332.678 950.157 332.768C950.255 332.858 950.313 332.982 950.319 333.115L951.31 354.915C951.316 355.047 951.269 355.177 951.18 355.274C951.091 355.372 950.966 355.431 950.834 355.437H950.79Z" fill="#0C0C0C"/>
<path d="M576.92 557.165C647.676 557.165 705.035 499.806 705.035 429.05C705.035 358.294 647.676 300.935 576.92 300.935C506.164 300.935 448.805 358.294 448.805 429.05C448.805 499.806 506.164 557.165 576.92 557.165Z" fill="white"/>
<path opacity="0.09" d="M705.036 429.047C705.036 454.385 697.522 479.155 683.445 500.223C669.368 521.291 649.359 537.711 625.95 547.408C602.54 557.105 576.781 559.642 551.929 554.698C527.078 549.755 504.25 537.554 486.333 519.637C468.416 501.72 456.215 478.892 451.272 454.041C446.328 429.189 448.865 403.43 458.562 380.02C468.259 356.611 484.679 336.602 505.747 322.525C526.815 308.448 551.585 300.934 576.923 300.934C593.764 300.872 610.452 304.143 626.023 310.559C641.595 316.975 655.743 326.41 667.651 338.319C679.56 350.227 688.995 364.375 695.411 379.947C701.827 395.518 705.098 412.205 705.036 429.047Z" fill="#367CFF"/>
<path d="M520.21 353.485C520.21 353.485 518.922 372.825 514.57 379.842C502.044 400.042 498.415 422.767 510.959 434.642C523.503 446.517 603.514 446.68 609.575 419.372C614.675 396.382 603.727 393.91 601.063 374.945C599.857 366.364 596.54 348.37 596.54 348.37" fill="#0A0A0A"/>
<path d="M588.865 415.365C588.727 415.347 587.195 440.778 557.651 438.565C537.199 437.033 529.907 415.333 529.438 415.333C531.643 414.865 535.356 414.183 536.338 413.661C539.558 411.93 543.543 410.13 544.581 403.875C545.181 400.275 544.164 381.829 544.481 378.182L575.875 385.189C575.437 392.889 572.366 410.749 583.127 413.909C584.912 414.428 586.841 414.909 588.865 415.365Z" fill="#E98862"/>
<path opacity="0.5" d="M576.309 406.608C575.818 405.023 575.501 403.389 575.365 401.735C575.02 397.961 575.089 394.161 575.57 390.402C569.189 389.541 563.178 386.908 558.219 382.802C557.636 384.955 554.43 394.362 555.319 396.409C557 400.274 564.88 406.608 576.309 406.608Z" fill="#0C0C0C"/>
<path d="M572.25 398.685C559.872 399.885 543.857 394.931 540.54 378.448L537.546 363.575C534.229 347.092 540.197 331.987 555.716 328.864C571.236 325.74 585.526 336.764 588.843 353.251L590.169 359.835C591.442 366.16 594.334 396.548 572.25 398.685Z" fill="#E98862"/>
<path opacity="0.1" d="M564.381 377.089C566.418 376.846 567.924 375.438 567.746 373.943C567.568 372.449 565.772 371.434 563.736 371.677C561.699 371.92 560.192 373.329 560.371 374.823C560.549 376.318 562.344 377.332 564.381 377.089Z" fill="#0C0C0C"/>
<path opacity="0.1" d="M585.905 371.112C586.088 372.603 587.883 373.612 589.92 373.376C590.272 373.334 590.619 373.255 590.955 373.142C591.049 371.363 591.055 369.651 591.003 368.067C590.437 367.926 589.85 367.892 589.272 367.967C587.235 368.206 585.729 369.614 585.905 371.112Z" fill="#0C0C0C"/>
<path opacity="0.5" d="M576.905 375.723H576.935C577.564 375.591 578.185 375.424 578.795 375.223C579.706 374.923 580.895 374.418 580.733 373.594C580.544 372.654 575.933 363.039 575.406 361.945C575.357 361.855 575.275 361.788 575.178 361.757C575.08 361.725 574.974 361.733 574.882 361.777C574.79 361.821 574.718 361.899 574.682 361.995C574.645 362.091 574.647 362.196 574.686 362.291C576.653 366.391 579.822 373.119 579.949 373.751C579.849 374.046 578.338 374.622 576.777 374.937C576.678 374.96 576.591 375.019 576.535 375.104C576.478 375.188 576.455 375.291 576.472 375.391C576.488 375.491 576.542 375.582 576.622 375.644C576.703 375.706 576.804 375.735 576.905 375.725V375.723Z" fill="#0C0C0C"/>
<path d="M525.163 368.914L539.077 366.196C549.587 361.796 552.569 343.484 552.569 343.484C552.569 343.484 565.54 355.837 596.54 348.367C596.54 348.367 589.806 305.091 544.032 318.227C529.272 322.462 518.817 337.507 520.372 357.433C521.461 371.4 525.163 368.914 525.163 368.914Z" fill="#0A0A0A"/>
<path d="M542.514 383.276C537.798 384.225 532.959 379.949 532.014 375.232C531.069 370.515 534.364 367.145 539.081 366.196L542.147 368.867L546.573 382.46L542.514 383.276Z" fill="#E98862"/>
<path d="M578.751 354.277C579.931 353.441 581.311 352.934 582.751 352.807C583.474 352.738 584.203 352.778 584.914 352.926C585.631 353.072 586.327 353.307 586.986 353.626L587.007 353.635C587.08 353.664 587.161 353.665 587.233 353.636C587.306 353.608 587.365 353.552 587.399 353.482C587.432 353.411 587.437 353.33 587.412 353.256C587.388 353.181 587.336 353.119 587.267 353.082C586.569 352.713 585.828 352.435 585.06 352.252C584.287 352.064 583.491 351.993 582.697 352.042C581.09 352.131 579.536 352.649 578.197 353.542C578.145 353.575 578.1 353.618 578.065 353.669C578.031 353.719 578.006 353.777 577.994 353.837C577.981 353.897 577.981 353.959 577.993 354.02C578.005 354.08 578.029 354.137 578.064 354.188C578.099 354.239 578.143 354.282 578.195 354.315C578.247 354.349 578.305 354.371 578.365 354.382C578.426 354.392 578.488 354.39 578.548 354.376C578.608 354.362 578.664 354.336 578.714 354.3L578.724 354.293L578.751 354.277Z" fill="#0C0C0C"/>
<path d="M566.041 356.033C564.461 355.719 562.826 355.835 561.306 356.368C560.555 356.627 559.847 356.998 559.206 357.468C558.567 357.931 557.989 358.473 557.485 359.08C557.434 359.14 557.408 359.218 557.413 359.297C557.418 359.377 557.454 359.451 557.512 359.504C557.571 359.557 557.648 359.586 557.727 359.584C557.806 359.581 557.882 359.549 557.937 359.492L557.953 359.475C558.438 358.927 558.991 358.443 559.598 358.034C560.198 357.624 560.856 357.308 561.551 357.095C562.93 356.663 564.399 356.603 565.809 356.922L565.844 356.93C565.903 356.946 565.965 356.949 566.025 356.941C566.086 356.932 566.144 356.912 566.197 356.881C566.249 356.85 566.295 356.808 566.331 356.759C566.367 356.71 566.394 356.654 566.408 356.594C566.422 356.535 566.425 356.473 566.415 356.413C566.405 356.353 566.383 356.295 566.351 356.243C566.319 356.191 566.276 356.146 566.226 356.111C566.176 356.076 566.12 356.051 566.06 356.038L566.041 356.033Z" fill="#0C0C0C"/>
<path d="M539.086 365.968C548.439 362.487 551.542 356.028 552.499 351.221C553.117 348.015 553.059 344.716 552.329 341.534L552.039 341.614C552.759 344.755 552.814 348.011 552.202 351.174C551.259 355.901 548.202 362.257 538.981 365.687L539.086 365.968Z" fill="#0C0C0C"/>
<path d="M657.338 410.3L662.938 391.3C663.061 390.883 663.27 390.495 663.551 390.163C663.831 389.831 664.178 389.56 664.569 389.369C664.96 389.178 665.387 389.071 665.822 389.054C666.257 389.037 666.69 389.11 667.095 389.27C667.833 389.588 668.427 390.169 668.761 390.9C669.095 391.631 669.146 392.46 668.904 393.226L667.704 397.3L677.357 386.222C678.409 384.971 680.499 384.109 681.824 385.382C682.366 385.838 682.737 386.465 682.877 387.159C683.017 387.853 682.918 388.574 682.595 389.205C682.609 389.212 682.623 389.22 682.635 389.23C682.643 389.239 682.651 389.249 682.657 389.259L684.279 387.33C684.58 386.973 684.956 386.688 685.381 386.495C685.806 386.302 686.268 386.206 686.735 386.214C687.201 386.223 687.66 386.335 688.078 386.544C688.496 386.752 688.861 387.05 689.149 387.418C689.59 388.006 689.816 388.727 689.789 389.462C689.762 390.196 689.483 390.899 689 391.453L688.31 392.274C688.325 392.305 688.334 392.339 688.336 392.374C688.931 391.928 689.665 391.708 690.407 391.754C691.149 391.799 691.851 392.108 692.387 392.623C692.957 393.204 693.287 393.979 693.311 394.792C693.335 395.606 693.051 396.399 692.516 397.012L690.801 399.05C690.846 399.038 690.892 399.037 690.937 399.047C690.982 399.056 691.024 399.077 691.06 399.106C691.1 399.143 691.129 399.192 691.143 399.245C691.784 398.995 692.489 398.963 693.15 399.154C693.811 399.345 694.391 399.747 694.8 400.3C695.219 400.888 695.427 401.6 695.391 402.321C695.354 403.042 695.076 403.73 694.6 404.273L680.136 421.473C678.112 423.879 675.417 425.625 672.394 426.488C669.371 427.352 666.16 427.293 663.171 426.319C660.594 425.48 658.446 423.668 657.183 421.27C655.92 418.872 655.642 416.076 656.408 413.476L657.338 410.3Z" fill="#E98862"/>
<g opacity="0.2">
<path d="M673.09 400.222C673.148 400.269 673.222 400.292 673.297 400.285C673.371 400.279 673.44 400.245 673.49 400.189L682.656 389.642C682.706 389.584 682.731 389.509 682.726 389.432C682.721 389.355 682.685 389.284 682.627 389.234C682.569 389.184 682.494 389.159 682.417 389.164C682.34 389.169 682.269 389.205 682.219 389.263L673.053 399.809C673.028 399.838 673.009 399.871 672.997 399.907C672.985 399.943 672.98 399.981 672.983 400.019C672.986 400.057 672.996 400.094 673.013 400.128C673.03 400.162 673.053 400.192 673.082 400.217L673.09 400.222Z" fill="#0C0C0C"/>
</g>
<g opacity="0.2">
<path d="M677.63 404.392C677.688 404.439 677.762 404.462 677.837 404.456C677.911 404.45 677.981 404.415 678.03 404.359L688.259 392.589C688.284 392.56 688.303 392.527 688.315 392.491C688.327 392.455 688.332 392.417 688.329 392.379C688.326 392.341 688.316 392.304 688.299 392.27C688.282 392.236 688.259 392.206 688.23 392.181C688.171 392.133 688.096 392.11 688.02 392.115C687.945 392.121 687.874 392.154 687.822 392.21L677.6 403.98C677.575 404.009 677.556 404.042 677.544 404.078C677.532 404.114 677.527 404.152 677.53 404.19C677.533 404.228 677.543 404.265 677.56 404.299C677.577 404.333 677.6 404.363 677.629 404.388L677.63 404.392Z" fill="#0C0C0C"/>
</g>
<g opacity="0.2">
<path d="M682.521 408.938C682.579 408.985 682.653 409.008 682.728 409.002C682.802 408.996 682.872 408.961 682.921 408.905L691.081 399.517C691.126 399.458 691.148 399.385 691.141 399.311C691.133 399.237 691.098 399.169 691.042 399.12C690.986 399.072 690.914 399.046 690.84 399.049C690.766 399.052 690.696 399.084 690.644 399.137L682.484 408.526C682.459 408.555 682.44 408.588 682.428 408.624C682.416 408.66 682.411 408.698 682.414 408.736C682.417 408.774 682.427 408.811 682.444 408.845C682.461 408.879 682.484 408.909 682.513 408.934L682.521 408.938Z" fill="#0C0C0C"/>
</g>
<path d="M691.419 418.594L669.769 516.814C669.719 517.034 669.669 517.264 669.609 517.484C664.747 522.572 659.479 527.257 653.859 531.493C652.729 532.334 651.599 533.164 650.439 533.964C649.722 534.044 649.001 534.084 648.279 534.084C644.42 534.083 640.63 533.067 637.288 531.138C633.946 529.209 631.17 526.435 629.239 523.094L587.979 451.7L626.079 429.691L638.989 452.031L648.449 409.121L691.419 418.594Z" fill="#0CBC8B"/>
<path d="M624.789 463.374C624.659 464.933 624.399 467.714 624.039 471.374C622.239 490.084 618.029 531.784 616.079 551.054C591.444 558.929 565.008 559.198 540.219 551.824H540.209C521.902 546.344 505.056 536.831 490.909 523.984C490.989 506.754 490.739 487.374 489.579 474.914C486.109 437.683 489.389 431.854 494.779 426.464C495.219 426.024 495.679 425.594 496.139 425.174C501.709 420.114 508.699 416.814 518.889 415.433C525.629 414.524 535.769 413.864 535.769 413.864C535.769 413.864 536.629 431.243 557.099 432.203C584.969 433.514 583.109 413.864 583.249 413.864C590.259 413.864 605.859 414.304 615.699 419.314C615.709 419.314 615.709 419.314 615.719 419.324C617.7 420.288 619.503 421.584 621.049 423.154C632.319 435.094 626.759 440.2 624.789 463.374Z" fill="#0CBC8B"/>
<path d="M581.054 378.972C577.032 381.017 572.444 381.663 568.014 380.81C567.861 380.781 567.702 380.796 567.557 380.854C567.412 380.912 567.286 381.01 567.195 381.136C567.103 381.263 567.05 381.412 567.041 381.568C567.031 381.724 567.066 381.879 567.142 382.016C568.465 384.343 571.596 388.322 576.97 386.701C580.44 385.654 581.752 382.084 582.238 379.875C582.272 379.722 582.261 379.563 582.207 379.416C582.153 379.269 582.058 379.141 581.934 379.046C581.81 378.951 581.661 378.894 581.505 378.88C581.349 378.867 581.193 378.899 581.054 378.972Z" fill="white"/>
<path d="M581.306 361.086C582.379 361.086 583.249 360.216 583.249 359.143C583.249 358.07 582.379 357.2 581.306 357.2C580.233 357.2 579.363 358.07 579.363 359.143C579.363 360.216 580.233 361.086 581.306 361.086Z" fill="#0C0C0C"/>
<path d="M562.632 364.355C563.705 364.355 564.575 363.485 564.575 362.412C564.575 361.339 563.705 360.469 562.632 360.469C561.559 360.469 560.689 361.339 560.689 362.412C560.689 363.485 561.559 364.355 562.632 364.355Z" fill="#0C0C0C"/>
<path d="M620.492 505.319C620.479 505.32 620.467 505.32 620.454 505.319C620.375 505.308 620.304 505.266 620.256 505.203C620.208 505.14 620.187 505.06 620.198 504.981L623.633 470.372C623.638 470.333 623.65 470.294 623.67 470.26C623.69 470.226 623.716 470.196 623.748 470.172C623.779 470.148 623.816 470.13 623.854 470.121C623.893 470.111 623.933 470.11 623.972 470.116C624.051 470.127 624.122 470.169 624.17 470.232C624.218 470.295 624.239 470.375 624.228 470.454L620.793 505.063C620.782 505.135 620.746 505.2 620.691 505.248C620.635 505.295 620.565 505.32 620.492 505.319Z" fill="#0C0C0C"/>
<path d="M599.7 503.652L618.475 495.267C618.887 495.084 619.333 494.988 619.784 494.986C620.236 494.985 620.682 495.077 621.096 495.257C621.51 495.437 621.882 495.701 622.188 496.032C622.494 496.364 622.728 496.755 622.875 497.182C623.122 497.979 623.064 498.839 622.713 499.595C622.362 500.352 621.743 500.951 620.975 501.277L616.949 503.077L632.205 503.234C633.905 503.222 635.991 504.292 635.879 506.196C635.884 506.931 635.639 507.647 635.185 508.225C634.731 508.804 634.095 509.212 633.379 509.382C633.383 509.398 633.386 509.414 633.386 509.43C633.384 509.442 633.382 509.455 633.379 509.467L635.995 509.449C636.479 509.446 636.958 509.551 637.396 509.756C637.834 509.961 638.222 510.261 638.529 510.635C638.837 511.008 639.058 511.446 639.175 511.915C639.293 512.385 639.304 512.875 639.208 513.349C639.041 514.093 638.623 514.758 638.024 515.231C637.426 515.704 636.683 515.958 635.92 515.949L634.807 515.957C634.792 515.989 634.772 516.019 634.747 516.044C635.5 516.213 636.169 516.645 636.633 517.262C637.098 517.878 637.328 518.64 637.282 519.411C637.207 520.253 636.817 521.035 636.191 521.602C635.564 522.169 634.747 522.48 633.902 522.471L631.137 522.49C631.176 522.517 631.209 522.554 631.231 522.596C631.253 522.638 631.265 522.685 631.266 522.733C631.264 522.79 631.245 522.844 631.213 522.891C631.843 523.228 632.344 523.764 632.64 524.414C632.936 525.065 633.01 525.794 632.85 526.491C632.668 527.218 632.247 527.863 631.653 528.321C631.059 528.779 630.329 529.023 629.579 529.014L606.25 529.18C602.986 529.203 599.79 528.251 597.071 526.446C594.352 524.641 592.234 522.065 590.988 519.048C589.913 516.447 589.896 513.529 590.938 510.915C591.981 508.3 594.002 506.196 596.572 505.048L599.7 503.652Z" fill="#E98862"/>
<g opacity="0.2">
<path d="M618.278 509.3C618.278 509.38 618.31 509.456 618.366 509.512C618.422 509.568 618.498 509.6 618.578 509.6L633.086 509.731C633.166 509.732 633.242 509.701 633.299 509.645C633.356 509.589 633.388 509.513 633.388 509.434C633.389 509.354 633.358 509.277 633.302 509.221C633.247 509.164 633.171 509.132 633.091 509.131L618.581 509C618.501 509 618.425 509.032 618.369 509.088C618.313 509.144 618.281 509.22 618.281 509.3H618.278Z" fill="#0C0C0C"/>
</g>
<g opacity="0.2">
<path d="M618.044 515.7C618.044 515.78 618.076 515.856 618.132 515.912C618.188 515.968 618.264 516 618.344 516L634.534 516.146C634.614 516.146 634.69 516.114 634.746 516.058C634.802 516.002 634.834 515.926 634.834 515.846C634.832 515.767 634.799 515.692 634.744 515.636C634.688 515.581 634.613 515.548 634.534 515.546L618.343 515.4C618.263 515.4 618.187 515.432 618.131 515.488C618.075 515.544 618.044 515.62 618.044 515.7Z" fill="#0C0C0C"/>
</g>
<g opacity="0.2">
<path d="M617.75 522.623C617.75 522.703 617.782 522.779 617.838 522.835C617.894 522.891 617.97 522.923 618.05 522.923L630.965 523.04C631.045 523.04 631.121 523.008 631.177 522.952C631.233 522.896 631.265 522.82 631.265 522.74C631.265 522.66 631.233 522.584 631.177 522.528C631.121 522.472 631.045 522.44 630.965 522.44L618.05 522.324C617.97 522.324 617.894 522.356 617.838 522.412C617.782 522.468 617.75 522.544 617.75 522.624V522.623Z" fill="#0C0C0C"/>
</g>
<path d="M605.079 537.084L540.219 551.824H540.209C521.902 546.344 505.056 536.831 490.909 523.984C489.389 522.604 487.902 521.19 486.449 519.743C483.916 517.214 481.492 514.585 479.179 511.854L488.259 438.814C489.25 432.926 492.539 427.673 497.402 424.21C502.266 420.747 508.306 419.358 514.194 420.349C520.082 421.34 525.335 424.629 528.798 429.492C532.261 434.356 533.65 440.396 532.659 446.284L526.919 514.864L599.239 498.493L605.079 537.084Z" fill="#0CBC8B"/>
<path d="M512.29 517.558C512.251 517.561 512.211 517.556 512.173 517.544C512.136 517.531 512.101 517.512 512.071 517.486C512.041 517.46 512.017 517.429 511.999 517.394C511.981 517.358 511.97 517.32 511.967 517.281C511.965 517.241 511.969 517.202 511.982 517.164C511.994 517.126 512.014 517.092 512.039 517.062C512.065 517.032 512.097 517.007 512.132 516.989C512.167 516.972 512.206 516.961 512.245 516.958L526.745 513.858C526.784 513.852 526.824 513.854 526.862 513.863C526.9 513.873 526.936 513.89 526.968 513.913C527 513.936 527.027 513.966 527.047 514C527.068 514.034 527.081 514.071 527.087 514.11C527.093 514.149 527.091 514.189 527.081 514.227C527.072 514.265 527.055 514.301 527.031 514.333C527.008 514.365 526.978 514.391 526.944 514.412C526.91 514.432 526.873 514.445 526.834 514.451L512.329 517.551C512.316 517.555 512.303 517.557 512.29 517.558Z" fill="#0C0C0C"/>
<path d="M605.079 537.084C605.095 537.161 605.082 537.241 605.041 537.308C605 537.375 604.935 537.423 604.859 537.444L541.849 552.294C541.449 552.183 541.059 552.074 540.669 551.953L604.419 536.944L598.739 498.944L526.849 514.453C526.802 514.461 526.755 514.457 526.71 514.444C526.665 514.43 526.623 514.406 526.589 514.374C526.559 514.338 526.537 514.297 526.523 514.252C526.509 514.207 526.504 514.16 526.509 514.114L530.539 474.924C530.546 474.885 530.561 474.848 530.582 474.815C530.604 474.782 530.631 474.753 530.664 474.731C530.696 474.708 530.733 474.693 530.772 474.685C530.81 474.676 530.85 474.676 530.889 474.683C530.967 474.695 531.037 474.738 531.084 474.802C531.131 474.866 531.151 474.946 531.139 475.024L527.169 513.814L598.869 498.274C598.908 498.263 598.949 498.261 598.989 498.268C599.028 498.275 599.066 498.291 599.099 498.314C599.133 498.333 599.164 498.358 599.188 498.389C599.212 498.42 599.229 498.455 599.239 498.493L605.079 537.084Z" fill="#0C0C0C"/>
<path d="M117.474 704.777C182.353 704.777 234.948 652.182 234.948 587.303C234.948 522.424 182.353 469.829 117.474 469.829C52.5949 469.829 0 522.424 0 587.303C0 652.182 52.5949 704.777 117.474 704.777Z" fill="white"/>
<path opacity="0.09" d="M117.474 704.777C182.353 704.777 234.948 652.182 234.948 587.303C234.948 522.424 182.353 469.829 117.474 469.829C52.5949 469.829 0 522.424 0 587.303C0 652.182 52.5949 704.777 117.474 704.777Z" fill="#367CFF"/>
<path d="M85.123 520.672C85.123 520.672 86.396 556.053 110.011 557.679L114.011 511.023L85.123 520.672Z" fill="#0A0A0A"/>
<path d="M89.671 564.906C97.3975 564.906 103.661 558.642 103.661 550.916C103.661 543.19 97.3975 536.926 89.671 536.926C81.9445 536.926 75.681 543.19 75.681 550.916C75.681 558.642 81.9445 564.906 89.671 564.906Z" fill="#0A0A0A"/>
<path d="M144.41 574.1C144.285 574.083 142.903 597.025 116.251 595.025C97.8 593.646 91.222 574.07 90.8 574.07C92.9084 573.72 94.9884 573.215 97.023 572.561C99.928 571 103.523 569.376 104.459 563.734C104.999 560.482 104.084 543.845 104.365 540.555L132.687 546.877C132.287 553.825 129.521 569.934 139.229 572.786C140.843 573.257 142.583 573.691 144.41 574.1Z" fill="#E98862"/>
<path opacity="0.5" d="M133.083 566.2C132.639 564.769 132.353 563.293 132.231 561.8C131.92 558.396 131.982 554.968 132.416 551.577C126.66 550.8 121.237 548.424 116.763 544.719C116.237 546.661 113.345 555.148 114.146 556.993C115.66 560.489 122.773 566.2 133.083 566.2Z" fill="#0C0C0C"/>
<path d="M128.646 560.019C117.429 560.162 103.406 554.502 101.668 539.434L100.1 525.834C98.361 510.766 104.866 497.634 119.054 496.001C133.241 494.365 145.254 505.356 146.993 520.425L147.687 526.444C148.354 532.229 148.66 559.765 128.646 560.019Z" fill="#E98862"/>
<path d="M143.621 526.04C144.592 526.04 145.38 525.252 145.38 524.281C145.38 523.31 144.592 522.522 143.621 522.522C142.65 522.522 141.862 523.31 141.862 524.281C141.862 525.252 142.65 526.04 143.621 526.04Z" fill="#0C0C0C"/>
<path d="M125.642 528.096C126.613 528.096 127.401 527.308 127.401 526.337C127.401 525.366 126.613 524.578 125.642 524.578C124.671 524.578 123.883 525.366 123.883 526.337C123.883 527.308 124.671 528.096 125.642 528.096Z" fill="#0C0C0C"/>
<path opacity="0.5" d="M134.564 539.729H134.592C135.167 539.658 135.737 539.556 136.301 539.423C137.143 539.218 138.253 538.858 138.166 538.104C138.066 537.246 134.647 528.253 134.257 527.231C134.24 527.187 134.215 527.146 134.182 527.112C134.15 527.078 134.111 527.05 134.068 527.031C134.024 527.011 133.978 527.001 133.931 526.999C133.883 526.998 133.836 527.006 133.792 527.023C133.748 527.04 133.707 527.065 133.673 527.098C133.639 527.13 133.611 527.169 133.592 527.212C133.572 527.256 133.562 527.302 133.56 527.349C133.559 527.397 133.567 527.444 133.584 527.488C135.043 531.317 137.384 537.609 137.45 538.188C136.55 538.695 135.541 538.978 134.509 539.014C134.414 539.021 134.325 539.066 134.263 539.139C134.201 539.211 134.17 539.305 134.178 539.401C134.185 539.496 134.23 539.584 134.302 539.646C134.375 539.708 134.469 539.739 134.564 539.732V539.729Z" fill="#0C0C0C"/>
<path opacity="0.5" d="M132.028 546C134.332 545.868 136.573 545.197 138.571 544.041C138.65 543.992 138.707 543.915 138.73 543.825C138.753 543.736 138.741 543.641 138.696 543.56C138.652 543.479 138.577 543.418 138.489 543.39C138.401 543.362 138.305 543.369 138.222 543.41C133.908 545.797 129.782 545.935 126.292 543.81C126.222 543.765 126.149 543.724 126.074 543.686C125.988 543.652 125.891 543.653 125.806 543.689C125.72 543.724 125.651 543.791 125.613 543.876C125.575 543.961 125.572 544.057 125.603 544.144C125.634 544.231 125.698 544.303 125.781 544.345C125.808 544.359 125.854 544.387 125.917 544.426C127.752 545.547 129.88 546.095 132.028 546Z" fill="#0C0C0C"/>
<path d="M88.565 529.7L101.278 528.307C111.057 525.149 115.12 508.907 115.12 508.907C115.12 508.907 123.883 518.872 149.851 514.322C149.851 514.322 148.845 480.844 109.351 485.557C95.6 487.2 85.231 500.99 85.124 519.021C85.05 531.656 88.565 529.7 88.565 529.7Z" fill="#0A0A0A"/>
<path d="M103.079 543.923C98.767 544.423 94.74 540.211 94.243 535.899C93.746 531.587 96.966 528.807 101.278 528.31L103.833 530.942L106.786 543.495L103.079 543.923Z" fill="#E98862"/>
<path d="M137.4 519.892C138.672 519.188 140.109 518.839 141.562 518.88C142.279 518.896 142.99 519.02 143.671 519.247C144.347 519.469 144.993 519.776 145.592 520.16C145.652 520.198 145.695 520.258 145.712 520.327C145.729 520.396 145.719 520.469 145.683 520.531C145.648 520.592 145.59 520.638 145.522 520.658C145.453 520.678 145.38 520.671 145.317 520.638L145.299 520.628C144.731 520.291 144.123 520.026 143.489 519.841C142.861 519.653 142.208 519.562 141.553 519.57C140.249 519.577 138.97 519.928 137.846 520.589L137.819 520.606C137.773 520.637 137.72 520.657 137.666 520.667C137.611 520.677 137.555 520.676 137.501 520.664C137.446 520.652 137.395 520.629 137.35 520.596C137.305 520.564 137.267 520.523 137.238 520.475C137.209 520.428 137.19 520.375 137.182 520.32C137.174 520.265 137.177 520.209 137.191 520.155C137.205 520.101 137.23 520.051 137.264 520.007C137.298 519.963 137.341 519.926 137.389 519.899L137.4 519.892Z" fill="#0C0C0C"/>
<path d="M126.006 521.988C124.763 521.594 123.437 521.537 122.165 521.823C121.524 521.963 120.908 522.199 120.338 522.523C119.762 522.845 119.228 523.239 118.75 523.694L118.735 523.708C118.681 523.748 118.613 523.767 118.546 523.761C118.479 523.755 118.416 523.724 118.369 523.675C118.323 523.626 118.297 523.561 118.295 523.493C118.293 523.426 118.316 523.36 118.36 523.308C118.859 522.8 119.419 522.357 120.028 521.989C120.641 521.616 121.306 521.336 122.002 521.16C123.409 520.796 124.888 520.815 126.285 521.217C126.339 521.231 126.39 521.255 126.434 521.289C126.478 521.323 126.515 521.365 126.543 521.414C126.57 521.462 126.588 521.516 126.594 521.571C126.6 521.627 126.595 521.683 126.579 521.736C126.563 521.79 126.537 521.839 126.501 521.882C126.466 521.925 126.422 521.96 126.372 521.986C126.323 522.012 126.269 522.027 126.213 522.031C126.158 522.035 126.102 522.028 126.049 522.01H126.038L126.006 521.988Z" fill="#0C0C0C"/>
<path opacity="0.52" d="M132.269 549.407C132.686 549.39 133.101 549.337 133.509 549.25C133.6 549.227 133.678 549.171 133.728 549.091C133.778 549.012 133.795 548.917 133.775 548.825C133.756 548.734 133.702 548.653 133.624 548.601C133.547 548.548 133.452 548.528 133.36 548.544C132.723 548.73 132.053 548.779 131.396 548.685C130.738 548.592 130.108 548.359 129.548 548.003C129.474 547.943 129.379 547.914 129.284 547.924C129.189 547.933 129.101 547.98 129.041 548.054C128.981 548.128 128.952 548.223 128.961 548.318C128.971 548.413 129.018 548.5 129.092 548.561C130.021 549.202 131.144 549.501 132.269 549.407Z" fill="#0C0C0C"/>
<path opacity="0.1" d="M123.206 540.008C125.055 539.943 126.516 538.791 126.469 537.434C126.421 536.077 124.883 535.03 123.034 535.095C121.184 535.16 119.723 536.312 119.771 537.669C119.818 539.025 121.356 540.073 123.206 540.008Z" fill="#0C0C0C"/>
<path opacity="0.1" d="M143 536.263C143.052 537.618 144.589 538.663 146.439 538.602C146.759 538.591 147.076 538.546 147.387 538.469C147.606 536.877 147.74 535.339 147.813 533.911C147.315 533.741 146.79 533.666 146.264 533.689C144.418 533.751 142.958 534.9 143 536.263Z" fill="#0C0C0C"/>
<path d="M184.215 598.264C184.135 606.274 181.385 615.824 180.405 627.364C180.145 630.444 173.534 639.354 172.574 649.264C171.364 661.884 174.055 681.564 174.415 690.074C155.833 700.356 134.813 705.414 113.588 704.709C92.3627 704.005 71.7244 697.565 53.865 686.074C53.385 664.214 52.815 637.224 52.085 630.754C49.715 609.394 50.355 595.884 53.775 589.564C59.365 579.244 69.315 576.094 79.725 574.674C86.085 573.814 95.635 573.204 95.635 573.204C95.635 573.204 96.445 589.574 115.745 590.484C142.015 591.724 140.265 573.204 140.395 573.204C149.925 573.204 167.985 575.484 174.905 580.204C182.245 585.194 184.305 591.114 184.215 598.264Z" fill="#FFC239"/>
<path d="M93.455 610.724L57.815 688.5C44.1309 680.422 32.2249 669.655 22.815 656.85L52.545 591.97L93.455 610.724Z" fill="#FFC239"/>
<path d="M213.005 655.674C206.023 665.415 197.596 674.034 188.015 681.234C184.861 683.615 181.587 685.831 178.205 687.874L141.625 607.454L182.585 588.814L213.005 655.674Z" fill="#FFC239"/>
<path d="M361.956 244.618C429.505 244.618 484.265 189.858 484.265 122.309C484.265 54.7596 429.505 0 361.956 0C294.407 0 239.647 54.7596 239.647 122.309C239.647 189.858 294.407 244.618 361.956 244.618Z" fill="white"/>
<path opacity="0.09" d="M361.956 244.618C429.505 244.618 484.265 189.858 484.265 122.309C484.265 54.7596 429.505 0 361.956 0C294.407 0 239.647 54.7596 239.647 122.309C239.647 189.858 294.407 244.618 361.956 244.618Z" fill="#367CFF"/>
<path d="M385.606 49.068C385.606 49.068 393.351 40.674 392.752 24.686C392.289 12.307 382.573 22.14 382.573 22.14C382.573 22.14 382.152 13.23 375.973 15.24C369.794 17.25 367.894 27.034 367.894 27.034" fill="#0C0C0C"/>
<path d="M343.388 22.19C343.388 22.19 312.543 31.255 331.629 71.821L334.446 71.503L340.164 70.859" fill="#0C0C0C"/>
<path d="M387.1 113.9C386.96 113.882 385.4 139.76 355.337 137.5C334.525 135.941 327.104 113.86 326.627 113.86C328.871 113.383 331.644 112.66 332.746 112.411C335.148 111.854 337.323 110.578 338.983 108.754C340.642 106.93 341.707 104.644 342.035 102.2C342.644 98.532 341.611 79.766 341.929 76.055L373.875 83.185C373.429 91.024 370.305 109.195 381.255 112.411C383.078 112.944 385.041 113.434 387.1 113.9Z" fill="#E98862"/>
<path opacity="0.52" d="M374.324 104.986C373.824 103.373 373.502 101.711 373.363 100.028C373.012 96.1879 373.082 92.3209 373.572 88.496C367.079 87.6196 360.962 84.9394 355.916 80.76C355.322 82.951 352.06 92.524 352.963 94.606C354.671 98.542 362.694 104.986 374.324 104.986Z" fill="#0C0C0C"/>
<path d="M369.109 96.747C356.509 97.88 340.244 92.731 336.983 75.935L334.04 60.78C330.779 43.98 336.957 28.655 352.771 25.585C368.585 22.514 383.049 33.835 386.311 50.631L387.611 57.34C388.019 59.6513 388.268 61.9877 388.357 64.333C388.639 70.533 389.044 79.956 386.064 86.922C383.252 93.5 377.161 96.024 369.109 96.747Z" fill="#E98862"/>
<path opacity="0.5" d="M371.014 80.142C373.322 80.0986 375.587 79.5135 377.627 78.434C377.671 78.4139 377.711 78.3851 377.744 78.3492C377.777 78.3133 377.802 78.2711 377.819 78.2252C377.835 78.1793 377.841 78.1306 377.838 78.082C377.835 78.0334 377.822 77.986 377.8 77.9425C377.778 77.899 377.748 77.8605 377.711 77.8291C377.673 77.7977 377.63 77.7742 377.584 77.76C377.537 77.7457 377.488 77.741 377.44 77.7462C377.391 77.7514 377.345 77.7663 377.302 77.79C372.902 80.011 368.773 79.99 365.366 77.736C365.297 77.6884 365.226 77.6443 365.153 77.604C365.111 77.5831 365.064 77.5708 365.017 77.5678C364.97 77.5647 364.922 77.571 364.878 77.5863C364.833 77.6016 364.792 77.6255 364.756 77.6568C364.72 77.6881 364.691 77.726 364.671 77.7685C364.65 77.811 364.637 77.8572 364.634 77.9044C364.631 77.9516 364.638 77.999 364.653 78.0438C364.668 78.0886 364.692 78.13 364.723 78.1655C364.755 78.2011 364.793 78.2301 364.835 78.251C364.862 78.266 364.906 78.296 364.968 78.337C366.759 79.5271 368.864 80.1556 371.014 80.142Z" fill="#0C0C0C"/>
<path opacity="0.52" d="M371.125 83.559C371.542 83.5578 371.959 83.521 372.37 83.449C372.417 83.4411 372.461 83.424 372.501 83.3988C372.541 83.3736 372.576 83.3408 372.603 83.3022C372.631 83.2637 372.65 83.2201 372.661 83.174C372.671 83.1278 372.672 83.0801 372.664 83.0335C372.657 82.9869 372.64 82.9423 372.614 82.9023C372.589 82.8622 372.556 82.8275 372.518 82.8002C372.479 82.7728 372.436 82.7534 372.389 82.7429C372.343 82.7324 372.296 82.7311 372.249 82.739C371.605 82.9003 370.934 82.9226 370.281 82.8043C369.627 82.686 369.007 82.4299 368.46 82.053C368.388 81.9922 368.295 81.962 368.201 81.9689C368.107 81.9758 368.02 82.0192 367.958 82.0899C367.895 82.1605 367.863 82.2528 367.868 82.3468C367.873 82.4409 367.915 82.5293 367.984 82.593C368.888 83.2687 369.998 83.6101 371.125 83.559Z" fill="#0C0C0C"/>
<path d="M382.526 61.572C383.622 61.572 384.51 60.6837 384.51 59.588C384.51 58.4923 383.622 57.604 382.526 57.604C381.43 57.604 380.542 58.4923 380.542 59.588C380.542 60.6837 381.43 61.572 382.526 61.572Z" fill="#0C0C0C"/>
<path d="M363.234 63.827C364.33 63.827 365.218 62.9387 365.218 61.843C365.218 60.7473 364.33 59.859 363.234 59.859C362.138 59.859 361.25 60.7473 361.25 61.843C361.25 62.9387 362.138 63.827 363.234 63.827Z" fill="#0C0C0C"/>
<path d="M338.959 80.861C334.153 81.794 329.259 77.409 328.325 72.603C327.391 67.797 330.774 64.391 335.579 63.458L338.679 66.197L343.089 80.059L338.959 80.861Z" fill="#E98862"/>
<path d="M342.35 72.253C342.35 72.253 339.665 48.138 346.622 45.36C351.255 43.509 364.156 48.221 374.589 44.205C379.153 42.447 383.853 42.805 384.713 44.956C385.054 45.807 385.7 32.568 376.551 24.265C369.267 17.655 349.587 18.978 341.267 23.084C318.23 34.453 334.776 64.684 334.776 64.684L337.346 72.7L342.35 72.253Z" fill="#0C0C0C"/>
<g opacity="0.52">
<path d="M373.972 74.17H374.003C375.553 73.87 378.119 73.203 377.903 72.044C377.718 71.083 373.103 61.219 372.579 60.098C372.557 60.0503 372.525 60.0074 372.486 59.9719C372.447 59.9363 372.402 59.9088 372.352 59.8909C372.302 59.873 372.25 59.865 372.197 59.8674C372.144 59.8698 372.093 59.8826 372.045 59.905C371.997 59.9274 371.954 59.959 371.919 59.9979C371.883 60.0369 371.856 60.0824 371.838 60.132C371.82 60.1816 371.812 60.2342 371.814 60.2869C371.817 60.3396 371.83 60.3913 371.852 60.439C373.898 64.807 376.988 71.539 377.114 72.194C377.014 72.494 375.462 73.073 373.858 73.38C373.752 73.3958 373.656 73.4531 373.593 73.5392C373.529 73.6254 373.502 73.7334 373.517 73.8395C373.533 73.9456 373.591 74.0411 373.677 74.1049C373.763 74.1688 373.871 74.1958 373.977 74.18L373.972 74.17Z" fill="#0C0C0C"/>
</g>
<path d="M375.068 50C376.619 49.2566 378.341 48.9456 380.054 49.1C380.894 49.1707 381.719 49.3669 382.501 49.682C383.273 49.989 384.004 50.3922 384.675 50.882C384.8 50.9682 384.886 51.0993 384.916 51.2479C384.946 51.3964 384.917 51.5507 384.835 51.6784C384.753 51.806 384.625 51.897 384.478 51.9322C384.331 51.9673 384.175 51.944 384.045 51.867L384 51.851C383.391 51.4623 382.736 51.1515 382.05 50.926C381.375 50.7007 380.67 50.579 379.959 50.565C378.557 50.5259 377.169 50.8582 375.937 51.528L375.886 51.557C375.786 51.6143 375.675 51.6512 375.561 51.6657C375.446 51.6803 375.33 51.6721 375.218 51.6417C375.107 51.6113 375.003 51.5592 374.911 51.4885C374.82 51.4178 374.744 51.3298 374.686 51.2295C374.629 51.1292 374.592 51.0187 374.578 50.9041C374.563 50.7896 374.571 50.6733 374.602 50.5619C374.632 50.4505 374.684 50.3462 374.755 50.255C374.826 50.1637 374.914 50.0873 375.014 50.03L375.068 50Z" fill="#0C0C0C"/>
<path d="M363.693 53.074C362.342 52.6961 360.916 52.6812 359.558 53.031C358.868 53.2027 358.208 53.4782 357.6 53.848C356.98 54.2203 356.409 54.6688 355.9 55.183L355.868 55.215C355.758 55.3211 355.612 55.3802 355.459 55.3797C355.307 55.3792 355.16 55.3192 355.051 55.2123C354.943 55.1055 354.88 54.9604 354.876 54.8079C354.873 54.6554 354.929 54.5076 355.033 54.396C355.578 53.7678 356.2 53.211 356.884 52.739C357.577 52.2576 358.337 51.8824 359.141 51.626C359.944 51.3612 360.78 51.2078 361.625 51.17C362.49 51.1224 363.358 51.1978 364.202 51.394C364.429 51.447 364.626 51.5881 364.749 51.7861C364.872 51.9842 364.911 52.223 364.858 52.45C364.805 52.677 364.664 52.8737 364.466 52.9967C364.268 53.1197 364.029 53.159 363.802 53.106L363.75 53.092L363.693 53.074Z" fill="#0C0C0C"/>
<path d="M369.778 34.0233C373.208 32.6331 374.33 27.4128 372.284 22.3634C370.237 17.314 365.797 14.3477 362.367 15.7379C358.937 17.1281 357.815 22.3484 359.861 27.3978C361.907 32.4472 366.347 35.4136 369.778 34.0233Z" fill="#0C0C0C"/>
<path d="M428.65 140.641C428.77 148.931 425.53 158.251 424.45 170.871C424.23 173.431 423.71 179.071 423.02 186.421C421.89 198.591 420.29 215.421 418.89 230.591C398.869 241.1 376.329 245.86 353.769 244.346C331.208 242.832 309.507 235.101 291.07 222.011C290.63 221.681 290.19 221.361 289.75 221.051C288.58 203.901 287.2 185.901 285.94 174.531C283.57 153.301 280.34 142.731 282.15 135.591C282.295 134.983 282.489 134.388 282.73 133.811C287.94 121.171 304.53 115.531 315.77 114.011C322.63 113.081 332.95 112.411 332.95 112.411C332.95 112.411 333.82 130.091 354.65 131.071C383.01 132.411 381.12 112.411 381.26 112.411C385.85 112.411 410.86 115.751 417.11 119.831C418.158 120.511 419.16 121.259 420.11 122.071C422.825 124.336 425.001 127.178 426.479 130.391C427.956 133.603 428.698 137.105 428.65 140.641Z" fill="#383838"/>
<path d="M324.23 153.461L291.07 222.011C290.63 221.681 290.19 221.361 289.75 221.051C276.895 211.625 265.994 199.793 257.65 186.211L282.15 135.591L283.12 133.581L324.23 153.461Z" fill="#383838"/>
<path d="M321.03 161.351L290.87 221.861C290.67 221.711 290.48 221.571 290.28 221.441L320.4 161.041C320.443 160.957 320.518 160.893 320.607 160.863C320.697 160.833 320.795 160.84 320.88 160.881C320.962 160.923 321.024 160.997 321.052 161.085C321.08 161.173 321.072 161.269 321.03 161.351Z" fill="white"/>
<path d="M473.95 171.551C467.939 185.175 459.498 197.59 449.04 208.191L423.02 186.421L389.97 158.761L420.11 122.071L420.2 121.961L473.95 171.551Z" fill="#383838"/>
<path d="M423.421 186.688C423.506 186.684 423.586 186.649 423.648 186.59C423.709 186.531 423.747 186.452 423.754 186.367L425.471 166.237C425.479 166.144 425.45 166.052 425.39 165.98C425.33 165.909 425.244 165.864 425.151 165.856C425.058 165.849 424.967 165.879 424.896 165.939C424.825 165.999 424.78 166.084 424.771 166.176L423.054 186.307C423.046 186.4 423.076 186.492 423.136 186.563C423.196 186.634 423.281 186.679 423.374 186.687L423.421 186.688Z" fill="white"/>
<path d="M937.877 774.25C1002.3 774.25 1054.53 722.021 1054.53 657.593C1054.53 593.165 1002.3 540.936 937.877 540.936C873.449 540.936 821.22 593.165 821.22 657.593C821.22 722.021 873.449 774.25 937.877 774.25Z" fill="white"/>
<path opacity="0.09" d="M821.219 657.59C821.219 680.662 828.06 703.216 840.878 722.4C853.697 741.584 871.915 756.536 893.231 765.366C914.547 774.195 938.003 776.506 960.632 772.005C983.261 767.504 1004.05 756.393 1020.36 740.079C1036.68 723.764 1047.79 702.978 1052.29 680.35C1056.79 657.721 1054.48 634.265 1045.65 612.949C1036.82 591.633 1021.87 573.414 1002.68 560.596C983.5 547.778 960.946 540.936 937.874 540.936C922.539 540.88 907.344 543.858 893.166 549.701C878.987 555.543 866.105 564.134 855.261 574.977C844.417 585.821 835.827 598.703 829.984 612.882C824.142 627.06 821.163 642.255 821.219 657.59Z" fill="#367CFF"/>
<path d="M990.811 593.218C988.948 614.818 990.675 622.142 999.644 634.518C1007.21 644.952 964.166 636.083 945.122 632.691L961.927 583.573C961.927 583.573 991.465 585.633 990.811 593.218Z" fill="#0A0A0A"/>
<path d="M925.106 584.231C919.487 605.17 920.118 611.648 909.122 622.644C900.009 631.758 935.527 633.611 954.585 636.922L955.549 585.022C955.549 585.022 927.08 576.878 925.106 584.231Z" fill="#0A0A0A"/>
<path d="M927 645.133C927.125 645.116 928.521 668.273 955.422 666.254C974.045 664.859 980.685 645.1 981.112 645.1C978.984 644.746 976.885 644.237 974.831 643.577C971.899 642.001 968.27 640.361 967.325 634.667C966.78 631.384 967.704 614.592 967.42 611.267L938.833 617.648C939.233 624.662 942.033 640.922 932.233 643.799C930.6 644.279 928.843 644.717 927 645.133Z" fill="#E98862"/>
<path opacity="0.5" d="M938.432 637.158C938.88 635.715 939.168 634.227 939.292 632.721C939.607 629.285 939.544 625.825 939.106 622.402C944.916 621.618 950.39 619.22 954.906 615.48C955.437 617.441 958.356 626.006 957.548 627.869C956.019 631.391 948.84 637.158 938.432 637.158Z" fill="#0C0C0C"/>
<path d="M942.129 629.944C953.4 631.034 967.982 626.526 971.003 611.517L973.729 597.974C976.75 582.965 971.315 569.211 957.184 566.367C943.052 563.523 930.04 573.567 927.019 588.573L925.813 594.573C924.654 600.328 922.02 628 942.129 629.944Z" fill="#E98862"/>
<path d="M987.369 602.249L974.656 600.856C949.78 596.282 943.688 576.209 943.688 576.209C943.688 576.209 933.253 590.14 924.393 586.941C924.393 586.941 927.249 553.35 966.581 559.253C982.035 561.572 990.81 574.383 990.81 591.567C990.81 604.2 987.369 602.249 987.369 602.249Z" fill="#0A0A0A"/>
<path opacity="0.1" d="M952.939 608.208C953.101 606.847 951.73 605.565 949.875 605.344C948.02 605.122 946.385 606.046 946.223 607.407C946.06 608.767 947.432 610.049 949.287 610.271C951.142 610.492 952.777 609.568 952.939 608.208Z" fill="#0C0C0C"/>
<path opacity="0.1" d="M929.7 604.837C929.534 606.195 927.9 607.118 926.044 606.899C925.723 606.86 925.408 606.788 925.102 606.685C925.016 605.065 925.011 603.507 925.058 602.064C925.573 601.936 926.107 601.904 926.634 601.972C928.484 602.191 929.856 603.473 929.7 604.837Z" fill="#0C0C0C"/>
<path opacity="0.5" d="M937.891 609.036H937.863C937.291 608.917 936.726 608.766 936.17 608.584C935.34 608.306 934.254 607.851 934.405 607.1C934.577 606.245 938.777 597.489 939.255 596.494C939.275 596.45 939.303 596.41 939.339 596.376C939.375 596.343 939.416 596.317 939.462 596.301C939.508 596.284 939.556 596.276 939.605 596.279C939.653 596.281 939.701 596.293 939.745 596.314C939.789 596.335 939.828 596.365 939.86 596.401C939.893 596.438 939.917 596.48 939.933 596.526C939.948 596.573 939.954 596.621 939.95 596.67C939.947 596.718 939.933 596.766 939.911 596.809C938.119 600.537 935.234 606.668 935.118 607.244C935.98 607.83 936.971 608.2 938.006 608.323C938.098 608.342 938.178 608.396 938.231 608.473C938.284 608.55 938.305 608.644 938.291 608.737C938.276 608.829 938.226 608.912 938.152 608.969C938.077 609.025 937.984 609.051 937.891 609.041V609.036Z" fill="#0C0C0C"/>
<path d="M969.205 615.913C973.5 616.777 977.905 612.884 978.77 608.589C979.635 604.294 976.63 601.225 972.335 600.361L969.543 602.793L965.513 615.17L969.205 615.913Z" fill="#E98862"/>
<path d="M936.21 589.507C935.68 589.131 935.102 588.829 934.491 588.607C933.873 588.375 933.225 588.229 932.567 588.174C931.909 588.111 931.244 588.148 930.597 588.283C929.944 588.416 929.31 588.631 928.711 588.922L928.692 588.93C928.627 588.953 928.556 588.952 928.492 588.925C928.428 588.899 928.376 588.85 928.347 588.787C928.317 588.725 928.312 588.654 928.332 588.588C928.352 588.522 928.396 588.466 928.455 588.43C929.09 588.095 929.765 587.84 930.464 587.673C931.168 587.502 931.894 587.438 932.617 587.483C934.082 587.564 935.497 588.037 936.717 588.852C936.805 588.916 936.865 589.011 936.884 589.119C936.903 589.226 936.879 589.336 936.818 589.426C936.757 589.516 936.663 589.579 936.556 589.601C936.45 589.622 936.339 589.602 936.247 589.543L936.237 589.536L936.21 589.507Z" fill="#0C0C0C"/>
<path d="M947.783 591.107C949.221 590.821 950.71 590.926 952.094 591.412C952.779 591.647 953.425 591.984 954.01 592.412C954.592 592.833 955.118 593.326 955.577 593.879C955.627 593.934 955.653 594.006 955.649 594.079C955.646 594.153 955.614 594.222 955.559 594.272C955.505 594.322 955.432 594.348 955.359 594.344C955.285 594.341 955.216 594.309 955.166 594.254L955.151 594.239C954.708 593.74 954.204 593.3 953.651 592.927C953.104 592.554 952.505 592.266 951.872 592.072C950.616 591.678 949.279 591.624 947.995 591.914L947.964 591.922C947.856 591.949 947.743 591.931 947.648 591.874C947.553 591.816 947.485 591.724 947.458 591.616C947.431 591.508 947.449 591.395 947.506 591.3C947.564 591.205 947.656 591.137 947.764 591.11L947.783 591.107Z" fill="#0C0C0C"/>
<path d="M883.674 760.91C879.088 758.91 875.657 756.77 867.826 750.87C862.175 746.629 856.924 741.88 852.137 736.683L892.347 660.169L894.095 656.845L930.363 675.912L898.903 735.782L898.758 736.046L899.031 737.111" fill="#EA394A"/>
<path d="M1017.4 699.359C1016.34 710.705 1016.12 728.351 1016.19 744.04C1001.03 757.793 982.512 767.311 962.505 771.638C942.497 775.965 921.703 774.948 902.214 768.689C899.829 745.029 896.282 710.26 894.283 688.851C892.257 666.675 886.299 659.351 902.56 648.731C911.52 644.17 925.724 643.769 932.108 643.769C929.941 664.789 974.24 667.376 975.341 643.769C1008.47 646.867 1023.81 647.637 1017.4 699.359Z" fill="#EA394A"/>
<path d="M934.112 611.994C937.774 613.856 941.952 614.445 945.986 613.667C946.126 613.64 946.27 613.654 946.403 613.707C946.535 613.76 946.649 613.849 946.733 613.965C946.816 614.08 946.865 614.217 946.873 614.359C946.882 614.501 946.849 614.643 946.78 614.767C945.58 616.886 942.724 620.509 937.831 619.033C934.671 618.079 933.477 614.833 933.031 612.818C933 612.678 933.009 612.533 933.058 612.398C933.107 612.264 933.194 612.146 933.307 612.06C933.421 611.973 933.558 611.921 933.7 611.909C933.843 611.897 933.986 611.927 934.112 611.994Z" fill="white"/>
<path d="M933.883 595.708C934.86 595.708 935.652 594.916 935.652 593.939C935.652 592.962 934.86 592.17 933.883 592.17C932.906 592.17 932.114 592.962 932.114 593.939C932.114 594.916 932.906 595.708 933.883 595.708Z" fill="#0C0C0C"/>
<path d="M950.887 598.684C951.864 598.684 952.656 597.892 952.656 596.915C952.656 595.938 951.864 595.146 950.887 595.146C949.91 595.146 949.118 595.938 949.118 596.915C949.118 597.892 949.91 598.684 950.887 598.684Z" fill="#0C0C0C"/>
<path d="M898.2 727.041H898.234C898.306 727.031 898.371 726.993 898.414 726.935C898.458 726.877 898.477 726.804 898.467 726.732L895.339 695.219C895.335 695.183 895.324 695.148 895.306 695.117C895.288 695.086 895.264 695.058 895.235 695.037C895.206 695.015 895.173 694.999 895.138 694.99C895.103 694.982 895.067 694.98 895.031 694.986C894.995 694.991 894.961 695.003 894.93 695.021C894.899 695.039 894.872 695.063 894.85 695.091C894.829 695.12 894.813 695.153 894.804 695.187C894.795 695.222 894.793 695.258 894.798 695.294L897.925 726.808C897.935 726.873 897.968 726.933 898.019 726.976C898.069 727.019 898.134 727.042 898.2 727.041Z" fill="#0C0C0C"/>
<path d="M894.111 703.041H862.182V742.2H894.111V703.041Z" fill="white"/>
<path d="M881.036 722.621C881.037 720.035 881.804 717.507 883.241 715.357C884.678 713.207 886.721 711.532 889.11 710.542C891.5 709.553 894.129 709.295 896.665 709.8C899.202 710.305 901.531 711.55 903.36 713.379C905.188 715.208 906.433 717.538 906.937 720.075C907.441 722.611 907.182 725.24 906.192 727.629C905.202 730.018 903.526 732.06 901.376 733.497C899.225 734.934 896.697 735.7 894.111 735.7C890.644 735.696 887.32 734.317 884.869 731.865C882.417 729.413 881.039 726.088 881.036 722.621ZM886.391 722.621C886.391 724.148 886.844 725.64 887.692 726.91C888.54 728.179 889.746 729.169 891.157 729.753C892.567 730.338 894.12 730.491 895.617 730.193C897.115 729.895 898.49 729.159 899.57 728.08C900.65 727 901.385 725.625 901.683 724.127C901.981 722.63 901.828 721.077 901.243 719.667C900.659 718.256 899.67 717.05 898.4 716.202C897.13 715.354 895.638 714.901 894.111 714.901C892.064 714.903 890.102 715.718 888.655 717.165C887.208 718.612 886.393 720.574 886.391 722.621Z" fill="white"/>
<path d="M893.857 727.467C893.964 726.804 894.301 726.201 894.809 725.762C895.317 725.323 895.963 725.077 896.634 725.067C896.616 725.04 896.602 725.01 896.595 724.978L895.644 724.772C894.981 724.641 894.384 724.285 893.954 723.764C893.523 723.243 893.286 722.59 893.282 721.914C893.288 721.49 893.388 721.073 893.575 720.693C893.762 720.313 894.031 719.978 894.363 719.715C894.694 719.451 895.081 719.264 895.493 719.168C895.906 719.071 896.335 719.068 896.749 719.157L898.992 719.641C898.992 719.633 898.992 719.625 898.992 719.616C898.997 719.598 899.004 719.581 899.012 719.564C898.427 719.289 897.953 718.825 897.667 718.246C897.38 717.667 897.298 717.008 897.434 716.377C897.679 714.718 899.67 714.172 901.128 714.487L906.938 715.527L904.977 714.227C904.358 713.798 903.925 713.151 903.766 712.416C903.606 711.68 903.731 710.912 904.116 710.265C904.326 709.938 904.601 709.658 904.923 709.44C905.246 709.223 905.609 709.074 905.991 709.002C906.373 708.93 906.765 708.936 907.145 709.021C907.524 709.105 907.882 709.266 908.197 709.494L931.616 736.294L926.416 733.935C924.802 736.309 922.516 738.146 919.851 739.212C917.186 740.278 914.264 740.523 911.458 739.917L898.758 737.149C898.095 737.018 897.498 736.662 897.067 736.141C896.636 735.62 896.399 734.967 896.395 734.291C896.404 733.681 896.608 733.091 896.977 732.605C897.345 732.119 897.859 731.764 898.444 731.591C898.426 731.548 898.419 731.501 898.425 731.455C898.432 731.411 898.45 731.37 898.477 731.335C898.503 731.3 898.539 731.273 898.579 731.255L896.235 730.749C895.497 730.605 894.84 730.186 894.399 729.577C893.957 728.968 893.764 728.214 893.857 727.467Z" fill="#E98862"/>
<path opacity="0.2" d="M903.234 720.585C903.295 720.572 903.35 720.538 903.388 720.489C903.427 720.44 903.448 720.379 903.447 720.317C903.445 720.254 903.423 720.194 903.382 720.147C903.341 720.1 903.286 720.068 903.224 720.057L899.301 719.393C899.266 719.386 899.229 719.385 899.193 719.392C899.158 719.399 899.124 719.413 899.094 719.434C899.064 719.454 899.039 719.48 899.019 719.511C899 719.541 898.986 719.575 898.98 719.611C898.974 719.647 898.976 719.683 898.984 719.719C898.992 719.754 899.008 719.787 899.029 719.816C899.051 719.845 899.078 719.87 899.109 719.888C899.14 719.906 899.175 719.918 899.211 719.923L903.134 720.587C903.167 720.593 903.201 720.592 903.234 720.585Z" fill="#0C0C0C"/>
<path opacity="0.2" d="M902.287 726.134C902.348 726.121 902.403 726.087 902.442 726.039C902.481 725.99 902.501 725.929 902.5 725.867C902.5 725.804 902.477 725.744 902.437 725.697C902.396 725.649 902.34 725.617 902.279 725.606L896.905 724.653C896.869 724.645 896.833 724.644 896.797 724.65C896.761 724.657 896.727 724.67 896.696 724.691C896.666 724.711 896.64 724.737 896.62 724.767C896.6 724.798 896.586 724.832 896.58 724.868C896.573 724.904 896.574 724.941 896.582 724.976C896.591 725.012 896.606 725.045 896.628 725.075C896.65 725.104 896.677 725.129 896.708 725.147C896.74 725.166 896.775 725.177 896.811 725.182L902.185 726.136C902.219 726.142 902.253 726.141 902.287 726.134Z" fill="#0C0C0C"/>
<path opacity="0.2" d="M901.3 732.15C901.362 732.137 901.417 732.103 901.456 732.053C901.494 732.004 901.515 731.942 901.513 731.879C901.511 731.816 901.487 731.756 901.446 731.709C901.404 731.662 901.347 731.631 901.285 731.621L898.736 731.231C898.668 731.224 898.599 731.244 898.545 731.287C898.491 731.329 898.455 731.39 898.445 731.458C898.434 731.526 898.45 731.595 898.489 731.652C898.529 731.708 898.588 731.748 898.655 731.762L901.204 732.153C901.236 732.158 901.268 732.157 901.3 732.15Z" fill="#0C0C0C"/>
<path d="M1033.67 724.154C1019.3 744.816 998.652 760.293 974.79 768.289L974.781 768.28C969.481 767.243 918.922 747.28 912.234 745.969L919.552 711.83C938.342 715.569 972.612 729.983 991.509 733.736L978.177 673.289C977.694 670.619 977.746 667.88 978.329 665.23C978.913 662.58 980.017 660.072 981.577 657.852C983.137 655.632 985.123 653.744 987.418 652.297C989.714 650.85 992.273 649.874 994.949 649.424C997.625 648.973 1000.36 649.059 1003.01 649.675C1005.65 650.292 1008.14 651.427 1010.34 653.014C1012.54 654.601 1014.41 656.61 1015.83 658.923C1017.24 661.236 1018.19 663.808 1018.61 666.489L1033.67 724.154Z" fill="#EA394A"/>
<path d="M1005.83 738.186C1005.9 738.185 1005.97 738.158 1006.01 738.111C1006.06 738.064 1006.09 738.001 1006.1 737.933C1006.1 737.865 1006.08 737.797 1006.04 737.743C1006 737.69 1005.94 737.654 1005.87 737.642L991.665 732.822C991.629 732.816 991.593 732.818 991.558 732.826C991.523 732.835 991.49 732.85 991.461 732.871C991.432 732.893 991.408 732.92 991.389 732.951C991.371 732.982 991.359 733.016 991.354 733.052C991.343 733.124 991.362 733.196 991.405 733.255C991.448 733.313 991.512 733.351 991.584 733.362L1005.79 738.182C1005.81 738.185 1005.82 738.186 1005.83 738.186Z" fill="#0C0C0C"/>
<path d="M991.883 733.053C991.891 733.138 991.865 733.224 991.81 733.29C991.779 733.32 991.741 733.342 991.7 733.354C991.659 733.367 991.615 733.37 991.573 733.363L920.007 712.24L912.835 745.84L974.462 768.388C974.271 768.452 974.07 768.515 973.879 768.579C973.742 768.625 973.606 768.67 973.46 768.707L912.434 746.3C912.365 746.281 912.306 746.237 912.269 746.176C912.231 746.115 912.219 746.042 912.234 745.972L919.552 711.833C919.561 711.798 919.577 711.766 919.598 711.738C919.62 711.709 919.648 711.686 919.679 711.669C919.709 711.648 919.744 711.634 919.78 711.627C919.816 711.621 919.853 711.623 919.889 711.633L991.282 732.783L983.2 699.459C983.19 699.388 983.209 699.316 983.251 699.258C983.294 699.2 983.357 699.162 983.428 699.15C983.463 699.143 983.5 699.143 983.535 699.15C983.57 699.158 983.604 699.172 983.633 699.192C983.663 699.212 983.688 699.238 983.708 699.269C983.727 699.299 983.741 699.333 983.747 699.368L991.883 733.053Z" fill="#0C0C0C"/>
<path d="M58.667 689.507C58.6004 689.507 58.5345 689.494 58.473 689.468C58.4124 689.443 58.3575 689.405 58.3113 689.359C58.2651 689.312 58.2286 689.257 58.2038 689.196C58.179 689.135 58.1664 689.07 58.1668 689.004C58.1672 688.939 58.1805 688.874 58.206 688.813L77.8 642.24C77.8516 642.118 77.9496 642.021 78.0726 641.971C78.1955 641.921 78.3332 641.922 78.4555 641.973C78.5778 642.025 78.6745 642.123 78.7245 642.246C78.7745 642.369 78.7736 642.507 78.722 642.629L59.128 689.2C59.09 689.291 59.0259 689.369 58.9439 689.423C58.8619 689.478 58.7655 689.507 58.667 689.507Z" fill="#0C0C0C"/>
<path d="M173.965 690.036H173.943C173.877 690.039 173.812 690.029 173.75 690.007C173.688 689.984 173.632 689.95 173.583 689.906C173.535 689.861 173.495 689.808 173.468 689.748C173.44 689.689 173.424 689.625 173.421 689.559L171.237 641.925C171.235 641.794 171.284 641.667 171.372 641.57C171.46 641.473 171.582 641.413 171.713 641.402C171.779 641.399 171.844 641.409 171.906 641.431C171.968 641.453 172.025 641.488 172.073 641.532C172.122 641.576 172.161 641.63 172.189 641.689C172.217 641.749 172.233 641.813 172.236 641.879L174.42 689.513C174.426 689.642 174.383 689.769 174.298 689.866C174.213 689.964 174.094 690.025 173.965 690.036Z" fill="#0C0C0C"/>
</g>
<defs>
<clipPath id="clip0_1_593">
<rect width="1115.33" height="774.251" fill="white"/>
</clipPath>
</defs>
</svg>
