<svg width="979" height="917" viewBox="0 0 979 917" fill="none" xmlns="http://www.w3.org/2000/svg">
<g clip-path="url(#clip0_1_249)">
<g opacity="0.7">
<path d="M831.958 7.983H659.897V211.941H831.958V7.983Z" fill="#F4F4F4"/>
<path d="M831.958 211.941H837.54V7.983H831.958V211.941Z" fill="#F4F4F4"/>
<path opacity="0.05" d="M831.958 211.941H837.54V7.983H831.958V211.941Z" fill="#292A2E"/>
<path opacity="0.05" d="M800.615 48.78H691.24V171.145H800.615V48.78Z" fill="#292A2E"/>
<path opacity="0.03" d="M800.615 48.78H794.915V171.145H800.615V48.78Z" fill="#292A2E"/>
<path d="M972.676 267.016H831.958V409.026H972.676V267.016Z" fill="#F4F4F4"/>
<path opacity="0.05" d="M947.043 292.885H857.592V383.157H947.043V292.885Z" fill="#292A2E"/>
<path d="M972.676 409.026H978.258V267.016H972.676V409.026Z" fill="#F4F4F4"/>
<path opacity="0.05" d="M972.676 409.026H978.258V267.016H972.676V409.026Z" fill="#292A2E"/>
<path opacity="0.03" d="M947.042 292.885H941.342V383.157H947.042V292.885Z" fill="#292A2E"/>
</g>
<g opacity="0.7">
<path d="M479.66 0H74.579V405.081H479.66V0Z" fill="#F4F4F4"/>
<path d="M74.579 0H69.936V405.081H74.579V0Z" fill="#F4F4F4"/>
<path opacity="0.05" d="M74.579 0H69.936V405.081H74.579V0Z" fill="#292A2E"/>
<path opacity="0.05" d="M172.712 279.134V173.152H259.527V234.725H394.004V343.749H451.159V405.081H394.004H382.994H94.065V279.134H172.712Z" fill="#292A2E"/>
<path opacity="0.34" d="M248.384 184.659H185.164V196.166H248.384V184.659Z" fill="#FFFFFA"/>
<path opacity="0.34" d="M248.384 208.505H185.164V220.012H248.384V208.505Z" fill="#FFFFFA"/>
<path opacity="0.34" d="M248.384 232.35H185.164V243.857H248.384V232.35Z" fill="#FFFFFA"/>
<path opacity="0.34" d="M116.928 290.304H105.276V301.811H116.928V290.304Z" fill="#FFFFFA"/>
<path opacity="0.34" d="M116.928 314.15H105.276V325.657H116.928V314.15Z" fill="#FFFFFA"/>
<path opacity="0.34" d="M116.928 337.995H105.276V349.502H116.928V337.995Z" fill="#FFFFFA"/>
<path opacity="0.34" d="M138.485 290.304H126.833V301.811H138.485V290.304Z" fill="#FFFFFA"/>
<path opacity="0.34" d="M138.485 314.15H126.833V325.657H138.485V314.15Z" fill="#FFFFFA"/>
<path opacity="0.34" d="M138.485 337.995H126.833V349.502H138.485V337.995Z" fill="#FFFFFA"/>
<path opacity="0.34" d="M159.459 290.304H147.807V301.811H159.459V290.304Z" fill="#FFFFFA"/>
<path opacity="0.34" d="M159.459 314.15H147.807V325.657H159.459V314.15Z" fill="#FFFFFA"/>
<path opacity="0.34" d="M159.459 337.995H147.807V349.502H159.459V337.995Z" fill="#FFFFFA"/>
<path d="M74.579 200.268H156.088V0H162.829V200.268H382.994V0H389.735V200.268H479.66V207.009H389.735V405.081H382.994V207.009H162.829V405.081H156.088V207.009H74.579V200.268Z" fill="white"/>
<path d="M495.797 404.592H58.442V418.063H495.797V404.592Z" fill="#F4F4F4"/>
<path opacity="0.1" d="M495.797 404.592H58.442V418.063H495.797V404.592Z" fill="#292A2E"/>
<path opacity="0.1" d="M58.442 404.592H52.128V418.063H58.442V404.592Z" fill="#292A2E"/>
<path opacity="0.1" d="M58.442 404.592H52.128V418.063H58.442V404.592Z" fill="#292A2E"/>
</g>
<path d="M308.373 50.3H782.51C789.34 50.3 795.89 53.0131 800.719 57.8426C805.549 62.672 808.262 69.2221 808.262 76.052V643.932C808.262 650.91 805.49 657.603 800.555 662.537C795.621 667.472 788.928 670.244 781.95 670.244H308.934C301.956 670.244 295.263 667.472 290.329 662.537C285.394 657.603 282.622 650.91 282.622 643.932V76.049C282.623 69.2198 285.336 62.6706 290.165 57.8419C294.994 53.0131 301.544 50.3003 308.373 50.3Z" fill="white"/>
<path d="M781.95 671.243H308.934C301.69 671.243 294.743 668.366 289.621 663.244C284.499 658.122 281.622 651.175 281.622 643.931V75.049C281.623 68.2198 284.336 61.6704 289.165 56.8416C293.994 52.0128 300.544 49.3 307.373 49.3H783.51C790.34 49.3 796.89 52.013 801.719 56.8422C806.548 61.6715 809.262 68.2213 809.262 75.051V643.931C809.262 651.175 806.385 658.122 801.263 663.244C796.141 668.366 789.194 671.243 781.95 671.243ZM283.622 76.006V643.931C283.622 647.255 284.276 650.547 285.548 653.618C286.82 656.689 288.685 659.479 291.035 661.83C293.386 664.18 296.176 666.045 299.247 667.317C302.318 668.589 305.61 669.243 308.934 669.243H781.95C788.663 669.243 795.101 666.576 799.848 661.829C804.595 657.082 807.262 650.644 807.262 643.931V75.756C807.262 72.544 806.629 69.3635 805.399 66.3962C804.17 63.4288 802.368 60.7327 800.096 58.4618C797.825 56.1908 795.128 54.3895 792.16 53.1607C789.193 51.9319 786.012 51.2996 782.8 51.3H308.33C301.777 51.3 295.493 53.9029 290.86 58.5361C286.226 63.1693 283.623 69.4534 283.622 76.006Z" fill="#292A2E"/>
<path d="M384.588 173.577H327.129C323.927 173.573 320.857 172.3 318.593 170.036C316.328 167.772 315.054 164.702 315.05 161.5V104.04C315.054 100.838 316.328 97.7674 318.592 95.503C320.856 93.2385 323.927 91.9647 327.129 91.961H384.588C387.791 91.9644 390.861 93.2381 393.126 95.5026C395.39 97.7671 396.664 100.837 396.668 104.04V161.5C396.664 164.702 395.39 167.772 393.125 170.036C390.86 172.3 387.79 173.574 384.588 173.577ZM327.129 93.959C324.457 93.9622 321.895 95.0251 320.006 96.9146C318.116 98.8041 317.053 101.366 317.05 104.038V161.5C317.053 164.172 318.116 166.734 320.006 168.623C321.895 170.513 324.457 171.576 327.129 171.579H384.588C387.26 171.576 389.822 170.513 391.712 168.624C393.602 166.734 394.665 164.172 394.668 161.5V104.04C394.665 101.368 393.602 98.8057 391.712 96.9162C389.822 95.0267 387.26 93.9639 384.588 93.961L327.129 93.959Z" fill="#292A2E"/>
<path d="M384.588 287.415H327.129C323.927 287.411 320.856 286.137 318.592 283.873C316.328 281.609 315.054 278.538 315.05 275.336V217.877C315.053 214.674 316.327 211.604 318.592 209.339C320.856 207.075 323.926 205.801 327.129 205.797H384.588C387.791 205.801 390.861 207.075 393.126 209.339C395.39 211.604 396.664 214.674 396.668 217.877V275.336C396.664 278.539 395.39 281.609 393.126 283.873C390.861 286.138 387.791 287.412 384.588 287.415ZM327.129 207.8C324.457 207.803 321.895 208.866 320.005 210.756C318.116 212.646 317.053 215.208 317.05 217.88V275.339C317.053 278.011 318.116 280.573 320.005 282.463C321.895 284.352 324.457 285.415 327.129 285.418H384.588C387.26 285.415 389.822 284.352 391.712 282.463C393.602 280.573 394.665 278.011 394.668 275.339V217.877C394.665 215.205 393.602 212.643 391.712 210.753C389.822 208.863 387.26 207.8 384.588 207.797L327.129 207.8Z" fill="#292A2E"/>
<path d="M384.588 401.253H327.129C323.927 401.249 320.856 399.976 318.592 397.711C316.328 395.447 315.054 392.376 315.05 389.174V331.715C315.054 328.513 316.328 325.442 318.592 323.178C320.856 320.913 323.927 319.64 327.129 319.636H384.588C387.791 319.639 390.861 320.913 393.126 323.178C395.39 325.442 396.664 328.512 396.668 331.715V389.174C396.664 392.377 395.39 395.447 393.126 397.711C390.861 399.976 387.791 401.25 384.588 401.253ZM327.129 321.636C324.457 321.639 321.895 322.702 320.005 324.591C318.116 326.481 317.053 329.043 317.05 331.715V389.174C317.053 391.846 318.116 394.408 320.005 396.298C321.895 398.187 324.457 399.25 327.129 399.253H384.588C387.26 399.25 389.822 398.187 391.712 396.298C393.602 394.408 394.665 391.846 394.668 389.174V331.715C394.665 329.043 393.602 326.481 391.712 324.591C389.822 322.702 387.26 321.639 384.588 321.636H327.129Z" fill="#292A2E"/>
<path d="M384.588 513.527H327.129C323.927 513.523 320.856 512.249 318.592 509.985C316.328 507.721 315.054 504.65 315.05 501.448V443.989C315.053 440.786 316.327 437.716 318.592 435.451C320.856 433.187 323.926 431.913 327.129 431.909H384.588C387.791 431.913 390.861 433.187 393.126 435.451C395.39 437.716 396.664 440.786 396.668 443.989V501.448C396.664 504.651 395.39 507.721 393.126 509.985C390.861 512.25 387.791 513.524 384.588 513.527ZM327.129 433.909C324.457 433.912 321.895 434.975 320.005 436.865C318.115 438.754 317.053 441.317 317.05 443.989V501.448C317.053 504.12 318.116 506.682 320.006 508.571C321.895 510.461 324.457 511.524 327.129 511.527H384.588C387.26 511.524 389.822 510.461 391.712 508.572C393.602 506.682 394.665 504.12 394.668 501.448V443.989C394.665 441.317 393.602 438.754 391.712 436.865C389.823 434.975 387.261 433.912 384.588 433.909H327.129Z" fill="#292A2E"/>
<path d="M384.588 625.8H327.129C323.926 625.796 320.856 624.522 318.592 622.258C316.327 619.993 315.053 616.923 315.05 613.72V556.262C315.053 553.059 316.327 549.989 318.592 547.724C320.856 545.46 323.926 544.186 327.129 544.182H384.588C387.791 544.186 390.861 545.46 393.126 547.724C395.39 549.989 396.664 553.059 396.668 556.262V613.721C396.664 616.924 395.39 619.994 393.125 622.258C390.861 624.523 387.791 625.796 384.588 625.8ZM327.129 546.181C324.457 546.184 321.895 547.247 320.005 549.137C318.116 551.027 317.053 553.589 317.05 556.261V613.72C317.053 616.392 318.116 618.954 320.005 620.844C321.895 622.734 324.457 623.797 327.129 623.8H384.588C387.26 623.797 389.822 622.734 391.712 620.844C393.602 618.954 394.665 616.392 394.668 613.72V556.262C394.665 553.59 393.602 551.028 391.712 549.138C389.822 547.248 387.26 546.185 384.588 546.182L327.129 546.181Z" fill="#292A2E"/>
<path d="M345.638 269.594C344.604 269.595 343.61 269.194 342.866 268.477L326.118 252.377C325.739 252.013 325.436 251.578 325.225 251.097C325.015 250.615 324.901 250.097 324.891 249.572C324.88 249.047 324.973 248.525 325.165 248.036C325.356 247.546 325.642 247.1 326.006 246.721C326.37 246.342 326.805 246.039 327.286 245.828C327.768 245.618 328.286 245.504 328.811 245.494C329.336 245.483 329.858 245.576 330.347 245.768C330.837 245.959 331.283 246.245 331.662 246.609L345.57 259.98L380.431 224.8C381.18 224.059 382.192 223.643 383.245 223.644C384.299 223.644 385.31 224.061 386.059 224.802C386.808 225.544 387.233 226.551 387.244 227.605C387.254 228.659 386.848 229.674 386.114 230.43L348.479 268.405C348.108 268.782 347.666 269.081 347.178 269.285C346.69 269.489 346.167 269.594 345.638 269.594Z" fill="#0CBC8B"/>
<path d="M345.638 383.432C344.604 383.433 343.611 383.033 342.866 382.316L326.118 366.216C325.353 365.481 324.912 364.472 324.891 363.411C324.87 362.35 325.271 361.325 326.006 360.56C326.741 359.795 327.75 359.354 328.811 359.333C329.871 359.312 330.897 359.713 331.662 360.448L345.57 373.815L380.431 338.638C381.178 337.884 382.193 337.458 383.254 337.453C384.315 337.449 385.334 337.865 386.088 338.612C386.842 339.359 387.268 340.374 387.273 341.435C387.277 342.496 386.861 343.515 386.114 344.269L348.479 382.244C348.108 382.621 347.666 382.919 347.178 383.123C346.69 383.327 346.167 383.432 345.638 383.432Z" fill="#0CBC8B"/>
<path opacity="0.5" d="M765.06 114.977H428.072C426.531 114.977 425.281 116.227 425.281 117.768C425.281 119.309 426.531 120.559 428.072 120.559H765.06C766.601 120.559 767.851 119.309 767.851 117.768C767.851 116.227 766.601 114.977 765.06 114.977Z" fill="#262626"/>
<path opacity="0.5" d="M645.06 144.977H428.072C426.531 144.977 425.281 146.227 425.281 147.768C425.281 149.309 426.531 150.559 428.072 150.559H645.06C646.601 150.559 647.851 149.309 647.851 147.768C647.851 146.227 646.601 144.977 645.06 144.977Z" fill="#262626"/>
<path opacity="0.5" d="M765.06 228.815H428.072C426.531 228.815 425.281 230.065 425.281 231.606C425.281 233.147 426.531 234.397 428.072 234.397H765.06C766.601 234.397 767.851 233.147 767.851 231.606C767.851 230.065 766.601 228.815 765.06 228.815Z" fill="#262626"/>
<path opacity="0.5" d="M645.06 258.815H428.072C426.531 258.815 425.281 260.065 425.281 261.606C425.281 263.147 426.531 264.397 428.072 264.397H645.06C646.601 264.397 647.851 263.147 647.851 261.606C647.851 260.065 646.601 258.815 645.06 258.815Z" fill="#262626"/>
<path opacity="0.5" d="M765.06 342.653H428.072C426.531 342.653 425.281 343.903 425.281 345.444C425.281 346.985 426.531 348.235 428.072 348.235H765.06C766.601 348.235 767.851 346.985 767.851 345.444C767.851 343.903 766.601 342.653 765.06 342.653Z" fill="#262626"/>
<path opacity="0.5" d="M645.06 372.653H428.072C426.531 372.653 425.281 373.903 425.281 375.444C425.281 376.985 426.531 378.235 428.072 378.235H645.06C646.601 378.235 647.851 376.985 647.851 375.444C647.851 373.903 646.601 372.653 645.06 372.653Z" fill="#262626"/>
<path opacity="0.5" d="M765.06 454.927H428.072C426.531 454.927 425.281 456.177 425.281 457.718C425.281 459.259 426.531 460.509 428.072 460.509H765.06C766.601 460.509 767.851 459.259 767.851 457.718C767.851 456.177 766.601 454.927 765.06 454.927Z" fill="#262626"/>
<path opacity="0.5" d="M645.06 484.927H428.072C426.531 484.927 425.281 486.177 425.281 487.718C425.281 489.259 426.531 490.509 428.072 490.509H645.06C646.601 490.509 647.851 489.259 647.851 487.718C647.851 486.177 646.601 484.927 645.06 484.927Z" fill="#262626"/>
<path opacity="0.5" d="M765.06 567.2H428.072C426.531 567.2 425.281 568.45 425.281 569.991C425.281 571.532 426.531 572.782 428.072 572.782H765.06C766.601 572.782 767.851 571.532 767.851 569.991C767.851 568.45 766.601 567.2 765.06 567.2Z" fill="#262626"/>
<path opacity="0.5" d="M645.06 597.2H428.072C426.531 597.2 425.281 598.45 425.281 599.991C425.281 601.532 426.531 602.782 428.072 602.782H645.06C646.601 602.782 647.851 601.532 647.851 599.991C647.851 598.45 646.601 597.2 645.06 597.2Z" fill="#262626"/>
<path d="M342.752 153.226C343.043 152.51 343.561 151.908 344.226 151.513C344.891 151.118 345.666 150.951 346.435 151.037C346.435 150.975 346.381 150.825 346.489 150.826L343.989 149.246C343.241 148.796 342.682 148.091 342.414 147.261C342.146 146.431 342.188 145.532 342.531 144.73C342.896 143.949 343.538 143.331 344.332 142.996C345.127 142.662 346.017 142.634 346.831 142.919C346.823 142.885 346.844 142.851 346.847 142.819L345.819 142.17C345.116 141.743 344.583 141.087 344.308 140.312C344.034 139.538 344.036 138.692 344.313 137.918C344.497 137.437 344.786 137.002 345.159 136.646C345.531 136.29 345.978 136.021 346.467 135.858C346.956 135.696 347.475 135.644 347.987 135.706C348.499 135.768 348.99 135.943 349.426 136.218L351.8 137.718C351.806 137.704 351.8 137.689 351.806 137.676C351.812 137.663 351.839 137.657 351.851 137.642C351.294 137.084 350.943 136.354 350.855 135.57C350.767 134.786 350.948 133.996 351.368 133.329C352.342 131.536 354.844 131.744 356.379 132.713L360.979 136.142C361.688 136.671 362.256 137.367 362.631 138.169C363.006 138.97 363.177 139.852 363.129 140.736C362.72 148.384 361.173 168.336 356.274 165.236L344.215 157.622C343.517 157.156 342.994 156.471 342.729 155.675C342.464 154.879 342.472 154.017 342.752 153.226Z" fill="#E98862"/>
<path d="M345.638 154.616C344.604 154.617 343.61 154.216 342.866 153.499L326.118 137.399C325.734 137.036 325.425 136.601 325.21 136.119C324.994 135.636 324.877 135.115 324.864 134.587C324.851 134.059 324.943 133.533 325.134 133.04C325.326 132.548 325.613 132.098 325.979 131.717C326.345 131.336 326.783 131.031 327.268 130.821C327.753 130.61 328.274 130.498 328.803 130.49C329.331 130.482 329.856 130.579 330.347 130.775C330.837 130.971 331.285 131.262 331.662 131.632L345.57 145L380.431 109.823C380.801 109.45 381.24 109.153 381.725 108.95C382.209 108.747 382.729 108.641 383.254 108.638C383.779 108.636 384.3 108.737 384.786 108.936C385.273 109.135 385.715 109.427 386.088 109.797C386.461 110.167 386.758 110.606 386.961 111.091C387.164 111.575 387.27 112.095 387.273 112.62C387.275 113.145 387.174 113.666 386.975 114.152C386.776 114.639 386.484 115.081 386.114 115.454L348.479 153.429C348.108 153.805 347.665 154.104 347.178 154.308C346.69 154.512 346.167 154.616 345.638 154.616Z" fill="#0CBC8B"/>
<path d="M334.113 144.852C334.197 144.269 334.399 143.71 334.706 143.208C335.013 142.706 335.419 142.272 335.9 141.932C336.38 141.592 336.925 141.354 337.501 141.232C338.076 141.11 338.671 141.106 339.248 141.221C340.357 141.483 341.325 142.156 341.957 143.104C342.59 144.052 342.838 145.205 342.654 146.329L342.534 152.47C342.508 153.769 342.959 155.032 343.801 156.022C344.644 157.011 345.819 157.658 347.105 157.84C348.366 158.019 349.649 157.739 350.721 157.053C351.793 156.366 352.583 155.317 352.948 154.097L356.081 143.614L352.674 138.527C353.866 136.607 354.866 131.642 356.931 133.121C358.678 134.207 362.645 136.833 363.731 139.321C363.752 139.331 365.783 160.678 364.678 162.458L354.9 188.614C350.209 196.166 327.571 190.322 327.571 190.322L334.113 144.852Z" fill="#E98862"/>
<path d="M345.57 145L380.431 109.823C380.801 109.45 381.24 109.153 381.725 108.95C382.209 108.747 382.729 108.641 383.254 108.638C383.779 108.636 384.3 108.737 384.786 108.936C385.273 109.135 385.715 109.427 386.088 109.797C386.461 110.167 386.758 110.606 386.961 111.091C387.164 111.575 387.27 112.095 387.273 112.62C387.275 113.145 387.174 113.666 386.975 114.152C386.776 114.639 386.484 115.081 386.114 115.454L348.479 153.429" fill="#0CBC8B"/>
<path d="M167.648 326.809L308.735 314.936C319.123 315.209 328.168 306.572 331.978 296.88L368.942 181.022L320.588 162.014L287.959 261.257L163.878 269.941L167.648 326.809Z" fill="#5F22D9"/>
<path d="M85.728 872.3C85.728 872.3 90.243 895.7 112.156 897.008C134.069 898.316 129.317 915.769 129.317 915.769H45.578V873.931L85.728 872.3Z" fill="#5F22D9"/>
<path d="M59.9 445.368C59.9 445.368 60.163 438.333 60.107 454.292C59.9 513.821 58.867 581.817 56.343 621.607C52.286 685.571 41.883 887.235 41.883 887.235L96.909 886.773L150.241 442.95L59.9 445.368Z" fill="#262626"/>
<path d="M122.039 515.567C122.039 515.567 124.319 558.767 124.739 568.908C125.717 592.363 126.057 616.647 126.057 644.181L134.733 572C134.733 572 128.386 549.38 122.039 515.567Z" fill="#0A0A0A"/>
<path d="M183.689 872.3C183.689 872.3 188.204 895.7 210.117 897.008C232.03 898.316 227.278 915.769 227.278 915.769H143.539V873.931L183.689 872.3Z" fill="#5F22D9"/>
<path d="M210.332 449.991C210.332 449.991 215.206 653.447 214.492 663.391L194.029 885.691L139.912 886.691L145.186 655.348C145.186 655.348 141.466 591.532 126.047 532.274C118.158 501.861 113.41 470.719 111.878 439.337L210.332 449.991Z" fill="#262626"/>
<path d="M59.3 445.362L59.12 445.372C59.12 445.372 59.251 441.9 59.3 445.362Z" fill="#333333"/>
<path d="M218.078 343.06C216.944 356.392 211.423 433.569 210.332 449.991H59.96C59.111 435.18 55.296 370.415 52.075 341.452C49 313.814 42.967 299.977 47.389 291.806C54.615 278.452 74.361 270.736 87.825 268.913C96.047 267.8 166.141 267 166.309 267C171.815 267 203.875 269.588 210.962 275.046C223.785 284.922 220.06 319.811 218.078 343.06Z" fill="#5F22D9"/>
<path d="M220.155 322.783C220.283 322.783 220.406 322.735 220.499 322.647C220.592 322.559 220.648 322.44 220.655 322.312L221.868 303.141C221.876 303.009 221.83 302.879 221.742 302.78C221.654 302.681 221.53 302.621 221.398 302.613C221.266 302.607 221.137 302.653 221.038 302.74C220.94 302.828 220.879 302.951 220.87 303.083L219.657 322.254C219.649 322.386 219.695 322.516 219.783 322.615C219.871 322.714 219.995 322.774 220.127 322.782L220.155 322.783Z" fill="#0C0C0C"/>
<path d="M27.45 449.119C23.0277 449.117 18.6712 448.048 14.7512 446.001C10.8313 443.954 7.46378 440.99 4.93535 437.362C2.40692 433.734 0.79236 429.548 0.229059 425.162C-0.334242 420.776 0.170384 416.318 1.7 412.169C3.249 407.956 39.669 311.513 46.6 293.643L97.939 314.443C94.039 324.49 79.916 362.574 68.568 393.254L87.42 391.205L93.354 445.79L30.419 448.957C29.433 449.065 28.4419 449.119 27.45 449.119Z" fill="#5F22D9"/>
<path d="M184.224 265.176C184.056 265.154 179.443 282.512 143.446 279.81C118.526 277.943 112.446 260.981 111.878 260.981C114.565 260.41 118.929 259.817 120.122 259.181C124.046 257.072 126.905 254.506 128.343 248.997C129.468 244.69 130.043 228.107 130.043 219.787L168.39 228.404C167.855 237.789 164.114 259.547 177.226 263.398C179.407 264.034 181.757 264.619 184.224 265.176Z" fill="#E98862"/>
<path d="M167.062 246.854C151.945 248.047 132.525 241.664 128.836 221.495L125.508 203.295C121.819 183.126 129.422 164.838 148.413 161.365C167.403 157.892 184.588 171.647 188.276 191.816L189.75 199.873C191.165 207.613 194.034 244.726 167.062 246.854Z" fill="#E98862"/>
<path d="M181.079 228.336C178.366 214.702 177.121 205.605 177.266 196.009C181.088 189.309 180.083 181.609 179.214 178.285C181.846 179.957 184.941 180.75 188.053 180.551C188.053 180.551 181.732 155.183 160.248 148.357C156.297 146.82 146.21 144.878 132.817 146.715C121.426 148.277 93.346 156.794 89.334 188.407V188.425C89.202 189.474 86.506 218.601 81.134 232.576C73.909 251.362 63.764 257.199 64.021 278.876C64.352 306.757 115.609 310.469 146.521 308.383C177.433 306.297 194.695 296.132 194.921 276.039C195.167 253.524 186.509 255.615 181.079 228.336Z" fill="#0A0A0A"/>
<path d="M56.7586 342.009L55.7591 342.043L59.4539 450.008L60.4533 449.973L56.7586 342.009Z" fill="#0C0C0C"/>
<path d="M955.491 916.47H15.072C14.8863 916.47 14.7083 916.396 14.577 916.265C14.4457 916.134 14.372 915.956 14.372 915.77C14.372 915.584 14.4457 915.406 14.577 915.275C14.7083 915.144 14.8863 915.07 15.072 915.07H955.491C955.677 915.07 955.855 915.144 955.986 915.275C956.117 915.406 956.191 915.584 956.191 915.77C956.191 915.956 956.117 916.134 955.986 916.265C955.855 916.396 955.677 916.47 955.491 916.47Z" fill="#292A2E"/>
<path d="M858.421 785.415C858.156 785.415 857.901 785.31 857.714 785.122C856.305 783.713 854.009 757.863 847.823 680.898C845.292 649.406 842.9 619.661 841.156 601.583C841.031 600.292 840.531 600.142 840.366 600.093C837.978 599.372 830.714 605.1 826.659 610.115C826.576 610.217 826.474 610.302 826.359 610.365C826.244 610.427 826.117 610.467 825.986 610.481C825.856 610.494 825.724 610.482 825.598 610.445C825.472 610.408 825.355 610.346 825.252 610.264C825.15 610.181 825.066 610.079 825.003 609.964C824.94 609.848 824.901 609.722 824.887 609.591C824.873 609.46 824.885 609.328 824.922 609.202C824.96 609.076 825.021 608.959 825.104 608.857C827.786 605.541 836.525 596.848 840.941 598.177C841.832 598.445 842.941 599.219 843.147 601.391C844.893 619.484 847.284 649.238 849.816 680.738C853.576 727.508 857.834 780.494 859.233 783.831C859.34 783.98 859.405 784.157 859.418 784.34C859.432 784.524 859.395 784.707 859.311 784.871C859.227 785.035 859.1 785.172 858.943 785.268C858.785 785.364 858.605 785.415 858.421 785.415Z" fill="#494949"/>
<path d="M838.586 634.755C855.18 621.453 860.68 600.75 850.871 588.513C841.061 576.275 819.657 577.137 803.063 590.439C786.47 603.74 780.97 624.443 790.779 636.681C800.588 648.918 821.992 648.056 838.586 634.755Z" fill="#0CBC8B"/>
<path opacity="0.2" d="M838.586 634.755C855.18 621.453 860.68 600.75 850.871 588.513C841.061 576.275 819.657 577.137 803.063 590.439C786.47 603.74 780.97 624.443 790.779 636.681C800.588 648.918 821.992 648.056 838.586 634.755Z" fill="white"/>
<path d="M795.431 639.793C795.336 639.793 795.243 639.766 795.163 639.715C795.083 639.664 795.02 639.591 794.979 639.505C794.939 639.419 794.924 639.324 794.936 639.23C794.948 639.136 794.986 639.047 795.047 638.974L842.338 581.945C842.38 581.893 842.431 581.85 842.489 581.818C842.548 581.787 842.612 581.767 842.678 581.76C842.744 581.753 842.811 581.76 842.874 581.779C842.938 581.799 842.997 581.831 843.048 581.873C843.099 581.916 843.141 581.968 843.172 582.027C843.202 582.085 843.221 582.15 843.226 582.216C843.232 582.282 843.224 582.349 843.204 582.412C843.183 582.475 843.15 582.534 843.107 582.584L795.816 639.613C795.769 639.669 795.71 639.715 795.644 639.746C795.577 639.777 795.504 639.793 795.431 639.793Z" fill="white"/>
<path d="M868.736 773.189C868.576 773.189 868.419 773.151 868.277 773.078C868.136 773.004 868.013 772.898 867.921 772.768C867.829 772.638 867.769 772.488 867.746 772.33C867.724 772.172 867.739 772.011 867.792 771.86L885.555 720.773C886.078 719.272 886.969 717.926 888.147 716.859C889.325 715.791 890.752 715.037 892.297 714.664C893.843 714.291 895.457 714.311 896.992 714.724C898.527 715.137 899.934 715.928 901.084 717.025L910.475 726C910.667 726.183 910.778 726.435 910.784 726.7C910.79 726.966 910.69 727.222 910.507 727.414C910.324 727.606 910.072 727.717 909.807 727.723C909.541 727.729 909.285 727.629 909.093 727.446L899.702 718.475C898.794 717.609 897.683 716.985 896.472 716.659C895.26 716.334 893.986 716.317 892.766 716.612C891.547 716.906 890.421 717.502 889.491 718.344C888.561 719.186 887.857 720.248 887.444 721.433L869.68 772.517C869.612 772.713 869.484 772.883 869.315 773.004C869.146 773.124 868.944 773.189 868.736 773.189Z" fill="#494949"/>
<path d="M936.714 754.283C949.012 744.549 948.281 723.14 935.082 706.465C921.883 689.789 901.214 684.162 888.916 693.896C876.619 703.63 877.349 725.039 890.548 741.715C903.747 758.39 924.417 764.017 936.714 754.283Z" fill="#0CBC8B"/>
<path d="M850.351 782.157C850.126 782.157 849.908 782.081 849.732 781.942C849.555 781.802 849.431 781.608 849.379 781.389L819.569 656.745C819.365 655.895 818.931 655.118 818.315 654.499C817.698 653.88 816.923 653.443 816.073 653.236C815.224 653.029 814.335 653.061 813.502 653.327C812.67 653.593 811.927 654.084 811.356 654.745L802.167 665.364C801.993 665.565 801.747 665.688 801.483 665.707C801.218 665.726 800.957 665.64 800.756 665.466C800.555 665.292 800.432 665.046 800.413 664.782C800.394 664.517 800.48 664.256 800.654 664.055L809.844 653.436C810.656 652.497 811.712 651.8 812.895 651.422C814.078 651.044 815.343 651 816.549 651.295C817.755 651.589 818.857 652.211 819.733 653.091C820.609 653.971 821.225 655.076 821.514 656.284L851.325 780.928C851.36 781.075 851.362 781.228 851.329 781.376C851.297 781.524 851.231 781.662 851.137 781.781C851.043 781.9 850.924 781.995 850.788 782.061C850.652 782.127 850.502 782.161 850.351 782.161V782.157Z" fill="#494949"/>
<path d="M838.765 693.073C842.38 672.125 832.787 652.982 817.339 650.316C801.89 647.65 786.436 662.47 782.821 683.418C779.205 704.365 788.798 723.508 804.247 726.175C819.695 728.841 835.149 714.021 838.765 693.073Z" fill="#0CBC8B"/>
<path d="M858.423 785.415C858.381 785.415 858.34 785.412 858.299 785.407C858.169 785.391 858.043 785.349 857.929 785.285C857.814 785.22 857.714 785.133 857.633 785.03C857.552 784.926 857.493 784.808 857.458 784.681C857.423 784.555 857.413 784.422 857.429 784.292L876.465 629.735C876.672 628.051 877.361 626.463 878.449 625.162C879.538 623.861 880.979 622.901 882.599 622.399C884.219 621.897 885.95 621.874 887.584 622.332C889.217 622.79 890.683 623.71 891.806 624.982L913.564 649.625C913.74 649.824 913.829 650.084 913.813 650.349C913.796 650.614 913.675 650.862 913.476 651.037C913.278 651.213 913.017 651.303 912.752 651.286C912.487 651.27 912.24 651.149 912.064 650.95L890.306 626.307C889.438 625.324 888.305 624.613 887.043 624.259C885.781 623.904 884.443 623.922 883.19 624.31C881.938 624.698 880.824 625.439 879.983 626.445C879.142 627.451 878.609 628.678 878.449 629.979L859.414 784.537C859.384 784.779 859.267 785.002 859.085 785.163C858.902 785.325 858.667 785.415 858.423 785.415Z" fill="#494949"/>
<path d="M935.88 663.321C943.472 649.597 934.54 630.126 915.93 619.832C897.32 609.539 876.08 612.319 868.489 626.043C860.897 639.768 869.829 659.238 888.439 669.532C907.049 679.826 928.289 677.045 935.88 663.321Z" fill="#0CBC8B"/>
<path opacity="0.2" d="M936.714 754.283C949.012 744.549 948.281 723.14 935.082 706.465C921.883 689.789 901.214 684.162 888.916 693.896C876.619 703.63 877.349 725.039 890.548 741.715C903.747 758.39 924.417 764.017 936.714 754.283Z" fill="white"/>
<path opacity="0.5" d="M838.765 693.073C842.38 672.125 832.787 652.982 817.339 650.316C801.89 647.65 786.436 662.47 782.821 683.418C779.205 704.365 788.798 723.508 804.247 726.175C819.695 728.841 835.149 714.021 838.765 693.073Z" fill="white"/>
<path opacity="0.5" d="M935.88 663.321C943.472 649.597 934.54 630.126 915.93 619.832C897.32 609.539 876.08 612.319 868.489 626.043C860.897 639.768 869.829 659.238 888.439 669.532C907.049 679.826 928.289 677.045 935.88 663.321Z" fill="white"/>
<path d="M882.77 916.556H834.073L826.004 760.752H890.839L882.77 916.556Z" fill="#292A2E"/>
<path opacity="0.3" d="M882.77 916.556H834.073L826.004 760.752H890.839L882.77 916.556Z" fill="white"/>
<path d="M936.715 754.776C936.639 754.776 936.565 754.759 936.497 754.726C936.429 754.693 936.369 754.645 936.322 754.586L888.522 694.2C888.44 694.096 888.402 693.963 888.417 693.832C888.433 693.7 888.5 693.579 888.604 693.497C888.708 693.415 888.841 693.377 888.972 693.392C889.104 693.408 889.225 693.475 889.307 693.579L937.107 753.965C937.165 754.039 937.202 754.127 937.212 754.221C937.223 754.314 937.207 754.409 937.166 754.493C937.125 754.578 937.061 754.649 936.982 754.699C936.902 754.749 936.809 754.776 936.715 754.776Z" fill="white"/>
<path d="M932.7 668.159C932.594 668.158 932.491 668.123 932.406 668.059L871.24 623.4C871.187 623.361 871.142 623.312 871.108 623.256C871.074 623.2 871.051 623.138 871.041 623.073C871.031 623.008 871.033 622.942 871.049 622.878C871.064 622.814 871.092 622.754 871.131 622.701C871.17 622.648 871.219 622.603 871.275 622.569C871.331 622.535 871.393 622.512 871.458 622.502C871.523 622.492 871.589 622.494 871.653 622.51C871.717 622.525 871.777 622.553 871.83 622.592L933 667.255C933.084 667.318 933.146 667.406 933.177 667.506C933.209 667.606 933.207 667.714 933.174 667.813C933.141 667.913 933.077 667.999 932.992 668.061C932.907 668.122 932.805 668.155 932.7 668.155V668.159Z" fill="white"/>
<path d="M802.327 725.507C802.283 725.507 802.239 725.501 802.197 725.49C802.069 725.456 801.96 725.372 801.893 725.257C801.827 725.143 801.809 725.006 801.843 724.878L821.315 651.925C821.331 651.861 821.36 651.8 821.399 651.747C821.439 651.694 821.489 651.649 821.546 651.615C821.603 651.582 821.667 651.56 821.732 651.551C821.798 651.542 821.865 651.546 821.929 651.563C821.993 651.58 822.053 651.61 822.106 651.65C822.158 651.691 822.202 651.742 822.235 651.799C822.268 651.857 822.289 651.921 822.297 651.986C822.305 652.052 822.299 652.119 822.281 652.183L802.809 725.136C802.781 725.242 802.718 725.336 802.631 725.403C802.544 725.47 802.437 725.507 802.327 725.507Z" fill="white"/>
</g>
<defs>
<clipPath id="clip0_1_249">
<rect width="978.258" height="916.556" fill="white"/>
</clipPath>
</defs>
</svg>
