<svg width="880" height="677" viewBox="0 0 880 677" fill="none" xmlns="http://www.w3.org/2000/svg">
<g clip-path="url(#clip0_1_3129)">
<path d="M879.19 675.358H0C9.634 650.791 27.424 629.95 52.5 623.768C89.186 614.736 128.011 639.568 164.616 630.232C185.416 624.932 201.786 609.488 218.99 596.663C283.896 548.268 372.837 533.971 449.649 559.579C489.794 572.962 526.375 596.363 567.5 606.316C620.679 619.186 676.292 608.516 730.979 606.754C784.24 605.04 860.553 626.742 879.19 675.358Z" fill="#F3F5FD"/>
<path d="M203.477 666.055L182.624 663.575C183.562 655.682 184.624 646.202 184.696 644.647C184.696 644.747 184.696 644.828 184.696 644.892H205.696C205.691 645.522 205.691 647.437 203.477 666.055Z" fill="#E98862"/>
<path d="M109.8 668.565L88.8 668.496C88.8 668.496 88.871 646.812 88.871 644.896H109.871C109.872 646.818 109.8 668.565 109.8 668.565Z" fill="#E98862"/>
<path d="M174.722 663.36L210.732 654.86C187.417 563.331 167.852 469.907 148.903 377.39L148.636 377.469L147.855 372.14L71.778 367.44C71.778 367.44 68.817 404.697 68.818 417.145C68.825 478.151 78.528 579.575 83.348 660.734L120.3 658.842C118.125 580.142 112.252 501.327 112.674 422.606C134.8 502.246 156.868 582.737 174.722 663.36Z" fill="#262626"/>
<path d="M135.33 676.687C135.895 676.684 136.453 676.565 136.97 676.337C137.486 676.109 137.95 675.777 138.333 675.362C138.715 674.946 139.008 674.456 139.193 673.923C139.377 673.389 139.45 672.823 139.406 672.26C139.345 671.48 139.063 670.733 138.592 670.108C138.121 669.483 137.481 669.005 136.748 668.731L112.305 660.544C111.831 660.387 111.33 660.335 110.834 660.39C110.338 660.445 109.86 660.607 109.433 660.864C106.073 663.195 102.053 664.387 97.965 664.264C94.7812 664.038 91.725 662.921 89.145 661.042C88.9182 660.856 88.6432 660.738 88.352 660.703C88.0609 660.667 87.7656 660.715 87.5006 660.841C87.2356 660.966 87.0119 661.165 86.8554 661.413C86.699 661.661 86.6163 661.949 86.617 662.242V674.2C86.617 674.553 86.6866 674.902 86.8219 675.227C86.9572 675.553 87.1554 675.849 87.4052 676.098C87.6551 676.346 87.9516 676.543 88.2778 676.677C88.604 676.811 88.9534 676.879 89.306 676.878L135.33 676.687Z" fill="#C1D8ED"/>
<path d="M229.064 676.687C229.629 676.684 230.187 676.565 230.703 676.337C231.22 676.109 231.684 675.777 232.067 675.362C232.449 674.946 232.742 674.456 232.926 673.923C233.111 673.389 233.184 672.823 233.14 672.26C233.079 671.48 232.797 670.733 232.326 670.107C231.854 669.482 231.214 669.005 230.481 668.731L206.039 660.544C205.565 660.387 205.063 660.335 204.568 660.39C204.072 660.445 203.594 660.607 203.166 660.864C199.806 663.195 195.787 664.387 191.699 664.264C188.515 664.038 185.458 662.921 182.878 661.042C182.651 660.856 182.376 660.738 182.085 660.702C181.794 660.667 181.499 660.714 181.234 660.84C180.969 660.966 180.745 661.165 180.589 661.413C180.433 661.661 180.35 661.949 180.351 662.242V674.2C180.351 674.553 180.421 674.902 180.556 675.227C180.691 675.553 180.889 675.849 181.139 676.098C181.389 676.346 181.686 676.543 182.012 676.677C182.338 676.811 182.687 676.879 183.04 676.878L229.064 676.687Z" fill="#C1D8ED"/>
<path d="M94.8 264.991C94.8 264.991 102.532 260.891 100.806 239.835L116.782 236.872C116.782 236.872 114.982 255.751 123.07 261.745L94.8 264.991Z" fill="#E98862"/>
<g opacity="0.15">
<path d="M119.8 257.8L106.528 247.646L116.952 247.538C117.254 251.106 118.22 254.587 119.8 257.8Z" fill="black"/>
</g>
<path d="M91.744 231.67C92.85 238.058 96.336 244.108 101.971 246.17C108.114 248.607 114.76 249.505 121.329 248.785C138.819 247.351 135.359 207.585 127.056 199.858C118.753 192.131 94.383 197.026 91.418 209.946C89.885 216.63 90.691 225.589 91.744 231.67Z" fill="#E98862"/>
<path d="M139.289 196.169C139.289 190.887 132.715 182.232 115.178 194.169L115.161 194.18C110.605 194.053 106.053 194.551 101.632 195.66C98.4645 196.575 95.5047 198.096 92.917 200.139C88.036 204.099 84.478 210.613 86.136 221.084C89.016 239.278 96.468 244.134 100.225 246.366C101.182 246.935 101.414 246.472 101.746 245.409C102.788 241.481 103.533 237.48 103.975 233.44C104.546 229.24 108.32 226.57 107.864 221.54C107.704 219.782 104.873 213.34 113.636 213.267C118.564 213.227 116.722 213.423 121.982 213.423C122.731 213.423 123.394 213.388 124.003 213.335H124.01C142.169 213.336 139.289 201.452 139.289 196.169Z" fill="#0F1011"/>
<path d="M109.225 228.846C109.303 229.656 109.219 230.474 108.978 231.252C108.737 232.029 108.343 232.751 107.821 233.375C107.299 233.999 106.657 234.514 105.934 234.888C105.212 235.262 104.421 235.489 103.61 235.555C102.799 235.622 101.982 235.526 101.208 235.274C100.434 235.022 99.7181 234.619 99.1013 234.087C98.4845 233.556 97.9794 232.908 97.6154 232.179C97.2514 231.451 97.0358 230.658 96.981 229.846C96.9009 229.039 96.984 228.225 97.2254 227.451C97.4667 226.677 97.8613 225.96 98.3857 225.341C98.9101 224.723 99.5536 224.217 100.278 223.853C101.002 223.488 101.792 223.274 102.601 223.221C106.979 223.083 108.948 225.464 109.225 228.846Z" fill="#E98862"/>
<path d="M106.527 209.36L102 211.016C102 211.016 103.6 233.616 104.87 239.791C106.14 245.966 109.677 249.991 113.691 250.334C119.854 250.863 124.32 250.905 128.841 249.289C133.941 247.467 133.225 233.789 133.225 233.789C133.225 233.789 116.82 235.566 112.281 233.389C107.742 231.212 106.527 209.36 106.527 209.36Z" fill="#0F1011"/>
<path d="M116.763 226.749C117.563 226.749 118.212 226.1 118.212 225.3C118.212 224.5 117.563 223.851 116.763 223.851C115.963 223.851 115.314 224.5 115.314 225.3C115.314 226.1 115.963 226.749 116.763 226.749Z" fill="#0F1011"/>
<path d="M128.194 225.812C128.994 225.812 129.643 225.163 129.643 224.363C129.643 223.563 128.994 222.914 128.194 222.914C127.394 222.914 126.745 223.563 126.745 224.363C126.745 225.163 127.394 225.812 128.194 225.812Z" fill="#0F1011"/>
<path d="M130.705 221.275H130.7L126.861 221.226C126.772 221.225 126.683 221.206 126.601 221.171C126.519 221.136 126.445 221.085 126.382 221.021C126.32 220.957 126.271 220.881 126.237 220.798C126.204 220.715 126.188 220.626 126.189 220.537C126.198 220.359 126.274 220.19 126.402 220.066C126.53 219.941 126.7 219.869 126.879 219.865L130.718 219.913C130.899 219.914 131.071 219.987 131.198 220.116C131.325 220.244 131.396 220.418 131.394 220.598C131.393 220.779 131.32 220.952 131.192 221.079C131.063 221.206 130.89 221.276 130.709 221.275H130.705Z" fill="#0F1011"/>
<path d="M113.634 222.675C113.467 222.676 113.305 222.615 113.18 222.504C113.055 222.393 112.975 222.24 112.955 222.074C112.936 221.907 112.978 221.74 113.074 221.603C113.17 221.466 113.313 221.369 113.476 221.331L117.261 220.421C117.348 220.399 117.439 220.394 117.529 220.407C117.618 220.42 117.703 220.451 117.781 220.498C117.858 220.544 117.925 220.606 117.978 220.678C118.032 220.751 118.07 220.834 118.091 220.921C118.112 221.009 118.116 221.1 118.101 221.189C118.087 221.278 118.055 221.363 118.008 221.44C117.96 221.517 117.898 221.583 117.824 221.635C117.751 221.688 117.668 221.725 117.58 221.745L113.795 222.656C113.742 222.668 113.688 222.675 113.634 222.675Z" fill="#0F1011"/>
<g opacity="0.15">
<path d="M123.2 233.337C123.08 233.337 122.964 233.294 122.874 233.216C122.783 233.138 122.723 233.03 122.705 232.911C122.687 232.793 122.713 232.672 122.777 232.571C122.84 232.469 122.938 232.394 123.053 232.359L126 231.454L123.939 226.863C123.91 226.803 123.893 226.737 123.889 226.67C123.886 226.604 123.896 226.537 123.919 226.474C123.941 226.411 123.977 226.353 124.022 226.304C124.068 226.255 124.123 226.215 124.184 226.188C124.245 226.161 124.311 226.146 124.378 226.144C124.445 226.143 124.512 226.155 124.574 226.18C124.636 226.205 124.693 226.242 124.74 226.289C124.788 226.336 124.826 226.392 124.851 226.454L127.144 231.561C127.173 231.626 127.188 231.696 127.188 231.767C127.188 231.838 127.173 231.908 127.144 231.972C127.114 232.037 127.072 232.094 127.019 232.141C126.965 232.188 126.903 232.223 126.835 232.244L123.347 233.315C123.299 233.329 123.25 233.337 123.2 233.337Z" fill="black"/>
</g>
<path d="M117.433 236.712C117.433 236.712 122.782 237.276 126.533 235.966C126.533 235.966 126.503 239.488 122.27 239.836C118.037 240.184 117.433 236.712 117.433 236.712Z" fill="white"/>
<path d="M811.496 0H190.409V449.786H811.496V0Z" fill="#DEE8F5"/>
<path d="M492.463 277.706H225.001V411.017H492.463V277.706Z" fill="#C1D8ED"/>
<path d="M362.218 309.117H249.934V320.349H362.218V309.117Z" fill="white"/>
<path d="M362.218 338.746H249.934V349.978H362.218V338.746Z" fill="white"/>
<path d="M362.218 368.375H249.934V379.607H362.218V368.375Z" fill="white"/>
<path d="M811.496 0H190.409V37.051H811.496V0Z" fill="#C1D8ED"/>
<path d="M790.694 27.822C795.828 27.822 799.99 23.66 799.99 18.526C799.99 13.392 795.828 9.23 790.694 9.23C785.56 9.23 781.398 13.392 781.398 18.526C781.398 23.66 785.56 27.822 790.694 27.822Z" fill="white"/>
<path d="M492.463 74.959H225.001V247.902H492.463V74.959Z" fill="#C1D8ED"/>
<path d="M473.413 229H243.289C243.031 229 242.783 228.897 242.601 228.714C242.418 228.532 242.316 228.284 242.316 228.026V95.619C242.324 95.3662 242.43 95.1265 242.612 94.9505C242.794 94.7746 243.037 94.6762 243.29 94.6762C243.542 94.6762 243.785 94.7746 243.967 94.9505C244.149 95.1265 244.255 95.3662 244.263 95.619V227.051H473.413C473.671 227.051 473.919 227.154 474.102 227.336C474.284 227.519 474.387 227.767 474.387 228.025C474.387 228.283 474.284 228.531 474.102 228.714C473.919 228.896 473.671 228.999 473.413 228.999V229Z" fill="white"/>
<path d="M250.91 219.266C250.711 219.267 250.517 219.207 250.354 219.094C250.19 218.981 250.065 218.821 249.996 218.635C249.926 218.449 249.915 218.246 249.963 218.054C250.012 217.861 250.119 217.688 250.269 217.558L311.991 163.692C312.166 163.539 312.389 163.454 312.621 163.452C312.853 163.45 313.078 163.531 313.256 163.68L331.724 179.148L383.688 141.507C383.853 141.388 384.052 141.324 384.256 141.324C384.46 141.324 384.659 141.388 384.824 141.507L415.256 163.207L465.181 122.884C465.382 122.722 465.639 122.646 465.896 122.673C466.153 122.701 466.389 122.829 466.551 123.03C466.713 123.231 466.789 123.488 466.762 123.745C466.734 124.002 466.606 124.238 466.405 124.4L415.905 165.187C415.739 165.32 415.535 165.396 415.322 165.402C415.11 165.409 414.901 165.345 414.728 165.222L384.265 143.495L332.253 181.171C332.077 181.299 331.863 181.365 331.646 181.357C331.428 181.35 331.219 181.269 331.053 181.129L312.644 165.7L251.549 219.019C251.373 219.176 251.146 219.264 250.91 219.266Z" fill="white"/>
<path d="M463.888 129.587C466.398 129.587 468.432 127.553 468.432 125.043C468.432 122.533 466.398 120.499 463.888 120.499C461.378 120.499 459.344 122.533 459.344 125.043C459.344 127.553 461.378 129.587 463.888 129.587Z" fill="white"/>
<g opacity="0.77">
<path d="M473.414 106.567H242.637V107.216H473.414V106.567Z" fill="white"/>
<path d="M473.414 126.583H242.637V127.232H473.414V126.583Z" fill="white"/>
<path d="M473.414 146.598H242.637V147.247H473.414V146.598Z" fill="white"/>
<path d="M473.414 166.613H242.637V167.262H473.414V166.613Z" fill="white"/>
<path d="M473.414 186.628H242.637V187.277H473.414V186.628Z" fill="white"/>
<path d="M473.414 206.643H242.637V207.292H473.414V206.643Z" fill="white"/>
</g>
<path d="M772.543 74.959H520.932V226.049H772.543V74.959Z" fill="#C1D8ED"/>
<path d="M615.159 115.259H547.128V126.491H615.159V115.259Z" fill="white"/>
<path d="M615.159 144.888H547.128V156.12H615.159V144.888Z" fill="white"/>
<path d="M615.159 174.517H547.128V185.749H615.159V174.517Z" fill="white"/>
<path d="M772.543 259.928H520.932V411.018H772.543V259.928Z" fill="#C1D8ED"/>
<path d="M570.709 317.082H545.867V386.875H570.709V317.082Z" fill="white"/>
<path d="M702.673 325.748H677.831V386.875H702.673V325.748Z" fill="white"/>
<path d="M614.697 298.616H589.855V386.874H614.697V298.616Z" fill="white"/>
<path d="M658.685 337.779H633.843V386.875H658.685V337.779Z" fill="white"/>
<path d="M746.66 312.826H721.818V386.875H746.66V312.826Z" fill="white"/>
<path d="M268.551 319.7C268.551 319.7 276.76 315.711 282.926 317.241C289.092 318.771 286.202 321.426 281.715 322.37C277.228 323.314 267.373 324.849 267.373 324.849" fill="#E98862"/>
<path d="M273.346 319.515C273.346 319.515 288.564 317.915 288.722 321.577C288.722 321.577 289.389 332.877 287.322 334.62C284.2 337.256 268.742 335.192 268.742 335.192L273.346 319.515Z" fill="#E98862"/>
<path d="M233.116 338.18H173.637C171.876 338.18 170.143 337.737 168.598 336.892C167.053 336.047 165.746 334.827 164.796 333.344L127.214 274.676L144.9 263.348L179.384 317.18H233.119L233.116 338.18Z" fill="#367CFF"/>
<path d="M152.8 373.968C148.61 383.598 66.28 387.598 65.18 370.658C64.48 359.878 73.98 350.468 73.98 329.458C73.98 308.448 54.65 281.618 70.4 265.868C74.97 261.298 82.86 258.348 92.48 258.338C93.2 263.948 127.26 263.968 127.52 258.468C128.82 258.488 129.83 258.508 130.46 258.538C163.64 259.968 149.06 297.728 148.74 325.468C148.353 357.928 157.123 364.048 152.8 373.968Z" fill="#367CFF"/>
<path d="M127.523 258.468C127.263 263.968 124.273 272.058 115.043 272.668C102.743 273.478 93.203 263.948 92.483 258.338H92.513C104.623 258.338 120.463 258.358 127.523 258.468Z" fill="#E98862"/>
<path d="M224.383 387.68C257.52 387.68 284.383 360.817 284.383 327.68C284.383 294.543 257.52 267.68 224.383 267.68C191.246 267.68 164.383 294.543 164.383 327.68C164.383 360.817 191.246 387.68 224.383 387.68Z" fill="#0CBC8B"/>
<g opacity="0.29">
<path d="M224.383 366.576C245.865 366.576 263.279 349.162 263.279 327.68C263.279 306.198 245.865 288.784 224.383 288.784C202.901 288.784 185.487 306.198 185.487 327.68C185.487 349.162 202.901 366.576 224.383 366.576Z" fill="white"/>
</g>
<path d="M211.652 341.573L215.28 335.947C218.156 338.147 220.671 339.275 223.347 339.275C226.553 339.275 227.964 337.944 227.964 335.375C227.964 329.554 213.03 329.659 213.03 319.449C213.03 312.887 217.576 308.706 224.745 308.706C226.781 308.676 228.799 309.091 230.659 309.919C232.519 310.748 234.176 311.972 235.515 313.506L231.353 318.273C229.297 316.402 227.553 315.418 225.191 315.418C222.469 315.418 220.991 316.518 220.991 319.057C220.991 324.452 235.925 323.981 235.925 334.795C235.925 341.295 231.625 345.995 223.345 345.995C219.057 345.896 214.932 344.336 211.652 341.573ZM221.602 303.157H227.121V311.305H221.6L221.602 303.157ZM221.602 342.59H227.121V351.53H221.6L221.602 342.59Z" fill="white"/>
<path d="M287.317 334.624C287.037 334.847 286.723 335.025 286.388 335.151C284.594 335.522 280.073 334.44 279.348 333.186C278.168 331.145 278.9 323.771 279.941 321.095C280.918 318.595 285.784 319.642 286.423 319.76C286.443 319.768 286.463 319.773 286.484 319.776C287.811 320.14 288.684 320.708 288.721 321.582C288.721 321.582 289.391 332.872 287.317 334.624Z" fill="#E98862"/>
<path d="M154.838 341.441C154.838 341.441 157.246 328.287 166.552 330.576C172.423 332.021 189.486 329.442 189.745 336.982C189.97 343.524 173.945 345.267 168.645 344.722C163.888 344.233 154.838 341.441 154.838 341.441Z" fill="#E98862"/>
<path d="M163.144 330.431C163.144 330.431 176.987 328.389 180.079 329.703C182.817 330.867 176.079 334.503 176.079 334.503L163.144 330.431Z" fill="#E98862"/>
<path d="M167.572 348.745L105.692 346.859C103.76 346.8 101.879 346.229 100.241 345.204C98.6025 344.179 97.2663 342.737 96.369 341.025L65.818 282.77L85.129 272.643L112.721 325.258L168.236 326.951L167.572 348.745Z" fill="#367CFF"/>
<path d="M794.692 649.376H696.677C691.975 649.376 688.164 653.187 688.164 657.889V666.845C688.164 671.547 691.975 675.358 696.677 675.358H794.692C799.394 675.358 803.205 671.547 803.205 666.845V657.889C803.205 653.187 799.394 649.376 794.692 649.376Z" fill="#0CBC8B"/>
<path d="M779.432 623.393H681.417C676.715 623.393 672.904 627.204 672.904 631.906V640.862C672.904 645.564 676.715 649.375 681.417 649.375H779.432C784.134 649.375 787.945 645.564 787.945 640.862V631.906C787.945 627.204 784.134 623.393 779.432 623.393Z" fill="#0CBC8B"/>
<path d="M794.692 597.411H696.677C691.975 597.411 688.164 601.222 688.164 605.924V614.88C688.164 619.582 691.975 623.393 696.677 623.393H794.692C799.394 623.393 803.205 619.582 803.205 614.88V605.924C803.205 601.222 799.394 597.411 794.692 597.411Z" fill="#0CBC8B"/>
<path d="M787.062 571.9H689.047C684.345 571.9 680.534 575.711 680.534 580.413V589.369C680.534 594.071 684.345 597.882 689.047 597.882H787.062C791.764 597.882 795.575 594.071 795.575 589.369V580.413C795.575 575.711 791.764 571.9 787.062 571.9Z" fill="#0CBC8B"/>
<path d="M771.802 545.918H673.787C669.085 545.918 665.274 549.729 665.274 554.431V563.387C665.274 568.089 669.085 571.9 673.787 571.9H771.802C776.504 571.9 780.315 568.089 780.315 563.387V554.431C780.315 549.729 776.504 545.918 771.802 545.918Z" fill="#0CBC8B"/>
<path d="M787.062 519.936H689.047C684.345 519.936 680.534 523.747 680.534 528.449V537.405C680.534 542.107 684.345 545.918 689.047 545.918H787.062C791.764 545.918 795.575 542.107 795.575 537.405V528.449C795.575 523.747 791.764 519.936 787.062 519.936Z" fill="#0CBC8B"/>
<path d="M695.419 208.279C727.327 208.279 753.194 182.412 753.194 150.504C753.194 118.596 727.327 92.729 695.419 92.729C663.511 92.729 637.644 118.596 637.644 150.504C637.644 182.412 663.511 208.279 695.419 208.279Z" fill="#DEE8F5"/>
<path d="M695.419 197.269C721.247 197.269 742.184 176.332 742.184 150.504C742.184 124.676 721.247 103.739 695.419 103.739C669.591 103.739 648.654 124.676 648.654 150.504C648.654 176.332 669.591 197.269 695.419 197.269Z" fill="#C1D8ED"/>
<path d="M678.513 122.919H697.237C708.592 122.919 717.411 126.038 717.411 136.486C717.411 141.393 714.666 146.617 710.204 148.295V148.631C715.791 150.083 720.104 154.2 720.104 161.507C720.104 172.635 710.693 177.622 698.795 177.622H678.513V122.919ZM696.665 144.828C702.665 144.828 705.321 142.291 705.321 138.313C705.321 134.099 702.521 132.461 696.753 132.461H690.88V144.828H696.665ZM697.79 168.079C704.532 168.079 708.016 165.679 708.016 160.706C708.016 155.906 704.591 153.955 697.79 153.955H690.88V168.079H697.79Z" fill="white"/>
<path d="M682.876 122.919H670.732V130.279H682.876V122.919Z" fill="white"/>
<path d="M682.876 170.262H670.732V177.622H682.876V170.262Z" fill="white"/>
<path d="M687.533 128.991V116.847H681.455V128.991H687.533Z" fill="white"/>
<path d="M698.475 128.992V116.848H692.397V128.992H698.475Z" fill="white"/>
<path d="M687.533 183.694V171.55H681.455V183.694H687.533Z" fill="white"/>
<path d="M698.475 183.695V171.551H692.397V183.695H698.475Z" fill="white"/>
<path d="M425.673 387.145C450.194 387.145 470.072 367.267 470.072 342.746C470.072 318.225 450.194 298.347 425.673 298.347C401.152 298.347 381.274 318.225 381.274 342.746C381.274 367.267 401.152 387.145 425.673 387.145Z" fill="#DEE8F5"/>
<path d="M425.673 378.684C445.521 378.684 461.611 362.594 461.611 342.746C461.611 322.898 445.521 306.808 425.673 306.808C405.825 306.808 389.735 322.898 389.735 342.746C389.735 362.594 405.825 378.684 425.673 378.684Z" fill="#C1D8ED"/>
<path d="M412.13 341.139L425.673 335.096L439.215 341.139L425.673 313.988L412.13 341.139Z" fill="white"/>
<path d="M412.13 344.352L425.673 350.395L439.215 344.352L425.673 371.503L412.13 344.352Z" fill="white"/>
<path d="M439.208 341.137L425.676 347.174L412.137 341.137L425.676 335.094L439.208 341.137Z" fill="#DEE8F5"/>
</g>
<defs>
<clipPath id="clip0_1_3129">
<rect width="879.19" height="676.874" fill="white"/>
</clipPath>
</defs>
</svg>
