<svg width="709" height="541" viewBox="0 0 709 541" fill="none" xmlns="http://www.w3.org/2000/svg">
<g clip-path="url(#clip0_1_2704)">
<path d="M645.1 540.458C653.605 540.458 662.022 538.735 669.844 535.394C677.665 532.052 684.728 527.161 690.608 521.015C696.487 514.87 701.061 507.597 704.053 499.635C707.046 491.674 708.394 483.189 708.018 474.692C705.946 427.828 673.667 348.439 625.234 300.005C525.8 200.579 567.592 17.228 446.621 2.473C226.257 -24.4 298.651 174.371 128.579 280.654C37.121 337.809 0.006 412.99 0 477.578C0.0156413 494.267 6.65882 510.266 18.4687 522.058C30.2786 533.85 46.2882 540.468 62.977 540.458H645.1Z" fill="#F3F5FD"/>
<path d="M527.4 264.779C507.45 352.667 489.385 441.146 475.129 530.147L495.169 534.269C517.2 446.869 535.527 358.442 551.887 269.816L527.4 264.779Z" fill="#E98862"/>
<path d="M568.642 270.223C566.81 357.536 566.942 445.044 570.913 532.298H591.372C595.341 445.045 595.472 357.535 593.642 270.223H568.642Z" fill="#E98862"/>
<path d="M544.443 540.364C543.878 540.361 543.32 540.242 542.803 540.014C542.287 539.786 541.823 539.454 541.44 539.039C541.058 538.623 540.765 538.133 540.58 537.6C540.396 537.066 540.323 536.5 540.367 535.937C540.428 535.157 540.71 534.41 541.181 533.784C541.653 533.159 542.293 532.682 543.026 532.408L567.468 524.221C567.942 524.064 568.444 524.012 568.939 524.067C569.435 524.122 569.913 524.284 570.341 524.541C573.701 526.872 577.72 528.064 581.808 527.941C584.992 527.715 588.049 526.598 590.629 524.718C590.856 524.532 591.131 524.415 591.422 524.379C591.713 524.344 592.008 524.392 592.273 524.518C592.537 524.643 592.761 524.842 592.917 525.09C593.074 525.338 593.157 525.625 593.156 525.918V537.87C593.156 538.223 593.086 538.572 592.951 538.897C592.816 539.223 592.618 539.519 592.368 539.767C592.118 540.016 591.821 540.213 591.495 540.347C591.169 540.481 590.82 540.549 590.467 540.548L544.443 540.364Z" fill="#C1D8ED"/>
<path d="M450.71 540.364C450.145 540.361 449.587 540.242 449.07 540.014C448.554 539.786 448.089 539.454 447.707 539.039C447.324 538.623 447.031 538.134 446.847 537.6C446.662 537.066 446.589 536.5 446.633 535.937C446.694 535.157 446.977 534.41 447.448 533.785C447.919 533.16 448.559 532.682 449.292 532.408L473.735 524.221C474.208 524.064 474.71 524.012 475.206 524.067C475.702 524.122 476.18 524.284 476.607 524.541C479.967 526.872 483.987 528.064 488.075 527.941C491.259 527.715 494.315 526.598 496.895 524.718C497.122 524.532 497.397 524.414 497.688 524.379C497.979 524.343 498.274 524.391 498.539 524.517C498.804 524.642 499.028 524.841 499.185 525.089C499.341 525.337 499.424 525.625 499.423 525.918V537.87C499.423 538.223 499.353 538.572 499.218 538.897C499.083 539.223 498.885 539.519 498.635 539.767C498.385 540.016 498.088 540.213 497.762 540.347C497.436 540.481 497.087 540.549 496.734 540.548L450.71 540.364Z" fill="#C1D8ED"/>
<path d="M606.316 232.528C606.316 232.528 617.675 283.399 617.675 326.182C617.675 368.965 630.719 435.225 630.719 435.225C630.719 435.225 593.752 429.245 568.674 435.225C525.466 445.525 486.723 423.093 486.723 423.093L530.239 237.224L606.316 232.528Z" fill="#262626"/>
<path d="M523.726 84.349C523.426 88.019 527.251 91.434 527.881 94.892C528.533 98.47 526.195 103.014 527.721 106.224C529.268 109.48 534.283 110.537 536.603 113.265C538.923 115.993 539.157 121.114 542.121 123.165C545.043 125.187 549.904 123.612 553.33 124.832C556.641 126.011 559.396 130.332 563.066 130.632C566.736 130.932 570.151 127.107 573.609 126.477C577.186 125.825 581.731 128.163 584.941 126.638C588.197 125.09 589.253 120.075 591.982 117.755C594.711 115.435 599.831 115.201 601.882 112.237C603.905 109.315 602.329 104.454 603.549 101.028C604.728 97.717 609.049 94.962 609.349 91.292C609.649 87.622 605.825 84.207 605.195 80.749C604.543 77.172 606.88 72.627 605.355 69.417C603.808 66.162 598.792 65.105 596.473 62.376C594.154 59.647 593.919 54.527 590.955 52.476C588.033 50.454 583.171 52.029 579.746 50.809C576.435 49.63 573.68 45.309 570.01 45.009C566.34 44.709 562.925 48.533 559.467 49.164C555.889 49.816 551.345 47.478 548.135 49.003C544.879 50.55 543.822 55.566 541.094 57.885C538.366 60.204 533.245 60.439 531.194 63.403C529.172 66.325 530.747 71.187 529.528 74.613C528.347 77.924 524.024 80.68 523.726 84.349Z" fill="#0F1011"/>
<path d="M579.829 124.229C577.849 120.879 575.729 114.389 576.709 102.339L560.729 99.389C560.729 99.389 562.529 118.189 554.519 124.229H579.829Z" fill="#E98862"/>
<path opacity="0.15" d="M557.735 120.321L571 110.156L560.576 110.056C560.277 113.625 559.313 117.106 557.735 120.321Z" fill="black"/>
<path d="M585.766 94.168C584.666 100.558 581.185 106.61 575.552 108.679C569.412 111.123 562.767 112.027 556.197 111.312C538.706 109.893 542.13 70.122 550.426 62.391C558.722 54.66 583.097 59.529 586.073 72.446C587.612 79.127 586.814 88.087 585.766 94.168Z" fill="#E98862"/>
<path d="M560.742 89.27C561.542 89.27 562.191 88.6213 562.191 87.821C562.191 87.0207 561.542 86.372 560.742 86.372C559.942 86.372 559.293 87.0207 559.293 87.821C559.293 88.6213 559.942 89.27 560.742 89.27Z" fill="#0F1011"/>
<path d="M549.31 88.343C550.11 88.343 550.759 87.6943 550.759 86.894C550.759 86.0937 550.11 85.445 549.31 85.445C548.51 85.445 547.861 86.0937 547.861 86.894C547.861 87.6943 548.51 88.343 549.31 88.343Z" fill="#0F1011"/>
<path d="M546.8 83.808H546.809L550.647 83.757C550.828 83.7558 551 83.6829 551.127 83.5544C551.254 83.4258 551.325 83.2521 551.324 83.0715C551.322 82.8909 551.249 82.7181 551.121 82.5913C550.992 82.4644 550.819 82.3938 550.638 82.395H550.629L546.791 82.447C546.615 82.4548 546.449 82.5305 546.328 82.6582C546.206 82.7859 546.139 82.9557 546.14 83.1318C546.141 83.308 546.211 83.4768 546.334 83.6029C546.457 83.729 546.624 83.8025 546.8 83.808Z" fill="#0F1011"/>
<path d="M563.867 85.193C564.034 85.1936 564.196 85.1326 564.321 85.0217C564.446 84.9108 564.526 84.7576 564.546 84.5915C564.565 84.4254 564.523 84.2579 564.427 84.1209C564.331 83.984 564.188 83.8872 564.025 83.849L560.239 82.942C560.066 82.907 559.886 82.9405 559.737 83.0355C559.589 83.1306 559.482 83.2796 559.441 83.4514C559.4 83.6231 559.428 83.804 559.518 83.956C559.607 84.108 559.753 84.2191 559.923 84.266L563.708 85.174C563.76 85.1862 563.813 85.1925 563.867 85.193Z" fill="#0F1011"/>
<path d="M560.082 99.233C560.082 99.233 554.734 99.802 550.982 98.495C550.982 98.495 551.014 102.018 555.247 102.361C559.48 102.704 560.082 99.233 560.082 99.233Z" fill="#F8FCFF"/>
<path d="M573.984 77.627C572.934 92.6013 574.582 107.642 578.85 122.034C578.85 122.034 591.043 101.009 592.929 83.503C594.696 67.093 582.596 57.416 574.429 55.596C543.378 48.682 541.143 71.364 541.143 71.364C546.8 83.127 577.349 83.076 577.349 83.076" fill="#0F1011"/>
<path d="M568.064 94.059C567.989 94.8682 568.075 95.6841 568.318 96.4597C568.561 97.2352 568.955 97.9549 569.478 98.5771C570 99.1993 570.641 99.7116 571.363 100.084C572.085 100.457 572.874 100.683 573.684 100.748C574.494 100.814 575.309 100.718 576.082 100.467C576.855 100.215 577.57 99.8131 578.186 99.2833C578.802 98.7535 579.307 98.1067 579.671 97.3804C580.036 96.6541 580.253 95.8627 580.309 95.052C580.388 94.2453 580.304 93.4309 580.062 92.6574C579.82 91.8838 579.425 91.1669 578.9 90.5493C578.375 89.9317 577.731 89.426 577.007 89.0624C576.282 88.6989 575.492 88.4848 574.683 88.433C570.3 88.294 568.338 90.678 568.064 94.059Z" fill="#E98862"/>
<g opacity="0.15">
<path d="M554.317 95.863C554.437 95.8628 554.552 95.8197 554.643 95.7415C554.734 95.6633 554.793 95.5552 554.811 95.4368C554.829 95.3184 554.803 95.1976 554.739 95.0964C554.675 94.9951 554.577 94.9201 554.463 94.885L551.515 93.985L553.573 89.393C553.6 89.333 553.615 89.2684 553.617 89.2027C553.618 89.1371 553.607 89.0717 553.584 89.0103C553.561 88.9489 553.525 88.8928 553.48 88.845C553.435 88.7973 553.381 88.7589 553.321 88.732C553.261 88.7051 553.196 88.6904 553.131 88.6885C553.065 88.6866 553 88.6977 552.938 88.7211C552.877 88.7445 552.821 88.7798 552.773 88.8249C552.725 88.87 552.687 88.924 552.66 88.984L550.371 94.093C550.342 94.1577 550.327 94.2279 550.327 94.2988C550.327 94.3698 550.343 94.4399 550.372 94.5045C550.401 94.5691 550.444 94.6267 550.497 94.6735C550.551 94.7203 550.613 94.7553 550.681 94.776L554.17 95.843C554.218 95.8574 554.267 95.8642 554.317 95.863Z" fill="black"/>
</g>
<path d="M409.1 183.38C409.1 183.38 400.891 179.391 394.726 180.921C388.561 182.451 391.45 185.106 395.936 186.05C400.422 186.994 410.279 188.529 410.279 188.529" fill="#E98862"/>
<path d="M404.305 183.192C404.305 183.192 389.087 181.592 388.928 185.254C388.928 185.254 388.262 196.554 390.328 198.297C393.449 200.933 408.908 198.869 408.908 198.869L404.305 183.192Z" fill="#E98862"/>
<path d="M444.534 201.857H504.013C505.774 201.857 507.507 201.414 509.052 200.569C510.597 199.724 511.905 198.504 512.855 197.021L550.437 138.353L532.753 127.025L498.27 180.857H444.534V201.857Z" fill="#367CFF"/>
<path d="M524.848 237.645C529.037 247.275 611.367 251.275 612.467 234.335C613.167 223.555 603.667 214.145 603.667 193.135C603.667 172.125 622.997 145.295 607.247 129.545C602.676 124.975 594.786 122.025 585.167 122.015C584.446 127.625 550.386 127.645 550.126 122.145C548.826 122.165 547.816 122.185 547.187 122.215C514.006 123.645 528.587 161.405 528.906 189.145C529.3 221.605 520.527 227.725 524.848 237.645Z" fill="#367CFF"/>
<path d="M550.127 122.145C550.387 127.645 553.377 135.735 562.607 136.345C574.907 137.155 584.447 127.625 585.168 122.015H585.137C573.027 122.015 557.188 122.035 550.127 122.145Z" fill="#E98862"/>
<path d="M455.46 246.036C490.361 246.036 518.653 217.744 518.653 182.843C518.653 147.942 490.361 119.65 455.46 119.65C420.559 119.65 392.267 147.942 392.267 182.843C392.267 217.744 420.559 246.036 455.46 246.036Z" fill="#0CBC8B"/>
<path d="M390.333 198.3C390.614 198.523 390.927 198.701 391.263 198.827C393.056 199.198 397.578 198.116 398.303 196.861C399.483 194.821 398.75 187.447 397.709 184.771C396.733 182.271 391.867 183.318 391.227 183.436C391.207 183.444 391.187 183.449 391.166 183.452C389.84 183.816 388.966 184.384 388.929 185.258C388.929 185.258 388.259 196.549 390.333 198.3Z" fill="#E98862"/>
<path d="M522.813 205.118C522.813 205.118 520.4 191.964 511.1 194.253C505.229 195.698 488.167 193.119 487.907 200.659C487.682 207.201 503.707 208.944 509.007 208.399C513.762 207.91 522.813 205.118 522.813 205.118Z" fill="#E98862"/>
<path d="M514.506 194.108C514.506 194.108 500.664 192.066 497.571 193.38C494.833 194.544 501.571 198.18 501.571 198.18L514.506 194.108Z" fill="#E98862"/>
<path d="M510.078 212.422L571.958 210.536C573.89 210.477 575.771 209.906 577.409 208.88C579.048 207.855 580.384 206.413 581.282 204.702L611.832 146.447L592.522 136.32L564.929 188.935L509.414 190.627L510.078 212.422Z" fill="#367CFF"/>
<path d="M472.242 171.256C475.267 171.256 477.72 168.803 477.72 165.778C477.72 162.753 475.267 160.3 472.242 160.3C469.217 160.3 466.764 162.753 466.764 165.778C466.764 168.803 469.217 171.256 472.242 171.256Z" fill="#0F1011"/>
<path d="M438.678 171.256C441.703 171.256 444.156 168.803 444.156 165.778C444.156 162.753 441.703 160.3 438.678 160.3C435.653 160.3 433.2 162.753 433.2 165.778C433.2 168.803 435.653 171.256 438.678 171.256Z" fill="#0F1011"/>
<path d="M425.33 186.174C425.33 190.131 426.109 194.049 427.624 197.704C429.138 201.36 431.357 204.681 434.155 207.479C436.953 210.277 440.274 212.496 443.93 214.011C447.585 215.525 451.503 216.304 455.46 216.304C459.417 216.304 463.335 215.525 466.99 214.011C470.646 212.496 473.967 210.277 476.765 207.479C479.563 204.681 481.782 201.36 483.296 197.704C484.811 194.049 485.59 190.131 485.59 186.174H425.33Z" fill="white"/>
<path d="M378.597 25.59H74.163V152.558H378.597V25.59Z" fill="#C1D8ED"/>
<path d="M143.7 35.849C133.26 35.8492 123.05 38.9197 114.341 44.6784C105.633 50.437 98.8101 58.6295 94.7222 68.2363C90.6343 77.843 89.4618 88.4398 91.3506 98.7079C93.2394 108.976 98.1061 118.462 105.345 125.985C106.365 127.045 107.428 128.062 108.535 129.036C117.913 137.292 131.407 140.2 144.889 140.2C159.952 140.2 172.363 136.034 182.039 125.969C189.277 118.448 194.144 108.965 196.033 98.6989C197.923 88.4331 196.752 77.8383 192.665 68.2332C188.579 58.628 181.758 50.4367 173.052 44.6785C164.346 38.9204 154.138 35.8499 143.7 35.849Z" fill="white"/>
<path d="M356.114 80.663H209.366V89.778H356.114V80.663Z" fill="white"/>
<path d="M356.114 103.806H209.366V112.921H356.114V103.806Z" fill="white"/>
<path d="M356.114 126.949H209.366V136.064H356.114V126.949Z" fill="white"/>
<path d="M167.749 127.955C166.992 127.931 165.758 127.896 164.186 127.873C164.036 132.206 162.519 136.38 159.853 139.799C166.527 137.667 172.713 134.234 178.053 129.699C174.715 128.647 171.247 128.06 167.749 127.955ZM121.757 128.025C121.754 128.022 121.752 128.017 121.752 128.013C121.752 128.008 121.754 128.004 121.757 128.001C121.722 127.907 121.698 127.81 121.687 127.71C117.367 127.691 113.064 128.24 108.887 129.341C115.775 135.304 124.081 139.395 133.007 141.22C126.66 137.552 122.432 132.031 121.757 128.025Z" fill="#367CFF"/>
<path d="M164.186 127.873C164.036 132.206 162.519 136.38 159.853 139.799C159.841 139.799 159.83 139.811 159.818 139.811C159.271 139.986 158.723 140.149 158.176 140.3C157.976 140.358 157.792 140.4 157.605 140.452C157.058 140.603 156.522 140.743 155.975 140.871C155.369 141.011 154.763 141.139 154.158 141.271C153.343 141.434 152.527 141.571 151.7 141.69C151.188 141.772 150.664 141.853 150.14 141.911C150.012 141.923 149.884 141.946 149.74 141.958C149.227 142.016 148.726 142.058 148.202 142.098C147.527 142.168 146.828 142.214 146.141 142.238L145.314 142.272C144.778 142.284 144.231 142.296 143.695 142.296C141.781 142.296 139.868 142.196 137.965 141.996C137.627 141.961 137.278 141.914 136.94 141.868C136.602 141.822 136.265 141.786 135.927 141.728C135.671 141.693 135.403 141.658 135.135 141.612C134.867 141.566 134.587 141.518 134.308 141.472C133.889 141.402 133.469 141.32 133.05 141.239C133.038 141.239 133.015 141.227 133.003 141.227C126.656 137.559 122.428 132.038 121.753 128.032C121.75 128.029 121.748 128.025 121.748 128.02C121.748 128.016 121.75 128.011 121.753 128.008C121.723 127.913 121.704 127.816 121.695 127.717H121.741C136.408 127.71 155.614 127.745 164.186 127.873Z" fill="#E98862"/>
<path d="M165.694 102.238C172.112 102.238 177.314 97.0355 177.314 90.618C177.314 84.2004 172.112 78.998 165.694 78.998C159.276 78.998 154.074 84.2004 154.074 90.618C154.074 97.0355 159.276 102.238 165.694 102.238Z" fill="#DEE8F5"/>
<path d="M167.718 91.973C168.151 91.8889 168.554 91.6879 168.881 91.3918C169.209 91.0958 169.45 90.7158 169.577 90.293C169.877 89.286 173.083 65.606 163.812 51.339C162.332 48.884 160.29 46.8161 157.854 45.3058C155.417 43.7955 152.657 42.8863 149.8 42.653C149.16 42.587 148.521 42.7776 148.022 43.183C147.522 43.5884 147.205 44.1754 147.138 44.815C147 46.147 147.968 46.127 149.3 46.265C155.765 46.934 156.744 49.473 159.778 54.028C167.959 66.309 165.003 88.669 164.936 88.894C164.844 89.1989 164.813 89.5189 164.845 89.8358C164.876 90.1526 164.97 90.4602 165.121 90.7407C165.271 91.0213 165.476 91.2694 165.722 91.4709C165.969 91.6724 166.253 91.8233 166.558 91.915C166.934 92.029 167.332 92.0489 167.718 91.973Z" fill="#C1D8ED"/>
<path d="M162.694 101.964C169.112 101.964 174.314 96.7616 174.314 90.344C174.314 83.9265 169.112 78.724 162.694 78.724C156.276 78.724 151.074 83.9265 151.074 90.344C151.074 96.7616 156.276 101.964 162.694 101.964Z" fill="#C1D8ED"/>
<path d="M125.9 134.6C125.9 134.6 135.275 129.629 133.182 104.1L152.552 100.508C152.552 100.508 150.375 123.397 160.175 130.664L125.9 134.6Z" fill="#E98862"/>
<g opacity="0.15">
<path d="M156.2 125.878L140.108 113.567L152.747 113.436C153.113 117.762 154.284 121.982 156.2 125.878Z" fill="black"/>
</g>
<path d="M122.186 94.2C123.527 101.945 127.754 109.28 134.586 111.782C142.697 114.752 148.704 114.953 158.056 114.953C170.816 114.953 170.395 101.644 170.756 88.233C171.116 74.769 170.045 60.325 165.002 55.633C154.934 46.268 125.388 52.199 121.794 67.863C119.933 75.965 120.91 86.827 122.186 94.2Z" fill="#E98862"/>
<path d="M152.132 88.233C153.102 88.233 153.888 87.4468 153.888 86.477C153.888 85.5072 153.102 84.721 152.132 84.721C151.162 84.721 150.376 85.5072 150.376 86.477C150.376 87.4468 151.162 88.233 152.132 88.233Z" fill="#0F1011"/>
<path d="M165.992 87.096C166.962 87.096 167.748 86.3098 167.748 85.34C167.748 84.3702 166.962 83.584 165.992 83.584C165.022 83.584 164.236 84.3702 164.236 85.34C164.236 86.3098 165.022 87.096 165.992 87.096Z" fill="#0F1011"/>
<path d="M169.036 81.6H169.026L164.372 81.542C164.264 81.5408 164.157 81.5183 164.057 81.4757C163.957 81.433 163.867 81.3712 163.791 81.2936C163.716 81.216 163.656 81.1243 163.616 81.0236C163.575 80.923 163.556 80.8154 163.557 80.707C163.557 80.5982 163.578 80.4905 163.621 80.3903C163.663 80.29 163.725 80.1992 163.802 80.1232C163.88 80.0472 163.973 79.9876 164.074 79.9479C164.175 79.9082 164.283 79.8892 164.392 79.892L169.046 79.95C169.265 79.9513 169.474 80.0395 169.628 80.1952C169.782 80.3508 169.867 80.5612 169.866 80.78C169.865 80.9988 169.776 81.2081 169.621 81.3619C169.465 81.5157 169.255 81.6013 169.036 81.6Z" fill="#0F1011"/>
<path d="M148.341 83.294C148.139 83.2939 147.944 83.2196 147.793 83.0853C147.642 82.951 147.545 82.7659 147.521 82.5652C147.498 82.3644 147.548 82.162 147.664 81.9961C147.779 81.8302 147.951 81.7124 148.148 81.665L152.737 80.565C152.845 80.5308 152.959 80.5191 153.071 80.5308C153.184 80.5424 153.293 80.5771 153.392 80.6327C153.49 80.6884 153.576 80.7637 153.645 80.854C153.713 80.9444 153.762 81.0478 153.788 81.1579C153.815 81.268 153.819 81.3823 153.799 81.4939C153.78 81.6054 153.737 81.7117 153.675 81.8062C153.612 81.9007 153.531 81.9813 153.436 82.043C153.341 82.1047 153.235 82.1463 153.123 82.165L148.534 83.265C148.471 83.2825 148.406 83.2922 148.341 83.294Z" fill="#0F1011"/>
<path d="M136.54 68C137.908 94.149 135.349 106.3 133.926 110.858C133.832 111.158 133.672 111.433 133.456 111.662C133.24 111.891 132.976 112.069 132.682 112.18C132.388 112.292 132.072 112.336 131.759 112.308C131.445 112.28 131.143 112.181 130.873 112.019C126.319 109.313 115.973 100.876 112.473 78.819C109.345 59.054 124.061 50.335 133.784 47.426C142.166 44.919 153.526 45.403 162.566 51.162C173.952 58.416 172.271 73.34 172.271 73.34C158.457 73.977 128.941 75.203 128.941 75.203" fill="#0F1011"/>
<path d="M142.994 90.776C143.145 92.7388 142.512 94.6815 141.234 96.1793C139.957 97.6771 138.138 98.6081 136.176 98.769C134.214 98.9298 132.268 98.3073 130.764 97.0376C129.26 95.7679 128.319 93.9542 128.148 91.993C128.051 91.015 128.152 90.0276 128.445 89.0894C128.737 88.1513 129.216 87.2816 129.852 86.5322C130.487 85.7829 131.268 85.1691 132.145 84.7276C133.023 84.286 133.981 84.0256 134.962 83.962C140.27 83.788 142.658 86.676 142.994 90.776Z" fill="#E98862"/>
<g opacity="0.15">
<path d="M159.931 96.221C159.785 96.2216 159.645 96.1698 159.534 96.075C159.424 95.9802 159.351 95.8489 159.329 95.705C159.308 95.561 159.339 95.4141 159.416 95.2911C159.494 95.1681 159.614 95.0772 159.753 95.035L163.326 93.935L160.826 88.369C160.786 88.2959 160.761 88.2151 160.753 88.1319C160.745 88.0487 160.755 87.9648 160.781 87.8855C160.807 87.8062 160.85 87.7331 160.906 87.671C160.961 87.6088 161.03 87.5589 161.106 87.5243C161.182 87.4897 161.264 87.4712 161.348 87.47C161.431 87.4688 161.514 87.4849 161.591 87.5173C161.668 87.5497 161.738 87.5976 161.795 87.6581C161.853 87.7187 161.897 87.7905 161.926 87.869L164.707 94.061C164.743 94.1393 164.762 94.2245 164.763 94.3107C164.763 94.397 164.745 94.4823 164.709 94.5609C164.674 94.6395 164.622 94.7095 164.556 94.7661C164.491 94.8227 164.415 94.8647 164.332 94.889L160.103 96.189C160.047 96.2078 159.99 96.2186 159.931 96.221Z" fill="black"/>
</g>
<path d="M152.945 100.312C152.945 100.312 159.43 100.996 163.975 99.412C163.975 99.412 163.939 103.683 158.808 104.104C153.677 104.525 152.945 100.312 152.945 100.312Z" fill="white"/>
<path d="M123.438 90.582C123.473 90.575 123.509 90.568 123.544 90.559C124.169 90.4082 124.708 90.0155 125.044 89.4673C125.379 88.919 125.483 88.26 125.333 87.635C125.286 87.435 120.645 67.55 129.642 55.519C133.884 49.844 140.619 46.735 149.672 46.274C150.991 46.211 152.038 46.282 151.972 44.942C151.911 44.3106 151.616 43.7248 151.145 43.2994C150.675 42.874 150.062 42.6395 149.428 42.642C141.093 42.017 130.896 45.735 125.748 52.63C115.391 66.503 120.403 87.868 120.622 88.772C120.769 89.3779 121.143 89.9041 121.667 90.2411C122.192 90.5782 122.826 90.7003 123.438 90.582Z" fill="#C1D8ED"/>
<path d="M126.889 102.664C133.307 102.664 138.509 97.4615 138.509 91.044C138.509 84.6265 133.307 79.424 126.889 79.424C120.471 79.424 115.269 84.6265 115.269 91.044C115.269 97.4615 120.471 102.664 126.889 102.664Z" fill="#C1D8ED"/>
<path d="M123.319 103.013C129.737 103.013 134.939 97.8105 134.939 91.393C134.939 84.9754 129.737 79.773 123.319 79.773C116.901 79.773 111.699 84.9754 111.699 91.393C111.699 97.8105 116.901 103.013 123.319 103.013Z" fill="#DEE8F5"/>
<path d="M124.723 97.526C124.723 97.526 126.223 103.936 126.889 105.026C128.289 107.347 148.155 106.299 148.155 106.299" stroke="#DEE8F5" stroke-width="3.637" stroke-linecap="round" stroke-linejoin="round"/>
<path d="M147.729 109.186H150.192C151.762 109.186 153.035 107.913 153.035 106.343C153.035 104.773 151.762 103.5 150.192 103.5H147.729C146.159 103.5 144.886 104.773 144.886 106.343C144.886 107.913 146.159 109.186 147.729 109.186Z" fill="#C1D8ED"/>
<path d="M207.286 67.375L319.921 67.375V42.803L207.286 42.803V67.375Z" fill="#0CBC8B"/>
<path d="M225.584 62.609L220.697 60.039L215.806 62.609L216.742 57.168L212.786 53.313L218.251 52.521L220.697 47.569L223.137 52.521L228.603 53.313L224.648 57.168L225.584 62.609Z" fill="white"/>
<path d="M247.038 62.609L242.151 60.039L237.26 62.609L238.196 57.168L234.24 53.313L239.705 52.521L242.151 47.569L244.591 52.521L250.058 53.313L246.102 57.168L247.038 62.609Z" fill="white"/>
<path d="M268.492 62.609L263.605 60.039L258.714 62.609L259.65 57.168L255.694 53.313L261.159 52.521L263.605 47.569L266.045 52.521L271.512 53.313L267.556 57.168L268.492 62.609Z" fill="white"/>
<path d="M289.946 62.609L285.059 60.039L280.168 62.609L281.104 57.168L277.148 53.313L282.613 52.521L285.059 47.569L287.499 52.521L292.966 53.313L289.01 57.168L289.946 62.609Z" fill="white"/>
<path d="M311.4 62.609L306.513 60.039L301.622 62.609L302.558 57.168L298.602 53.313L304.067 52.521L306.513 47.569L308.953 52.521L314.42 53.313L310.464 57.168L311.4 62.609Z" fill="white"/>
<path d="M116.769 533.109C96.963 526.971 77.747 518.95 60.238 496.5C56.645 491.9 53.269 486.006 55.238 480.5C56.72 476.356 61.007 473.7 65.363 473.023C66.9855 472.787 68.63 472.742 70.263 472.889C70.271 472.889 70.279 472.889 70.282 472.889C72.7923 473.146 75.2737 473.633 77.695 474.343L78.387 474.543C89.9429 477.828 100.951 482.799 111.056 489.297C111.972 489.881 113.058 490.139 114.138 490.027C115.219 489.915 116.23 489.441 117.007 488.682C117.783 487.923 118.28 486.923 118.416 485.845C118.552 484.768 118.32 483.676 117.756 482.747C116.725 481.063 115.526 479.488 114.176 478.047C112.186 475.965 110.005 474.074 107.662 472.398C104.549 470.126 101.226 468.098 97.975 466.024C85.889 458.327 74.4391 449.674 63.735 440.149C56.095 433.343 48.623 425.79 44.992 416.222C43.323 411.822 42.564 406.748 44.554 402.484C47.838 395.484 57.141 393.522 64.748 394.975C78.078 397.528 88.727 407.299 98.17 417.038C106.001 425.131 114.77 434.092 126.026 434.589C127.944 434.769 129.872 434.382 131.573 433.477C134.782 431.533 135.607 427.029 134.464 423.453C133.321 419.877 130.673 417.02 128.117 414.275C113.267 398.343 98.652 381.769 89.009 362.247C79.366 342.725 75.094 319.676 81.795 298.947C83.76 292.888 86.712 286.992 91.317 282.59C95.922 278.188 102.38 275.427 108.702 276.27C117.315 277.404 123.802 284.67 128.166 292.178C143.166 317.932 142.249 349.486 146.474 378.987C147.657 387.245 149.374 395.716 154.294 402.514C154.748 403.168 155.336 403.716 156.02 404.123C160.068 406.467 163.701 401.741 165.22 397.73C171.22 381.861 172.72 363.713 183.463 350.579C187.563 345.579 193.363 341.4 199.827 341.441C207.727 341.495 214.482 348.09 216.786 355.641C219.09 363.192 217.711 371.397 215.243 378.896C210.661 392.802 202.449 405.296 192.772 416.275C187.672 422.075 181.901 427.931 180.372 435.494C179.903 438.065 180.1 440.713 180.942 443.186C181.784 445.66 183.245 447.877 185.185 449.628C186.092 450.417 187.148 451.017 188.291 451.39C189.434 451.764 190.641 451.904 191.839 451.803C194.431 451.566 196.775 450.244 199.039 448.959C199.988 448.419 200.939 447.871 201.896 447.334C205.669 445.186 209.443 443.035 213.218 440.881C222.813 435.407 234.399 429.814 244.393 434.528C249.498 436.938 252.835 441.677 254.406 447.114C255.813 452.049 255.813 457.279 254.406 462.214C251.429 472.477 232.665 501.036 224.926 508.401C215.882 517 184.537 554.112 116.769 533.109Z" fill="#8DDBE0"/>
</g>
<defs>
<clipPath id="clip0_1_2704">
<rect width="708.076" height="540.551" fill="white"/>
</clipPath>
</defs>
</svg>
