<svg width="789" height="776" viewBox="0 0 789 776" fill="none" xmlns="http://www.w3.org/2000/svg">
<g clip-path="url(#clip0_1_1737)">
<path d="M316.628 614.4H306.375C305.56 614.401 304.765 614.149 304.099 613.678C303.434 613.207 302.932 612.541 302.662 611.772C301.877 609.519 300.948 607.318 299.882 605.183C299.514 604.444 299.388 603.608 299.522 602.794C299.656 601.98 300.044 601.229 300.629 600.647L307.917 593.36C308.657 592.619 309.073 591.614 309.073 590.567C309.073 589.519 308.657 588.514 307.917 587.773L292.173 572.04C291.432 571.299 290.427 570.883 289.379 570.883C288.332 570.883 287.327 571.299 286.586 572.04L279.168 579.459C278.59 580.038 277.846 580.423 277.04 580.559C276.233 580.696 275.404 580.577 274.668 580.219C272.574 579.196 270.417 578.307 268.21 577.557C267.432 577.292 266.758 576.79 266.28 576.122C265.803 575.454 265.547 574.652 265.548 573.831V563.321C265.548 562.802 265.446 562.289 265.248 561.81C265.049 561.331 264.759 560.896 264.392 560.529C264.025 560.162 263.59 559.872 263.111 559.673C262.632 559.475 262.119 559.373 261.6 559.373H239.342C238.823 559.373 238.31 559.475 237.831 559.673C237.352 559.872 236.917 560.162 236.55 560.529C236.183 560.896 235.893 561.331 235.694 561.81C235.496 562.289 235.394 562.802 235.394 563.321V573.831C235.396 574.652 235.14 575.453 234.663 576.122C234.185 576.79 233.51 577.292 232.733 577.557C230.526 578.307 228.369 579.196 226.275 580.219C225.539 580.577 224.71 580.696 223.903 580.56C223.097 580.423 222.352 580.039 221.775 579.459L214.356 572.04C213.615 571.299 212.61 570.883 211.562 570.883C210.515 570.883 209.51 571.299 208.769 572.04L193.026 587.776C192.285 588.517 191.869 589.522 191.869 590.57C191.869 591.617 192.285 592.622 193.026 593.363L200.313 600.65C200.899 601.232 201.286 601.983 201.42 602.797C201.554 603.612 201.428 604.447 201.06 605.186C199.993 607.32 199.067 609.521 198.287 611.775C198.015 612.544 197.511 613.21 196.845 613.68C196.179 614.151 195.384 614.403 194.568 614.403H184.313C183.795 614.403 183.281 614.505 182.802 614.703C182.323 614.902 181.888 615.192 181.521 615.559C181.154 615.926 180.864 616.361 180.665 616.84C180.467 617.319 180.365 617.833 180.365 618.351V640.614C180.365 641.133 180.467 641.646 180.665 642.125C180.864 642.604 181.154 643.039 181.521 643.406C181.888 643.773 182.323 644.063 182.802 644.262C183.281 644.46 183.795 644.562 184.313 644.562H194.3C195.131 644.561 195.94 644.823 196.613 645.309C197.286 645.796 197.788 646.483 198.047 647.272C198.818 649.586 199.739 651.847 200.806 654.041C201.168 654.78 201.291 655.613 201.157 656.425C201.023 657.237 200.639 657.987 200.059 658.57L193.028 665.602C192.661 665.968 192.37 666.403 192.172 666.882C191.973 667.36 191.871 667.873 191.871 668.391C191.871 668.91 191.973 669.423 192.172 669.901C192.37 670.38 192.661 670.815 193.028 671.181L208.771 686.925C209.512 687.666 210.517 688.082 211.564 688.082C212.612 688.082 213.617 687.666 214.358 686.925L221.251 680.031C221.838 679.445 222.595 679.06 223.414 678.928C224.233 678.797 225.073 678.927 225.814 679.299C228.044 680.413 230.347 681.374 232.708 682.175C233.491 682.44 234.171 682.943 234.653 683.613C235.135 684.284 235.395 685.089 235.397 685.915V695.637C235.396 696.156 235.498 696.67 235.696 697.15C235.894 697.629 236.185 698.065 236.552 698.432C236.918 698.799 237.354 699.091 237.833 699.29C238.312 699.488 238.826 699.591 239.345 699.591H261.6C262.119 699.591 262.633 699.489 263.112 699.29C263.592 699.091 264.027 698.8 264.394 698.433C264.76 698.065 265.051 697.629 265.249 697.15C265.447 696.67 265.549 696.156 265.548 695.637V685.915C265.55 685.089 265.81 684.284 266.292 683.613C266.774 682.943 267.454 682.44 268.237 682.175C270.598 681.374 272.901 680.413 275.131 679.299C275.872 678.927 276.712 678.797 277.531 678.928C278.35 679.06 279.107 679.445 279.694 680.031L286.587 686.925C287.328 687.666 288.333 688.082 289.38 688.082C290.428 688.082 291.433 687.666 292.174 686.925L307.918 671.181C308.284 670.815 308.575 670.38 308.773 669.901C308.972 669.423 309.074 668.91 309.074 668.391C309.074 667.873 308.972 667.36 308.773 666.882C308.575 666.403 308.284 665.968 307.918 665.602L300.886 658.57C300.306 657.987 299.922 657.237 299.788 656.425C299.654 655.613 299.777 654.78 300.139 654.041C301.206 651.848 302.128 649.586 302.898 647.272C303.157 646.483 303.659 645.796 304.332 645.309C305.005 644.823 305.815 644.561 306.645 644.562H316.629C317.147 644.562 317.661 644.46 318.14 644.262C318.619 644.063 319.054 643.773 319.421 643.406C319.788 643.039 320.078 642.604 320.277 642.125C320.475 641.646 320.577 641.133 320.577 640.614V618.351C320.578 617.832 320.476 617.318 320.277 616.839C320.079 616.359 319.788 615.924 319.422 615.557C319.055 615.19 318.619 614.899 318.14 614.7C317.661 614.502 317.147 614.4 316.628 614.4ZM250.474 662.38C243.967 662.38 237.606 660.45 232.196 656.835C226.785 653.22 222.568 648.082 220.078 642.07C217.588 636.059 216.937 629.443 218.206 623.062C219.476 616.68 222.609 610.817 227.21 606.216C231.811 601.615 237.674 598.482 244.056 597.212C250.438 595.943 257.053 596.594 263.064 599.084C269.076 601.574 274.214 605.791 277.829 611.202C281.444 616.612 283.374 622.973 283.374 629.48C283.374 638.206 279.908 646.574 273.738 652.744C267.568 658.914 259.2 662.38 250.474 662.38Z" fill="#F4F4F4"/>
<path d="M188.568 481.774H174.609C173.499 481.776 172.417 481.432 171.511 480.791C170.606 480.151 169.922 479.244 169.554 478.197C168.485 475.129 167.221 472.133 165.77 469.226C165.269 468.221 165.097 467.083 165.279 465.974C165.462 464.866 165.989 463.843 166.786 463.051L176.708 453.13C177.716 452.121 178.282 450.753 178.282 449.327C178.282 447.901 177.716 446.533 176.708 445.524L155.274 424.1C154.265 423.092 152.897 422.526 151.471 422.526C150.045 422.526 148.677 423.092 147.668 424.1L137.568 434.2C136.782 434.99 135.768 435.514 134.67 435.699C133.571 435.885 132.442 435.722 131.44 435.235C128.589 433.843 125.653 432.632 122.649 431.611C121.59 431.25 120.672 430.567 120.022 429.657C119.371 428.747 119.023 427.656 119.025 426.538V412.23C119.025 411.524 118.886 410.825 118.616 410.173C118.346 409.521 117.95 408.928 117.451 408.429C116.952 407.93 116.359 407.534 115.707 407.264C115.055 406.994 114.356 406.855 113.65 406.855H83.35C82.6441 406.855 81.9451 406.994 81.2929 407.264C80.6407 407.534 80.0482 407.93 79.549 408.429C79.0499 408.928 78.654 409.521 78.3839 410.173C78.1138 410.825 77.9749 411.524 77.975 412.23V426.538C77.977 427.656 77.6285 428.747 76.9785 429.657C76.3284 430.567 75.4095 431.25 74.351 431.611C71.3468 432.632 68.4103 433.843 65.559 435.235C64.5569 435.723 63.4275 435.885 62.3287 435.7C61.2298 435.514 60.2163 434.99 59.43 434.2L49.33 424.1C48.321 423.092 46.9532 422.526 45.527 422.526C44.1008 422.526 42.733 423.092 41.724 424.1L20.291 445.524C19.2831 446.533 18.7169 447.901 18.7169 449.327C18.7169 450.753 19.2831 452.121 20.291 453.13L30.212 463.051C31.0092 463.843 31.5366 464.865 31.7192 465.974C31.9018 467.083 31.7302 468.221 31.229 469.226C29.7769 472.131 28.5159 475.128 27.454 478.197C27.0834 479.244 26.3974 480.15 25.4905 480.79C24.5836 481.431 23.5003 481.775 22.39 481.774H8.431C7.72512 481.774 7.02608 481.912 6.37384 482.182C5.7216 482.452 5.12896 482.848 4.62978 483.347C4.1306 483.846 3.73467 484.439 3.46463 485.091C3.19459 485.743 3.05574 486.442 3.056 487.148V517.458C3.05561 518.164 3.19436 518.863 3.46434 519.515C3.73432 520.168 4.13023 520.76 4.62942 521.26C5.12861 521.759 5.72131 522.155 6.37361 522.425C7.02591 522.695 7.72503 522.833 8.431 522.833H22.023C23.1534 522.832 24.2551 523.189 25.1709 523.852C26.0868 524.514 26.7699 525.449 27.123 526.523C28.1715 529.674 29.4262 532.753 30.879 535.739C31.3717 536.745 31.5386 537.879 31.3563 538.984C31.174 540.089 30.6517 541.11 29.862 541.904L20.289 551.477C19.7895 551.976 19.3932 552.568 19.1229 553.22C18.8525 553.872 18.7133 554.571 18.7133 555.277C18.7133 555.983 18.8525 556.682 19.1229 557.334C19.3932 557.986 19.7895 558.578 20.289 559.077L41.722 580.51C42.731 581.518 44.0988 582.084 45.525 582.084C46.9512 582.084 48.319 581.518 49.328 580.51L58.713 571.125C59.5126 570.327 60.5429 569.801 61.658 569.622C62.7732 569.442 63.9165 569.618 64.926 570.125C67.9617 571.642 71.0973 572.95 74.311 574.04C75.3764 574.401 76.3023 575.086 76.9588 575.999C77.6153 576.912 77.9696 578.008 77.972 579.133V592.368C77.9709 593.075 78.1092 593.774 78.3788 594.428C78.6485 595.081 79.0442 595.674 79.5434 596.174C80.0426 596.674 80.6355 597.071 81.2882 597.342C81.9408 597.612 82.6404 597.752 83.347 597.752H113.647C114.354 597.752 115.053 597.612 115.706 597.342C116.359 597.071 116.951 596.674 117.451 596.174C117.95 595.674 118.346 595.081 118.615 594.428C118.885 593.774 119.023 593.075 119.022 592.368V579.133C119.024 578.008 119.378 576.912 120.035 575.999C120.691 575.085 121.617 574.4 122.683 574.04C125.897 572.95 129.032 571.642 132.068 570.125C133.077 569.618 134.221 569.442 135.336 569.622C136.451 569.801 137.481 570.327 138.281 571.125L147.665 580.51C148.674 581.518 150.042 582.084 151.468 582.084C152.894 582.084 154.262 581.518 155.271 580.51L176.705 559.077C177.205 558.578 177.601 557.986 177.871 557.334C178.142 556.682 178.281 555.983 178.281 555.277C178.281 554.571 178.142 553.872 177.871 553.22C177.601 552.568 177.205 551.976 176.705 551.477L167.132 541.904C166.342 541.11 165.82 540.089 165.638 538.984C165.455 537.879 165.622 536.745 166.115 535.739C167.567 532.753 168.822 529.674 169.871 526.523C170.224 525.449 170.907 524.514 171.823 523.852C172.739 523.189 173.841 522.832 174.971 522.833H188.563C189.269 522.833 189.968 522.695 190.62 522.425C191.273 522.155 191.865 521.759 192.365 521.26C192.864 520.76 193.26 520.168 193.53 519.515C193.8 518.863 193.938 518.164 193.938 517.458V487.148C193.938 486.443 193.8 485.744 193.53 485.092C193.26 484.44 192.865 483.848 192.366 483.349C191.867 482.85 191.275 482.454 190.624 482.184C189.972 481.913 189.273 481.774 188.568 481.774ZM98.5 547.091C89.6409 547.091 80.9807 544.464 73.6145 539.543C66.2484 534.621 60.5071 527.625 57.1168 519.441C53.7265 511.256 52.8393 502.25 54.5676 493.561C56.2959 484.872 60.5619 476.891 66.8263 470.626C73.0906 464.362 81.0719 460.096 89.7608 458.368C98.4496 456.639 107.456 457.526 115.641 460.917C123.825 464.307 130.821 470.048 135.743 477.415C140.664 484.781 143.291 493.441 143.291 502.3C143.29 514.179 138.571 525.572 130.171 533.971C121.772 542.371 110.379 547.09 98.5 547.091Z" fill="#F4F4F4"/>
<path d="M109.103 572.945L107.377 573.134L128.695 767.948L130.422 767.759L109.103 572.945Z" fill="#292A2E"/>
<path d="M164.318 657.995L153.83 761.75L155.558 761.924L166.046 658.17L164.318 657.995Z" fill="#292A2E"/>
<path d="M182.353 749.207H104.533V774.462H182.353V749.207Z" fill="#292A2E"/>
<path opacity="0.2" d="M182.353 749.207H104.533V774.462H182.353V749.207Z" fill="white"/>
<path d="M229.268 702.706C244.01 683.113 236.982 652.95 213.571 635.335C190.16 617.721 159.231 619.325 144.489 638.918C129.747 658.511 136.775 688.674 160.186 706.288C183.597 723.903 214.526 722.299 229.268 702.706Z" fill="#0CBC8B"/>
<path opacity="0.2" d="M229.268 702.706C244.01 683.113 236.982 652.95 213.571 635.335C190.16 617.721 159.231 619.325 144.489 638.918C129.747 658.511 136.775 688.674 160.186 706.288C183.597 723.903 214.526 722.299 229.268 702.706Z" fill="white"/>
<path opacity="0.5" d="M229.264 702.709C228.274 704.031 227.194 705.282 226.031 706.455C209.803 716.822 185.85 715.19 166.848 700.89C143.439 683.279 136.413 653.117 151.157 633.524C152.148 632.205 153.225 630.954 154.382 629.778C170.618 619.402 194.563 621.042 213.573 635.335C236.981 652.953 244.007 683.116 229.264 702.709Z" fill="white"/>
<path d="M120.662 628.37C143.853 610.468 150.157 579.765 134.74 559.793C119.324 539.822 88.0261 538.144 64.8342 556.046C41.6423 573.948 35.3389 604.651 50.7552 624.623C66.1715 644.594 97.4697 646.272 120.662 628.37Z" fill="#0CBC8B"/>
<path opacity="0.2" d="M113.316 623.234C95.355 637.107 72.529 639.221 55.983 630.19C54.0683 628.503 52.3193 626.637 50.76 624.617C35.341 604.651 41.644 573.945 64.835 556.046C82.796 542.181 105.622 540.059 122.16 549.083C124.079 550.77 125.831 552.639 127.39 554.663C142.81 574.629 136.507 605.335 113.316 623.234Z" fill="white"/>
<path d="M734.914 444.019H473.926C467.717 444.019 462.683 449.053 462.683 455.262V584.763C462.683 590.972 467.717 596.006 473.926 596.006H734.914C741.123 596.006 746.157 590.972 746.157 584.763V455.262C746.157 449.053 741.123 444.019 734.914 444.019Z" fill="#F4F4F4"/>
<path d="M635.268 530.323H617.175C616.073 530.323 615.18 531.216 615.18 532.318V572.422C615.18 573.524 616.073 574.417 617.175 574.417H635.268C636.37 574.417 637.263 573.524 637.263 572.422V532.318C637.263 531.216 636.37 530.323 635.268 530.323Z" fill="white"/>
<path d="M678.872 488.233H660.779C659.677 488.233 658.784 489.126 658.784 490.228V572.422C658.784 573.524 659.677 574.417 660.779 574.417H678.872C679.974 574.417 680.867 573.524 680.867 572.422V490.228C680.867 489.126 679.974 488.233 678.872 488.233Z" fill="white"/>
<path d="M722.476 520.439H704.383C703.281 520.439 702.388 521.332 702.388 522.434V572.422C702.388 573.524 703.281 574.417 704.383 574.417H722.476C723.578 574.417 724.471 573.524 724.471 572.422V522.434C724.471 521.332 723.578 520.439 722.476 520.439Z" fill="white"/>
<path d="M504.457 530.323H486.364C485.262 530.323 484.369 531.216 484.369 532.318V572.422C484.369 573.524 485.262 574.417 486.364 574.417H504.457C505.559 574.417 506.452 573.524 506.452 572.422V532.318C506.452 531.216 505.559 530.323 504.457 530.323Z" fill="white"/>
<path d="M548.061 488.233H529.968C528.866 488.233 527.973 489.126 527.973 490.228V572.422C527.973 573.524 528.866 574.417 529.968 574.417H548.061C549.163 574.417 550.056 573.524 550.056 572.422V490.228C550.056 489.126 549.163 488.233 548.061 488.233Z" fill="white"/>
<path d="M591.665 520.439H573.572C572.47 520.439 571.577 521.332 571.577 522.434V572.422C571.577 573.524 572.47 574.417 573.572 574.417H591.665C592.767 574.417 593.66 573.524 593.66 572.422V522.434C593.66 521.332 592.767 520.439 591.665 520.439Z" fill="white"/>
<path d="M625.276 53.55C625.276 53.55 614.927 44.592 613.5 25.471C612.391 10.671 625.281 21.071 625.281 21.071C625.281 21.071 624.587 10.403 632.217 11.971C639.847 13.539 643.417 24.933 643.417 24.933" fill="#0C0C0C"/>
<path d="M671.949 15.877C671.949 15.877 709.898 22.536 692.609 73.406H682.315" fill="#0C0C0C"/>
<path d="M697.023 729.808C697.023 729.808 692.508 753.208 670.595 754.517C648.682 755.826 653.433 773.278 653.433 773.278H737.172V731.441L697.023 729.808Z" fill="#5F22D9"/>
<path d="M742.852 302.878C742.852 302.878 742.589 295.843 742.644 311.802C742.852 371.331 740.868 744.745 740.868 744.745L685.843 744.283L652.51 300.459L742.852 302.878Z" fill="#262626"/>
<path d="M603.061 729.808C603.061 729.808 598.546 753.208 576.633 754.517C554.72 755.826 559.472 773.278 559.472 773.278H643.211V731.441L603.061 729.808Z" fill="#5F22D9"/>
<path d="M592.418 307.5C592.418 307.5 585.544 510.956 586.259 520.9L592.722 743.2L646.839 744.2L655.565 512.856C655.565 512.856 661.285 449.041 676.704 389.783C684.593 359.37 689.34 328.227 690.872 296.845L592.418 307.5Z" fill="#262626"/>
<path d="M663.811 451.751L659.3 382.742C659.3 382.742 654.665 411.431 654.665 436.159C654.665 448.246 657.154 496.101 657.154 496.101L663.811 451.751Z" fill="#0A0A0A"/>
<path d="M629.209 126.292C629.378 126.27 631.247 157.283 667.275 154.579C692.217 152.711 701.111 126.248 701.682 126.248C698.993 125.677 695.67 124.809 694.349 124.512C691.47 123.844 688.864 122.315 686.875 120.129C684.886 117.943 683.611 115.204 683.217 112.275C682.488 107.875 683.725 85.389 683.344 80.941L645.058 89.487C645.593 98.88 649.337 120.657 636.214 124.511C634.03 125.149 631.678 125.735 629.209 126.292Z" fill="#E98862"/>
<path opacity="0.52" d="M644.521 115.612C645.121 113.679 645.507 111.686 645.673 109.669C646.094 105.067 646.01 100.433 645.423 95.849C653.205 94.7985 660.536 91.5865 666.583 86.578C667.294 89.204 671.204 100.678 670.121 103.171C668.075 107.888 658.459 115.612 644.521 115.612Z" fill="#0C0C0C"/>
<path d="M651.317 108.119C666.478 107.777 685.154 99.463 686.785 79.024L688.257 60.581C689.888 40.141 680.474 22.715 661.229 21.181C641.984 19.645 626.277 35.067 624.646 55.507L623.994 63.672C623.819 66.4792 623.836 69.2951 624.044 72.1C624.544 79.518 625.322 90.8 629.805 98.693C634.038 106.145 641.631 108.337 651.317 108.119Z" fill="#E98862"/>
<path opacity="0.52" d="M645.577 88.951C642.458 88.8834 639.398 88.0835 636.644 86.616C636.529 86.5574 636.442 86.4555 636.402 86.3326C636.362 86.2098 636.372 86.0761 636.431 85.961C636.49 85.8459 636.592 85.7588 636.714 85.7188C636.837 85.6789 636.971 85.6894 637.086 85.748C643.028 88.766 648.608 88.756 653.222 85.72C653.315 85.6552 653.411 85.5958 653.511 85.542C653.627 85.4854 653.761 85.4772 653.883 85.5193C654.005 85.5614 654.106 85.6503 654.162 85.7665C654.219 85.8827 654.227 86.0166 654.185 86.1388C654.143 86.2609 654.054 86.3614 653.938 86.418C653.901 86.438 653.838 86.479 653.758 86.534C651.332 88.1357 648.484 88.9772 645.577 88.951Z" fill="#0C0C0C"/>
<path opacity="0.52" d="M645.414 93.569C644.85 93.5661 644.287 93.5149 643.731 93.416C643.668 93.405 643.608 93.3816 643.554 93.3473C643.5 93.313 643.453 93.2684 643.416 93.216C643.379 93.1636 643.353 93.1045 643.339 93.0421C643.325 92.9796 643.324 92.915 643.335 92.852C643.346 92.789 643.369 92.7287 643.404 92.6747C643.438 92.6207 643.483 92.574 643.535 92.5372C643.587 92.5004 643.646 92.4743 643.709 92.4604C643.771 92.4465 643.836 92.445 643.899 92.456C647.241 93.04 648.951 91.605 649.023 91.543C649.12 91.4579 649.247 91.4148 649.376 91.4234C649.505 91.4319 649.625 91.4913 649.71 91.5885C649.796 91.6857 649.839 91.8127 649.83 91.9417C649.822 92.0706 649.762 92.1909 649.665 92.276C648.44 93.1854 646.938 93.6423 645.414 93.569Z" fill="#0C0C0C"/>
<path d="M630.355 68.042C631.668 68.042 632.733 66.9773 632.733 65.664C632.733 64.3507 631.668 63.286 630.355 63.286C629.042 63.286 627.977 64.3507 627.977 65.664C627.977 66.9773 629.042 68.042 630.355 68.042Z" fill="#0C0C0C"/>
<path d="M654.392 68.192C655.705 68.192 656.77 67.1273 656.77 65.814C656.77 64.5007 655.705 63.436 654.392 63.436C653.079 63.436 652.014 64.5007 652.014 65.814C652.014 67.1273 653.079 68.192 654.392 68.192Z" fill="#0C0C0C"/>
<path d="M685.093 85.155C690.941 85.622 696.182 79.744 696.648 73.895C697.114 68.046 692.631 64.443 686.783 63.976L683.456 67.655L680.064 84.755L685.093 85.155Z" fill="#E98862"/>
<path d="M584.446 194.569C585.581 207.901 591.101 291.079 592.192 307.501H742.564C743.414 292.69 747.228 227.925 750.449 198.962C753.524 171.324 759.557 157.487 755.135 149.316C747.909 135.962 728.163 128.245 714.699 126.422C706.478 125.31 694.112 124.512 694.112 124.512C694.112 124.512 693.065 145.692 668.099 146.871C634.114 148.471 636.383 124.512 636.215 124.512C630.709 124.512 599.257 127.997 591.562 132.558C570.594 144.975 582.037 166.316 584.446 194.569Z" fill="#5F22D9"/>
<path d="M679.9 75.359C679.9 75.359 679.863 46.28 671.205 43.904C665.439 42.322 650.705 49.664 637.744 46.28C632.072 44.799 626.523 45.856 625.787 48.532C625.495 49.592 622.951 33.912 632.732 22.797C640.52 13.948 664.132 12.884 674.594 16.658C703.554 27.107 687.904 65.332 687.904 65.332L685.919 75.224L679.9 75.359Z" fill="#0C0C0C"/>
<g opacity="0.52">
<path d="M642.5 81.883H642.462C640.578 81.738 637.432 81.283 637.539 79.873C637.63 78.705 641.801 66.339 642.277 64.933C642.318 64.8121 642.405 64.7123 642.519 64.6557C642.634 64.599 642.766 64.5902 642.887 64.631C643.008 64.6718 643.108 64.7591 643.164 64.8735C643.221 64.9879 643.23 65.1201 643.189 65.241C641.337 70.718 638.561 79.153 638.499 79.947C638.659 80.295 640.584 80.772 642.536 80.923C642.659 80.9341 642.773 80.9919 642.855 81.0846C642.936 81.1773 642.979 81.2977 642.974 81.4211C642.97 81.5445 642.918 81.6614 642.83 81.7477C642.741 81.834 642.623 81.8831 642.5 81.885V81.883Z" fill="#0C0C0C"/>
</g>
<path d="M637.037 55.364C635.516 54.7353 633.856 54.5193 632.225 54.738C631.395 54.8423 630.586 55.0719 629.825 55.419C629.047 55.769 628.315 56.2151 627.648 56.747L627.595 56.787C627.423 56.9203 627.206 56.981 626.99 56.956C626.774 56.9311 626.576 56.8226 626.439 56.6536C626.302 56.4847 626.237 56.2689 626.257 56.0523C626.277 55.8357 626.381 55.6357 626.547 55.495C627.286 54.8078 628.109 54.2168 628.996 53.736C629.896 53.2442 630.864 52.8899 631.869 52.685C632.875 52.4694 633.907 52.3927 634.934 52.457C635.991 52.5123 637.035 52.7184 638.034 53.069C638.345 53.1811 638.598 53.4115 638.74 53.7099C638.882 54.0083 638.9 54.3506 638.79 54.6622C638.68 54.9737 638.452 55.2294 638.155 55.3734C637.858 55.5174 637.515 55.5381 637.203 55.431C637.173 55.42 637.143 55.409 637.115 55.396L637.037 55.364Z" fill="#0C0C0C"/>
<path d="M651 53.268C652.983 52.5855 655.113 52.4531 657.165 52.885C658.17 53.0897 659.138 53.444 660.038 53.936C660.925 54.4168 661.748 55.0082 662.487 55.696C662.65 55.8372 662.753 56.0365 662.772 56.2516C662.791 56.4667 662.726 56.6808 662.59 56.8487C662.454 57.0167 662.258 57.1252 662.044 57.1513C661.829 57.1775 661.613 57.1193 661.441 56.989L661.386 56.947C660.719 56.4148 659.987 55.9686 659.209 55.619C658.448 55.2715 657.639 55.0415 656.809 54.937C655.178 54.7183 653.518 54.9343 651.997 55.563L651.927 55.594C651.623 55.7302 651.277 55.74 650.966 55.6211C650.654 55.5023 650.403 55.2647 650.267 54.9605C650.13 54.6563 650.121 54.3104 650.239 53.999C650.358 53.6876 650.596 53.4362 650.9 53.3C650.933 53.291 650.966 53.278 651 53.268Z" fill="#0C0C0C"/>
<path d="M653.029 24.2909C654.789 18.0029 652.753 11.9362 648.481 10.7407C644.209 9.54518 639.319 13.6735 637.56 19.9615C635.8 26.2496 637.836 32.3162 642.108 33.5118C646.38 34.7073 651.269 30.579 653.029 24.2909Z" fill="#0C0C0C"/>
<path d="M244.335 49.389H12.273C5.49481 49.389 0 54.8838 0 61.662V174.699C0 181.477 5.49481 186.972 12.273 186.972H244.335C251.113 186.972 256.608 181.477 256.608 174.699V61.662C256.608 54.8838 251.113 49.389 244.335 49.389Z" fill="#F4F4F4"/>
<path d="M156.229 127.513H139.849C138.852 127.513 138.044 128.321 138.044 129.318V165.623C138.044 166.62 138.852 167.428 139.849 167.428H156.229C157.226 167.428 158.034 166.62 158.034 165.623V129.318C158.034 128.321 157.226 127.513 156.229 127.513Z" fill="white"/>
<path d="M195.701 89.412H179.321C178.324 89.412 177.516 90.2201 177.516 91.217V165.623C177.516 166.62 178.324 167.428 179.321 167.428H195.701C196.698 167.428 197.506 166.62 197.506 165.623V91.217C197.506 90.2201 196.698 89.412 195.701 89.412Z" fill="white"/>
<path d="M235.172 118.566H218.792C217.795 118.566 216.987 119.374 216.987 120.371V165.623C216.987 166.62 217.795 167.428 218.792 167.428H235.172C236.169 167.428 236.977 166.62 236.977 165.623V120.371C236.977 119.374 236.169 118.566 235.172 118.566Z" fill="white"/>
<path d="M37.816 127.513H21.436C20.4391 127.513 19.631 128.321 19.631 129.318V165.623C19.631 166.62 20.4391 167.428 21.436 167.428H37.816C38.8129 167.428 39.621 166.62 39.621 165.623V129.318C39.621 128.321 38.8129 127.513 37.816 127.513Z" fill="white"/>
<path d="M77.287 89.412H60.907C59.9101 89.412 59.102 90.2201 59.102 91.217V165.623C59.102 166.62 59.9101 167.428 60.907 167.428H77.287C78.2839 167.428 79.092 166.62 79.092 165.623V91.217C79.092 90.2201 78.2839 89.412 77.287 89.412Z" fill="white"/>
<path d="M116.758 118.566H100.378C99.3811 118.566 98.573 119.374 98.573 120.371V165.623C98.573 166.62 99.3811 167.428 100.378 167.428H116.758C117.755 167.428 118.563 166.62 118.563 165.623V120.371C118.563 119.374 117.755 118.566 116.758 118.566Z" fill="white"/>
<path d="M552.056 1H131.406C122.426 1 115.146 8.27985 115.146 17.26V512.531C115.146 521.511 122.426 528.791 131.406 528.791H552.056C561.036 528.791 568.316 521.511 568.316 512.531V17.26C568.316 8.27985 561.036 1 552.056 1Z" fill="white"/>
<path d="M552.056 529.791H131.406C126.83 529.786 122.443 527.966 119.207 524.73C115.971 521.494 114.151 517.107 114.146 512.531V17.26C114.151 12.684 115.971 8.29691 119.207 5.06118C122.443 1.82545 126.83 0.00529325 131.406 0L552.056 0C556.632 0.00529325 561.019 1.82545 564.255 5.06118C567.491 8.29691 569.311 12.684 569.316 17.26V512.531C569.311 517.107 567.491 521.494 564.255 524.73C561.019 527.966 556.632 529.786 552.056 529.791ZM131.406 2C127.36 2.00476 123.482 3.61404 120.621 6.47481C117.76 9.33559 116.151 13.2143 116.146 17.26V512.531C116.151 516.577 117.76 520.455 120.621 523.316C123.482 526.177 127.36 527.786 131.406 527.791H552.056C556.102 527.786 559.98 526.177 562.841 523.316C565.702 520.455 567.311 516.577 567.316 512.531V17.26C567.311 13.2143 565.702 9.33559 562.841 6.47481C559.98 3.61404 556.102 2.00476 552.056 2H131.406Z" fill="#292A2E"/>
<path d="M389.358 80.852C394.741 80.852 399.105 76.4881 399.105 71.105C399.105 65.7219 394.741 61.358 389.358 61.358C383.975 61.358 379.611 65.7219 379.611 71.105C379.611 76.4881 383.975 80.852 389.358 80.852Z" fill="#5F22D9"/>
<path d="M389.358 80.852C394.741 80.852 399.105 76.4881 399.105 71.105C399.105 65.7219 394.741 61.358 389.358 61.358C383.975 61.358 379.611 65.7219 379.611 71.105C379.611 76.4881 383.975 80.852 389.358 80.852Z" fill="#5F22D9"/>
<path d="M389.358 130.536C394.741 130.536 399.105 126.172 399.105 120.789C399.105 115.406 394.741 111.042 389.358 111.042C383.975 111.042 379.611 115.406 379.611 120.789C379.611 126.172 383.975 130.536 389.358 130.536Z" fill="#292A2E"/>
<path opacity="0.5" d="M389.358 180.22C394.741 180.22 399.105 175.856 399.105 170.473C399.105 165.09 394.741 160.726 389.358 160.726C383.975 160.726 379.611 165.09 379.611 170.473C379.611 175.856 383.975 180.22 389.358 180.22Z" fill="#5F22D9"/>
<path opacity="0.2" d="M389.358 229.904C394.741 229.904 399.105 225.54 399.105 220.157C399.105 214.774 394.741 210.41 389.358 210.41C383.975 210.41 379.611 214.774 379.611 220.157C379.611 225.54 383.975 229.904 389.358 229.904Z" fill="#5F22D9"/>
<path d="M195.883 145.631C195.886 157.512 199.573 169.099 206.435 178.797C213.297 188.496 222.998 195.828 234.2 199.784L218.444 238.2C196.775 230.034 178.659 214.524 167.25 194.372C155.842 174.221 151.866 150.706 156.013 127.924C160.161 105.142 172.171 84.5378 189.949 69.7006C207.728 54.8634 230.149 46.7341 253.305 46.729V88.21C238.076 88.21 223.471 94.2597 212.702 105.028C201.933 115.797 195.883 130.402 195.883 145.631Z" fill="#292A2E"/>
<path d="M352.208 145.631H310.727C310.727 130.402 304.677 115.797 293.908 105.028C283.139 94.2597 268.534 88.21 253.305 88.21V46.729C279.535 46.7306 304.69 57.1511 323.238 75.6984C341.785 94.2458 352.206 119.401 352.208 145.631Z" fill="#5F22D9"/>
<path opacity="0.5" d="M352.208 145.631C352.206 168.041 344.596 189.786 330.624 207.307C316.653 224.829 297.147 237.088 275.3 242.079L268.272 201.079C280.458 197.786 291.219 190.571 298.894 180.55C306.569 170.528 310.729 158.258 310.731 145.635L352.208 145.631Z" fill="#5F22D9"/>
<path opacity="0.2" d="M275.3 242.079C256.377 246.365 236.614 245.018 218.448 238.204L234.203 199.784C245.171 203.633 257.044 204.083 268.272 201.075L275.3 242.079Z" fill="#5F22D9"/>
<path d="M524.948 71.812H412.048C411.86 71.812 411.681 71.7375 411.548 71.6049C411.415 71.4723 411.341 71.2925 411.341 71.105C411.341 70.9175 411.415 70.7377 411.548 70.6051C411.681 70.4725 411.86 70.398 412.048 70.398H524.948C525.136 70.398 525.315 70.4725 525.448 70.6051C525.581 70.7377 525.655 70.9175 525.655 71.105C525.655 71.2925 525.581 71.4723 525.448 71.6049C525.315 71.7375 525.136 71.812 524.948 71.812Z" fill="#5F22D9"/>
<path d="M524.948 121.5H412.048C411.86 121.5 411.681 121.426 411.548 121.293C411.415 121.16 411.341 120.981 411.341 120.793C411.341 120.605 411.415 120.426 411.548 120.293C411.681 120.16 411.86 120.086 412.048 120.086H524.948C525.136 120.086 525.315 120.16 525.448 120.293C525.581 120.426 525.655 120.605 525.655 120.793C525.655 120.981 525.581 121.16 525.448 121.293C525.315 121.426 525.136 121.5 524.948 121.5Z" fill="#292A2E"/>
<g opacity="0.5">
<path d="M524.948 171.18H412.048C411.865 171.173 411.692 171.096 411.565 170.964C411.438 170.832 411.368 170.656 411.368 170.473C411.368 170.291 411.438 170.115 411.565 169.983C411.692 169.851 411.865 169.774 412.048 169.767H524.948C525.043 169.763 525.138 169.779 525.227 169.813C525.315 169.847 525.397 169.898 525.465 169.964C525.534 170.03 525.588 170.109 525.625 170.197C525.662 170.284 525.682 170.378 525.682 170.473C525.682 170.569 525.662 170.663 525.625 170.75C525.588 170.838 525.534 170.917 525.465 170.983C525.397 171.049 525.315 171.1 525.227 171.134C525.138 171.168 525.043 171.184 524.948 171.18Z" fill="#5F22D9"/>
</g>
<g opacity="0.2">
<path d="M524.948 220.864H412.048C411.865 220.857 411.692 220.78 411.565 220.648C411.438 220.516 411.368 220.34 411.368 220.157C411.368 219.975 411.438 219.799 411.565 219.667C411.692 219.535 411.865 219.458 412.048 219.451H524.948C525.043 219.447 525.138 219.463 525.227 219.497C525.315 219.531 525.397 219.582 525.465 219.648C525.534 219.714 525.588 219.793 525.625 219.881C525.662 219.968 525.682 220.062 525.682 220.157C525.682 220.253 525.662 220.347 525.625 220.434C525.588 220.522 525.534 220.601 525.465 220.667C525.397 220.733 525.315 220.784 525.227 220.818C525.138 220.852 525.043 220.868 524.948 220.864Z" fill="#5F22D9"/>
</g>
<g opacity="0.1">
<path d="M525.434 490.891H158.028C154.834 490.887 151.771 489.617 149.513 487.358C147.254 485.099 145.983 482.036 145.98 478.842V292.7C145.984 289.506 147.254 286.444 149.513 284.185C151.771 281.926 154.834 280.656 158.028 280.652H525.434C528.628 280.655 531.691 281.926 533.949 284.185C536.208 286.443 537.479 289.506 537.482 292.7V478.842C537.479 482.036 536.208 485.099 533.949 487.358C531.691 489.617 528.628 490.887 525.434 490.891Z" fill="#5F22D9"/>
</g>
<path opacity="0.5" d="M196.063 322.877H188.91C187.834 322.877 186.961 323.75 186.961 324.826V461.467C186.961 462.543 187.834 463.416 188.91 463.416H196.063C197.139 463.416 198.012 462.543 198.012 461.467V324.826C198.012 323.75 197.139 322.877 196.063 322.877Z" fill="#5F22D9"/>
<path d="M185.011 367.018H177.858C176.782 367.018 175.909 367.891 175.909 368.967V461.468C175.909 462.544 176.782 463.417 177.858 463.417H185.011C186.087 463.417 186.96 462.544 186.96 461.468V368.967C186.96 367.891 186.087 367.018 185.011 367.018Z" fill="#5F22D9"/>
<path opacity="0.5" d="M284.503 445.634H277.35C276.274 445.634 275.401 446.507 275.401 447.583V461.468C275.401 462.544 276.274 463.417 277.35 463.417H284.503C285.579 463.417 286.452 462.544 286.452 461.468V447.583C286.452 446.507 285.579 445.634 284.503 445.634Z" fill="#5F22D9"/>
<path d="M273.452 359.081H266.299C265.223 359.081 264.35 359.954 264.35 361.03V461.467C264.35 462.543 265.223 463.416 266.299 463.416H273.452C274.528 463.416 275.401 462.543 275.401 461.467V361.03C275.401 359.954 274.528 359.081 273.452 359.081Z" fill="#5F22D9"/>
<path opacity="0.5" d="M240.283 379.294H233.13C232.054 379.294 231.181 380.167 231.181 381.243V461.467C231.181 462.543 232.054 463.416 233.13 463.416H240.283C241.359 463.416 242.232 462.543 242.232 461.467V381.243C242.232 380.167 241.359 379.294 240.283 379.294Z" fill="#5F22D9"/>
<path d="M229.231 408.36H222.078C221.002 408.36 220.129 409.233 220.129 410.309V461.467C220.129 462.543 221.002 463.416 222.078 463.416H229.231C230.307 463.416 231.18 462.543 231.18 461.467V410.309C231.18 409.233 230.307 408.36 229.231 408.36Z" fill="#5F22D9"/>
<path opacity="0.5" d="M417.163 350.058H410.01C408.934 350.058 408.061 350.931 408.061 352.007V461.468C408.061 462.544 408.934 463.417 410.01 463.417H417.163C418.239 463.417 419.112 462.544 419.112 461.468V352.007C419.112 350.931 418.239 350.058 417.163 350.058Z" fill="#5F22D9"/>
<path d="M406.112 391.793H398.959C397.883 391.793 397.01 392.666 397.01 393.742V461.468C397.01 462.544 397.883 463.417 398.959 463.417H406.112C407.188 463.417 408.061 462.544 408.061 461.468V393.742C408.061 392.666 407.188 391.793 406.112 391.793Z" fill="#5F22D9"/>
<path opacity="0.5" d="M328.723 367.74H321.57C320.494 367.74 319.621 368.613 319.621 369.689V461.467C319.621 462.543 320.494 463.416 321.57 463.416H328.723C329.799 463.416 330.672 462.543 330.672 461.467V369.689C330.672 368.613 329.799 367.74 328.723 367.74Z" fill="#5F22D9"/>
<path d="M317.672 378.572H310.519C309.443 378.572 308.57 379.445 308.57 380.521V461.467C308.57 462.543 309.443 463.416 310.519 463.416H317.672C318.748 463.416 319.621 462.543 319.621 461.467V380.521C319.621 379.445 318.748 378.572 317.672 378.572Z" fill="#5F22D9"/>
<path opacity="0.5" d="M372.943 322.877H365.79C364.714 322.877 363.841 323.75 363.841 324.826V461.467C363.841 462.543 364.714 463.416 365.79 463.416H372.943C374.019 463.416 374.892 462.543 374.892 461.467V324.826C374.892 323.75 374.019 322.877 372.943 322.877Z" fill="#5F22D9"/>
<path d="M361.892 329.647H354.739C353.663 329.647 352.79 330.52 352.79 331.596V461.467C352.79 462.543 353.663 463.416 354.739 463.416H361.892C362.968 463.416 363.841 462.543 363.841 461.467V331.596C363.841 330.52 362.968 329.647 361.892 329.647Z" fill="#5F22D9"/>
<path opacity="0.5" d="M461.383 322.877H454.23C453.154 322.877 452.281 323.75 452.281 324.826V461.467C452.281 462.543 453.154 463.416 454.23 463.416H461.383C462.459 463.416 463.332 462.543 463.332 461.467V324.826C463.332 323.75 462.459 322.877 461.383 322.877Z" fill="#5F22D9"/>
<path d="M450.332 367.018H443.179C442.103 367.018 441.23 367.891 441.23 368.967V461.468C441.23 462.544 442.103 463.417 443.179 463.417H450.332C451.408 463.417 452.281 462.544 452.281 461.468V368.967C452.281 367.891 451.408 367.018 450.332 367.018Z" fill="#5F22D9"/>
<path opacity="0.5" d="M505.603 379.294H498.45C497.374 379.294 496.501 380.167 496.501 381.243V461.467C496.501 462.543 497.374 463.416 498.45 463.416H505.603C506.679 463.416 507.552 462.543 507.552 461.467V381.243C507.552 380.167 506.679 379.294 505.603 379.294Z" fill="#5F22D9"/>
<path d="M494.552 408.36H487.399C486.323 408.36 485.45 409.233 485.45 410.309V461.467C485.45 462.543 486.323 463.416 487.399 463.416H494.552C495.628 463.416 496.501 462.543 496.501 461.467V410.309C496.501 409.233 495.628 408.36 494.552 408.36Z" fill="#5F22D9"/>
<path d="M551.438 296.152C546.989 296.145 542.62 294.975 538.763 292.758C534.906 290.541 531.696 287.353 529.452 283.512C527.208 279.67 526.008 275.309 525.97 270.86C525.932 266.412 527.059 262.031 529.238 258.152L590.019 150.042C591.652 147.107 593.848 144.524 596.482 142.44C599.116 140.356 602.135 138.814 605.367 137.9C608.599 136.987 611.979 136.721 615.314 137.117C618.649 137.514 621.873 138.565 624.8 140.211C627.727 141.857 630.301 144.065 632.373 146.708C634.444 149.351 635.974 152.378 636.872 155.614C637.771 158.849 638.022 162.231 637.611 165.564C637.199 168.897 636.133 172.116 634.474 175.036L573.693 283.146C571.474 287.096 568.242 290.383 564.33 292.669C560.419 294.955 555.969 296.157 551.438 296.152Z" fill="#5F22D9"/>
<path d="M588.771 256.319L587.862 237.884" stroke="#0C0C0C" stroke-width="0.75" stroke-linecap="round" stroke-linejoin="round"/>
<path d="M662.468 207.463L646.741 189.054C646.403 188.658 645.988 188.336 645.521 188.106C645.054 187.876 644.545 187.744 644.025 187.717C643.505 187.69 642.985 187.769 642.497 187.95C642.009 188.131 641.563 188.409 641.186 188.768C640.48 189.488 640.075 190.449 640.051 191.456C640.026 192.464 640.386 193.443 641.056 194.196L644.417 198.13L661.23 210.9L662.468 207.463Z" fill="#E98862"/>
<path d="M637.8 212.316L588.141 215.41C586.148 215.534 584.179 214.916 582.615 213.673C581.051 212.431 580.004 210.653 579.674 208.683L567.405 135.4C567.218 134.284 567.268 133.142 567.551 132.047C567.834 130.952 568.344 129.929 569.047 129.043C569.751 128.158 570.632 127.43 571.635 126.906C572.638 126.383 573.739 126.076 574.868 126.006L624.527 122.912C626.52 122.788 628.489 123.407 630.053 124.65C631.617 125.892 632.664 127.67 632.994 129.64L645.26 202.922C645.447 204.037 645.397 205.179 645.114 206.274C644.832 207.369 644.322 208.392 643.619 209.278C642.916 210.163 642.034 210.891 641.032 211.415C640.03 211.938 638.929 212.245 637.8 212.316Z" fill="#292A2E"/>
<path d="M644.416 198.13L628.116 190.584C626.316 189.714 623.554 189.796 622.711 191.877C622.335 192.656 622.234 193.54 622.424 194.384C622.615 195.229 623.086 195.983 623.761 196.525C623.748 196.541 623.736 196.558 623.726 196.576C623.722 196.59 623.718 196.605 623.716 196.62L620.943 195.277C620.432 195.03 619.873 194.899 619.305 194.895C618.738 194.89 618.176 195.011 617.662 195.25C617.147 195.488 616.691 195.838 616.328 196.274C615.965 196.71 615.703 197.221 615.561 197.771C615.353 198.651 615.455 199.577 615.851 200.39C616.246 201.204 616.911 201.855 617.732 202.235L618.913 202.807C618.912 202.85 618.918 202.893 618.933 202.933C618.055 202.733 617.135 202.849 616.334 203.261C615.533 203.672 614.903 204.352 614.554 205.182C614.197 206.124 614.211 207.167 614.593 208.1C614.975 209.033 615.697 209.785 616.613 210.206L619.513 211.606C619.458 211.615 619.405 211.638 619.36 211.671C619.315 211.705 619.278 211.749 619.253 211.799C619.225 211.864 619.217 211.936 619.231 212.005C618.415 212.042 617.632 212.339 616.998 212.853C616.363 213.367 615.91 214.071 615.704 214.861C615.496 215.741 615.598 216.667 615.994 217.48C616.389 218.294 617.054 218.946 617.875 219.326L642.6 231.3C646.059 232.975 649.94 233.578 653.744 233.033C657.548 232.488 661.103 230.82 663.953 228.241L673.128 219.941L644.416 198.13Z" fill="#E98862"/>
<g opacity="0.2">
<path d="M639.857 204.077C639.816 204.16 639.744 204.223 639.657 204.254C639.57 204.284 639.475 204.28 639.391 204.241L623.891 197.041C623.849 197.021 623.811 196.993 623.78 196.959C623.748 196.925 623.724 196.885 623.708 196.841C623.692 196.797 623.685 196.751 623.687 196.705C623.69 196.658 623.701 196.613 623.721 196.57C623.74 196.528 623.768 196.491 623.802 196.459C623.837 196.428 623.877 196.404 623.92 196.388C623.964 196.372 624.011 196.365 624.057 196.367C624.103 196.369 624.149 196.38 624.191 196.4L639.691 203.595C639.776 203.635 639.842 203.706 639.874 203.794C639.907 203.883 639.902 203.98 639.863 204.065L639.857 204.077Z" fill="#0C0C0C"/>
</g>
<g opacity="0.2">
<path d="M636.872 211C636.831 211.083 636.76 211.146 636.673 211.177C636.585 211.208 636.49 211.204 636.406 211.165L619.114 203.135C619.029 203.095 618.963 203.024 618.931 202.935C618.899 202.847 618.903 202.75 618.942 202.665C618.984 202.582 619.056 202.518 619.143 202.486C619.23 202.455 619.326 202.457 619.412 202.493L636.704 210.523C636.789 210.563 636.855 210.634 636.887 210.723C636.919 210.811 636.915 210.908 636.876 210.993L636.872 211Z" fill="#0C0C0C"/>
</g>
<g opacity="0.2">
<path d="M633.683 218.513C633.642 218.596 633.571 218.659 633.484 218.69C633.397 218.721 633.301 218.717 633.217 218.678L619.423 212.272C619.381 212.252 619.343 212.224 619.312 212.19C619.28 212.156 619.256 212.116 619.24 212.072C619.224 212.028 619.217 211.982 619.219 211.936C619.222 211.889 619.233 211.844 619.252 211.801C619.272 211.759 619.3 211.722 619.334 211.69C619.369 211.659 619.409 211.635 619.452 211.619C619.496 211.603 619.542 211.596 619.589 211.598C619.635 211.6 619.681 211.611 619.723 211.631L633.517 218.036C633.602 218.076 633.667 218.148 633.699 218.236C633.731 218.324 633.727 218.421 633.688 218.506L633.683 218.513Z" fill="#0C0C0C"/>
</g>
<path d="M643.415 238.4L750.672 291.012C755.213 293.103 760.253 293.868 765.21 293.217C770.167 292.566 774.839 290.527 778.686 287.335C782.534 284.143 785.401 279.928 786.955 275.176C788.51 270.424 788.689 265.33 787.472 260.481L758.832 157.512C757.121 150.693 752.772 144.832 746.74 141.219C740.708 137.607 733.489 136.538 726.669 138.249C712.469 141.812 704.844 156.211 708.407 170.412L730.877 226.087L662.149 197.271L643.415 238.4Z" fill="#5F22D9"/>
<path d="M743.615 288.124C743.582 288.118 743.551 288.108 743.521 288.093L643.261 238.718C643.178 238.678 643.114 238.607 643.083 238.52C643.051 238.433 643.055 238.338 643.093 238.254L661.825 197.125C661.863 197.041 661.932 196.975 662.018 196.941C662.104 196.907 662.199 196.909 662.284 196.945L729.334 224.475L716.064 184.508C716.051 184.463 716.048 184.417 716.053 184.371C716.058 184.324 716.073 184.28 716.095 184.239C716.118 184.199 716.148 184.163 716.185 184.134C716.221 184.106 716.263 184.084 716.308 184.072C716.352 184.059 716.399 184.055 716.445 184.06C716.491 184.066 716.536 184.08 716.576 184.103C716.617 184.125 716.652 184.156 716.681 184.192C716.71 184.229 716.731 184.27 716.744 184.315L730.214 224.99C730.232 225.054 730.232 225.122 730.213 225.186C730.195 225.25 730.158 225.308 730.108 225.352C730.058 225.396 729.997 225.425 729.931 225.436C729.865 225.447 729.798 225.439 729.736 225.413L662.326 197.73L643.88 238.23L743.829 287.454C743.905 287.491 743.966 287.555 743.999 287.633C744.032 287.711 744.036 287.799 744.01 287.88C743.984 287.961 743.93 288.03 743.857 288.074C743.785 288.118 743.699 288.135 743.615 288.121V288.124Z" fill="#0C0C0C"/>
<path d="M741.9 230.836C741.871 230.831 741.843 230.823 741.816 230.811L729.732 225.411C729.69 225.392 729.651 225.365 729.62 225.331C729.588 225.298 729.563 225.258 729.546 225.215C729.53 225.171 729.522 225.125 729.523 225.079C729.524 225.033 729.535 224.987 729.554 224.944C729.572 224.902 729.6 224.864 729.633 224.832C729.667 224.8 729.706 224.775 729.75 224.759C729.793 224.742 729.839 224.734 729.886 224.735C729.932 224.737 729.978 224.747 730.02 224.766L742.105 230.166C742.182 230.201 742.244 230.264 742.28 230.341C742.315 230.419 742.321 230.506 742.296 230.588C742.272 230.67 742.219 230.74 742.147 230.785C742.075 230.831 741.989 230.849 741.905 230.836H741.9Z" fill="#0C0C0C"/>
<path d="M605.284 158.692C604.769 158.047 604.059 157.585 603.26 157.377C602.461 157.168 601.616 157.224 600.852 157.536C600.847 157.488 600.83 157.443 600.803 157.403C600.776 157.364 600.74 157.332 600.697 157.309C600.655 157.287 600.608 157.275 600.56 157.276C600.512 157.276 600.465 157.288 600.423 157.31L602.508 154.79C603.149 154.045 603.491 153.089 603.467 152.107C603.444 151.125 603.056 150.186 602.38 149.473C601.723 148.823 600.854 148.433 599.932 148.374C599.01 148.315 598.097 148.591 597.363 149.152C597.363 149.114 597.327 149.086 597.312 149.052L598.165 148.021C598.75 147.339 599.084 146.477 599.11 145.578C599.136 144.68 598.853 143.8 598.308 143.085C597.953 142.639 597.502 142.277 596.99 142.027C596.477 141.777 595.915 141.644 595.344 141.638C594.774 141.633 594.209 141.755 593.692 141.995C593.174 142.235 592.717 142.588 592.353 143.027L590.383 145.407C590.372 145.395 590.374 145.376 590.361 145.365C590.348 145.354 590.321 145.356 590.303 145.345C590.695 144.571 590.813 143.686 590.636 142.836C590.46 141.987 590 141.222 589.332 140.668C587.699 139.126 585.152 140.2 583.879 141.74L571.841 156.025L572.187 155.379L573.614 150.387C573.902 149.448 573.832 148.435 573.416 147.544C573 146.654 572.268 145.95 571.363 145.568C570.866 145.377 570.336 145.291 569.804 145.317C569.273 145.342 568.752 145.477 568.276 145.715C567.8 145.952 567.379 146.286 567.039 146.695C566.698 147.104 566.447 147.58 566.301 148.091L559.648 171.371L558.033 177.024C557.258 179.735 557.571 182.642 558.905 185.127C560.239 187.611 562.49 189.477 565.178 190.329L566.936 190.886C570.6 192.047 574.526 192.087 578.213 191.001C581.9 189.916 585.178 187.754 587.628 184.793L605.141 163.627C605.727 162.945 606.06 162.083 606.086 161.185C606.112 160.286 605.829 159.406 605.284 158.692Z" fill="#E98862"/>
<g opacity="0.2">
<path d="M578.806 158.892C578.878 158.95 578.969 158.978 579.061 158.97C579.153 158.962 579.238 158.918 579.298 158.848L590.398 145.863C590.431 145.828 590.457 145.787 590.473 145.742C590.49 145.697 590.497 145.649 590.495 145.601C590.492 145.553 590.48 145.506 590.459 145.463C590.438 145.42 590.408 145.382 590.371 145.35C590.335 145.319 590.293 145.296 590.247 145.281C590.201 145.267 590.153 145.262 590.105 145.267C590.057 145.272 590.011 145.287 589.969 145.31C589.927 145.333 589.89 145.365 589.861 145.403L578.761 158.388C578.731 158.423 578.708 158.464 578.693 158.509C578.679 158.553 578.673 158.6 578.677 158.646C578.68 158.693 578.693 158.738 578.714 158.779C578.735 158.821 578.764 158.858 578.8 158.888L578.806 158.892Z" fill="#0C0C0C"/>
</g>
<g opacity="0.2">
<path d="M584.4 163.946C584.472 164.004 584.563 164.032 584.655 164.024C584.747 164.016 584.832 163.972 584.892 163.902L597.282 149.411C597.312 149.376 597.335 149.335 597.35 149.29C597.364 149.246 597.37 149.199 597.366 149.153C597.363 149.106 597.35 149.061 597.329 149.02C597.308 148.978 597.278 148.941 597.243 148.911C597.17 148.853 597.078 148.825 596.985 148.832C596.892 148.839 596.806 148.881 596.743 148.95L584.354 163.441C584.324 163.476 584.301 163.517 584.286 163.562C584.272 163.606 584.266 163.653 584.27 163.699C584.273 163.746 584.286 163.791 584.307 163.832C584.328 163.874 584.358 163.911 584.393 163.941L584.4 163.946Z" fill="#0C0C0C"/>
</g>
<g opacity="0.2">
<path d="M590.423 169.455C590.495 169.513 590.586 169.541 590.678 169.533C590.77 169.525 590.855 169.481 590.915 169.411L600.798 157.852C600.831 157.817 600.857 157.776 600.873 157.731C600.89 157.686 600.897 157.638 600.895 157.59C600.892 157.542 600.88 157.495 600.859 157.452C600.838 157.409 600.808 157.371 600.772 157.339C600.735 157.308 600.693 157.285 600.647 157.27C600.601 157.256 600.553 157.251 600.505 157.256C600.457 157.261 600.411 157.276 600.369 157.299C600.327 157.322 600.29 157.354 600.261 157.392L590.377 168.952C590.347 168.987 590.324 169.028 590.309 169.073C590.295 169.117 590.289 169.164 590.293 169.21C590.296 169.257 590.309 169.302 590.331 169.344C590.352 169.385 590.381 169.422 590.417 169.452L590.423 169.455Z" fill="#0C0C0C"/>
</g>
<path d="M597.365 184.058L577.631 272.8C576.509 279.741 572.677 285.952 566.976 290.066C561.275 294.181 554.173 295.863 547.232 294.741C540.291 293.619 534.08 289.787 529.966 284.086C525.851 278.385 524.169 271.283 525.291 264.342L552.386 169.533" fill="#5F22D9"/>
<path d="M579.166 256.319L590.293 215.443" stroke="#0C0C0C" stroke-width="0.75" stroke-linecap="round" stroke-linejoin="round"/>
<path d="M767.177 775.221H71.048C70.7828 775.221 70.5284 775.116 70.3409 774.928C70.1534 774.741 70.048 774.486 70.048 774.221C70.048 773.956 70.1534 773.701 70.3409 773.514C70.5284 773.326 70.7828 773.221 71.048 773.221H767.177C767.442 773.221 767.697 773.326 767.884 773.514C768.072 773.701 768.177 773.956 768.177 774.221C768.177 774.486 768.072 774.741 767.884 774.928C767.697 775.116 767.442 775.221 767.177 775.221Z" fill="#292A2E"/>
</g>
<defs>
<clipPath id="clip0_1_1737">
<rect width="788.266" height="775.221" fill="white"/>
</clipPath>
</defs>
</svg>
