<svg width="599" height="472" viewBox="0 0 599 472" fill="none" xmlns="http://www.w3.org/2000/svg">
<g clip-path="url(#clip0_1_2334)">
<path d="M244.391 411.077C243.469 412.503 242.075 413.559 240.452 414.06C239.738 414.293 238.995 414.428 238.244 414.46C238.074 414.466 237.904 414.463 237.734 414.452C237.582 414.456 237.429 414.449 237.278 414.431C237.126 414.41 236.984 414.384 236.878 414.374C236.767 414.354 236.658 414.326 236.551 414.291C236.494 414.278 236.437 414.262 236.382 414.242C236.32 414.219 236.36 414.242 236.346 414.234C236.309 414.216 236.441 414.255 236.515 414.249H236.578H236.333L235.783 414.243C235.15 414.216 234.517 414.315 233.922 414.534C233.733 414.607 233.579 414.748 233.488 414.928C233.397 415.109 233.377 415.317 233.431 415.512L234.231 412.238C234.199 412.049 234.222 411.854 234.299 411.678C234.375 411.502 234.502 411.352 234.662 411.246C235.094 411.006 235.581 410.881 236.075 410.886H236.483H236.672L236.713 410.894C236.78 410.897 236.847 410.906 236.913 410.921C237.013 410.948 237.089 410.946 237.213 410.985L237.57 411.085C238.313 411.267 239.095 411.197 239.793 410.886C240.492 410.575 241.067 410.04 241.428 409.366C241.628 408.964 241.734 408.523 241.74 408.074C241.746 407.625 241.651 407.181 241.461 406.774C241.272 406.368 240.994 406.009 240.647 405.724C240.3 405.44 239.893 405.237 239.457 405.131C238.969 404.976 238.472 404.853 237.968 404.763C237.673 404.708 237.375 404.672 237.075 404.656L236.841 404.64C236.812 404.638 236.783 404.638 236.754 404.64L236.611 404.646C236.419 404.66 236.237 404.738 236.093 404.866C236.026 404.935 235.974 405.017 235.94 405.106C235.907 405.196 235.892 405.292 235.898 405.388L236.898 401.268L237.267 401.29C237.691 401.314 238.114 401.364 238.532 401.439C238.878 401.505 239.287 401.578 239.577 401.661L240.477 401.917C240.799 402.021 241.114 402.144 241.421 402.285C241.703 402.406 241.974 402.551 242.232 402.717C242.478 402.87 242.714 403.031 242.938 403.199C243.162 403.367 243.338 403.544 243.518 403.724C243.871 404.064 244.178 404.449 244.43 404.869C244.671 405.256 244.868 405.668 245.017 406.099C245.291 406.923 245.377 407.798 245.269 408.659C245.161 409.521 244.861 410.347 244.391 411.077Z" fill="#0F1011"/>
<path d="M258.913 413.6C260.1 414.55 261.276 415.507 262.439 416.47L260.289 419.065C259.14 418.113 257.981 417.17 256.812 416.235C256.49 415.97 256.119 415.773 255.719 415.654C255.32 415.535 254.901 415.496 254.487 415.541C254.073 415.586 253.672 415.713 253.307 415.915C252.943 416.116 252.622 416.389 252.364 416.716C251.865 417.377 251.644 418.207 251.747 419.029C251.851 419.85 252.271 420.599 252.918 421.116C254.051 422.023 255.18 422.941 256.304 423.872L254.154 426.472C253.046 425.554 251.934 424.649 250.817 423.756C249.491 422.68 248.629 421.137 248.407 419.444C248.185 417.751 248.62 416.038 249.623 414.656C250.151 413.959 250.815 413.377 251.574 412.944C252.334 412.511 253.173 412.237 254.042 412.139C254.91 412.04 255.79 412.119 256.627 412.37C257.465 412.621 258.242 413.039 258.913 413.6Z" fill="#0F1011"/>
<path d="M252.634 419.065C250.486 417.385 248.313 415.739 246.087 414.206C243.931 412.671 241.645 411.328 239.255 410.193C238.869 410.005 238.563 409.686 238.392 409.293C238.221 408.9 238.196 408.458 238.321 408.048C238.394 407.826 238.514 407.622 238.673 407.45C238.832 407.278 239.026 407.143 239.242 407.053C239.458 406.963 239.691 406.921 239.925 406.93C240.159 406.938 240.388 406.997 240.597 407.102C243.188 408.321 245.664 409.77 247.997 411.43C250.306 413.02 252.526 414.702 254.714 416.414C254.892 416.549 255.041 416.718 255.153 416.912C255.265 417.105 255.337 417.319 255.366 417.541C255.394 417.762 255.378 417.987 255.319 418.203C255.26 418.418 255.158 418.62 255.02 418.796C254.882 418.971 254.711 419.118 254.515 419.227C254.32 419.336 254.105 419.405 253.883 419.43C253.661 419.455 253.437 419.436 253.222 419.373C253.008 419.31 252.808 419.206 252.634 419.065Z" fill="#0F1011"/>
<path d="M266.669 428.654C265.517 429.934 263.911 430.714 262.193 430.828C260.474 430.941 258.779 430.379 257.469 429.262C256.369 428.314 255.263 427.399 254.158 426.473L256.308 423.873C257.426 424.809 258.551 425.737 259.657 426.694C260.288 427.235 261.107 427.507 261.936 427.451C262.766 427.395 263.54 427.016 264.093 426.394C264.363 426.078 264.567 425.712 264.693 425.316C264.82 424.921 264.867 424.504 264.832 424.09C264.796 423.677 264.679 423.274 264.487 422.906C264.295 422.538 264.031 422.212 263.712 421.946C262.587 420.973 261.436 420.023 260.293 419.066L262.443 416.471C263.599 417.439 264.765 418.401 265.899 419.382C266.566 419.935 267.116 420.615 267.517 421.384C267.918 422.152 268.162 422.993 268.233 423.856C268.305 424.72 268.204 425.589 267.935 426.413C267.666 427.237 267.236 427.999 266.669 428.654Z" fill="#0F1011"/>
<path d="M280.511 432.313C281.539 433.213 282.62 433.987 283.668 434.835L281.652 437.535C280.552 436.649 279.411 435.826 278.339 434.89C277.708 434.361 276.897 434.096 276.076 434.152C275.254 434.208 274.486 434.58 273.933 435.19C273.658 435.506 273.449 435.875 273.319 436.273C273.188 436.672 273.14 437.092 273.175 437.51C273.211 437.928 273.33 438.334 273.526 438.705C273.721 439.076 273.989 439.404 274.314 439.669C275.466 440.669 276.714 441.584 277.914 442.543L275.898 445.243C274.647 444.243 273.336 443.285 272.141 442.243C271.453 441.695 270.885 441.012 270.472 440.235C270.058 439.459 269.809 438.606 269.738 437.729C269.667 436.852 269.777 435.971 270.061 435.138C270.345 434.305 270.797 433.54 271.388 432.889C272.553 431.656 274.143 430.91 275.836 430.804C277.529 430.697 279.2 431.236 280.511 432.313Z" fill="#0F1011"/>
<path d="M274.076 437.55L272.491 436.166L270.965 434.781L267.91 432.021C265.868 430.189 263.809 428.378 261.733 426.587C261.559 426.445 261.415 426.269 261.31 426.07C261.205 425.871 261.14 425.653 261.121 425.429C261.101 425.204 261.127 424.979 261.196 424.764C261.265 424.55 261.376 424.352 261.523 424.181C261.67 424.011 261.849 423.872 262.051 423.772C262.252 423.671 262.472 423.613 262.697 423.599C262.921 423.585 263.146 423.616 263.359 423.691C263.571 423.766 263.766 423.882 263.933 424.033C266.027 425.84 268.102 427.666 270.159 429.511L273.233 432.289L274.765 433.68L276.292 435.011C276.629 435.309 276.836 435.726 276.87 436.174C276.904 436.622 276.763 437.066 276.475 437.411C276.329 437.581 276.15 437.72 275.949 437.819C275.748 437.918 275.529 437.976 275.305 437.989C275.081 438.002 274.857 437.97 274.646 437.894C274.435 437.819 274.241 437.702 274.076 437.55Z" fill="#0F1011"/>
<path d="M289.207 445.733C288.86 446.527 288.335 447.231 287.673 447.79C287.01 448.35 286.229 448.75 285.388 448.96C284.498 449.2 283.566 449.241 282.658 449.081C281.69 448.9 280.763 448.545 279.923 448.032C279.223 447.596 278.57 447.113 277.892 446.654C277.214 446.195 276.533 445.736 275.9 445.242L277.916 442.542C278.522 443.016 279.181 443.436 279.811 443.884C280.441 444.332 281.072 444.784 281.737 445.193C282.088 445.43 282.484 445.592 282.9 445.67C283.316 445.748 283.743 445.74 284.156 445.646C284.569 445.552 284.958 445.375 285.3 445.125C285.642 444.875 285.929 444.558 286.143 444.193C286.542 443.482 286.656 442.645 286.462 441.853C286.269 441.061 285.781 440.372 285.099 439.925C284.509 439.562 283.946 439.136 283.368 438.746C282.798 438.339 282.208 437.968 281.652 437.532L283.668 434.832C284.196 435.247 284.749 435.591 285.287 435.975C285.83 436.342 286.363 436.747 286.913 437.085C287.582 437.486 288.153 438.033 288.582 438.685C289.017 439.328 289.346 440.037 289.556 440.785C290.007 442.426 289.884 444.172 289.207 445.733Z" fill="#0F1011"/>
<path d="M301.717 442.14C302.27 442.14 302.817 442.079 303.373 442.063C303.929 442.047 304.473 441.908 305.027 441.848L305.597 445.169C304.952 445.245 304.312 445.391 303.664 445.421C303.016 445.451 302.369 445.515 301.721 445.51C301.34 445.505 300.962 445.577 300.609 445.721C300.257 445.864 299.936 446.077 299.667 446.347C299.053 446.879 298.657 447.62 298.556 448.426C298.505 448.843 298.544 449.266 298.672 449.666C298.799 450.066 299.011 450.434 299.294 450.745C299.944 451.385 300.816 451.748 301.728 451.757C302.553 451.757 303.378 451.683 304.203 451.644C305.028 451.605 305.837 451.431 306.655 451.325L307.225 454.646C306.315 454.768 305.415 454.946 304.494 455.001C303.573 455.056 302.652 455.131 301.732 455.127C300.648 455.118 299.578 454.891 298.584 454.459C297.711 454.052 296.929 453.474 296.284 452.759C295.725 452.08 295.334 451.279 295.143 450.42C294.952 449.562 294.966 448.67 295.184 447.818C295.609 446.196 296.55 444.757 297.866 443.718C298.415 443.223 299.047 442.829 299.733 442.554C300.356 442.273 301.033 442.132 301.717 442.14Z" fill="#0F1011"/>
<path d="M300.112 450.261C297.203 450.073 294.334 449.482 291.588 448.504C288.892 447.527 286.302 446.282 283.855 444.788C283.658 444.679 283.485 444.531 283.347 444.353C283.209 444.175 283.108 443.971 283.052 443.753C282.995 443.535 282.984 443.308 283.018 443.085C283.052 442.862 283.131 442.649 283.25 442.458C283.493 442.083 283.87 441.816 284.304 441.711C284.738 441.607 285.196 441.672 285.583 441.895C287.837 443.274 290.224 444.423 292.708 445.326C295.157 446.198 297.714 446.727 300.308 446.897C300.747 446.931 301.158 447.129 301.457 447.452C301.757 447.775 301.924 448.199 301.925 448.64C301.921 448.868 301.87 449.094 301.776 449.301C301.681 449.509 301.544 449.695 301.373 449.847C301.203 450 301.003 450.115 300.786 450.186C300.569 450.257 300.339 450.283 300.112 450.261Z" fill="#0F1011"/>
<path d="M316.437 444.481C316.862 445.24 317.11 446.086 317.162 446.955C317.214 447.823 317.069 448.692 316.737 449.497C316.37 450.354 315.827 451.124 315.144 451.759C314.765 452.092 314.357 452.39 313.925 452.649C313.473 452.934 312.984 453.157 312.473 453.313C310.76 453.891 309.005 454.336 307.224 454.646L306.654 451.325C308.265 451.044 309.852 450.641 311.401 450.118C311.826 449.982 312.218 449.761 312.554 449.467C312.889 449.173 313.161 448.813 313.351 448.41C313.528 448.035 313.622 447.626 313.624 447.212C313.627 446.797 313.539 446.387 313.367 446.01C313.023 445.263 312.419 444.667 311.667 444.333C310.958 444.011 310.155 443.964 309.413 444.2C308.167 444.621 306.891 444.946 305.596 445.173L305.026 441.852C306.151 441.654 307.259 441.371 308.341 441.005C308.685 440.905 309.035 440.826 309.389 440.768C309.749 440.72 310.113 440.713 310.475 440.747C311.24 440.791 311.992 440.963 312.7 441.258C314.282 441.867 315.603 443.006 316.437 444.481Z" fill="#0F1011"/>
<path d="M323.309 432.064L325.097 430.736L326.938 429.388L328.912 432.119C327.686 433 326.499 433.894 325.319 434.769C324.984 435.011 324.7 435.318 324.484 435.671C324.269 436.023 324.125 436.416 324.062 436.824C323.999 437.233 324.018 437.65 324.117 438.052C324.217 438.453 324.395 438.831 324.642 439.163C324.889 439.495 325.199 439.774 325.554 439.985C325.91 440.196 326.304 440.335 326.713 440.392C327.123 440.45 327.54 440.426 327.94 440.321C328.34 440.216 328.715 440.033 329.044 439.782C330.234 438.901 331.403 438.02 332.572 437.182L334.547 439.913L332.819 441.179L331.055 442.489C329.627 443.553 327.838 444.014 326.073 443.773C325.22 443.657 324.4 443.363 323.668 442.91C322.936 442.457 322.308 441.854 321.824 441.142C320.863 439.721 320.48 437.988 320.752 436.294C321.012 434.602 321.932 433.081 323.309 432.064Z" fill="#0F1011"/>
<path d="M326.964 439.534C322.526 442.816 317.849 446.108 312.442 448.208C312.232 448.299 312.005 448.345 311.777 448.344C311.548 448.342 311.322 448.293 311.113 448.2C310.904 448.107 310.717 447.971 310.563 447.802C310.409 447.632 310.293 447.433 310.22 447.216C310.088 446.798 310.118 446.345 310.303 445.947C310.488 445.55 310.815 445.236 311.22 445.067C316.115 443.172 320.569 440.078 324.958 436.824C325.135 436.684 325.339 436.581 325.557 436.521C325.775 436.461 326.003 436.445 326.227 436.475C326.451 436.505 326.666 436.58 326.861 436.695C327.056 436.81 327.225 436.963 327.359 437.145C327.494 437.327 327.59 437.534 327.642 437.754C327.695 437.973 327.703 438.202 327.665 438.425C327.628 438.647 327.546 438.861 327.424 439.051C327.303 439.242 327.144 439.406 326.958 439.534H326.964Z" fill="#0F1011"/>
<path d="M340.179 428.985C340.791 430.552 340.891 432.272 340.466 433.899C340.286 434.64 339.977 435.343 339.552 435.976C339.12 436.619 338.561 437.168 337.91 437.588C337.361 437.942 336.81 438.306 336.244 438.708C335.686 439.09 335.119 439.49 334.544 439.908L332.569 437.177C333.154 436.748 333.738 436.333 334.322 435.934C334.905 435.519 335.491 435.134 336.077 434.756C336.746 434.315 337.22 433.636 337.404 432.856C337.6 432.055 337.491 431.211 337.098 430.486C336.9 430.122 336.626 429.805 336.294 429.556C335.962 429.308 335.581 429.133 335.176 429.045C334.751 428.952 334.311 428.945 333.883 429.025C333.454 429.104 333.046 429.269 332.683 429.509C332.03 429.931 331.383 430.357 330.766 430.797C330.149 431.237 329.514 431.67 328.909 432.114L326.935 429.383C327.55 428.931 328.188 428.479 328.847 428.027C329.485 427.573 330.163 427.127 330.853 426.68C331.683 426.141 332.612 425.773 333.586 425.599C334.509 425.437 335.455 425.464 336.367 425.68C337.221 425.884 338.013 426.292 338.677 426.867C339.34 427.442 339.856 428.169 340.179 428.985Z" fill="#0F1011"/>
<path d="M355.022 421.946C357.112 422.71 359.053 423.83 360.76 425.258L358.617 427.858C357.21 426.676 355.608 425.749 353.883 425.117C353.387 424.929 352.854 424.857 352.326 424.909C351.858 424.937 351.403 425.079 351.003 425.324C350.64 425.538 350.335 425.837 350.114 426.196C349.892 426.554 349.761 426.961 349.732 427.381C349.679 428.189 349.881 428.993 350.308 429.681C350.493 429.978 350.713 430.252 350.963 430.497C351.202 430.709 351.475 430.879 351.772 430.997C352.821 431.385 353.794 431.955 354.646 432.68L352.503 435.28C351.951 434.801 351.318 434.424 350.633 434.168C350.538 434.137 350.449 434.093 350.367 434.036C350.272 433.99 350.181 433.935 350.095 433.874C350.004 433.811 349.924 433.725 349.83 433.644C349.726 433.566 349.628 433.481 349.537 433.389C349.437 433.289 349.345 433.183 349.247 433.068C349.149 432.953 349.03 432.853 348.923 432.732C348.704 432.496 348.504 432.192 348.273 431.917C347.79 431.295 347.375 430.622 347.036 429.91C346.654 429.138 346.408 428.306 346.31 427.451C346.189 426.568 346.3 425.669 346.633 424.842C346.967 424.016 347.51 423.291 348.21 422.739C348.605 422.426 349.043 422.172 349.51 421.983C349.76 421.875 350.015 421.78 350.275 421.698C350.556 421.628 350.841 421.573 351.128 421.532C351.428 421.489 351.728 421.459 352.038 421.442C352.361 421.439 352.685 421.456 353.006 421.491C353.342 421.522 353.676 421.573 354.006 421.642C354.347 421.728 354.685 421.829 355.022 421.946Z" fill="#0F1011"/>
<path d="M351.01 429.286C348.541 428.853 346.007 428.974 343.59 429.64C341.097 430.324 338.721 431.379 336.542 432.77C336.161 432.997 335.707 433.068 335.275 432.971C334.843 432.873 334.464 432.613 334.218 432.244C334.096 432.053 334.013 431.839 333.976 431.616C333.938 431.392 333.947 431.163 334.001 430.943C334.055 430.723 334.153 430.516 334.289 430.335C334.426 430.153 334.597 430.002 334.794 429.889C337.267 428.318 339.965 427.13 342.794 426.366C344.228 426.009 345.691 425.78 347.165 425.683C348.695 425.577 350.233 425.682 351.734 425.995C351.979 426.041 352.211 426.139 352.414 426.283C352.618 426.427 352.788 426.612 352.914 426.827C353.027 427.021 353.095 427.238 353.113 427.463C353.13 427.687 353.096 427.912 353.014 428.121C352.852 428.533 352.552 428.876 352.166 429.091C351.816 429.292 351.406 429.361 351.01 429.286Z" fill="#0F1011"/>
<path d="M364.47 438.015C363.93 438.708 363.228 439.258 362.426 439.618C361.624 439.978 360.747 440.136 359.87 440.079C358.013 439.955 356.273 439.128 355.005 437.766C354.229 436.882 353.394 436.052 352.505 435.281L354.648 432.681C355.658 433.548 356.606 434.483 357.487 435.481C357.764 435.792 358.1 436.045 358.476 436.224C358.852 436.404 359.26 436.506 359.676 436.526C360.092 436.545 360.508 436.481 360.899 436.338C361.29 436.194 361.648 435.974 361.953 435.69C362.548 435.113 362.894 434.326 362.919 433.497C362.943 432.669 362.643 431.863 362.083 431.252C361.01 430.039 359.852 428.903 358.619 427.852L360.762 425.252C362.115 426.399 363.385 427.641 364.562 428.967C365.119 429.554 365.549 430.25 365.824 431.011C366.1 431.772 366.215 432.581 366.162 433.389C366.122 434.192 365.968 434.985 365.704 435.744C365.427 436.566 365.009 437.335 364.47 438.015Z" fill="#0F1011"/>
<path d="M376.909 436.02C377.484 436.073 378.095 436.069 378.686 436.104L380.536 436.075L380.683 439.441L378.645 439.473C377.979 439.438 377.301 439.439 376.645 439.379C375.878 439.327 375.12 439.564 374.52 440.045C373.87 440.549 373.42 441.267 373.25 442.072C373.166 442.479 373.173 442.899 373.272 443.302C373.37 443.706 373.558 444.082 373.82 444.404C374.106 444.753 374.461 445.039 374.862 445.246C375.263 445.452 375.703 445.574 376.153 445.604C376.964 445.675 377.764 445.68 378.57 445.717L380.956 445.68L381.102 449.047L378.529 449.087C377.647 449.048 376.781 449.041 375.887 448.964C374.86 448.897 373.859 448.613 372.95 448.131C372.041 447.648 371.245 446.978 370.614 446.164C370.087 445.452 369.75 444.617 369.634 443.739C369.519 442.86 369.629 441.967 369.954 441.143C370.578 439.6 371.628 438.266 372.982 437.297C374.087 436.399 375.487 435.944 376.909 436.02Z" fill="#0F1011"/>
<path d="M374.668 444.013C371.708 443.656 368.847 442.722 366.246 441.265C363.738 439.752 361.486 437.85 359.574 435.631C359.27 435.303 359.109 434.868 359.127 434.421C359.144 433.975 359.338 433.553 359.665 433.25C359.993 432.946 360.429 432.785 360.875 432.802C361.322 432.819 361.743 433.013 362.047 433.341C363.728 435.309 365.711 436.997 367.923 438.341C368.457 438.67 369.034 438.919 369.597 439.194C370.185 439.418 370.758 439.676 371.371 439.845C372.591 440.225 373.841 440.501 375.107 440.671C375.543 440.729 375.941 440.952 376.217 441.295C376.494 441.637 376.628 442.072 376.593 442.511C376.571 442.738 376.503 442.959 376.393 443.159C376.283 443.359 376.133 443.535 375.953 443.676C375.773 443.816 375.566 443.918 375.345 443.976C375.124 444.034 374.894 444.047 374.668 444.013Z" fill="#0F1011"/>
<path d="M490.2 460.839L469.347 458.359C470.286 450.466 471.347 440.985 471.419 439.43C471.419 439.53 471.419 439.612 471.419 439.675H492.419C492.41 440.305 492.41 442.221 490.2 460.839Z" fill="#E98862"/>
<path d="M406.521 463.349L385.521 463.281C385.521 463.281 385.591 441.596 385.591 439.675H406.591C406.591 441.6 406.521 463.349 406.521 463.349Z" fill="#E98862"/>
<path d="M460.949 454.208L497.943 453.577C496.206 409.546 496.099 363.359 495.557 319.221C488.337 271.647 484.534 219.405 475.622 172.172L475.355 172.25L474.574 166.921L398.497 162.221C398.497 162.221 384.627 383.873 380.108 453.011L416.977 456.126C423.62 388.341 433.9 289.571 440.223 218.36C447.483 253.029 452.423 288.928 458.737 323.3C460 366.33 461.067 411.309 460.949 454.208Z" fill="#262626"/>
<path d="M432.049 471.471C432.614 471.468 433.172 471.349 433.689 471.121C434.205 470.893 434.669 470.561 435.052 470.146C435.434 469.73 435.727 469.241 435.912 468.707C436.096 468.173 436.169 467.607 436.125 467.044C436.064 466.264 435.782 465.517 435.311 464.892C434.84 464.267 434.2 463.789 433.467 463.515L409.024 455.328C408.55 455.171 408.049 455.119 407.553 455.174C407.057 455.229 406.579 455.391 406.152 455.648C402.792 457.979 398.772 459.171 394.684 459.048C391.5 458.822 388.443 457.705 385.863 455.826C385.636 455.64 385.361 455.522 385.07 455.486C384.779 455.451 384.484 455.499 384.219 455.624C383.954 455.75 383.73 455.949 383.574 456.197C383.418 456.445 383.335 456.733 383.336 457.026V468.98C383.336 469.333 383.406 469.682 383.541 470.007C383.676 470.333 383.874 470.629 384.124 470.878C384.374 471.126 384.671 471.323 384.997 471.457C385.323 471.591 385.672 471.659 386.025 471.658L432.049 471.471Z" fill="#C1D8ED"/>
<path d="M515.782 471.471C516.347 471.468 516.905 471.349 517.422 471.122C517.938 470.894 518.403 470.561 518.785 470.146C519.168 469.731 519.461 469.241 519.645 468.707C519.83 468.173 519.903 467.607 519.859 467.044C519.798 466.264 519.515 465.517 519.044 464.892C518.573 464.267 517.933 463.789 517.2 463.515L492.758 455.328C492.284 455.171 491.782 455.119 491.287 455.174C490.791 455.229 490.313 455.391 489.885 455.648C486.525 457.979 482.505 459.171 478.417 459.048C475.233 458.822 472.177 457.705 469.597 455.826C469.37 455.64 469.095 455.522 468.804 455.486C468.513 455.451 468.218 455.499 467.953 455.624C467.688 455.75 467.464 455.949 467.308 456.197C467.152 456.445 467.069 456.733 467.07 457.026V468.98C467.07 469.333 467.14 469.682 467.275 470.007C467.41 470.333 467.608 470.629 467.858 470.878C468.108 471.126 468.405 471.323 468.731 471.457C469.057 471.591 469.406 471.659 469.759 471.658L515.782 471.471Z" fill="#C1D8ED"/>
<path d="M422.011 435.716H377.924V453.893H422.011V435.716Z" fill="#0F1011"/>
<path d="M581.346 133.029C581.346 133.029 586.237 134.642 593.924 131.02C596.416 129.846 594.269 121.628 593.375 121.628C591.677 121.752 589.972 121.749 588.275 121.619C590.063 120.259 592.4 118.252 591.813 117.442C590.267 115.315 581.469 120.242 578.674 121.28L581.346 133.029Z" fill="#E98862"/>
<path d="M478.742 84.219L511.436 146.736L581.402 128.281" stroke="#1F2A37" stroke-width="21.804" stroke-linejoin="round"/>
<path d="M481.183 186.2C475.983 195.323 393.698 190.435 394.429 173.475C394.893 162.682 405.351 154.35 407.614 133.462C409.877 112.574 393.547 83.821 410.9 69.858C415.936 65.807 424.1 63.724 433.663 64.749C433.775 70.404 442.233 80.906 454.549 81.425C463.791 81.813 467.635 74.092 468.485 68.652C469.776 68.812 470.777 68.94 471.4 69.038C504.234 74.032 485.673 110.003 482.368 137.547C478.486 169.776 486.546 176.805 481.183 186.2Z" fill="#5F22D9"/>
<path d="M468.486 68.652C467.636 74.092 463.792 81.813 454.55 81.425C442.234 80.906 433.776 70.404 433.664 64.749H433.694C445.733 66.057 461.479 67.782 468.486 68.652Z" fill="#E98862"/>
<path d="M559.105 55.2189L426.647 90.9789C420.538 92.6281 416.922 98.9172 418.572 105.026L440.918 187.801C442.568 193.909 448.857 197.525 454.966 195.875L587.424 160.115C593.533 158.466 597.148 152.177 595.499 146.068L573.153 63.2937C571.503 57.1849 565.214 53.5697 559.105 55.2189Z" fill="#0CBC8B"/>
<path d="M569.817 70.829L434.827 95.3608C428.601 96.4922 424.472 102.456 425.603 108.682L440.933 193.038C442.064 199.264 448.028 203.393 454.254 202.262L589.244 177.73C595.47 176.599 599.599 170.635 598.468 164.409L583.138 80.0528C582.006 73.8272 576.042 69.6976 569.817 70.829Z" fill="#9EBCEA"/>
<path opacity="0.26" d="M569.817 70.829L434.827 95.3608C428.601 96.4922 424.472 102.456 425.603 108.682L440.933 193.038C442.064 199.264 448.028 203.393 454.254 202.262L589.244 177.73C595.47 176.599 599.599 170.635 598.468 164.409L583.138 80.0528C582.006 73.8272 576.042 69.6976 569.817 70.829Z" fill="#5F22D9"/>
<path opacity="0.34" d="M587.14 102.076L429.605 130.705L433.146 150.19L590.681 121.561L587.14 102.076Z" fill="white"/>
<path d="M560.206 171.768C567.301 171.768 573.052 166.017 573.052 158.922C573.052 151.827 567.301 146.076 560.206 146.076C553.111 146.076 547.36 151.827 547.36 158.922C547.36 166.017 553.111 171.768 560.206 171.768Z" fill="#F3F5FD"/>
<path d="M572.845 169.471C579.94 169.471 585.691 163.72 585.691 156.625C585.691 149.53 579.94 143.779 572.845 143.779C565.75 143.779 559.999 149.53 559.999 156.625C559.999 163.72 565.75 169.471 572.845 169.471Z" fill="#0CBC8B"/>
<path d="M593.466 118.961C593.466 118.961 587.141 118.238 587.141 124.107C587.141 129.976 589.88 131.02 592.489 131.02C595.098 131.02 597.189 130.259 596.141 126.205C595.093 122.151 595.487 119.685 593.466 118.961Z" fill="#E98862"/>
<path d="M439.047 161.312C443.762 164.128 448.898 166.17 454.259 167.359C459.538 168.438 465.396 168.454 470.443 165.623C470.774 165.437 471.041 165.155 471.209 164.815C471.378 164.475 471.44 164.091 471.387 163.715C471.334 163.34 471.169 162.988 470.914 162.707C470.659 162.426 470.324 162.229 469.955 162.141C464.908 161.019 459.965 159.471 455.179 157.513C453.599 156.861 452.116 155.994 450.773 154.937C453.003 154.662 456.033 154.103 455.932 153.108C455.667 150.492 445.582 150.326 442.647 149.808L439.047 161.312Z" fill="#E98862"/>
<path d="M441.719 166.825L380.926 143.878C379.445 143.319 378.103 142.444 376.994 141.314C375.885 140.185 375.035 138.827 374.504 137.335C373.973 135.843 373.774 134.254 373.919 132.678C374.065 131.101 374.552 129.575 375.347 128.206L405.238 76.706L424.1 87.646L400.667 128.022L449.422 146.422L441.719 166.825Z" fill="#5F22D9"/>
<path d="M444.979 52.437C445.021 52.262 445.053 52.085 445.086 51.908C445.412 50.118 445.699 48.157 445.91 46L448.21 45.992L462.153 45.955C461.25 49.3997 460.665 52.9202 460.407 56.472C460.374 56.872 460.35 57.285 460.336 57.699C460.332 57.7362 460.332 57.7738 460.336 57.811C460.318 58.357 460.31 58.9043 460.311 59.453C460.311 59.808 460.311 60.165 460.329 60.524C460.329 60.981 460.356 61.433 460.395 61.888C460.434 62.343 460.475 62.788 460.536 63.235C460.597 63.682 460.649 64.12 460.736 64.552C460.878 65.4001 461.086 66.236 461.357 67.052V67.062C461.837 68.6538 462.649 70.1257 463.74 71.38L439.028 66.87C441.052 64.488 443.487 60.165 444.979 52.437Z" fill="#E98862"/>
<path opacity="0.15" d="M461.363 67.081L450.129 54.709L460.4 56.475C460.058 60.0395 460.384 63.6365 461.363 67.081Z" fill="black"/>
<path d="M438.454 36.341C438.395 42.824 440.739 49.401 445.912 52.441C452.053 56.052 456.898 57.104 464.486 58.489C474.84 60.378 476.468 49.518 478.744 38.689C481.03 27.817 482.3 15.939 478.902 11.389C472.12 2.3 447.268 2.737 442.033 14.915C439.325 21.211 438.51 30.17 438.454 36.341Z" fill="#E98862"/>
<path d="M487.968 19.568C487.968 19.568 492.382 19.395 491.992 14.954C491.735 12.01 488.028 11.977 488.028 11.977C488.028 11.977 491.543 11.977 492.085 9.005C492.427 7.133 491.568 3.705 486.899 4.722C481.421 5.922 475.667 4.587 471.388 3.039C468.99 2.03656 466.521 1.21623 464 0.585L463.989 0.58C461.066 -0.00500772 458.072 -0.146595 455.107 0.16C446.787 1.081 433.555 5.977 433.167 22.477C432.734 40.893 439.884 49.271 443.179 52.141C443.374 52.3126 443.605 52.4378 443.855 52.507C444.105 52.5761 444.367 52.5876 444.622 52.5404C444.877 52.4931 445.118 52.3886 445.327 52.2345C445.536 52.0804 445.707 51.8809 445.827 51.651C447.487 48.488 450.835 40.377 453.504 22.881C477.973 26.116 485.016 27.029 485.016 27.029C485.016 27.029 490.687 28.284 491.448 24.114C492.209 19.944 487.968 19.568 487.968 19.568Z" fill="#0F1011"/>
<path d="M464.21 36.015C465.01 36.015 465.659 35.3663 465.659 34.566C465.659 33.7657 465.01 33.117 464.21 33.117C463.41 33.117 462.761 33.7657 462.761 34.566C462.761 35.3663 463.41 36.015 464.21 36.015Z" fill="#0F1011"/>
<path d="M475.624 37.145C476.424 37.145 477.073 36.4963 477.073 35.696C477.073 34.8957 476.424 34.247 475.624 34.247C474.824 34.247 474.175 34.8957 474.175 35.696C474.175 36.4963 474.824 37.145 475.624 37.145Z" fill="#0F1011"/>
<path d="M478.648 33.109H478.639L474.872 32.373C474.698 32.3363 474.545 32.2327 474.446 32.0845C474.347 31.9362 474.31 31.7552 474.343 31.5801C474.376 31.405 474.477 31.2499 474.623 31.148C474.769 31.0461 474.949 31.0055 475.125 31.035H475.133L478.901 31.771C479.075 31.8077 479.228 31.9113 479.327 32.0595C479.426 32.2078 479.463 32.3888 479.43 32.5639C479.397 32.739 479.296 32.8941 479.15 32.996C479.004 33.0979 478.824 33.1385 478.648 33.109Z" fill="#0F1011"/>
<path d="M461.6 31.421C461.437 31.3903 461.29 31.3009 461.188 31.1698C461.086 31.0386 461.036 30.8747 461.046 30.7089C461.057 30.5431 461.128 30.3869 461.245 30.2696C461.363 30.1523 461.519 30.082 461.685 30.072L465.572 29.855C465.752 29.8451 465.929 29.9072 466.064 30.0277C466.198 30.1481 466.28 30.3172 466.289 30.4975C466.299 30.6778 466.237 30.8548 466.117 30.9893C465.996 31.1239 465.827 31.2051 465.647 31.215L461.761 31.432C461.707 31.4344 461.653 31.4307 461.6 31.421Z" fill="#0F1011"/>
<path d="M456.158 36.7C455.989 38.3148 455.188 39.7973 453.93 40.8233C452.672 41.8493 451.058 42.3354 449.443 42.1753C447.827 42.0153 446.34 41.2221 445.308 39.9692C444.275 38.7163 443.78 37.1055 443.932 35.489C443.998 34.6812 444.226 33.8949 444.603 33.1771C444.979 32.4593 445.496 31.8246 446.123 31.3107C446.75 30.7969 447.474 30.4144 448.251 30.1862C449.029 29.9579 449.845 29.8885 450.65 29.982C454.983 30.628 456.492 33.325 456.158 36.7Z" fill="#E98862"/>
<g opacity="0.15">
<path d="M469.094 43.627C468.976 43.6059 468.869 43.543 468.793 43.4497C468.718 43.3565 468.678 43.2391 468.682 43.1191C468.686 42.9991 468.733 42.8844 468.814 42.7961C468.895 42.7078 469.006 42.6516 469.125 42.638L472.187 42.277L470.987 37.391C470.956 37.2626 470.978 37.1272 471.046 37.0144C471.115 36.9016 471.225 36.8205 471.354 36.789C471.482 36.7574 471.617 36.7779 471.731 36.8459C471.844 36.9139 471.926 37.024 471.958 37.152L473.298 42.587C473.315 42.6559 473.317 42.7276 473.305 42.7975C473.292 42.8673 473.264 42.9336 473.224 42.9919C473.183 43.0503 473.131 43.0994 473.07 43.136C473.009 43.1725 472.942 43.1957 472.871 43.204L469.247 43.631C469.196 43.6376 469.144 43.6363 469.094 43.627Z" fill="black"/>
</g>
<path d="M471.18 50.933C471.18 50.933 466.305 48.662 462.334 48.682C462.334 48.682 463.507 45.36 467.622 46.408C471.737 47.456 471.18 50.933 471.18 50.933Z" fill="#F8FCFF"/>
<path d="M126.833 471.658C196.881 471.658 253.666 414.873 253.666 344.825C253.666 274.777 196.881 217.992 126.833 217.992C56.7851 217.992 0 274.777 0 344.825C0 414.873 56.7851 471.658 126.833 471.658Z" fill="#0F1011"/>
<path d="M210.169 370.043L188.357 409.879C185.712 414.71 187.484 420.77 192.315 423.415L226.654 442.217C231.484 444.862 237.545 443.09 240.19 438.259L262.001 398.423C264.646 393.592 262.874 387.532 258.044 384.887L223.705 366.085C218.874 363.44 212.814 365.212 210.169 370.043Z" fill="#0F1011"/>
<path d="M60.2806 367.264H41.9888V315.664H60.4317C65.622 315.664 70.0899 316.697 73.8356 318.763C77.5813 320.812 80.462 323.76 82.4776 327.607C84.5101 331.453 85.5263 336.055 85.5263 341.414C85.5263 346.789 84.5101 351.408 82.4776 355.271C80.462 359.134 77.5645 362.099 73.7852 364.165C70.0228 366.231 65.5212 367.264 60.2806 367.264ZM52.8983 357.917H59.827C63.052 357.917 65.7647 357.345 67.9651 356.203C70.1823 355.044 71.8452 353.255 72.9538 350.837C74.0792 348.401 74.6419 345.26 74.6419 341.414C74.6419 337.601 74.0792 334.485 72.9538 332.066C71.8452 329.647 70.1907 327.867 67.9903 326.725C65.7899 325.583 63.0772 325.011 59.8522 325.011H52.8983V357.917ZM93.6077 367.264V315.664H128.377V324.659H104.517V336.954H126.588V345.949H104.517V358.269H128.478V367.264H93.6077ZM137.051 367.264V315.664H157.711C161.507 315.664 164.673 316.227 167.209 317.352C169.746 318.477 171.652 320.04 172.929 322.038C174.205 324.02 174.844 326.305 174.844 328.892C174.844 330.907 174.441 332.679 173.634 334.208C172.828 335.719 171.719 336.962 170.308 337.937C168.914 338.894 167.319 339.574 165.521 339.977V340.481C167.487 340.565 169.326 341.12 171.039 342.144C172.769 343.169 174.172 344.605 175.247 346.453C176.322 348.284 176.859 350.467 176.859 353.003C176.859 355.741 176.179 358.185 174.818 360.335C173.475 362.468 171.484 364.157 168.847 365.4C166.21 366.643 162.96 367.264 159.097 367.264H137.051ZM147.96 358.345H156.854C159.894 358.345 162.112 357.765 163.506 356.606C164.9 355.431 165.597 353.868 165.597 351.92C165.597 350.492 165.253 349.233 164.564 348.141C163.875 347.049 162.893 346.192 161.616 345.571C160.356 344.949 158.853 344.639 157.106 344.639H147.96V358.345ZM147.96 337.256H156.048C157.543 337.256 158.87 336.996 160.029 336.475C161.205 335.938 162.128 335.182 162.8 334.208C163.489 333.234 163.833 332.066 163.833 330.706C163.833 328.841 163.17 327.338 161.843 326.196C160.533 325.053 158.668 324.482 156.25 324.482H147.96V337.256ZM181.993 324.659V315.664H224.371V324.659H208.574V367.264H197.79V324.659H181.993Z" fill="white"/>
</g>
<defs>
<clipPath id="clip0_1_2334">
<rect width="598.654" height="471.658" fill="white"/>
</clipPath>
</defs>
</svg>
