<svg width="610" height="513" viewBox="0 0 610 513" fill="none" xmlns="http://www.w3.org/2000/svg">
<g clip-path="url(#clip0_1_1174)">
<path d="M606.509 350.7C589.867 266.78 492.37 199.713 473.353 112.259C438.791 0.999997 324.873 -16.59 250.847 31.73C133.553 108.294 258.681 127.293 28.705 308.438C-28.082 353.167 -9.98699 550.608 168.659 505.3C264.799 480.915 294.026 477.493 337.27 473.478C446.269 463.354 634.444 491.568 606.509 350.7Z" fill="#F4F4F4"/>
<path d="M496 493.487L122.7 493.794C107.884 493.807 97.864 483.806 97.851 468.994L97.625 235.262L520.582 234.91L520.808 468.642C520.812 483.454 510.812 493.475 496 493.487Z" fill="white"/>
<path d="M122.663 494.794C115.135 494.794 108.686 492.328 104.01 487.66C99.334 482.992 96.85 476.531 96.843 468.991L96.616 234.26H97.616L521.572 233.907L521.8 468.639C521.813 484.087 511.443 494.475 496 494.488L122.7 494.795L122.663 494.794ZM98.618 236.258L98.843 468.989C98.849 475.989 101.124 481.954 105.422 486.245C109.72 490.536 115.676 492.794 122.663 492.794H122.691L495.991 492.487C510.241 492.475 519.808 482.887 519.791 468.64L519.565 235.908L98.618 236.258Z" fill="#292A2E"/>
<path d="M520.837 233.257L319.136 80.193C316.207 77.9799 312.635 76.784 308.963 76.787C305.292 76.7901 301.722 77.992 298.796 80.21L97.351 233.609C97.0907 233.807 96.8855 234.069 96.7548 234.368C96.6242 234.668 96.5725 234.997 96.6047 235.322C96.6369 235.648 96.7518 235.96 96.9387 236.228C97.1255 236.496 97.378 236.713 97.672 236.856L289.13 330.2C294.716 333.012 300.861 334.537 307.114 334.663C313.367 334.788 319.568 333.512 325.263 330.927C325.463 330.836 325.663 330.743 325.863 330.65L520.517 236.511C520.813 236.369 521.066 236.153 521.255 235.884C521.443 235.615 521.558 235.302 521.591 234.976C521.623 234.649 521.572 234.32 521.44 234.019C521.309 233.719 521.103 233.457 520.841 233.259L520.837 233.257Z" fill="#292A2E"/>
<path d="M394.627 162.641C401.775 194.297 411.562 214.663 406.689 226.359C404.127 232.508 398.869 237.659 390.166 237.659C376.599 237.659 376.599 221.659 363.031 221.659C349.463 221.659 349.466 237.659 335.9 237.659C322.334 237.659 322.335 221.659 308.77 221.659C295.205 221.659 295.205 237.659 281.64 237.659C268.075 237.659 268.075 221.659 254.51 221.659C240.945 221.659 240.947 237.659 227.383 237.659C219.33 237.659 214.778 232.916 211.891 227.436C204.953 214.268 221.123 185.292 227.383 159.742C234.301 131.507 233.718 96.342 234.646 75.129C236.437 34.23 267.837 1 308.779 1C349.721 1 379.93 34.3 382.912 75.133C384.52 97.147 388.084 133.663 394.627 162.641Z" fill="white"/>
<path d="M390.166 238.663C382.919 238.663 379.318 234.417 375.836 230.31C372.501 226.377 369.352 222.663 363.031 222.663C356.71 222.663 353.563 226.377 350.231 230.31C346.748 234.416 343.148 238.663 335.902 238.663C328.656 238.663 325.056 234.417 321.574 230.31C318.24 226.377 315.091 222.663 308.774 222.663C302.457 222.663 299.306 226.377 295.974 230.31C292.492 234.416 288.892 238.663 281.646 238.663C274.4 238.663 270.8 234.417 267.318 230.31C263.984 226.377 260.835 222.663 254.518 222.663C248.201 222.663 245.051 226.377 241.718 230.31C238.236 234.416 234.637 238.663 227.391 238.663C220.185 238.663 214.828 235.145 211.014 227.905C206.177 218.725 211.987 202.492 218.138 185.305C221.33 176.85 224.095 168.239 226.42 159.505C231.952 136.925 232.652 110.392 233.214 89.071C233.347 84.028 233.472 79.265 233.656 75.087C234.387 55.2035 242.464 36.2972 256.326 22.024C263.151 15.0306 271.31 9.47792 280.32 5.69486C289.33 1.9118 299.007 -0.0247206 308.779 0C318.49 -0.0233403 328.105 1.9188 337.045 5.70947C345.985 9.50015 354.066 15.0609 360.8 22.057C374.216 35.87 382.424 54.694 383.911 75.057C385.346 94.693 388.771 132.157 395.605 162.418C397.922 172.683 400.517 181.75 402.805 189.75C407.584 206.455 411.037 218.524 407.613 226.741C405.757 231.2 401.025 238.663 390.166 238.663ZM363.031 220.663C370.278 220.663 373.879 224.909 377.361 229.017C380.696 232.949 383.846 236.663 390.166 236.663C399.866 236.663 404.103 229.963 405.766 225.975C408.92 218.404 405.547 206.617 400.88 190.303C398.58 182.277 395.98 173.182 393.651 162.862C386.789 132.47 383.351 94.897 381.915 75.206C378.866 33.472 347.425 2 308.779 2C269.566 2 237.442 34.143 235.646 75.177C235.464 79.337 235.338 84.092 235.205 89.126C234.671 109.412 233.938 137.194 228.355 159.983C226.014 168.785 223.23 177.462 220.013 185.983C214.013 202.741 208.348 218.571 212.776 226.975C216.211 233.494 220.989 236.664 227.383 236.664C233.702 236.664 236.851 232.95 240.183 229.018C243.665 224.91 247.264 220.664 254.509 220.664C261.754 220.664 265.355 224.91 268.837 229.018C272.171 232.95 275.319 236.664 281.637 236.664C287.955 236.664 291.106 232.949 294.437 229.018C297.918 224.91 301.519 220.664 308.764 220.664C316.009 220.664 319.61 224.911 323.092 229.018C326.426 232.95 329.574 236.664 335.892 236.664C342.21 236.664 345.361 232.949 348.692 229.018C352.185 224.909 355.785 220.663 363.031 220.663Z" fill="#292A2E"/>
<path d="M280.922 79.916C285.46 79.916 289.139 76.2371 289.139 71.699C289.139 67.1609 285.46 63.482 280.922 63.482C276.384 63.482 272.705 67.1609 272.705 71.699C272.705 76.2371 276.384 79.916 280.922 79.916Z" fill="#292A2E"/>
<path d="M337.27 79.916C341.808 79.916 345.487 76.2371 345.487 71.699C345.487 67.1609 341.808 63.482 337.27 63.482C332.732 63.482 329.053 67.1609 329.053 71.699C329.053 76.2371 332.732 79.916 337.27 79.916Z" fill="#292A2E"/>
<path d="M323.811 93.877C324.285 93.8757 324.754 93.9802 325.183 94.1828C325.612 94.3855 325.99 94.6812 326.29 95.0485C326.59 95.4157 326.804 95.8453 326.918 96.3059C327.031 96.7665 327.04 97.2465 326.944 97.711C325.183 105.951 317.861 111.129 309.096 111.129C300.331 111.129 293.009 105.951 291.247 97.711C291.151 97.2464 291.161 96.7664 291.274 96.3058C291.387 95.8452 291.602 95.4157 291.902 95.0484C292.202 94.6812 292.58 94.3855 293.009 94.1829C293.438 93.9802 293.907 93.8757 294.381 93.877H323.811Z" fill="white"/>
<path d="M309.1 112.129C299.656 112.129 292.09 106.419 290.273 97.92C290.143 97.3144 290.151 96.6874 290.296 96.0852C290.442 95.4831 290.72 94.9212 291.111 94.441C291.505 93.9518 292.003 93.5572 292.57 93.2865C293.137 93.0158 293.757 92.8759 294.385 92.877H323.815C324.443 92.8764 325.063 93.0165 325.63 93.2872C326.196 93.5579 326.695 93.9521 327.089 94.441C327.48 94.9212 327.758 95.4831 327.903 96.0853C328.048 96.6874 328.056 97.3144 327.926 97.92C326.106 106.419 318.539 112.129 309.1 112.129ZM294.381 94.877C294.051 94.8767 293.725 94.9504 293.428 95.0926C293.13 95.2349 292.868 95.4421 292.661 95.699C292.459 95.9475 292.314 96.2381 292.239 96.5496C292.163 96.861 292.159 97.1854 292.225 97.499C293.839 105.052 300.619 110.126 309.096 110.126C317.573 110.126 324.352 105.052 325.967 97.499C326.033 97.1853 326.028 96.8608 325.952 96.5493C325.877 96.2378 325.732 95.9472 325.529 95.699C325.323 95.442 325.061 95.2347 324.764 95.0925C324.466 94.9502 324.141 94.8765 323.811 94.877H294.381Z" fill="#292A2E"/>
<path d="M513 487.669C512.83 487.669 512.663 487.626 512.515 487.543C512.366 487.461 512.241 487.342 512.151 487.198L471.882 422.716C471.812 422.604 471.766 422.48 471.744 422.35C471.723 422.221 471.727 422.088 471.757 421.96C471.786 421.832 471.841 421.711 471.918 421.604C471.994 421.497 472.091 421.406 472.203 421.337C472.314 421.267 472.438 421.22 472.568 421.199C472.698 421.177 472.831 421.181 472.959 421.211C473.087 421.241 473.208 421.296 473.315 421.372C473.422 421.449 473.512 421.545 473.582 421.657L513.851 486.14C513.945 486.291 513.998 486.465 514.002 486.644C514.007 486.822 513.963 486.998 513.877 487.154C513.79 487.31 513.664 487.44 513.51 487.531C513.356 487.621 513.181 487.669 513.003 487.669H513Z" fill="#292A2E"/>
<path d="M424.7 494.573C424.447 494.572 424.203 494.475 424.018 494.302C423.834 494.129 423.722 493.891 423.705 493.639C423.688 493.386 423.768 493.136 423.929 492.94C424.089 492.744 424.318 492.616 424.569 492.582C424.744 492.559 442.147 490.115 448.953 478.733C452.434 472.914 452.589 465.689 449.415 457.26C449.342 457.067 449.331 456.857 449.382 456.657C449.434 456.458 449.546 456.279 449.703 456.145C449.86 456.012 450.054 455.93 450.259 455.911C450.464 455.892 450.67 455.937 450.849 456.04C450.989 456.12 464.927 464.003 473.476 458.652C478.744 455.352 481.006 447.673 480.195 435.815C480.183 435.636 480.219 435.458 480.299 435.298C480.38 435.138 480.502 435.002 480.652 434.905C480.803 434.808 480.977 434.754 481.156 434.747C481.335 434.741 481.513 434.783 481.67 434.868C481.823 434.95 497.231 443.157 508.709 438.268C514.067 435.98 517.794 431.146 519.784 423.898C519.816 423.768 519.873 423.646 519.953 423.539C520.033 423.432 520.133 423.342 520.249 423.274C520.364 423.206 520.491 423.162 520.624 423.145C520.756 423.127 520.891 423.136 521.02 423.172C521.149 423.207 521.269 423.268 521.374 423.351C521.479 423.433 521.566 423.536 521.631 423.653C521.695 423.77 521.736 423.899 521.75 424.032C521.764 424.165 521.751 424.299 521.712 424.427C519.552 432.296 515.439 437.572 509.487 440.109C499.232 444.482 486.666 439.461 482.287 437.409C482.808 449.094 480.201 456.809 474.529 460.354C467.087 465.007 456.655 461.07 452.104 458.93C454.62 466.963 454.139 473.964 450.663 479.77C443.353 491.981 425.584 494.47 424.831 494.57C424.787 494.574 424.744 494.575 424.7 494.573Z" fill="#292A2E"/>
<path d="M470.743 494.577C470.594 494.577 470.499 494.577 470.471 494.577C470.207 494.566 469.957 494.451 469.778 494.256C469.598 494.062 469.503 493.804 469.513 493.54C469.515 493.408 469.544 493.278 469.597 493.157C469.651 493.036 469.729 492.928 469.825 492.838C469.922 492.748 470.036 492.679 470.161 492.634C470.285 492.59 470.417 492.571 470.549 492.579C470.607 492.587 476.288 492.746 478.865 489.163C480.651 486.682 480.611 482.916 478.749 477.97C478.679 477.784 478.666 477.581 478.711 477.388C478.757 477.195 478.859 477.019 479.005 476.884C479.151 476.749 479.333 476.66 479.53 476.63C479.726 476.599 479.927 476.627 480.107 476.711C480.207 476.756 490.096 481.287 495.47 477.594C498.151 475.753 499.322 472.067 498.951 466.638C498.939 466.465 498.972 466.291 499.048 466.135C499.123 465.978 499.238 465.844 499.381 465.746C499.524 465.647 499.69 465.587 499.863 465.572C500.036 465.558 500.21 465.588 500.368 465.661C500.468 465.705 509.849 469.961 515.494 466.605C518.064 465.079 519.513 462.128 519.802 457.833C519.811 457.702 519.845 457.573 519.904 457.455C519.962 457.337 520.043 457.232 520.143 457.146C520.242 457.059 520.357 456.993 520.482 456.951C520.606 456.909 520.738 456.892 520.869 456.901C521.001 456.909 521.129 456.944 521.247 457.002C521.365 457.061 521.47 457.142 521.557 457.241C521.643 457.34 521.71 457.455 521.752 457.58C521.794 457.705 521.811 457.837 521.802 457.968C521.465 462.96 519.687 466.445 516.515 468.327C511.377 471.375 504.115 469.242 501.015 468.084C501.099 473.424 499.615 477.175 496.598 479.245C491.884 482.479 484.798 480.601 481.324 479.353C482.689 483.983 482.408 487.672 480.482 490.341C477.6 494.333 472.051 494.577 470.743 494.577Z" fill="#292A2E"/>
<path d="M501.472 493.992C501.266 493.992 501.065 493.929 500.896 493.81L438.496 449.766C438.279 449.613 438.132 449.38 438.087 449.119C438.042 448.857 438.102 448.588 438.255 448.371C438.409 448.155 438.641 448.008 438.903 447.962C439.164 447.917 439.433 447.978 439.65 448.131L502.05 492.175C502.224 492.298 502.354 492.472 502.421 492.674C502.489 492.875 502.491 493.093 502.426 493.295C502.362 493.498 502.235 493.674 502.063 493.8C501.891 493.925 501.684 493.992 501.472 493.992Z" fill="#292A2E"/>
</g>
<defs>
<clipPath id="clip0_1_1174">
<rect width="609.302" height="512.004" fill="white"/>
</clipPath>
</defs>
</svg>
