<svg width="657" height="721" viewBox="0 0 657 721" fill="none" xmlns="http://www.w3.org/2000/svg">
<g clip-path="url(#clip0_1_97)">
<path opacity="0.1" d="M328.305 720.356C509.623 720.356 656.61 573.369 656.61 392.051C656.61 210.733 509.623 63.746 328.305 63.746C146.987 63.746 0 210.733 0 392.051C0 573.369 146.987 720.356 328.305 720.356Z" fill="#367CFF"/>
<path d="M219.864 185.827C219.681 185.827 219.501 185.776 219.345 185.68C219.188 185.585 219.061 185.448 218.977 185.285C218.893 185.123 218.856 184.94 218.868 184.757C218.881 184.574 218.944 184.399 219.05 184.249C219.234 183.987 237.308 157.859 217.132 134.04C213.561 129.801 209.105 126.395 204.078 124.06C199.051 121.725 193.575 120.518 188.032 120.523H187.766C189.682 127.179 189.34 133.097 186.627 137.637C185.471 139.689 183.765 141.377 181.701 142.511C179.637 143.645 177.298 144.181 174.946 144.057C173 143.898 171.142 143.174 169.6 141.975C168.059 140.775 166.901 139.153 166.268 137.305C164.049 131.517 166.368 125.905 172.479 122.288C176.351 120.153 180.653 118.916 185.068 118.668C183.632 114.86 181.765 111.229 179.503 107.846C172.218 96.72 158.94 89.019 143.074 86.716C129.629 84.764 116.743 87.062 110.242 92.568C110.04 92.7395 109.777 92.8235 109.513 92.8017C109.249 92.7798 109.004 92.6539 108.832 92.4515C108.661 92.2491 108.577 91.987 108.599 91.7226C108.621 91.4583 108.747 91.2135 108.949 91.042C115.868 85.182 129.375 82.705 143.361 84.737C159.795 87.122 173.577 95.146 181.177 106.751C183.641 110.431 185.645 114.399 187.145 118.566C193.123 118.422 199.057 119.622 204.51 122.076C209.963 124.53 214.796 128.176 218.653 132.746C239.847 157.765 220.871 185.132 220.677 185.405C220.585 185.535 220.463 185.641 220.322 185.715C220.18 185.788 220.023 185.827 219.864 185.827ZM185.717 120.6C181.436 120.781 177.256 121.948 173.5 124.01C168.224 127.133 166.27 131.718 168.137 136.59C168.643 138.083 169.573 139.396 170.813 140.369C172.053 141.341 173.551 141.931 175.121 142.066C177.098 142.154 179.061 141.691 180.79 140.728C182.519 139.765 183.946 138.34 184.912 136.612C187.406 132.442 187.635 126.9 185.717 120.6Z" fill="#292A2E"/>
<path d="M92.985 108.7C91.2875 109.208 89.4585 109.034 87.8875 108.214C86.3166 107.394 85.1277 105.994 84.5741 104.31C84.0205 102.627 84.1459 100.794 84.9236 99.2017C85.7013 97.6094 87.0698 96.3836 88.7378 95.7853C90.4058 95.187 92.2414 95.2634 93.8539 95.9983C95.4664 96.7332 96.7283 98.0686 97.3709 99.72C98.0135 101.371 97.9861 103.208 97.2945 104.84C96.6029 106.471 95.3017 107.769 93.668 108.455C93.4448 108.549 93.2168 108.63 92.985 108.7ZM89.66 97.583C89.4979 97.6323 89.3384 97.6897 89.182 97.755C88.0302 98.2398 87.1131 99.1552 86.6262 100.306C86.1392 101.457 86.1209 102.753 86.575 103.917C87.0291 105.081 87.9199 106.022 89.0575 106.539C90.1952 107.057 91.4898 107.109 92.6657 106.686C93.8416 106.263 94.8058 105.398 95.3531 104.274C95.9003 103.151 95.9873 101.858 95.5954 100.671C95.2036 99.4844 94.364 98.4975 93.2553 97.9207C92.1467 97.3439 90.8567 97.2228 89.66 97.583Z" fill="#292A2E"/>
<path d="M92.972 93.022C91.3645 93.5016 89.6364 93.3701 88.12 92.6528C86.6036 91.9355 85.4058 90.683 84.757 89.136C84.2366 87.8958 84.0957 86.5291 84.3521 85.2088C84.6085 83.8885 85.2506 82.6738 86.1974 81.7185C87.1441 80.7632 88.3529 80.11 89.6708 79.8417C90.9888 79.5734 92.3567 79.7019 93.6016 80.2111C94.8464 80.7202 95.9124 81.5871 96.6646 82.7021C97.4168 83.817 97.8214 85.13 97.8273 86.475C97.8333 87.82 97.4402 89.1365 96.6979 90.2581C95.9556 91.3796 94.8973 92.2559 93.657 92.776C93.433 92.8696 93.2044 92.9517 92.972 93.022ZM89.651 81.908C89.4874 81.9572 89.3265 82.0149 89.169 82.081C87.9957 82.5736 87.066 83.5119 86.5842 84.6897C86.1025 85.8675 86.1082 87.1884 86.6 88.362C86.9587 89.2174 87.5576 89.9506 88.3243 90.4728C89.0909 90.995 89.9925 91.2839 90.9199 91.3045C91.8472 91.3251 92.7607 91.0766 93.5498 90.589C94.3389 90.1013 94.9698 89.3955 95.3662 88.5569C95.7626 87.7182 95.9075 86.7827 95.7834 85.8634C95.6592 84.9442 95.2714 84.0805 94.6668 83.3771C94.0622 82.6736 93.2667 82.1603 92.3765 81.8995C91.4864 81.6386 90.5397 81.6422 89.651 81.908Z" fill="#292A2E"/>
<path d="M91.032 100.094C95.9429 100.094 99.924 97.435 99.924 94.155C99.924 90.875 95.9429 88.216 91.032 88.216C86.1211 88.216 82.14 90.875 82.14 94.155C82.14 97.435 86.1211 100.094 91.032 100.094Z" fill="white"/>
<path d="M94.965 100.53C93.6902 100.907 92.3674 101.097 91.038 101.094C85.491 101.094 81.143 98.054 81.138 94.163C81.133 90.272 85.478 87.221 91.024 87.216C93.4419 87.1697 95.8208 87.8301 97.869 89.116C98.7886 89.5954 99.5592 90.3176 100.097 91.2041C100.635 92.0906 100.92 93.1076 100.921 94.1446C100.922 95.1816 100.639 96.199 100.102 97.0864C99.5653 97.9738 98.7958 98.6971 97.877 99.178C96.9787 99.7705 95.9973 100.226 94.965 100.53ZM87.706 89.7C85.034 90.5 83.139 92.226 83.141 94.166C83.141 96.844 86.758 99.102 91.036 99.099C93.059 99.1414 95.0505 98.5934 96.767 97.522C97.411 97.2254 97.9563 96.7503 98.3384 96.1531C98.7205 95.5559 98.9233 94.8616 98.9226 94.1526C98.922 93.4436 98.718 92.7497 98.3349 92.1531C97.9517 91.5566 97.4055 91.0825 96.761 90.787C95.0428 89.719 93.0506 89.1748 91.028 89.221C89.9033 89.2188 88.7843 89.3801 87.706 89.7Z" fill="#292A2E"/>
<path d="M93.213 99.912L93.003 88.363L90.131 88.246L89.93 100.047L93.213 99.912Z" fill="#292A2E"/>
<path d="M79.235 96.667C79.742 96.667 80.153 96.256 80.153 95.749C80.153 95.242 79.742 94.831 79.235 94.831C78.728 94.831 78.317 95.242 78.317 95.749C78.317 96.256 78.728 96.667 79.235 96.667Z" fill="#292A2E"/>
<path d="M79.952 91.755C80.459 91.755 80.87 91.344 80.87 90.837C80.87 90.33 80.459 89.919 79.952 89.919C79.445 89.919 79.034 90.33 79.034 90.837C79.034 91.344 79.445 91.755 79.952 91.755Z" fill="#292A2E"/>
<path d="M384.645 132.766C384.431 132.766 384.223 132.697 384.05 132.57C383.878 132.443 383.752 132.264 383.689 132.059C380.371 119.673 379.486 106.761 381.083 94.038C383.668 75.438 393.925 51.027 428.113 40.338C432.923 38.7913 437.857 37.6602 442.861 36.957C444.471 26.9 450.6 15.981 464.3 8.451C496.863 -9.441 518.858 6.612 519.076 6.776C519.288 6.93513 519.428 7.17203 519.466 7.43458C519.503 7.69713 519.435 7.96383 519.276 8.176C519.117 8.38817 518.88 8.52844 518.617 8.56595C518.355 8.60346 518.088 8.53513 517.876 8.376C517.668 8.22 496.648 -7.041 465.265 10.205C452.459 17.242 446.596 27.342 444.929 36.718C460.008 35.233 467.229 40.263 470.47 44.062C472.476 46.3462 473.766 49.1701 474.178 52.1821C474.59 55.194 474.107 58.2607 472.789 61C471.746 63.2131 470.057 65.058 467.944 66.2915C465.831 67.5249 463.394 68.0889 460.954 67.909C452.533 67.415 445.564 60.331 443.202 49.861C442.422 46.3168 442.215 42.6707 442.588 39.061C437.882 39.7371 433.24 40.8045 428.711 42.252C402.066 50.583 386.711 68.102 383.063 94.319C381.5 106.753 382.362 119.373 385.601 131.479C385.647 131.629 385.657 131.787 385.631 131.941C385.604 132.095 385.542 132.241 385.449 132.367C385.356 132.492 385.235 132.594 385.095 132.665C384.956 132.735 384.801 132.772 384.645 132.772V132.766ZM444.627 38.811C444.21 42.352 444.388 45.9376 445.153 49.42C447.314 58.998 453.562 65.471 461.071 65.912C463.118 66.0585 465.161 65.5831 466.932 64.548C468.704 63.513 470.122 61.9668 470.999 60.112C472.141 57.7236 472.557 55.052 472.192 52.4296C471.828 49.8072 470.701 47.3497 468.951 45.363C464.275 39.876 455.742 37.66 444.627 38.811Z" fill="#292A2E"/>
<path d="M542.374 16.884C541.027 16.8814 539.708 16.4979 538.57 15.7779C537.432 15.0578 536.52 14.0306 535.941 12.8147C535.361 11.5988 535.137 10.2438 535.295 8.90612C535.453 7.56845 535.985 6.30262 536.832 5.25474C537.678 4.20686 538.803 3.41965 540.078 2.98397C541.352 2.54828 542.724 2.48189 544.035 2.79244C545.345 3.103 546.541 3.77785 547.485 4.7391C548.428 5.70035 549.081 6.90881 549.367 8.225C549.591 9.26824 549.579 10.3484 549.332 11.3864C549.085 12.4244 548.608 13.3939 547.938 14.2241C547.267 15.0542 546.42 15.7239 545.457 16.1841C544.494 16.6444 543.441 16.8835 542.374 16.884ZM542.389 4.6C541.325 4.59977 540.288 4.92946 539.419 5.54364C538.551 6.15782 537.894 7.02624 537.54 8.0292C537.186 9.03216 537.152 10.1203 537.442 11.1436C537.732 12.1669 538.333 13.075 539.161 13.7427C539.988 14.4105 541.003 14.805 542.065 14.8718C543.126 14.9387 544.182 14.6746 545.088 14.1161C545.993 13.5575 546.702 12.7319 547.119 11.7531C547.535 10.7743 547.638 9.69048 547.412 8.651C547.17 7.50018 546.538 6.4683 545.623 5.73007C544.707 4.99184 543.565 4.59262 542.389 4.6Z" fill="#292A2E"/>
<path d="M539.362 33.205C537.529 33.2046 535.766 32.5016 534.436 31.2407C533.106 29.9798 532.31 28.2569 532.212 26.4268C532.114 24.5966 532.721 22.7984 533.908 21.4024C535.096 20.0064 536.773 19.1188 538.596 18.9223C540.418 18.7258 542.246 19.2353 543.704 20.346C545.162 21.4568 546.138 23.0841 546.433 24.8931C546.727 26.7021 546.316 28.5551 545.286 30.0706C544.255 31.5861 542.683 32.6489 540.892 33.04C540.389 33.1497 539.876 33.205 539.362 33.205ZM539.388 20.92C539.018 20.9202 538.649 20.9601 538.288 21.039C537.011 21.3195 535.889 22.079 535.155 23.1611C534.42 24.2432 534.129 25.5657 534.339 26.8564C534.55 28.1471 535.248 29.3079 536.289 30.0999C537.329 30.892 538.634 31.255 539.934 31.1143C541.235 30.9737 542.432 30.34 543.279 29.3437C544.126 28.3475 544.559 27.0644 544.489 25.7584C544.419 24.4524 543.851 23.223 542.902 22.323C541.954 21.423 540.696 20.9209 539.388 20.92Z" fill="#292A2E"/>
<path d="M550.102 19.806C550.732 16.3904 547.097 12.8565 541.983 11.9128C536.869 10.9691 532.213 12.9731 531.583 16.3887C530.952 19.8044 534.587 23.3383 539.701 24.282C544.815 25.2256 549.472 23.2217 550.102 19.806Z" fill="white"/>
<path d="M542.224 25.516C541.318 25.5145 540.415 25.4309 539.524 25.266C537.009 24.8488 534.67 23.7067 532.795 21.98C531.974 21.2796 531.343 20.3836 530.96 19.3747C530.577 18.3658 530.455 17.2767 530.604 16.208C530.846 15.1564 531.349 14.1828 532.067 13.3771C532.785 12.5713 533.694 11.9595 534.711 11.598C537.09 10.6992 539.669 10.468 542.17 10.9294C544.671 11.3909 546.998 12.5274 548.9 14.216C549.721 14.9164 550.352 15.8124 550.735 16.8213C551.118 17.8302 551.24 18.9193 551.091 19.988C550.849 21.0396 550.346 22.0132 549.628 22.8189C548.91 23.6247 548.001 24.2365 546.984 24.598C545.476 25.2223 543.856 25.5346 542.224 25.516ZM539.462 12.678C538.104 12.6607 536.757 12.9182 535.501 13.435C534.79 13.673 534.15 14.0843 533.638 14.6318C533.127 15.1794 532.759 15.8459 532.57 16.571C532.487 17.316 532.592 18.0698 532.875 18.764C533.158 19.4581 533.609 20.0707 534.189 20.546C535.807 21.9578 537.774 22.9084 539.885 23.2981C541.997 23.6878 544.174 23.5023 546.189 22.761C546.9 22.5231 547.54 22.1118 548.051 21.5642C548.563 21.0167 548.93 20.3501 549.119 19.625C549.201 18.8801 549.096 18.1264 548.813 17.4324C548.53 16.7383 548.079 16.1257 547.5 15.65C545.908 14.1978 543.927 13.2411 541.8 12.897C541.029 12.7534 540.246 12.6801 539.462 12.678Z" fill="#292A2E"/>
<path d="M539.688 11.682L537.677 23.748L540.644 24.424L543.132 12.175L539.688 11.682Z" fill="#292A2E"/>
<path d="M551.743 24.663C552.28 24.663 552.715 24.2278 552.715 23.691C552.715 23.1542 552.28 22.719 551.743 22.719C551.206 22.719 550.771 23.1542 550.771 23.691C550.771 24.2278 551.206 24.663 551.743 24.663Z" fill="#292A2E"/>
<path d="M553.437 19.687C553.974 19.687 554.409 19.2518 554.409 18.715C554.409 18.1782 553.974 17.743 553.437 17.743C552.9 17.743 552.465 18.1782 552.465 18.715C552.465 19.2518 552.9 19.687 553.437 19.687Z" fill="#292A2E"/>
<path d="M555.459 200.3V573.8C555.459 578.062 553.766 582.149 550.753 585.162C547.739 588.176 543.652 589.869 539.39 589.869H67.219C62.9572 589.869 58.87 588.176 55.8565 585.162C52.843 582.149 51.15 578.062 51.15 573.8V273.22C51.1503 268.958 52.8433 264.871 55.8568 261.858C58.8703 258.844 62.9573 257.151 67.219 257.151H350.436C354.698 257.151 358.785 255.458 361.799 252.445C364.812 249.431 366.505 245.344 366.505 241.082V200.3C366.505 196.038 368.198 191.951 371.211 188.938C374.225 185.924 378.312 184.231 382.574 184.231H539.39C543.652 184.231 547.739 185.924 550.753 188.938C553.766 191.951 555.459 196.038 555.459 200.3Z" fill="#367CFF"/>
<path d="M539.39 590.868H67.22C62.6946 590.863 58.356 589.063 55.1559 585.863C51.9558 582.664 50.1556 578.325 50.15 573.8V273.22C50.1556 268.695 51.9558 264.356 55.1559 261.157C58.356 257.957 62.6946 256.157 67.22 256.152H350.437C354.432 256.147 358.263 254.558 361.088 251.733C363.912 248.908 365.502 245.077 365.506 241.082V200.3C365.511 195.775 367.311 191.436 370.511 188.236C373.71 185.036 378.049 183.236 382.574 183.231H539.39C543.915 183.236 548.254 185.036 551.454 188.236C554.654 191.436 556.454 195.775 556.459 200.3V573.8C556.454 578.325 554.654 582.664 551.454 585.863C548.254 589.063 543.915 590.863 539.39 590.868ZM67.22 258.152C63.2248 258.156 59.3945 259.745 56.5693 262.57C53.7441 265.395 52.1548 269.225 52.15 273.22V573.8C52.1545 577.795 53.7437 581.626 56.5689 584.451C59.3942 587.276 63.2247 588.865 67.22 588.869H539.39C543.385 588.865 547.215 587.275 550.04 584.45C552.865 581.625 554.454 577.795 554.459 573.8V200.3C554.454 196.305 552.865 192.475 550.04 189.65C547.215 186.825 543.385 185.236 539.39 185.231H382.574C378.579 185.236 374.749 186.825 371.924 189.65C369.099 192.475 367.511 196.305 367.506 200.3V241.079C367.501 245.605 365.701 249.943 362.501 253.143C359.301 256.344 354.963 258.144 350.437 258.149L67.22 258.152Z" fill="#262626"/>
<path d="M585.459 200.3V573.8C585.459 578.062 583.766 582.149 580.753 585.162C577.739 588.176 573.652 589.869 569.39 589.869H97.219C92.9572 589.869 88.87 588.176 85.8565 585.162C82.843 582.149 81.15 578.062 81.15 573.8V273.22C81.1503 268.958 82.8433 264.871 85.8568 261.858C88.8703 258.844 92.9573 257.151 97.219 257.151H380.436C384.698 257.151 388.785 255.458 391.799 252.445C394.812 249.431 396.505 245.344 396.505 241.082V200.3C396.505 196.038 398.198 191.951 401.211 188.938C404.225 185.924 408.312 184.231 412.574 184.231H569.39C573.652 184.231 577.739 185.924 580.753 188.938C583.766 191.951 585.459 196.038 585.459 200.3Z" fill="white"/>
<path d="M569.39 590.868H97.22C92.6946 590.863 88.356 589.063 85.1559 585.863C81.9558 582.664 80.1556 578.325 80.15 573.8V273.22C80.1556 268.695 81.9558 264.356 85.1559 261.157C88.356 257.957 92.6946 256.157 97.22 256.152H380.437C384.432 256.147 388.263 254.558 391.088 251.733C393.912 248.908 395.502 245.077 395.506 241.082V200.3C395.511 195.775 397.311 191.436 400.511 188.236C403.71 185.036 408.049 183.236 412.574 183.231H569.39C573.915 183.236 578.254 185.036 581.454 188.236C584.654 191.436 586.454 195.775 586.459 200.3V573.8C586.454 578.325 584.654 582.664 581.454 585.863C578.254 589.063 573.915 590.863 569.39 590.868ZM97.22 258.152C93.2248 258.156 89.3945 259.745 86.5693 262.57C83.7441 265.395 82.1548 269.225 82.15 273.22V573.8C82.1545 577.795 83.7437 581.626 86.5689 584.451C89.3942 587.276 93.2247 588.865 97.22 588.869H569.39C573.385 588.865 577.215 587.275 580.04 584.45C582.865 581.625 584.454 577.795 584.459 573.8V200.3C584.454 196.305 582.865 192.475 580.04 189.65C577.215 186.825 573.385 185.236 569.39 185.231H412.574C408.579 185.236 404.749 186.825 401.924 189.65C399.099 192.475 397.511 196.305 397.506 200.3V241.079C397.501 245.605 395.701 249.943 392.501 253.143C389.301 256.344 384.963 258.144 380.437 258.149L97.22 258.152Z" fill="#262626"/>
<path d="M295.206 388.724C301.343 388.724 306.318 383.749 306.318 377.612C306.318 371.475 301.343 366.5 295.206 366.5C289.069 366.5 284.094 371.475 284.094 377.612C284.094 383.749 289.069 388.724 295.206 388.724Z" fill="#292A2E"/>
<path d="M371.403 388.724C377.54 388.724 382.515 383.749 382.515 377.612C382.515 371.475 377.54 366.5 371.403 366.5C365.266 366.5 360.291 371.475 360.291 377.612C360.291 383.749 365.266 388.724 371.403 388.724Z" fill="#292A2E"/>
<path d="M348.203 406.602H318.406V408.602H348.203V406.602Z" fill="#262626"/>
<g opacity="0.1">
<path d="M283.743 409.398C289.218 409.398 293.656 407.062 293.656 404.181C293.656 401.3 289.218 398.964 283.743 398.964C278.268 398.964 273.83 401.3 273.83 404.181C273.83 407.062 278.268 409.398 283.743 409.398Z" fill="#367CFF"/>
<path d="M382.867 409.398C388.342 409.398 392.78 407.062 392.78 404.181C392.78 401.3 388.342 398.964 382.867 398.964C377.392 398.964 372.954 401.3 372.954 404.181C372.954 407.062 377.392 409.398 382.867 409.398Z" fill="#367CFF"/>
</g>
</g>
<defs>
<clipPath id="clip0_1_97">
<rect width="656.609" height="720.356" fill="white"/>
</clipPath>
</defs>
</svg>
