<svg width="1001" height="965" viewBox="0 0 1001 965" fill="none" xmlns="http://www.w3.org/2000/svg">
<g clip-path="url(#clip0_1_1500)">
<path d="M854.681 14.392H682.62V238.35H854.681V14.392Z" fill="#F4F4F4"/>
<path d="M854.681 238.351H860.263V14.393H854.681V238.351Z" fill="#F4F4F4"/>
<path opacity="0.05" d="M854.681 238.351H860.263V14.393H854.681V238.351Z" fill="#292A2E"/>
<path opacity="0.05" d="M823.338 55.189H713.963V197.554H823.338V55.189Z" fill="#292A2E"/>
<path opacity="0.03" d="M823.338 55.189H817.638V197.554H823.338V55.189Z" fill="#292A2E"/>
<path d="M995.399 293.426H854.681V435.436H995.399V293.426Z" fill="#F4F4F4"/>
<path opacity="0.05" d="M969.766 319.295H880.315V409.567H969.766V319.295Z" fill="#292A2E"/>
<path d="M995.399 435.436H1000.98V293.426H995.399V435.436Z" fill="#F4F4F4"/>
<path opacity="0.05" d="M995.399 435.436H1000.98V293.426H995.399V435.436Z" fill="#292A2E"/>
<path opacity="0.03" d="M969.766 319.295H964.066V409.567H969.766V319.295Z" fill="#292A2E"/>
<path d="M487.431 0H18.674V468.757H487.431V0Z" fill="#F4F4F4"/>
<path d="M492.804 0H487.431V468.757H492.804V0Z" fill="#F4F4F4"/>
<path opacity="0.05" d="M492.804 0H487.431V468.757H492.804V0Z" fill="#292A2E"/>
<path opacity="0.05" d="M373.872 323.012V200.37H273.41V271.622H117.794V397.784H51.655V468.757H117.794H130.536H464.882V323.012H373.872Z" fill="#292A2E"/>
<path opacity="0.34" d="M359.464 213.686H286.306V227.002H359.464V213.686Z" fill="#FFFFFA"/>
<path opacity="0.34" d="M359.464 241.28H286.306V254.596H359.464V241.28Z" fill="#FFFFFA"/>
<path opacity="0.34" d="M359.464 268.874H286.306V282.19H359.464V268.874Z" fill="#FFFFFA"/>
<path opacity="0.34" d="M451.909 335.938H438.425V349.254H451.909V335.938Z" fill="#FFFFFA"/>
<path opacity="0.34" d="M451.909 363.532H438.425V376.848H451.909V363.532Z" fill="#FFFFFA"/>
<path opacity="0.34" d="M451.909 391.126H438.425V404.442H451.909V391.126Z" fill="#FFFFFA"/>
<path opacity="0.34" d="M426.964 335.938H413.48V349.254H426.964V335.938Z" fill="#FFFFFA"/>
<path opacity="0.34" d="M426.964 363.532H413.48V376.848H426.964V363.532Z" fill="#FFFFFA"/>
<path opacity="0.34" d="M426.964 391.126H413.48V404.442H426.964V391.126Z" fill="#FFFFFA"/>
<path opacity="0.34" d="M402.693 335.938H389.209V349.254H402.693V335.938Z" fill="#FFFFFA"/>
<path opacity="0.34" d="M402.693 363.532H389.209V376.848H402.693V363.532Z" fill="#FFFFFA"/>
<path opacity="0.34" d="M402.693 391.126H389.209V404.442H402.693V391.126Z" fill="#FFFFFA"/>
<path d="M487.431 231.749H393.109V0H385.309V231.749H130.536V0H122.735V231.749H18.674V239.55H122.735V468.757H130.536V239.55H385.309V468.757H393.109V239.55H487.431V231.749Z" fill="white"/>
<path d="M506.105 468.192H0V483.781H506.105V468.192Z" fill="#F4F4F4"/>
<path opacity="0.1" d="M506.105 468.192H0V483.781H506.105V468.192Z" fill="#292A2E"/>
<path opacity="0.1" d="M513.412 468.192H506.105V483.781H513.412V468.192Z" fill="#292A2E"/>
<path opacity="0.1" d="M513.412 468.192H506.105V483.781H513.412V468.192Z" fill="#292A2E"/>
<path opacity="0.05" d="M753.547 944.854H727.508V962.244H753.547V944.854Z" fill="#292A2E"/>
<path opacity="0.05" d="M917.01 944.854H890.971V962.244H917.01V944.854Z" fill="#292A2E"/>
<path d="M940.878 679.905H703.639V944.854H940.878V679.905Z" fill="#F4F4F4"/>
<path opacity="0.03" d="M940.878 679.905H703.639V944.854H940.878V679.905Z" fill="#292A2E"/>
<path d="M877.872 679.905H640.633V944.854H877.872V679.905Z" fill="#F4F4F4"/>
<path opacity="0.05" d="M690.541 944.854H664.502V962.244H690.541V944.854Z" fill="#292A2E"/>
<path opacity="0.05" d="M854.003 944.854H827.964V962.244H854.003V944.854Z" fill="#292A2E"/>
<path opacity="0.7" d="M865.108 696.287H653.395V763.485H865.108V696.287Z" fill="white"/>
<path opacity="0.7" d="M865.108 779.933H653.395V847.131H865.108V779.933Z" fill="white"/>
<path opacity="0.7" d="M865.108 863.578H653.395V930.776H865.108V863.578Z" fill="white"/>
<path opacity="0.05" d="M759.252 739.289C764.445 739.289 768.655 735.079 768.655 729.886C768.655 724.693 764.445 720.483 759.252 720.483C754.059 720.483 749.849 724.693 749.849 729.886C749.849 735.079 754.059 739.289 759.252 739.289Z" fill="#292A2E"/>
<path opacity="0.05" d="M759.252 822.935C764.445 822.935 768.655 818.725 768.655 813.532C768.655 808.339 764.445 804.129 759.252 804.129C754.059 804.129 749.849 808.339 749.849 813.532C749.849 818.725 754.059 822.935 759.252 822.935Z" fill="#292A2E"/>
<path opacity="0.05" d="M759.252 906.581C764.445 906.581 768.655 902.371 768.655 897.178C768.655 891.985 764.445 887.775 759.252 887.775C754.059 887.775 749.849 891.985 749.849 897.178C749.849 902.371 754.059 906.581 759.252 906.581Z" fill="#292A2E"/>
<path d="M111.5 833.535C111.369 833.535 111.238 833.51 111.117 833.459C110.996 833.409 110.886 833.335 110.793 833.242C109.384 831.834 107.087 805.983 100.901 729.019C98.37 697.527 95.979 667.781 94.234 649.704C94.11 648.413 93.609 648.263 93.445 648.213C91.056 647.493 83.793 653.22 79.738 658.236C79.5712 658.442 79.3292 658.574 79.0654 658.602C78.8015 658.63 78.5373 658.552 78.331 658.385C78.1247 658.218 77.993 657.976 77.9651 657.712C77.9372 657.449 78.0152 657.184 78.182 656.978C80.864 653.662 89.604 644.969 94.02 646.298C94.91 646.565 96.02 647.34 96.22 649.512C97.967 667.605 100.358 697.358 102.89 728.859C106.649 775.629 110.907 828.615 112.307 831.952C112.414 832.101 112.478 832.277 112.492 832.461C112.505 832.644 112.468 832.828 112.384 832.991C112.3 833.155 112.173 833.292 112.016 833.388C111.859 833.484 111.679 833.535 111.495 833.535H111.5Z" fill="#494949"/>
<path d="M91.6649 682.877C108.259 669.576 113.759 648.873 103.949 636.635C94.1398 624.398 72.7358 625.26 56.142 638.561C39.5482 651.863 34.0483 672.566 43.8577 684.804C53.6671 697.041 75.0711 696.179 91.6649 682.877Z" fill="#0CBC8B"/>
<path opacity="0.2" d="M91.6649 682.877C108.259 669.576 113.759 648.873 103.949 636.635C94.1398 624.398 72.7358 625.26 56.142 638.561C39.5482 651.863 34.0483 672.566 43.8577 684.804C53.6671 697.041 75.0711 696.179 91.6649 682.877Z" fill="white"/>
<path d="M48.508 687.914C48.4131 687.914 48.3201 687.887 48.24 687.836C48.1599 687.785 48.0959 687.713 48.0555 687.627C48.0151 687.541 48 687.445 48.012 687.351C48.0239 687.257 48.0624 687.168 48.123 687.095L95.414 630.066C95.456 630.015 95.5075 629.974 95.5656 629.943C95.6237 629.912 95.6873 629.893 95.7527 629.887C95.8181 629.881 95.8841 629.888 95.9468 629.908C96.0096 629.927 96.0679 629.959 96.1185 630C96.1691 630.042 96.2109 630.094 96.2415 630.152C96.2722 630.21 96.2911 630.274 96.2972 630.339C96.3032 630.405 96.2964 630.471 96.277 630.533C96.2575 630.596 96.226 630.654 96.184 630.705L48.893 687.733C48.8461 687.79 48.7873 687.835 48.7207 687.867C48.6542 687.898 48.5815 687.914 48.508 687.914Z" fill="white"/>
<path d="M121.812 821.31C121.7 821.31 121.589 821.291 121.484 821.253C121.234 821.166 121.028 820.983 120.912 820.744C120.797 820.505 120.781 820.23 120.868 819.98L138.632 768.894C139.155 767.393 140.046 766.047 141.224 764.98C142.402 763.913 143.829 763.158 145.374 762.785C146.919 762.412 148.533 762.433 150.068 762.846C151.603 763.258 153.01 764.049 154.16 765.146L163.552 774.117C163.744 774.3 163.855 774.552 163.861 774.818C163.867 775.083 163.768 775.34 163.585 775.531C163.401 775.723 163.149 775.835 162.884 775.841C162.619 775.847 162.362 775.747 162.17 775.564L152.779 766.592C151.871 765.726 150.76 765.101 149.548 764.776C148.337 764.45 147.062 764.434 145.843 764.728C144.623 765.023 143.496 765.619 142.566 766.461C141.637 767.304 140.933 768.366 140.52 769.551L122.757 820.638C122.689 820.834 122.561 821.005 122.392 821.125C122.222 821.245 122.02 821.31 121.812 821.31Z" fill="#494949"/>
<path d="M189.788 802.399C202.085 792.665 201.354 771.256 188.155 754.581C174.956 737.906 154.287 732.279 141.989 742.013C129.692 751.747 130.423 773.156 143.622 789.831C156.821 806.506 177.49 812.133 189.788 802.399Z" fill="#0CBC8B"/>
<path d="M103.428 830.277C103.203 830.277 102.985 830.201 102.809 830.062C102.633 829.923 102.508 829.728 102.456 829.51L72.645 704.865C72.4411 704.016 72.0069 703.239 71.3902 702.62C70.7735 702.002 69.9982 701.565 69.1495 701.358C68.3008 701.151 67.4115 701.183 66.5795 701.449C65.7474 701.714 65.0047 702.204 64.433 702.865L55.243 713.484C55.1584 713.587 55.0539 713.673 54.9357 713.735C54.8175 713.797 54.688 713.836 54.5549 713.847C54.4218 713.858 54.2877 713.843 54.1606 713.802C54.0335 713.761 53.9159 713.694 53.8149 713.607C53.7138 713.52 53.6313 713.413 53.5722 713.293C53.5131 713.173 53.4786 713.043 53.4708 712.909C53.463 712.776 53.482 712.642 53.5267 712.516C53.5714 712.39 53.6408 712.275 53.731 712.176L62.92 701.557C63.7323 700.618 64.7878 699.921 65.9706 699.543C67.1533 699.165 68.4173 699.12 69.6237 699.414C70.8301 699.708 71.9321 700.329 72.8084 701.209C73.6848 702.088 74.3016 703.193 74.591 704.4L104.4 829.045C104.462 829.303 104.418 829.575 104.28 829.801C104.141 830.027 103.918 830.188 103.66 830.25C103.584 830.268 103.506 830.277 103.428 830.277Z" fill="#494949"/>
<path d="M92.4285 741.175C96.0524 720.22 86.4618 701.065 71.0074 698.393C55.5529 695.72 40.087 710.542 36.4631 731.497C32.8393 752.453 42.4299 771.608 57.8843 774.28C73.3387 776.953 88.8047 762.131 92.4285 741.175Z" fill="#0CBC8B"/>
<path d="M111.5 833.535C111.459 833.535 111.418 833.533 111.377 833.528C111.247 833.512 111.121 833.471 111.006 833.406C110.892 833.341 110.791 833.255 110.71 833.151C110.63 833.047 110.57 832.929 110.535 832.802C110.5 832.676 110.49 832.543 110.506 832.413L129.542 677.855C129.75 676.171 130.439 674.584 131.527 673.282C132.616 671.981 134.057 671.022 135.677 670.52C137.297 670.018 139.028 669.995 140.662 670.453C142.295 670.911 143.761 671.832 144.884 673.103L166.642 697.746C166.729 697.844 166.796 697.959 166.838 698.083C166.881 698.208 166.899 698.339 166.89 698.47C166.882 698.601 166.848 698.73 166.791 698.848C166.733 698.966 166.652 699.071 166.554 699.158C166.456 699.245 166.341 699.312 166.217 699.354C166.092 699.397 165.961 699.415 165.83 699.406C165.699 699.398 165.57 699.364 165.452 699.307C165.334 699.249 165.229 699.169 165.142 699.07L143.384 674.427C142.516 673.444 141.383 672.733 140.121 672.379C138.858 672.024 137.52 672.042 136.268 672.43C135.016 672.818 133.902 673.56 133.061 674.566C132.22 675.571 131.687 676.799 131.527 678.1L112.491 832.657C112.461 832.899 112.344 833.122 112.162 833.284C111.979 833.445 111.744 833.535 111.5 833.535Z" fill="#494949"/>
<path d="M188.956 711.44C196.547 697.716 187.615 678.245 169.006 667.952C150.396 657.658 129.156 660.439 121.565 674.163C113.973 687.887 122.905 707.357 141.515 717.651C160.124 727.945 181.364 725.164 188.956 711.44Z" fill="#0CBC8B"/>
<path opacity="0.2" d="M189.788 802.399C202.085 792.665 201.354 771.256 188.155 754.581C174.956 737.906 154.287 732.279 141.989 742.013C129.692 751.747 130.423 773.156 143.622 789.831C156.821 806.506 177.49 812.133 189.788 802.399Z" fill="white"/>
<path opacity="0.5" d="M92.4285 741.175C96.0524 720.22 86.4618 701.065 71.0074 698.393C55.5529 695.72 40.087 710.542 36.4631 731.497C32.8393 752.453 42.4299 771.608 57.8843 774.28C73.3387 776.953 88.8047 762.131 92.4285 741.175Z" fill="white"/>
<path opacity="0.5" d="M188.956 711.44C196.547 697.716 187.615 678.245 169.006 667.952C150.396 657.658 129.156 660.439 121.565 674.163C113.973 687.887 122.905 707.357 141.515 717.651C160.124 727.945 181.364 725.164 188.956 711.44Z" fill="white"/>
<path d="M135.846 964.677H87.15L79.08 808.873H143.915L135.846 964.677Z" fill="#292A2E"/>
<path opacity="0.3" d="M135.846 964.677H87.15L79.08 808.873H143.915L135.846 964.677Z" fill="white"/>
<path d="M189.791 802.9C189.716 802.9 189.641 802.883 189.573 802.85C189.505 802.817 189.446 802.769 189.399 802.71L141.599 742.324C141.558 742.272 141.528 742.213 141.51 742.15C141.492 742.087 141.487 742.021 141.494 741.956C141.502 741.891 141.522 741.827 141.554 741.77C141.586 741.713 141.629 741.662 141.68 741.621C141.732 741.581 141.791 741.55 141.854 741.533C141.917 741.515 141.983 741.509 142.049 741.517C142.114 741.524 142.177 741.545 142.234 741.577C142.292 741.609 142.342 741.652 142.383 741.703L190.183 802.089C190.242 802.163 190.278 802.251 190.288 802.345C190.299 802.438 190.283 802.533 190.242 802.618C190.201 802.702 190.137 802.774 190.057 802.824C189.977 802.874 189.885 802.9 189.791 802.9Z" fill="white"/>
<path d="M185.778 716.279C185.672 716.278 185.568 716.243 185.483 716.179L124.317 671.517C124.21 671.439 124.138 671.321 124.118 671.19C124.097 671.059 124.13 670.925 124.208 670.818C124.286 670.711 124.404 670.639 124.535 670.619C124.666 670.598 124.8 670.631 124.907 670.709L186.073 715.372C186.157 715.435 186.219 715.523 186.25 715.623C186.282 715.723 186.281 715.831 186.247 715.93C186.214 716.03 186.15 716.116 186.065 716.178C185.98 716.239 185.878 716.272 185.773 716.272L185.778 716.279Z" fill="white"/>
<path d="M55.4 773.627C55.3564 773.627 55.313 773.622 55.271 773.61C55.1439 773.575 55.0357 773.491 54.97 773.377C54.9043 773.263 54.8863 773.127 54.92 773L74.391 700.046C74.407 699.982 74.4358 699.921 74.4754 699.868C74.5151 699.815 74.565 699.77 74.6222 699.736C74.6794 699.703 74.7427 699.681 74.8084 699.672C74.8742 699.663 74.9411 699.667 75.0052 699.684C75.0693 699.701 75.1294 699.731 75.1819 699.771C75.2344 699.812 75.2783 699.862 75.3111 699.92C75.3438 699.978 75.3647 700.042 75.3726 700.108C75.3805 700.173 75.3752 700.24 75.357 700.304L55.886 773.256C55.8575 773.363 55.7943 773.457 55.7063 773.524C55.6184 773.592 55.5106 773.628 55.4 773.627Z" fill="white"/>
<path d="M742.16 55.037H167.472C150.903 55.037 137.472 68.4685 137.472 85.037V719.012C137.472 735.581 150.903 749.012 167.472 749.012H742.16C758.729 749.012 772.16 735.581 772.16 719.012V85.037C772.16 68.4685 758.729 55.037 742.16 55.037Z" fill="white"/>
<path d="M741.592 749.164H166.9C158.681 749.154 150.802 745.885 144.99 740.074C139.179 734.262 135.91 726.383 135.9 718.164V84.189C135.91 75.9702 139.179 68.0908 144.99 62.2792C150.802 56.4676 158.681 53.1985 166.9 53.189H741.592C749.811 53.1983 757.69 56.4673 763.502 62.2789C769.314 68.0905 772.583 75.9701 772.592 84.189V718.164C772.583 726.383 769.314 734.262 763.502 740.074C757.69 745.886 749.811 749.155 741.592 749.164ZM166.9 55.189C159.211 55.198 151.84 58.2562 146.404 63.6928C140.967 69.1294 137.909 76.5005 137.9 84.189V718.164C137.909 725.853 140.967 733.224 146.404 738.66C151.84 744.097 159.211 747.155 166.9 747.164H741.592C749.281 747.155 756.652 744.097 762.088 738.66C767.525 733.224 770.583 725.853 770.592 718.164V84.189C770.583 76.5005 767.525 69.1294 762.088 63.6928C756.651 58.2562 749.281 55.198 741.592 55.189H166.9Z" fill="#292A2E"/>
<path d="M771.591 84.185V107.373H136.907V84.185C136.907 76.2285 140.068 68.5979 145.694 62.9718C151.32 57.3457 158.951 54.185 166.907 54.185H741.591C749.548 54.185 757.178 57.3457 762.804 62.9718C768.43 68.5979 771.591 76.2285 771.591 84.185Z" fill="#292A2E"/>
<path opacity="0.1" d="M242.731 291.539C283.238 291.539 316.076 258.701 316.076 218.194C316.076 177.687 283.238 144.849 242.731 144.849C202.224 144.849 169.386 177.687 169.386 218.194C169.386 258.701 202.224 291.539 242.731 291.539Z" fill="#367CFF"/>
<path opacity="0.2" d="M242.731 215.038C256.8 215.038 268.206 203.632 268.206 189.563C268.206 175.494 256.8 164.088 242.731 164.088C228.662 164.088 217.256 175.494 217.256 189.563C217.256 203.632 228.662 215.038 242.731 215.038Z" fill="#367CFF"/>
<path opacity="0.2" d="M297.87 266.559C290.986 274.408 282.506 280.696 272.997 285.004C263.487 289.312 253.167 291.54 242.728 291.539C232.288 291.538 221.969 289.308 212.46 284.999C202.951 280.689 194.472 274.399 187.59 266.549C191.116 254.66 198.39 244.229 208.327 236.812C218.264 229.394 230.333 225.387 242.734 225.389C255.134 225.39 267.202 229.399 277.138 236.818C287.075 244.237 294.346 254.67 297.87 266.559Z" fill="#367CFF"/>
<path opacity="0.2" d="M277.374 341.574H177.96C174.372 341.574 171.464 344.482 171.464 348.07C171.464 351.658 174.372 354.566 177.96 354.566H277.374C280.962 354.566 283.87 351.658 283.87 348.07C283.87 344.482 280.962 341.574 277.374 341.574Z" fill="#367CFF"/>
<path opacity="0.1" d="M513.594 149.775H357.333C351.498 149.775 346.768 154.505 346.768 160.34V182.253C346.768 188.088 351.498 192.818 357.333 192.818H513.594C519.429 192.818 524.159 188.088 524.159 182.253V160.34C524.159 154.505 519.429 149.775 513.594 149.775Z" fill="#367CFF"/>
<path opacity="0.2" d="M585.983 216.614H351.768C349.007 216.614 346.768 218.853 346.768 221.614C346.768 224.375 349.007 226.614 351.768 226.614H585.983C588.744 226.614 590.983 224.375 590.983 221.614C590.983 218.853 588.744 216.614 585.983 216.614Z" fill="#367CFF"/>
<path opacity="0.2" d="M585.983 246.614H351.768C349.007 246.614 346.768 248.853 346.768 251.614C346.768 254.375 349.007 256.614 351.768 256.614H585.983C588.744 256.614 590.983 254.375 590.983 251.614C590.983 248.853 588.744 246.614 585.983 246.614Z" fill="#367CFF"/>
<path opacity="0.2" d="M545.983 276.614H351.768C349.007 276.614 346.768 278.853 346.768 281.614C346.768 284.375 349.007 286.614 351.768 286.614H545.983C548.744 286.614 550.983 284.375 550.983 281.614C550.983 278.853 548.744 276.614 545.983 276.614Z" fill="#367CFF"/>
<path opacity="0.1" d="M425.011 373.306H180.855C175.668 373.306 171.464 377.51 171.464 382.697V405.899C171.464 411.085 175.668 415.29 180.855 415.29H425.011C430.197 415.29 434.402 411.085 434.402 405.899V382.697C434.402 377.51 430.197 373.306 425.011 373.306Z" fill="#367CFF"/>
<path opacity="0.2" d="M576.731 341.574H477.317C473.729 341.574 470.821 344.482 470.821 348.07C470.821 351.658 473.729 354.566 477.317 354.566H576.731C580.319 354.566 583.227 351.658 583.227 348.07C583.227 344.482 580.319 341.574 576.731 341.574Z" fill="#367CFF"/>
<path opacity="0.1" d="M724.368 373.306H480.212C475.025 373.306 470.821 377.51 470.821 382.697V405.899C470.821 411.085 475.025 415.29 480.212 415.29H724.368C729.554 415.29 733.759 411.085 733.759 405.899V382.697C733.759 377.51 729.554 373.306 724.368 373.306Z" fill="#367CFF"/>
<path opacity="0.2" d="M277.374 450H177.96C174.372 450 171.464 452.908 171.464 456.496C171.464 460.084 174.372 462.992 177.96 462.992H277.374C280.962 462.992 283.87 460.084 283.87 456.496C283.87 452.908 280.962 450 277.374 450Z" fill="#367CFF"/>
<path opacity="0.1" d="M425.011 481.732H180.855C175.668 481.732 171.464 485.936 171.464 491.123V514.325C171.464 519.512 175.668 523.716 180.855 523.716H425.011C430.197 523.716 434.402 519.512 434.402 514.325V491.123C434.402 485.936 430.197 481.732 425.011 481.732Z" fill="#367CFF"/>
<path opacity="0.2" d="M576.731 450H477.317C473.729 450 470.821 452.908 470.821 456.496C470.821 460.084 473.729 462.992 477.317 462.992H576.731C580.319 462.992 583.227 460.084 583.227 456.496C583.227 452.908 580.319 450 576.731 450Z" fill="#367CFF"/>
<path opacity="0.1" d="M724.368 481.732H480.212C475.025 481.732 470.821 485.936 470.821 491.123V514.325C470.821 519.512 475.025 523.716 480.212 523.716H724.368C729.554 523.716 733.759 519.512 733.759 514.325V491.123C733.759 485.936 729.554 481.732 724.368 481.732Z" fill="#367CFF"/>
<path opacity="0.2" d="M277.374 558.426H177.96C174.372 558.426 171.464 561.334 171.464 564.922C171.464 568.51 174.372 571.418 177.96 571.418H277.374C280.962 571.418 283.87 568.51 283.87 564.922C283.87 561.334 280.962 558.426 277.374 558.426Z" fill="#367CFF"/>
<path opacity="0.1" d="M425.011 590.158H180.855C175.668 590.158 171.464 594.363 171.464 599.549V622.751C171.464 627.937 175.668 632.142 180.855 632.142H425.011C430.197 632.142 434.402 627.937 434.402 622.751V599.549C434.402 594.363 430.197 590.158 425.011 590.158Z" fill="#367CFF"/>
<path opacity="0.2" d="M576.731 558.426H477.317C473.729 558.426 470.821 561.334 470.821 564.922C470.821 568.51 473.729 571.418 477.317 571.418H576.731C580.319 571.418 583.227 568.51 583.227 564.922C583.227 561.334 580.319 558.426 576.731 558.426Z" fill="#367CFF"/>
<path opacity="0.1" d="M724.368 590.158H480.212C475.025 590.158 470.821 594.363 470.821 599.549V622.751C470.821 627.937 475.025 632.142 480.212 632.142H724.368C729.554 632.142 733.759 627.937 733.759 622.751V599.549C733.759 594.363 729.554 590.158 724.368 590.158Z" fill="#367CFF"/>
<path opacity="0.2" d="M530.554 664.853H377.941C371.783 664.853 366.791 669.845 366.791 676.003V696.587C366.791 702.745 371.783 707.737 377.941 707.737H530.554C536.712 707.737 541.704 702.745 541.704 696.587V676.003C541.704 669.845 536.712 664.853 530.554 664.853Z" fill="#367CFF"/>
<path d="M480.87 179.288L497.031 198.374L496.031 195.097C495.729 194.033 495.842 192.894 496.348 191.91C496.853 190.926 497.714 190.171 498.755 189.797C499.299 189.623 499.873 189.561 500.442 189.616C501.01 189.671 501.562 189.841 502.062 190.116C502.563 190.391 503.002 190.765 503.354 191.216C503.705 191.666 503.961 192.183 504.106 192.736L511.494 220.555C512.427 224.067 511.95 227.804 510.166 230.969C508.382 234.134 505.432 236.477 501.945 237.498C497.896 238.683 493.586 238.632 489.567 237.352C485.547 236.071 482.002 233.619 479.385 230.311L467.556 215.3C466.926 214.532 466.581 213.57 466.579 212.577C466.577 211.584 466.918 210.62 467.545 209.85C468.126 209.165 468.91 208.685 469.784 208.478C470.657 208.271 471.574 208.349 472.4 208.7C472.417 208.634 472.451 208.574 472.5 208.526C472.548 208.484 472.607 208.454 472.669 208.44C472.732 208.426 472.797 208.427 472.859 208.444L470.668 205.674C469.997 204.862 469.642 203.835 469.669 202.781C469.696 201.728 470.103 200.72 470.815 199.944C471.544 199.199 472.525 198.751 473.566 198.688C474.607 198.625 475.634 198.951 476.448 199.602C476.453 199.558 476.467 199.515 476.488 199.476L475.588 198.34C475.001 197.562 474.68 196.615 474.672 195.641C474.664 194.666 474.97 193.714 475.545 192.927C476.248 192.08 477.254 191.541 478.349 191.427C479.444 191.313 480.54 191.632 481.403 192.316L481.46 192.259L474.67 184.24C474.322 183.829 474.061 183.351 473.904 182.836C473.746 182.32 473.695 181.778 473.754 181.243C473.813 180.707 473.981 180.189 474.246 179.72C474.512 179.251 474.871 178.842 475.3 178.516C476.153 177.914 477.203 177.66 478.237 177.803C479.271 177.946 480.212 178.477 480.87 179.288Z" fill="#E98862"/>
<path opacity="0.2" d="M481.238 192.766C481.255 192.809 481.279 192.849 481.309 192.884L488 200.6C488.034 200.639 488.075 200.672 488.122 200.695C488.168 200.719 488.219 200.733 488.271 200.736C488.323 200.74 488.375 200.734 488.424 200.718C488.473 200.701 488.519 200.675 488.559 200.641C488.598 200.608 488.63 200.566 488.654 200.52C488.677 200.473 488.691 200.423 488.695 200.371C488.699 200.319 488.692 200.267 488.676 200.217C488.66 200.168 488.634 200.122 488.6 200.083L481.915 192.37C481.852 192.305 481.769 192.264 481.68 192.252C481.591 192.241 481.5 192.259 481.423 192.306C481.345 192.352 481.286 192.423 481.254 192.507C481.222 192.592 481.22 192.684 481.247 192.77L481.238 192.766Z" fill="#0C0C0C"/>
<path opacity="0.2" d="M476.458 199.787C476.474 199.829 476.497 199.868 476.526 199.902L481.734 206.002C481.804 206.075 481.899 206.119 482 206.124C482.1 206.129 482.199 206.095 482.276 206.03C482.353 205.964 482.402 205.872 482.412 205.771C482.423 205.671 482.395 205.57 482.334 205.49L477.126 199.39C477.066 199.319 476.982 199.271 476.889 199.256C476.797 199.24 476.702 199.258 476.622 199.306C476.541 199.354 476.481 199.429 476.451 199.518C476.42 199.606 476.423 199.703 476.457 199.79L476.458 199.787Z" fill="#0C0C0C"/>
<path opacity="0.2" d="M472.393 208.965C472.41 209.01 472.436 209.052 472.468 209.088L475 211.912C475.035 211.951 475.076 211.982 475.123 212.004C475.17 212.027 475.22 212.04 475.272 212.043C475.324 212.046 475.376 212.038 475.424 212.021C475.473 212.004 475.518 211.978 475.557 211.943C475.596 211.908 475.627 211.867 475.649 211.82C475.672 211.773 475.685 211.723 475.688 211.671C475.691 211.619 475.683 211.567 475.666 211.519C475.649 211.47 475.623 211.425 475.588 211.386L473.061 208.561C472.999 208.494 472.916 208.45 472.826 208.437C472.736 208.424 472.644 208.443 472.566 208.49C472.488 208.537 472.428 208.61 472.398 208.695C472.367 208.781 472.367 208.875 472.398 208.961L472.393 208.965Z" fill="#0C0C0C"/>
<path d="M676.615 370.718L535.528 360.844C530.438 360.488 525.553 358.697 521.439 355.678C517.325 352.659 514.151 348.537 512.284 343.788L467.676 230.311L517.931 210.555L556.3 308.166L680.38 316.85L676.615 370.718Z" fill="#367CFF"/>
<path d="M758.534 919.207C758.534 919.207 754.019 942.607 732.106 943.916C710.193 945.225 714.945 962.677 714.945 962.677H798.684V920.839L758.534 919.207Z" fill="#367CFF"/>
<path d="M784.363 492.277C784.363 492.277 784.1 485.241 784.156 501.201C784.363 560.73 785.396 628.726 787.92 668.515C791.978 732.479 802.38 934.144 802.38 934.144L747.354 933.682L694.021 489.858L784.363 492.277Z" fill="#262626"/>
<path d="M660.573 919.207C660.573 919.207 656.058 942.607 634.145 943.916C612.232 945.225 616.984 962.677 616.984 962.677H700.723V920.839L660.573 919.207Z" fill="#367CFF"/>
<path d="M633.93 496.9C633.93 496.9 629.056 700.356 629.77 710.3L650.234 932.6L704.35 933.6L699.077 702.256C699.077 702.256 702.797 638.44 718.215 579.183C726.104 548.77 730.852 517.627 732.384 486.245L633.93 496.9Z" fill="#262626"/>
<path d="M784.961 492.271L785.141 492.281C785.141 492.281 785.011 488.811 784.961 492.271Z" fill="#333333"/>
<path d="M626.184 383.968C627.319 397.3 632.839 480.478 633.93 496.899H784.3C785.15 482.088 788.964 417.324 792.185 388.361C795.26 360.723 801.293 346.885 796.871 338.715C789.645 325.361 769.899 317.644 756.435 315.821C748.213 314.708 735.848 313.91 735.848 313.91C735.848 313.91 734.801 335.091 709.835 336.27C675.85 337.87 678.119 313.91 677.951 313.91C672.445 313.91 640.385 316.499 633.298 321.956C620.9 331.5 623.775 355.715 626.184 383.968Z" fill="#367CFF"/>
<path d="M624.108 367.262C623.98 367.262 623.857 367.214 623.764 367.126C623.671 367.038 623.615 366.919 623.608 366.791L622.4 345.62C622.392 345.488 622.438 345.358 622.526 345.259C622.614 345.16 622.738 345.1 622.87 345.092C623.002 345.086 623.131 345.132 623.23 345.22C623.329 345.308 623.389 345.431 623.398 345.563L624.611 366.733C624.619 366.865 624.573 366.995 624.485 367.094C624.397 367.193 624.273 367.253 624.141 367.261L624.108 367.262Z" fill="#0C0C0C"/>
<path d="M816.812 496.028C821.235 496.027 825.592 494.958 829.513 492.911C833.434 490.865 836.802 487.901 839.331 484.273C841.86 480.644 843.475 476.458 844.038 472.072C844.602 467.685 844.097 463.227 842.567 459.077C841.014 454.864 804.594 358.421 797.66 340.552L746.321 361.352C750.221 371.4 764.344 409.484 775.692 440.163L756.84 438.114L750.906 492.7L813.841 495.866C814.828 495.974 815.819 496.028 816.812 496.028Z" fill="#367CFF"/>
<path d="M660.038 312.084C660.207 312.062 664.819 329.42 700.816 326.719C725.736 324.852 731.816 307.889 732.384 307.889C729.697 307.318 725.334 306.725 724.14 306.089C720.216 303.981 717.358 301.414 715.919 295.906C714.794 291.598 714.219 275.015 714.219 266.695L675.871 275.312C676.406 284.698 680.147 306.455 667.035 310.306C664.855 310.942 662.505 311.528 660.038 312.084Z" fill="#E98862"/>
<path d="M677.2 293.763C692.318 294.956 711.737 288.573 715.426 268.404L718.754 250.204C722.443 230.035 714.84 211.747 695.854 208.274C676.864 204.801 659.679 218.555 655.991 238.724L654.517 246.781C653.1 254.521 650.228 291.635 677.2 293.763Z" fill="#E98862"/>
<path d="M663.183 275.245C665.897 261.611 667.141 252.514 666.996 242.917C663.174 236.217 664.179 228.517 665.048 225.193C662.416 226.865 659.322 227.659 656.21 227.46C656.21 227.46 662.53 202.092 684.01 195.266C687.96 193.728 698.047 191.786 711.44 193.623C722.832 195.185 750.911 203.703 754.923 235.316V235.334C755.056 236.382 757.752 265.509 763.123 279.484C770.349 298.271 780.493 304.108 780.236 325.784C779.905 353.665 728.648 357.376 697.736 355.291C666.824 353.206 649.562 343.039 649.336 322.946C649.1 300.433 657.754 302.524 663.183 275.245Z" fill="#0A0A0A"/>
<path d="M787.515 388.922L783.82 496.887L784.819 496.921L788.514 388.956L787.515 388.922Z" fill="#0C0C0C"/>
<path d="M60.486 964.677H945.6C945.699 964.681 945.798 964.664 945.89 964.629C945.983 964.594 946.067 964.54 946.139 964.471C946.21 964.402 946.267 964.32 946.305 964.229C946.344 964.138 946.364 964.04 946.364 963.941C946.364 963.841 946.344 963.743 946.305 963.652C946.267 963.561 946.21 963.479 946.139 963.41C946.067 963.341 945.983 963.287 945.89 963.252C945.798 963.217 945.699 963.2 945.6 963.204H60.486C60.387 963.2 60.2883 963.217 60.1957 963.252C60.1032 963.287 60.0187 963.341 59.9474 963.41C59.8761 963.479 59.8193 963.561 59.7806 963.652C59.7418 963.743 59.7219 963.841 59.7219 963.941C59.7219 964.04 59.7418 964.138 59.7806 964.229C59.8193 964.32 59.8761 964.402 59.9474 964.471C60.0187 964.54 60.1032 964.594 60.1957 964.629C60.2883 964.664 60.387 964.681 60.486 964.677Z" fill="#292A2E"/>
<path d="M722.224 562.475C722.224 562.475 719.943 605.675 719.524 615.817C718.546 639.272 718.207 663.556 718.207 691.09L709.533 618.91C709.533 618.91 715.876 596.289 722.224 562.475Z" fill="#0A0A0A"/>
</g>
<defs>
<clipPath id="clip0_1_1500">
<rect width="1000.98" height="964.677" fill="white"/>
</clipPath>
</defs>
</svg>
