<svg width="567" height="533" viewBox="0 0 567 533" fill="none" xmlns="http://www.w3.org/2000/svg">
<g clip-path="url(#clip0_1_2182)">
<path d="M527.312 10H38.73C17.34 10 0 27.34 0 48.73V420.56C0 441.95 17.34 459.29 38.73 459.29H527.312C548.702 459.29 566.042 441.95 566.042 420.56V48.73C566.042 27.34 548.702 10 527.312 10Z" fill="#C1D8ED"/>
<path d="M527.312 0H38.73C17.34 0 0 17.34 0 38.73V410.56C0 431.95 17.34 449.29 38.73 449.29H527.312C548.702 449.29 566.042 431.95 566.042 410.56V38.73C566.042 17.34 548.702 0 527.312 0Z" fill="#DEE8F5"/>
<path d="M347.755 377.339H218.288V523.891H347.755V377.339Z" fill="#DEE8F5"/>
<path d="M402.697 496.669H176.753C166.811 496.669 158.752 504.728 158.752 514.67V514.674C158.752 524.616 166.811 532.675 176.753 532.675H402.697C412.639 532.675 420.698 524.616 420.698 514.674V514.67C420.698 504.728 412.639 496.669 402.697 496.669Z" fill="#DEE8F5"/>
<path d="M533.498 34.153H29.091V385.338H533.498V34.153Z" fill="white"/>
<path d="M533.498 34.153H29.091V57.847H533.498V34.153Z" fill="#C1D8ED"/>
<path d="M520.478 52.499C524.068 52.499 526.978 49.5889 526.978 45.999C526.978 42.4091 524.068 39.499 520.478 39.499C516.888 39.499 513.978 42.4091 513.978 45.999C513.978 49.5889 516.888 52.499 520.478 52.499Z" fill="white"/>
<path d="M425.698 333.286C472.444 333.286 510.339 295.391 510.339 248.645C510.339 201.899 472.444 164.004 425.698 164.004C378.952 164.004 341.057 201.899 341.057 248.645C341.057 295.391 378.952 333.286 425.698 333.286Z" fill="#F3F5FD"/>
<path d="M425.7 160.658C423.117 160.658 420.561 160.768 418.032 160.989C397.273 162.833 377.839 171.975 363.181 186.79C348.523 201.605 339.59 221.135 337.968 241.913C337.799 244.135 337.714 246.379 337.713 248.645C337.713 250.545 338.036 256.315 338.128 257.268C340.221 278.002 349.585 297.327 364.56 311.819C379.536 326.311 399.157 335.036 419.949 336.448C421.879 336.571 423.796 336.633 425.7 336.632C427.915 336.632 430.11 336.551 432.285 336.388C453.016 334.804 472.52 325.941 487.348 311.367C502.177 296.792 511.375 277.445 513.317 256.744C513.561 254.077 513.684 251.377 513.686 248.644C513.686 246.744 513.411 241.584 513.355 240.932C511.749 223.286 504.877 206.531 493.63 192.839C482.383 179.148 467.281 169.153 450.283 164.151C442.304 161.789 434.021 160.612 425.7 160.658ZM465.536 292.3C469.222 279.187 471.172 265.647 471.336 252.026H506.826C506.079 270.259 499.185 287.703 487.265 301.52C481.972 297.812 474.57 294.675 465.536 292.3ZM364.127 301.52C352.206 287.703 345.312 270.259 344.565 252.026H380.056C380.218 265.647 382.168 279.187 385.856 292.3C376.822 294.676 369.42 297.812 364.127 301.522V301.52ZM385.841 205.043C382.163 218.138 380.218 231.658 380.054 245.258H344.565C345.31 227.112 352.144 209.745 363.965 195.958C369.347 199.607 376.8 202.7 385.841 205.045V205.043ZM422.313 245.258H386.822C387.027 232.173 388.97 219.173 392.6 206.6C402.393 208.511 412.337 209.544 422.314 209.685L422.313 245.258ZM422.313 252.026V287.603C412.339 287.742 402.398 288.788 392.613 290.727C388.975 278.141 387.028 265.127 386.823 252.027L422.313 252.026ZM429.081 252.026H464.572C464.367 265.126 462.42 278.14 458.783 290.726C448.998 288.787 439.057 287.742 429.083 287.602L429.081 252.026ZM429.081 245.258V209.683C439.059 209.543 449.005 208.511 458.8 206.6C462.429 219.174 464.372 232.175 464.577 245.261L429.081 245.258ZM429.081 202.915V167.768C440.196 169.878 450.14 182.221 456.661 200.133C447.564 201.85 438.337 202.781 429.081 202.917V202.915ZM422.313 167.766V202.915C413.057 202.779 403.83 201.848 394.733 200.131C401.254 182.221 411.2 169.876 422.313 167.768V167.766ZM422.313 294.366V329.515C411.205 327.407 401.267 315.079 394.746 297.187C403.835 295.447 413.06 294.505 422.313 294.373V294.366ZM429.081 329.513V294.373C438.335 294.508 447.559 295.452 456.648 297.194C450.127 315.084 440.189 327.414 429.081 329.52V329.513ZM471.34 245.253C471.176 231.653 469.231 218.133 465.555 205.038C474.593 202.692 482.049 199.6 487.433 195.95C499.254 209.738 506.088 227.104 506.833 245.25L471.34 245.253ZM482.754 190.903C478.016 193.903 471.387 196.553 463.487 198.58C459.24 186.573 453.475 176.803 446.687 170.18C460.305 173.843 472.734 180.987 482.754 190.91V190.903ZM387.909 198.582C380.009 196.555 373.379 193.906 368.641 190.905C378.662 180.983 391.095 173.842 404.714 170.184C397.92 176.81 392.154 186.582 387.909 198.589V198.582ZM368.809 306.535C373.445 303.49 380.024 300.805 387.926 298.752C392.169 310.732 397.926 320.481 404.709 327.092C391.171 323.454 378.804 316.375 368.812 306.542L368.809 306.535ZM463.462 298.752C471.362 300.805 477.942 303.49 482.579 306.535C472.588 316.372 460.22 323.454 446.679 327.092C453.463 320.488 459.22 310.739 463.465 298.759L463.462 298.752Z" fill="#DEE8F5"/>
<path d="M214.374 213.717H73.536V307.319H214.374V213.717Z" fill="#DEE8F5"/>
<path opacity="0.55" d="M215.948 212.214H70.463V236.002H215.948V212.214Z" fill="#C1D8ED"/>
<path d="M240.665 313.885H47.243V323.591H240.665V313.885Z" fill="#F3F5FD"/>
<path d="M233.88 304.18H54.029V313.886H233.88V304.18Z" fill="#F3F5FD"/>
<path d="M233.88 311.289H54.029V313.886H233.88V311.289Z" fill="#DEE8F5"/>
<path d="M240.665 320.994H47.243V323.591H240.665V320.994Z" fill="#DEE8F5"/>
<path d="M247.153 323.591H41.015V333.297H247.153V323.591Z" fill="#F3F5FD"/>
<path d="M247.153 330.7H41.015V333.297H247.153V330.7Z" fill="#DEE8F5"/>
<path d="M83.287 221.013H67.723V299.812H83.287V221.013Z" fill="#F3F5FD"/>
<path d="M122.55 221.013H106.986V299.812H122.55V221.013Z" fill="#F3F5FD"/>
<path d="M220.185 221.013H204.621V299.812H220.185V221.013Z" fill="#F3F5FD"/>
<path d="M63.036 213.717H87.975V222.659C87.975 222.959 87.8559 223.246 87.644 223.458C87.4321 223.67 87.1447 223.789 86.845 223.789H64.166C63.8663 223.789 63.5789 223.67 63.367 223.458C63.1551 223.246 63.036 222.959 63.036 222.659V213.717Z" fill="#C1D8ED"/>
<path d="M102.3 213.717H127.238V222.659C127.238 222.959 127.119 223.246 126.907 223.458C126.695 223.67 126.408 223.789 126.108 223.789H103.429C103.129 223.789 102.842 223.67 102.63 223.458C102.418 223.246 102.299 222.959 102.299 222.659L102.3 213.717Z" fill="#C1D8ED"/>
<path d="M199.934 213.717H224.872V222.659C224.872 222.959 224.753 223.246 224.541 223.458C224.329 223.67 224.042 223.789 223.742 223.789H201.064C200.764 223.789 200.477 223.67 200.265 223.458C200.053 223.246 199.934 222.959 199.934 222.659V213.717Z" fill="#C1D8ED"/>
<path d="M64.166 297.115H86.845C87.1447 297.115 87.4321 297.234 87.644 297.446C87.8559 297.658 87.975 297.945 87.975 298.245V304.18H63.036V298.245C63.036 297.945 63.1551 297.658 63.367 297.446C63.5789 297.234 63.8663 297.115 64.166 297.115Z" fill="#C1D8ED"/>
<path d="M103.429 297.115H126.107C126.407 297.115 126.694 297.234 126.906 297.446C127.118 297.658 127.237 297.945 127.237 298.245V304.18H102.3V298.245C102.3 297.945 102.419 297.658 102.631 297.446C102.842 297.234 103.129 297.115 103.429 297.115Z" fill="#C1D8ED"/>
<path d="M201.064 297.115H223.742C224.042 297.115 224.329 297.234 224.541 297.446C224.753 297.658 224.872 297.945 224.872 298.245V304.18H199.934V298.245C199.934 297.945 200.053 297.658 200.265 297.446C200.477 297.234 200.764 297.115 201.064 297.115Z" fill="#C1D8ED"/>
<path d="M72.745 227.329H72.744C72.3116 227.329 71.961 227.68 71.961 228.112V292.713C71.961 293.145 72.3116 293.496 72.744 293.496H72.745C73.1774 293.496 73.528 293.145 73.528 292.713V228.112C73.528 227.68 73.1774 227.329 72.745 227.329Z" fill="#C1D8ED"/>
<path d="M78.267 227.329H78.266C77.8336 227.329 77.483 227.68 77.483 228.112V292.713C77.483 293.145 77.8336 293.496 78.266 293.496H78.267C78.6994 293.496 79.05 293.145 79.05 292.713V228.112C79.05 227.68 78.6994 227.329 78.267 227.329Z" fill="#C1D8ED"/>
<path d="M112.008 227.329H112.007C111.575 227.329 111.224 227.68 111.224 228.112V292.713C111.224 293.145 111.575 293.496 112.007 293.496H112.008C112.44 293.496 112.791 293.145 112.791 292.713V228.112C112.791 227.68 112.44 227.329 112.008 227.329Z" fill="#C1D8ED"/>
<path d="M117.53 227.329H117.529C117.097 227.329 116.746 227.68 116.746 228.112V292.713C116.746 293.145 117.097 293.496 117.529 293.496H117.53C117.962 293.496 118.313 293.145 118.313 292.713V228.112C118.313 227.68 117.962 227.329 117.53 227.329Z" fill="#C1D8ED"/>
<path d="M182.134 221.013H166.57V299.812H182.134V221.013Z" fill="#F3F5FD"/>
<path d="M161.883 213.717H186.821V222.659C186.821 222.959 186.702 223.246 186.49 223.458C186.278 223.67 185.991 223.789 185.691 223.789H163.013C162.713 223.789 162.426 223.67 162.214 223.458C162.002 223.246 161.883 222.959 161.883 222.659V213.717Z" fill="#C1D8ED"/>
<path d="M163.013 297.115H185.691C185.991 297.115 186.278 297.234 186.49 297.446C186.702 297.658 186.821 297.945 186.821 298.245V304.18H161.883V298.245C161.883 297.945 162.002 297.658 162.214 297.446C162.426 297.234 162.713 297.115 163.013 297.115Z" fill="#C1D8ED"/>
<path d="M171.592 227.329H171.591C171.159 227.329 170.808 227.68 170.808 228.112V292.713C170.808 293.145 171.159 293.496 171.591 293.496H171.592C172.024 293.496 172.375 293.145 172.375 292.713V228.112C172.375 227.68 172.024 227.329 171.592 227.329Z" fill="#C1D8ED"/>
<path d="M177.114 227.329H177.113C176.681 227.329 176.33 227.68 176.33 228.112V292.713C176.33 293.145 176.681 293.496 177.113 293.496H177.114C177.546 293.496 177.897 293.145 177.897 292.713V228.112C177.897 227.68 177.546 227.329 177.114 227.329Z" fill="#C1D8ED"/>
<path d="M209.643 227.329H209.642C209.21 227.329 208.859 227.68 208.859 228.112V292.713C208.859 293.145 209.21 293.496 209.642 293.496H209.643C210.075 293.496 210.426 293.145 210.426 292.713V228.112C210.426 227.68 210.075 227.329 209.643 227.329Z" fill="#C1D8ED"/>
<path d="M215.165 227.329H215.164C214.732 227.329 214.381 227.68 214.381 228.112V292.713C214.381 293.145 214.732 293.496 215.164 293.496H215.165C215.597 293.496 215.948 293.145 215.948 292.713V228.112C215.948 227.68 215.597 227.329 215.165 227.329Z" fill="#C1D8ED"/>
<path d="M231.676 210.209V215.94C231.676 216.248 231.554 216.544 231.336 216.762C231.118 216.98 230.822 217.103 230.514 217.103H57.034C56.7256 217.103 56.4297 216.98 56.2116 216.762C55.9935 216.544 55.871 216.248 55.871 215.94V210.455C55.871 210.184 55.9372 209.918 56.0638 209.679C56.1903 209.44 56.3733 209.235 56.597 209.083L143.02 150.265C143.295 150.077 143.62 149.977 143.954 149.977C144.287 149.977 144.612 150.077 144.887 150.265L230.95 208.837C231.174 208.989 231.357 209.194 231.483 209.433C231.61 209.672 231.676 209.938 231.676 210.209Z" fill="#DEE8F5"/>
<path d="M208.514 207.43H79.4C79.3046 207.43 79.2118 207.399 79.1352 207.342C79.0585 207.285 79.0021 207.206 78.974 207.114C78.946 207.023 78.9479 206.926 78.9793 206.835C79.0108 206.745 79.0703 206.668 79.149 206.614L143.7 162.676C143.774 162.626 143.861 162.599 143.95 162.599C144.039 162.599 144.126 162.626 144.2 162.676L208.76 206.614C208.838 206.668 208.898 206.745 208.929 206.834C208.961 206.924 208.963 207.021 208.936 207.112C208.908 207.203 208.853 207.283 208.777 207.34C208.701 207.397 208.609 207.429 208.514 207.43Z" fill="#F3F5FD"/>
<path d="M461.648 309.452L468.261 359.162L503.515 337.057L461.648 309.452Z" fill="#9EBCEA"/>
<path d="M482.024 332.407L473.437 337.791L489.752 363.811L498.339 358.427L482.024 332.407Z" fill="#9EBCEA"/>
<path d="M173.78 161.254L172.667 160.22C173.186 159.661 173.71 159.106 174.237 158.554L175.337 159.604C174.813 160.15 174.294 160.7 173.78 161.254Z" fill="#C1D8ED"/>
<path d="M178.5 156.388L177.433 155.307C178.513 154.241 179.619 153.18 180.722 152.153L181.757 153.264C180.663 154.281 179.567 155.332 178.5 156.388ZM385.4 156.45C384.337 155.396 383.244 154.343 382.153 153.321L383.19 152.212C384.29 153.244 385.396 154.307 386.47 155.372L385.4 156.45ZM185.1 150.237L184.1 149.096C185.237 148.096 186.4 147.102 187.567 146.139L188.536 147.308C187.383 148.263 186.227 149.248 185.1 150.237ZM378.81 150.289C377.685 149.296 376.532 148.309 375.385 147.355L376.355 146.187C377.515 147.151 378.679 148.147 379.814 149.15L378.81 150.289ZM192.05 144.483L191.116 143.283C192.306 142.355 193.529 141.431 194.75 140.535L195.65 141.76C194.44 142.649 193.23 143.564 192.052 144.483H192.05ZM371.874 144.524C370.693 143.6 369.485 142.683 368.281 141.798L369.181 140.575C370.396 141.468 371.618 142.395 372.81 143.328L371.874 144.524ZM199.328 139.15L198.467 137.899C199.716 137.04 200.991 136.19 202.259 135.372L203.082 136.649C201.827 137.458 200.564 138.3 199.328 139.15ZM364.61 139.181C363.379 138.331 362.117 137.488 360.86 136.675L361.685 135.399C362.955 136.221 364.229 137.073 365.473 137.931L364.61 139.181ZM206.91 134.262L206.126 132.962C207.426 132.179 208.749 131.407 210.063 130.669L210.807 131.992C209.505 132.723 208.194 133.486 206.908 134.262H206.91ZM357.039 134.283C355.753 133.506 354.439 132.74 353.144 132.008L353.89 130.685C355.202 131.425 356.526 132.198 357.825 132.985L357.039 134.283ZM214.77 129.841L214.07 128.495C215.41 127.795 216.779 127.104 218.137 126.445L218.8 127.811C217.449 128.464 216.094 129.147 214.768 129.841H214.77ZM349.181 129.853C347.852 129.153 346.497 128.472 345.154 127.82L345.817 126.454C347.175 127.113 348.544 127.804 349.886 128.507L349.181 129.853ZM222.881 125.907L222.26 124.521C223.642 123.902 225.05 123.298 226.445 122.721L227.023 124.121C225.642 124.7 224.248 125.3 222.881 125.907ZM341.064 125.912C339.695 125.299 338.3 124.7 336.919 124.131L337.496 122.731C338.896 123.305 340.302 123.91 341.685 124.531L341.064 125.912ZM231.218 122.481L230.684 121.059C232.101 120.527 233.544 120.011 234.972 119.525L235.461 120.963C234.048 121.444 232.62 121.954 231.218 122.481ZM332.718 122.481C331.318 121.954 329.885 121.443 328.47 120.961L328.958 119.523C330.388 120.01 331.833 120.523 333.252 121.059L332.718 122.481ZM239.747 119.581L239.302 118.128C240.748 117.686 242.219 117.261 243.677 116.865L244.077 118.331C242.635 118.721 241.179 119.141 239.749 119.579L239.747 119.581ZM324.175 119.581C322.742 119.143 321.283 118.722 319.839 118.329L320.239 116.864C321.698 117.264 323.173 117.686 324.621 118.128L324.175 119.581ZM248.439 117.222L248.087 115.745C249.557 115.393 251.052 115.062 252.53 114.758L252.836 116.245C251.376 116.539 249.9 116.868 248.441 117.215L248.439 117.222ZM315.465 117.215C314.008 116.868 312.525 116.539 311.057 116.238L311.363 114.75C312.846 115.055 314.345 115.387 315.817 115.737L315.465 117.215ZM257.265 115.407L257 113.9C258.487 113.642 260 113.4 261.5 113.193L261.712 114.693C260.23 114.91 258.734 115.145 257.262 115.4L257.265 115.407ZM306.627 115.4C305.149 115.145 303.648 114.91 302.165 114.7L302.377 113.2C303.877 113.41 305.391 113.648 306.885 113.9L306.627 115.4ZM266.18 114.149L266.015 112.639C267.515 112.475 269.04 112.332 270.543 112.215L270.661 113.729C269.171 113.838 267.664 113.979 266.177 114.142L266.18 114.149ZM297.68 114.143C296.193 113.981 294.68 113.843 293.18 113.725L293.297 112.211C294.809 112.328 296.338 112.47 297.841 112.633L297.68 114.143ZM275.15 113.45L275.079 111.933C276.589 111.862 278.121 111.814 279.633 111.791L279.657 113.31C278.16 113.326 276.644 113.373 275.15 113.443V113.45ZM288.673 113.45C287.242 113.384 285.787 113.338 284.349 113.315H284.165L284.19 111.796H284.374C285.827 111.82 287.297 111.866 288.743 111.933L288.673 113.45Z" fill="#C1D8ED"/>
<path d="M390.132 161.358C389.619 160.803 389.103 160.251 388.582 159.704L389.682 158.658C390.207 159.211 390.729 159.768 391.247 160.328L390.132 161.358Z" fill="#C1D8ED"/>
<path d="M353.963 137.238L353.9 84.264C353.92 83.9429 353.871 83.6212 353.758 83.32C353.645 83.0189 353.469 82.7452 353.242 82.5168C353.016 82.2884 352.743 82.1106 352.443 81.995C352.143 81.8794 351.821 81.8286 351.5 81.846L288.744 81.906L225.988 81.846C225.667 81.8288 225.345 81.8797 225.045 81.9953C224.745 82.111 224.473 82.2888 224.246 82.5171C224.019 82.7455 223.844 83.0191 223.73 83.3202C223.617 83.6213 223.568 83.9429 223.588 84.264L223.528 137.238V145.147C223.509 145.469 223.558 145.792 223.673 146.093C223.787 146.395 223.964 146.669 224.192 146.898C224.419 147.126 224.693 147.304 224.994 147.42C225.296 147.535 225.618 147.586 225.94 147.568L236.959 147.58L273.839 147.615L273.845 147.64L288.753 147.628L303.661 147.64L303.667 147.615L340.547 147.58L351.566 147.568C351.888 147.586 352.21 147.535 352.512 147.42C352.813 147.304 353.087 147.126 353.314 146.898C353.542 146.669 353.719 146.395 353.833 146.093C353.948 145.792 353.997 145.469 353.978 145.147L353.963 137.238Z" fill="#8DDBE0"/>
<path opacity="0.47" d="M346.694 98.7C344.145 98.6942 341.702 97.681 339.897 95.8812C338.092 94.0814 337.071 91.641 337.058 89.092L288.743 89.134L240.428 89.092C240.415 91.641 239.394 94.0814 237.589 95.8812C235.784 97.681 233.341 98.6942 230.792 98.7L230.758 130.725C231.849 130.724 232.931 130.912 233.958 131.281C235.182 131.719 236.306 132.397 237.264 133.277C238.221 134.157 238.992 135.22 239.531 136.403C240.1 137.646 240.389 138.998 240.379 140.365L271.852 140.394L271.859 140.42L288.74 140.407L305.62 140.42L305.628 140.394L337.1 140.365C337.091 138.998 337.38 137.646 337.948 136.403C338.488 135.22 339.259 134.157 340.216 133.277C341.174 132.398 342.298 131.719 343.522 131.281C344.549 130.912 345.631 130.724 346.722 130.725L346.694 98.7Z" fill="white"/>
<path d="M250.513 120.629C253.837 120.629 256.531 117.935 256.531 114.611C256.531 111.287 253.837 108.593 250.513 108.593C247.189 108.593 244.495 111.287 244.495 114.611C244.495 117.935 247.189 120.629 250.513 120.629Z" fill="#8DDBE0"/>
<path d="M326.973 120.629C330.297 120.629 332.991 117.935 332.991 114.611C332.991 111.287 330.297 108.593 326.973 108.593C323.649 108.593 320.955 111.287 320.955 114.611C320.955 117.935 323.649 120.629 326.973 120.629Z" fill="#8DDBE0"/>
<path d="M299.351 96.89C302.287 98.576 304.749 100.977 306.508 103.87C308.268 106.763 309.267 110.053 309.413 113.436C309.702 117.979 308.471 122.49 305.913 126.256C304.093 129.047 301.58 131.319 298.62 132.848C297.375 133.535 296.056 134.08 294.689 134.473C292.764 135.056 290.764 135.349 288.753 135.344C285.114 135.344 281.54 134.383 278.392 132.559C275.243 130.734 272.633 128.11 270.824 124.953C269.02 121.856 268.068 118.337 268.063 114.753C268.055 114.713 268.063 114.678 268.057 114.639C268.069 109.149 270.257 103.888 274.142 100.009C278.027 96.1306 283.291 93.9504 288.781 93.947C289.154 93.955 289.526 93.963 289.894 93.989C293.239 94.1517 296.49 95.149 299.351 96.89Z" fill="#8DDBE0"/>
<path d="M287.487 127.453V124.408C286.519 124.286 285.572 124.034 284.671 123.659C283.736 123.293 282.875 122.761 282.129 122.089L284.081 119.076C284.757 119.609 285.499 120.055 286.287 120.402C286.966 120.693 287.696 120.844 288.434 120.846C289.1 120.902 289.764 120.719 290.307 120.33C290.516 120.126 290.678 119.879 290.781 119.605C290.884 119.331 290.925 119.038 290.902 118.747C290.906 118.494 290.855 118.243 290.753 118.012C290.651 117.78 290.5 117.574 290.31 117.406C289.855 116.999 289.355 116.646 288.818 116.355C288.218 116.022 287.574 115.686 286.886 115.348C286.201 115.017 285.553 114.615 284.953 114.148C284.364 113.69 283.859 113.133 283.462 112.502C283.048 111.802 282.843 110.999 282.871 110.187C282.821 108.836 283.26 107.512 284.107 106.458C284.981 105.444 286.185 104.772 287.507 104.558V101.421H290.461V104.497C291.365 104.615 292.235 104.917 293.018 105.382C293.749 105.829 294.415 106.374 295 107L292.744 109.556C292.272 109.103 291.74 108.719 291.162 108.413C290.621 108.151 290.027 108.02 289.426 108.031C288.832 107.991 288.243 108.151 287.751 108.486C287.545 108.673 287.386 108.905 287.285 109.164C287.184 109.423 287.145 109.701 287.171 109.978C287.17 110.215 287.222 110.45 287.325 110.663C287.428 110.877 287.578 111.065 287.764 111.212C288.223 111.588 288.723 111.91 289.255 112.172C289.855 112.477 290.499 112.792 291.188 113.118C291.874 113.441 292.523 113.84 293.121 114.307C293.718 114.774 294.223 115.347 294.611 115.998C295.028 116.746 295.233 117.594 295.203 118.45C295.237 119.801 294.818 121.125 294.012 122.21C293.118 123.316 291.85 124.057 290.448 124.292V127.459L287.487 127.453Z" fill="white"/>
<path d="M272.056 242.217C271.044 242.217 270.073 241.815 269.357 241.099C268.641 240.383 268.239 239.412 268.239 238.4V219.917C268.239 209.697 277.113 201.383 288.021 201.383C298.929 201.383 307.8 209.7 307.8 219.917V237.13C307.808 237.637 307.716 238.14 307.527 238.61C307.339 239.08 307.059 239.508 306.704 239.87C306.349 240.231 305.925 240.517 305.458 240.713C304.991 240.909 304.489 241.01 303.983 241.01C303.476 241.01 302.974 240.909 302.507 240.713C302.04 240.517 301.616 240.231 301.261 239.87C300.906 239.508 300.626 239.08 300.438 238.61C300.249 238.14 300.157 237.637 300.165 237.13V219.917C300.165 213.907 294.716 209.017 288.018 209.017C281.32 209.017 275.871 213.906 275.871 219.917V238.4C275.871 239.412 275.469 240.382 274.753 241.098C274.038 241.814 273.068 242.216 272.056 242.217Z" fill="#0CBC8B"/>
<path opacity="0.1" d="M272.056 242.217C271.044 242.217 270.073 241.815 269.357 241.099C268.641 240.383 268.239 239.412 268.239 238.4V219.917C268.239 209.697 277.113 201.383 288.021 201.383C298.929 201.383 307.8 209.7 307.8 219.917V237.13C307.808 237.637 307.716 238.14 307.527 238.61C307.339 239.08 307.059 239.508 306.704 239.87C306.349 240.231 305.925 240.517 305.458 240.713C304.991 240.909 304.489 241.01 303.983 241.01C303.476 241.01 302.974 240.909 302.507 240.713C302.04 240.517 301.616 240.231 301.261 239.87C300.906 239.508 300.626 239.08 300.438 238.61C300.249 238.14 300.157 237.637 300.165 237.13V219.917C300.165 213.907 294.716 209.017 288.018 209.017C281.32 209.017 275.871 213.906 275.871 219.917V238.4C275.871 239.412 275.469 240.382 274.753 241.098C274.038 241.814 273.068 242.216 272.056 242.217Z" fill="#0F1011"/>
<path d="M317.18 231.106H258.862C255.461 231.106 252.704 233.863 252.704 237.264V279.937C252.704 283.338 255.461 286.095 258.862 286.095H317.18C320.581 286.095 323.338 283.338 323.338 279.937V237.264C323.338 233.863 320.581 231.106 317.18 231.106Z" fill="#0CBC8B"/>
<path d="M282.215 251.323C282.215 252.413 282.522 253.481 283.101 254.405C283.679 255.329 284.506 256.072 285.486 256.548V265.47C285.486 266.142 285.753 266.787 286.228 267.263C286.704 267.738 287.349 268.005 288.021 268.005C288.693 268.005 289.338 267.738 289.814 267.263C290.289 266.787 290.556 266.142 290.556 265.47V256.548C291.489 256.095 292.283 255.401 292.857 254.538C293.431 253.674 293.763 252.673 293.819 251.637C293.874 250.602 293.652 249.571 293.175 248.651C292.697 247.73 291.982 246.955 291.103 246.404C290.225 245.854 289.215 245.549 288.178 245.521C287.142 245.493 286.117 245.743 285.21 246.245C284.303 246.747 283.546 247.482 283.02 248.375C282.493 249.268 282.215 250.286 282.215 251.323Z" fill="#0CBC8B"/>
<path opacity="0.1" d="M282.215 251.323C282.215 252.413 282.522 253.481 283.101 254.405C283.679 255.329 284.506 256.072 285.486 256.548V265.47C285.486 266.142 285.753 266.787 286.228 267.263C286.704 267.738 287.349 268.005 288.021 268.005C288.693 268.005 289.338 267.738 289.814 267.263C290.289 266.787 290.556 266.142 290.556 265.47V256.548C291.489 256.095 292.283 255.401 292.857 254.538C293.431 253.674 293.763 252.673 293.819 251.637C293.874 250.602 293.652 249.571 293.175 248.651C292.697 247.73 291.982 246.955 291.103 246.404C290.225 245.854 289.215 245.549 288.178 245.521C287.142 245.493 286.117 245.743 285.21 246.245C284.303 246.747 283.546 247.482 283.02 248.375C282.493 249.268 282.215 250.286 282.215 251.323Z" fill="#0F1011"/>
</g>
<defs>
<clipPath id="clip0_1_2182">
<rect width="566.042" height="532.675" fill="white"/>
</clipPath>
</defs>
</svg>
