<svg width="880" height="659" viewBox="0 0 880 659" fill="none" xmlns="http://www.w3.org/2000/svg">
<g clip-path="url(#clip0_1_3045)">
<path d="M745.01 405.674L733.776 408.33L747.86 467.9L759.094 465.244L745.01 405.674Z" fill="#F0F6FF"/>
<path d="M757.369 401.054L747.724 453.341L753.961 454.491L763.606 402.204L757.369 401.054Z" fill="#C1D8ED"/>
<path d="M757.375 401.037L756.277 406.804L762.507 407.99L763.605 402.222L757.375 401.037Z" fill="#DEE8F5"/>
<path d="M738.061 414.335L734.598 415.699L754.808 467L758.271 465.636L738.061 414.335Z" fill="#0CBC8B"/>
<path d="M764.099 436.789H733.634V475.725H764.099V436.789Z" fill="#DEE8F5"/>
<path d="M879.19 658.153H0C9.634 633.586 27.424 612.745 52.5 606.563C89.186 597.531 128.011 622.363 164.616 613.028C185.416 607.728 201.786 592.283 218.99 579.458C283.896 531.064 372.837 516.766 449.649 542.375C489.794 555.757 526.375 579.158 567.5 589.111C620.679 601.982 676.292 591.311 730.979 589.549C784.24 587.835 860.553 609.537 879.19 658.153Z" fill="#F3F5FD"/>
<path d="M666.257 0H45.17V449.786H666.257V0Z" fill="#DEE8F5"/>
<path d="M374.049 65.134H72.415V229.855H374.049V65.134Z" fill="white"/>
<path d="M215.144 109.07H100.975V121.315H215.144V109.07Z" fill="#DEE8F5"/>
<path d="M215.144 141.372H100.975V153.617H215.144V141.372Z" fill="#DEE8F5"/>
<path d="M215.144 173.674H100.975V185.919H215.144V173.674Z" fill="#DEE8F5"/>
<path d="M374.049 255.889H72.415V420.61H374.049V255.889Z" fill="white"/>
<path d="M195.778 309.669H177.979V394.006H195.778V309.669Z" fill="#C1D8ED"/>
<path d="M290.332 320.139H272.533V394.004H290.332V320.139Z" fill="#C1D8ED"/>
<path d="M227.296 287.355H209.497V394.005H227.296V287.355Z" fill="#C1D8ED"/>
<path d="M258.814 334.678H241.015V394.005H258.814V334.678Z" fill="#C1D8ED"/>
<path d="M321.849 304.526H304.05V394.006H321.849V304.526Z" fill="#C1D8ED"/>
<path d="M353.76 287.355H335.961V394.005H353.76V287.355Z" fill="#C1D8ED"/>
<path d="M636.159 66.351H401.55V421.826H636.159V66.351Z" fill="white"/>
<path d="M599.463 264.273H438.246V275.701H599.463V264.273Z" fill="#DEE8F5"/>
<path d="M599.463 296.763H438.246V308.191H599.463V296.763Z" fill="#DEE8F5"/>
<path d="M599.463 329.252H438.246V340.68H599.463V329.252Z" fill="#DEE8F5"/>
<path d="M579.463 361.252H458.246V372.68H579.463V361.252Z" fill="#DEE8F5"/>
<path d="M518.855 225.112C551.992 225.112 578.855 198.249 578.855 165.112C578.855 131.975 551.992 105.112 518.855 105.112C485.718 105.112 458.855 131.975 458.855 165.112C458.855 198.249 485.718 225.112 518.855 225.112Z" fill="#0CBC8B"/>
<g opacity="0.29">
<path d="M518.855 204.008C540.337 204.008 557.751 186.594 557.751 165.112C557.751 143.63 540.337 126.216 518.855 126.216C497.373 126.216 479.959 143.63 479.959 165.112C479.959 186.594 497.373 204.008 518.855 204.008Z" fill="white"/>
</g>
<path d="M506.124 179.005L509.752 173.379C512.628 175.579 515.143 176.706 517.819 176.706C521.025 176.706 522.436 175.376 522.436 172.801C522.436 166.98 507.502 167.085 507.502 156.876C507.502 150.313 512.048 146.133 519.217 146.133C521.253 146.104 523.271 146.518 525.131 147.347C526.991 148.176 528.648 149.399 529.987 150.933L525.825 155.7C523.769 153.83 522.025 152.845 519.663 152.845C516.941 152.845 515.463 153.945 515.463 156.484C515.463 161.879 530.397 161.408 530.397 172.223C530.397 178.723 526.097 183.418 517.817 183.418C513.531 183.321 509.405 181.765 506.124 179.005ZM516.074 140.588H521.593V148.736H516.074V140.588ZM516.074 180.022H521.593V188.962H516.074V180.022Z" fill="white"/>
<path d="M287.393 207.461C320.53 207.461 347.393 180.598 347.393 147.461C347.393 114.324 320.53 87.461 287.393 87.461C254.256 87.461 227.393 114.324 227.393 147.461C227.393 180.598 254.256 207.461 287.393 207.461Z" fill="#0CBC8B"/>
<g opacity="0.29">
<path d="M287.393 186.357C308.875 186.357 326.289 168.943 326.289 147.461C326.289 125.979 308.875 108.565 287.393 108.565C265.911 108.565 248.497 125.979 248.497 147.461C248.497 168.943 265.911 186.357 287.393 186.357Z" fill="white"/>
</g>
<path d="M274.662 161.354L278.291 155.728C281.167 157.928 283.682 159.055 286.357 159.055C289.564 159.055 290.974 157.725 290.974 155.15C290.974 149.329 276.04 149.434 276.04 139.225C276.04 132.662 280.586 128.482 287.755 128.482C289.791 128.452 291.809 128.866 293.669 129.695C295.529 130.524 297.186 131.748 298.525 133.282L294.364 138.049C292.307 136.179 290.564 135.194 288.202 135.194C285.48 135.194 284.002 136.294 284.002 138.833C284.002 144.233 298.936 143.757 298.936 154.572C298.936 161.072 294.636 165.767 286.356 165.767C282.069 165.671 277.944 164.114 274.662 161.354ZM284.613 122.938H290.132V131.085H284.613V122.938ZM284.613 162.371H290.132V171.311H284.613V162.371Z" fill="white"/>
<path d="M128.572 371.873C148.955 371.873 165.479 355.349 165.479 334.966C165.479 314.583 148.955 298.059 128.572 298.059C108.189 298.059 91.665 314.583 91.665 334.966C91.665 355.349 108.189 371.873 128.572 371.873Z" fill="#0CBC8B"/>
<g opacity="0.29">
<path d="M128.572 358.891C141.785 358.891 152.497 348.179 152.497 334.966C152.497 321.753 141.785 311.041 128.572 311.041C115.359 311.041 104.647 321.753 104.647 334.966C104.647 348.179 115.359 358.891 128.572 358.891Z" fill="white"/>
</g>
<path d="M120.741 343.512L122.973 340.051C124.347 341.276 126.097 341.997 127.935 342.098C129.907 342.098 130.775 341.28 130.775 339.698C130.775 336.117 121.589 336.182 121.589 329.898C121.589 325.861 124.389 323.29 128.795 323.29C130.047 323.272 131.289 323.526 132.433 324.036C133.577 324.546 134.596 325.299 135.42 326.242L132.86 329.174C132.377 328.643 131.793 328.214 131.142 327.913C130.491 327.611 129.786 327.443 129.069 327.418C127.395 327.418 126.487 328.093 126.487 329.657C126.487 332.975 135.673 332.685 135.673 339.337C135.673 343.337 133.029 346.224 127.935 346.224C125.298 346.166 122.76 345.209 120.741 343.512ZM126.862 319.881H130.262V324.893H126.862V319.881ZM126.862 344.137H130.262V349.637H126.862V344.137Z" fill="white"/>
<path d="M666.257 0H45.17V37.051H666.257V0Z" fill="#C1D8ED"/>
<path d="M645.455 27.822C650.589 27.822 654.751 23.66 654.751 18.526C654.751 13.392 650.589 9.23 645.455 9.23C640.321 9.23 636.159 13.392 636.159 18.526C636.159 23.66 640.321 27.822 645.455 27.822Z" fill="white"/>
<path d="M182.985 243.473C182.985 243.473 191.027 240.019 191.027 218.892L207.192 217.245C207.192 217.245 203.86 235.913 211.426 242.545L182.985 243.473Z" fill="#E98862"/>
<path d="M182.66 210.013C183.24 216.471 186.22 222.785 191.668 225.302C197.591 228.234 204.141 229.672 210.747 229.491C228.295 229.491 228.097 189.573 220.447 181.191C212.797 172.809 188.115 175.697 184.105 188.332C182.036 194.871 182.107 203.867 182.66 210.013Z" fill="#E98862"/>
<path d="M219.528 197.409C222.934 197.383 226.333 197.096 229.696 196.552C229.696 196.552 228.666 170.63 201.137 172.108C197.562 171.945 193.98 172.156 190.449 172.738C182.175 174.007 170.444 182.467 168.549 203.638C167.681 213.351 164.332 222.507 161.778 228.304C161.476 228.984 161.349 229.73 161.408 230.472C161.466 231.214 161.71 231.93 162.115 232.554C162.521 233.178 163.076 233.692 163.73 234.047C164.384 234.403 165.116 234.589 165.861 234.59L224.84 234.122C225.538 234.123 226.226 233.96 226.849 233.647C227.472 233.334 228.014 232.88 228.43 232.32C228.846 231.76 229.125 231.111 229.245 230.424C229.365 229.736 229.323 229.031 229.121 228.363C225.916 217.738 220.049 211.226 219.528 197.409Z" fill="#0F1011"/>
<path d="M250.691 646.678L229.838 644.198C230.777 636.305 231.838 626.824 231.91 625.27C231.91 625.37 231.91 625.452 231.91 625.515H252.91C252.906 626.144 252.906 628.06 250.691 646.678Z" fill="#E98862"/>
<path d="M167.016 649.188L146.016 649.12C146.016 649.12 146.086 627.435 146.086 625.515H167.086C167.086 627.441 167.016 649.188 167.016 649.188Z" fill="#E98862"/>
<path d="M221.444 640.047L258.444 639.417C256.706 595.385 256.6 549.198 256.058 505.06C248.838 457.486 245.035 405.244 236.123 358.011L235.856 358.09L235.074 352.76L159 348.06C159 348.06 156.8 385.341 156.04 397.76C152.333 458.041 145.131 569.708 140.612 638.846L177.48 641.961C184.12 574.175 193.4 475.4 199.723 404.194C206.984 438.863 212.923 474.762 219.237 509.134C220.5 552.169 221.562 597.149 221.444 640.047Z" fill="#262626"/>
<path d="M192.544 657.31C193.083 657.308 193.617 657.199 194.115 656.99C194.612 656.781 195.064 656.477 195.443 656.093C195.823 655.71 196.123 655.256 196.328 654.757C196.532 654.257 196.635 653.722 196.633 653.183C196.633 653.083 196.628 652.983 196.621 652.883C196.56 652.103 196.277 651.356 195.806 650.731C195.335 650.106 194.695 649.628 193.962 649.354L169.519 641.168C169.046 641.011 168.544 640.958 168.048 641.013C167.552 641.068 167.074 641.23 166.647 641.487C163.287 643.818 159.267 645.01 155.179 644.887C151.995 644.661 148.939 643.544 146.359 641.665C146.132 641.479 145.857 641.361 145.566 641.325C145.275 641.29 144.98 641.337 144.715 641.463C144.45 641.589 144.226 641.788 144.07 642.036C143.914 642.284 143.831 642.572 143.832 642.865V654.817C143.832 655.527 144.114 656.208 144.616 656.711C145.119 657.213 145.8 657.495 146.51 657.495H146.52L192.544 657.31Z" fill="#C1D8ED"/>
<path d="M276.278 657.31C276.817 657.308 277.351 657.199 277.848 656.99C278.345 656.782 278.797 656.477 279.176 656.094C279.556 655.711 279.857 655.257 280.061 654.758C280.265 654.259 280.368 653.724 280.366 653.185C280.366 653.085 280.366 652.985 280.354 652.885C280.293 652.105 280.011 651.358 279.54 650.733C279.069 650.108 278.429 649.63 277.696 649.356L253.253 641.17C252.78 641.013 252.278 640.96 251.782 641.015C251.286 641.07 250.808 641.232 250.381 641.489C247.021 643.82 243.001 645.012 238.913 644.889C235.729 644.663 232.673 643.546 230.093 641.667C229.866 641.481 229.591 641.363 229.3 641.327C229.009 641.291 228.713 641.339 228.448 641.464C228.183 641.59 227.959 641.789 227.803 642.037C227.646 642.286 227.564 642.574 227.565 642.867V654.819C227.565 655.529 227.847 656.21 228.349 656.713C228.852 657.215 229.533 657.497 230.243 657.497H230.254L276.278 657.31Z" fill="#C1D8ED"/>
<path d="M136.6 384.1C136.6 387.081 138.174 397.043 135.643 397.755C134.125 398.182 132.333 390.755 132.333 390.755" fill="#E98862"/>
<path d="M124.655 382.533C124.655 382.533 116.391 402.647 125.817 414.202C126.057 414.496 126.381 414.711 126.745 414.818C127.109 414.925 127.498 414.92 127.859 414.803C128.22 414.687 128.538 414.464 128.771 414.163C129.003 413.863 129.14 413.5 129.163 413.121C129.621 405.33 131.192 389.326 136.329 391.196V378.632" fill="#E98862"/>
<path d="M311 275.369C311 275.369 322.542 266.201 323.358 262.908C324.174 259.615 316.046 253.138 316.046 253.138C316.046 253.138 326.854 242.238 324.699 240.664C322.156 238.799 309.614 254.646 309.614 254.646C309.614 254.646 311.387 248.946 309.178 248.571C308.271 248.417 307.552 249.308 306.132 253.343C304.514 257.943 301.28 264.858 301.28 264.858L311 275.369Z" fill="#E98862"/>
<path d="M298.846 263.18L264.708 301.587L238.008 253.793C235.48 246.242 229.725 241.184 217.985 240.68C213.97 240.508 194.379 240.48 180.036 240.48C170.399 240.48 162.488 243.437 157.92 248.006C155.618 250.274 153.896 253.062 152.899 256.135L152.761 256.084L129.807 318.5C129.549 319.2 129.364 319.924 129.255 320.662L119.991 383.076L141.559 386.276L150.659 324.976L159.929 299.769C160.895 303.643 161.422 307.614 161.502 311.606C161.502 332.606 152.002 342.024 152.702 352.801C153.802 369.746 236.13 365.743 240.325 356.118C244.644 346.191 235.878 340.076 236.262 307.608C236.303 304.075 236.577 300.378 236.952 296.615L253.152 325.615C254 327.134 255.199 328.428 256.649 329.389C258.1 330.35 259.759 330.95 261.488 331.138C263.218 331.327 264.967 331.099 266.591 330.473C268.214 329.847 269.664 328.842 270.819 327.541L315.703 275.041L298.846 263.18Z" fill="#367CFF"/>
<path d="M652.311 546.057H640.916V658.153H652.311V546.057Z" fill="#C1D8ED"/>
<path d="M642.933 546.057H631.538V658.153H642.933V546.057Z" fill="#DEE8F5"/>
<path d="M794.241 546.057H782.846V658.153H794.241V546.057Z" fill="#C1D8ED"/>
<path d="M784.863 546.057H773.468V658.153H784.863V546.057Z" fill="#DEE8F5"/>
<path d="M683.564 546.057H672.169V658.153H683.564V546.057Z" fill="#C1D8ED"/>
<path d="M674.186 546.057H662.791V658.153H674.186V546.057Z" fill="#DEE8F5"/>
<path d="M825.494 546.057H814.099V658.153H825.494V546.057Z" fill="#C1D8ED"/>
<path d="M816.116 546.057H804.721V658.153H816.116V546.057Z" fill="#DEE8F5"/>
<path d="M825.494 474.304H672.24V548.745H825.494V474.304Z" fill="#C1D8ED"/>
<path d="M784.792 474.304H631.538V548.745H784.792V474.304Z" fill="#DEE8F5"/>
<g opacity="0.53">
<path d="M776.547 484.886H639.783V537.833H776.547V484.886Z" fill="#F3F5FD"/>
</g>
<path d="M708.165 517.434C711.52 517.434 714.239 514.715 714.239 511.36C714.239 508.005 711.52 505.286 708.165 505.286C704.81 505.286 702.091 508.005 702.091 511.36C702.091 514.715 704.81 517.434 708.165 517.434Z" fill="white"/>
</g>
<defs>
<clipPath id="clip0_1_3045">
<rect width="879.19" height="658.153" fill="white"/>
</clipPath>
</defs>
</svg>
