<svg width="710" height="582" viewBox="0 0 710 582" fill="none" xmlns="http://www.w3.org/2000/svg">
<g clip-path="url(#clip0_1_2007)">
<path d="M642.183 0H100.269V392.45H642.183V0Z" fill="#DEE8F5"/>
<path d="M642.183 0H100.269V32.328H642.183V0Z" fill="#C1D8ED"/>
<path d="M624.033 24.275C628.513 24.275 632.144 20.6436 632.144 16.164C632.144 11.6844 628.513 8.053 624.033 8.053C619.553 8.053 615.922 11.6844 615.922 16.164C615.922 20.6436 619.553 24.275 624.033 24.275Z" fill="white"/>
<path d="M652.982 426.751C681.18 426.751 704.039 403.892 704.039 375.694C704.039 347.496 681.18 324.637 652.982 324.637C624.784 324.637 601.925 347.496 601.925 375.694C601.925 403.892 624.784 426.751 652.982 426.751Z" fill="#0CBC8B"/>
<g opacity="0.29">
<path d="M652.982 408.792C671.262 408.792 686.08 393.974 686.08 375.694C686.08 357.414 671.262 342.596 652.982 342.596C634.702 342.596 619.884 357.414 619.884 375.694C619.884 393.974 634.702 408.792 652.982 408.792Z" fill="white"/>
</g>
<path d="M642.153 387.516L645.24 382.729C647.687 384.604 649.828 385.56 652.104 385.56C654.833 385.56 656.033 384.428 656.033 382.237C656.033 377.284 643.325 377.373 643.325 368.686C643.325 363.101 647.195 359.544 653.294 359.544C655.027 359.519 656.744 359.871 658.327 360.576C659.909 361.281 661.319 362.323 662.459 363.628L658.918 367.684C657.168 366.093 655.684 365.255 653.674 365.255C651.358 365.255 650.101 366.189 650.101 368.355C650.101 372.946 662.809 372.545 662.809 381.747C662.809 387.275 659.151 391.274 652.109 391.274C648.459 391.193 644.946 389.867 642.153 387.516ZM650.62 354.826H655.32V361.759H650.62V354.826ZM650.62 388.381H655.32V395.989H650.62V388.381Z" fill="white"/>
<path d="M701.138 555.044H603.123C598.421 555.044 594.61 558.855 594.61 563.557V572.513C594.61 577.215 598.421 581.026 603.123 581.026H701.138C705.84 581.026 709.651 577.215 709.651 572.513V563.557C709.651 558.855 705.84 555.044 701.138 555.044Z" fill="#0CBC8B"/>
<path d="M685.879 529.062H587.864C583.162 529.062 579.351 532.873 579.351 537.575V546.531C579.351 551.233 583.162 555.044 587.864 555.044H685.879C690.581 555.044 694.392 551.233 694.392 546.531V537.575C694.392 532.873 690.581 529.062 685.879 529.062Z" fill="#0CBC8B"/>
<path d="M701.138 503.079H603.123C598.421 503.079 594.61 506.89 594.61 511.592V520.548C594.61 525.25 598.421 529.061 603.123 529.061H701.138C705.84 529.061 709.651 525.25 709.651 520.548V511.592C709.651 506.89 705.84 503.079 701.138 503.079Z" fill="#0CBC8B"/>
<path d="M693.509 477.569H595.494C590.792 477.569 586.981 481.38 586.981 486.082V495.038C586.981 499.74 590.792 503.551 595.494 503.551H693.509C698.211 503.551 702.022 499.74 702.022 495.038V486.082C702.022 481.38 698.211 477.569 693.509 477.569Z" fill="#0CBC8B"/>
<path d="M678.249 451.586H580.234C575.532 451.586 571.721 455.397 571.721 460.099V469.055C571.721 473.757 575.532 477.568 580.234 477.568H678.249C682.951 477.568 686.762 473.757 686.762 469.055V460.099C686.762 455.397 682.951 451.586 678.249 451.586Z" fill="#0CBC8B"/>
<path d="M693.509 425.604H595.494C590.792 425.604 586.981 429.415 586.981 434.117V443.073C586.981 447.775 590.792 451.586 595.494 451.586H693.509C698.211 451.586 702.022 447.775 702.022 443.073V434.117C702.022 429.415 698.211 425.604 693.509 425.604Z" fill="#0CBC8B"/>
<path d="M544.957 555.044H446.942C442.24 555.044 438.429 558.855 438.429 563.557V572.513C438.429 577.215 442.24 581.026 446.942 581.026H544.957C549.659 581.026 553.47 577.215 553.47 572.513V563.557C553.47 558.855 549.659 555.044 544.957 555.044Z" fill="#0CBC8B"/>
<path d="M553.217 529.061H455.202C450.5 529.061 446.689 532.872 446.689 537.574V546.53C446.689 551.232 450.5 555.043 455.202 555.043H553.217C557.919 555.043 561.73 551.232 561.73 546.53V537.574C561.73 532.872 557.919 529.061 553.217 529.061Z" fill="#0CBC8B"/>
<path d="M544.957 503.079H446.942C442.24 503.079 438.429 506.89 438.429 511.592V520.548C438.429 525.25 442.24 529.061 446.942 529.061H544.957C549.659 529.061 553.47 525.25 553.47 520.548V511.592C553.47 506.89 549.659 503.079 544.957 503.079Z" fill="#0CBC8B"/>
<path d="M583.01 58.558H159.442V335.739H583.01V58.558Z" fill="white"/>
<path d="M205.589 327.106C205.456 327.106 205.329 327.053 205.235 326.96C205.142 326.866 205.089 326.739 205.089 326.606V67.828C205.089 67.6954 205.142 67.5682 205.235 67.4744C205.329 67.3807 205.456 67.328 205.589 67.328C205.722 67.328 205.849 67.3807 205.943 67.4744C206.036 67.5682 206.089 67.6954 206.089 67.828V326.606C206.089 326.739 206.036 326.866 205.943 326.96C205.849 327.053 205.722 327.106 205.589 327.106Z" fill="#DEE8F5"/>
<path d="M242.334 327.106C242.201 327.106 242.074 327.053 241.98 326.96C241.887 326.866 241.834 326.739 241.834 326.606V67.828C241.834 67.6954 241.887 67.5682 241.98 67.4744C242.074 67.3807 242.201 67.328 242.334 67.328C242.467 67.328 242.594 67.3807 242.688 67.4744C242.781 67.5682 242.834 67.6954 242.834 67.828V326.606C242.834 326.739 242.781 326.866 242.688 326.96C242.594 327.053 242.467 327.106 242.334 327.106Z" fill="#DEE8F5"/>
<path d="M279.078 327.106C278.945 327.106 278.818 327.053 278.724 326.96C278.631 326.866 278.578 326.739 278.578 326.606V67.828C278.578 67.6954 278.631 67.5682 278.724 67.4744C278.818 67.3807 278.945 67.328 279.078 67.328C279.211 67.328 279.338 67.3807 279.432 67.4744C279.525 67.5682 279.578 67.6954 279.578 67.828V326.606C279.578 326.739 279.525 326.866 279.432 326.96C279.338 327.053 279.211 327.106 279.078 327.106Z" fill="#DEE8F5"/>
<path d="M315.821 327.106C315.688 327.106 315.561 327.053 315.467 326.96C315.374 326.866 315.321 326.739 315.321 326.606V67.828C315.321 67.6954 315.374 67.5682 315.467 67.4744C315.561 67.3807 315.688 67.328 315.821 67.328C315.954 67.328 316.081 67.3807 316.175 67.4744C316.268 67.5682 316.321 67.6954 316.321 67.828V326.606C316.321 326.739 316.268 326.866 316.175 326.96C316.081 327.053 315.954 327.106 315.821 327.106Z" fill="#DEE8F5"/>
<path d="M352.565 327.106C352.432 327.106 352.305 327.053 352.211 326.96C352.118 326.866 352.065 326.739 352.065 326.606V67.828C352.065 67.6954 352.118 67.5682 352.211 67.4744C352.305 67.3807 352.432 67.328 352.565 67.328C352.698 67.328 352.825 67.3807 352.919 67.4744C353.012 67.5682 353.065 67.6954 353.065 67.828V326.606C353.065 326.739 353.012 326.866 352.919 326.96C352.825 327.053 352.698 327.106 352.565 327.106Z" fill="#DEE8F5"/>
<path d="M389.31 327.106C389.177 327.106 389.05 327.053 388.956 326.96C388.863 326.866 388.81 326.739 388.81 326.606V67.828C388.81 67.6954 388.863 67.5682 388.956 67.4744C389.05 67.3807 389.177 67.328 389.31 67.328C389.443 67.328 389.57 67.3807 389.664 67.4744C389.757 67.5682 389.81 67.6954 389.81 67.828V326.606C389.81 326.739 389.757 326.866 389.664 326.96C389.57 327.053 389.443 327.106 389.31 327.106Z" fill="#DEE8F5"/>
<path d="M426.054 327.106C425.921 327.106 425.794 327.053 425.7 326.96C425.607 326.866 425.554 326.739 425.554 326.606V67.828C425.554 67.6954 425.607 67.5682 425.7 67.4744C425.794 67.3807 425.921 67.328 426.054 67.328C426.187 67.328 426.314 67.3807 426.408 67.4744C426.501 67.5682 426.554 67.6954 426.554 67.828V326.606C426.554 326.739 426.501 326.866 426.408 326.96C426.314 327.053 426.187 327.106 426.054 327.106Z" fill="#DEE8F5"/>
<path d="M462.8 327.106C462.667 327.106 462.54 327.053 462.446 326.96C462.353 326.866 462.3 326.739 462.3 326.606V67.828C462.3 67.6954 462.353 67.5682 462.446 67.4744C462.54 67.3807 462.667 67.328 462.8 67.328C462.933 67.328 463.06 67.3807 463.154 67.4744C463.247 67.5682 463.3 67.6954 463.3 67.828V326.606C463.3 326.739 463.247 326.866 463.154 326.96C463.06 327.053 462.933 327.106 462.8 327.106Z" fill="#DEE8F5"/>
<path d="M499.542 327.106C499.409 327.106 499.282 327.053 499.188 326.96C499.095 326.866 499.042 326.739 499.042 326.606V67.828C499.042 67.6954 499.095 67.5682 499.188 67.4744C499.282 67.3807 499.409 67.328 499.542 67.328C499.675 67.328 499.802 67.3807 499.896 67.4744C499.989 67.5682 500.042 67.6954 500.042 67.828V326.606C500.042 326.739 499.989 326.866 499.896 326.96C499.802 327.053 499.675 327.106 499.542 327.106Z" fill="#DEE8F5"/>
<path d="M536.286 327.106C536.153 327.106 536.026 327.053 535.932 326.96C535.839 326.866 535.786 326.739 535.786 326.606V67.828C535.786 67.6954 535.839 67.5682 535.932 67.4744C536.026 67.3807 536.153 67.328 536.286 67.328C536.419 67.328 536.546 67.3807 536.64 67.4744C536.733 67.5682 536.786 67.6954 536.786 67.828V326.606C536.786 326.739 536.733 326.866 536.64 326.96C536.546 327.053 536.419 327.106 536.286 327.106Z" fill="#DEE8F5"/>
<path d="M573.03 106.117H168.846C168.713 106.117 168.586 106.064 168.492 105.971C168.399 105.877 168.346 105.75 168.346 105.617C168.346 105.484 168.399 105.357 168.492 105.263C168.586 105.17 168.713 105.117 168.846 105.117H573.03C573.163 105.117 573.29 105.17 573.384 105.263C573.477 105.357 573.53 105.484 573.53 105.617C573.53 105.75 573.477 105.877 573.384 105.971C573.29 106.064 573.163 106.117 573.03 106.117Z" fill="#DEE8F5"/>
<path d="M573.03 142.861H168.846C168.713 142.861 168.586 142.808 168.492 142.715C168.399 142.621 168.346 142.494 168.346 142.361C168.346 142.228 168.399 142.101 168.492 142.007C168.586 141.914 168.713 141.861 168.846 141.861H573.03C573.163 141.861 573.29 141.914 573.384 142.007C573.477 142.101 573.53 142.228 573.53 142.361C573.53 142.494 573.477 142.621 573.384 142.715C573.29 142.808 573.163 142.861 573.03 142.861Z" fill="#DEE8F5"/>
<path d="M573.03 179.605H168.846C168.713 179.605 168.586 179.552 168.492 179.459C168.399 179.365 168.346 179.238 168.346 179.105C168.346 178.972 168.399 178.845 168.492 178.751C168.586 178.658 168.713 178.605 168.846 178.605H573.03C573.163 178.605 573.29 178.658 573.384 178.751C573.477 178.845 573.53 178.972 573.53 179.105C573.53 179.238 573.477 179.365 573.384 179.459C573.29 179.552 573.163 179.605 573.03 179.605Z" fill="#DEE8F5"/>
<path d="M573.03 216.349H168.846C168.713 216.349 168.586 216.296 168.492 216.203C168.399 216.109 168.346 215.982 168.346 215.849C168.346 215.716 168.399 215.589 168.492 215.495C168.586 215.402 168.713 215.349 168.846 215.349H573.03C573.163 215.349 573.29 215.402 573.384 215.495C573.477 215.589 573.53 215.716 573.53 215.849C573.53 215.982 573.477 216.109 573.384 216.203C573.29 216.296 573.163 216.349 573.03 216.349Z" fill="#DEE8F5"/>
<path d="M573.03 253.093H168.846C168.713 253.093 168.586 253.04 168.492 252.947C168.399 252.853 168.346 252.726 168.346 252.593C168.346 252.46 168.399 252.333 168.492 252.239C168.586 252.146 168.713 252.093 168.846 252.093H573.03C573.163 252.093 573.29 252.146 573.384 252.239C573.477 252.333 573.53 252.46 573.53 252.593C573.53 252.726 573.477 252.853 573.384 252.947C573.29 253.04 573.163 253.093 573.03 253.093Z" fill="#DEE8F5"/>
<path d="M573.03 289.837H168.846C168.713 289.837 168.586 289.784 168.492 289.691C168.399 289.597 168.346 289.47 168.346 289.337C168.346 289.204 168.399 289.077 168.492 288.983C168.586 288.89 168.713 288.837 168.846 288.837H573.03C573.163 288.837 573.29 288.89 573.384 288.983C573.477 289.077 573.53 289.204 573.53 289.337C573.53 289.47 573.477 289.597 573.384 289.691C573.29 289.784 573.163 289.837 573.03 289.837Z" fill="#DEE8F5"/>
<path d="M573.03 327.106H168.846C168.713 327.106 168.586 327.053 168.492 326.96C168.399 326.866 168.346 326.739 168.346 326.606V67.828C168.346 67.6954 168.399 67.5682 168.492 67.4744C168.586 67.3807 168.713 67.328 168.846 67.328H573.03C573.163 67.328 573.29 67.3807 573.384 67.4744C573.477 67.5682 573.53 67.6954 573.53 67.828V326.606C573.53 326.739 573.477 326.866 573.384 326.96C573.29 327.053 573.163 327.106 573.03 327.106ZM169.346 326.106H572.53V68.328H169.346V326.106Z" fill="#DEE8F5"/>
<path d="M186.942 262.092H177.889V297.416H186.942V262.092Z" fill="#8DDBE0"/>
<path d="M183.344 246.439H181.487V313.068H183.344V246.439Z" fill="#8DDBE0"/>
<path d="M200.928 214.999H191.875V262.989H200.928V214.999Z" fill="#8DDBE0"/>
<path d="M197.33 199.347H195.473V278.642H197.33V199.347Z" fill="#8DDBE0"/>
<path d="M214.914 215.387H205.861V238.17H214.914V215.387Z" fill="#FD5D76"/>
<path d="M211.316 199.734H209.459V253.822H211.316V199.734Z" fill="#FD5D76"/>
<path d="M228.9 183.716H219.847V238.532H228.9V183.716Z" fill="#8DDBE0"/>
<path d="M225.302 168.063H223.445V254.184H225.302V168.063Z" fill="#8DDBE0"/>
<path d="M242.886 183.308H233.833V200.753H242.886V183.308Z" fill="#FD5D76"/>
<path d="M239.288 167.655H237.431V216.405H239.288V167.655Z" fill="#FD5D76"/>
<path d="M256.872 200.099H247.819V222.882H256.872V200.099Z" fill="#FD5D76"/>
<path d="M253.274 184.447H251.417V238.535H253.274V184.447Z" fill="#FD5D76"/>
<path d="M270.858 173.787H261.805V223.264H270.858V173.787Z" fill="#8DDBE0"/>
<path d="M267.26 158.135H265.403V238.917H267.26V158.135Z" fill="#8DDBE0"/>
<path d="M284.844 223.501H275.791V258.297H284.844V223.501Z" fill="#FD5D76"/>
<path d="M281.246 207.849H279.389V273.95H281.246V207.849Z" fill="#FD5D76"/>
<path d="M298.83 189.116H289.777V223.912H298.83V189.116Z" fill="#8DDBE0"/>
<path d="M295.232 173.464H293.375V239.565H295.232V173.464Z" fill="#8DDBE0"/>
<path d="M312.816 167.784H303.763V189.233H312.816V167.784Z" fill="#8DDBE0"/>
<path d="M309.218 152.132H307.361V204.886H309.218V152.132Z" fill="#8DDBE0"/>
<path d="M326.802 167.384H317.749V201.691H326.802V167.384Z" fill="#FD5D76"/>
<path d="M323.204 151.731H321.347V217.343H323.204V151.731Z" fill="#FD5D76"/>
<path d="M340.788 202.052H331.735V215.49H340.788V202.052Z" fill="#FD5D76"/>
<path d="M337.19 186.4H335.333V231.143H337.19V186.4Z" fill="#FD5D76"/>
<path d="M354.774 185.901H345.721V201.949H354.774V185.901Z" fill="#8DDBE0"/>
<path d="M351.176 170.249H349.319V217.602H351.176V170.249Z" fill="#8DDBE0"/>
<path d="M368.76 177.047H359.707V186.563H368.76V177.047Z" fill="#8DDBE0"/>
<path d="M365.161 161.395H363.304V202.216H365.161V161.395Z" fill="#8DDBE0"/>
<path d="M382.746 138.577H373.693V177.02H382.746V138.577Z" fill="#8DDBE0"/>
<path d="M379.147 122.925H377.29V192.673H379.147V122.925Z" fill="#8DDBE0"/>
<path d="M396.732 139.033H387.679V146.683H396.732V139.033Z" fill="#FD5D76"/>
<path d="M393.133 123.381H391.276V162.336H393.133V123.381Z" fill="#FD5D76"/>
<path d="M410.717 130.949H401.664V139.532H410.717V130.949Z" fill="#8DDBE0"/>
<path d="M407.119 115.296H405.262V155.184H407.119V115.296Z" fill="#8DDBE0"/>
<path d="M424.703 131.404H415.65V171.714H424.703V131.404Z" fill="#FD5D76"/>
<path d="M421.105 115.752H419.248V187.367H421.105V115.752Z" fill="#FD5D76"/>
<path d="M438.689 171.095H429.636V190.974H438.689V171.095Z" fill="#FD5D76"/>
<path d="M435.091 155.442H433.234V206.626H435.091V155.442Z" fill="#FD5D76"/>
<path d="M452.675 190.696H443.622V198.346H452.675V190.696Z" fill="#FD5D76"/>
<path d="M449.077 175.044H447.22V213.999H449.077V175.044Z" fill="#FD5D76"/>
<path d="M466.661 171.53H457.608V198.776H466.661V171.53Z" fill="#8DDBE0"/>
<path d="M463.063 155.877H461.206V214.428H463.063V155.877Z" fill="#8DDBE0"/>
<path d="M550.577 106.036H541.524V142.613H550.577V106.036Z" fill="#8DDBE0"/>
<path d="M546.979 90.384H545.122V158.266H546.979V90.384Z" fill="#8DDBE0"/>
<path d="M564.563 97.516H555.51V106.099H564.563V97.516Z" fill="#8DDBE0"/>
<path d="M560.965 81.864H559.108V121.752H560.965V81.864Z" fill="#8DDBE0"/>
<path d="M480.647 162.198H471.594V171.714H480.647V162.198Z" fill="#8DDBE0"/>
<path d="M477.049 146.546H475.192V187.367H477.049V146.546Z" fill="#8DDBE0"/>
<path d="M494.633 143.535H485.58V162.382H494.633V143.535Z" fill="#8DDBE0"/>
<path d="M491.035 127.883H489.178V178.035H491.035V127.883Z" fill="#8DDBE0"/>
<path d="M508.619 114.901H499.566V143.08H508.619V114.901Z" fill="#8DDBE0"/>
<path d="M505.021 99.248H503.164V158.732H505.021V99.248Z" fill="#8DDBE0"/>
<path d="M522.605 114.901H513.552V124.417H522.605V114.901Z" fill="#FD5D76"/>
<path d="M519.007 99.248H517.15V140.069H519.007V99.248Z" fill="#FD5D76"/>
<path d="M536.591 124.232H527.538V143.079H536.591V124.232Z" fill="#FD5D76"/>
<path d="M532.993 108.58H531.136V158.732H532.993V108.58Z" fill="#FD5D76"/>
<path d="M139.256 570.2L118.403 567.72C119.341 559.827 120.403 550.347 120.475 548.792V549.037H141.475C141.47 549.67 141.47 551.585 139.256 570.2Z" fill="#E98862"/>
<path d="M45.579 572.713L24.579 572.644C24.579 572.644 24.65 550.96 24.65 549.044H45.65C45.651 550.966 45.579 572.713 45.579 572.713Z" fill="#E98862"/>
<path d="M110.5 567.508L146.51 559.008C123.195 467.479 103.63 374.055 84.681 281.538L84.414 281.617L83.633 276.288L7.556 271.588C7.556 271.588 4.6 308.845 4.6 321.293C4.607 382.299 14.31 483.723 19.13 564.882L56.082 562.99C53.907 484.29 48.034 405.475 48.456 326.754C70.579 406.394 92.647 486.885 110.5 567.508Z" fill="#262626"/>
<path d="M71.109 580.835C71.6484 580.833 72.182 580.724 72.6794 580.515C73.1768 580.307 73.6282 580.002 74.0078 579.619C74.3875 579.236 74.6879 578.782 74.8919 578.282C75.096 577.783 75.1996 577.248 75.197 576.709C75.197 576.609 75.197 576.509 75.185 576.409C75.1242 575.629 74.8417 574.882 74.3708 574.257C73.8999 573.632 73.2602 573.154 72.527 572.88L48.084 564.693C47.6105 564.536 47.1087 564.484 46.613 564.539C46.1173 564.594 45.6394 564.756 45.212 565.013C41.8515 567.344 37.832 568.536 33.744 568.413C30.5602 568.187 27.504 567.07 24.924 565.191C24.6972 565.005 24.4222 564.887 24.131 564.852C23.8399 564.816 23.5446 564.864 23.2796 564.99C23.0146 565.115 22.7909 565.314 22.6344 565.562C22.478 565.81 22.3953 566.098 22.396 566.391V578.349C22.396 579.059 22.6781 579.74 23.1804 580.243C23.6826 580.745 24.3638 581.027 25.074 581.027H25.085L71.109 580.835Z" fill="#C1D8ED"/>
<path d="M164.843 580.835C165.382 580.832 165.916 580.724 166.414 580.515C166.911 580.306 167.362 580.001 167.742 579.618C168.122 579.234 168.422 578.78 168.626 578.281C168.83 577.781 168.934 577.246 168.931 576.707C168.931 576.607 168.931 576.507 168.919 576.407C168.858 575.626 168.576 574.88 168.105 574.254C167.634 573.629 166.994 573.152 166.26 572.878L141.818 564.691C141.344 564.534 140.842 564.481 140.346 564.536C139.851 564.592 139.372 564.754 138.945 565.011C135.585 567.342 131.566 568.534 127.478 568.411C124.294 568.184 121.238 567.068 118.657 565.189C118.43 565.003 118.155 564.885 117.864 564.849C117.573 564.814 117.278 564.862 117.013 564.987C116.748 565.113 116.524 565.312 116.368 565.56C116.212 565.808 116.129 566.096 116.13 566.389V578.347C116.13 579.057 116.412 579.738 116.914 580.241C117.417 580.743 118.098 581.025 118.808 581.025H118.819L164.843 580.835Z" fill="#C1D8ED"/>
<path d="M168.9 242.328H109.416C107.655 242.328 105.922 241.885 104.377 241.04C102.832 240.195 101.525 238.975 100.575 237.492L62.993 178.824L80.679 167.5L115.163 221.332H168.9V242.328Z" fill="#367CFF"/>
<path d="M88.579 278.116C84.389 287.746 2.059 291.746 0.959 274.806C0.259 264.026 9.759 254.616 9.759 233.606C9.759 212.596 -9.571 185.766 6.179 170.016C10.749 165.446 18.639 162.496 28.259 162.486C28.979 168.096 63.039 168.116 63.299 162.616C64.599 162.636 65.609 162.656 66.239 162.686C99.419 164.116 84.839 201.876 84.519 229.616C84.132 262.076 92.9 268.2 88.579 278.116Z" fill="#367CFF"/>
<path d="M63.3 162.616C63.04 168.116 60.05 176.206 50.82 176.816C38.52 177.626 28.98 168.096 28.26 162.486H28.29C40.4 162.486 56.242 162.506 63.3 162.616Z" fill="#E98862"/>
<path d="M257.066 221.958L224 161.762C223.822 161.384 223.567 161.048 223.25 160.776C222.933 160.504 222.562 160.303 222.162 160.184C221.761 160.066 221.34 160.034 220.926 160.09C220.513 160.146 220.115 160.289 219.761 160.51L148.442 199.663L77.054 238.679C76.6771 238.859 76.3426 239.117 76.0724 239.435C75.8023 239.754 75.6026 240.126 75.4866 240.527C75.3706 240.928 75.3409 241.349 75.3994 241.763C75.4579 242.176 75.6033 242.573 75.826 242.926L108.75 303.2L113.67 312.2C113.849 312.578 114.106 312.914 114.424 313.185C114.742 313.457 115.114 313.659 115.515 313.777C115.916 313.895 116.338 313.927 116.752 313.87C117.167 313.814 117.565 313.671 117.92 313.45L130.456 306.601L172.413 283.672L172.436 283.696L189.378 274.396L206.337 265.125L206.329 265.093L248.24 242.084L260.762 235.208C261.14 235.028 261.476 234.77 261.748 234.45C262.019 234.131 262.22 233.758 262.337 233.355C262.454 232.953 262.484 232.53 262.426 232.115C262.368 231.7 262.223 231.302 262 230.947L257.066 221.958Z" fill="#8DDBE0"/>
<path opacity="0.47" d="M224.8 182.664C221.898 184.245 218.49 184.615 215.317 183.693C212.143 182.771 209.464 180.632 207.861 177.742L152.947 207.88L97.985 237.923C99.5575 240.83 99.9171 244.24 98.9856 247.411C98.054 250.581 95.9068 253.255 93.012 254.849L112.919 291.284C114.159 290.602 115.509 290.141 116.907 289.922C118.572 289.657 120.273 289.729 121.91 290.133C123.546 290.537 125.085 291.265 126.435 292.275C127.855 293.334 129.027 294.691 129.866 296.251L165.666 276.682L165.69 276.707L184.876 266.179L204.076 255.679L204.069 255.644L239.836 236.011C238.975 234.463 238.463 232.745 238.336 230.978C238.212 229.296 238.426 227.606 238.967 226.009C239.508 224.411 240.364 222.939 241.484 221.678C242.424 220.618 243.54 219.729 244.784 219.051L224.8 182.664Z" fill="white"/>
<path d="M125.347 268.46C129.655 268.46 133.148 264.967 133.148 260.659C133.148 256.351 129.655 252.858 125.347 252.858C121.039 252.858 117.546 256.351 117.546 260.659C117.546 264.967 121.039 268.46 125.347 268.46Z" fill="#8DDBE0"/>
<path d="M212.284 220.841C216.592 220.841 220.085 217.348 220.085 213.04C220.085 208.732 216.592 205.239 212.284 205.239C207.976 205.239 204.483 208.732 204.483 213.04C204.483 217.348 207.976 220.841 212.284 220.841Z" fill="#8DDBE0"/>
<path d="M169.841 210.093C174.229 210.182 178.524 211.379 182.326 213.572C186.128 215.766 189.313 218.884 191.587 222.639C193.758 226.36 196.066 230.818 195.587 239.398C195.256 243.705 193.813 247.853 191.4 251.436C190.412 252.994 189.253 254.437 187.943 255.736C186.117 257.597 184.025 259.177 181.735 260.423C177.598 262.689 172.935 263.823 168.219 263.709C163.503 263.596 158.9 262.238 154.877 259.775C150.896 257.376 147.621 253.967 145.384 249.894C145.35 249.854 145.339 249.808 145.306 249.769C141.901 243.519 141.113 236.175 143.115 229.345C145.116 222.515 149.744 216.758 155.983 213.334C156.412 213.111 156.841 212.888 157.275 212.688C161.181 210.787 165.501 209.895 169.841 210.093Z" fill="#8DDBE0"/>
<path d="M175.386 252.233L173.492 248.769C172.315 249.232 171.081 249.535 169.824 249.669C168.533 249.836 167.223 249.769 165.956 249.469L166.298 244.828C167.4 245.013 168.521 245.058 169.634 244.962C170.586 244.87 171.51 244.587 172.35 244.129C173.142 243.779 173.784 243.157 174.159 242.376C174.27 242.014 174.3 241.632 174.247 241.257C174.193 240.881 174.058 240.523 173.85 240.206C173.697 239.916 173.483 239.662 173.222 239.463C172.962 239.264 172.661 239.123 172.341 239.051C171.57 238.87 170.781 238.78 169.99 238.783C169.101 238.775 168.159 238.795 167.166 238.843C166.18 238.892 165.192 238.836 164.218 238.677C163.264 238.524 162.343 238.205 161.499 237.734C160.593 237.196 159.859 236.411 159.384 235.47C158.486 233.965 158.161 232.186 158.468 230.46C158.83 228.764 159.779 227.25 161.147 226.184L159.196 222.616L162.556 220.779L164.469 224.279C165.57 223.851 166.747 223.652 167.928 223.693C169.035 223.745 170.13 223.947 171.183 224.293L170.21 228.604C169.392 228.382 168.547 228.277 167.699 228.29C166.921 228.329 166.164 228.55 165.487 228.936C164.787 229.26 164.216 229.81 163.866 230.497C163.748 230.837 163.711 231.2 163.758 231.557C163.805 231.914 163.934 232.256 164.136 232.554C164.282 232.825 164.487 233.059 164.737 233.238C164.987 233.417 165.275 233.537 165.578 233.588C166.334 233.73 167.104 233.785 167.872 233.751C168.739 233.725 169.668 233.682 170.659 233.623C171.641 233.563 172.626 233.613 173.597 233.772C174.567 233.93 175.499 234.267 176.345 234.766C177.285 235.357 178.046 236.194 178.545 237.186C179.425 238.701 179.773 240.467 179.532 242.202C179.205 244.017 178.224 245.649 176.776 246.79L178.746 250.39L175.386 252.233Z" fill="white"/>
<path d="M236.619 189.885L188.634 140.751C188.362 140.435 188.025 140.18 187.647 140.003C187.269 139.826 186.858 139.731 186.44 139.724C186.023 139.717 185.609 139.799 185.225 139.964C184.842 140.129 184.497 140.373 184.215 140.681L126 197.515L67.674 254.238C67.3591 254.512 67.1058 254.85 66.9309 255.229C66.7559 255.608 66.6633 256.02 66.6591 256.438C66.6548 256.855 66.739 257.269 66.9062 257.652C67.0734 258.035 67.3197 258.377 67.629 258.658L115.5 307.9L122.65 315.248C122.924 315.564 123.261 315.819 123.641 315.996C124.02 316.172 124.432 316.267 124.85 316.273C125.268 316.279 125.683 316.197 126.068 316.032C126.452 315.867 126.797 315.622 127.08 315.314L137.322 305.355L171.6 272.022L171.628 272.039L185.459 258.539L199.313 245.063L199.296 245.033L233.508 211.633L243.729 201.653C244.044 201.378 244.298 201.039 244.473 200.659C244.648 200.279 244.741 199.867 244.746 199.448C244.75 199.03 244.666 198.616 244.5 198.232C244.333 197.848 244.087 197.504 243.778 197.222L236.619 189.885Z" fill="#8DDBE0"/>
<path opacity="0.47" d="M195 160.676C192.629 162.977 189.444 164.248 186.139 164.21C182.835 164.173 179.68 162.831 177.361 160.476L132.536 204.228L87.637 247.9C89.9307 250.279 91.1911 253.468 91.1433 256.772C91.0955 260.076 89.7435 263.228 87.382 265.539L116.325 295.306C117.338 294.317 118.515 293.512 119.803 292.925C121.336 292.224 122.994 291.837 124.679 291.788C126.363 291.739 128.041 292.028 129.612 292.639C131.265 293.278 132.757 294.272 133.984 295.55L163.233 267.1L163.264 267.118L178.926 251.833L194.612 236.572L194.595 236.541L223.795 208.041C222.551 206.782 221.597 205.266 221 203.6C220.43 202.013 220.184 200.329 220.277 198.645C220.37 196.962 220.8 195.314 221.541 193.8C222.161 192.528 222.997 191.372 224.011 190.385L195 160.676Z" fill="white"/>
<path d="M120.091 270.272C124.399 270.272 127.892 266.779 127.892 262.471C127.892 258.163 124.399 254.67 120.091 254.67C115.783 254.67 112.29 258.163 112.29 262.471C112.29 266.779 115.783 270.272 120.091 270.272Z" fill="#8DDBE0"/>
<path d="M191.086 201.095C195.394 201.095 198.887 197.602 198.887 193.294C198.887 188.986 195.394 185.493 191.086 185.493C186.778 185.493 183.285 188.986 183.285 193.294C183.285 197.602 186.778 201.095 191.086 201.095Z" fill="#8DDBE0"/>
<path d="M149.405 201.831C153.657 200.74 158.115 200.742 162.366 201.836C166.617 202.931 170.522 205.082 173.718 208.09C176.807 211.09 180.226 214.768 182.065 223.163C182.9 227.401 182.621 231.784 181.256 235.882C180.722 237.647 179.991 239.346 179.077 240.948C177.817 243.23 176.225 245.313 174.353 247.127C170.974 250.42 166.785 252.762 162.21 253.916C157.635 255.07 152.837 254.996 148.3 253.7C143.823 252.456 139.754 250.05 136.507 246.725C136.464 246.695 136.441 246.654 136.398 246.625C131.443 241.516 128.715 234.651 128.813 227.535C128.911 220.419 131.826 213.632 136.92 208.661C137.274 208.331 137.627 208.002 137.992 207.692C141.247 204.816 145.171 202.801 149.405 201.831Z" fill="#8DDBE0"/>
<path d="M166.041 240.943L163.288 238.113C162.28 238.875 161.174 239.499 160 239.966C158.801 240.472 157.52 240.757 156.22 240.807L155.306 236.244C156.417 236.127 157.509 235.87 158.555 235.479C159.448 235.136 160.262 234.615 160.949 233.949C161.618 233.399 162.07 232.628 162.221 231.775C162.231 231.396 162.157 231.02 162.005 230.673C161.853 230.326 161.627 230.017 161.342 229.767C161.117 229.529 160.842 229.342 160.538 229.22C160.234 229.097 159.907 229.042 159.579 229.058C158.788 229.091 158.004 229.216 157.242 229.431C156.383 229.661 155.482 229.932 154.537 230.245C153.601 230.556 152.634 230.768 151.653 230.875C150.692 230.984 149.72 230.923 148.78 230.696C147.763 230.421 146.846 229.861 146.136 229.082C144.868 227.872 144.078 226.246 143.911 224.501C143.805 222.77 144.313 221.057 145.346 219.663L142.51 216.748L145.255 214.078L148.035 216.936C148.981 216.228 150.062 215.721 151.211 215.445C152.293 215.199 153.403 215.102 154.511 215.155L154.729 219.569C153.883 219.575 153.041 219.7 152.229 219.939C151.49 220.185 150.82 220.601 150.272 221.155C149.684 221.654 149.282 222.337 149.129 223.093C149.106 223.453 149.168 223.812 149.309 224.144C149.449 224.476 149.666 224.77 149.94 225.003C150.153 225.225 150.414 225.395 150.703 225.5C150.991 225.606 151.3 225.644 151.606 225.612C152.372 225.546 153.129 225.393 153.86 225.154C154.692 224.896 155.575 224.606 156.51 224.284C157.44 223.963 158.403 223.747 159.381 223.64C160.358 223.533 161.346 223.608 162.295 223.861C163.359 224.178 164.317 224.781 165.063 225.603C166.318 226.826 167.128 228.434 167.363 230.171C167.533 232.007 167.026 233.842 165.937 235.33L168.8 238.273L166.041 240.943Z" fill="white"/>
<path d="M90.617 245.589C90.617 245.589 93.025 232.435 102.331 234.724C108.202 236.169 125.265 233.59 125.524 241.13C125.749 247.672 109.724 249.415 104.424 248.87C99.667 248.381 90.617 245.589 90.617 245.589Z" fill="#E98862"/>
<path d="M98.923 234.579C98.923 234.579 112.766 232.537 115.858 233.851C118.596 235.015 111.858 238.651 111.858 238.651L98.923 234.579Z" fill="#E98862"/>
<path d="M103.351 252.893L41.471 251.007C39.5393 250.948 37.658 250.377 36.0198 249.352C34.3815 248.327 33.0453 246.885 32.148 245.173L1.6 186.918L20.911 176.791L48.5 229.406L104.015 231.099L103.351 252.893Z" fill="#367CFF"/>
<path d="M37.6 149.427V149.207C37.6 147.447 37.52 145.537 37.35 143.467L39.25 143.117L53.33 140.507C53.0533 144.058 53.1068 147.626 53.49 151.167C53.54 151.567 53.59 151.977 53.65 152.387C53.71 152.797 53.77 153.237 53.85 153.667C53.86 153.757 53.88 153.857 53.9 153.957C54.04 154.737 54.2 155.507 54.4 156.267C54.4306 156.423 54.4707 156.576 54.52 156.727C54.5219 156.755 54.5287 156.782 54.54 156.807C54.62 157.137 54.72 157.477 54.83 157.797C54.94 158.167 55.06 158.527 55.2 158.887C55.24 158.997 55.28 159.117 55.33 159.227C55.46 159.587 55.61 159.937 55.77 160.277C55.94 160.667 56.13 161.047 56.33 161.417C56.3327 161.417 56.3352 161.418 56.3371 161.42C56.3389 161.422 56.34 161.424 56.34 161.427C57.0939 162.904 58.1542 164.203 59.45 165.237H34.321C35.931 162.457 37.591 157.617 37.6 149.427Z" fill="#E98862"/>
<path opacity="0.15" d="M56.343 161.432L43.071 151.278L53.5 151.17C53.8006 154.738 54.7648 158.218 56.343 161.432Z" fill="black"/>
<path d="M28.288 135.3C29.394 141.688 32.88 147.738 38.516 149.8C45.205 152.25 50.16 152.416 57.873 152.416C68.398 152.416 68.05 141.439 68.346 130.377C68.646 119.272 67.76 107.359 63.6 103.489C55.3 95.765 30.927 100.656 27.962 113.576C26.429 120.263 27.235 129.223 28.288 135.3Z" fill="#E98862"/>
<path d="M75.642 98.894C75.642 93.612 69.069 84.957 51.531 96.894L51.514 96.906C46.9579 96.7783 42.4059 97.2759 37.985 98.385C29.965 100.785 19.908 107.508 22.485 123.81C25.365 142.01 32.818 146.861 36.574 149.093C37.531 149.661 37.763 149.199 38.095 148.136C39.1366 144.208 39.8817 140.207 40.324 136.167C40.9796 132.235 41.2771 128.252 41.213 124.267C41.213 122.501 41.222 116.067 49.985 115.994C54.913 115.953 53.071 116.149 58.331 116.149C59.08 116.149 59.743 116.115 60.353 116.061H60.359C78.522 116.06 75.642 104.177 75.642 98.894Z" fill="#0F1011"/>
<path d="M53.307 130.383C54.1073 130.383 54.756 129.734 54.756 128.934C54.756 128.134 54.1073 127.485 53.307 127.485C52.5067 127.485 51.858 128.134 51.858 128.934C51.858 129.734 52.5067 130.383 53.307 130.383Z" fill="#0F1011"/>
<path d="M64.738 129.445C65.5383 129.445 66.187 128.796 66.187 127.996C66.187 127.196 65.5383 126.547 64.738 126.547C63.9377 126.547 63.289 127.196 63.289 127.996C63.289 128.796 63.9377 129.445 64.738 129.445Z" fill="#0F1011"/>
<path d="M67.249 124.909H67.24L63.402 124.861C63.3126 124.86 63.2242 124.841 63.1421 124.806C63.0599 124.77 62.9855 124.719 62.9231 124.655C62.8607 124.591 62.8115 124.515 62.7784 124.432C62.7452 124.349 62.7288 124.26 62.73 124.171C62.7257 124.08 62.7406 123.989 62.774 123.905C62.8073 123.82 62.8582 123.743 62.9233 123.68C62.9884 123.616 63.0663 123.567 63.1517 123.536C63.2372 123.505 63.3283 123.492 63.419 123.499L67.258 123.547C67.4386 123.548 67.6114 123.621 67.7382 123.75C67.8651 123.878 67.9357 124.052 67.9345 124.232C67.9333 124.413 67.8604 124.586 67.7319 124.713C67.6033 124.84 67.4296 124.91 67.249 124.909Z" fill="#0F1011"/>
<path d="M50.179 126.308C50.0125 126.308 49.8519 126.246 49.7276 126.135C49.6032 126.024 49.5239 125.872 49.5044 125.707C49.4849 125.541 49.5268 125.374 49.622 125.238C49.7171 125.101 49.8591 125.004 50.021 124.965L53.805 124.054C53.8927 124.031 53.9842 124.025 54.074 124.038C54.1638 124.051 54.2502 124.081 54.3281 124.128C54.406 124.174 54.4738 124.236 54.5276 124.309C54.5813 124.382 54.6199 124.465 54.6411 124.553C54.6623 124.642 54.6656 124.733 54.651 124.823C54.6363 124.912 54.6038 124.998 54.5556 125.075C54.5073 125.152 54.4442 125.218 54.3699 125.27C54.2956 125.322 54.2117 125.359 54.123 125.378L50.339 126.289C50.2866 126.302 50.2329 126.308 50.179 126.308Z" fill="#0F1011"/>
<path d="M45.769 132.479C45.8467 133.289 45.7627 134.107 45.5216 134.885C45.2806 135.662 44.8875 136.384 44.365 137.008C43.8426 137.632 43.2013 138.147 42.4784 138.521C41.7555 138.895 40.9655 139.122 40.1541 139.188C39.3428 139.255 38.5264 139.159 37.7524 138.907C36.9783 138.655 36.2621 138.252 35.6453 137.72C35.0285 137.189 34.5234 136.541 34.1594 135.812C33.7954 135.084 33.5798 134.291 33.525 133.479C33.4451 132.672 33.5283 131.858 33.7697 131.084C34.0111 130.31 34.4057 129.593 34.9301 128.975C35.4545 128.357 36.0979 127.851 36.822 127.487C37.5461 127.122 38.3362 126.908 39.145 126.855C43.523 126.716 45.492 129.1 45.769 132.479Z" fill="#E98862"/>
<g opacity="0.15">
<path d="M59.739 136.971C59.6192 136.971 59.5034 136.928 59.4126 136.85C59.3218 136.772 59.262 136.664 59.2442 136.545C59.2264 136.427 59.2517 136.306 59.3156 136.205C59.3794 136.103 59.4775 136.028 59.592 135.993L62.539 135.088L60.478 130.5C60.4501 130.44 60.4344 130.375 60.4318 130.309C60.4292 130.243 60.4398 130.177 60.4629 130.115C60.486 130.053 60.5212 129.996 60.5664 129.948C60.6117 129.899 60.6661 129.86 60.7264 129.833C60.7868 129.806 60.8519 129.791 60.9181 129.789C60.9843 129.788 61.0501 129.799 61.1119 129.823C61.1736 129.847 61.23 129.883 61.2777 129.929C61.3254 129.974 61.3636 130.029 61.39 130.09L63.683 135.197C63.7121 135.262 63.7271 135.332 63.727 135.403C63.7269 135.474 63.7118 135.544 63.6825 135.608C63.6533 135.673 63.6107 135.73 63.5575 135.777C63.5043 135.824 63.4418 135.859 63.374 135.88L59.886 136.952C59.8382 136.966 59.7887 136.972 59.739 136.971Z" fill="black"/>
</g>
<path d="M53.977 140.345C53.977 140.345 59.326 140.909 63.077 139.599C63.077 139.599 63.047 143.122 58.815 143.469C54.583 143.816 53.977 140.345 53.977 140.345Z" fill="#F8FCFF"/>
</g>
<defs>
<clipPath id="clip0_1_2007">
<rect width="709.651" height="581.026" fill="white"/>
</clipPath>
</defs>
</svg>
