<svg width="880" height="718" viewBox="0 0 880 718" fill="none" xmlns="http://www.w3.org/2000/svg">
<g clip-path="url(#clip0_1_3230)">
<path d="M165.152 262.245C165.452 265.915 161.627 269.331 160.997 272.788C160.345 276.366 162.683 280.911 161.158 284.12C159.611 287.376 154.595 288.433 152.276 291.162C149.957 293.891 149.721 299.01 146.757 301.062C143.835 303.084 138.974 301.509 135.548 302.729C132.237 303.908 129.482 308.229 125.813 308.529C122.144 308.829 118.727 305.004 115.27 304.374C111.692 303.722 107.147 306.06 103.938 304.535C100.682 302.988 99.625 297.972 96.896 295.653C94.167 293.334 89.047 293.098 86.996 290.134C84.974 287.212 86.549 282.351 85.329 278.925C84.15 275.614 79.829 272.859 79.529 269.19C79.229 265.521 83.054 262.104 83.684 258.647C84.336 255.069 81.998 250.525 83.523 247.315C85.07 244.059 90.086 243.002 92.405 240.274C94.724 237.546 94.96 232.425 97.924 230.374C100.845 228.352 105.707 229.927 109.133 228.707C112.444 227.528 115.199 223.207 118.868 222.907C122.537 222.607 125.954 226.432 129.411 227.062C132.989 227.714 137.533 225.376 140.743 226.901C143.999 228.448 145.056 233.464 147.784 235.783C150.512 238.102 155.633 238.338 157.684 241.302C159.706 244.224 158.131 249.085 159.351 252.511C160.532 255.821 164.854 258.576 165.152 262.245Z" fill="#0F1011"/>
<path d="M106.141 305.389C106.141 305.389 113.877 301.296 112.169 280.238L128.148 277.29C128.148 277.29 126.336 296.166 134.414 302.167L106.141 305.389Z" fill="#E98862"/>
<g opacity="0.15">
<path d="M131.144 298.218L117.88 288.052L128.305 287.952C128.603 291.521 129.566 295.003 131.144 298.218Z" fill="black"/>
</g>
<path d="M103.112 272.065C104.212 278.454 107.693 284.507 113.326 286.575C119.466 289.019 126.112 289.923 132.682 289.208C150.173 287.79 146.748 248.019 138.452 240.287C130.156 232.555 105.781 237.425 102.806 250.342C101.266 257.023 102.065 265.983 103.112 272.065Z" fill="#E98862"/>
<path d="M128.136 267.166C128.936 267.166 129.585 266.517 129.585 265.717C129.585 264.917 128.936 264.268 128.136 264.268C127.336 264.268 126.687 264.917 126.687 265.717C126.687 266.517 127.336 267.166 128.136 267.166Z" fill="#0F1011"/>
<path d="M139.568 266.239C140.368 266.239 141.017 265.59 141.017 264.79C141.017 263.99 140.368 263.341 139.568 263.341C138.768 263.341 138.119 263.99 138.119 264.79C138.119 265.59 138.768 266.239 139.568 266.239Z" fill="#0F1011"/>
<path d="M142.082 261.7H142.073L138.235 261.649C138.054 261.646 137.882 261.572 137.756 261.443C137.63 261.314 137.561 261.14 137.563 260.959C137.563 260.869 137.581 260.78 137.616 260.698C137.651 260.615 137.702 260.54 137.766 260.478C137.831 260.415 137.907 260.366 137.99 260.334C138.074 260.301 138.163 260.285 138.253 260.288L142.091 260.339C142.267 260.347 142.433 260.423 142.554 260.55C142.676 260.678 142.743 260.848 142.742 261.024C142.741 261.2 142.671 261.369 142.548 261.495C142.425 261.621 142.258 261.695 142.082 261.7Z" fill="#0F1011"/>
<path d="M125.012 263.089C124.845 263.089 124.685 263.027 124.561 262.916C124.436 262.805 124.357 262.653 124.337 262.488C124.318 262.322 124.36 262.155 124.455 262.019C124.55 261.882 124.692 261.785 124.854 261.746L128.64 260.838C128.816 260.796 129.001 260.826 129.155 260.92C129.309 261.015 129.419 261.167 129.46 261.342C129.502 261.518 129.473 261.703 129.378 261.857C129.284 262.011 129.132 262.121 128.956 262.163L125.171 263.07C125.119 263.083 125.066 263.089 125.012 263.089Z" fill="#0F1011"/>
<path d="M128.8 277.129C128.8 277.129 134.148 277.698 137.9 276.391C137.9 276.391 137.867 279.914 133.634 280.257C129.401 280.6 128.8 277.129 128.8 277.129Z" fill="white"/>
<path d="M114.9 255.523C115.949 270.497 114.301 285.538 110.033 299.93C110.033 299.93 97.835 278.9 95.95 261.4C94.182 244.989 106.282 235.312 114.45 233.493C145.502 226.578 147.736 249.26 147.736 249.26C142.079 261.024 111.536 260.972 111.536 260.972" fill="#0F1011"/>
<path d="M120.814 271.956C120.926 273.569 120.398 275.162 119.344 276.388C118.289 277.614 116.794 278.375 115.182 278.505C113.571 278.636 111.972 278.126 110.734 277.086C109.496 276.046 108.718 274.559 108.569 272.949C108.49 272.142 108.574 271.328 108.816 270.554C109.058 269.781 109.453 269.064 109.978 268.446C110.503 267.828 111.147 267.322 111.871 266.959C112.596 266.595 113.386 266.381 114.195 266.329C118.573 266.191 120.54 268.574 120.814 271.956Z" fill="#E98862"/>
<g opacity="0.15">
<path d="M134.562 273.76C134.442 273.76 134.326 273.717 134.236 273.639C134.145 273.561 134.085 273.453 134.067 273.334C134.049 273.216 134.075 273.095 134.139 272.994C134.202 272.892 134.3 272.817 134.415 272.782L137.363 271.882L135.306 267.29C135.277 267.23 135.26 267.164 135.256 267.097C135.253 267.03 135.263 266.964 135.286 266.901C135.308 266.838 135.344 266.78 135.389 266.731C135.435 266.682 135.49 266.642 135.551 266.615C135.612 266.588 135.678 266.573 135.745 266.571C135.812 266.57 135.879 266.582 135.941 266.607C136.003 266.632 136.06 266.669 136.107 266.716C136.155 266.763 136.193 266.819 136.218 266.881L138.507 271.99C138.536 272.055 138.551 272.125 138.551 272.196C138.551 272.267 138.536 272.337 138.506 272.401C138.477 272.466 138.434 272.524 138.381 272.571C138.328 272.617 138.265 272.652 138.197 272.673L134.708 273.741C134.661 273.754 134.611 273.761 134.562 273.76Z" fill="black"/>
</g>
<path d="M879.19 717.28H0C9.634 692.713 27.424 671.872 52.5 665.69C89.186 656.658 128.011 681.49 164.616 672.155C185.416 666.855 201.786 651.41 218.99 638.585C283.9 590.191 372.841 575.893 449.653 601.5C489.798 614.882 526.379 638.283 567.504 648.237C620.683 661.107 676.296 650.437 730.983 648.674C784.24 646.962 860.553 668.664 879.19 717.28Z" fill="#F3F5FD"/>
<path d="M831.031 0H209.944V449.786H831.031V0Z" fill="#DEE8F5"/>
<path d="M831.031 0H209.944V37.051H831.031V0Z" fill="#C1D8ED"/>
<path d="M810.229 27.822C815.363 27.822 819.525 23.66 819.525 18.526C819.525 13.392 815.363 9.23 810.229 9.23C805.095 9.23 800.933 13.392 800.933 18.526C800.933 23.66 805.095 27.822 810.229 27.822Z" fill="white"/>
<path d="M793.079 259.364H533.866V415.018H793.079V259.364Z" fill="#C1D8ED"/>
<path d="M585.147 357.002H559.555V390.146H585.147V357.002Z" fill="white"/>
<path d="M721.097 327.172H695.505V390.146H721.097V327.172Z" fill="white"/>
<path d="M630.464 329.27H604.872V390.145H630.464V329.27Z" fill="white"/>
<path d="M675.78 358.659H650.188V390.147H675.78V358.659Z" fill="white"/>
<path d="M766.414 298.398H740.822V390.146H766.414V298.398Z" fill="white"/>
<path d="M503.107 259.364H243.894V415.018H503.107V259.364Z" fill="#C1D8ED"/>
<path d="M295.175 306.073H269.583V390.146H295.175V306.073Z" fill="white"/>
<path d="M431.125 337.191H405.533V390.146H431.125V337.191Z" fill="white"/>
<path d="M340.492 358.659H314.9V390.146H340.492V358.659Z" fill="white"/>
<path d="M385.808 314.166H360.216V390.146H385.808V314.166Z" fill="white"/>
<path d="M476.442 327.179H450.85V390.146H476.442V327.179Z" fill="white"/>
<path d="M793.079 72.767H533.866V228.421H793.079V72.767Z" fill="#C1D8ED"/>
<path d="M585.147 131.648H559.555V203.55H585.147V131.648Z" fill="white"/>
<path d="M721.097 140.575H695.505V203.549H721.097V140.575Z" fill="white"/>
<path d="M630.464 112.625H604.872V203.55H630.464V112.625Z" fill="white"/>
<path d="M675.78 152.97H650.188V203.55H675.78V152.97Z" fill="white"/>
<path d="M766.414 127.264H740.822V203.55H766.414V127.264Z" fill="white"/>
<path d="M503.107 72.767H243.894V228.421H503.107V72.767Z" fill="#C1D8ED"/>
<path d="M295.175 161.392H269.583V203.55H295.175V161.392Z" fill="white"/>
<path d="M431.125 112.625H405.533V203.55H431.125V112.625Z" fill="white"/>
<path d="M340.492 112.625H314.9V203.55H340.492V112.625Z" fill="white"/>
<path d="M385.808 131.648H360.216V203.55H385.808V131.648Z" fill="white"/>
<path d="M476.442 172.062H450.85V203.55H476.442V172.062Z" fill="white"/>
<path d="M171.507 706.461L150.653 703.981C151.592 696.088 152.653 686.607 152.726 685.053C152.726 685.153 152.726 685.234 152.726 685.298H173.726C173.721 685.927 173.721 687.843 171.507 706.461Z" fill="#E98862"/>
<path d="M87.831 708.972L66.831 708.903C66.831 708.903 66.901 687.218 66.901 685.298H87.901C87.9 687.224 87.831 708.972 87.831 708.972Z" fill="#E98862"/>
<path d="M142.259 699.83L179.253 699.2C177.516 655.168 177.41 608.981 176.868 564.843C169.647 517.27 165.844 465.027 156.932 417.794L79.807 414C79.807 414 77.607 445.128 76.847 457.553C73.14 517.833 65.938 629.5 61.419 698.638L98.287 701.753C104.93 633.967 115.21 535.197 121.533 463.987C128.794 498.656 133.733 534.554 140.047 568.926C141.309 611.952 142.378 656.932 142.259 699.83Z" fill="#262626"/>
<path d="M113.359 717.094C113.924 717.091 114.482 716.972 114.998 716.744C115.515 716.516 115.979 716.184 116.362 715.769C116.744 715.353 117.037 714.863 117.221 714.33C117.406 713.796 117.479 713.23 117.435 712.667C117.374 711.886 117.092 711.14 116.621 710.514C116.15 709.889 115.51 709.411 114.777 709.137L90.334 700.951C89.8606 700.794 89.3588 700.741 88.8631 700.796C88.3674 700.851 87.8895 701.013 87.462 701.27C84.102 703.602 80.0821 704.794 75.994 704.67C72.8102 704.444 69.754 703.327 67.174 701.448C66.9472 701.262 66.6722 701.144 66.381 701.109C66.0899 701.073 65.7946 701.121 65.5296 701.247C65.2646 701.372 65.0409 701.571 64.8844 701.819C64.728 702.067 64.6453 702.355 64.646 702.648V714.6C64.646 714.953 64.7156 715.302 64.8509 715.627C64.9862 715.953 65.1844 716.249 65.4342 716.498C65.6841 716.746 65.9806 716.943 66.3068 717.077C66.633 717.211 66.9824 717.279 67.335 717.278L113.359 717.094Z" fill="#C1D8ED"/>
<path d="M197.093 717.094C197.658 717.091 198.216 716.972 198.732 716.744C199.249 716.516 199.713 716.184 200.096 715.769C200.478 715.353 200.771 714.863 200.955 714.33C201.14 713.796 201.213 713.23 201.169 712.667C201.108 711.886 200.826 711.139 200.355 710.514C199.884 709.888 199.244 709.411 198.51 709.137L174.068 700.951C173.595 700.794 173.093 700.741 172.597 700.796C172.101 700.851 171.623 701.013 171.196 701.27C167.836 703.601 163.816 704.793 159.728 704.67C156.544 704.444 153.487 703.327 150.907 701.448C150.68 701.262 150.405 701.144 150.114 701.108C149.823 701.073 149.528 701.12 149.263 701.246C148.998 701.372 148.774 701.571 148.618 701.819C148.462 702.067 148.379 702.355 148.38 702.648V714.6C148.38 714.953 148.449 715.302 148.585 715.627C148.72 715.953 148.918 716.249 149.168 716.498C149.418 716.747 149.714 716.944 150.041 717.078C150.367 717.211 150.716 717.28 151.069 717.278L197.093 717.094Z" fill="#C1D8ED"/>
<path d="M212.044 305.415C212.044 305.415 212.194 293.405 220.779 294.029C226.195 294.423 251.93 293.229 252.313 295.573C253.261 301.373 229.721 302.791 227.585 308.196L212.044 305.415Z" fill="#E98862"/>
<path d="M217.739 294.414C217.739 294.414 229.688 290.52 232.625 291.214C235.225 291.832 229.805 296.064 229.805 296.064L217.739 294.414Z" fill="#E98862"/>
<path d="M161.75 415.417C157.561 425.047 80.423 429.047 79.323 412.107C78.623 401.327 88.044 391.917 88.044 370.907C88.044 349.897 68.671 328.138 84.421 312.388C88.991 307.818 91.811 299.797 101.431 299.788C102.151 305.398 136.211 305.418 136.471 299.918C137.771 299.938 138.781 299.958 139.411 299.988C172.591 301.418 154.885 339.178 154.565 366.918C154.175 399.377 166.071 405.5 161.75 415.417Z" fill="white"/>
<path d="M136.471 299.917C136.211 305.417 133.221 313.507 123.991 314.117C111.691 314.927 102.151 305.397 101.431 299.787H101.461C113.571 299.787 129.411 299.807 136.471 299.917Z" fill="#E98862"/>
<path d="M211.035 298.4L189.628 338.369L156.667 306.215C153.692 302.438 149.004 300.084 141.836 299.77C141.291 299.746 135.668 299.57 135.336 299.903C133.326 301.913 132.217 337.327 133.217 357.003C134.309 378.303 133.186 404.903 134.202 420.195C134.268 421.199 134.541 422.178 135.004 423.07C135.468 423.963 136.112 424.75 136.895 425.381C137.678 426.012 138.584 426.473 139.555 426.736C140.526 426.999 141.54 427.058 142.535 426.908C153.317 425.26 161.725 422.451 162.951 419.635C167.27 409.715 157.301 399.373 157.691 366.913C157.791 358.177 159.274 348.413 160.309 339.1L184.96 363.149C186.125 364.286 187.539 365.136 189.089 365.632C190.639 366.129 192.284 366.258 193.893 366.01C195.502 365.762 197.031 365.143 198.359 364.202C199.688 363.262 200.779 362.025 201.548 360.59L229.548 308.31L211.035 298.4Z" fill="#367CFF"/>
<path d="M179.4 374.287L123.667 375.987L111.72 351C109.793 331.855 107.241 315.539 106.07 306.98C104.57 299.053 105.37 299.614 101.608 299.611C91.988 299.621 83.921 302.748 79.351 307.318C63.601 323.068 82.931 349.908 82.931 370.908C82.931 391.908 73.431 401.328 74.131 412.108C74.562 418.841 78.004 427.359 103.955 429.184C106.056 429.332 108.134 428.667 109.759 427.327C111.385 425.987 112.434 424.075 112.69 421.984C113.616 413.9 114.102 405.771 114.144 397.634C115.039 397.874 115.961 397.997 116.887 398.003C116.998 398.003 117.11 398.003 117.221 398.003L180.059 396.086L179.4 374.287Z" fill="#367CFF"/>
<path d="M98.949 323.525L101.429 315.395L96.649 312.265L100.579 299.635C102.983 299.535 105.391 299.586 107.789 299.785C110.149 307.675 112.689 341.555 113.609 354.785L98.949 323.525Z" fill="#367CFF"/>
<path d="M140.349 315.4L144.049 327.53L133.359 360.11C133.359 360.11 131.229 310.89 134.059 299.86C135.056 299.726 136.061 299.65 137.067 299.634C139.121 299.606 141.232 299.745 141.232 299.745L145.132 312.27L140.349 315.4Z" fill="#367CFF"/>
<g opacity="0.24">
<path d="M98.949 323.525L101.429 315.395L96.649 312.265L100.579 299.635C102.983 299.535 105.391 299.586 107.789 299.785C110.149 307.675 112.689 341.555 113.609 354.785L98.949 323.525Z" fill="white"/>
</g>
<g opacity="0.24">
<path d="M140.349 315.4L144.049 327.53L133.359 360.11C133.359 360.11 131.229 310.89 134.059 299.86C135.056 299.726 136.061 299.65 137.067 299.634C139.121 299.606 141.232 299.745 141.232 299.745L145.132 312.27L140.349 315.4Z" fill="white"/>
</g>
<path d="M174.912 322.3L162.77 373.274C162.581 374.067 162.575 374.893 162.75 375.689C162.926 376.485 163.28 377.231 163.785 377.87C164.291 378.51 164.934 379.027 165.668 379.383C166.401 379.739 167.206 379.924 168.021 379.924H239.605C240.788 379.924 241.938 379.535 242.878 378.818C243.819 378.101 244.498 377.095 244.811 375.954L258.8 324.983C259.02 324.182 259.052 323.341 258.893 322.525C258.735 321.71 258.39 320.942 257.886 320.281C257.383 319.62 256.733 319.085 255.989 318.716C255.244 318.347 254.425 318.155 253.594 318.155H180.164C178.95 318.155 177.772 318.564 176.819 319.316C175.866 320.068 175.194 321.119 174.912 322.3Z" fill="#9EBCEA"/>
<path d="M223.805 373.579H137.286C135.534 373.579 134.114 374.999 134.114 376.751C134.114 378.503 135.534 379.923 137.286 379.923H223.805C225.557 379.923 226.977 378.503 226.977 376.751C226.977 374.999 225.557 373.579 223.805 373.579Z" fill="#9EBCEA"/>
<path d="M213.717 357.002C218.393 357.002 222.183 353.212 222.183 348.536C222.183 343.86 218.393 340.07 213.717 340.07C209.041 340.07 205.251 343.86 205.251 348.536C205.251 353.212 209.041 357.002 213.717 357.002Z" fill="white"/>
<path d="M197.413 386.614C192.923 389.384 185.973 390.694 179.913 391.174L179.572 380.134C182.423 380.054 186.803 379.754 191.092 379.924C193.031 378.343 194.147 377.873 196.137 375.884C198.255 373.766 203.813 372.494 204.863 375.884C205.913 379.274 201.353 384.174 197.413 386.614Z" fill="#E98862"/>
<path d="M810.229 563.005C838.427 563.005 861.286 540.146 861.286 511.948C861.286 483.75 838.427 460.891 810.229 460.891C782.031 460.891 759.172 483.75 759.172 511.948C759.172 540.146 782.031 563.005 810.229 563.005Z" fill="#0CBC8B"/>
<g opacity="0.29">
<path d="M810.229 545.046C828.509 545.046 843.327 530.228 843.327 511.948C843.327 493.668 828.509 478.85 810.229 478.85C791.949 478.85 777.131 493.668 777.131 511.948C777.131 530.228 791.949 545.046 810.229 545.046Z" fill="white"/>
</g>
<path d="M799.4 523.77L802.487 518.983C804.934 520.858 807.075 521.814 809.351 521.814C812.08 521.814 813.28 520.682 813.28 518.491C813.28 513.538 800.572 513.627 800.572 504.94C800.572 499.355 804.441 495.798 810.541 495.798C812.274 495.773 813.991 496.125 815.573 496.83C817.156 497.536 818.566 498.577 819.706 499.882L816.165 503.938C814.415 502.347 812.931 501.509 810.921 501.509C808.605 501.509 807.348 502.443 807.348 504.609C807.348 509.2 820.056 508.799 820.056 518.001C820.056 523.529 816.398 527.528 809.351 527.528C805.703 527.446 802.192 526.12 799.4 523.77ZM807.867 491.08H812.567V498.013H807.867V491.08ZM807.867 524.635H812.567V532.243H807.867V524.635Z" fill="white"/>
<path d="M858.385 691.298H760.37C755.668 691.298 751.857 695.109 751.857 699.811V708.767C751.857 713.469 755.668 717.28 760.37 717.28H858.385C863.087 717.28 866.898 713.469 866.898 708.767V699.811C866.898 695.109 863.087 691.298 858.385 691.298Z" fill="#0CBC8B"/>
<path d="M843.126 665.316H745.111C740.409 665.316 736.598 669.127 736.598 673.829V682.785C736.598 687.487 740.409 691.298 745.111 691.298H843.126C847.828 691.298 851.639 687.487 851.639 682.785V673.829C851.639 669.127 847.828 665.316 843.126 665.316Z" fill="#0CBC8B"/>
<path d="M858.385 639.333H760.37C755.668 639.333 751.857 643.144 751.857 647.846V656.802C751.857 661.504 755.668 665.315 760.37 665.315H858.385C863.087 665.315 866.898 661.504 866.898 656.802V647.846C866.898 643.144 863.087 639.333 858.385 639.333Z" fill="#0CBC8B"/>
<path d="M850.756 613.823H752.741C748.039 613.823 744.228 617.634 744.228 622.336V631.292C744.228 635.994 748.039 639.805 752.741 639.805H850.756C855.458 639.805 859.269 635.994 859.269 631.292V622.336C859.269 617.634 855.458 613.823 850.756 613.823Z" fill="#0CBC8B"/>
<path d="M835.496 587.84H737.481C732.779 587.84 728.968 591.651 728.968 596.353V605.309C728.968 610.011 732.779 613.822 737.481 613.822H835.496C840.198 613.822 844.009 610.011 844.009 605.309V596.353C844.009 591.651 840.198 587.84 835.496 587.84Z" fill="#0CBC8B"/>
<path d="M850.756 561.858H752.741C748.039 561.858 744.228 565.669 744.228 570.371V579.327C744.228 584.029 748.039 587.84 752.741 587.84H850.756C855.458 587.84 859.269 584.029 859.269 579.327V570.371C859.269 565.669 855.458 561.858 850.756 561.858Z" fill="#0CBC8B"/>
</g>
<defs>
<clipPath id="clip0_1_3230">
<rect width="879.19" height="717.28" fill="white"/>
</clipPath>
</defs>
</svg>
