<svg width="723" height="508" viewBox="0 0 723 508" fill="none" xmlns="http://www.w3.org/2000/svg">
<g clip-path="url(#clip0_1_465)">
<path d="M127.964 448.981L673.562 448.981C686.96 448.981 697.822 438.119 697.822 424.721V25.26C697.822 11.8615 686.96 1 673.562 1L127.964 1C114.566 1 103.704 11.8615 103.704 25.26V424.721C103.704 438.119 114.566 448.981 127.964 448.981Z" fill="white"/>
<path d="M673.562 449.98H127.962C121.265 449.973 114.845 447.309 110.109 442.574C105.373 437.838 102.71 431.418 102.702 424.721V25.26C102.709 18.5626 105.373 12.1416 110.109 7.40596C114.845 2.67034 121.267 0.00688191 127.964 0L673.564 0C680.261 0.00741122 686.682 2.6711 691.417 7.40667C696.153 12.1422 698.817 18.5629 698.824 25.26V424.721C698.816 431.418 696.152 437.839 691.416 442.574C686.68 447.31 680.259 449.973 673.562 449.98ZM127.964 2C121.797 2.00609 115.883 4.45852 111.522 8.81918C107.161 13.1798 104.707 19.0926 104.7 25.26V424.721C104.707 430.888 107.16 436.8 111.521 441.16C115.881 445.52 121.793 447.973 127.96 447.98H673.56C679.727 447.973 685.639 445.52 689.999 441.16C694.36 436.8 696.813 430.888 696.82 424.721V25.26C696.813 19.0936 694.36 13.1818 690 8.82129C685.64 4.4608 679.728 2.00768 673.562 2H127.964Z" fill="#292A2E"/>
<g opacity="0.14">
<path d="M283.029 83.856C279.368 72.7368 272.554 62.9215 263.416 55.6046C254.278 48.2877 243.21 43.7846 231.559 42.6435C219.908 41.5024 208.177 43.7724 197.793 49.1773C187.409 54.5822 178.82 62.8888 173.071 73.0864C167.322 83.2839 164.661 94.9327 165.412 106.615C166.163 118.297 170.294 129.509 177.301 138.887C184.309 148.264 193.891 155.403 204.881 159.434C215.872 163.464 227.797 164.214 239.206 161.59C236.576 153.614 235.639 145.176 236.456 136.817C237.273 128.458 239.825 120.361 243.95 113.045C248.075 105.728 253.681 99.3533 260.41 94.3272C267.139 89.3012 274.843 85.7347 283.029 83.856Z" fill="#367CFF"/>
<path d="M296.536 82.32C291.99 82.3228 287.459 82.838 283.029 83.856C285.66 91.8325 286.597 100.27 285.78 108.629C284.963 116.989 282.411 125.086 278.286 132.402C274.162 139.718 268.555 146.094 261.826 151.12C255.097 156.146 247.392 159.712 239.206 161.59C242.689 172.152 249.022 181.547 257.506 188.738C265.991 195.928 276.297 200.635 287.287 202.339C298.277 204.043 309.525 202.678 319.788 198.394C330.052 194.11 338.932 187.074 345.45 178.062C351.967 169.05 355.869 158.413 356.723 147.324C357.578 136.235 355.352 125.126 350.292 115.222C345.233 105.318 337.535 97.0044 328.049 91.1985C318.563 85.3926 307.658 82.3201 296.536 82.32Z" fill="#367CFF"/>
</g>
<g opacity="0.22">
<path d="M225.7 164.125C213.563 164.125 201.698 160.526 191.607 153.783C181.515 147.04 173.649 137.456 169.004 126.243C164.36 115.03 163.144 102.691 165.512 90.7873C167.88 78.8834 173.724 67.9489 182.307 59.3667C190.889 50.7844 201.823 44.9399 213.727 42.5721C225.631 40.2043 237.97 41.4196 249.183 46.0644C260.396 50.7092 269.98 58.5748 276.723 68.6665C283.466 78.7582 287.065 90.6229 287.065 102.76C287.047 119.029 280.576 134.627 269.071 146.131C257.567 157.636 241.969 164.107 225.7 164.125ZM225.7 43.394C213.958 43.3938 202.481 46.8754 192.718 53.3985C182.955 59.9216 175.346 69.1932 170.852 80.0409C166.359 90.8886 165.183 102.825 167.474 114.341C169.764 125.857 175.418 136.435 183.721 144.738C192.023 153.04 202.601 158.694 214.117 160.985C225.633 163.276 237.569 162.1 248.417 157.607C259.265 153.114 268.537 145.505 275.06 135.742C281.583 125.979 285.065 114.502 285.065 102.76C285.047 87.0209 278.787 71.9315 267.658 60.8021C256.528 49.6728 241.439 43.4123 225.7 43.394Z" fill="#367CFF"/>
<path d="M296.535 204.052C284.398 204.052 272.533 200.453 262.442 193.71C252.35 186.968 244.484 177.384 239.839 166.17C235.195 154.957 233.979 142.619 236.347 130.715C238.715 118.811 244.559 107.876 253.141 99.294C261.723 90.7118 272.658 84.8671 284.562 82.4992C296.466 80.1313 308.804 81.3465 320.018 85.9911C331.231 90.6357 340.815 98.5012 347.558 108.593C354.301 118.684 357.9 130.549 357.9 142.686C357.882 158.956 351.411 174.554 339.907 186.058C328.403 197.563 312.805 204.034 296.535 204.052ZM296.535 83.32C284.793 83.3198 273.316 86.8014 263.553 93.3245C253.79 99.8476 246.181 109.119 241.687 119.967C237.194 130.815 236.018 142.751 238.309 154.267C240.599 165.783 246.253 176.361 254.556 184.664C262.858 192.966 273.436 198.62 284.952 200.911C296.468 203.202 308.404 202.026 319.252 197.533C330.1 193.04 339.372 185.431 345.895 175.668C352.418 165.905 355.9 154.428 355.9 142.686C355.883 126.947 349.622 111.857 338.493 100.728C327.364 89.5981 312.274 83.3377 296.535 83.32Z" fill="#367CFF"/>
</g>
<path d="M721.206 507.854H27.155C26.8898 507.854 26.6354 507.749 26.4479 507.561C26.2604 507.374 26.155 507.119 26.155 506.854C26.155 506.589 26.2604 506.334 26.4479 506.147C26.6354 505.959 26.8898 505.854 27.155 505.854H721.206C721.471 505.854 721.726 505.959 721.913 506.147C722.101 506.334 722.206 506.589 722.206 506.854C722.206 507.119 722.101 507.374 721.913 507.561C721.726 507.749 721.471 507.854 721.206 507.854Z" fill="#292A2E"/>
<path d="M386.1 228.4L385.1 210.733C385.143 209.477 384.707 208.252 383.881 207.305C383.055 206.358 381.9 205.761 380.65 205.633C380.003 205.589 379.354 205.678 378.742 205.894C378.13 206.11 377.569 206.448 377.092 206.888C376.616 207.327 376.234 207.86 375.969 208.452C375.705 209.044 375.565 209.684 375.556 210.333L374.756 259.661" fill="#E98862"/>
<path d="M410.77 193.228L413.139 201.831L368.074 214.85L365.705 206.246L410.77 193.228Z" fill="#0CBC8B"/>
<path opacity="0.5" d="M410.77 193.228L413.139 201.831L368.074 214.85L365.705 206.246L410.77 193.228Z" fill="white"/>
<path d="M358.579 208.231L360.948 216.835L368.074 214.85L365.705 206.246L358.579 208.231Z" fill="#262626"/>
<path d="M410.77 193.228C410.77 193.228 413.399 193.867 415.752 194.447C417.618 194.907 419.31 195.33 419.378 195.367C418.568 196.351 417.7 197.286 416.778 198.167C415.067 199.914 413.143 201.835 413.143 201.835L410.77 193.228Z" fill="#367CFF"/>
<path opacity="0.9" d="M410.77 193.228C410.77 193.228 413.399 193.867 415.752 194.447C417.618 194.907 419.31 195.33 419.378 195.367C418.568 196.351 417.7 197.286 416.778 198.167C415.067 199.914 413.143 201.835 413.143 201.835L410.77 193.228Z" fill="white"/>
<path d="M415.752 194.447C417.618 194.907 419.31 195.33 419.378 195.367C418.568 196.351 417.7 197.286 416.778 198.167L415.752 194.447Z" fill="#0CBC8B"/>
<path d="M374.752 259.659L390.158 260.305C394.943 260.505 399.68 259.272 403.76 256.764C407.84 254.255 411.077 250.585 413.058 246.224L421.993 226.455C422.477 225.437 422.594 224.283 422.325 223.188C422.056 222.093 421.417 221.125 420.516 220.447C419.69 219.852 418.695 219.537 417.677 219.548C416.659 219.559 415.672 219.894 414.858 220.506C414.819 220.438 414.763 220.382 414.696 220.342C414.631 220.309 414.559 220.292 414.486 220.294C414.413 220.296 414.342 220.315 414.278 220.351L415.933 216.707C416.475 215.574 416.567 214.278 416.19 213.08C415.813 211.882 414.996 210.872 413.903 210.253C412.907 209.735 411.759 209.584 410.663 209.828C409.567 210.072 408.592 210.695 407.909 211.587C407.89 211.54 407.864 211.497 407.83 211.459L408.51 209.959C408.994 208.941 409.111 207.786 408.842 206.691C408.573 205.596 407.934 204.628 407.033 203.95C406.03 203.228 404.787 202.922 403.564 203.097C402.341 203.272 401.233 203.914 400.473 204.888C400.442 204.876 400.411 204.867 400.378 204.862L385.37 215.809" fill="#E98862"/>
<path d="M408.577 194.6C408.301 195.726 407.64 196.721 406.708 197.412C404.156 199.645 401.909 202.203 400.022 205.02C397.142 209.032 394.796 215.52 394.135 217.685C393.786 218.826 392.998 219.782 391.944 220.343C390.891 220.903 389.657 221.022 388.516 220.673C387.375 220.324 386.419 219.536 385.858 218.482C385.298 217.429 385.179 216.195 385.528 215.054C385.643 214.678 388.387 205.794 392.711 199.771C394.743 196.942 399.732 191.278 401.631 189.98C402.371 189.475 403.245 189.202 404.141 189.196C405.037 189.191 405.915 189.453 406.661 189.949C407.407 190.446 407.988 191.153 408.329 191.982C408.671 192.811 408.757 193.722 408.577 194.6Z" fill="#E98862"/>
<path opacity="0.2" d="M400.76 205.358C400.753 205.41 400.737 205.46 400.714 205.507L395.453 215.832C395.426 215.885 395.389 215.931 395.344 215.97C395.3 216.008 395.248 216.037 395.192 216.055C395.135 216.073 395.076 216.08 395.018 216.076C394.959 216.071 394.902 216.055 394.849 216.028C394.796 216.001 394.75 215.964 394.711 215.919C394.673 215.875 394.644 215.823 394.626 215.767C394.608 215.71 394.601 215.651 394.605 215.593C394.61 215.534 394.626 215.477 394.653 215.424L399.914 205.1C399.962 205.007 400.042 204.933 400.139 204.892C400.235 204.851 400.344 204.846 400.444 204.876C400.545 204.907 400.631 204.972 400.689 205.06C400.746 205.148 400.771 205.254 400.759 205.358H400.76Z" fill="#0A0A0A"/>
<path opacity="0.2" d="M407.945 211.79C407.939 211.841 407.924 211.89 407.901 211.935L403.829 220.083C403.772 220.182 403.679 220.255 403.57 220.288C403.461 220.321 403.343 220.311 403.241 220.26C403.138 220.209 403.06 220.121 403.02 220.013C402.981 219.906 402.984 219.788 403.029 219.683L407.101 211.536C407.148 211.441 407.227 211.366 407.324 211.324C407.421 211.281 407.53 211.275 407.632 211.306C407.733 211.336 407.821 211.402 407.878 211.491C407.936 211.579 407.96 211.686 407.947 211.791L407.945 211.79Z" fill="#0A0A0A"/>
<path opacity="0.2" d="M414.931 220.794C414.924 220.848 414.907 220.901 414.882 220.949L412.869 224.749C412.811 224.85 412.716 224.924 412.604 224.956C412.493 224.988 412.373 224.975 412.27 224.921C412.168 224.866 412.09 224.774 412.054 224.664C412.018 224.554 412.026 224.434 412.076 224.329L414.089 220.529C414.138 220.437 414.218 220.364 414.315 220.325C414.412 220.285 414.52 220.28 414.62 220.312C414.72 220.343 414.806 220.409 414.863 220.497C414.919 220.585 414.944 220.69 414.931 220.794Z" fill="#0A0A0A"/>
<path d="M367.079 227.7L329.391 335.8L268.139 255.7L210.827 303.593L316.711 416.66C320.477 420.962 325.315 424.189 330.733 426.015C336.151 427.84 341.956 428.198 347.557 427.052C353.158 425.906 358.356 423.297 362.622 419.49C366.888 415.684 370.069 410.815 371.843 405.38L423.452 246.2L367.079 227.7Z" fill="#367CFF"/>
<path d="M32.6 459.769C27.3471 459.769 22.1718 458.5 17.515 456.07C12.8581 453.639 8.85747 450.12 5.85375 445.81C2.85003 441.501 0.932162 436.529 0.263437 431.319C-0.405289 426.109 0.194934 420.814 2.013 415.886C3.858 410.886 47.288 293.1 55.522 271.878L116.315 295.463C111.686 307.396 94.915 352.625 81.435 389.063L103.823 386.629L110.871 451.455L36.128 459.581C34.9562 459.707 33.7785 459.77 32.6 459.769Z" fill="#367CFF"/>
<path d="M71.672 456.439L61.73 505.925H254.832L243.71 455.498L71.672 456.439Z" fill="#262626"/>
<path d="M113.424 235.285C97.29 236.485 80.839 241.725 68.724 252.448C50.453 268.622 52.079 278.731 61.2 323.519C69.048 362.057 65.934 378.897 71.184 450.011C71.339 452.106 71.67 456.439 71.67 456.439L244.256 456.153C244.256 456.153 260.426 361.804 269.356 318.287C276.146 285.204 293.979 245.042 218.786 236.948C218.588 236.927 158.281 231.957 113.424 235.285Z" fill="#367CFF"/>
<path d="M218.786 236.951C218.586 236.925 213.108 257.54 170.358 254.331C140.758 252.114 133.546 231.969 132.868 231.969C136.059 231.291 141.24 230.587 142.658 229.83C147.318 227.33 150.713 224.278 152.421 217.737C153.758 212.621 154.439 192.926 154.439 183.046L199.98 193.279C199.345 204.425 194.902 230.265 210.474 234.838C213.065 235.6 215.856 236.29 218.786 236.951Z" fill="#E98862"/>
<path d="M198.4 215.193C180.447 216.609 157.384 209.029 153 185.076L149.047 163.463C144.667 139.51 153.696 117.791 176.247 113.663C198.8 109.538 219.209 125.873 223.59 149.826L225.34 159.394C227.029 168.589 230.437 212.665 198.4 215.193Z" fill="#E98862"/>
<path d="M215.051 193.2C211.828 177.007 210.351 166.2 210.522 154.807C215.061 146.845 213.868 137.707 212.836 133.758C217.285 136.185 219.145 136.45 223.336 136.45C223.336 136.45 215.829 106.323 190.314 98.216C185.623 96.39 173.644 94.083 157.738 96.265C144.209 98.12 110.861 108.236 106.097 145.779V145.8C105.939 147.045 102.737 181.636 96.354 198.233C87.772 220.544 75.724 227.476 76.03 253.218C76.423 286.33 137.296 290.737 174.012 288.26C210.728 285.783 231.224 273.711 231.49 249.848C231.781 223.114 221.5 225.6 215.051 193.2Z" fill="#0A0A0A"/>
<path d="M215.061 179.627C208.208 180.881 201.311 174.565 200.061 167.711C198.811 160.857 203.672 156.061 210.526 154.811L215.061 179.627Z" fill="#E98862"/>
<path d="M261.371 361.814C261.344 361.814 261.317 361.811 261.29 361.806C261.234 361.795 261.18 361.774 261.133 361.743C261.085 361.711 261.044 361.671 261.011 361.624C260.979 361.577 260.956 361.524 260.945 361.468C260.933 361.412 260.932 361.354 260.943 361.298L268.18 315.966C268.206 315.857 268.273 315.763 268.366 315.702C268.46 315.641 268.574 315.618 268.684 315.639C268.794 315.66 268.891 315.722 268.957 315.813C269.022 315.904 269.05 316.016 269.034 316.127L261.8 361.46C261.781 361.56 261.728 361.65 261.65 361.715C261.571 361.779 261.473 361.815 261.371 361.814Z" fill="#0C0C0C"/>
<path d="M71.672 456.874C71.5596 456.874 71.4516 456.831 71.3706 456.753C71.2897 456.675 71.2421 456.568 71.238 456.456L65.83 316.064C65.8276 316.007 65.8365 315.95 65.8561 315.896C65.8758 315.843 65.9059 315.793 65.9446 315.751C65.9834 315.709 66.03 315.675 66.0819 315.652C66.1338 315.628 66.1899 315.614 66.247 315.612C66.3608 315.613 66.4701 315.656 66.5536 315.734C66.637 315.811 66.6885 315.917 66.698 316.03L72.107 456.423C72.1113 456.538 72.0697 456.65 71.9913 456.735C71.913 456.82 71.8042 456.87 71.689 456.874H71.672Z" fill="#0C0C0C"/>
<path opacity="0.21" d="M445.306 274.213C445.161 274.213 445.018 274.182 444.886 274.121C444.755 274.061 444.638 273.972 444.544 273.862L435.935 263.744C435.85 263.644 435.785 263.528 435.744 263.403C435.704 263.278 435.688 263.146 435.699 263.015C435.709 262.884 435.745 262.756 435.805 262.639C435.865 262.522 435.947 262.417 436.047 262.332C436.147 262.247 436.263 262.182 436.388 262.141C436.513 262.101 436.645 262.085 436.776 262.096C436.907 262.106 437.035 262.142 437.152 262.202C437.269 262.262 437.374 262.344 437.459 262.444L444.842 271.121L454.515 235.86C454.573 235.649 454.699 235.462 454.873 235.329C455.047 235.196 455.26 235.124 455.479 235.124H455.485L547.051 235.624C547.182 235.624 547.312 235.651 547.433 235.701C547.555 235.752 547.665 235.826 547.757 235.919C547.85 236.012 547.923 236.123 547.973 236.244C548.023 236.366 548.048 236.496 548.048 236.627C548.048 236.758 548.021 236.888 547.971 237.009C547.92 237.131 547.846 237.241 547.753 237.333C547.66 237.426 547.549 237.499 547.428 237.549C547.306 237.599 547.176 237.624 547.045 237.624H547.039L456.239 237.13L446.268 273.477C446.21 273.688 446.084 273.874 445.91 274.007C445.736 274.14 445.523 274.212 445.304 274.212L445.306 274.213Z" fill="#367CFF"/>
<g opacity="0.2">
<path d="M466.938 260C467.991 257.494 469.297 255.103 470.838 252.864C471.356 252.113 472.061 250.775 473.147 251.204C474.166 251.802 475.067 252.582 475.805 253.504C477.26 255.135 478.939 256.552 480.79 257.714C482.687 258.767 484.915 259.056 487.018 258.522C489.179 257.824 491.249 256.867 493.181 255.674C495.379 254.449 497.859 253.818 500.375 253.846C503.094 254.001 505.79 254.442 508.417 255.161C511.145 255.797 513.884 256.354 516.659 256.745C522.936 257.636 529.292 257.823 535.61 257.3C537.02 257.183 537.033 254.966 535.61 255.085C529.743 255.58 523.841 255.455 518 254.713C515.086 254.322 512.194 253.785 509.335 253.104C506.616 252.378 503.839 251.894 501.035 251.657C498.391 251.5 495.75 252.002 493.348 253.117C491.283 254.077 489.382 255.434 487.211 256.158C486.185 256.524 485.086 256.634 484.008 256.477C482.93 256.32 481.907 255.902 481.029 255.258C479.28 253.862 477.634 252.343 476.102 250.712C475.109 249.797 473.975 248.806 472.535 248.866C471.921 248.954 471.335 249.178 470.819 249.521C470.304 249.865 469.871 250.32 469.554 250.852C467.724 253.333 466.202 256.027 465.024 258.876C464.886 259.132 464.85 259.431 464.925 259.713C464.999 259.995 465.177 260.237 465.424 260.392C465.678 260.538 465.98 260.578 466.264 260.503C466.548 260.429 466.791 260.245 466.94 259.992L466.938 260Z" fill="#367CFF"/>
</g>
<path d="M583.126 505.259H694.636V473.259H583.126V505.259Z" fill="#367CFF"/>
<path opacity="0.69" d="M583.126 505.259H694.636V473.259H583.126V505.259Z" fill="white"/>
<path opacity="0.65" d="M598.101 505.259H612.713V473.259H598.101V505.259Z" fill="white"/>
<path opacity="0.65" d="M619.634 498.304H680.388V479.341H619.634V498.304Z" fill="white"/>
<path d="M556.539 473.289H666.517V441.289H556.539V473.289Z" fill="#367CFF"/>
<path opacity="0.6" d="M556.539 473.289H666.517V441.289H556.539V473.289Z" fill="white"/>
<path opacity="0.42" d="M570.592 466.335H630.511V447.372H570.592V466.335Z" fill="white"/>
<path opacity="0.42" d="M637.336 473.289H651.747V441.289H637.336V473.289Z" fill="white"/>
<path d="M502.839 505.257L575.284 420.486L550.957 399.696L478.512 484.468L502.839 505.257Z" fill="#367CFF"/>
<path opacity="0.78" d="M502.839 505.257L575.284 420.486L550.957 399.696L478.512 484.468L502.839 505.257Z" fill="white"/>
<path opacity="0.2" d="M512.568 493.874L522.061 482.766L497.735 461.976L488.241 473.085L512.568 493.874Z" fill="#367CFF"/>
<path opacity="0.2" d="M521.271 472.986L560.741 426.8L546.325 414.48L506.855 460.666L521.271 472.986Z" fill="#367CFF"/>
<path opacity="0.21" d="M601.831 391.64L538.11 281.271C538.075 281.215 538.034 281.164 537.987 281.118C537.896 281.009 537.782 280.922 537.654 280.862C537.525 280.802 537.385 280.771 537.244 280.771C537.102 280.771 536.962 280.802 536.833 280.862C536.705 280.922 536.591 281.009 536.5 281.118C536.453 281.164 536.412 281.215 536.377 281.271L472.656 391.64C472.568 391.792 472.522 391.964 472.522 392.14C472.522 392.316 472.568 392.488 472.656 392.64C472.744 392.792 472.87 392.918 473.022 393.006C473.174 393.094 473.346 393.14 473.522 393.14H600.965C601.141 393.14 601.313 393.094 601.465 393.006C601.617 392.918 601.743 392.792 601.831 392.64C601.919 392.488 601.965 392.316 601.965 392.14C601.965 391.964 601.919 391.792 601.831 391.64ZM536.243 391.14H498.9C499.402 387.007 498.338 382.836 495.917 379.448C493.496 376.061 489.894 373.703 485.821 372.84L536.243 285.5V391.14ZM538.243 285.503L588.582 372.692C588.478 372.671 588.371 372.667 588.266 372.68C584.03 373.389 580.231 375.703 577.658 379.141C575.084 382.579 573.935 386.876 574.449 391.14H538.243V285.503ZM484.77 374.658C488.53 375.302 491.894 377.38 494.154 380.454C496.413 383.528 497.392 387.359 496.885 391.14H475.254L484.77 374.658ZM576.462 391.14C575.954 387.355 576.936 383.52 579.2 380.444C581.464 377.369 584.835 375.292 588.6 374.653C588.769 374.622 588.928 374.548 589.059 374.437C589.191 374.327 589.292 374.184 589.351 374.022L599.235 391.14H576.462Z" fill="#367CFF"/>
<g opacity="0.2">
<path d="M654.863 63.614H419.623C419.358 63.614 419.103 63.5086 418.916 63.3211C418.728 63.1336 418.623 62.8792 418.623 62.614C418.623 62.3488 418.728 62.0944 418.916 61.9069C419.103 61.7194 419.358 61.614 419.623 61.614H654.863C655.128 61.614 655.383 61.7194 655.57 61.9069C655.758 62.0944 655.863 62.3488 655.863 62.614C655.863 62.8792 655.758 63.1336 655.57 63.3211C655.383 63.5086 655.128 63.614 654.863 63.614Z" fill="#367CFF"/>
</g>
<g opacity="0.2">
<path d="M408.669 198.367C408.404 198.367 408.149 198.262 407.962 198.074C407.774 197.887 407.669 197.632 407.669 197.367V71.938C407.669 71.6728 407.774 71.4184 407.962 71.2309C408.149 71.0434 408.404 70.938 408.669 70.938C408.934 70.938 409.189 71.0434 409.376 71.2309C409.564 71.4184 409.669 71.6728 409.669 71.938V197.367C409.669 197.632 409.564 197.887 409.376 198.074C409.189 198.262 408.934 198.367 408.669 198.367Z" fill="#367CFF"/>
</g>
<path d="M655.863 173.969V151.1C655.869 151.037 655.869 150.973 655.863 150.91V124.752C655.869 124.689 655.869 124.625 655.863 124.562V99.062C655.869 98.9988 655.869 98.9352 655.863 98.872V72.178C655.869 72.1145 655.869 72.0505 655.863 71.987V71.938C655.863 71.6728 655.758 71.4184 655.57 71.2309C655.383 71.0434 655.128 70.938 654.863 70.938H419.623C419.358 70.938 419.103 71.0434 418.916 71.2309C418.728 71.4184 418.623 71.6728 418.623 71.938V197.367C418.623 197.392 418.636 197.412 418.637 197.436C418.641 197.661 418.732 197.876 418.89 198.036C418.9 198.046 418.903 198.061 418.913 198.071C419.007 198.164 419.118 198.238 419.24 198.289C419.361 198.34 419.491 198.366 419.622 198.366H527.946C528.089 198.459 528.255 198.508 528.425 198.508C528.595 198.508 528.761 198.459 528.904 198.366H556.512C556.655 198.459 556.821 198.508 556.991 198.508C557.161 198.508 557.327 198.459 557.47 198.366H582.155C582.298 198.459 582.464 198.508 582.634 198.508C582.804 198.508 582.97 198.459 583.113 198.366H607.513C607.656 198.459 607.822 198.508 607.992 198.508C608.162 198.508 608.328 198.459 608.471 198.366H631.251C631.394 198.459 631.56 198.508 631.731 198.508C631.901 198.508 632.067 198.459 632.21 198.366H654.864C655.129 198.366 655.384 198.261 655.571 198.073C655.759 197.886 655.864 197.631 655.864 197.366V174.166C655.87 174.1 655.87 174.034 655.863 173.969ZM610.563 196.369L653.863 153.428V173.678L631.451 196.369H610.563ZM585.176 196.369L653.864 127.108V150.608L607.723 196.365L585.176 196.369ZM559.535 196.369L653.864 101.41V124.268L582.359 196.368L559.535 196.369ZM530.997 196.369L653.863 74.5V98.57L556.715 196.37L530.997 196.369ZM503.224 196.369L628.369 72.938H652.6L528.156 196.367L503.224 196.369ZM475.524 196.369L600.666 72.938H625.52L500.374 196.367L475.524 196.369ZM449.131 196.369L574.273 72.938H597.818L472.672 196.367L449.131 196.369ZM422.056 196.369L546.492 72.938H571.425L446.279 196.367L422.056 196.369ZM420.623 95.791L443.194 72.938H464.087L420.623 116.038V95.791ZM420.623 118.857L466.923 72.938H489.468L420.623 142.36V118.857ZM420.623 145.2L492.288 72.938H515.112L420.623 168.058V145.2ZM420.623 170.9L517.931 72.942H543.652L420.623 194.967V170.9ZM440.382 72.942L420.623 92.942V72.942H440.382ZM634.264 196.367L653.864 176.523V196.367H634.264Z" fill="#0CBC8B"/>
</g>
<defs>
<clipPath id="clip0_1_465">
<rect width="722.206" height="507.854" fill="white"/>
</clipPath>
</defs>
</svg>
