<svg width="731" height="533" viewBox="0 0 731 533" fill="none" xmlns="http://www.w3.org/2000/svg">
<g clip-path="url(#clip0_1_2500)">
<path d="M606.043 10H117.461C96.071 10 78.731 27.34 78.731 48.73V420.56C78.731 441.95 96.071 459.29 117.461 459.29H606.043C627.433 459.29 644.773 441.95 644.773 420.56V48.73C644.773 27.34 627.433 10 606.043 10Z" fill="#C1D8ED"/>
<path d="M606.043 0H117.461C96.071 0 78.731 17.34 78.731 38.73V410.56C78.731 431.95 96.071 449.29 117.461 449.29H606.043C627.433 449.29 644.773 431.95 644.773 410.56V38.73C644.773 17.34 627.433 0 606.043 0Z" fill="#DEE8F5"/>
<path d="M426.485 377.339H297.018V523.891H426.485V377.339Z" fill="#DEE8F5"/>
<path d="M481.428 496.669H255.484C245.542 496.669 237.483 504.728 237.483 514.67V514.674C237.483 524.616 245.542 532.675 255.484 532.675H481.428C491.37 532.675 499.429 524.616 499.429 514.674V514.67C499.429 504.728 491.37 496.669 481.428 496.669Z" fill="#DEE8F5"/>
<path d="M612.229 34.153H107.822V385.338H612.229V34.153Z" fill="white"/>
<path d="M612.229 34.153H107.822V57.847H612.229V34.153Z" fill="#C1D8ED"/>
<path d="M599.209 52.499C602.799 52.499 605.709 49.5889 605.709 45.999C605.709 42.4091 602.799 39.499 599.209 39.499C595.619 39.499 592.709 42.4091 592.709 45.999C592.709 49.5889 595.619 52.499 599.209 52.499Z" fill="white"/>
<path d="M449.219 175.088H273.964V291.564H449.219V175.088Z" fill="#DEE8F5"/>
<path opacity="0.55" d="M451.178 173.218H270.14V202.819H451.178V173.218Z" fill="#C1D8ED"/>
<path d="M481.935 299.734H241.246V311.811H481.935V299.734Z" fill="#F3F5FD"/>
<path d="M473.492 287.657H249.69V299.734H473.492V287.657Z" fill="#F3F5FD"/>
<path d="M473.492 296.503H249.69V299.734H473.492V296.503Z" fill="#DEE8F5"/>
<path d="M481.935 308.581H241.246V311.812H481.935V308.581Z" fill="#DEE8F5"/>
<path d="M490.008 311.812H233.495V323.889H490.008V311.812Z" fill="#F3F5FD"/>
<path d="M490.008 320.658H233.495V323.889H490.008V320.658Z" fill="#DEE8F5"/>
<path d="M286.099 184.166H266.731V282.222H286.099V184.166Z" fill="#F3F5FD"/>
<path d="M334.956 184.166H315.588V282.222H334.956V184.166Z" fill="#F3F5FD"/>
<path d="M456.451 184.166H437.083V282.222H456.451V184.166Z" fill="#F3F5FD"/>
<path d="M260.9 175.088H291.932V186.215C291.932 186.4 291.896 186.582 291.825 186.753C291.754 186.924 291.651 187.079 291.52 187.209C291.39 187.34 291.235 187.443 291.064 187.514C290.893 187.585 290.711 187.621 290.526 187.621H262.3C262.115 187.621 261.933 187.585 261.762 187.514C261.591 187.443 261.436 187.34 261.306 187.209C261.175 187.079 261.072 186.924 261.001 186.753C260.93 186.582 260.894 186.4 260.894 186.215V175.088H260.9Z" fill="#C1D8ED"/>
<path d="M309.756 175.088H340.788V186.215C340.788 186.4 340.752 186.582 340.681 186.753C340.61 186.924 340.507 187.079 340.376 187.209C340.246 187.34 340.091 187.443 339.92 187.514C339.749 187.585 339.567 187.621 339.382 187.621H311.162C310.977 187.621 310.795 187.585 310.624 187.514C310.453 187.443 310.298 187.34 310.168 187.209C310.037 187.079 309.934 186.924 309.863 186.753C309.792 186.582 309.756 186.4 309.756 186.215V175.088Z" fill="#C1D8ED"/>
<path d="M431.251 175.088H462.283V186.215C462.283 186.4 462.247 186.582 462.176 186.753C462.105 186.924 462.002 187.079 461.871 187.209C461.741 187.34 461.586 187.443 461.415 187.514C461.244 187.585 461.062 187.621 460.877 187.621H432.657C432.472 187.621 432.29 187.585 432.119 187.514C431.948 187.443 431.793 187.34 431.663 187.209C431.532 187.079 431.429 186.924 431.358 186.753C431.287 186.582 431.251 186.4 431.251 186.215V175.088Z" fill="#C1D8ED"/>
<path d="M262.3 278.866H290.52C290.705 278.866 290.887 278.902 291.058 278.973C291.229 279.044 291.384 279.147 291.514 279.278C291.645 279.408 291.748 279.563 291.819 279.734C291.89 279.905 291.926 280.087 291.926 280.272V287.657H260.9V280.272C260.9 279.9 261.047 279.543 261.31 279.28C261.572 279.016 261.928 278.868 262.3 278.866Z" fill="#C1D8ED"/>
<path d="M311.162 278.866H339.382C339.567 278.866 339.749 278.902 339.92 278.973C340.091 279.044 340.246 279.147 340.376 279.278C340.507 279.408 340.61 279.563 340.681 279.734C340.752 279.905 340.788 280.087 340.788 280.272V287.657H309.756V280.272C309.756 280.087 309.792 279.905 309.863 279.734C309.934 279.563 310.037 279.408 310.168 279.278C310.298 279.147 310.453 279.044 310.624 278.973C310.795 278.902 310.977 278.866 311.162 278.866Z" fill="#C1D8ED"/>
<path d="M432.657 278.866H460.877C461.062 278.866 461.244 278.902 461.415 278.973C461.586 279.044 461.741 279.147 461.871 279.278C462.002 279.408 462.105 279.563 462.176 279.734C462.247 279.905 462.283 280.087 462.283 280.272V287.657H431.251V280.272C431.251 280.087 431.287 279.905 431.358 279.734C431.429 279.563 431.532 279.408 431.663 279.278C431.793 279.147 431.948 279.044 432.119 278.973C432.29 278.902 432.472 278.866 432.657 278.866Z" fill="#C1D8ED"/>
<path d="M273.954 193.001C273.954 192.463 273.517 192.026 272.979 192.026C272.441 192.026 272.004 192.463 272.004 193.001V273.388C272.004 273.926 272.441 274.363 272.979 274.363C273.517 274.363 273.954 273.926 273.954 273.388V193.001Z" fill="#C1D8ED"/>
<path d="M280.826 193.001C280.826 192.463 280.389 192.026 279.851 192.026C279.313 192.026 278.876 192.463 278.876 193.001V273.388C278.876 273.926 279.313 274.363 279.851 274.363C280.389 274.363 280.826 273.926 280.826 273.388V193.001Z" fill="#C1D8ED"/>
<path d="M322.812 193.001C322.812 192.463 322.375 192.026 321.837 192.026C321.299 192.026 320.862 192.463 320.862 193.001V273.388C320.862 273.926 321.299 274.363 321.837 274.363C322.375 274.363 322.812 273.926 322.812 273.388V193.001Z" fill="#C1D8ED"/>
<path d="M329.683 193.001C329.683 192.463 329.246 192.026 328.708 192.026C328.17 192.026 327.733 192.463 327.733 193.001V273.388C327.733 273.926 328.17 274.363 328.708 274.363C329.246 274.363 329.683 273.926 329.683 273.388V193.001Z" fill="#C1D8ED"/>
<path d="M409.102 184.166H389.734V282.222H409.102V184.166Z" fill="#F3F5FD"/>
<path d="M383.9 175.088H414.932V186.215C414.932 186.4 414.896 186.582 414.825 186.753C414.754 186.924 414.651 187.079 414.52 187.209C414.39 187.34 414.235 187.443 414.064 187.514C413.893 187.585 413.711 187.621 413.526 187.621H385.306C385.121 187.621 384.939 187.585 384.768 187.514C384.597 187.443 384.442 187.34 384.312 187.209C384.181 187.079 384.078 186.924 384.007 186.753C383.936 186.582 383.9 186.4 383.9 186.215V175.088Z" fill="#C1D8ED"/>
<path d="M385.307 278.866H413.527C413.712 278.866 413.894 278.902 414.065 278.973C414.236 279.044 414.391 279.147 414.521 279.278C414.652 279.408 414.755 279.563 414.826 279.734C414.897 279.905 414.933 280.087 414.933 280.272V287.657H383.9V280.272C383.9 280.087 383.936 279.904 384.007 279.734C384.078 279.563 384.181 279.408 384.312 279.277C384.443 279.147 384.598 279.043 384.769 278.973C384.939 278.902 385.122 278.866 385.307 278.866Z" fill="#C1D8ED"/>
<path d="M396.957 193.001C396.957 192.463 396.52 192.026 395.982 192.026C395.444 192.026 395.007 192.463 395.007 193.001V273.388C395.007 273.926 395.444 274.363 395.982 274.363C396.52 274.363 396.957 273.926 396.957 273.388V193.001Z" fill="#C1D8ED"/>
<path d="M403.828 193.001C403.828 192.463 403.391 192.026 402.853 192.026C402.315 192.026 401.878 192.463 401.878 193.001V273.388C401.878 273.926 402.315 274.363 402.853 274.363C403.391 274.363 403.828 273.926 403.828 273.388V193.001Z" fill="#C1D8ED"/>
<path d="M444.307 193.001C444.307 192.463 443.87 192.026 443.332 192.026C442.794 192.026 442.357 192.463 442.357 193.001V273.388C442.357 273.926 442.794 274.363 443.332 274.363C443.87 274.363 444.307 273.926 444.307 273.388V193.001Z" fill="#C1D8ED"/>
<path d="M451.178 193.001C451.178 192.463 450.741 192.026 450.203 192.026C449.665 192.026 449.228 192.463 449.228 193.001V273.388C449.228 273.926 449.665 274.363 450.203 274.363C450.741 274.363 451.178 273.926 451.178 273.388V193.001Z" fill="#C1D8ED"/>
<path d="M470.75 170.722V177.854C470.75 178.044 470.712 178.232 470.639 178.408C470.566 178.584 470.459 178.743 470.325 178.878C470.19 179.012 470.03 179.118 469.854 179.191C469.679 179.263 469.49 179.3 469.3 179.3H253.429C253.045 179.3 252.677 179.148 252.406 178.876C252.134 178.605 251.982 178.237 251.982 177.853V171.027C251.982 170.691 252.064 170.359 252.221 170.062C252.377 169.765 252.604 169.51 252.882 169.32L360.427 96.129C360.77 95.8959 361.175 95.7713 361.59 95.7713C362.004 95.7713 362.409 95.8959 362.752 96.129L469.846 169.014C470.124 169.204 470.352 169.458 470.51 169.756C470.667 170.054 470.75 170.385 470.75 170.722Z" fill="#DEE8F5"/>
<path d="M441.927 167.264H281.255C281.136 167.264 281.02 167.226 280.924 167.156C280.829 167.085 280.758 166.985 280.723 166.872C280.688 166.758 280.69 166.636 280.73 166.524C280.769 166.411 280.844 166.315 280.942 166.248L361.277 111.573C361.369 111.51 361.478 111.476 361.59 111.476C361.701 111.476 361.81 111.51 361.902 111.573L442.24 166.248C442.338 166.315 442.413 166.411 442.452 166.524C442.492 166.636 442.494 166.758 442.459 166.872C442.424 166.985 442.353 167.085 442.258 167.156C442.162 167.226 442.046 167.264 441.927 167.264Z" fill="#F3F5FD"/>
<path d="M556.994 394.316C556.994 394.316 534.954 377.975 527.113 384.401C520.013 390.218 528.235 413.431 528.235 413.431C528.235 413.431 547.181 415.141 556.994 394.316Z" fill="#DEE8F5"/>
<path d="M702.353 447.522C702.353 488.7 668.482 522.08 615.21 522.08C561.938 522.08 518.753 488.7 518.753 447.522C518.753 406.344 561.938 372.964 615.21 372.964C668.482 372.964 702.353 406.345 702.353 447.522Z" fill="#C1D8ED"/>
<path d="M574.68 490.313H568.466C567.942 490.389 567.41 490.389 566.886 490.313H560.672C559.874 490.313 559.083 490.47 558.346 490.776C557.608 491.081 556.938 491.529 556.373 492.094C555.809 492.658 555.361 493.328 555.056 494.066C554.75 494.803 554.593 495.594 554.593 496.392V526.892C554.593 528.425 555.202 529.895 556.286 530.979C557.37 532.063 558.84 532.672 560.373 532.672H567.185C567.351 532.672 567.514 532.661 567.676 532.647C567.838 532.661 568.001 532.672 568.167 532.672H574.979C576.512 532.672 577.982 532.063 579.066 530.979C580.15 529.895 580.759 528.425 580.759 526.892V496.392C580.759 494.78 580.119 493.234 578.979 492.094C577.838 490.953 576.292 490.313 574.68 490.313Z" fill="#C1D8ED"/>
<path d="M657.146 490.313H650.932C650.408 490.389 649.876 490.389 649.352 490.313H643.138C642.34 490.313 641.549 490.47 640.812 490.776C640.074 491.081 639.404 491.529 638.839 492.094C638.275 492.658 637.827 493.328 637.522 494.066C637.216 494.803 637.059 495.594 637.059 496.392V526.892C637.059 528.425 637.668 529.895 638.752 530.979C639.836 532.063 641.306 532.672 642.839 532.672H649.651C649.817 532.672 649.98 532.661 650.142 532.647C650.304 532.661 650.467 532.672 650.633 532.672H657.445C658.204 532.672 658.956 532.522 659.657 532.232C660.358 531.942 660.995 531.516 661.532 530.979C662.068 530.442 662.494 529.805 662.784 529.104C663.075 528.403 663.224 527.651 663.224 526.892V496.392C663.224 494.78 662.584 493.234 661.444 492.094C660.304 490.954 658.758 490.313 657.146 490.313Z" fill="#C1D8ED"/>
<path d="M536.493 423.225C538.233 423.225 539.643 421.815 539.643 420.075C539.643 418.335 538.233 416.925 536.493 416.925C534.753 416.925 533.343 418.335 533.343 420.075C533.343 421.815 534.753 423.225 536.493 423.225Z" fill="#111314"/>
<path d="M711.732 460.171C710.996 460.169 710.261 460.103 709.537 459.971C707.55 459.614 705.671 458.81 704.041 457.619C702.411 456.428 701.074 454.883 700.129 453.099C699.218 451.295 698.741 449.304 698.736 447.283C698.731 445.262 699.198 443.268 700.1 441.46C701.079 439.255 702.525 437.289 704.337 435.697C699.894 434.686 695.333 434.292 690.782 434.525C689.838 434.596 688.904 434.288 688.186 433.67C687.469 433.052 687.026 432.175 686.955 431.23C686.885 430.286 687.192 429.353 687.81 428.635C688.428 427.917 689.306 427.475 690.25 427.404C690.897 427.356 704.505 426.413 714.158 431.936C721.58 431.49 728.658 434.982 729.019 435.163C729.865 435.587 730.509 436.331 730.807 437.229C731.106 438.128 731.035 439.108 730.61 439.954C730.186 440.801 729.443 441.444 728.544 441.743C727.646 442.041 726.665 441.97 725.819 441.546C724.59 440.962 723.317 440.476 722.011 440.095C723.024 442.265 723.602 444.613 723.711 447.005C723.877 448.895 723.606 450.797 722.917 452.565C722.229 454.332 721.142 455.917 719.742 457.197C717.522 459.128 714.675 460.185 711.732 460.171ZM712.464 439.378C712.164 439.452 711.864 439.539 711.581 439.64C710.457 440.047 709.431 440.686 708.57 441.515C707.708 442.344 707.031 443.345 706.581 444.453C706.136 445.271 705.893 446.182 705.871 447.113C705.849 448.044 706.05 448.966 706.457 449.803C706.904 450.614 707.525 451.317 708.275 451.86C709.026 452.404 709.887 452.775 710.797 452.947C711.536 453.09 712.297 453.065 713.025 452.875C713.753 452.684 714.429 452.333 715.003 451.847C715.59 451.277 716.038 450.579 716.31 449.807C716.583 449.035 716.673 448.21 716.573 447.398C716.537 445.95 716.197 444.526 715.577 443.217C714.957 441.908 714.07 440.743 712.973 439.798C712.81 439.659 712.639 439.517 712.464 439.378Z" fill="#C1D8ED"/>
<path d="M703.341 446.53C702.742 446.529 702.153 446.378 701.628 446.09C701.103 445.802 700.659 445.387 700.336 444.883C700.014 444.378 699.823 443.801 699.782 443.203C699.74 442.606 699.85 442.008 700.1 441.464C700.944 439.479 702.193 437.692 703.766 436.217C705.34 434.741 707.203 433.61 709.238 432.895C718.113 429.785 728.577 434.946 729.019 435.167C729.865 435.591 730.509 436.335 730.807 437.233C731.106 438.132 731.035 439.112 730.611 439.959C730.186 440.805 729.443 441.448 728.544 441.747C727.646 442.045 726.665 441.974 725.819 441.55C723.552 440.425 716.561 437.884 711.582 439.64C710.458 440.047 709.432 440.686 708.571 441.515C707.709 442.344 707.032 443.345 706.582 444.453C706.297 445.073 705.84 445.598 705.265 445.966C704.691 446.334 704.023 446.53 703.341 446.53Z" fill="#DEE8F5"/>
<path d="M552.3 402.083C551.514 401.326 551.021 400.316 550.907 399.232C550.793 398.147 551.066 397.057 551.677 396.153C555.87 389.991 565.477 377.342 572.089 379.93C578.143 382.298 579.595 397.462 579.943 404.296C580.022 405.268 579.768 406.238 579.223 407.047C578.678 407.856 577.874 408.455 576.943 408.747C572.094 410.067 562.228 411.067 552.3 402.083Z" fill="#DEE8F5"/>
<path d="M501.398 435.047L572.266 435.668V482.451L507.607 482.166" fill="#C1D8ED"/>
<path d="M508.197 482.209C514.029 481.325 517.157 470.042 515.181 457.008C513.206 443.974 506.876 434.124 501.043 435.008C495.21 435.892 492.083 447.175 494.058 460.209C496.034 473.243 502.364 483.093 508.197 482.209Z" fill="#DEE8F5"/>
<path d="M638.467 379.26H591.033C589.134 379.26 587.595 380.799 587.595 382.698V382.699C587.595 384.598 589.134 386.137 591.033 386.137H638.467C640.366 386.137 641.905 384.598 641.905 382.699V382.698C641.905 380.799 640.366 379.26 638.467 379.26Z" fill="#E9EFF4"/>
<path d="M641.612 384.091C641.342 384.7 640.901 385.217 640.343 385.58C639.784 385.943 639.133 386.136 638.467 386.137H591.032C590.366 386.137 589.714 385.944 589.156 385.58C588.598 385.216 588.158 384.698 587.89 384.088C588.059 383.698 588.302 383.344 588.604 383.045C588.921 382.724 589.3 382.47 589.716 382.296C590.133 382.123 590.581 382.035 591.032 382.036H638.467C639.134 382.036 639.787 382.23 640.346 382.595C640.904 382.96 641.344 383.48 641.612 384.091Z" fill="#0F1011"/>
<path d="M622.844 321.602C638.105 321.602 650.476 309.231 650.476 293.97C650.476 278.709 638.105 266.338 622.844 266.338C607.583 266.338 595.212 278.709 595.212 293.97C595.212 309.231 607.583 321.602 622.844 321.602Z" fill="#0CBC8B"/>
<g opacity="0.29">
<path d="M622.844 311.883C632.737 311.883 640.757 303.863 640.757 293.97C640.757 284.077 632.737 276.057 622.844 276.057C612.951 276.057 604.931 284.077 604.931 293.97C604.931 303.863 612.951 311.883 622.844 311.883Z" fill="white"/>
</g>
<path d="M616.98 300.368L618.652 297.777C619.681 298.694 620.99 299.234 622.366 299.309C623.843 299.309 624.493 298.697 624.493 297.509C624.493 294.828 617.615 294.876 617.615 290.175C617.615 287.152 619.709 285.227 623.01 285.227C623.948 285.213 624.877 285.404 625.734 285.786C626.59 286.168 627.353 286.731 627.97 287.438L626.054 289.633C625.693 289.236 625.255 288.914 624.768 288.689C624.281 288.463 623.753 288.337 623.216 288.318C621.962 288.318 621.282 288.818 621.282 289.994C621.282 292.479 628.16 292.262 628.16 297.242C628.16 300.234 626.18 302.398 622.366 302.398C620.392 302.354 618.492 301.638 616.98 300.368ZM621.563 282.676H624.105V286.428H621.563V282.676ZM621.563 300.836H624.105V304.953H621.563V300.836Z" fill="white"/>
<path d="M640.634 248.735C653.313 248.735 663.592 238.456 663.592 225.777C663.592 213.098 653.313 202.819 640.634 202.819C627.955 202.819 617.676 213.098 617.676 225.777C617.676 238.456 627.955 248.735 640.634 248.735Z" fill="#0CBC8B"/>
<g opacity="0.29">
<path d="M640.634 240.66C648.854 240.66 655.517 233.997 655.517 225.777C655.517 217.557 648.854 210.894 640.634 210.894C632.414 210.894 625.751 217.557 625.751 225.777C625.751 233.997 632.414 240.66 640.634 240.66Z" fill="white"/>
</g>
<path d="M635.762 231.093L637.151 228.94C638.006 229.702 639.094 230.151 640.237 230.214C641.464 230.214 642.004 229.705 642.004 228.714C642.004 226.487 636.29 226.527 636.29 222.621C636.29 220.11 638.029 218.51 640.772 218.51C641.551 218.499 642.323 218.657 643.035 218.974C643.747 219.291 644.381 219.76 644.893 220.347L643.301 222.171C643.001 221.841 642.638 221.574 642.233 221.386C641.828 221.198 641.389 221.094 640.943 221.078C639.902 221.078 639.337 221.498 639.337 222.471C639.337 224.535 645.051 224.355 645.051 228.493C645.051 230.979 643.406 232.777 640.237 232.777C638.597 232.741 637.019 232.147 635.762 231.093ZM639.57 216.393H641.682V219.51H639.57V216.393ZM639.57 231.481H641.682V234.9H639.57V231.481Z" fill="white"/>
<path d="M156.512 103.689C153.42 103.685 150.343 104.128 147.378 105.005C143.863 95.0081 137.329 86.35 128.679 80.2277C120.03 74.1054 109.692 70.8212 99.0955 70.8291C88.4985 70.837 78.1658 74.1366 69.5255 80.2718C60.8853 86.4071 54.3643 95.0749 50.864 105.077C49.4197 104.887 47.9647 104.792 46.508 104.791C37.7979 104.793 29.4452 108.254 23.2869 114.414C17.1286 120.573 13.669 128.927 13.669 137.637V137.7C13.6801 144.236 16.284 150.501 20.9092 155.119C25.5344 159.737 31.8029 162.332 38.339 162.333H164.015C170.507 162.334 176.738 159.775 181.356 155.211C185.974 150.648 188.607 144.448 188.683 137.956C188.695 136.956 188.7 136.232 188.7 135.877C188.699 127.34 185.308 119.154 179.272 113.117C173.235 107.081 165.049 103.69 156.512 103.689Z" fill="#9EBCEA"/>
<path d="M87.342 119.937C91.0164 116.271 95.9947 114.213 101.185 114.213C106.375 114.213 111.354 116.271 115.028 119.937C115.364 120.262 115.813 120.443 116.281 120.439C116.748 120.435 117.195 120.248 117.526 119.918C117.856 119.587 118.043 119.14 118.047 118.673C118.051 118.205 117.87 117.756 117.545 117.42C113.202 113.087 107.319 110.654 101.185 110.654C95.0503 110.654 89.1665 113.087 84.824 117.42C84.6587 117.585 84.5276 117.782 84.4382 117.998C84.3488 118.214 84.3028 118.445 84.3029 118.679C84.3029 118.913 84.349 119.144 84.4385 119.36C84.528 119.576 84.6592 119.772 84.8245 119.938C84.9898 120.103 85.1861 120.234 85.4021 120.323C85.6181 120.413 85.8496 120.459 86.0834 120.459C86.3171 120.459 86.5486 120.413 86.7646 120.323C86.9805 120.233 87.1767 120.102 87.342 119.937Z" fill="white"/>
<path d="M79.791 112.386C85.4694 106.72 93.1634 103.538 101.185 103.538C109.207 103.538 116.901 106.72 122.579 112.386C122.743 112.555 122.94 112.691 123.157 112.783C123.374 112.876 123.607 112.925 123.843 112.927C124.079 112.929 124.313 112.884 124.532 112.794C124.75 112.705 124.949 112.573 125.116 112.406C125.283 112.239 125.415 112.04 125.504 111.822C125.594 111.603 125.639 111.369 125.637 111.133C125.635 110.897 125.586 110.664 125.493 110.447C125.401 110.23 125.265 110.033 125.096 109.869C118.75 103.537 110.15 99.9803 101.185 99.9803C92.2197 99.9803 83.6205 103.537 77.274 109.869C76.9487 110.205 76.7684 110.655 76.772 111.122C76.7756 111.589 76.9628 112.036 77.2933 112.367C77.6237 112.697 78.0709 112.884 78.5382 112.888C79.0055 112.892 79.4555 112.711 79.791 112.386Z" fill="white"/>
<path d="M94.892 127.487C96.5623 125.821 98.8253 124.885 101.185 124.885C103.544 124.885 105.807 125.821 107.477 127.487C107.813 127.812 108.262 127.993 108.73 127.989C109.197 127.985 109.644 127.798 109.975 127.468C110.305 127.137 110.492 126.69 110.496 126.223C110.5 125.755 110.319 125.306 109.994 124.97C107.656 122.637 104.488 121.327 101.185 121.327C97.8821 121.327 94.7141 122.637 92.376 124.97C92.0422 125.304 91.8547 125.756 91.8546 126.228C91.8545 126.7 92.0419 127.153 92.3755 127.487C92.7091 127.82 93.1617 128.008 93.6336 128.008C94.1056 128.008 94.5582 127.821 94.892 127.487Z" fill="white"/>
<path d="M101.185 138.846C103.243 138.846 104.911 137.178 104.911 135.12C104.911 133.062 103.243 131.394 101.185 131.394C99.1272 131.394 97.459 133.062 97.459 135.12C97.459 137.178 99.1272 138.846 101.185 138.846Z" fill="white"/>
<path d="M225.281 292.114C224.78 292.114 224.283 292.015 223.82 291.823C223.357 291.631 222.936 291.35 222.582 290.996C222.227 290.641 221.946 290.22 221.754 289.757C221.562 289.294 221.464 288.797 221.464 288.296V269.813C221.464 259.594 230.338 251.279 241.246 251.279C252.154 251.279 261.029 259.594 261.029 269.813V287.027C261.013 288.029 260.603 288.984 259.889 289.687C259.175 290.389 258.213 290.783 257.211 290.783C256.21 290.783 255.248 290.389 254.534 289.687C253.82 288.984 253.41 288.029 253.394 287.027V269.813C253.394 263.804 247.944 258.913 241.246 258.913C234.548 258.913 229.099 263.803 229.099 269.813V288.3C229.098 289.312 228.695 290.282 227.979 290.997C227.263 291.712 226.293 292.114 225.281 292.114Z" fill="#0CBC8B"/>
<path opacity="0.1" d="M225.281 292.114C224.78 292.114 224.283 292.015 223.82 291.823C223.357 291.631 222.936 291.35 222.582 290.996C222.227 290.641 221.946 290.22 221.754 289.757C221.562 289.294 221.464 288.797 221.464 288.296V269.813C221.464 259.594 230.338 251.279 241.246 251.279C252.154 251.279 261.029 259.594 261.029 269.813V287.027C261.013 288.029 260.603 288.984 259.889 289.687C259.175 290.389 258.213 290.783 257.211 290.783C256.21 290.783 255.248 290.389 254.534 289.687C253.82 288.984 253.41 288.029 253.394 287.027V269.813C253.394 263.804 247.944 258.913 241.246 258.913C234.548 258.913 229.099 263.803 229.099 269.813V288.3C229.098 289.312 228.695 290.282 227.979 290.997C227.263 291.712 226.293 292.114 225.281 292.114Z" fill="#0F1011"/>
<path d="M270.405 281.002H212.087C208.686 281.002 205.929 283.759 205.929 287.16V329.833C205.929 333.234 208.686 335.991 212.087 335.991H270.405C273.806 335.991 276.563 333.234 276.563 329.833V287.16C276.563 283.759 273.806 281.002 270.405 281.002Z" fill="#0CBC8B"/>
<path d="M235.441 301.22C235.441 302.31 235.748 303.378 236.326 304.302C236.904 305.226 237.731 305.968 238.711 306.445V315.366C238.711 316.038 238.978 316.683 239.453 317.159C239.929 317.634 240.574 317.901 241.246 317.901C241.918 317.901 242.563 317.634 243.039 317.159C243.514 316.683 243.781 316.038 243.781 315.366V306.445C244.714 305.992 245.509 305.298 246.082 304.435C246.656 303.571 246.989 302.57 247.045 301.535C247.101 300.499 246.878 299.468 246.401 298.548C245.923 297.627 245.208 296.851 244.329 296.301C243.451 295.751 242.441 295.445 241.404 295.417C240.368 295.389 239.343 295.639 238.436 296.141C237.529 296.643 236.772 297.379 236.246 298.272C235.719 299.165 235.441 300.183 235.441 301.22Z" fill="#0CBC8B"/>
<path opacity="0.1" d="M235.441 301.22C235.441 302.31 235.748 303.378 236.326 304.302C236.904 305.226 237.731 305.968 238.711 306.445V315.366C238.711 316.038 238.978 316.683 239.453 317.159C239.929 317.634 240.574 317.901 241.246 317.901C241.918 317.901 242.563 317.634 243.039 317.159C243.514 316.683 243.781 316.038 243.781 315.366V306.445C244.714 305.992 245.509 305.298 246.082 304.435C246.656 303.571 246.989 302.57 247.045 301.535C247.101 300.499 246.878 299.468 246.401 298.548C245.923 297.627 245.208 296.851 244.329 296.301C243.451 295.751 242.441 295.445 241.404 295.417C240.368 295.389 239.343 295.639 238.436 296.141C237.529 296.643 236.772 297.379 236.246 298.272C235.719 299.165 235.441 300.183 235.441 301.22Z" fill="#0F1011"/>
<path d="M638.819 384.517H590.956L569.7 363.259C569.575 363.15 569.475 363.015 569.406 362.864C569.337 362.713 569.302 362.549 569.302 362.383C569.302 362.217 569.337 362.053 569.406 361.902C569.475 361.751 569.575 361.616 569.7 361.507L591.88 339.327C591.989 339.202 592.124 339.102 592.275 339.033C592.426 338.964 592.59 338.928 592.755 338.928C592.921 338.928 593.085 338.964 593.236 339.033C593.387 339.102 593.522 339.202 593.631 339.327L594.693 340.389L599.072 344.767L607.092 352.788L610.278 355.974L618.3 364L626.479 372.179L630.038 375.737L635.338 381.037L638.819 384.517Z" fill="#8DDBE0"/>
<path opacity="0.47" d="M633.565 384.517H596.21L577.588 365.9C578.514 364.968 579.034 363.707 579.034 362.392C579.034 361.078 578.514 359.817 577.588 358.885L589.251 347.222C590.184 348.148 591.444 348.667 592.758 348.667C594.073 348.667 595.333 348.148 596.266 347.222L597.281 348.238L613.192 364.149L621.353 372.309L632 382.952L633.565 384.517Z" fill="white"/>
<path d="M592.229 364.871C593.941 364.871 595.329 363.483 595.329 361.771C595.329 360.059 593.941 358.671 592.229 358.671C590.517 358.671 589.129 360.059 589.129 361.771C589.129 363.483 590.517 364.871 592.229 364.871Z" fill="#8DDBE0"/>
<path d="M616.089 384.517H599.945C598.182 382.482 597.256 379.853 597.354 377.162C597.453 374.471 598.569 371.918 600.476 370.017C600.635 369.858 600.802 369.7 600.97 369.551C603.006 367.761 605.647 366.813 608.356 366.9C611.066 366.986 613.641 368.101 615.558 370.017C616.486 370.947 617.234 372.039 617.766 373.24C618.586 375.085 618.864 377.125 618.567 379.122C618.27 381.119 617.411 382.991 616.089 384.517Z" fill="#8DDBE0"/>
<path d="M602.888 381.759L604 380.65C603.691 380.252 603.438 379.815 603.246 379.35C603.038 378.876 602.917 378.367 602.891 377.85L604.699 377.461C604.751 377.902 604.86 378.334 605.021 378.748C605.162 379.101 605.373 379.422 605.642 379.691C605.864 379.954 606.173 380.129 606.513 380.185C606.664 380.187 606.813 380.155 606.95 380.093C607.087 380.03 607.208 379.939 607.306 379.824C607.399 379.734 607.472 379.625 607.518 379.504C607.565 379.383 607.586 379.253 607.578 379.124C607.56 378.81 607.506 378.499 607.417 378.197C607.317 377.857 607.208 377.497 607.078 377.127C606.949 376.756 606.86 376.373 606.812 375.984C606.763 375.603 606.782 375.216 606.868 374.842C606.972 374.436 607.189 374.069 607.494 373.782C607.968 373.272 608.61 372.949 609.302 372.873C609.989 372.822 610.673 373.014 611.233 373.416L612.375 372.274L613.451 373.35L612.331 374.47C612.617 374.842 612.825 375.269 612.941 375.724C613.045 376.152 613.089 376.593 613.074 377.033L611.321 377.144C611.315 376.807 611.261 376.473 611.161 376.151C611.059 375.859 610.89 375.595 610.667 375.38C610.465 375.149 610.191 374.993 609.89 374.936C609.747 374.929 609.605 374.956 609.474 375.013C609.343 375.071 609.227 375.159 609.136 375.269C609.049 375.355 608.983 375.459 608.942 375.575C608.902 375.69 608.888 375.814 608.903 375.935C608.933 376.239 608.998 376.538 609.097 376.827C609.204 377.16 609.324 377.51 609.458 377.876C609.59 378.244 609.681 378.625 609.73 379.013C609.778 379.4 609.753 379.793 609.658 380.172C609.538 380.596 609.304 380.98 608.981 381.281C608.502 381.785 607.869 382.116 607.181 382.219C606.452 382.296 605.72 382.105 605.123 381.681L603.97 382.835L602.888 381.759Z" fill="white"/>
<path d="M636.285 384.517H601.194L598.175 373.431L595.222 362.569V362.56L594.393 359.56V359.55L591.375 348.465L589.885 342.987C589.832 342.829 589.814 342.662 589.83 342.497C589.846 342.331 589.898 342.171 589.98 342.027C590.063 341.883 590.175 341.758 590.309 341.66C590.444 341.562 590.597 341.493 590.76 341.459L594.691 340.388L621.026 333.224C621.183 333.17 621.35 333.151 621.515 333.166C621.68 333.182 621.84 333.232 621.985 333.314C622.129 333.396 622.254 333.508 622.353 333.642C622.451 333.776 622.519 333.929 622.554 334.091L635.335 381.032L636.285 384.517Z" fill="#8DDBE0"/>
<path opacity="0.47" d="M632.429 384.517H605.05L604.45 382.346L604 380.651V380.642L603.217 377.782L600.972 369.547L595.429 349.192C596.11 349.012 596.743 348.684 597.283 348.233C597.798 347.804 598.221 347.277 598.529 346.681C598.836 346.086 599.021 345.435 599.072 344.767C599.116 344.206 599.062 343.642 598.913 343.1L614.834 338.768C615.183 340.034 616.018 341.11 617.158 341.763C618.297 342.416 619.649 342.591 620.917 342.252L630.037 375.732L632.002 382.952L632.429 384.517Z" fill="white"/>
<path d="M610.189 355.981C611.901 355.981 613.289 354.593 613.289 352.881C613.289 351.169 611.901 349.781 610.189 349.781C608.477 349.781 607.089 351.169 607.089 352.881C607.089 354.593 608.477 355.981 610.189 355.981Z" fill="#8DDBE0"/>
<path d="M626.318 377.269C625.859 378.948 624.994 380.487 623.798 381.752C622.602 383.016 621.113 383.966 619.462 384.517H612.614C610.996 383.958 609.533 383.022 608.348 381.787C607.837 381.262 607.388 380.681 607.007 380.055C606.455 379.178 606.038 378.223 605.768 377.223C605.274 375.414 605.267 373.507 605.746 371.694C606.226 369.882 607.176 368.228 608.5 366.9C609.796 365.582 611.417 364.631 613.2 364.143C613.219 364.133 613.237 364.133 613.256 364.124C615.986 363.384 618.898 363.757 621.354 365.162C623.81 366.566 625.608 368.886 626.356 371.614C626.402 371.8 626.449 371.986 626.486 372.173C626.857 373.859 626.799 375.611 626.318 377.269Z" fill="#8DDBE0"/>
<path d="M609.518 375.524L611.032 375.111C610.961 374.614 610.957 374.109 611.021 373.611C611.076 373.097 611.223 372.597 611.456 372.135L613.219 372.696C613.046 373.104 612.925 373.533 612.859 373.972C612.807 374.349 612.831 374.732 612.93 375.099C612.993 375.438 613.174 375.743 613.441 375.96C613.571 376.036 613.716 376.083 613.866 376.097C614.016 376.111 614.167 376.092 614.309 376.041C614.435 376.009 614.553 375.949 614.654 375.867C614.755 375.784 614.837 375.681 614.894 375.564C615.035 375.283 615.142 374.986 615.214 374.68C615.3 374.337 615.379 373.971 615.452 373.58C615.524 373.195 615.637 372.818 615.788 372.456C615.936 372.101 616.144 371.775 616.404 371.492C616.695 371.191 617.067 370.98 617.474 370.884C618.139 370.675 618.856 370.714 619.495 370.992C620.117 371.289 620.615 371.795 620.901 372.422L622.46 372L622.86 373.469L621.331 373.885C621.395 374.35 621.363 374.823 621.238 375.276C621.115 375.698 620.935 376.102 620.704 376.476L619.127 375.702C619.288 375.406 619.407 375.09 619.481 374.761C619.537 374.457 619.522 374.143 619.435 373.846C619.375 373.546 619.215 373.274 618.981 373.076C618.86 372.999 618.724 372.951 618.581 372.936C618.439 372.921 618.295 372.94 618.161 372.99C618.043 373.021 617.933 373.079 617.841 373.159C617.748 373.239 617.676 373.339 617.628 373.452C617.503 373.731 617.411 374.024 617.354 374.324C617.283 374.662 617.214 375.024 617.146 375.413C617.078 375.798 616.968 376.174 616.817 376.535C616.666 376.895 616.45 377.224 616.179 377.505C615.864 377.814 615.471 378.031 615.041 378.132C614.374 378.333 613.66 378.304 613.011 378.051C612.34 377.757 611.799 377.227 611.492 376.562L609.918 376.991L609.518 375.524Z" fill="white"/>
<path d="M417.63 266.35L426.115 330.136L471.351 301.772L417.63 266.35Z" fill="#9EBCEA"/>
<path d="M443.775 295.805L432.757 302.714L453.691 336.101L464.71 329.192L443.775 295.805Z" fill="#9EBCEA"/>
<path d="M21.027 528.345H141.444C150.666 528.345 158.141 520.87 158.141 511.648L158.141 251.224C158.141 242.003 150.666 234.527 141.444 234.527H21.027C11.8055 234.527 4.33 242.003 4.33 251.224L4.33 511.648C4.33 520.87 11.8055 528.345 21.027 528.345Z" fill="white"/>
<path d="M141.443 532.675H21.026C15.4516 532.668 10.1074 530.451 6.16568 526.509C2.22397 522.568 0.0066162 517.223 0 511.649L0 251.224C0.00714537 245.65 2.22474 240.306 6.16639 236.365C10.108 232.424 15.4519 230.207 21.026 230.2H141.443C147.018 230.206 152.362 232.424 156.304 236.366C160.246 240.308 162.464 245.652 162.47 251.227V511.649C162.463 517.224 160.246 522.568 156.304 526.51C152.362 530.451 147.018 532.669 141.443 532.675ZM21.026 238.856C17.747 238.86 14.6034 240.164 12.285 242.483C9.96646 244.801 8.66244 247.945 8.659 251.224V511.649C8.66271 514.928 9.96684 518.071 12.2853 520.39C14.6038 522.708 17.7472 524.012 21.026 524.016H141.443C144.722 524.013 147.866 522.709 150.184 520.39C152.503 518.072 153.807 514.928 153.811 511.649V251.224C153.807 247.945 152.503 244.801 150.184 242.483C147.866 240.164 144.722 238.86 141.443 238.856H21.026Z" fill="#DEE8F5"/>
<path d="M99.943 252.416H62.527C60.496 252.416 58.5481 251.609 57.112 250.173C55.6758 248.737 54.869 246.789 54.869 244.758V234.527H107.601V244.758C107.601 246.789 106.794 248.737 105.358 250.173C103.922 251.609 101.974 252.416 99.943 252.416Z" fill="#DEE8F5"/>
<path d="M133.776 310.836H28.695C25.1963 310.836 22.36 313.672 22.36 317.171V376.693C22.36 380.192 25.1963 383.028 28.695 383.028H133.776C137.275 383.028 140.111 380.192 140.111 376.693V317.171C140.111 313.672 137.275 310.836 133.776 310.836Z" fill="#262626"/>
<path d="M46.531 320.592H35.552C33.6538 320.592 32.115 322.131 32.115 324.029V330.423C32.115 332.321 33.6538 333.86 35.552 333.86H46.531C48.4292 333.86 49.968 332.321 49.968 330.423V324.029C49.968 322.131 48.4292 320.592 46.531 320.592Z" fill="white"/>
<path d="M49.968 322.064V325.177H43.919L42.944 324.202V320.592H48.5C48.8897 320.593 49.2631 320.749 49.5383 321.025C49.8135 321.3 49.968 321.674 49.968 322.064Z" fill="#0CBC8B"/>
<path d="M49.968 329.275V332.388C49.968 332.778 49.8135 333.152 49.5383 333.427C49.2631 333.703 48.8897 333.859 48.5 333.86H42.944V330.153L43.919 329.275H49.968Z" fill="#0CBC8B"/>
<path d="M39.042 320.592V324.202L38.164 325.177H32.115V322.064C32.115 321.871 32.1531 321.679 32.2271 321.501C32.301 321.322 32.4095 321.16 32.5461 321.023C32.6828 320.886 32.8451 320.778 33.0237 320.704C33.2023 320.63 33.3937 320.592 33.587 320.592H39.042Z" fill="#0CBC8B"/>
<path d="M39.042 330.153V333.86H33.587C33.1966 333.86 32.8222 333.705 32.5461 333.429C32.2701 333.153 32.115 332.778 32.115 332.388V329.275H38.164L39.042 330.153Z" fill="#0CBC8B"/>
<path d="M52.1 346.254H33.629C33.2341 346.244 32.8587 346.08 32.583 345.797C32.3072 345.514 32.1529 345.135 32.1529 344.74C32.1529 344.344 32.3072 343.965 32.583 343.682C32.8587 343.399 33.2341 343.235 33.629 343.225H52.1C52.4949 343.235 52.8703 343.399 53.146 343.682C53.4218 343.965 53.5761 344.344 53.5761 344.74C53.5761 345.135 53.4218 345.514 53.146 345.797C52.8703 346.08 52.4949 346.244 52.1 346.254Z" fill="white"/>
<path d="M78.1 346.254H59.624C59.2291 346.244 58.8537 346.08 58.578 345.797C58.3022 345.514 58.1479 345.135 58.1479 344.74C58.1479 344.344 58.3022 343.965 58.578 343.682C58.8537 343.399 59.2291 343.235 59.624 343.225H78.1C78.4949 343.235 78.8703 343.399 79.146 343.682C79.4218 343.965 79.5761 344.344 79.5761 344.74C79.5761 345.135 79.4218 345.514 79.146 345.797C78.8703 346.08 78.4949 346.244 78.1 346.254Z" fill="white"/>
<path d="M104.092 346.254H85.618C85.2231 346.244 84.8477 346.08 84.572 345.797C84.2962 345.514 84.1419 345.135 84.1419 344.74C84.1419 344.344 84.2962 343.965 84.572 343.682C84.8477 343.399 85.2231 343.235 85.618 343.225H104.092C104.487 343.235 104.862 343.399 105.138 343.682C105.414 343.965 105.568 344.344 105.568 344.74C105.568 345.135 105.414 345.514 105.138 345.797C104.862 346.08 104.487 346.244 104.092 346.254Z" fill="white"/>
<path d="M130.086 346.254H111.613C111.411 346.259 111.21 346.224 111.021 346.15C110.833 346.076 110.661 345.966 110.517 345.824C110.372 345.683 110.257 345.515 110.178 345.328C110.1 345.142 110.059 344.942 110.059 344.74C110.059 344.537 110.1 344.337 110.178 344.151C110.257 343.964 110.372 343.796 110.517 343.655C110.661 343.513 110.833 343.403 111.021 343.329C111.21 343.255 111.411 343.22 111.613 343.225H130.086C130.288 343.22 130.489 343.255 130.678 343.329C130.866 343.403 131.038 343.513 131.182 343.655C131.327 343.796 131.442 343.964 131.521 344.151C131.599 344.337 131.64 344.537 131.64 344.74C131.64 344.942 131.599 345.142 131.521 345.328C131.442 345.515 131.327 345.683 131.182 345.824C131.038 345.966 130.866 346.076 130.678 346.15C130.489 346.224 130.288 346.259 130.086 346.254Z" fill="white"/>
<path d="M130.355 362.639C130.355 364.709 129.533 366.694 128.069 368.158C126.605 369.622 124.62 370.444 122.55 370.444C120.48 370.444 118.495 369.622 117.031 368.158C115.567 366.694 114.745 364.709 114.745 362.639C114.746 361.475 115.01 360.327 115.517 359.28C116.024 358.232 116.76 357.313 117.672 356.59C118.812 355.657 120.194 355.067 121.657 354.89C123.12 354.713 124.603 354.956 125.933 355.59C127.263 356.225 128.385 357.224 129.168 358.472C129.951 359.72 130.363 361.166 130.355 362.639Z" fill="white"/>
<path d="M113.77 368.687C112.626 369.618 111.242 370.205 109.778 370.381C108.313 370.557 106.829 370.315 105.497 369.681C104.165 369.048 103.04 368.05 102.253 366.803C101.465 365.556 101.047 364.112 101.047 362.637C101.047 361.162 101.465 359.718 102.253 358.471C103.04 357.224 104.165 356.226 105.497 355.593C106.829 354.96 108.313 354.717 109.778 354.893C111.242 355.069 112.626 355.656 113.77 356.587C112.866 357.317 112.135 358.238 111.629 359.284C111.123 360.33 110.855 361.474 110.843 362.636C110.844 363.8 111.107 364.949 111.614 365.996C112.121 367.044 112.858 367.964 113.77 368.687Z" fill="#0CBC8B"/>
<path d="M28.029 427.639H134.441V404.425H28.029V427.639Z" fill="#0CBC8B"/>
</g>
<defs>
<clipPath id="clip0_1_2500">
<rect width="730.989" height="532.675" fill="white"/>
</clipPath>
</defs>
</svg>
