<svg width="1162" height="713" viewBox="0 0 1162 713" fill="none" xmlns="http://www.w3.org/2000/svg">
<g clip-path="url(#clip0_1_2408)">
<path d="M1161.27 712.022H0C12.725 679.573 36.219 652.046 69.349 643.879C117.806 631.949 169.087 664.754 217.437 652.418C244.906 645.418 266.531 625.018 289.256 608.078C374.985 544.161 492.468 525.269 593.912 559.101C646.939 576.776 695.256 607.686 749.575 620.827C819.815 637.827 893.27 623.727 965.504 621.406C1035.85 619.146 1136.65 647.81 1161.27 712.022Z" fill="#F3F5FD"/>
<path d="M483.867 628.183C478.867 626.547 473.735 628.388 468.826 632.118C475.293 615.788 477.962 601.038 466.906 600.373C459.17 599.909 453.244 605.843 448.742 614.281C447.159 599.446 443.074 588.381 433.923 592.05C423.877 596.077 422.349 609.879 423.873 624.321C419.447 616.945 414.682 612.831 410.355 617.158C397.442 630.071 429.138 666.458 429.138 666.458C429.138 666.458 456.401 676.816 467.015 665.708C481.4 650.653 495.808 632.092 483.867 628.183Z" fill="#8DDBE0"/>
<path d="M469.754 712.022H425.204L417.746 660.015H477.211L469.754 712.022Z" fill="#C1D8ED"/>
<path d="M754.482 712.022H593.388C581.57 702.591 580.756 681.344 593.004 671.855C602.445 664.543 616.717 666.499 625.591 674.105C623.931 668.443 623.896 662.428 625.491 656.747C628.377 646.517 634.791 636.125 644.584 631.988C669.574 621.443 687.332 643.537 690.891 655.888C697.291 646.479 711.602 641.506 720.591 647.84C731.972 655.862 731.457 668.51 722.379 677.588C734.479 675.333 743.585 677.073 751.979 686.078C758.361 692.935 759.339 704.615 754.482 712.022Z" fill="#8DDBE0"/>
<path d="M287.07 180.146L284.238 177.516C285.56 176.093 286.893 174.68 288.238 173.277L291.03 175.947C289.699 177.337 288.379 178.737 287.07 180.146Z" fill="#C1D8ED"/>
<path d="M299.075 167.765L296.36 165.016C299.107 162.303 301.923 159.603 304.728 156.99L307.361 159.818C304.584 162.405 301.8 165.079 299.075 167.765ZM825.488 167.924C822.782 165.241 820.003 162.563 817.225 159.963L819.866 157.142C822.666 159.766 825.478 162.471 828.209 165.181L825.488 167.924ZM315.876 152.115L313.326 149.215C316.218 146.674 319.186 144.143 322.146 141.691L324.611 144.668C321.679 147.092 318.74 149.6 315.876 152.115ZM808.733 152.247C805.871 149.722 802.938 147.21 800.018 144.783L802.488 141.812C805.438 144.263 808.399 146.799 811.288 149.349L808.733 152.247ZM333.559 137.475L331.183 134.428C334.211 132.068 337.322 129.715 340.431 127.436L342.716 130.554C339.637 132.809 336.556 135.138 333.559 137.475ZM791.086 137.58C788.086 135.23 785.007 132.896 781.945 130.645L784.234 127.532C787.326 129.806 790.434 132.163 793.467 134.537L791.086 137.58ZM352.072 123.907L349.882 120.723C353.058 118.538 356.304 116.376 359.529 114.296L361.629 117.544C358.431 119.6 355.218 121.743 352.072 123.907ZM772.599 123.986C769.467 121.823 766.257 119.678 763.058 117.609L765.158 114.364C768.388 116.454 771.632 118.621 774.795 120.806L772.599 123.986ZM371.359 111.47L369.359 108.161C372.664 106.168 376.033 104.205 379.374 102.326L381.268 105.693C377.966 107.554 374.631 109.5 371.359 111.47ZM753.33 111.523C750.06 109.546 746.73 107.599 743.421 105.735L745.321 102.369C748.66 104.252 752.029 106.219 755.332 108.216L753.33 111.523ZM391.356 100.223L389.564 96.8C392.975 95.016 396.456 93.261 399.913 91.585L401.6 95.061C398.178 96.718 394.731 98.455 391.356 100.221V100.223ZM733.339 100.254C729.958 98.482 726.51 96.742 723.092 95.082L724.78 91.6C728.235 93.277 731.717 95.035 735.132 96.825L733.339 100.254ZM412 90.213L410.421 86.686C413.938 85.112 417.521 83.575 421.07 82.116L422.539 85.69C419.023 87.134 415.477 88.656 412 90.213ZM712.694 90.226C709.211 88.665 705.663 87.141 702.147 85.695L703.616 82.121C707.17 83.582 710.755 85.121 714.274 86.699L712.694 90.226ZM433.21 81.5L431.851 77.882C435.457 76.53 439.127 75.217 442.761 73.982L444.005 77.64C440.41 78.857 436.777 80.156 433.21 81.5ZM691.462 81.5C687.89 80.158 684.252 78.858 680.652 77.633L681.896 73.974C685.534 75.212 689.21 76.526 692.82 77.882L691.462 81.5ZM454.915 74.111L453.784 70.417C457.462 69.291 461.206 68.21 464.914 67.202L465.927 70.932C462.259 71.929 458.554 73 454.915 74.111ZM669.726 74.1C666.08 72.986 662.368 71.914 658.693 70.916L659.706 67.187C663.419 68.196 667.171 69.278 670.856 70.404L669.726 74.1ZM477.031 68.1L476.131 64.342C479.872 63.449 483.675 62.604 487.437 61.831L488.214 65.616C484.5 66.378 480.733 67.214 477.031 68.1ZM647.564 68.082C643.858 67.2 640.085 66.363 636.35 65.597L637.127 61.812C640.901 62.586 644.714 63.431 648.46 64.323L647.564 68.082ZM499.475 63.482L498.815 59.675C502.598 59.019 506.445 58.414 510.25 57.875L510.791 61.702C507.026 62.233 503.218 62.832 499.475 63.48V63.482ZM625.064 63.464C621.304 62.815 617.485 62.217 613.713 61.687L614.251 57.86C618.063 58.396 621.922 59 625.721 59.66L625.064 63.464ZM522.156 60.279L521.736 56.438C525.558 56.02 529.436 55.657 533.258 55.36L533.558 59.212C529.774 59.506 525.938 59.866 522.156 60.279ZM602.308 60.264C598.525 59.853 594.675 59.495 590.866 59.2L591.166 55.347C595.015 55.647 598.905 56.006 602.729 56.423L602.308 60.264ZM544.986 58.5L544.805 54.64C548.647 54.461 552.545 54.34 556.393 54.28L556.452 58.144C552.645 58.2 548.787 58.323 544.986 58.5ZM579.392 58.493C575.751 58.325 572.049 58.209 568.392 58.149L567.925 58.141L567.988 54.277L568.456 54.285C572.156 54.346 575.892 54.463 579.572 54.633L579.392 58.493Z" fill="#C1D8ED"/>
<path d="M837.534 180.412C836.229 178.999 834.915 177.595 833.592 176.202L836.392 173.54C837.729 174.947 839.056 176.364 840.373 177.79L837.534 180.412Z" fill="#C1D8ED"/>
<path d="M926.295 196.894H717.849C701.886 196.894 688.946 209.834 688.946 225.797V676.6C688.946 692.563 701.886 705.503 717.849 705.503H926.295C942.258 705.503 955.198 692.563 955.198 676.6V225.797C955.198 209.834 942.258 196.894 926.295 196.894Z" fill="white"/>
<path d="M926.3 712.022H717.849C708.458 712.011 699.454 708.276 692.814 701.635C686.173 694.995 682.438 685.991 682.427 676.6V225.8C682.438 216.409 686.173 207.405 692.813 200.764C699.454 194.123 708.458 190.388 717.849 190.377H926.3C935.691 190.389 944.693 194.125 951.333 200.766C957.972 207.407 961.707 216.409 961.718 225.8V676.6C961.707 685.99 957.972 694.993 951.333 701.634C944.693 708.274 935.69 712.01 926.3 712.022ZM717.849 203.413C711.914 203.42 706.224 205.781 702.028 209.978C697.832 214.175 695.472 219.865 695.466 225.8V676.6C695.473 682.534 697.833 688.224 702.029 692.42C706.225 696.616 711.915 698.976 717.849 698.983H926.3C932.233 698.975 937.922 696.614 942.117 692.418C946.312 688.222 948.671 682.533 948.678 676.6V225.8C948.672 219.866 946.313 214.176 942.118 209.979C937.923 205.782 932.234 203.421 926.3 203.413H717.849Z" fill="#DEE8F5"/>
<path d="M776.432 196.894H867.713V214.6C867.713 218.116 866.316 221.487 863.83 223.973C861.344 226.459 857.973 227.856 854.457 227.856H789.688C786.172 227.856 782.801 226.459 780.315 223.973C777.829 221.487 776.432 218.116 776.432 214.6V196.89V196.894Z" fill="#DEE8F5"/>
<path d="M906.626 559.6L906.547 490.922C906.573 490.505 906.51 490.088 906.363 489.697C906.216 489.306 905.987 488.951 905.693 488.655C905.398 488.359 905.045 488.129 904.655 487.979C904.265 487.83 903.848 487.765 903.431 487.788L822.072 487.865L740.713 487.788C740.296 487.765 739.879 487.83 739.489 487.98C739.1 488.129 738.746 488.359 738.451 488.656C738.157 488.952 737.929 489.307 737.782 489.697C737.634 490.088 737.571 490.505 737.597 490.922L737.519 559.6L737.512 569.853C737.487 570.271 737.551 570.689 737.7 571.08C737.848 571.471 738.077 571.826 738.372 572.123C738.668 572.419 739.022 572.65 739.413 572.8C739.803 572.949 740.221 573.015 740.639 572.992L754.924 573.007L802.737 573.053L802.745 573.085L822.072 573.069L841.399 573.085L841.407 573.053L889.22 573L903.505 572.985C903.923 573.008 904.341 572.942 904.731 572.793C905.122 572.643 905.477 572.412 905.772 572.116C906.067 571.82 906.297 571.464 906.445 571.073C906.593 570.682 906.657 570.264 906.633 569.846L906.626 559.6Z" fill="#8DDBE0"/>
<path opacity="0.47" d="M897.2 509.631C893.895 509.623 890.728 508.31 888.388 505.976C886.048 503.643 884.725 500.479 884.708 497.175L822.07 497.229L759.432 497.175C759.415 500.479 758.092 503.643 755.752 505.976C753.412 508.31 750.245 509.623 746.94 509.631L746.896 551.149C748.311 551.147 749.716 551.392 751.048 551.871C752.635 552.438 754.093 553.318 755.334 554.459C756.575 555.599 757.575 556.977 758.274 558.511C759.012 560.122 759.387 561.875 759.374 563.647L800.174 563.684L800.183 563.718L822.068 563.701L843.952 563.718L843.962 563.684L884.762 563.647C884.75 561.875 885.125 560.122 885.862 558.511C886.561 556.977 887.561 555.599 888.802 554.459C890.043 553.318 891.501 552.438 893.088 551.871C894.42 551.392 895.825 551.147 897.24 551.149L897.2 509.631Z" fill="white"/>
<path d="M772.51 538.061C776.818 538.061 780.311 534.568 780.311 530.26C780.311 525.952 776.818 522.459 772.51 522.459C768.202 522.459 764.709 525.952 764.709 530.26C764.709 534.568 768.202 538.061 772.51 538.061Z" fill="#8DDBE0"/>
<path d="M871.634 538.061C875.942 538.061 879.435 534.568 879.435 530.26C879.435 525.952 875.942 522.459 871.634 522.459C867.326 522.459 863.833 525.952 863.833 530.26C863.833 534.568 867.326 538.061 871.634 538.061Z" fill="#8DDBE0"/>
<path d="M835.825 507.286C839.631 509.472 842.823 512.585 845.104 516.335C847.384 520.085 848.68 524.351 848.87 528.736C848.987 533.042 848.87 538.061 844.329 545.357C841.969 548.975 838.711 551.92 834.873 553.903C833.257 554.794 831.547 555.501 829.773 556.01C827.276 556.766 824.681 557.146 822.073 557.139C817.356 557.139 812.722 555.893 808.64 553.528C804.559 551.162 801.174 547.761 798.829 543.668C796.49 539.652 795.255 535.089 795.25 530.442C795.239 530.39 795.25 530.342 795.241 530.294C795.258 523.177 798.095 516.357 803.131 511.329C808.168 506.3 814.992 503.474 822.109 503.468C822.593 503.479 823.076 503.489 823.553 503.522C827.894 503.732 832.113 505.026 835.825 507.286Z" fill="#8DDBE0"/>
<path d="M820.444 546.909V542.961C819.189 542.803 817.961 542.476 816.793 541.991C815.581 541.516 814.465 540.827 813.499 539.955L816.029 536.049C816.906 536.741 817.867 537.318 818.89 537.768C819.769 538.145 820.715 538.34 821.672 538.343C822.536 538.417 823.397 538.179 824.101 537.674C824.372 537.41 824.582 537.089 824.715 536.734C824.848 536.379 824.902 536 824.872 535.622C824.877 535.294 824.811 534.969 824.678 534.669C824.546 534.369 824.35 534.101 824.104 533.884C823.515 533.356 822.865 532.899 822.17 532.521C821.394 532.086 820.561 531.653 819.67 531.221C818.784 530.79 817.946 530.267 817.17 529.659C816.406 529.066 815.752 528.345 815.237 527.526C814.701 526.619 814.435 525.579 814.47 524.526C814.405 522.774 814.973 521.058 816.07 519.691C817.202 518.379 818.76 517.507 820.47 517.228V513.162H824.3V517.149C825.471 517.303 826.599 517.694 827.615 518.297C828.56 518.876 829.423 519.581 830.18 520.391L827.255 523.705C826.644 523.118 825.953 522.619 825.204 522.223C824.504 521.882 823.733 521.711 822.954 521.723C822.184 521.671 821.419 521.879 820.782 522.314C820.515 522.556 820.308 522.856 820.177 523.192C820.047 523.527 819.996 523.889 820.03 524.247C820.028 524.555 820.096 524.859 820.229 525.136C820.363 525.413 820.557 525.656 820.799 525.847C821.393 526.335 822.042 526.753 822.732 527.092C823.508 527.488 824.343 527.897 825.238 528.318C826.126 528.738 826.964 529.255 827.738 529.86C828.512 530.465 829.168 531.208 829.671 532.052C830.212 533.022 830.477 534.121 830.438 535.231C830.482 536.983 829.939 538.698 828.894 540.105C827.735 541.539 826.091 542.5 824.273 542.805V546.911L820.444 546.909Z" fill="white"/>
<path d="M179.903 705.503H388.349C404.312 705.503 417.252 692.563 417.252 676.6L417.252 225.797C417.252 209.834 404.312 196.894 388.349 196.894L179.903 196.894C163.94 196.894 151 209.834 151 225.797L151 676.6C151 692.563 163.94 705.503 179.903 705.503Z" fill="white"/>
<path d="M144.48 676.6V225.8C144.49 216.408 148.224 207.404 154.865 200.763C161.505 194.122 170.508 190.385 179.9 190.374H388.349C397.741 190.385 406.745 194.121 413.386 200.762C420.026 207.404 423.761 216.408 423.771 225.8V676.6C423.76 685.991 420.025 694.995 413.384 701.635C406.744 708.276 397.74 712.011 388.349 712.022H179.9C170.509 712.011 161.506 708.275 154.866 701.635C148.226 694.994 144.491 685.991 144.48 676.6ZM179.9 203.413C173.965 203.42 168.276 205.782 164.08 209.979C159.884 214.175 157.525 219.865 157.519 225.8V676.6C157.526 682.534 159.886 688.223 164.081 692.419C168.277 696.615 173.966 698.976 179.9 698.983H388.349C394.283 698.976 399.973 696.616 404.169 692.42C408.365 688.224 410.725 682.534 410.732 676.6V225.8C410.725 219.866 408.365 214.176 404.169 209.98C399.973 205.783 394.283 203.423 388.349 203.416L179.9 203.413Z" fill="#DEE8F5"/>
<path d="M316.51 227.86H251.742C248.226 227.86 244.855 226.463 242.369 223.977C239.883 221.491 238.486 218.12 238.486 214.604V196.894H329.766V214.604C329.766 218.12 328.369 221.491 325.883 223.977C323.397 226.463 320.026 227.86 316.51 227.86Z" fill="#DEE8F5"/>
<path d="M338.702 283.721H229.548C221.866 283.721 215.638 289.949 215.638 297.631V331.139C215.638 338.821 221.866 345.049 229.548 345.049H338.702C346.384 345.049 352.612 338.821 352.612 331.139V297.631C352.612 289.949 346.384 283.721 338.702 283.721Z" fill="#262626"/>
<path d="M380.099 418.975H188.152C181.761 418.975 176.58 424.156 176.58 430.547V539.273C176.58 545.664 181.761 550.845 188.152 550.845H380.099C386.49 550.845 391.671 545.664 391.671 539.273V430.547C391.671 424.156 386.49 418.975 380.099 418.975Z" fill="#0CBC8B"/>
<path d="M220.734 436.796H200.677C197.21 436.796 194.4 439.606 194.4 443.073V454.755C194.4 458.222 197.21 461.032 200.677 461.032H220.734C224.201 461.032 227.011 458.222 227.011 454.755V443.073C227.011 439.606 224.201 436.796 220.734 436.796Z" fill="white"/>
<path d="M227.011 439.484V445.171H215.963L214.18 443.389V436.8H224.323C225.035 436.8 225.719 437.082 226.223 437.586C226.727 438.089 227.01 438.772 227.011 439.484Z" fill="#262626"/>
<path d="M227.011 452.656V458.343C227.011 458.696 226.942 459.046 226.807 459.372C226.672 459.698 226.474 459.994 226.224 460.244C225.974 460.494 225.678 460.692 225.352 460.827C225.026 460.962 224.676 461.031 224.323 461.031H214.18V454.26L215.963 452.66L227.011 452.656Z" fill="#262626"/>
<path d="M207.052 436.8V443.393L205.452 445.175H194.4V439.488C194.4 439.135 194.469 438.785 194.604 438.459C194.739 438.133 194.937 437.837 195.187 437.587C195.437 437.337 195.733 437.139 196.059 437.004C196.385 436.869 196.735 436.8 197.088 436.8H207.052Z" fill="#262626"/>
<path d="M207.052 454.26V461.031H197.088C196.735 461.031 196.385 460.962 196.059 460.827C195.733 460.692 195.437 460.494 195.187 460.244C194.937 459.994 194.739 459.698 194.604 459.372C194.469 459.046 194.4 458.696 194.4 458.343V452.656H205.449L207.052 454.26Z" fill="#262626"/>
<path d="M230.911 483.671H197.166C196.432 483.671 195.729 483.38 195.21 482.861C194.691 482.342 194.4 481.639 194.4 480.905C194.4 480.171 194.691 479.468 195.21 478.949C195.729 478.43 196.432 478.139 197.166 478.139H230.911C231.645 478.139 232.348 478.43 232.867 478.949C233.386 479.468 233.677 480.171 233.677 480.905C233.677 481.639 233.386 482.342 232.867 482.861C232.348 483.38 231.645 483.671 230.911 483.671Z" fill="white"/>
<path d="M278.394 483.671H244.649C243.915 483.671 243.212 483.38 242.693 482.861C242.174 482.342 241.883 481.639 241.883 480.905C241.883 480.171 242.174 479.468 242.693 478.949C243.212 478.43 243.915 478.139 244.649 478.139H278.394C279.128 478.139 279.831 478.43 280.35 478.949C280.869 479.468 281.16 480.171 281.16 480.905C281.16 481.639 280.869 482.342 280.35 482.861C279.831 483.38 279.128 483.671 278.394 483.671Z" fill="white"/>
<path d="M325.878 483.671H292.132C291.398 483.671 290.695 483.38 290.176 482.861C289.657 482.342 289.366 481.639 289.366 480.905C289.366 480.171 289.657 479.468 290.176 478.949C290.695 478.43 291.398 478.139 292.132 478.139H325.878C326.612 478.139 327.315 478.43 327.834 478.949C328.353 479.468 328.644 480.171 328.644 480.905C328.644 481.639 328.353 482.342 327.834 482.861C327.315 483.38 326.612 483.671 325.878 483.671Z" fill="white"/>
<path d="M373.361 483.671H339.615C338.881 483.671 338.178 483.38 337.659 482.861C337.14 482.342 336.849 481.639 336.849 480.905C336.849 480.171 337.14 479.468 337.659 478.949C338.178 478.43 338.881 478.139 339.615 478.139H373.361C374.095 478.139 374.798 478.43 375.317 478.949C375.836 479.468 376.127 480.171 376.127 480.905C376.127 481.639 375.836 482.342 375.317 482.861C374.798 483.38 374.095 483.671 373.361 483.671Z" fill="white"/>
<path d="M373.851 513.6C373.82 517.36 372.304 520.956 369.633 523.604C366.963 526.252 363.355 527.738 359.595 527.738C355.834 527.738 352.226 526.252 349.556 523.604C346.885 520.956 345.37 517.36 345.338 513.6C345.34 511.475 345.822 509.378 346.748 507.465C347.673 505.552 349.019 503.872 350.684 502.552C352.767 500.847 355.291 499.77 357.963 499.446C360.635 499.123 363.344 499.566 365.773 500.725C368.203 501.883 370.252 503.709 371.682 505.989C373.113 508.269 373.865 510.909 373.851 513.6Z" fill="white"/>
<path d="M343.556 524.65C341.466 526.354 338.935 527.43 336.258 527.754C333.581 528.078 330.867 527.635 328.431 526.478C325.995 525.321 323.937 523.497 322.496 521.218C321.055 518.938 320.29 516.297 320.29 513.6C320.29 510.903 321.055 508.262 322.496 505.982C323.937 503.703 325.995 501.879 328.431 500.722C330.867 499.565 333.581 499.122 336.258 499.446C338.935 499.77 341.466 500.846 343.556 502.55C341.905 503.884 340.57 505.566 339.646 507.476C338.721 509.387 338.231 511.478 338.21 513.6C338.212 515.725 338.694 517.823 339.619 519.736C340.545 521.65 341.891 523.329 343.556 524.65Z" fill="#262626"/>
<path d="M109.387 297.119C109.387 297.119 117.429 293.665 117.429 272.538L133.594 270.891C133.594 270.891 130.262 289.559 137.828 296.191L109.387 297.119Z" fill="#E98862"/>
<path d="M109.062 263.659C109.642 270.117 112.622 276.431 118.07 278.948C123.993 281.88 130.543 283.318 137.149 283.137C154.697 283.137 154.499 243.219 146.854 234.842C139.209 226.465 114.522 229.348 110.512 241.983C108.438 248.517 108.509 257.513 109.062 263.659Z" fill="#E98862"/>
<path d="M145.93 251.055C149.337 251.03 152.737 250.744 156.1 250.2C156.1 250.2 155.07 224.278 127.541 225.756C123.966 225.593 120.384 225.804 116.853 226.386C108.579 227.655 96.853 236.115 94.953 257.286C94.085 266.999 90.736 276.155 88.182 281.952C87.88 282.632 87.7526 283.378 87.8115 284.12C87.8704 284.862 88.1136 285.577 88.5192 286.202C88.9247 286.826 89.4798 287.339 90.1339 287.695C90.788 288.05 91.5205 288.236 92.265 288.237L151.244 287.77C151.942 287.771 152.63 287.608 153.253 287.295C153.876 286.982 154.418 286.528 154.834 285.968C155.25 285.408 155.529 284.759 155.649 284.072C155.769 283.384 155.727 282.679 155.525 282.011C152.318 271.383 146.451 264.872 145.93 251.055Z" fill="#0F1011"/>
<path d="M165.06 436.251C185.011 524.139 203.075 612.617 217.331 701.618L197.292 705.74C175.261 618.34 156.933 529.914 140.573 441.288L165.06 436.251Z" fill="#E98862"/>
<path d="M123.822 441.7C125.654 529.013 125.522 616.521 121.552 703.774H101.092C97.124 616.522 96.992 529.011 98.822 441.7H123.822Z" fill="#E98862"/>
<path d="M148.021 711.836C148.586 711.833 149.144 711.714 149.661 711.486C150.177 711.258 150.641 710.926 151.024 710.51C151.406 710.095 151.699 709.605 151.884 709.071C152.068 708.537 152.141 707.971 152.097 707.408C152.036 706.628 151.754 705.881 151.283 705.256C150.812 704.631 150.172 704.153 149.439 703.879L125 695.693C124.527 695.536 124.025 695.483 123.529 695.538C123.033 695.593 122.555 695.755 122.128 696.012C118.768 698.344 114.748 699.536 110.66 699.412C107.476 699.186 104.42 698.069 101.84 696.19C101.613 696.004 101.338 695.886 101.047 695.851C100.756 695.815 100.461 695.863 100.196 695.989C99.9306 696.114 99.7069 696.313 99.5504 696.561C99.394 696.809 99.3113 697.097 99.312 697.39V709.342C99.3117 709.695 99.3811 710.044 99.5162 710.37C99.6513 710.696 99.8494 710.991 100.099 711.24C100.349 711.489 100.645 711.687 100.972 711.821C101.298 711.955 101.647 712.023 102 712.022L148.021 711.836Z" fill="#C1D8ED"/>
<path d="M241.755 711.836C242.32 711.833 242.878 711.714 243.394 711.486C243.911 711.258 244.375 710.925 244.758 710.51C245.14 710.094 245.433 709.604 245.617 709.071C245.802 708.537 245.875 707.971 245.831 707.408C245.77 706.628 245.487 705.881 245.016 705.256C244.545 704.63 243.905 704.153 243.172 703.879L218.73 695.693C218.256 695.536 217.754 695.483 217.259 695.538C216.763 695.593 216.285 695.755 215.857 696.012C212.497 698.344 208.478 699.535 204.39 699.412C201.206 699.186 198.149 698.069 195.569 696.19C195.342 696.004 195.067 695.886 194.776 695.85C194.485 695.815 194.19 695.862 193.925 695.988C193.66 696.114 193.436 696.313 193.28 696.561C193.124 696.809 193.041 697.097 193.042 697.39V709.342C193.042 709.695 193.111 710.044 193.247 710.369C193.382 710.695 193.58 710.991 193.83 711.24C194.08 711.489 194.376 711.686 194.703 711.82C195.029 711.953 195.378 712.022 195.731 712.02L241.755 711.836Z" fill="#C1D8ED"/>
<path d="M86.149 404C86.149 404 74.789 454.872 74.789 497.654C74.789 540.436 61.745 606.7 61.745 606.7C61.745 606.7 98.712 600.72 123.79 606.7C167 617 205.742 594.565 205.742 594.565L162.226 408.7L86.149 404Z" fill="#262626"/>
<path d="M62.793 438.623C62.793 441.603 64.366 451.565 61.836 452.277C60.318 452.704 58.526 445.277 58.526 445.277" fill="#E98862"/>
<path d="M50.845 437.058C50.845 437.058 42.581 457.172 52.007 468.727C52.2474 469.021 52.5709 469.236 52.9351 469.343C53.2994 469.45 53.6875 469.445 54.0489 469.328C54.4102 469.212 54.728 468.989 54.9606 468.688C55.1933 468.388 55.33 468.025 55.353 467.646C55.811 459.855 57.383 443.846 62.519 445.721V433.157" fill="#E98862"/>
<path d="M163.141 351.133C162.765 354.896 162.492 358.593 162.451 362.126C162.067 394.594 170.833 400.71 166.514 410.636C162.314 420.261 79.99 424.264 78.89 407.319C78.19 396.542 87.69 387.129 87.69 366.124C87.6102 362.132 87.0825 358.162 86.117 354.288L76.847 379.494L67.747 440.794L46.178 437.594L55.443 375.18C55.5542 374.443 55.7408 373.72 56 373.021L78.953 310.606L79.091 310.657C80.0886 307.584 81.8103 304.796 84.111 302.528C88.68 297.959 96.591 295.002 106.227 295.002C120.571 295.002 140.162 295.033 144.177 295.202C155.917 295.702 161.672 300.763 164.2 308.314C164.2 308.318 165.5 323.106 163.141 351.133Z" fill="#367CFF"/>
<path d="M246.969 342.156C246.969 342.156 261.208 338.349 263.269 335.656C265.33 332.963 260.458 323.781 260.458 323.781C260.458 323.781 274.713 318.097 273.366 315.79C271.777 313.066 253.958 322.6 253.958 322.6C253.958 322.6 257.858 318.077 255.98 316.855C255.209 316.355 254.194 316.883 251.28 320.017C247.963 323.588 242.24 328.644 242.24 328.644L246.969 342.156Z" fill="#E98862"/>
<path d="M187.841 384.154C185.901 384.153 183.997 383.635 182.324 382.653C180.651 381.671 179.269 380.262 178.322 378.569L142.207 313.923L161.242 303.288L189.878 357.547L240.684 326.134L251.419 343.721C251.419 343.721 211.303 371.313 198.544 378.931C195.855 380.537 190.935 384.154 187.841 384.154Z" fill="#367CFF"/>
<path d="M562.305 112.77C593.446 112.77 618.69 87.5256 618.69 56.385C618.69 25.2444 593.446 0 562.305 0C531.164 0 505.92 25.2444 505.92 56.385C505.92 87.5256 531.164 112.77 562.305 112.77Z" fill="#F3F5FD"/>
<path d="M584.127 46.4H581.019V39.457C581.037 36.988 580.566 34.5398 579.634 32.2536C578.702 29.9673 577.326 27.8881 575.587 26.1359C573.847 24.3836 571.778 22.9929 569.499 22.0438C567.219 21.0948 564.775 20.6062 562.305 20.6062C559.836 20.6062 557.392 21.0948 555.112 22.0438C552.833 22.9929 550.764 24.3836 549.024 26.1359C547.285 27.8881 545.909 29.9673 544.977 32.2536C544.045 34.5398 543.574 36.988 543.592 39.457V46.4H540.484C539.781 46.3999 539.084 46.5383 538.434 46.8074C537.784 47.0766 537.194 47.4711 536.696 47.9684C536.199 48.4658 535.805 49.0563 535.535 49.7062C535.266 50.3561 535.128 51.0526 535.128 51.756V86.671C535.128 87.3744 535.266 88.0709 535.535 88.7208C535.805 89.3707 536.199 89.9612 536.696 90.4586C537.194 90.9559 537.784 91.3505 538.434 91.6196C539.084 91.8887 539.781 92.0271 540.484 92.027H584.127C585.548 92.027 586.91 91.4627 587.914 90.4583C588.919 89.4538 589.483 88.0915 589.483 86.671V51.756C589.483 51.0526 589.344 50.3562 589.075 49.7063C588.806 49.0565 588.412 48.4661 587.914 47.9687C587.417 47.4714 586.826 47.0769 586.177 46.8077C585.527 46.5385 584.83 46.4 584.127 46.4ZM549.675 39.457C549.675 36.1073 551.006 32.8948 553.374 30.5262C555.743 28.1577 558.955 26.827 562.305 26.827C565.655 26.827 568.867 28.1577 571.236 30.5262C573.604 32.8948 574.935 36.1073 574.935 39.457V46.4H549.675V39.457Z" fill="#0CBC8B"/>
<path d="M562.305 77.323C566.585 77.323 570.055 73.8532 570.055 69.573C570.055 65.2928 566.585 61.823 562.305 61.823C558.025 61.823 554.555 65.2928 554.555 69.573C554.555 73.8532 558.025 77.323 562.305 77.323Z" fill="white"/>
<path d="M822.072 444.471C867.904 444.471 905.059 407.316 905.059 361.484C905.059 315.652 867.904 278.497 822.072 278.497C776.24 278.497 739.085 315.652 739.085 361.484C739.085 407.316 776.24 444.471 822.072 444.471Z" fill="#C1D8ED"/>
<path d="M807.842 406.794C806.113 406.793 804.449 406.132 803.191 404.946L771.668 375.2C771 374.595 770.459 373.862 770.077 373.045C769.696 372.228 769.481 371.344 769.445 370.443C769.41 369.542 769.555 368.643 769.871 367.798C770.187 366.954 770.669 366.181 771.288 365.525C771.906 364.87 772.65 364.344 773.474 363.979C774.299 363.614 775.188 363.417 776.089 363.4C776.991 363.382 777.886 363.545 778.724 363.879C779.562 364.212 780.325 364.709 780.968 365.341L807.468 390.341L862.807 329.361C864.015 328.03 865.702 327.233 867.498 327.146C869.293 327.059 871.049 327.689 872.38 328.897C873.712 330.104 874.508 331.792 874.595 333.587C874.683 335.382 874.053 337.139 872.845 338.47L812.862 404.57C812.256 405.237 811.524 405.777 810.707 406.158C809.891 406.539 809.006 406.753 808.106 406.788C808.017 406.792 807.929 406.794 807.842 406.794Z" fill="white"/>
<path d="M976.643 703.714C976.643 703.714 976.572 681.966 976.572 680.04H997.572C997.572 681.96 997.643 703.645 997.643 703.645L976.643 703.714Z" fill="#E98862"/>
<path d="M951.114 711.836C950.549 711.833 949.991 711.714 949.475 711.486C948.958 711.258 948.494 710.925 948.111 710.51C947.729 710.094 947.436 709.604 947.252 709.071C947.067 708.537 946.994 707.971 947.038 707.408C947.099 706.628 947.381 705.881 947.852 705.255C948.324 704.63 948.964 704.153 949.697 703.879L974.139 695.693C974.613 695.536 975.114 695.483 975.61 695.538C976.106 695.593 976.584 695.755 977.012 696.012C980.372 698.344 984.391 699.535 988.479 699.412C991.663 699.186 994.72 698.069 997.3 696.19C997.527 696.004 997.802 695.886 998.093 695.85C998.384 695.815 998.679 695.862 998.944 695.988C999.209 696.114 999.433 696.313 999.589 696.561C999.746 696.809 999.828 697.097 999.827 697.39V709.342C999.827 709.695 999.758 710.044 999.622 710.369C999.487 710.695 999.289 710.991 999.039 711.24C998.789 711.489 998.493 711.686 998.166 711.82C997.84 711.953 997.491 712.022 997.138 712.02L951.114 711.836Z" fill="#C1D8ED"/>
<path d="M892.967 701.2C890.753 682.582 890.753 680.667 890.753 680.037H911.753C911.753 679.974 911.753 679.892 911.753 679.792C911.827 681.347 912.887 690.827 913.825 698.72L892.967 701.2Z" fill="#E98862"/>
<path d="M966.186 696.5L1003.05 693.385C998.563 624.67 984.667 402.594 984.667 402.594L908.59 407.294L907.808 412.624L907.541 412.545C898.621 459.831 894.825 512.057 887.594 559.679C887.085 603.779 886.945 649.971 885.22 693.951L922.22 694.581C922.102 651.653 923.168 606.736 924.431 563.681C930.743 529.345 935.685 493.411 942.946 458.739C949.283 530.141 959.5 628.293 966.186 696.5Z" fill="#262626"/>
<path d="M867.381 711.836C866.816 711.833 866.258 711.714 865.741 711.486C865.225 711.258 864.761 710.926 864.378 710.51C863.996 710.095 863.703 709.605 863.518 709.071C863.334 708.537 863.261 707.971 863.305 707.408C863.366 706.628 863.648 705.881 864.119 705.256C864.59 704.631 865.23 704.153 865.963 703.879L890.406 695.693C890.879 695.536 891.381 695.483 891.877 695.538C892.373 695.593 892.851 695.755 893.278 696.012C896.638 698.344 900.658 699.536 904.746 699.412C907.93 699.186 910.986 698.069 913.566 696.19C913.793 696.004 914.068 695.886 914.359 695.851C914.65 695.815 914.945 695.863 915.21 695.989C915.475 696.114 915.699 696.313 915.856 696.561C916.012 696.809 916.095 697.097 916.094 697.39V709.342C916.094 709.695 916.024 710.044 915.889 710.369C915.754 710.695 915.556 710.991 915.306 711.239C915.056 711.488 914.759 711.685 914.433 711.819C914.107 711.953 913.758 712.021 913.405 712.02L867.381 711.836Z" fill="#C1D8ED"/>
<path d="M953.769 281.326C953.756 281.226 953.753 281.126 953.75 281.026C953.699 279.207 953.714 277.236 953.833 275.072L937.786 272.553C938.137 275.915 938.195 279.3 937.961 282.672C937.917 283.253 937.864 283.844 937.801 284.447C937.249 289.354 935.825 294.547 932.453 297.383L957.443 296.683C955.787 293.974 954.043 289.271 953.769 281.326Z" fill="#E98862"/>
<path d="M962.667 266.65C961.742 273.068 958.427 279.213 952.853 281.435C946.235 284.072 941.286 284.377 933.576 284.594C923.055 284.894 923.094 273.909 922.487 262.86C921.877 251.767 922.424 239.834 926.474 235.849C934.556 227.893 959.054 232.096 962.381 244.928C964.1 251.564 963.548 260.543 962.667 266.65Z" fill="#E98862"/>
<path d="M916.271 242.559C916.271 242.559 911.935 241.718 912.994 237.388C913.694 234.517 917.364 235.047 917.364 235.047C917.364 235.047 913.89 234.511 913.805 231.494C913.751 229.594 915.121 226.33 919.581 228.047C924.813 230.061 930.704 229.618 935.167 228.737C937.689 228.11 940.254 227.674 942.841 227.432H942.854C945.832 227.296 948.813 227.61 951.698 228.362C959.782 230.535 972.306 237.407 969.998 253.75C967.504 271.413 957.014 279.44 955.573 280.55C952.861 282.641 935.849 283.529 934.115 281.89C931.515 279.436 929.856 269.323 929.873 251.624C922.865 250.716 918.058 250.38 918.058 250.38C918.058 250.38 912.258 250.761 912.143 246.523C912.028 242.285 916.271 242.559 916.271 242.559Z" fill="#0F1011"/>
<path d="M925.152 264.883C925.102 265.692 925.213 266.503 925.479 267.269C925.744 268.035 926.158 268.741 926.697 269.347C927.237 269.952 927.891 270.444 928.621 270.796C929.352 271.147 930.145 271.35 930.954 271.394C931.764 271.437 932.574 271.32 933.338 271.049C934.102 270.777 934.805 270.358 935.406 269.814C936.007 269.27 936.494 268.612 936.84 267.879C937.186 267.145 937.383 266.351 937.42 265.541C937.477 264.733 937.371 263.921 937.108 263.155C936.845 262.389 936.431 261.683 935.89 261.08C935.349 260.477 934.692 259.989 933.958 259.645C933.225 259.301 932.43 259.108 931.62 259.078C927.235 259.059 925.334 261.5 925.152 264.883Z" fill="#E98862"/>
<path d="M1013.51 447.4L1001.56 448.964C1001.56 451.944 999.989 461.907 1002.52 462.619C1003.48 462.889 1004.55 460.007 1005.21 457.859C1007.72 462.098 1008.67 472.259 1009 477.988C1009.02 478.367 1009.16 478.73 1009.39 479.03C1009.63 479.331 1009.94 479.554 1010.31 479.67C1010.67 479.787 1011.06 479.792 1011.42 479.685C1011.78 479.578 1012.11 479.363 1012.35 479.069C1021.77 467.517 1013.51 447.4 1013.51 447.4Z" fill="#E98862"/>
<path d="M907.4 362.126C907.076 334.394 892.5 296.626 925.676 295.206C929.69 295.033 949.282 295.006 963.625 295.006C973.262 295.006 981.173 297.963 985.741 302.532C1001.49 318.283 982.159 345.123 982.159 366.132C982.159 387.141 991.659 396.55 990.959 407.327C989.859 424.273 907.531 420.269 903.336 410.644C899.017 400.71 907.783 394.594 907.4 362.126Z" fill="#367CFF"/>
<path d="M998.131 452.359L989.892 375.427L968.164 314.807L988.689 307.45L1010.86 369.294C1011.15 370.107 1011.34 370.953 1011.43 371.812L1019.81 450.037L998.131 452.359Z" fill="#367CFF"/>
<path d="M820.748 336.048C821.696 334.068 822.79 331.048 821.448 329.702C820.072 328.326 817.772 331.597 816.363 333.987C813.131 332.619 809.515 331.478 808.38 332.613C806.18 334.813 803.554 342.224 804.858 345.745C806.162 349.266 819.158 349.904 819.158 349.904L823.458 336.745C822.531 336.617 821.622 336.383 820.748 336.048Z" fill="#E98862"/>
<path d="M874.6 370.344C873.557 370.344 872.519 370.194 871.518 369.898L816.908 353.798L823.072 332.883L870.857 346.968L909.557 301.098L926.223 315.159L882.933 366.467C881.91 367.681 880.634 368.657 879.195 369.326C877.756 369.996 876.187 370.343 874.6 370.344Z" fill="#367CFF"/>
<path d="M271.988 328.615L275.616 322.988C278.492 325.188 281.007 326.316 283.683 326.316C286.889 326.316 288.3 324.986 288.3 322.416C288.3 316.595 273.366 316.7 273.366 306.491C273.366 299.928 277.912 295.748 285.081 295.748C287.117 295.719 289.135 296.133 290.995 296.962C292.855 297.791 294.512 299.014 295.851 300.548L291.689 305.315C289.633 303.445 287.889 302.46 285.527 302.46C282.805 302.46 281.327 303.56 281.327 306.099C281.327 311.494 296.261 311.023 296.261 321.837C296.261 328.337 291.961 333.037 283.681 333.037C279.393 332.938 275.268 331.378 271.988 328.615ZM281.938 290.198H287.457V298.346H281.938V290.198ZM281.938 329.631H287.457V338.571H281.938V329.631Z" fill="white"/>
</g>
<defs>
<clipPath id="clip0_1_2408">
<rect width="1161.27" height="712.022" fill="white"/>
</clipPath>
</defs>
</svg>
