<svg width="798" height="487" viewBox="0 0 798 487" fill="none" xmlns="http://www.w3.org/2000/svg">
<g clip-path="url(#clip0_1_2929)">
<path d="M101.359 33.5C101.205 18.631 107.082 9.417 115.05 4.358C122.911 -0.634 147.565 -4.979 156.912 13.142C163.012 24.967 160.604 29.194 162.332 48.133C164.06 67.072 170.698 69.06 177.432 92.016C182.712 110.023 153.132 119.582 127.52 118.756C101.908 117.93 85.67 112.256 84.184 95.969C82.048 72.59 101.66 62.639 101.359 33.5Z" fill="#0F1011"/>
<path d="M116.62 74.61C116.62 74.61 124.314 70.439 122.395 49.399L138.343 46.291C138.343 46.291 136.721 65.185 144.858 71.104L116.62 74.61Z" fill="#E98862"/>
<g opacity="0.15">
<path d="M141.549 67.187L128.184 57.156L138.607 56.956C138.942 60.5198 139.94 63.9897 141.549 67.187Z" fill="black"/>
</g>
<path d="M113.255 41.318C114.42 47.696 117.961 53.718 123.615 55.725C129.781 58.1074 136.436 58.9445 143 58.163C160.476 56.568 156.652 16.834 148.278 9.186C139.904 1.538 115.576 6.653 112.73 19.6C111.259 26.3 112.147 35.247 113.255 41.318Z" fill="#E98862"/>
<path d="M138.214 36.168C139.014 36.168 139.663 35.5193 139.663 34.719C139.663 33.9187 139.014 33.27 138.214 33.27C137.414 33.27 136.765 33.9187 136.765 34.719C136.765 35.5193 137.414 36.168 138.214 36.168Z" fill="#0F1011"/>
<path d="M149.637 35.126C150.437 35.126 151.086 34.4773 151.086 33.677C151.086 32.8767 150.437 32.228 149.637 32.228C148.837 32.228 148.188 32.8767 148.188 33.677C148.188 34.4773 148.837 35.126 149.637 35.126Z" fill="#0F1011"/>
<path d="M152.113 30.566L148.274 30.553C148.098 30.5463 147.932 30.4716 147.809 30.3447C147.687 30.2178 147.619 30.0486 147.619 29.8725C147.619 29.6964 147.687 29.5272 147.809 29.4003C147.932 29.2734 148.098 29.1987 148.274 29.192L152.113 29.204C152.294 29.204 152.467 29.2757 152.595 29.4035C152.722 29.5312 152.794 29.7044 152.794 29.885C152.794 30.0656 152.722 30.2388 152.595 30.3665C152.467 30.4943 152.294 30.566 152.113 30.566Z" fill="#0F1011"/>
<path d="M135.057 32.122C134.891 32.1223 134.73 32.0616 134.605 31.9515C134.48 31.8413 134.4 31.6893 134.38 31.5241C134.36 31.3589 134.4 31.192 134.495 31.0549C134.589 30.9178 134.73 30.82 134.892 30.78L138.668 29.835C138.843 29.791 139.029 29.8183 139.184 29.9111C139.339 30.0038 139.45 30.1543 139.495 30.3295C139.539 30.5047 139.511 30.6902 139.418 30.8452C139.326 31.0002 139.175 31.112 139 31.156L135.224 32.102C135.169 32.1151 135.113 32.1218 135.057 32.122Z" fill="#0F1011"/>
<path d="M138.989 46.124C138.989 46.124 144.343 46.639 148.08 45.294C148.08 45.294 148.08 48.817 143.853 49.203C139.626 49.589 138.989 46.124 138.989 46.124Z" fill="#F8FCFF"/>
<path d="M124.871 24.659C124.491 53.512 121.71 64.72 121.71 64.72C121.71 64.72 108.048 48.211 105.986 30.725C104.053 14.334 116.056 4.535 124.208 2.634C155.188 -4.593 157.339 18.005 157.339 18.005C155.339 25.713 121.516 30.496 121.516 30.496" fill="#0F1011"/>
<path d="M130.956 41.031C131.094 42.6481 130.586 44.2542 129.544 45.4983C128.502 46.7425 127.01 47.5236 125.393 47.671C123.777 47.8184 122.168 47.3202 120.918 46.2852C119.668 45.2502 118.878 43.7624 118.721 42.147C118.634 41.3411 118.709 40.5259 118.944 39.75C119.178 38.974 119.566 38.2531 120.085 37.6302C120.603 37.0073 121.242 36.4951 121.963 36.1241C122.684 35.7532 123.472 35.5311 124.28 35.471C128.657 35.288 130.647 37.652 130.956 41.031Z" fill="#E98862"/>
<g opacity="0.15">
<path d="M144.716 42.7C144.597 42.6998 144.482 42.657 144.391 42.5794C144.301 42.5019 144.241 42.3946 144.223 42.2769C144.205 42.1593 144.229 42.0389 144.291 41.9375C144.354 41.8362 144.451 41.7605 144.564 41.724L147.503 40.792L145.403 36.22C145.372 36.16 145.354 36.0944 145.35 36.0272C145.345 35.96 145.354 35.8925 145.376 35.8289C145.398 35.7652 145.433 35.7067 145.478 35.6569C145.524 35.607 145.579 35.5668 145.64 35.5387C145.701 35.5106 145.767 35.4951 145.835 35.4933C145.902 35.4914 145.969 35.5032 146.032 35.5278C146.094 35.5525 146.151 35.5896 146.199 35.6369C146.247 35.6842 146.285 35.7407 146.311 35.803L148.652 40.888C148.682 40.9522 148.698 41.022 148.698 41.0928C148.699 41.1636 148.685 41.2337 148.656 41.2985C148.628 41.3634 148.586 41.4215 148.534 41.469C148.481 41.5164 148.419 41.5522 148.352 41.574L144.874 42.674C144.823 42.6911 144.77 42.6999 144.716 42.7Z" fill="black"/>
</g>
<path d="M797.963 486.826H0C8.744 464.526 24.891 445.613 47.653 440.002C80.953 431.802 116.188 454.344 149.411 445.869C168.287 441.06 183.147 427.041 198.762 415.401C257.671 371.48 338.399 358.501 408.106 381.746C444.543 393.892 477.746 415.131 515.072 424.165C563.338 435.846 613.813 426.159 663.446 424.565C711.786 423.006 781.049 442.7 797.963 486.826Z" fill="#F3F5FD"/>
<path d="M641.253 144.5H626.72C623.113 144.5 619.654 143.067 617.103 140.517C614.553 137.966 613.12 134.507 613.12 130.9V105.263C597.69 113.863 569.25 124.033 522.77 121.903C496.32 120.693 475.27 115.623 459.64 110.053C454.143 108.103 448.753 105.867 443.49 103.353V130.9C443.49 134.507 442.057 137.966 439.507 140.517C436.956 143.067 433.497 144.5 429.89 144.5H415.355C408.183 144.5 401.306 147.349 396.235 152.42C391.164 157.492 388.315 164.369 388.315 171.541V465.009C388.315 470.795 390.614 476.344 394.705 480.436C398.797 484.527 404.346 486.826 410.132 486.826H646.477C649.342 486.826 652.179 486.262 654.826 485.165C657.473 484.069 659.878 482.462 661.904 480.436C663.929 478.41 665.536 476.005 666.633 473.358C667.729 470.711 668.293 467.874 668.293 465.009V171.538C668.292 164.367 665.443 157.49 660.372 152.419C655.301 147.349 648.424 144.5 641.253 144.5Z" fill="#DEE8F5"/>
<path d="M596.973 110.053C581.342 115.623 560.292 120.693 533.842 121.903C531.965 121.989 524.651 121.989 522.773 121.903C496.323 120.693 475.273 115.623 459.643 110.053C454.146 108.103 448.756 105.867 443.493 103.353V127.663C460.653 135.333 485.943 142.193 521.473 142.193H535.143C570.673 142.193 595.963 135.333 613.123 127.663V103.353C607.86 105.867 602.47 108.103 596.973 110.053Z" fill="#C1D8ED"/>
<path d="M172.681 211.054C192.632 298.942 210.696 387.421 224.952 476.422L204.913 480.544C182.882 393.144 164.554 304.717 148.194 216.091L172.681 211.054Z" fill="#E98862"/>
<path d="M131.443 216.5C133.275 303.812 133.143 391.32 129.173 478.574H108.713C104.745 391.322 104.613 303.811 106.443 216.5H131.443Z" fill="#E98862"/>
<path d="M155.642 486.639C156.207 486.636 156.765 486.517 157.282 486.289C157.798 486.061 158.262 485.729 158.645 485.314C159.027 484.898 159.32 484.408 159.505 483.875C159.689 483.341 159.762 482.775 159.718 482.212C159.657 481.432 159.375 480.685 158.904 480.06C158.433 479.435 157.793 478.957 157.06 478.683L132.617 470.5C132.143 470.343 131.642 470.291 131.146 470.346C130.65 470.401 130.172 470.563 129.745 470.82C126.385 473.151 122.365 474.343 118.277 474.22C115.093 473.994 112.037 472.877 109.457 470.998C109.23 470.812 108.955 470.694 108.664 470.659C108.373 470.623 108.078 470.671 107.813 470.797C107.548 470.922 107.324 471.121 107.167 471.369C107.011 471.617 106.928 471.905 106.929 472.198V484.15C106.929 484.503 106.999 484.852 107.134 485.177C107.269 485.503 107.467 485.799 107.717 486.048C107.967 486.296 108.264 486.493 108.59 486.627C108.916 486.761 109.265 486.829 109.618 486.828L155.642 486.639Z" fill="#C1D8ED"/>
<path d="M249.376 486.639C249.941 486.636 250.499 486.517 251.015 486.289C251.532 486.061 251.996 485.729 252.379 485.314C252.761 484.898 253.054 484.408 253.238 483.875C253.423 483.341 253.496 482.775 253.452 482.212C253.391 481.432 253.108 480.685 252.637 480.06C252.166 479.434 251.526 478.957 250.793 478.683L226.351 470.5C225.877 470.343 225.375 470.291 224.88 470.346C224.384 470.401 223.906 470.563 223.478 470.82C220.118 473.151 216.099 474.343 212.011 474.22C208.827 473.994 205.771 472.879 203.19 471C202.963 470.814 202.688 470.696 202.397 470.66C202.106 470.625 201.811 470.673 201.546 470.798C201.281 470.924 201.057 471.123 200.901 471.371C200.745 471.619 200.662 471.907 200.663 472.2V484.152C200.663 484.505 200.733 484.854 200.868 485.179C201.003 485.505 201.201 485.801 201.451 486.05C201.701 486.298 201.998 486.495 202.324 486.629C202.65 486.763 202.999 486.831 203.352 486.83L249.376 486.639Z" fill="#C1D8ED"/>
<path d="M93.77 178.8C93.77 178.8 82.41 229.671 82.41 272.454C82.41 315.237 69.366 381.5 69.366 381.5C69.366 381.5 106.333 375.521 131.411 381.5C174.62 391.8 213.363 369.368 213.363 369.368L169.847 183.5L93.77 178.8Z" fill="#262626"/>
<path d="M290.417 131.171C290.417 131.171 298.625 127.182 304.791 128.712C310.957 130.242 308.067 132.897 303.581 133.841C299.095 134.785 289.238 136.32 289.238 136.32" fill="#E98862"/>
<path d="M295.211 130.983C295.211 130.983 310.429 129.383 310.588 133.045C310.588 133.045 311.254 144.345 309.188 146.088C306.067 148.724 290.608 146.66 290.608 146.66L295.211 130.983Z" fill="#E98862"/>
<path d="M254.981 149.648H195.5C193.739 149.648 192.006 149.205 190.461 148.36C188.917 147.515 187.609 146.295 186.659 144.812L149.079 86.144L166.762 74.817L201.246 128.648H254.981V149.648Z" fill="#5F22D9"/>
<path d="M174.668 185.436C170.479 195.066 88.148 199.066 87.048 182.126C86.348 171.346 95.848 161.936 95.848 140.926C95.848 119.916 76.518 93.086 92.268 77.336C96.838 72.766 104.729 69.816 114.348 69.806C115.068 75.416 149.128 75.436 149.388 69.936C150.688 69.956 151.698 69.976 152.328 70.006C185.508 71.436 170.928 109.196 170.608 136.936C170.218 169.4 178.988 175.516 174.668 185.436Z" fill="#5F22D9"/>
<path d="M149.388 69.936C149.128 75.436 146.138 83.526 136.908 84.136C124.608 84.946 115.068 75.416 114.348 69.806H114.378C126.488 69.806 142.328 69.826 149.388 69.936Z" fill="#E98862"/>
<path d="M246.248 199.148C279.385 199.148 306.248 172.285 306.248 139.148C306.248 106.011 279.385 79.148 246.248 79.148C213.111 79.148 186.248 106.011 186.248 139.148C186.248 172.285 213.111 199.148 246.248 199.148Z" fill="#0CBC8B"/>
<g opacity="0.29">
<path d="M246.248 178.044C267.73 178.044 285.144 160.63 285.144 139.148C285.144 117.666 267.73 100.252 246.248 100.252C224.766 100.252 207.352 117.666 207.352 139.148C207.352 160.63 224.766 178.044 246.248 178.044Z" fill="white"/>
</g>
<path d="M233.517 153.041L237.146 147.415C240.021 149.615 242.537 150.743 245.212 150.743C248.419 150.743 249.829 149.412 249.829 146.838C249.829 141.017 234.895 141.122 234.895 130.912C234.895 124.35 239.441 120.169 246.61 120.169C248.646 120.139 250.664 120.554 252.524 121.382C254.384 122.211 256.041 123.435 257.38 124.969L253.219 129.736C251.162 127.865 249.419 126.881 247.056 126.881C244.335 126.881 242.856 127.981 242.856 130.52C242.856 135.915 257.79 135.444 257.79 146.258C257.79 152.758 253.49 157.458 245.21 157.458C240.923 157.361 236.798 155.802 233.517 153.041ZM243.468 114.625H248.987V122.773H243.468V114.625ZM243.468 154.058H248.987V163H243.468V154.058Z" fill="white"/>
<path d="M309.183 146.092C308.902 146.315 308.589 146.493 308.253 146.619C306.46 146.99 301.938 145.908 301.213 144.654C300.033 142.613 300.765 135.239 301.806 132.563C302.783 130.063 307.649 131.11 308.288 131.228C308.308 131.236 308.328 131.241 308.349 131.244C309.676 131.608 310.549 132.176 310.586 133.05C310.586 133.05 311.256 144.34 309.183 146.092Z" fill="#E98862"/>
<path d="M176.7 152.909C176.7 152.909 179.109 139.755 188.414 142.044C194.286 143.489 211.348 140.91 211.608 148.45C211.833 154.992 195.808 156.735 190.508 156.19C185.754 155.7 176.7 152.909 176.7 152.909Z" fill="#E98862"/>
<path d="M185.009 141.9C185.009 141.9 198.852 139.858 201.945 141.172C204.683 142.336 197.945 145.972 197.945 145.972L185.009 141.9Z" fill="#E98862"/>
<path d="M189.437 160.214L127.558 158.326C125.626 158.267 123.745 157.696 122.107 156.671C120.469 155.646 119.132 154.204 118.235 152.492L87.683 94.238L106.993 84.111L134.587 136.726L190.1 138.42L189.437 160.214Z" fill="#5F22D9"/>
<path d="M613.123 96.892V109.592C597.693 118.192 569.253 128.362 522.773 126.232C496.323 125.022 475.273 119.952 459.643 114.382C454.146 112.432 448.756 110.196 443.493 107.682V96.892H613.123Z" fill="#DEE8F5"/>
<path d="M525.925 460.844H427.91C423.208 460.844 419.397 464.655 419.397 469.357V478.313C419.397 483.015 423.208 486.826 427.91 486.826H525.925C530.627 486.826 534.438 483.015 534.438 478.313V469.357C534.438 464.655 530.627 460.844 525.925 460.844Z" fill="#0CBC8B"/>
<path d="M510.665 434.861H412.65C407.948 434.861 404.137 438.672 404.137 443.374V452.33C404.137 457.032 407.948 460.843 412.65 460.843H510.665C515.367 460.843 519.178 457.032 519.178 452.33V443.374C519.178 438.672 515.367 434.861 510.665 434.861Z" fill="#0CBC8B"/>
<path d="M525.925 408.879H427.91C423.208 408.879 419.397 412.69 419.397 417.392V426.348C419.397 431.05 423.208 434.861 427.91 434.861H525.925C530.627 434.861 534.438 431.05 534.438 426.348V417.392C534.438 412.69 530.627 408.879 525.925 408.879Z" fill="#0CBC8B"/>
<path d="M518.295 383.368H420.28C415.578 383.368 411.767 387.179 411.767 391.881V400.837C411.767 405.539 415.578 409.35 420.28 409.35H518.295C522.997 409.35 526.808 405.539 526.808 400.837V391.881C526.808 387.179 522.997 383.368 518.295 383.368Z" fill="#0CBC8B"/>
<path d="M503.035 357.386H405.02C400.318 357.386 396.507 361.197 396.507 365.899V374.855C396.507 379.557 400.318 383.368 405.02 383.368H503.035C507.737 383.368 511.548 379.557 511.548 374.855V365.899C511.548 361.197 507.737 357.386 503.035 357.386Z" fill="#0CBC8B"/>
<path d="M518.295 331.404H420.28C415.578 331.404 411.767 335.215 411.767 339.917V348.873C411.767 353.575 415.578 357.386 420.28 357.386H518.295C522.997 357.386 526.808 353.575 526.808 348.873V339.917C526.808 335.215 522.997 331.404 518.295 331.404Z" fill="#0CBC8B"/>
<path d="M533.555 305.248H435.54C430.838 305.248 427.027 309.059 427.027 313.761V322.717C427.027 327.419 430.838 331.23 435.54 331.23H533.555C538.257 331.23 542.068 327.419 542.068 322.717V313.761C542.068 309.059 538.257 305.248 533.555 305.248Z" fill="#0CBC8B"/>
<path d="M518.295 279.266H420.28C415.578 279.266 411.767 283.077 411.767 287.779V296.735C411.767 301.437 415.578 305.248 420.28 305.248H518.295C522.997 305.248 526.808 301.437 526.808 296.735V287.779C526.808 283.077 522.997 279.266 518.295 279.266Z" fill="#0CBC8B"/>
<path d="M533.555 254.11H435.54C430.838 254.11 427.027 257.921 427.027 262.623V271.579C427.027 276.281 430.838 280.092 435.54 280.092H533.555C538.257 280.092 542.068 276.281 542.068 271.579V262.623C542.068 257.921 538.257 254.11 533.555 254.11Z" fill="#0CBC8B"/>
<path d="M560.556 228.127H462.541C457.839 228.127 454.028 231.938 454.028 236.64V245.596C454.028 250.298 457.839 254.109 462.541 254.109H560.556C565.258 254.109 569.069 250.298 569.069 245.596V236.64C569.069 231.938 565.258 228.127 560.556 228.127Z" fill="#0CBC8B"/>
<path d="M606.239 484.87C639.376 484.87 666.239 458.007 666.239 424.87C666.239 391.733 639.376 364.87 606.239 364.87C573.102 364.87 546.239 391.733 546.239 424.87C546.239 458.007 573.102 484.87 606.239 484.87Z" fill="#0CBC8B"/>
<g opacity="0.29">
<path d="M606.239 463.766C627.721 463.766 645.135 446.352 645.135 424.87C645.135 403.388 627.721 385.974 606.239 385.974C584.757 385.974 567.343 403.388 567.343 424.87C567.343 446.352 584.757 463.766 606.239 463.766Z" fill="white"/>
</g>
<path d="M587.413 425.692L593.957 424.279C594.432 427.871 595.416 430.444 597.308 432.336C599.575 434.603 601.513 434.66 603.334 432.836C607.45 428.72 596.816 418.236 604.034 411.016C608.674 406.375 614.845 406.634 619.914 411.703C621.375 413.122 622.509 414.841 623.238 416.742C623.967 418.643 624.273 420.681 624.136 422.712L617.822 423.14C617.691 420.364 617.154 418.434 615.484 416.764C613.559 414.84 611.739 414.572 609.942 416.369C606.127 420.184 617.02 430.411 609.373 438.058C604.78 442.651 598.417 442.934 592.561 437.078C589.598 433.98 587.782 429.963 587.413 425.692ZM621.613 405.563L625.513 409.463L619.752 415.224L615.852 411.324L621.613 405.563ZM593.73 433.447L597.63 437.347L591.309 443.669L587.409 439.769L593.73 433.447Z" fill="white"/>
<path d="M629.774 344.234L552.481 283.961C548.774 281.07 543.424 281.732 540.533 285.439L535.026 292.502C532.135 296.209 532.797 301.559 536.504 304.45L613.797 364.723C617.504 367.614 622.854 366.952 625.745 363.244L631.252 356.182C634.143 352.474 633.482 347.125 629.774 344.234Z" fill="#0CBC8B"/>
<path d="M663.965 337.948L586.672 277.675C582.965 274.784 577.615 275.446 574.724 279.153L569.217 286.216C566.326 289.924 566.987 295.273 570.695 298.164L647.988 358.437C651.695 361.328 657.045 360.666 659.936 356.958L665.443 349.896C668.334 346.188 667.672 340.839 663.965 337.948Z" fill="#0CBC8B"/>
<path d="M627.629 89.109C627.312 89.433 626.838 89.898 626.2 90.477C615.181 97.509 584.381 113.917 533.839 116.229C531.962 116.315 524.646 116.315 522.769 116.229C472.227 113.917 441.427 97.509 430.408 90.477C429.77 89.899 429.296 89.433 428.979 89.109V111.6C428.977 112.427 429.19 113.241 429.597 113.96C430.005 114.68 430.593 115.281 431.303 115.705C447.729 125.446 476.338 136.516 521.469 136.516H535.139C580.27 136.516 608.879 125.446 625.305 115.705C626.015 115.281 626.603 114.68 627.011 113.96C627.418 113.241 627.631 112.427 627.629 111.6V89.109Z" fill="#DEE8F5"/>
<path d="M627.6 88.753C627.6 99.516 583.142 116.195 528.3 116.195C473.458 116.195 428.984 95.328 429 88.753C429.047 73.596 473.458 61.31 528.3 61.31C583.142 61.31 627.6 73.6 627.6 88.753Z" fill="#C1D8ED"/>
<path d="M568.999 85.323H487.608V92.182H568.999V85.323Z" fill="#DEE8F5"/>
</g>
<defs>
<clipPath id="clip0_1_2929">
<rect width="797.963" height="486.826" fill="white"/>
</clipPath>
</defs>
</svg>
