<svg width="1058" height="688" viewBox="0 0 1058 688" fill="none" xmlns="http://www.w3.org/2000/svg">
<g clip-path="url(#clip0_1_1868)">
<path d="M910.609 454.232L908.621 454.449L933.171 678.794L935.159 678.576L910.609 454.232Z" fill="#292A2E"/>
<path d="M974.195 552.169L962.118 671.65L964.108 671.851L976.185 552.37L974.195 552.169Z" fill="#292A2E"/>
<path d="M994.962 657.208H905.346V686.291H994.962V657.208Z" fill="#292A2E"/>
<path opacity="0.2" d="M994.962 657.208H905.346V686.291H994.962V657.208Z" fill="white"/>
<path d="M1048.99 603.658C1065.96 581.095 1057.87 546.36 1030.91 526.075C1003.95 505.79 968.331 507.637 951.354 530.2C934.378 552.762 942.471 587.497 969.432 607.782C996.392 628.067 1032.01 626.221 1048.99 603.658Z" fill="#0CBC8B"/>
<path opacity="0.2" d="M1048.99 603.658C1065.96 581.095 1057.87 546.36 1030.91 526.075C1003.95 505.79 968.331 507.637 951.354 530.2C934.378 552.762 942.471 587.497 969.432 607.782C996.392 628.067 1032.01 626.221 1048.99 603.658Z" fill="white"/>
<path opacity="0.5" d="M1048.98 603.662C1047.84 605.184 1046.6 606.625 1045.26 607.975C1026.57 619.915 998.989 618.035 977.107 601.567C950.149 581.287 942.059 546.552 959.037 523.989C960.179 522.471 961.419 521.03 962.751 519.675C981.451 507.727 1009.02 509.616 1030.91 526.075C1057.87 546.364 1065.96 581.1 1048.98 603.662Z" fill="white"/>
<path d="M923.924 518.059C950.632 497.443 957.891 462.086 940.138 439.086C922.385 416.087 886.342 414.156 859.634 434.772C832.926 455.388 825.667 490.745 843.421 513.744C861.174 536.743 897.217 538.675 923.924 518.059Z" fill="#0CBC8B"/>
<path opacity="0.2" d="M915.46 512.14C894.777 528.115 868.491 530.55 849.436 520.15C847.231 518.208 845.217 516.059 843.422 513.733C825.665 490.74 832.922 455.379 859.63 434.768C880.313 418.801 906.599 416.358 925.645 426.748C927.855 428.692 929.872 430.844 931.668 433.175C949.424 456.167 942.166 491.528 915.46 512.14Z" fill="white"/>
<path d="M741.237 327.627L1048.42 328.081V214.372H741.237V327.627Z" fill="#EFEFEF"/>
<path d="M1021.97 245.91H767.685C767.559 245.914 767.434 245.893 767.316 245.848C767.199 245.802 767.092 245.734 767.001 245.646C766.911 245.559 766.839 245.454 766.79 245.338C766.741 245.222 766.715 245.097 766.715 244.971C766.715 244.846 766.741 244.721 766.79 244.605C766.839 244.489 766.911 244.384 767.001 244.297C767.092 244.209 767.199 244.141 767.316 244.095C767.434 244.05 767.559 244.029 767.685 244.033H1021.97C1022.09 244.029 1022.22 244.05 1022.34 244.095C1022.45 244.141 1022.56 244.209 1022.65 244.297C1022.74 244.384 1022.81 244.489 1022.86 244.605C1022.91 244.721 1022.94 244.846 1022.94 244.971C1022.94 245.097 1022.91 245.222 1022.86 245.338C1022.81 245.454 1022.74 245.559 1022.65 245.646C1022.56 245.734 1022.45 245.802 1022.34 245.848C1022.22 245.893 1022.09 245.914 1021.97 245.91Z" fill="white"/>
<path d="M1021.97 274.073H767.685C767.559 274.077 767.434 274.056 767.316 274.011C767.199 273.965 767.092 273.897 767.001 273.809C766.911 273.722 766.839 273.617 766.79 273.501C766.741 273.385 766.715 273.26 766.715 273.135C766.715 273.009 766.741 272.884 766.79 272.768C766.839 272.652 766.911 272.547 767.001 272.46C767.092 272.372 767.199 272.304 767.316 272.258C767.434 272.213 767.559 272.192 767.685 272.196H1021.97C1022.09 272.192 1022.22 272.213 1022.34 272.258C1022.45 272.304 1022.56 272.372 1022.65 272.46C1022.74 272.547 1022.81 272.652 1022.86 272.768C1022.91 272.884 1022.94 273.009 1022.94 273.135C1022.94 273.26 1022.91 273.385 1022.86 273.501C1022.81 273.617 1022.74 273.722 1022.65 273.809C1022.56 273.897 1022.45 273.965 1022.34 274.011C1022.22 274.056 1022.09 274.077 1021.97 274.073Z" fill="white"/>
<path d="M1021.97 302.236H870.948C870.699 302.236 870.46 302.137 870.284 301.961C870.108 301.785 870.009 301.546 870.009 301.297C870.009 301.048 870.108 300.809 870.284 300.633C870.46 300.457 870.699 300.358 870.948 300.358H1021.97C1022.22 300.358 1022.45 300.457 1022.63 300.633C1022.81 300.809 1022.91 301.048 1022.91 301.297C1022.91 301.546 1022.81 301.785 1022.63 301.961C1022.45 302.137 1022.22 302.236 1021.97 302.236Z" fill="white"/>
<path d="M374.729 148.442L2.996 148.533L3.024 0H374.729V148.442Z" fill="#EFEFEF"/>
<path d="M346.967 32.866H30.786C30.5879 32.866 30.3979 32.7873 30.2578 32.6472C30.1177 32.5071 30.039 32.3171 30.039 32.119C30.039 31.9209 30.1177 31.7309 30.2578 31.5908C30.3979 31.4507 30.5879 31.372 30.786 31.372H346.967C347.165 31.372 347.355 31.4507 347.495 31.5908C347.635 31.7309 347.714 31.9209 347.714 32.119C347.714 32.3171 347.635 32.5071 347.495 32.6472C347.355 32.7873 347.165 32.866 346.967 32.866Z" fill="white"/>
<path d="M346.967 62.428H30.786C30.5879 62.428 30.3979 62.3493 30.2578 62.2092C30.1177 62.0691 30.039 61.8791 30.039 61.681C30.039 61.4829 30.1177 61.2929 30.2578 61.1528C30.3979 61.0127 30.5879 60.934 30.786 60.934H346.967C347.165 60.934 347.355 61.0127 347.495 61.1528C347.635 61.2929 347.714 61.4829 347.714 61.681C347.714 61.8791 347.635 62.0691 347.495 62.2092C347.355 62.3493 347.165 62.428 346.967 62.428Z" fill="white"/>
<path d="M346.967 91.989H30.786C30.5879 91.989 30.3979 91.9103 30.2578 91.7702C30.1177 91.6301 30.039 91.4401 30.039 91.242C30.039 91.0439 30.1177 90.8539 30.2578 90.7138C30.3979 90.5737 30.5879 90.495 30.786 90.495H346.967C347.165 90.495 347.355 90.5737 347.495 90.7138C347.635 90.8539 347.714 91.0439 347.714 91.242C347.714 91.4401 347.635 91.6301 347.495 91.7702C347.355 91.9103 347.165 91.989 346.967 91.989Z" fill="white"/>
<path d="M189.305 121.551H30.786C30.5879 121.551 30.3979 121.472 30.2578 121.332C30.1177 121.192 30.039 121.002 30.039 120.804C30.039 120.606 30.1177 120.416 30.2578 120.276C30.3979 120.136 30.5879 120.057 30.786 120.057H189.305C189.503 120.057 189.693 120.136 189.833 120.276C189.973 120.416 190.052 120.606 190.052 120.804C190.052 121.002 189.973 121.192 189.833 121.332C189.693 121.472 189.503 121.551 189.305 121.551Z" fill="white"/>
<path d="M879.502 69.801H204.814C188.245 69.801 174.814 83.2325 174.814 99.801V593.776C174.814 610.345 188.245 623.776 204.814 623.776H879.502C896.071 623.776 909.502 610.345 909.502 593.776V99.801C909.502 83.2325 896.071 69.801 879.502 69.801Z" fill="white"/>
<path d="M879.5 624.775H204.814C196.595 624.766 188.716 621.497 182.904 615.685C177.092 609.873 173.823 601.994 173.814 593.775V99.8C173.824 91.5812 177.093 83.7018 182.904 77.8902C188.716 72.0786 196.595 68.8095 204.814 68.8H879.5C887.719 68.8093 895.598 72.0783 901.41 77.8899C907.222 83.7015 910.491 91.5811 910.5 99.8V593.775C910.491 601.994 907.222 609.874 901.41 615.685C895.599 621.497 887.719 624.766 879.5 624.775ZM204.814 70.8C197.125 70.8085 189.754 73.8665 184.317 79.3033C178.881 84.74 175.822 92.1113 175.814 99.8V593.775C175.822 601.464 178.881 608.835 184.317 614.272C189.754 619.708 197.125 622.767 204.814 622.775H879.5C887.189 622.767 894.56 619.708 899.997 614.272C905.433 608.835 908.492 601.464 908.5 593.775V99.8C908.492 92.1113 905.433 84.74 899.997 79.3033C894.56 73.8665 887.189 70.8085 879.5 70.8H204.814Z" fill="#292A2E"/>
<path d="M909.5 99.8V129.988H174.817V99.8C174.817 91.8435 177.978 84.2129 183.604 78.5868C189.23 72.9607 196.861 69.8 204.817 69.8H879.5C887.456 69.8 895.087 72.9607 900.713 78.5868C906.339 84.2129 909.5 91.8435 909.5 99.8Z" fill="#292A2E"/>
<path opacity="0.2" d="M491.414 373.882H382.759C369.05 373.882 357.936 384.996 357.936 398.705C357.936 412.414 369.05 423.528 382.759 423.528H491.414C505.123 423.528 516.237 412.414 516.237 398.705C516.237 384.996 505.123 373.882 491.414 373.882Z" fill="#5F22D9"/>
<path opacity="0.2" d="M700.109 373.882H591.454C577.745 373.882 566.631 384.996 566.631 398.705C566.631 412.414 577.745 423.528 591.454 423.528H700.109C713.818 423.528 724.932 412.414 724.932 398.705C724.932 384.996 713.818 373.882 700.109 373.882Z" fill="#5F22D9"/>
<path opacity="0.1" d="M836.934 262.966C836.935 269.226 835.703 275.424 833.308 281.207C830.914 286.991 827.403 292.246 822.978 296.673C818.552 301.099 813.298 304.611 807.515 307.007C801.732 309.402 795.534 310.636 789.274 310.636H313.914C307.655 310.636 301.456 309.403 295.673 307.008C289.89 304.612 284.636 301.101 280.21 296.675C275.784 292.249 272.273 286.995 269.877 281.212C267.482 275.429 266.249 269.23 266.249 262.971C266.249 256.712 267.482 250.513 269.877 244.73C272.273 238.947 275.784 233.693 280.21 229.267C284.636 224.841 289.89 221.33 295.673 218.934C301.456 216.539 307.655 215.306 313.914 215.306H789.274C801.914 215.307 814.036 220.328 822.974 229.266C831.912 238.204 836.934 250.326 836.934 262.966Z" fill="#5F22D9"/>
<path d="M836.934 262.966C836.935 269.226 835.703 275.424 833.308 281.207C830.914 286.991 827.403 292.246 822.978 296.673C818.552 301.099 813.298 304.611 807.515 307.007C801.732 309.402 795.533 310.636 789.274 310.636H715.434V215.306H789.274C801.914 215.307 814.036 220.328 822.974 229.266C831.912 238.204 836.933 250.326 836.934 262.966Z" fill="#5F22D9"/>
<path d="M332.67 277.94L327.831 262.461C327.526 261.514 326.957 259.363 326.122 256.009H325.929C325.287 258.818 324.725 260.984 324.244 262.509L319.261 277.94H314.639L307.439 251.556H311.627C313.328 258.184 314.624 263.231 315.515 266.698C316.16 269 316.671 271.337 317.044 273.698H317.236C317.413 272.783 317.698 271.6 318.091 270.147C318.484 268.694 318.825 267.543 319.114 266.693L323.953 251.551H328.286L333.005 266.693C333.777 268.966 334.388 271.291 334.834 273.65H335.027C335.152 272.751 335.325 271.859 335.545 270.978C335.825 269.774 337.498 263.298 340.564 251.551H344.705L337.405 277.935L332.67 277.94Z" fill="#0A0A0A"/>
<path d="M372.991 277.94L368.152 262.461C367.847 261.514 367.277 259.363 366.443 256.009H366.251C365.608 258.818 365.047 260.984 364.566 262.509L359.582 277.94H354.96L347.76 251.556H351.949C353.65 258.184 354.946 263.231 355.837 266.698C356.482 269 356.993 271.337 357.365 273.698H357.558C357.735 272.783 358.02 271.6 358.413 270.147C358.806 268.694 359.147 267.543 359.436 266.693L364.275 251.551H368.608L373.326 266.693C374.099 268.966 374.71 271.291 375.156 273.65H375.349C375.473 272.751 375.646 271.859 375.866 270.978C376.147 269.774 377.82 263.298 380.885 251.551H385.026L377.732 277.935L372.991 277.94Z" fill="#0A0A0A"/>
<path d="M413.313 277.94L408.474 262.461C408.169 261.514 407.599 259.363 406.765 256.009H406.572C405.93 258.818 405.368 260.984 404.887 262.509L399.9 277.94H395.277L388.077 251.556H392.266C393.967 258.184 395.263 263.231 396.154 266.698C396.799 269 397.31 271.337 397.683 273.698H397.875C398.052 272.783 398.337 271.6 398.73 270.147C399.123 268.694 399.464 267.543 399.753 266.693L404.592 251.551H408.925L413.65 266.7C414.422 268.973 415.033 271.298 415.479 273.657H415.672C415.796 272.758 415.969 271.866 416.19 270.985C416.47 269.781 418.143 263.305 421.209 251.558H425.35L418.05 277.942L413.313 277.94Z" fill="#0A0A0A"/>
<path d="M764.693 276.226C759.091 276.231 753.672 274.225 749.423 270.574C745.174 266.923 742.376 261.868 741.537 256.329C740.698 250.79 741.875 245.133 744.853 240.388C747.831 235.643 752.412 232.123 757.765 230.469C763.118 228.815 768.886 229.136 774.022 231.375C779.158 233.613 783.32 237.62 785.753 242.666C788.185 247.713 788.726 253.465 787.277 258.877C785.829 264.289 782.486 269.001 777.858 272.158C773.977 274.804 769.39 276.222 764.693 276.226ZM764.62 234.4C759.874 234.403 755.311 236.233 751.878 239.511C748.446 242.79 746.408 247.264 746.187 252.005C745.967 256.746 747.581 261.39 750.694 264.973C753.807 268.556 758.18 270.802 762.906 271.245C767.632 271.689 772.346 270.295 776.072 267.354C779.797 264.412 782.246 260.149 782.911 255.45C783.576 250.75 782.406 245.975 779.643 242.116C776.88 238.256 772.737 235.609 768.074 234.724C766.935 234.509 765.779 234.4 764.62 234.4Z" fill="white"/>
<path d="M799.194 296.535C798.828 296.536 798.467 296.456 798.136 296.301C797.805 296.147 797.511 295.921 797.277 295.641L776.428 270.764C776.002 270.256 775.795 269.599 775.854 268.939C775.912 268.278 776.23 267.668 776.738 267.242C777.246 266.816 777.903 266.609 778.563 266.668C779.224 266.726 779.834 267.044 780.26 267.552L801.109 292.429C801.415 292.794 801.61 293.238 801.672 293.709C801.734 294.181 801.66 294.661 801.459 295.092C801.258 295.523 800.938 295.888 800.537 296.143C800.135 296.399 799.67 296.535 799.194 296.535Z" fill="white"/>
<path d="M37.495 633.4C31.4531 633.399 25.5007 631.939 20.1447 629.143C14.7887 626.347 10.1876 622.298 6.733 617.341C3.27845 612.384 1.07276 606.666 0.303711 600.673C-0.465342 594.68 0.22501 588.591 2.316 582.922C4.437 577.167 54.389 441.7 63.86 417.289L133.782 444.416C128.457 458.141 109.163 510.161 93.663 552.067L119.414 549.267L127.519 623.827L41.553 633.173C40.2054 633.322 38.8508 633.397 37.495 633.4Z" fill="#5F22D9"/>
<path d="M82.435 629.565L71 686.482H293.099L280.306 628.482L82.435 629.565Z" fill="#262626"/>
<path d="M130.456 375.2C111.9 376.576 92.979 382.606 79.046 394.939C58.031 413.539 59.901 425.169 70.392 476.683C79.418 521.008 75.838 540.377 81.876 622.169C82.054 624.579 82.435 629.563 82.435 629.563L280.935 629.233C280.935 629.233 299.535 520.716 309.804 470.665C317.613 432.614 338.125 386.422 251.64 377.112C251.412 377.089 182.049 371.374 130.456 375.2Z" fill="#5F22D9"/>
<path d="M537.007 334.169C527.657 334.166 518.544 331.223 510.958 325.757C503.371 320.29 497.696 312.577 494.734 303.708C491.772 294.839 491.674 285.263 494.453 276.335C497.232 267.407 502.748 259.579 510.22 253.958C517.693 248.337 526.743 245.208 536.092 245.013C545.44 244.818 554.613 247.567 562.313 252.871C570.014 258.176 575.851 265.767 579 274.571C582.149 283.376 582.45 292.947 579.861 301.932C577.17 311.22 571.538 319.384 563.81 325.198C556.083 331.011 546.677 334.159 537.007 334.169ZM536.976 254.99C528.199 254.985 519.747 258.307 513.323 264.287C506.899 270.267 502.981 278.46 502.359 287.215C501.737 295.969 504.457 304.634 509.971 311.463C515.485 318.291 523.383 322.775 532.072 324.011C540.761 325.246 549.596 323.142 556.794 318.121C563.993 313.101 569.021 305.538 570.864 296.957C572.708 288.376 571.229 279.415 566.727 271.881C562.224 264.347 555.033 258.801 546.603 256.359C543.474 255.454 540.233 254.993 536.976 254.99Z" fill="#0A0A0A"/>
<path d="M499.359 389.114C498.542 389.114 497.738 388.914 497.017 388.531C496.296 388.148 495.679 387.595 495.221 386.919C494.763 386.243 494.478 385.465 494.39 384.653C494.301 383.841 494.414 383.02 494.716 382.262L517.458 325.205C517.963 323.993 518.924 323.029 520.133 322.52C521.343 322.01 522.704 321.997 523.924 322.483C525.143 322.968 526.123 323.914 526.651 325.116C527.179 326.317 527.214 327.678 526.747 328.905L504.005 385.963C503.635 386.893 502.994 387.69 502.166 388.252C501.338 388.814 500.36 389.114 499.359 389.114Z" fill="#0A0A0A"/>
<path d="M481.948 382.855L495.894 351.572C496.201 350.885 496.647 350.269 497.204 349.763C497.762 349.258 498.419 348.874 499.133 348.636C499.847 348.399 500.603 348.312 501.352 348.383C502.101 348.454 502.828 348.679 503.485 349.046C504.678 349.761 505.564 350.893 505.969 352.223C506.374 353.554 506.271 354.987 505.679 356.246L502.689 362.954L521.775 346.176C523.864 344.276 527.645 343.276 529.625 345.76C530.449 346.666 530.942 347.825 531.023 349.047C531.104 350.27 530.768 351.483 530.07 352.49C530.093 352.505 530.114 352.522 530.133 352.542C530.145 352.559 530.156 352.578 530.165 352.597L533.387 349.663C533.984 349.12 534.695 348.717 535.467 348.484C536.24 348.25 537.055 348.192 537.852 348.313C538.65 348.434 539.411 348.732 540.079 349.185C540.748 349.637 541.306 350.233 541.715 350.929C542.337 352.038 542.559 353.327 542.344 354.58C542.129 355.833 541.491 356.974 540.535 357.813L539.164 359.062C539.181 359.118 539.189 359.176 539.186 359.235C540.308 358.607 541.617 358.398 542.879 358.646C544.141 358.895 545.273 359.584 546.074 360.59C546.917 361.717 547.305 363.121 547.159 364.521C547.013 365.921 546.345 367.215 545.287 368.144L541.882 371.244C541.961 371.234 542.041 371.243 542.116 371.27C542.191 371.298 542.258 371.342 542.312 371.401C542.372 371.474 542.411 371.562 542.423 371.656C543.578 371.374 544.793 371.479 545.882 371.955C546.971 372.431 547.873 373.251 548.451 374.29C549.036 375.394 549.23 376.663 549.004 377.891C548.777 379.12 548.142 380.235 547.202 381.058L518.467 407.219C514.447 410.879 509.426 413.255 504.046 414.042C498.667 414.83 493.175 413.993 488.275 411.639C484.05 409.609 480.782 406.012 479.167 401.611C477.551 397.211 477.715 392.354 479.624 388.072L481.948 382.855Z" fill="#E98862"/>
<g opacity="0.2">
<path d="M511.26 369.187C511.349 369.284 511.472 369.341 511.603 369.348C511.734 369.355 511.862 369.31 511.96 369.223L530.091 353.244C530.14 353.201 530.18 353.148 530.209 353.089C530.238 353.03 530.255 352.966 530.259 352.9C530.263 352.835 530.254 352.769 530.233 352.707C530.212 352.645 530.178 352.587 530.135 352.538C530.092 352.489 530.039 352.449 529.98 352.42C529.921 352.391 529.857 352.374 529.791 352.37C529.726 352.366 529.66 352.375 529.598 352.396C529.536 352.417 529.478 352.451 529.429 352.494L511.3 368.473C511.251 368.516 511.211 368.569 511.182 368.628C511.153 368.687 511.136 368.751 511.132 368.817C511.128 368.882 511.136 368.948 511.158 369.01C511.179 369.072 511.213 369.13 511.256 369.179L511.26 369.187Z" fill="#0C0C0C"/>
</g>
<g opacity="0.2">
<path d="M518.087 377.378C518.176 377.475 518.299 377.532 518.43 377.539C518.561 377.546 518.689 377.501 518.787 377.414L539.021 359.581C539.07 359.538 539.11 359.485 539.139 359.426C539.168 359.367 539.185 359.303 539.189 359.237C539.193 359.172 539.185 359.106 539.163 359.044C539.142 358.982 539.108 358.924 539.065 358.875C538.975 358.78 538.852 358.722 538.721 358.714C538.59 358.706 538.46 358.747 538.359 358.831L518.125 376.663C518.076 376.706 518.036 376.759 518.007 376.818C517.978 376.877 517.961 376.941 517.957 377.007C517.953 377.072 517.962 377.138 517.983 377.2C518.004 377.262 518.037 377.32 518.081 377.369L518.087 377.378Z" fill="#0C0C0C"/>
</g>
<g opacity="0.2">
<path d="M525.43 386.291C525.519 386.388 525.642 386.445 525.773 386.452C525.904 386.459 526.032 386.414 526.13 386.327L542.27 372.103C542.319 372.06 542.359 372.007 542.388 371.948C542.417 371.889 542.434 371.825 542.438 371.759C542.442 371.694 542.433 371.628 542.412 371.566C542.391 371.504 542.357 371.446 542.314 371.397C542.271 371.348 542.218 371.308 542.159 371.279C542.1 371.25 542.036 371.233 541.97 371.229C541.905 371.225 541.839 371.234 541.777 371.255C541.715 371.276 541.657 371.31 541.608 371.353L525.468 385.577C525.419 385.62 525.378 385.673 525.35 385.732C525.321 385.791 525.304 385.855 525.3 385.921C525.296 385.986 525.304 386.052 525.326 386.114C525.347 386.176 525.381 386.234 525.424 386.283L525.43 386.291Z" fill="#0C0C0C"/>
</g>
<path d="M473.231 372.7L388.674 467.921L303.232 394L254.161 450.719L367.591 548.855L368.356 549.516C368.623 549.743 368.891 549.966 369.161 550.187C376.721 556.304 386.402 559.167 396.073 558.147C405.744 557.127 414.614 552.306 420.731 544.746L524.658 416.3L473.231 372.7Z" fill="#5F22D9"/>
<path d="M251.64 377.117C251.41 377.087 245.11 400.797 195.94 397.107C161.9 394.557 153.6 371.387 152.82 371.387C156.49 370.607 162.45 369.797 164.08 368.927C169.44 366.047 173.344 362.541 175.31 355.017C176.847 349.133 177.63 326.482 177.63 315.117L230.01 326.887C229.28 339.707 224.17 369.427 242.08 374.687C245.06 375.557 248.27 376.357 251.64 377.117Z" fill="#E98862"/>
<path d="M228.2 352.092C207.551 353.721 181.025 345.002 175.986 317.452L171.44 292.594C166.401 265.044 176.787 240.064 202.727 235.32C228.666 230.576 252.14 249.364 257.178 276.914L259.191 287.914C261.121 298.49 265.04 349.185 228.2 352.092Z" fill="#E98862"/>
<path d="M247.344 326.8C243.638 308.176 241.938 295.751 242.135 282.642C247.356 273.484 245.983 262.974 244.796 258.432C249.913 261.224 252.053 261.532 256.869 261.532C256.869 261.532 248.235 226.881 218.889 217.557C213.489 215.457 199.715 212.804 181.421 215.313C165.861 217.447 127.505 229.082 122.021 272.263V272.288C121.839 273.72 118.157 313.506 110.815 332.595C100.944 358.256 87.088 366.229 87.439 395.836C87.891 433.92 157.905 438.99 200.139 436.141C242.373 433.292 265.939 419.406 266.247 391.96C266.587 361.2 254.76 364.058 247.344 326.8Z" fill="#0A0A0A"/>
<path d="M247.356 311.186C239.473 312.627 231.54 305.363 230.099 297.48C228.658 289.597 234.252 284.08 242.135 282.639L247.356 311.186Z" fill="#E98862"/>
<path d="M305.061 495.253C305.03 495.253 304.999 495.25 304.968 495.244C304.903 495.232 304.842 495.207 304.787 495.171C304.732 495.136 304.684 495.089 304.647 495.035C304.61 494.981 304.584 494.92 304.57 494.855C304.557 494.791 304.556 494.725 304.568 494.66L309.6 468C309.61 467.933 309.633 467.87 309.668 467.812C309.704 467.755 309.75 467.705 309.805 467.666C309.86 467.627 309.922 467.6 309.987 467.585C310.053 467.571 310.121 467.57 310.187 467.582C310.253 467.595 310.316 467.621 310.372 467.658C310.428 467.695 310.476 467.743 310.513 467.8C310.55 467.856 310.575 467.919 310.587 467.985C310.599 468.051 310.597 468.119 310.582 468.185L305.551 494.847C305.529 494.961 305.468 495.064 305.379 495.138C305.29 495.212 305.177 495.253 305.061 495.253Z" fill="#0C0C0C"/>
<path d="M82.435 630.065C82.3058 630.065 82.1816 630.015 82.0883 629.926C81.9951 629.836 81.9402 629.714 81.935 629.585L75.715 468.11C75.7123 468.044 75.7226 467.979 75.7453 467.917C75.768 467.855 75.8026 467.799 75.8472 467.75C75.8918 467.702 75.9454 467.663 76.0051 467.636C76.0648 467.608 76.1293 467.593 76.195 467.59C76.3259 467.591 76.4517 467.641 76.5477 467.73C76.6437 467.819 76.703 467.941 76.714 468.071L82.935 629.546C82.9375 629.612 82.9271 629.677 82.9043 629.739C82.8815 629.8 82.8468 629.857 82.8021 629.905C82.7574 629.953 82.7037 629.992 82.644 630.02C82.5842 630.047 82.5197 630.063 82.454 630.065H82.435Z" fill="#0C0C0C"/>
<path d="M383 476.123C382.907 476.123 382.816 476.097 382.737 476.048C382.658 476 382.594 475.93 382.553 475.847C382.511 475.764 382.494 475.671 382.502 475.578C382.51 475.486 382.544 475.397 382.6 475.323L388.277 467.623C388.357 467.519 388.474 467.45 388.604 467.432C388.733 467.413 388.865 467.446 388.971 467.524C389.076 467.602 389.147 467.718 389.168 467.847C389.189 467.977 389.158 468.109 389.082 468.216L383.4 475.92C383.354 475.983 383.293 476.034 383.224 476.069C383.155 476.104 383.078 476.123 383 476.123Z" fill="#0C0C0C"/>
<path d="M22.765 687.482H1022.41C1022.67 687.482 1022.93 687.377 1023.11 687.189C1023.3 687.002 1023.41 686.747 1023.41 686.482C1023.41 686.217 1023.3 685.962 1023.11 685.775C1022.93 685.587 1022.67 685.482 1022.41 685.482H22.765C22.4998 685.482 22.2454 685.587 22.0579 685.775C21.8704 685.962 21.765 686.217 21.765 686.482C21.765 686.747 21.8704 687.002 22.0579 687.189C22.2454 687.377 22.4998 687.482 22.765 687.482Z" fill="#292A2E"/>
</g>
<defs>
<clipPath id="clip0_1_1868">
<rect width="1057.87" height="687.482" fill="white"/>
</clipPath>
</defs>
</svg>
