<svg width="701" height="621" viewBox="0 0 701 621" fill="none" xmlns="http://www.w3.org/2000/svg">
<g clip-path="url(#clip0_1_1363)">
<path d="M409.549 225.171C409.549 225.171 408.505 169.336 458.984 169.336C512.201 169.336 502.346 131.552 553.684 134.636C588.384 136.723 597.384 173.371 617.337 178.786C637.29 184.201 656.076 190.772 656.076 224.114L409.549 225.171Z" fill="white"/>
<path d="M518.63 503.891C518.63 503.891 517.86 462.7 555.1 462.7C594.363 462.7 587.092 434.824 624.965 437.1C650.565 438.64 657.202 465.678 671.926 469.673C686.65 473.668 700.507 478.516 700.507 503.116L518.63 503.891Z" fill="white"/>
<path d="M0 315.109C0 315.109 -0.925998 265.5 43.922 265.5C91.203 265.5 82.447 231.931 128.055 234.675C158.88 236.529 166.876 269.089 184.607 273.9C202.338 278.711 219.025 284.549 219.025 314.172L0 315.109Z" fill="white"/>
<path opacity="0.1" d="M409.549 225.171C409.549 225.171 408.505 169.336 458.984 169.336C512.201 169.336 502.346 131.552 553.684 134.636C588.384 136.723 597.384 173.371 617.337 178.786C637.29 184.201 656.076 190.772 656.076 224.114L409.549 225.171Z" fill="#5F22D9"/>
<path opacity="0.1" d="M518.63 503.891C518.63 503.891 517.86 462.7 555.1 462.7C594.363 462.7 587.092 434.824 624.965 437.1C650.565 438.64 657.202 465.678 671.926 469.673C686.65 473.668 700.507 478.516 700.507 503.116L518.63 503.891Z" fill="#5F22D9"/>
<path opacity="0.1" d="M0 315.109C0 315.109 -0.925998 265.5 43.922 265.5C91.203 265.5 82.447 231.931 128.055 234.675C158.88 236.529 166.876 269.089 184.607 273.9C202.338 278.711 219.025 284.549 219.025 314.172L0 315.109Z" fill="#5F22D9"/>
<path d="M524.5 104.813C524.111 104.188 523.853 103.49 523.743 102.763C523.632 102.035 523.671 101.292 523.857 100.58C524.043 99.8676 524.372 99.2006 524.824 98.6197C525.276 98.0388 525.842 97.5561 526.487 97.201C527.759 96.5571 529.229 96.4203 530.598 96.8183C531.967 97.2163 533.134 98.1194 533.863 99.345L537.731 105.558L535.86 83.722C535.46 80.922 536.746 77.235 539.913 76.987C542.459 76.618 544.534 73.196 547.582 74.701C547.61 74.693 571.52 93.531 571.896 96.125L573.369 130.69C574.969 141.696 537.569 139.49 537.569 139.49L524.5 104.813Z" fill="#E98862"/>
<g opacity="0.1">
<path d="M524.5 104.813C524.111 104.188 523.853 103.49 523.743 102.763C523.632 102.035 523.671 101.292 523.857 100.58C524.043 99.8676 524.372 99.2006 524.824 98.6197C525.276 98.0388 525.842 97.5561 526.487 97.201C527.759 96.5571 529.229 96.4203 530.598 96.8183C531.967 97.2163 533.134 98.1194 533.863 99.345L537.731 105.558L535.86 83.722C535.46 80.922 536.746 77.235 539.913 76.987C542.459 76.618 544.534 73.196 547.582 74.701C547.61 74.693 571.52 93.531 571.896 96.125L573.369 130.69C574.969 141.696 537.569 139.49 537.569 139.49L524.5 104.813Z" fill="#0C0C0C"/>
</g>
<path d="M268.9 274.369C268.9 274.369 266.753 306.585 259.505 318.269C238.64 351.917 232.595 389.769 253.49 409.546C274.385 429.323 407.66 429.6 417.757 384.114C426.257 345.82 408.015 341.702 403.577 310.114C401.569 295.82 396.044 265.848 396.044 265.848" fill="#0A0A0A"/>
<path d="M383.26 377.445C383.029 377.415 380.477 419.775 331.266 416.082C297.198 413.53 285.051 377.382 284.266 377.382C287.94 376.601 294.125 375.466 295.756 374.596C301.121 371.713 307.756 368.714 309.487 358.296C310.487 352.296 308.793 321.574 309.314 315.496L361.608 327.168C360.877 339.998 355.763 369.743 373.688 375.007C376.674 375.884 379.887 376.684 383.26 377.445Z" fill="#E98862"/>
<path opacity="0.5" d="M362.345 362.857C361.526 360.217 360.998 357.496 360.772 354.741C360.197 348.455 360.312 342.124 361.114 335.863C350.486 334.428 340.474 330.041 332.214 323.201C331.243 326.787 325.903 342.457 327.382 345.865C330.174 352.307 343.307 362.857 362.345 362.857Z" fill="#0C0C0C"/>
<path d="M355.583 349.659C334.965 351.659 308.289 343.407 302.763 315.951L297.777 291.177C292.25 263.721 302.191 238.561 328.043 233.357C353.895 228.157 377.697 246.523 383.223 273.979L385.431 284.947C387.551 295.482 392.368 346.1 355.583 349.659Z" fill="#E98862"/>
<path d="M370.248 316.824C363.549 320.23 355.906 321.307 348.527 319.885C348.271 319.836 348.007 319.862 347.766 319.958C347.524 320.054 347.315 320.217 347.162 320.428C347.01 320.639 346.921 320.889 346.906 321.148C346.891 321.408 346.95 321.667 347.076 321.894C349.276 325.771 354.494 332.394 363.445 329.694C369.226 327.95 371.411 322.003 372.221 318.325C372.276 318.071 372.258 317.806 372.167 317.562C372.077 317.317 371.919 317.104 371.712 316.946C371.505 316.789 371.257 316.694 370.998 316.672C370.739 316.65 370.478 316.703 370.248 316.824Z" fill="white"/>
<path d="M370.667 287.031C372.455 287.031 373.904 285.582 373.904 283.794C373.904 282.006 372.455 280.557 370.667 280.557C368.879 280.557 367.43 282.006 367.43 283.794C367.43 285.582 368.879 287.031 370.667 287.031Z" fill="#0C0C0C"/>
<path d="M339.562 292.477C341.35 292.477 342.799 291.028 342.799 289.24C342.799 287.452 341.35 286.003 339.562 286.003C337.774 286.003 336.325 287.452 336.325 289.24C336.325 291.028 337.774 292.477 339.562 292.477Z" fill="#0C0C0C"/>
<path opacity="0.1" d="M342.477 313.682C345.87 313.277 348.38 310.931 348.083 308.443C347.786 305.954 344.795 304.265 341.402 304.67C338.009 305.074 335.499 307.42 335.796 309.909C336.093 312.397 339.084 314.087 342.477 313.682Z" fill="#0C0C0C"/>
<path opacity="0.1" d="M378.329 303.731C378.629 306.216 381.623 307.903 385.017 307.503C385.603 307.433 386.181 307.302 386.74 307.112C386.898 304.149 386.907 301.298 386.82 298.659C385.878 298.424 384.9 298.366 383.937 298.49C380.543 298.891 378.035 301.235 378.329 303.731Z" fill="#0C0C0C"/>
<path opacity="0.5" d="M363.336 311.412L363.387 311.404C364.435 311.186 365.47 310.91 366.487 310.577C368.005 310.069 369.987 309.235 369.715 307.862C369.401 306.297 361.715 290.281 360.842 288.462C360.765 288.303 360.629 288.181 360.462 288.122C360.296 288.064 360.113 288.074 359.953 288.151C359.794 288.227 359.672 288.364 359.614 288.53C359.555 288.697 359.565 288.88 359.642 289.039C362.919 295.86 368.197 307.074 368.409 308.128C368.243 308.619 365.725 309.578 363.126 310.102C362.954 310.132 362.801 310.229 362.7 310.371C362.598 310.514 362.557 310.69 362.585 310.862C362.613 311.035 362.707 311.189 362.848 311.293C362.988 311.396 363.164 311.44 363.337 311.415L363.336 311.412Z" fill="#0C0C0C"/>
<path d="M277.15 300.07L300.326 295.543C317.833 288.222 322.799 257.711 322.799 257.711C322.799 257.711 344.406 278.287 396.044 265.845C396.044 265.845 384.827 193.759 308.579 215.64C283.993 222.695 266.579 247.755 269.169 280.947C270.984 304.208 277.15 300.07 277.15 300.07Z" fill="#0A0A0A"/>
<path d="M306.052 323.993C298.196 325.574 290.135 318.451 288.552 310.593C286.969 302.735 292.468 297.122 300.324 295.541L305.432 299.99L312.804 322.631L306.052 323.993Z" fill="#E98862"/>
<path d="M366.411 275.688C368.377 274.298 370.676 273.453 373.074 273.241C374.277 273.126 375.491 273.194 376.674 273.441C377.869 273.685 379.028 274.078 380.125 274.61L380.16 274.626C380.282 274.68 380.419 274.684 380.544 274.637C380.668 274.591 380.77 274.497 380.826 274.377C380.883 274.257 380.89 274.119 380.846 273.993C380.803 273.868 380.712 273.764 380.593 273.705C379.431 273.091 378.196 272.626 376.917 272.321C375.63 272.008 374.302 271.89 372.98 271.972C370.302 272.121 367.712 272.984 365.48 274.472C365.312 274.586 365.197 274.762 365.159 274.961C365.121 275.16 365.164 275.366 365.278 275.534C365.392 275.702 365.568 275.817 365.767 275.855C365.966 275.893 366.172 275.85 366.34 275.736L366.358 275.723L366.411 275.688Z" fill="#0C0C0C"/>
<path d="M345.241 278.614C342.609 278.091 339.885 278.284 337.353 279.172C336.101 279.603 334.922 280.22 333.853 281.001C332.789 281.772 331.826 282.674 330.987 283.686C330.898 283.786 330.853 283.917 330.86 284.051C330.867 284.184 330.926 284.309 331.025 284.399C331.124 284.49 331.254 284.537 331.388 284.532C331.521 284.527 331.647 284.469 331.739 284.372L331.766 284.344C332.575 283.432 333.496 282.626 334.506 281.944C335.506 281.262 336.603 280.735 337.76 280.381C340.057 279.66 342.504 279.561 344.852 280.092L344.91 280.106C345.107 280.154 345.315 280.121 345.488 280.016C345.661 279.91 345.785 279.74 345.832 279.543C345.88 279.347 345.848 279.139 345.742 278.966C345.637 278.793 345.467 278.669 345.27 278.621L345.241 278.614Z" fill="#0C0C0C"/>
<path d="M300.341 295.163C315.921 289.363 321.09 278.605 322.683 270.599C323.713 265.26 323.617 259.764 322.4 254.464L321.918 254.596C323.116 259.827 323.208 265.251 322.189 270.52C320.618 278.395 315.521 288.981 300.167 294.695L300.341 295.163Z" fill="#0C0C0C"/>
<path d="M122.97 177.961L112.74 145.274C112.515 144.556 112.143 143.892 111.648 143.326C111.153 142.759 110.545 142.302 109.863 141.983C109.181 141.664 108.441 141.491 107.688 141.474C106.936 141.457 106.188 141.597 105.493 141.885C104.226 142.456 103.216 143.478 102.659 144.752C102.103 146.026 102.039 147.461 102.48 148.779L104.674 155.788L87.658 136.913C85.803 134.781 82.158 133.352 79.909 135.591C78.9855 136.396 78.3621 137.49 78.1403 138.694C77.9185 139.899 78.1116 141.143 78.688 142.224C78.6633 142.236 78.6402 142.251 78.619 142.269C78.6052 142.285 78.5925 142.302 78.581 142.319L75.721 139.032C75.1908 138.423 74.5314 137.941 73.791 137.619C73.0506 137.298 72.2477 137.145 71.441 137.174C70.6342 137.202 69.844 137.41 69.1277 137.782C68.4115 138.154 67.7875 138.682 67.301 139.326C66.5552 140.355 66.1856 141.61 66.254 142.879C66.3225 144.148 66.8248 145.356 67.677 146.299L68.894 147.699C68.8702 147.753 68.856 147.811 68.852 147.87C67.8101 147.116 66.5339 146.756 65.2514 146.856C63.969 146.957 62.764 147.51 61.852 148.417C60.8835 149.439 60.3359 150.788 60.3185 152.196C60.3011 153.603 60.8151 154.966 61.758 156.011L64.782 159.485C64.7046 159.466 64.6238 159.466 64.5463 159.484C64.4688 159.503 64.3967 159.539 64.336 159.591C64.2671 159.656 64.2188 159.74 64.197 159.832C63.0827 159.418 61.8634 159.382 60.7264 159.729C59.5895 160.075 58.5979 160.786 57.904 161.751C57.1958 162.78 56.8557 164.017 56.9386 165.263C57.0216 166.51 57.5228 167.691 58.361 168.617L83.874 197.93C87.4438 202.03 92.1563 204.971 97.4079 206.376C102.659 207.781 108.211 207.586 113.351 205.816C117.783 204.289 121.445 201.094 123.559 196.91C125.673 192.726 126.072 187.883 124.672 183.409L122.97 177.961Z" fill="#E98862"/>
<g opacity="0.2">
<path d="M95.437 160.991C95.3378 161.077 95.2087 161.12 95.0778 161.112C94.9468 161.103 94.8244 161.044 94.737 160.946L78.581 142.975C78.4923 142.876 78.4464 142.746 78.4534 142.614C78.4605 142.481 78.5198 142.357 78.6185 142.268C78.7172 142.18 78.847 142.134 78.9795 142.141C79.112 142.148 79.2363 142.207 79.325 142.306L95.483 160.277C95.5717 160.376 95.6176 160.505 95.6107 160.638C95.6037 160.77 95.5445 160.894 95.446 160.983L95.437 160.991Z" fill="#0C0C0C"/>
</g>
<g opacity="0.2">
<path d="M87.708 168.336C87.6088 168.422 87.4797 168.465 87.3488 168.457C87.2178 168.448 87.0954 168.389 87.008 168.291L68.978 148.235C68.8893 148.136 68.8434 148.007 68.8503 147.874C68.8573 147.742 68.9165 147.618 69.015 147.529C69.1157 147.444 69.2447 147.401 69.376 147.408C69.5073 147.415 69.631 147.472 69.722 147.567L87.754 167.622C87.8427 167.721 87.8886 167.85 87.8817 167.983C87.8747 168.115 87.8155 168.239 87.717 168.328L87.708 168.336Z" fill="#0C0C0C"/>
</g>
<g opacity="0.2">
<path d="M79.382 176.34C79.2826 176.426 79.1535 176.469 79.0226 176.46C78.8916 176.452 78.7693 176.392 78.682 176.294L64.3 160.3C64.2113 160.201 64.1654 160.071 64.1724 159.939C64.1795 159.806 64.2388 159.682 64.3375 159.594C64.4362 159.505 64.566 159.459 64.6985 159.466C64.831 159.473 64.9553 159.532 65.044 159.631L79.429 175.631C79.5176 175.73 79.5633 175.859 79.5562 175.992C79.5491 176.124 79.4896 176.248 79.391 176.337L79.382 176.34Z" fill="#0C0C0C"/>
</g>
<path d="M520.816 118.806L488.071 276.874L376.57 389.51L435.115 444.031L545.663 317.815L546.326 317.069C550.224 312.584 552.942 307.198 554.234 301.399L591.767 134.114L520.816 118.806Z" fill="#5F22D9"/>
<path d="M329.6 405.545C295.51 403.938 294.075 375 294.075 375C294.075 375 277.183 376.091 265.954 377.611C247.569 380.098 235.442 386.332 225.79 395.983C216.812 404.962 219.359 432.971 219.359 432.971L228.37 620.371H434.121L443.849 434.002C443.849 434.002 454.902 410.352 436.115 390.474C422.49 376.062 387.317 375 373.157 375C372.926 375 376.029 407.734 329.6 405.545Z" fill="#5F22D9"/>
<path d="M169.43 308.232L132.564 176.386L62.851 196.6L105.468 338.547C107.417 344.98 111.118 350.745 116.156 355.195L116.856 355.808L229.145 454.508L279.872 392.647L169.43 308.232Z" fill="#5F22D9"/>
<path d="M528.773 79.285L527.086 80.435C522.8 83.3584 517.981 85.4089 512.903 86.4696C507.825 87.5303 502.588 87.5803 497.49 86.6168C492.393 85.6532 487.535 83.6951 483.195 80.8541C478.854 78.0131 475.116 74.3449 472.193 70.059L456.4 46.9C456.192 46.5946 456.046 46.2511 455.97 45.8892C455.894 45.5272 455.891 45.154 455.96 44.7907C456.028 44.4275 456.168 44.0813 456.371 43.772C456.573 43.4626 456.835 43.1963 457.14 42.988L519.438 0.49C520.055 0.0694137 520.814 -0.0890007 521.547 0.0495709C522.281 0.188143 522.93 0.612362 523.351 1.229L539.151 24.392C542.074 28.6776 544.125 33.4971 545.185 38.5753C546.246 43.6534 546.296 48.8907 545.332 53.9881C544.368 59.0855 542.41 63.9431 539.569 68.2836C536.727 72.624 533.059 76.3624 528.773 79.285Z" fill="#0CBC8B"/>
<path d="M497.617 34.689L507.08 40.029C507.144 40.0654 507.217 40.0857 507.291 40.0879C507.365 40.0902 507.438 40.0744 507.505 40.042L517.269 35.273C517.346 35.236 517.431 35.221 517.516 35.2297C517.6 35.2384 517.681 35.2706 517.748 35.3225C517.815 35.3744 517.867 35.444 517.897 35.5236C517.927 35.6032 517.934 35.6895 517.918 35.773L515.764 46.423C515.749 46.4957 515.752 46.5709 515.773 46.6422C515.794 46.7135 515.831 46.7786 515.883 46.832L523.435 54.644C523.494 54.7053 523.535 54.7819 523.553 54.8653C523.572 54.9487 523.566 55.0355 523.537 55.1158C523.508 55.1962 523.458 55.2669 523.391 55.3199C523.324 55.373 523.244 55.4062 523.159 55.416L512.364 56.66C512.29 56.6684 512.22 56.6947 512.158 56.7365C512.097 56.7783 512.047 56.8344 512.012 56.9L506.912 66.5C506.872 66.5752 506.811 66.6376 506.738 66.6803C506.664 66.723 506.579 66.7442 506.494 66.7416C506.409 66.739 506.326 66.7127 506.255 66.6656C506.184 66.6185 506.128 66.5525 506.092 66.475L501.575 56.593C501.544 56.5254 501.497 56.4664 501.439 56.4209C501.38 56.3754 501.311 56.3449 501.238 56.332L490.538 54.451C490.454 54.4363 490.376 54.3983 490.312 54.3414C490.249 54.2845 490.202 54.211 490.178 54.129C490.154 54.0471 490.154 53.9602 490.177 53.878C490.2 53.7958 490.245 53.7217 490.308 53.664L498.308 46.314C498.362 46.2637 498.404 46.2011 498.428 46.1315C498.453 46.0619 498.461 45.9873 498.451 45.914L496.933 35.155C496.92 35.0694 496.931 34.9817 496.965 34.9021C497 34.8226 497.056 34.7545 497.128 34.7057C497.199 34.6569 497.283 34.6294 497.37 34.6264C497.457 34.6235 497.542 34.6452 497.617 34.689Z" fill="#FAFAFA"/>
<path d="M531.349 67.908L523.449 73.294L521.849 74.382L515.549 78.682C515.549 78.682 558.473 117.911 556.427 165.528L575.257 152.685L576.857 151.597L597.282 137.666C552.2 122.189 531.349 67.908 531.349 67.908Z" fill="#0CBC8B"/>
<path d="M602.837 122.487L540.272 165.16C538.588 166.309 538.154 168.606 539.303 170.29L553.424 190.995C554.573 192.679 556.87 193.113 558.555 191.964L621.12 149.292C622.804 148.143 623.238 145.846 622.09 144.161L607.968 123.457C606.819 121.772 604.522 121.338 602.837 122.487Z" fill="#0CBC8B"/>
<path d="M483.425 88.3C480.4 90.3699 476.879 91.597 473.223 91.8552C469.567 92.1134 465.908 91.3934 462.623 89.7692C459.337 88.1449 456.543 85.675 454.528 82.6134C452.514 79.5517 451.35 76.0088 451.158 72.3487C450.966 68.6886 451.752 65.0434 453.436 61.7877C455.119 58.5321 457.639 55.7835 460.737 53.8244C463.835 51.8653 467.398 50.7664 471.061 50.6407C474.724 50.5149 478.354 51.3669 481.579 53.109C484.693 54.7901 487.323 57.2439 489.215 60.2345C491.107 63.2251 492.198 66.6521 492.383 70.1862C492.569 73.7202 491.842 77.2426 490.273 80.4147C488.704 83.5869 486.346 86.3023 483.425 88.3ZM464.194 60.2C461.777 61.8507 459.966 64.2462 459.037 67.0215C458.108 69.7968 458.112 72.7998 459.048 75.5727C459.984 78.3457 461.801 80.7366 464.222 82.3811C466.643 84.0257 469.535 84.8337 472.458 84.682C475.381 84.5303 478.174 83.4272 480.411 81.5409C482.649 79.6545 484.209 77.0884 484.853 74.2334C485.497 71.3784 485.189 68.3912 483.978 65.727C482.767 63.0628 480.718 60.8676 478.143 59.476C475.974 58.3081 473.527 57.758 471.067 57.8857C468.607 58.0133 466.23 58.8139 464.194 60.2Z" fill="#0CBC8B"/>
<path d="M553.281 40.663C552.533 41.1731 551.752 41.6337 550.944 42.042C546.057 44.51 540.391 44.9357 535.19 43.2256C529.99 41.5154 525.682 37.8095 523.214 32.923C520.746 28.0365 520.32 22.3698 522.03 17.1694C523.741 11.969 527.446 7.66097 532.333 5.193C537.01 2.83263 542.409 2.33876 547.436 3.81149C552.464 5.28421 556.743 8.61335 559.407 13.1241C562.071 17.6349 562.921 22.9898 561.783 28.1035C560.645 33.2172 557.606 37.707 553.281 40.663ZM534.057 12.551C531.931 14.0073 530.269 16.0451 529.271 18.4209C528.273 20.7966 527.98 23.4096 528.428 25.9473C528.876 28.4851 530.045 30.8401 531.796 32.7308C533.547 34.6215 535.805 35.9677 538.301 36.6086C540.797 37.2494 543.425 37.1576 545.87 36.3443C548.316 35.5309 550.475 34.0304 552.09 32.0222C553.704 30.014 554.707 27.5831 554.976 25.0203C555.246 22.4575 554.772 19.8713 553.61 17.571C552.816 15.9987 551.72 14.5982 550.385 13.4494C549.05 12.3006 547.501 11.4261 545.828 10.8759C544.155 10.3256 542.389 10.1103 540.633 10.2422C538.876 10.3742 537.163 10.8509 535.591 11.645C535.06 11.9132 534.548 12.2158 534.057 12.551Z" fill="#0CBC8B"/>
<path d="M548.956 104.5C548.386 103.718 548.088 102.771 548.106 101.804C548.124 100.837 548.458 99.9021 549.056 99.142C548.988 99.104 548.795 99.06 548.867 98.942L545.538 100.562C544.567 101.061 543.449 101.191 542.39 100.93C541.33 100.668 540.402 100.031 539.775 99.138C539.185 98.2357 538.951 97.1466 539.119 96.0816C539.286 95.0167 539.843 94.0518 540.681 93.374C540.64 93.361 540.618 93.316 540.581 93.29L539.212 93.956C538.296 94.4221 537.246 94.5572 536.242 94.3385C535.237 94.1199 534.339 93.5608 533.699 92.756C533.308 92.243 533.036 91.6497 532.902 91.0188C532.769 90.388 532.777 89.7353 532.926 89.1079C533.075 88.4805 533.362 87.8941 533.765 87.3909C534.168 86.8876 534.678 86.4802 535.258 86.198L538.415 84.661C538.404 84.646 538.383 84.644 538.374 84.626C538.365 84.608 538.374 84.579 538.368 84.556C537.408 84.7805 536.401 84.6726 535.511 84.2498C534.621 83.8271 533.9 83.1146 533.468 82.229C532.203 80.013 534.073 77.488 536.114 76.495L542.788 73.865C543.818 73.4596 544.932 73.3151 546.031 73.4444C547.13 73.5737 548.18 73.9727 549.088 74.606C556.95 80.08 577.143 94.867 570.627 98.038L554.585 105.844C553.631 106.277 552.559 106.381 551.54 106.137C550.521 105.894 549.611 105.318 548.956 104.5Z" fill="#E98862"/>
<path d="M55.432 620.375H641.561C641.826 620.375 642.081 620.27 642.268 620.082C642.456 619.895 642.561 619.64 642.561 619.375C642.561 619.11 642.456 618.855 642.268 618.668C642.081 618.48 641.826 618.375 641.561 618.375H55.432C55.1668 618.375 54.9124 618.48 54.7249 618.668C54.5374 618.855 54.432 619.11 54.432 619.375C54.432 619.64 54.5374 619.895 54.7249 620.082C54.9124 620.27 55.1668 620.375 55.432 620.375Z" fill="#292A2E"/>
<path d="M31.058 402.219L23.607 405.132L34.1167 432.02L41.5677 429.107L31.058 402.219Z" fill="#5F22D9"/>
<path d="M635.438 319.871L616.178 341.376L622.137 346.713L641.397 325.208L635.438 319.871Z" fill="#5F22D9"/>
<path d="M547.137 416.12L542.34 422.523L565.446 439.831L570.243 433.427L547.137 416.12Z" fill="#0CBC8B"/>
<path d="M199.896 187.512L178.871 207.296L184.353 213.122L205.378 193.338L199.896 187.512Z" fill="#5F22D9"/>
<path d="M432.771 153.952L425.835 157.94L440.224 182.968L447.159 178.981L432.771 153.952Z" fill="#5F22D9"/>
<path d="M149.883 498.2L134.476 522.614L141.242 526.883L156.648 502.469L149.883 498.2Z" fill="#0CBC8B"/>
<path d="M537.541 556.864L524.639 582.69L531.796 586.265L544.698 560.439L537.541 556.864Z" fill="#0CBC8B"/>
<path d="M642.248 488.914L634.586 491.211L642.876 518.864L650.538 516.567L642.248 488.914Z" fill="#5F22D9"/>
<path d="M81.7169 565.052L77.2609 571.7L101.251 587.78L105.707 581.132L81.7169 565.052Z" fill="#5F22D9"/>
<path d="M337.86 91.7546L330.925 95.7416L345.312 120.77L352.248 116.783L337.86 91.7546Z" fill="#0CBC8B"/>
</g>
<defs>
<clipPath id="clip0_1_1363">
<rect width="700.509" height="620.375" fill="white"/>
</clipPath>
</defs>
</svg>
