<svg width="693" height="791" viewBox="0 0 693 791" fill="none" xmlns="http://www.w3.org/2000/svg">
<g clip-path="url(#clip0_1_893)">
<path opacity="0.05" d="M633.775 102.012H492.954C490.555 102.012 488.611 103.956 488.611 106.355V203.584C488.611 205.983 490.555 207.927 492.954 207.927H633.775C636.174 207.927 638.118 205.983 638.118 203.584V106.355C638.118 103.956 636.174 102.012 633.775 102.012Z" fill="#292A2E"/>
<path opacity="0.05" d="M551.573 134.146C557.548 134.146 562.391 129.303 562.391 123.328C562.391 117.353 557.548 112.51 551.573 112.51C545.598 112.51 540.755 117.353 540.755 123.328C540.755 129.303 545.598 134.146 551.573 134.146Z" fill="#292A2E"/>
<path opacity="0.05" d="M555.651 172.837L587.012 137.852C588.97 135.668 591.71 134.343 594.638 134.166C597.566 133.989 600.445 134.974 602.652 136.906L638.118 167.958V203.6C638.118 204.748 637.662 205.848 636.851 206.66C636.039 207.471 634.939 207.927 633.791 207.927H595.247" fill="#292A2E"/>
<path opacity="0.1" d="M595.247 207.927L527.247 147.664C525.238 145.883 522.653 144.887 519.968 144.86C517.283 144.833 514.679 145.777 512.634 147.517L488.613 167.958V204.014C488.613 204.528 488.714 205.037 488.911 205.512C489.108 205.986 489.396 206.418 489.759 206.781C490.123 207.145 490.554 207.433 491.029 207.629C491.504 207.826 492.013 207.927 492.527 207.927H595.247Z" fill="#292A2E"/>
<path opacity="0.05" d="M270.561 108.131H143.9C141.743 108.131 139.994 109.88 139.994 112.037V199.49C139.994 201.647 141.743 203.396 143.9 203.396H270.561C272.718 203.396 274.467 201.647 274.467 199.49V112.037C274.467 109.88 272.718 108.131 270.561 108.131Z" fill="#292A2E"/>
<path opacity="0.05" d="M196.624 137.033C201.998 137.033 206.354 132.677 206.354 127.303C206.354 121.929 201.998 117.573 196.624 117.573C191.25 117.573 186.894 121.929 186.894 127.303C186.894 132.677 191.25 137.033 196.624 137.033Z" fill="#292A2E"/>
<path opacity="0.05" d="M200.293 171.834L228.5 140.367C230.261 138.402 232.725 137.211 235.359 137.052C237.992 136.893 240.582 137.778 242.567 139.516L274.467 167.446V199.5C274.467 200.532 274.057 201.522 273.327 202.252C272.597 202.982 271.607 203.392 270.575 203.392H235.907" fill="#292A2E"/>
<path opacity="0.1" d="M235.907 203.4L174.743 149.2C172.936 147.598 170.611 146.703 168.196 146.678C165.781 146.654 163.438 147.503 161.599 149.068L139.999 167.454V199.884C139.999 200.818 140.37 201.713 141.03 202.373C141.69 203.033 142.585 203.404 143.519 203.404L235.907 203.4Z" fill="#292A2E"/>
<path d="M104.891 111.494C97.6967 111.443 90.7752 108.735 85.4573 103.889C80.1394 99.0435 76.8008 92.4029 76.0834 85.2443C75.3659 78.0857 77.3204 70.9146 81.5709 65.1101C85.8214 59.3055 92.0678 55.2772 99.109 53.8C97.2328 43.1434 99.2638 32.1676 104.829 22.888C108.868 16.0623 114.653 10.4369 121.59 6.59121C128.526 2.74553 136.362 0.818689 144.291 1.0092C152.22 1.1997 159.955 3.50067 166.698 7.67504C173.442 11.8494 178.951 17.7462 182.657 24.758C187.017 21.763 192.295 20.4073 197.559 20.9309C202.822 21.4545 207.73 23.8237 211.414 27.619C214.983 31.29 217.214 36.0542 217.748 41.146C224.424 41.5975 230.834 43.9388 236.229 47.8967C241.624 51.8545 245.782 57.2655 248.218 63.4979C250.653 69.7302 251.265 76.5268 249.982 83.0939C248.7 89.6611 245.575 95.7279 240.974 100.586C237.819 103.935 234.028 106.623 229.824 108.493C225.619 110.362 221.084 111.376 216.484 111.476L104.891 111.494Z" fill="#292A2E"/>
<path d="M96.571 111.494C89.3767 111.443 82.4552 108.735 77.1373 103.889C71.8194 99.0435 68.4808 92.4029 67.7634 85.2443C67.0459 78.0857 69.0004 70.9147 73.2509 65.1101C77.5014 59.3055 83.7478 55.2772 90.789 53.8C88.9125 43.1435 90.9431 32.1678 96.508 22.888C100.547 16.0624 106.333 10.437 113.269 6.59131C120.206 2.74566 128.042 0.818844 135.971 1.00935C143.899 1.19986 151.634 3.5008 158.378 7.67514C165.122 11.8495 170.63 17.7463 174.337 24.758C178.697 21.763 183.975 20.4073 189.239 20.9309C194.502 21.4545 199.41 23.8237 203.094 27.619C206.662 31.2902 208.893 36.0543 209.428 41.146C216.104 41.5975 222.514 43.9389 227.909 47.8967C233.304 51.8545 237.462 57.2655 239.898 63.4979C242.333 69.7302 242.945 76.5268 241.662 83.094C240.38 89.6611 237.255 95.7279 232.654 100.586C229.498 103.935 225.708 106.623 221.503 108.492C217.299 110.362 212.764 111.376 208.164 111.476L96.571 111.494Z" fill="white"/>
<path d="M96.571 112.494C88.6077 112.457 80.9841 109.264 75.3727 103.613C69.7613 97.9629 66.6204 90.3173 66.639 82.354C66.5554 75.5748 68.7914 68.9708 72.9763 63.6369C77.1613 58.303 83.0436 54.5598 89.648 53.028C88.0298 42.4252 90.1511 31.5898 95.648 22.38C99.729 15.4805 105.557 9.77879 112.544 5.84943C119.531 1.92006 127.43 -0.098059 135.445 -0.00152124C143.461 0.0950165 151.309 2.3028 158.199 6.3993C165.09 10.4958 170.778 16.3363 174.692 23.332C179.228 20.5226 184.588 19.3475 189.884 20.0013C195.18 20.6551 200.093 23.0986 203.81 26.927C207.333 30.5526 209.613 35.2048 210.318 40.211C217.101 40.8262 223.574 43.3387 228.996 47.4609C234.417 51.5832 238.569 57.1486 240.975 63.5202C243.382 69.8919 243.945 76.8122 242.602 83.4894C241.259 90.1665 238.063 96.3305 233.38 101.276C230.133 104.721 226.234 107.485 221.908 109.408C217.583 111.33 212.918 112.373 208.186 112.476L96.571 112.494ZM134.909 2C128.503 2.03314 122.181 3.46398 116.385 6.19266C110.589 8.92134 105.458 12.8821 101.351 17.7985C97.2434 22.7149 94.2585 28.4684 92.6045 34.6575C90.9504 40.8466 90.667 47.3221 91.774 53.632L91.941 54.592L90.986 54.784C84.627 56.0449 78.9103 59.4928 74.8282 64.5289C70.7461 69.5651 68.5563 75.8717 68.639 82.354C68.6198 89.7871 71.5499 96.9242 76.7863 102.2C82.0228 107.475 89.138 110.458 96.571 110.494L208.164 110.48C212.629 110.38 217.029 109.393 221.109 107.577C225.189 105.761 228.867 103.151 231.929 99.9C236.399 95.1799 239.434 89.2856 240.68 82.9053C241.927 76.525 241.332 69.9219 238.967 63.8667C236.601 57.8115 232.562 52.554 227.321 48.708C222.08 44.862 215.853 42.5861 209.367 42.146L208.521 42.096L208.433 41.253C207.921 36.3854 205.788 31.8309 202.378 28.32C198.859 24.6938 194.17 22.4299 189.142 21.9291C184.113 21.4284 179.07 22.7231 174.905 25.584L173.981 26.221L173.454 25.231C169.745 18.2228 164.198 12.3573 157.407 8.26442C150.616 4.17152 142.838 2.00585 134.909 2Z" fill="#292A2E"/>
<path d="M155.564 95.3C155.299 95.3 155.044 95.1946 154.857 95.0071C154.669 94.8196 154.564 94.5652 154.564 94.3V36.217C154.564 35.9518 154.669 35.6974 154.857 35.5099C155.044 35.3224 155.299 35.217 155.564 35.217C155.829 35.217 156.084 35.3224 156.271 35.5099C156.459 35.6974 156.564 35.9518 156.564 36.217V94.3C156.564 94.5652 156.459 94.8196 156.271 95.0071C156.084 95.1946 155.829 95.3 155.564 95.3Z" fill="#292A2E"/>
<path d="M177.5 59.152C177.369 59.1524 177.239 59.1266 177.117 59.0763C176.996 59.0261 176.886 58.9522 176.793 58.859L155.564 37.631L134.336 58.859C134.147 59.0412 133.895 59.142 133.633 59.1397C133.37 59.1374 133.12 59.0322 132.934 58.8468C132.749 58.6614 132.644 58.4106 132.641 58.1484C132.639 57.8862 132.74 57.6336 132.922 57.445L154.856 35.51C155.047 35.3295 155.3 35.2289 155.564 35.2289C155.827 35.2289 156.08 35.3295 156.271 35.51L178.206 57.445C178.346 57.5849 178.441 57.763 178.48 57.957C178.518 58.1509 178.498 58.352 178.423 58.5347C178.347 58.7174 178.219 58.8735 178.054 58.9834C177.89 59.0933 177.697 59.152 177.499 59.152H177.5Z" fill="#292A2E"/>
<path opacity="0.05" d="M685.446 355.762H467.093C463.374 355.762 460.359 358.777 460.359 362.496V513.258C460.359 516.977 463.374 519.992 467.093 519.992H685.446C689.165 519.992 692.18 516.977 692.18 513.258V362.496C692.18 358.777 689.165 355.762 685.446 355.762Z" fill="#292A2E"/>
<path opacity="0.05" d="M557.985 405.589C567.249 405.589 574.759 398.079 574.759 388.815C574.759 379.551 567.249 372.041 557.985 372.041C548.721 372.041 541.211 379.551 541.211 388.815C541.211 398.079 548.721 405.589 557.985 405.589Z" fill="#292A2E"/>
<path opacity="0.05" d="M564.309 465.582L612.937 411.335C615.973 407.948 620.221 405.895 624.761 405.62C629.3 405.346 633.765 406.872 637.187 409.868L692.18 458.017V513.283C692.18 515.062 691.473 516.769 690.214 518.027C688.956 519.285 687.249 519.992 685.47 519.992H625.705" fill="#292A2E"/>
<path opacity="0.1" d="M625.705 519.992L520.263 426.549C517.147 423.788 513.139 422.244 508.976 422.202C504.813 422.16 500.775 423.623 497.604 426.321L460.359 458.021V513.928C460.359 514.725 460.516 515.514 460.821 516.25C461.125 516.986 461.572 517.655 462.136 518.219C462.699 518.782 463.368 519.229 464.104 519.534C464.84 519.839 465.629 519.996 466.426 519.996L625.705 519.992Z" fill="#292A2E"/>
<path opacity="0.05" d="M258.425 498.455H36.665C32.8879 498.455 29.826 501.517 29.826 505.294V658.408C29.826 662.185 32.8879 665.247 36.665 665.247H258.425C262.202 665.247 265.264 662.185 265.264 658.408V505.294C265.264 501.517 262.202 498.455 258.425 498.455Z" fill="#292A2E"/>
<path opacity="0.05" d="M128.975 549.059C138.384 549.059 146.011 541.432 146.011 532.023C146.011 522.614 138.384 514.987 128.975 514.987C119.566 514.987 111.939 522.614 111.939 532.023C111.939 541.432 119.566 549.059 128.975 549.059Z" fill="#292A2E"/>
<path opacity="0.05" d="M135.4 609.989L184.787 554.889C187.87 551.45 192.185 549.365 196.795 549.086C201.406 548.807 205.94 550.357 209.415 553.4L265.266 602.3V658.428C265.266 659.323 265.09 660.209 264.747 661.036C264.405 661.862 263.903 662.613 263.27 663.246C262.637 663.879 261.886 664.381 261.06 664.723C260.233 665.066 259.347 665.242 258.452 665.242H197.752" fill="#292A2E"/>
<path opacity="0.1" d="M197.752 665.247L90.665 570.347C87.5005 567.543 83.4298 565.975 79.2017 565.932C74.9735 565.89 70.8721 567.376 67.652 570.116L29.826 602.3V659.08C29.826 660.714 30.4752 662.282 31.6308 663.437C32.7864 664.593 34.3537 665.242 35.988 665.242L197.752 665.247Z" fill="#292A2E"/>
<path d="M601.06 670.4C600.819 670.4 600.588 670.304 600.418 670.134C599.138 668.854 597.053 645.378 591.435 575.481C589.135 546.881 586.965 519.866 585.38 503.449C585.267 502.277 584.813 502.14 584.663 502.095C582.494 501.441 575.898 506.643 572.215 511.195C572.061 511.376 571.843 511.489 571.607 511.511C571.371 511.533 571.136 511.462 570.951 511.312C570.767 511.163 570.648 510.948 570.62 510.713C570.592 510.477 570.658 510.24 570.802 510.052C573.238 507.041 581.175 499.146 585.186 500.352C585.994 500.595 586.998 501.298 587.186 503.271C588.771 519.702 590.943 546.724 593.243 575.332C596.657 617.807 600.524 665.927 601.795 668.958C601.892 669.094 601.95 669.254 601.962 669.42C601.975 669.587 601.941 669.753 601.865 669.902C601.788 670.051 601.673 670.175 601.53 670.262C601.388 670.35 601.224 670.396 601.057 670.396L601.06 670.4Z" fill="#494949"/>
<path d="M583.047 533.578C598.117 521.498 603.112 502.696 594.203 491.583C585.295 480.469 565.856 481.252 550.786 493.332C535.716 505.412 530.721 524.214 539.63 535.328C548.538 546.441 567.977 545.658 583.047 533.578Z" fill="#0CBC8B"/>
<path opacity="0.2" d="M583.047 533.578C598.117 521.498 603.112 502.696 594.203 491.583C585.295 480.469 565.856 481.252 550.786 493.332C535.716 505.412 530.721 524.214 539.63 535.328C548.538 546.441 567.977 545.658 583.047 533.578Z" fill="white"/>
<path d="M543.854 538.154C543.768 538.154 543.683 538.129 543.611 538.083C543.538 538.036 543.48 537.97 543.444 537.892C543.407 537.814 543.393 537.727 543.404 537.642C543.415 537.556 543.45 537.475 543.505 537.409L586.454 485.617C586.531 485.524 586.642 485.466 586.762 485.454C586.882 485.443 587.001 485.48 587.094 485.557C587.187 485.634 587.245 485.745 587.257 485.865C587.268 485.985 587.231 486.104 587.154 486.197L544.2 537.99C544.158 538.041 544.105 538.082 544.045 538.11C543.985 538.139 543.92 538.154 543.854 538.154Z" fill="white"/>
<path d="M610.428 659.3C610.326 659.3 610.224 659.283 610.128 659.249C609.901 659.17 609.714 659.004 609.609 658.787C609.504 658.57 609.49 658.32 609.569 658.093L625.7 611.7C626.175 610.337 626.984 609.114 628.053 608.145C629.123 607.176 630.419 606.491 631.822 606.152C633.225 605.814 634.691 605.833 636.085 606.209C637.479 606.584 638.756 607.303 639.8 608.3L648.329 616.447C648.415 616.529 648.484 616.628 648.532 616.737C648.581 616.846 648.607 616.964 648.609 617.083C648.612 617.202 648.591 617.321 648.548 617.432C648.505 617.543 648.44 617.645 648.358 617.731C648.276 617.817 648.177 617.886 648.068 617.934C647.959 617.983 647.841 618.009 647.722 618.011C647.603 618.014 647.484 617.993 647.373 617.95C647.262 617.907 647.16 617.842 647.074 617.76L638.545 609.613C637.721 608.826 636.712 608.258 635.612 607.962C634.511 607.665 633.354 607.65 632.246 607.918C631.138 608.185 630.114 608.727 629.27 609.492C628.426 610.258 627.787 611.223 627.413 612.3L611.28 658.7C611.217 658.875 611.101 659.027 610.949 659.134C610.796 659.242 610.614 659.3 610.428 659.3Z" fill="#494949"/>
<path d="M672.163 642.128C683.331 633.288 682.667 613.845 670.68 598.701C658.693 583.557 639.922 578.447 628.754 587.287C617.586 596.127 618.25 615.57 630.237 630.714C642.224 645.858 660.995 650.968 672.163 642.128Z" fill="#0CBC8B"/>
<path d="M593.731 667.444C593.527 667.444 593.328 667.374 593.168 667.247C593.008 667.12 592.896 666.943 592.849 666.744L565.776 553.544C565.591 552.772 565.197 552.066 564.637 551.504C564.078 550.941 563.373 550.544 562.602 550.356C561.831 550.168 561.023 550.196 560.267 550.437C559.511 550.679 558.836 551.124 558.317 551.724L549.972 561.368C549.814 561.55 549.591 561.662 549.351 561.68C549.111 561.697 548.873 561.619 548.691 561.461C548.509 561.303 548.397 561.08 548.379 560.84C548.362 560.6 548.44 560.362 548.598 560.18L556.943 550.536C557.681 549.683 558.64 549.05 559.714 548.707C560.789 548.364 561.937 548.323 563.033 548.591C564.129 548.858 565.13 549.423 565.925 550.222C566.721 551.021 567.281 552.025 567.543 553.122L594.616 666.322C594.648 666.456 594.649 666.594 594.62 666.729C594.59 666.863 594.53 666.988 594.445 667.096C594.36 667.204 594.252 667.291 594.128 667.35C594.005 667.41 593.869 667.441 593.732 667.441L593.731 667.444Z" fill="#494949"/>
<path d="M583.745 586.523C587.036 567.492 578.326 550.096 564.291 547.669C550.256 545.242 536.21 558.703 532.919 577.734C529.628 596.766 538.338 614.161 552.373 616.588C566.408 619.015 580.454 605.555 583.745 586.523Z" fill="#0CBC8B"/>
<path d="M601.062 670.4C601.025 670.4 600.987 670.398 600.95 670.393C600.711 670.364 600.493 670.24 600.345 670.051C600.197 669.861 600.13 669.62 600.159 669.381L617.447 529.016C617.636 527.487 618.263 526.046 619.251 524.865C620.24 523.684 621.548 522.813 623.019 522.357C624.491 521.901 626.062 521.88 627.545 522.296C629.028 522.711 630.36 523.546 631.38 524.7L651.14 547.08C651.223 547.169 651.287 547.273 651.329 547.387C651.371 547.501 651.389 547.623 651.383 547.744C651.378 547.865 651.347 547.984 651.295 548.094C651.242 548.203 651.168 548.301 651.077 548.381C650.986 548.461 650.879 548.523 650.764 548.561C650.649 548.6 650.527 548.615 650.406 548.605C650.285 548.596 650.167 548.562 650.059 548.506C649.951 548.45 649.856 548.373 649.778 548.28L630.018 525.9C629.23 525.008 628.201 524.362 627.055 524.04C625.908 523.718 624.693 523.734 623.556 524.087C622.419 524.439 621.407 525.112 620.643 526.026C619.879 526.939 619.396 528.053 619.25 529.235L601.962 669.605C601.934 669.824 601.828 670.026 601.662 670.173C601.496 670.319 601.283 670.4 601.062 670.4Z" fill="#494949"/>
<path d="M671.406 559.52C678.301 547.056 670.189 529.374 653.288 520.025C636.387 510.677 617.098 513.202 610.204 525.666C603.309 538.129 611.421 555.812 628.322 565.16C645.222 574.509 664.512 571.984 671.406 559.52Z" fill="#0CBC8B"/>
<path opacity="0.2" d="M672.163 642.128C683.331 633.288 682.667 613.845 670.68 598.701C658.693 583.557 639.922 578.447 628.754 587.287C617.586 596.127 618.25 615.57 630.237 630.714C642.224 645.858 660.995 650.968 672.163 642.128Z" fill="white"/>
<path opacity="0.5" d="M583.745 586.523C587.036 567.492 578.326 550.096 564.291 547.669C550.256 545.242 536.21 558.703 532.919 577.734C529.628 596.766 538.338 614.161 552.373 616.588C566.408 619.015 580.454 605.555 583.745 586.523Z" fill="white"/>
<path opacity="0.5" d="M671.406 559.52C678.301 547.056 670.189 529.374 653.288 520.025C636.387 510.677 617.098 513.202 610.204 525.666C603.309 538.129 611.421 555.812 628.322 565.16C645.222 574.509 664.512 571.984 671.406 559.52Z" fill="white"/>
<path d="M623.173 789.502H578.948L571.62 648.005H630.501L623.173 789.502Z" fill="#292A2E"/>
<path opacity="0.3" d="M623.173 789.502H578.948L571.62 648.005H630.501L623.173 789.502Z" fill="white"/>
<path d="M672.164 642.578C672.095 642.578 672.028 642.563 671.966 642.533C671.904 642.503 671.85 642.459 671.808 642.405L628.4 587.564C628.363 587.517 628.335 587.464 628.319 587.406C628.303 587.349 628.298 587.289 628.305 587.23C628.312 587.17 628.33 587.113 628.359 587.061C628.388 587.009 628.427 586.963 628.474 586.926C628.521 586.889 628.574 586.861 628.632 586.845C628.689 586.829 628.749 586.824 628.808 586.831C628.868 586.838 628.925 586.856 628.977 586.885C629.029 586.914 629.075 586.953 629.112 587L672.522 641.841C672.575 641.908 672.609 641.988 672.618 642.073C672.628 642.158 672.613 642.244 672.576 642.321C672.539 642.398 672.48 642.463 672.408 642.509C672.335 642.554 672.252 642.578 672.166 642.578H672.164Z" fill="white"/>
<path d="M668.519 563.914C668.423 563.914 668.33 563.884 668.252 563.827L612.7 523.265C612.652 523.23 612.611 523.185 612.58 523.135C612.549 523.084 612.528 523.027 612.519 522.968C612.51 522.909 612.513 522.849 612.527 522.791C612.541 522.733 612.566 522.679 612.602 522.63C612.637 522.582 612.681 522.542 612.732 522.511C612.783 522.48 612.839 522.459 612.898 522.45C612.957 522.441 613.017 522.443 613.075 522.457C613.133 522.471 613.188 522.497 613.236 522.532L668.786 563.093C668.864 563.15 668.921 563.229 668.951 563.32C668.98 563.412 668.98 563.51 668.95 563.601C668.92 563.693 668.862 563.772 668.784 563.828C668.707 563.884 668.613 563.914 668.517 563.914H668.519Z" fill="white"/>
<path d="M550.117 616C550.077 616 550.038 615.995 549.999 615.985C549.883 615.954 549.784 615.878 549.723 615.774C549.663 615.669 549.647 615.545 549.678 615.429L567.361 549.175C567.375 549.116 567.401 549.06 567.437 549.012C567.473 548.963 567.518 548.922 567.57 548.891C567.622 548.859 567.68 548.839 567.74 548.831C567.8 548.822 567.861 548.826 567.92 548.842C567.978 548.857 568.033 548.885 568.081 548.922C568.129 548.959 568.169 549.005 568.198 549.058C568.228 549.111 568.247 549.169 568.254 549.23C568.261 549.29 568.255 549.351 568.238 549.409L550.555 615.663C550.529 615.76 550.472 615.845 550.393 615.906C550.314 615.967 550.217 616 550.117 616Z" fill="white"/>
<path d="M501.477 47.237H247.457C226.443 47.237 209.407 64.2726 209.407 85.287V682.431C209.407 703.445 226.443 720.481 247.457 720.481H501.477C522.491 720.481 539.527 703.445 539.527 682.431V85.287C539.527 64.2726 522.491 47.237 501.477 47.237Z" fill="#292A2E"/>
<path d="M501.359 59.118H247.576C233.146 59.118 221.449 70.8155 221.449 85.245V681.584C221.449 696.014 233.146 707.711 247.576 707.711H501.359C515.789 707.711 527.486 696.014 527.486 681.584V85.245C527.486 70.8155 515.789 59.118 501.359 59.118Z" fill="white"/>
<path d="M311.789 54.206H437.146V67.177C437.145 70.8965 435.667 74.4633 433.036 77.093C430.406 79.7227 426.838 81.2 423.119 81.2H325.819C322.099 81.2 318.531 79.7222 315.9 77.0916C313.27 74.461 311.792 70.8932 311.792 67.173V54.206H311.789Z" fill="#292A2E"/>
<path d="M423.162 181.537H325.773C313.284 181.537 303.159 191.662 303.159 204.151V301.54C303.159 314.029 313.284 324.154 325.773 324.154H423.162C435.651 324.154 445.776 314.029 445.776 301.54V204.151C445.776 191.662 435.651 181.537 423.162 181.537Z" fill="white"/>
<path d="M423.161 325.154H325.773C319.512 325.147 313.51 322.657 309.083 318.23C304.656 313.803 302.166 307.801 302.159 301.54V204.151C302.166 197.89 304.656 191.888 309.083 187.461C313.51 183.034 319.512 180.544 325.773 180.537H423.161C429.422 180.544 435.424 183.034 439.851 187.461C444.278 191.888 446.768 197.89 446.775 204.151V301.54C446.768 307.801 444.278 313.803 439.851 318.23C435.424 322.657 429.422 325.147 423.161 325.154ZM325.773 182.537C320.043 182.544 314.549 184.823 310.497 188.875C306.445 192.927 304.166 198.421 304.159 204.151V301.54C304.166 307.27 306.445 312.764 310.497 316.816C314.549 320.868 320.043 323.147 325.773 323.154H423.161C428.891 323.148 434.385 320.868 438.437 316.816C442.489 312.764 444.769 307.27 444.775 301.54V204.151C444.769 198.421 442.489 192.927 438.437 188.875C434.385 184.823 428.891 182.543 423.161 182.537H325.773Z" fill="#292A2E"/>
<path opacity="0.6" d="M416.687 440.807V459.447H278.957C276.485 459.447 274.115 458.465 272.367 456.717C270.619 454.969 269.637 452.599 269.637 450.127C269.637 447.655 270.619 445.285 272.367 443.537C274.115 441.789 276.485 440.807 278.957 440.807H416.687Z" fill="#5F22D9"/>
<path d="M469.975 460.449H278.96C277.596 460.462 276.243 460.205 274.979 459.693C273.715 459.18 272.565 458.422 271.596 457.462C270.626 456.502 269.857 455.36 269.332 454.101C268.807 452.842 268.536 451.492 268.536 450.128C268.536 448.763 268.807 447.413 269.332 446.154C269.857 444.895 270.626 443.753 271.596 442.793C272.565 441.833 273.715 441.075 274.979 440.562C276.243 440.05 277.596 439.793 278.96 439.806H469.975C472.695 439.833 475.294 440.932 477.208 442.865C479.122 444.798 480.195 447.408 480.195 450.128C480.195 452.847 479.122 455.458 477.208 457.39C475.294 459.323 472.695 460.422 469.975 460.449ZM278.96 441.806C277.86 441.794 276.768 442 275.747 442.413C274.727 442.826 273.799 443.437 273.017 444.211C272.234 444.985 271.613 445.906 271.189 446.922C270.765 447.937 270.547 449.027 270.547 450.128C270.547 451.228 270.765 452.318 271.189 453.333C271.613 454.349 272.234 455.27 273.017 456.044C273.799 456.818 274.727 457.429 275.747 457.842C276.768 458.255 277.86 458.461 278.96 458.449H469.975C472.166 458.425 474.259 457.538 475.8 455.98C477.341 454.422 478.206 452.319 478.206 450.128C478.206 447.936 477.341 445.833 475.8 444.275C474.259 442.717 472.166 441.83 469.975 441.806H278.96Z" fill="#292A2E"/>
<path opacity="0.8" d="M441.242 523.014H307.693C299.823 523.014 293.444 529.393 293.444 537.263V575.521C293.444 583.391 299.823 589.77 307.693 589.77H441.242C449.112 589.77 455.491 583.391 455.491 575.521V537.263C455.491 529.393 449.112 523.014 441.242 523.014Z" fill="#5F22D9"/>
<path d="M455.487 575.524V582.08C455.487 585.858 453.986 589.482 451.314 592.153C448.643 594.825 445.019 596.326 441.241 596.326H307.692C303.914 596.326 300.29 594.825 297.619 592.153C294.947 589.482 293.446 585.858 293.446 582.08V575.524C293.446 579.302 294.947 582.926 297.619 585.597C300.29 588.269 303.914 589.77 307.692 589.77H441.241C445.019 589.77 448.643 588.269 451.314 585.597C453.986 582.926 455.487 579.302 455.487 575.524Z" fill="#5F22D9"/>
<path d="M365.564 576.113C365.005 576.113 364.465 575.914 364.041 575.55L348.755 562.45C348.522 562.25 348.33 562.006 348.191 561.732C348.051 561.457 347.968 561.158 347.944 560.852C347.92 560.545 347.957 560.237 348.053 559.945C348.148 559.653 348.3 559.382 348.5 559.148C348.701 558.915 348.945 558.723 349.219 558.584C349.493 558.445 349.792 558.361 350.099 558.337C350.405 558.314 350.713 558.351 351.006 558.446C351.298 558.542 351.569 558.694 351.802 558.894L365.366 570.519L396.928 535.986C397.135 535.759 397.385 535.575 397.664 535.445C397.942 535.315 398.244 535.241 398.551 535.227C398.858 535.213 399.165 535.26 399.454 535.365C399.743 535.469 400.009 535.63 400.236 535.838C400.462 536.045 400.646 536.295 400.777 536.573C400.907 536.852 400.981 537.153 400.995 537.46C401.009 537.768 400.962 538.074 400.857 538.363C400.752 538.652 400.591 538.918 400.384 539.145L367.293 575.352C367.074 575.592 366.807 575.784 366.509 575.915C366.211 576.046 365.889 576.114 365.564 576.113Z" fill="white"/>
<path d="M374.467 288.661C374.202 288.661 373.947 288.556 373.76 288.368C373.572 288.181 373.467 287.926 373.467 287.661V218.03C373.467 217.765 373.572 217.51 373.76 217.323C373.947 217.135 374.202 217.03 374.467 217.03C374.732 217.03 374.987 217.135 375.174 217.323C375.362 217.51 375.467 217.765 375.467 218.03V287.661C375.467 287.926 375.362 288.181 375.174 288.368C374.987 288.556 374.732 288.661 374.467 288.661Z" fill="#292A2E"/>
<path d="M409.283 253.846H339.652C339.387 253.846 339.132 253.741 338.945 253.553C338.757 253.366 338.652 253.111 338.652 252.846C338.652 252.581 338.757 252.326 338.945 252.139C339.132 251.951 339.387 251.846 339.652 251.846H409.283C409.548 251.846 409.803 251.951 409.99 252.139C410.178 252.326 410.283 252.581 410.283 252.846C410.283 253.111 410.178 253.366 409.99 253.553C409.803 253.741 409.548 253.846 409.283 253.846Z" fill="#292A2E"/>
<path d="M170.786 297.663L181.948 280.3C182.193 279.918 182.515 279.592 182.894 279.342C183.272 279.092 183.698 278.923 184.145 278.846C184.593 278.77 185.051 278.787 185.491 278.898C185.931 279.008 186.343 279.209 186.701 279.487C187.346 280.022 187.769 280.776 187.89 281.605C188.01 282.434 187.818 283.278 187.351 283.974L184.958 287.698L197.858 279.443C199.276 278.5 201.619 278.25 202.572 279.911C202.981 280.526 203.168 281.262 203.105 281.997C203.042 282.733 202.731 283.426 202.224 283.962C202.236 283.973 202.247 283.985 202.256 283.998C202.262 284.009 202.267 284.021 202.27 284.034L204.458 282.58C204.863 282.311 205.323 282.136 205.805 282.067C206.286 281.998 206.777 282.038 207.242 282.183C207.706 282.328 208.132 282.575 208.489 282.905C208.846 283.236 209.124 283.642 209.304 284.094C209.573 284.811 209.588 285.599 209.346 286.326C209.103 287.053 208.619 287.675 207.973 288.087L207.042 288.706C207.049 288.741 207.049 288.777 207.042 288.812C207.768 288.54 208.567 288.535 209.296 288.798C210.025 289.061 210.637 289.574 211.022 290.247C211.422 290.995 211.525 291.867 211.31 292.688C211.096 293.509 210.58 294.219 209.865 294.676L207.553 296.212C207.601 296.213 207.648 296.226 207.69 296.249C207.732 296.272 207.768 296.305 207.795 296.345C207.825 296.394 207.84 296.45 207.838 296.507C208.552 296.444 209.266 296.618 209.871 297.001C210.477 297.383 210.94 297.954 211.189 298.626C211.436 299.337 211.437 300.111 211.19 300.822C210.943 301.533 210.463 302.14 209.828 302.544L190.322 315.509C187.593 317.323 184.385 318.281 181.108 318.259C177.831 318.238 174.636 317.238 171.931 315.388C169.599 313.793 167.982 311.351 167.422 308.582C166.861 305.813 167.403 302.935 168.931 300.559L170.786 297.663Z" fill="#E98862"/>
<g opacity="0.2">
<path d="M189.5 292.194C189.544 292.26 189.612 292.305 189.689 292.321C189.766 292.337 189.847 292.322 189.913 292.279L202.172 284.413C202.239 284.37 202.287 284.302 202.304 284.223C202.32 284.145 202.306 284.064 202.263 283.996C202.219 283.929 202.151 283.882 202.073 283.865C201.995 283.848 201.913 283.863 201.846 283.906L189.587 291.772C189.554 291.793 189.525 291.821 189.502 291.853C189.479 291.886 189.463 291.922 189.455 291.961C189.446 292 189.446 292.04 189.453 292.079C189.46 292.118 189.475 292.155 189.496 292.188L189.5 292.194Z" fill="#0C0C0C"/>
</g>
<g opacity="0.2">
<path d="M192.816 297.7C192.86 297.766 192.928 297.811 193.005 297.827C193.082 297.843 193.163 297.828 193.229 297.785L206.91 289C206.944 288.979 206.973 288.951 206.995 288.919C207.018 288.886 207.034 288.849 207.043 288.811C207.051 288.772 207.052 288.732 207.045 288.693C207.037 288.654 207.023 288.616 207.001 288.583C206.956 288.518 206.888 288.473 206.81 288.456C206.733 288.439 206.652 288.452 206.584 288.493L192.9 297.274C192.866 297.295 192.837 297.323 192.815 297.355C192.792 297.388 192.776 297.425 192.767 297.463C192.759 297.502 192.758 297.542 192.765 297.581C192.773 297.62 192.787 297.658 192.809 297.691L192.816 297.7Z" fill="#0C0C0C"/>
</g>
<g opacity="0.2">
<path d="M196.378 303.677C196.422 303.742 196.49 303.788 196.567 303.804C196.644 303.82 196.724 303.805 196.79 303.762L207.704 296.762C207.771 296.719 207.819 296.651 207.836 296.572C207.853 296.494 207.838 296.413 207.795 296.345C207.751 296.278 207.683 296.231 207.605 296.214C207.527 296.197 207.445 296.212 207.378 296.255L196.464 303.255C196.431 303.276 196.402 303.304 196.379 303.337C196.356 303.369 196.34 303.406 196.332 303.445C196.324 303.483 196.323 303.524 196.33 303.563C196.337 303.602 196.352 303.639 196.374 303.672L196.378 303.677Z" fill="#0C0C0C"/>
</g>
<path d="M74.449 269.5L126.1 352.455L93.653 347.178L169.159 288.837L196.673 324.446L121.167 382.787C118.83 384.593 116.161 385.92 113.311 386.694C110.461 387.468 107.486 387.673 104.557 387.298C101.628 386.922 98.8016 385.973 96.2392 384.505C93.6767 383.037 91.4286 381.079 89.623 378.742C89.4897 378.567 89.3563 378.391 89.223 378.213L88.717 377.513L31.61 298.213L74.449 269.5Z" fill="#5F22D9"/>
<path d="M59.858 753.219C59.858 753.219 63.576 772.492 81.622 773.566C99.668 774.64 95.754 789.016 95.754 789.016H26.8V754.563L59.858 753.219Z" fill="#5F22D9"/>
<path d="M38.588 401.641C38.588 401.641 38.805 395.847 38.759 408.99C38.588 458.012 37.737 514.007 35.659 546.773C32.318 599.448 23.751 765.519 23.751 765.519L69.065 765.138L112.985 399.649L38.588 401.641Z" fill="#262626"/>
<path d="M89.76 459.449C89.76 459.449 91.638 495.024 91.986 503.376C92.792 522.691 93.071 542.689 93.071 565.363L100.214 505.923C100.214 505.923 94.987 487.3 89.76 459.449Z" fill="#0A0A0A"/>
<path d="M140.53 753.219C140.53 753.219 144.248 772.492 162.293 773.566C180.338 774.64 176.425 789.016 176.425 789.016H107.466V754.563L140.53 753.219Z" fill="#5F22D9"/>
<path d="M162.47 405.447C162.47 405.447 166.484 572.994 165.896 581.183L149.044 764.25L104.479 765.073L108.822 574.561C108.822 574.561 105.758 522.009 93.061 473.21C86.5645 448.165 82.6547 422.519 81.393 396.676L162.47 405.447Z" fill="#262626"/>
<path d="M38.1 401.636L37.952 401.644C37.952 401.644 38.055 398.786 38.1 401.636Z" fill="#333333"/>
<path d="M168.849 312.448C167.915 323.427 163.369 391.924 162.47 405.448H38.638C37.938 393.248 34.798 339.918 32.145 316.067C29.613 293.307 29.27 281.527 32.912 274.799C38.863 263.799 50.497 257.831 61.585 256.33C68.356 255.414 78.539 254.757 78.539 254.757C78.539 254.757 79.4 272.2 99.96 273.169C127.947 274.489 126.079 254.756 126.217 254.756C130.751 254.756 153.641 256.89 159.479 261.382C171.955 270.979 170.833 289.182 168.849 312.448Z" fill="#5F22D9"/>
<path d="M137.568 255.386C137.438 255.369 133.868 268.815 105.98 266.723C86.675 265.277 81.968 252.136 81.525 252.136C83.607 251.694 86.987 251.236 87.911 250.741C89.5082 250.005 90.9139 248.911 92.0186 247.542C93.1234 246.174 93.8972 244.569 94.28 242.853C95.152 239.516 95.596 226.67 95.596 220.225L125.3 226.9C124.886 234.17 121.988 251.025 132.146 254.008C133.837 254.5 135.657 254.955 137.568 255.386Z" fill="#E98862"/>
<path d="M124.274 241.193C112.563 242.117 97.519 237.173 94.662 221.549L92.084 207.449C89.226 191.825 95.116 177.658 109.827 174.968C124.538 172.277 137.85 182.932 140.707 198.556L141.849 204.798C142.945 210.8 145.168 239.545 124.274 241.193Z" fill="#E98862"/>
<path d="M135.132 226.848C133.032 216.286 132.066 209.24 132.178 201.805C135.139 196.612 134.36 190.651 133.687 188.076C135.726 189.371 138.123 189.985 140.534 189.831C140.534 189.831 135.634 170.18 118.995 164.892C115.935 163.701 108.121 162.197 97.746 163.62C88.921 164.83 67.169 171.428 64.061 195.92V195.934C63.961 196.746 61.87 219.31 57.706 230.134C52.106 244.687 44.25 249.209 44.449 266C44.703 287.405 96.749 289.641 108.361 288.857C132.311 287.241 145.68 279.367 145.853 263.802C146.045 246.36 139.338 247.98 135.132 226.848Z" fill="#0A0A0A"/>
<path d="M335.711 155.325H175.029C172.292 155.325 170.074 157.543 170.074 160.28V291.992C170.074 294.729 172.292 296.947 175.029 296.947H335.711C338.448 296.947 340.666 294.729 340.666 291.992V160.28C340.666 157.543 338.448 155.325 335.711 155.325Z" fill="#5F22D9"/>
<path opacity="0.3" d="M335.711 155.325H175.029C172.292 155.325 170.074 157.543 170.074 160.28V291.992C170.074 294.729 172.292 296.947 175.029 296.947H335.711C338.448 296.947 340.666 294.729 340.666 291.992V160.28C340.666 157.543 338.448 155.325 335.711 155.325Z" fill="white"/>
<path opacity="0.8" d="M229.571 211.54C236.388 211.54 241.915 206.013 241.915 199.196C241.915 192.379 236.388 186.852 229.571 186.852C222.754 186.852 217.227 192.379 217.227 199.196C217.227 206.013 222.754 211.54 229.571 211.54Z" fill="white"/>
<path opacity="0.5" d="M246.568 256.909L282.352 216.989C284.586 214.496 287.713 212.985 291.054 212.783C294.396 212.581 297.682 213.704 300.2 215.91L340.669 251.342V296.948H291.749" fill="white"/>
<path opacity="0.8" d="M291.749 296.948L214.156 228.185C211.863 226.153 208.914 225.017 205.85 224.986C202.787 224.956 199.815 226.032 197.482 228.017L170.074 251.342V296.948" fill="white"/>
<path d="M335.71 297.7H175.029C173.518 297.697 172.07 297.096 171.002 296.027C169.933 294.959 169.332 293.511 169.329 292V160.28C169.331 158.768 169.932 157.319 171 156.25C172.069 155.18 173.517 154.578 175.029 154.575H335.71C337.223 154.577 338.673 155.178 339.742 156.248C340.812 157.317 341.414 158.767 341.416 160.28V291.992C341.415 293.505 340.814 294.956 339.744 296.026C338.674 297.096 337.223 297.698 335.71 297.7ZM175.029 156.075C173.915 156.078 172.848 156.522 172.06 157.31C171.273 158.098 170.83 159.166 170.829 160.28V291.992C170.831 293.105 171.275 294.172 172.062 294.959C172.849 295.746 173.916 296.19 175.029 296.192H335.71C336.824 296.191 337.892 295.748 338.681 294.961C339.469 294.174 339.913 293.106 339.916 291.992V160.28C339.914 159.165 339.471 158.096 338.682 157.308C337.894 156.52 336.825 156.076 335.71 156.075H175.029Z" fill="#292A2E"/>
<path d="M268.849 297.663L280.011 280.3C280.256 279.918 280.578 279.592 280.957 279.342C281.335 279.092 281.761 278.923 282.208 278.846C282.656 278.77 283.114 278.787 283.554 278.898C283.994 279.008 284.406 279.209 284.764 279.487C285.409 280.021 285.833 280.776 285.953 281.605C286.073 282.434 285.882 283.278 285.415 283.974L283.021 287.698L295.921 279.443C297.339 278.5 299.683 278.25 300.635 279.911C301.044 280.526 301.231 281.262 301.168 281.997C301.105 282.733 300.794 283.426 300.287 283.962C300.299 283.973 300.31 283.985 300.32 283.998C300.325 284.01 300.33 284.022 300.333 284.034L302.521 282.58C302.926 282.311 303.386 282.136 303.868 282.067C304.349 281.998 304.84 282.038 305.305 282.183C305.769 282.328 306.195 282.575 306.552 282.905C306.909 283.236 307.187 283.642 307.367 284.094C307.636 284.811 307.651 285.599 307.409 286.326C307.166 287.053 306.682 287.675 306.036 288.087L305.105 288.706C305.111 288.741 305.111 288.777 305.105 288.812C305.831 288.54 306.629 288.535 307.358 288.798C308.087 289.061 308.699 289.575 309.084 290.247C309.484 290.995 309.587 291.867 309.372 292.688C309.158 293.509 308.642 294.219 307.927 294.676L305.615 296.212C305.663 296.213 305.71 296.226 305.752 296.249C305.794 296.272 305.83 296.305 305.857 296.345C305.887 296.394 305.902 296.45 305.9 296.507C306.614 296.444 307.328 296.618 307.933 297.001C308.539 297.383 309.002 297.954 309.251 298.626C309.499 299.337 309.499 300.111 309.252 300.822C309.005 301.533 308.525 302.14 307.89 302.544L288.384 315.509C285.655 317.323 282.447 318.281 279.17 318.259C275.893 318.238 272.698 317.238 269.993 315.388C267.661 313.793 266.044 311.351 265.484 308.582C264.923 305.813 265.465 302.935 266.993 300.559L268.849 297.663Z" fill="#E98862"/>
<g opacity="0.2">
<path d="M287.559 292.194C287.603 292.26 287.671 292.305 287.748 292.321C287.825 292.337 287.906 292.322 287.972 292.279L300.231 284.413C300.264 284.392 300.293 284.364 300.316 284.331C300.338 284.299 300.354 284.262 300.363 284.223C300.371 284.185 300.372 284.145 300.365 284.106C300.358 284.067 300.343 284.03 300.321 283.996C300.3 283.963 300.272 283.934 300.24 283.912C300.207 283.889 300.171 283.873 300.132 283.865C300.093 283.857 300.053 283.856 300.014 283.863C299.975 283.87 299.938 283.885 299.905 283.906L287.646 291.772C287.613 291.793 287.584 291.821 287.561 291.853C287.538 291.886 287.522 291.922 287.514 291.961C287.505 292 287.505 292.04 287.512 292.079C287.519 292.118 287.533 292.155 287.555 292.188L287.559 292.194Z" fill="#0C0C0C"/>
</g>
<g opacity="0.2">
<path d="M290.879 297.7C290.923 297.766 290.991 297.811 291.068 297.827C291.145 297.843 291.226 297.828 291.292 297.785L304.973 289C305.007 288.979 305.036 288.951 305.058 288.919C305.081 288.886 305.097 288.849 305.106 288.811C305.114 288.772 305.115 288.732 305.108 288.693C305.1 288.654 305.086 288.616 305.064 288.583C305.019 288.518 304.951 288.473 304.873 288.456C304.796 288.439 304.715 288.452 304.647 288.493L290.966 297.271C290.932 297.292 290.903 297.32 290.881 297.352C290.858 297.385 290.842 297.422 290.833 297.46C290.825 297.499 290.824 297.539 290.831 297.578C290.839 297.617 290.853 297.655 290.875 297.688L290.879 297.7Z" fill="#0C0C0C"/>
</g>
<g opacity="0.2">
<path d="M294.441 303.677C294.485 303.742 294.553 303.788 294.63 303.804C294.707 303.82 294.787 303.805 294.853 303.762L305.767 296.762C305.834 296.719 305.882 296.651 305.898 296.572C305.915 296.494 305.901 296.413 305.858 296.345C305.814 296.278 305.746 296.231 305.668 296.214C305.59 296.197 305.508 296.212 305.441 296.255L294.528 303.255C294.494 303.276 294.465 303.304 294.443 303.336C294.42 303.369 294.404 303.406 294.395 303.444C294.387 303.483 294.386 303.523 294.393 303.562C294.401 303.601 294.415 303.639 294.437 303.672L294.441 303.677Z" fill="#0C0C0C"/>
</g>
<path d="M163.133 265.553L223.475 351.483L191.719 347.178L267.224 288.837L294.738 324.446L219.232 382.787C214.567 386.392 208.673 388.021 202.819 387.324C196.965 386.626 191.619 383.658 187.932 379.057L187.472 378.482L121.88 296.493L163.133 265.553Z" fill="#5F22D9"/>
<path d="M1 790.016H659.139C659.404 790.016 659.659 789.911 659.846 789.723C660.034 789.536 660.139 789.281 660.139 789.016C660.139 788.751 660.034 788.496 659.846 788.309C659.659 788.121 659.404 788.016 659.139 788.016H1C0.734784 788.016 0.48043 788.121 0.292893 788.309C0.105357 788.496 0 788.751 0 789.016C0 789.281 0.105357 789.536 0.292893 789.723C0.48043 789.911 0.734784 790.016 1 790.016Z" fill="#262626"/>
</g>
<defs>
<clipPath id="clip0_1_893">
<rect width="692.18" height="790.016" fill="white"/>
</clipPath>
</defs>
</svg>
