<svg width="963" height="965" viewBox="0 0 963 965" fill="none" xmlns="http://www.w3.org/2000/svg">
<g clip-path="url(#clip0_1_1195)">
<path d="M780.434 637.627H545.512C535.948 637.627 528.194 645.381 528.194 654.945V782.344C528.194 791.908 535.948 799.662 545.512 799.662H780.434C789.998 799.662 797.752 791.908 797.752 782.344V654.945C797.752 645.381 789.998 637.627 780.434 637.627Z" fill="white"/>
<path opacity="0.1" d="M780.434 637.627H545.512C535.948 637.627 528.194 645.381 528.194 654.945V782.344C528.194 791.908 535.948 799.662 545.512 799.662H780.434C789.998 799.662 797.752 791.908 797.752 782.344V654.945C797.752 645.381 789.998 637.627 780.434 637.627Z" fill="#367CFF"/>
<path d="M723.501 724.509H702.7C701.434 724.509 700.407 725.536 700.407 726.802V772.908C700.407 774.174 701.434 775.201 702.7 775.201H723.501C724.767 775.201 725.794 774.174 725.794 772.908V726.802C725.794 725.536 724.767 724.509 723.501 724.509Z" fill="white"/>
<path d="M773.628 685.085H752.827C751.561 685.085 750.534 686.112 750.534 687.378V772.908C750.534 774.174 751.561 775.201 752.827 775.201H773.628C774.894 775.201 775.921 774.174 775.921 772.908V687.378C775.921 686.112 774.894 685.085 773.628 685.085Z" fill="white"/>
<path d="M573.118 724.509H552.317C551.051 724.509 550.024 725.536 550.024 726.802V772.908C550.024 774.174 551.051 775.201 552.317 775.201H573.118C574.384 775.201 575.411 774.174 575.411 772.908V726.802C575.411 725.536 574.384 724.509 573.118 724.509Z" fill="white"/>
<path d="M623.246 667.159H602.445C601.179 667.159 600.152 668.186 600.152 669.452V772.908C600.152 774.174 601.179 775.201 602.445 775.201H623.246C624.512 775.201 625.539 774.174 625.539 772.908V669.452C625.539 668.186 624.512 667.159 623.246 667.159Z" fill="white"/>
<path d="M673.373 713.147H652.572C651.306 713.147 650.279 714.174 650.279 715.44V772.908C650.279 774.174 651.306 775.201 652.572 775.201H673.373C674.639 775.201 675.666 774.174 675.666 772.908V715.44C675.666 714.174 674.639 713.147 673.373 713.147Z" fill="white"/>
<path d="M357.632 538.525H59.473C47.3338 538.525 37.493 548.366 37.493 560.505V722.197C37.493 734.336 47.3338 744.177 59.473 744.177H357.632C369.771 744.177 379.612 734.336 379.612 722.197V560.505C379.612 548.366 369.771 538.525 357.632 538.525Z" fill="white"/>
<path opacity="0.1" d="M357.632 538.525H59.473C47.3338 538.525 37.493 548.366 37.493 560.505V722.197C37.493 734.336 47.3338 744.177 59.473 744.177H357.632C369.771 744.177 379.612 734.336 379.612 722.197V560.505C379.612 548.366 369.771 538.525 357.632 538.525Z" fill="#367CFF"/>
<path d="M285.374 648.795H258.973C257.366 648.795 256.063 650.098 256.063 651.705V710.222C256.063 711.829 257.366 713.132 258.973 713.132H285.374C286.981 713.132 288.284 711.829 288.284 710.222V651.705C288.284 650.098 286.981 648.795 285.374 648.795Z" fill="white"/>
<path d="M348.995 598.759H322.594C320.987 598.759 319.684 600.062 319.684 601.669V710.223C319.684 711.83 320.987 713.133 322.594 713.133H348.995C350.602 713.133 351.905 711.83 351.905 710.223V601.669C351.905 600.062 350.602 598.759 348.995 598.759Z" fill="white"/>
<path d="M94.51 648.795H68.109C66.5019 648.795 65.199 650.098 65.199 651.705V710.222C65.199 711.829 66.5019 713.132 68.109 713.132H94.51C96.1172 713.132 97.42 711.829 97.42 710.222V651.705C97.42 650.098 96.1172 648.795 94.51 648.795Z" fill="white"/>
<path d="M158.131 576.008H131.73C130.123 576.008 128.82 577.311 128.82 578.918V710.222C128.82 711.829 130.123 713.132 131.73 713.132H158.131C159.738 713.132 161.041 711.829 161.041 710.222V578.918C161.041 577.311 159.738 576.008 158.131 576.008Z" fill="white"/>
<path d="M221.753 634.374H195.352C193.745 634.374 192.442 635.677 192.442 637.284V710.222C192.442 711.829 193.745 713.132 195.352 713.132H221.753C223.36 713.132 224.663 711.829 224.663 710.222V637.284C224.663 635.677 223.36 634.374 221.753 634.374Z" fill="white"/>
<path d="M922.922 0H580.489C566.547 0 555.245 11.3021 555.245 25.244V210.947C555.245 224.889 566.547 236.191 580.489 236.191H922.922C936.864 236.191 948.166 224.889 948.166 210.947V25.244C948.166 11.3021 936.864 0 922.922 0Z" fill="white"/>
<path opacity="0.1" d="M922.922 0H580.489C566.547 0 555.245 11.3021 555.245 25.244V210.947C555.245 224.889 566.547 236.191 580.489 236.191H922.922C936.864 236.191 948.166 224.889 948.166 210.947V25.244C948.166 11.3021 936.864 0 922.922 0Z" fill="#367CFF"/>
<path d="M839.935 126.645H809.614C807.768 126.645 806.272 128.141 806.272 129.987V197.194C806.272 199.04 807.768 200.536 809.614 200.536H839.935C841.781 200.536 843.277 199.04 843.277 197.194V129.987C843.277 128.141 841.781 126.645 839.935 126.645Z" fill="white"/>
<path d="M913.003 69.178H882.682C880.836 69.178 879.34 70.6743 879.34 72.52V197.194C879.34 199.04 880.836 200.536 882.682 200.536H913.003C914.849 200.536 916.345 199.04 916.345 197.194V72.52C916.345 70.6743 914.849 69.178 913.003 69.178Z" fill="white"/>
<path d="M620.729 126.645H590.408C588.562 126.645 587.066 128.141 587.066 129.987V197.194C587.066 199.04 588.562 200.536 590.408 200.536H620.729C622.575 200.536 624.071 199.04 624.071 197.194V129.987C624.071 128.141 622.575 126.645 620.729 126.645Z" fill="white"/>
<path d="M693.798 43.049H663.477C661.631 43.049 660.135 44.5453 660.135 46.391V197.194C660.135 199.04 661.631 200.536 663.477 200.536H693.798C695.644 200.536 697.14 199.04 697.14 197.194V46.391C697.14 44.5453 695.644 43.049 693.798 43.049Z" fill="white"/>
<path d="M766.866 110.082H736.545C734.699 110.082 733.203 111.578 733.203 113.424V197.193C733.203 199.039 734.699 200.535 736.545 200.535H766.866C768.712 200.535 770.208 199.039 770.208 197.193V113.424C770.208 111.578 768.712 110.082 766.866 110.082Z" fill="white"/>
<path d="M179.362 194.948H12.314C5.51317 194.948 0 200.461 0 207.262V297.853C0 304.654 5.51317 310.167 12.314 310.167H179.362C186.163 310.167 191.676 304.654 191.676 297.853V207.262C191.676 200.461 186.163 194.948 179.362 194.948Z" fill="white"/>
<path opacity="0.3" d="M179.362 194.948H12.314C5.51317 194.948 0 200.461 0 207.262V297.853C0 304.654 5.51317 310.167 12.314 310.167H179.362C186.163 310.167 191.676 304.654 191.676 297.853V207.262C191.676 200.461 186.163 194.948 179.362 194.948Z" fill="#367CFF"/>
<path d="M138.879 256.728H124.087C123.187 256.728 122.457 257.458 122.457 258.358V291.144C122.457 292.044 123.187 292.774 124.087 292.774H138.879C139.779 292.774 140.509 292.044 140.509 291.144V258.358C140.509 257.458 139.779 256.728 138.879 256.728Z" fill="white"/>
<path d="M174.523 228.694H159.731C158.831 228.694 158.101 229.424 158.101 230.324V291.143C158.101 292.043 158.831 292.773 159.731 292.773H174.523C175.423 292.773 176.153 292.043 176.153 291.143V230.324C176.153 229.424 175.423 228.694 174.523 228.694Z" fill="white"/>
<path d="M31.945 256.728H17.153C16.2528 256.728 15.523 257.458 15.523 258.358V291.144C15.523 292.044 16.2528 292.774 17.153 292.774H31.945C32.8452 292.774 33.575 292.044 33.575 291.144V258.358C33.575 257.458 32.8452 256.728 31.945 256.728Z" fill="white"/>
<path d="M67.59 215.948H52.798C51.8978 215.948 51.168 216.678 51.168 217.578V291.144C51.168 292.044 51.8978 292.774 52.798 292.774H67.59C68.4902 292.774 69.22 292.044 69.22 291.144V217.578C69.22 216.678 68.4902 215.948 67.59 215.948Z" fill="white"/>
<path d="M103.234 248.648H88.442C87.5418 248.648 86.812 249.378 86.812 250.278V291.143C86.812 292.043 87.5418 292.773 88.442 292.773H103.234C104.134 292.773 104.864 292.043 104.864 291.143V250.278C104.864 249.378 104.134 248.648 103.234 248.648Z" fill="white"/>
<path d="M159.259 603.337L833.947 603.337C850.516 603.337 863.947 589.906 863.947 573.337L863.947 79.362C863.947 62.7935 850.516 49.362 833.947 49.362L159.259 49.362C142.69 49.362 129.259 62.7935 129.259 79.362L129.259 573.337C129.259 589.906 142.69 603.337 159.259 603.337Z" fill="white"/>
<path d="M128.258 573.337V79.362C128.267 71.1431 131.536 63.2635 137.348 57.4519C143.16 51.6403 151.039 48.3713 159.258 48.362H833.946C842.165 48.3713 850.044 51.6403 855.856 57.4519C861.668 63.2635 864.937 71.1431 864.946 79.362V573.337C864.937 581.556 861.668 589.435 855.856 595.247C850.044 601.059 842.165 604.328 833.946 604.337H159.258C151.039 604.328 143.16 601.059 137.348 595.247C131.536 589.435 128.267 581.556 128.258 573.337ZM159.258 50.362C151.569 50.371 144.198 53.4292 138.762 58.8658C133.325 64.3024 130.267 71.6735 130.258 79.362V573.337C130.267 581.026 133.325 588.397 138.762 593.833C144.198 599.27 151.569 602.328 159.258 602.337H833.946C841.635 602.329 849.006 599.27 854.443 593.834C859.879 588.397 862.938 581.026 862.946 573.337V79.362C862.937 71.6734 859.879 64.3022 854.442 58.8656C849.006 53.4289 841.635 50.3707 833.946 50.362H159.258Z" fill="#292A2E"/>
<path d="M129.259 79.359V109.546H863.943V79.359C863.943 71.4025 860.782 63.7719 855.156 58.1458C849.53 52.5197 841.899 49.359 833.943 49.359H159.259C151.303 49.359 143.672 52.5197 138.046 58.1458C132.42 63.7719 129.259 71.4025 129.259 79.359Z" fill="#292A2E"/>
<path d="M824.25 138.231H537.982C530.955 138.231 525.259 143.927 525.259 150.954V353.462C525.259 360.489 530.955 366.185 537.982 366.185H824.25C831.277 366.185 836.973 360.489 836.973 353.462V150.954C836.973 143.927 831.277 138.231 824.25 138.231Z" fill="white"/>
<path opacity="0.15" d="M824.25 138.231H537.982C530.955 138.231 525.259 143.927 525.259 150.954V353.462C525.259 360.489 530.955 366.185 537.982 366.185H824.25C831.277 366.185 836.973 360.489 836.973 353.462V150.954C836.973 143.927 831.277 138.231 824.25 138.231Z" fill="#367CFF"/>
<path d="M581.21 166.676H556.469C555.32 166.676 554.388 167.608 554.388 168.757V335.659C554.388 336.808 555.32 337.74 556.469 337.74H581.21C582.359 337.74 583.291 336.808 583.291 335.659V168.757C583.291 167.608 582.359 166.676 581.21 166.676Z" fill="#FAFAFA"/>
<path opacity="0.6" d="M554.388 250.529H583.288V335.659C583.288 336.211 583.069 336.74 582.678 337.13C582.288 337.521 581.759 337.74 581.207 337.74H556.469C555.917 337.74 555.388 337.521 554.997 337.13C554.607 336.74 554.388 336.211 554.388 335.659V250.529Z" fill="#367CFF"/>
<path d="M637.348 166.676H612.607C611.458 166.676 610.526 167.608 610.526 168.757V335.659C610.526 336.808 611.458 337.74 612.607 337.74H637.348C638.497 337.74 639.429 336.808 639.429 335.659V168.757C639.429 167.608 638.497 166.676 637.348 166.676Z" fill="#FAFAFA"/>
<path opacity="0.6" d="M610.526 226.82H639.426V335.658C639.426 336.21 639.207 336.739 638.816 337.129C638.426 337.52 637.897 337.739 637.345 337.739H612.607C612.055 337.739 611.526 337.52 611.135 337.129C610.745 336.739 610.526 336.21 610.526 335.658V226.82Z" fill="#367CFF"/>
<path d="M805.763 166.676H781.022C779.873 166.676 778.941 167.608 778.941 168.757V335.659C778.941 336.808 779.873 337.74 781.022 337.74H805.763C806.912 337.74 807.844 336.808 807.844 335.659V168.757C807.844 167.608 806.912 166.676 805.763 166.676Z" fill="#FAFAFA"/>
<path opacity="0.6" d="M778.941 202.9H807.841V335.66C807.841 336.212 807.622 336.741 807.232 337.132C806.841 337.522 806.312 337.741 805.76 337.741H781.023C780.471 337.741 779.942 337.522 779.552 337.132C779.161 336.741 778.942 336.212 778.942 335.66V202.9H778.941Z" fill="#367CFF"/>
<path d="M693.487 166.676H668.746C667.597 166.676 666.665 167.608 666.665 168.757V335.659C666.665 336.808 667.597 337.74 668.746 337.74H693.487C694.636 337.74 695.568 336.808 695.568 335.659V168.757C695.568 167.608 694.636 166.676 693.487 166.676Z" fill="#FAFAFA"/>
<path opacity="0.6" d="M666.665 288.876H695.565V335.659C695.565 336.211 695.346 336.74 694.956 337.13C694.565 337.521 694.036 337.74 693.484 337.74H668.746C668.194 337.74 667.665 337.521 667.275 337.13C666.884 336.74 666.665 336.211 666.665 335.659V288.876Z" fill="#367CFF"/>
<path d="M749.625 166.676H724.884C723.735 166.676 722.803 167.608 722.803 168.757V335.659C722.803 336.808 723.735 337.74 724.884 337.74H749.625C750.774 337.74 751.706 336.808 751.706 335.659V168.757C751.706 167.608 750.774 166.676 749.625 166.676Z" fill="#FAFAFA"/>
<path opacity="0.6" d="M722.8 258.984H751.7V335.658C751.7 336.21 751.481 336.739 751.091 337.129C750.7 337.52 750.171 337.739 749.619 337.739H724.884C724.611 337.739 724.34 337.685 724.088 337.581C723.835 337.476 723.606 337.323 723.413 337.129C723.219 336.936 723.066 336.707 722.961 336.454C722.857 336.202 722.803 335.931 722.803 335.658V258.984H722.8Z" fill="#367CFF"/>
<path opacity="0.15" d="M818.76 388.498H540.028C529.969 388.498 521.815 396.652 521.815 406.711V557.642C521.815 567.701 529.969 575.855 540.028 575.855H818.76C828.819 575.855 836.973 567.701 836.973 557.642V406.711C836.973 396.652 828.819 388.498 818.76 388.498Z" fill="#367CFF"/>
<path d="M710.338 435.297C714.077 435.297 717.108 432.266 717.108 428.527C717.108 424.788 714.077 421.757 710.338 421.757C706.599 421.757 703.568 424.788 703.568 428.527C703.568 432.266 706.599 435.297 710.338 435.297Z" fill="#367CFF"/>
<path d="M710.338 469.808C714.077 469.808 717.108 466.777 717.108 463.038C717.108 459.299 714.077 456.268 710.338 456.268C706.599 456.268 703.568 459.299 703.568 463.038C703.568 466.777 706.599 469.808 710.338 469.808Z" fill="#262626"/>
<path d="M710.338 504.32C714.077 504.32 717.108 501.289 717.108 497.55C717.108 493.811 714.077 490.78 710.338 490.78C706.599 490.78 703.568 493.811 703.568 497.55C703.568 501.289 706.599 504.32 710.338 504.32Z" fill="white"/>
<path opacity="0.5" d="M710.338 538.831C714.077 538.831 717.108 535.8 717.108 532.061C717.108 528.322 714.077 525.291 710.338 525.291C706.599 525.291 703.568 528.322 703.568 532.061C703.568 535.8 706.599 538.831 710.338 538.831Z" fill="#367CFF"/>
<path d="M804.289 428.524C804.289 429.54 803.886 430.514 803.167 431.232C802.449 431.95 801.475 432.354 800.459 432.354H735.385C734.48 432.371 733.596 432.076 732.882 431.519C732.169 430.962 731.668 430.176 731.464 429.294C731.35 428.737 731.362 428.161 731.498 427.609C731.635 427.057 731.892 426.543 732.252 426.102C732.611 425.662 733.064 425.307 733.578 425.064C734.092 424.82 734.653 424.694 735.222 424.694H800.459C800.962 424.694 801.46 424.793 801.925 424.985C802.39 425.178 802.812 425.46 803.168 425.815C803.523 426.171 803.805 426.593 803.998 427.058C804.19 427.523 804.289 428.021 804.289 428.524Z" fill="white"/>
<path d="M804.289 463.037C804.289 464.053 803.886 465.027 803.167 465.745C802.449 466.463 801.475 466.867 800.459 466.867H735.424C734.893 466.875 734.366 466.776 733.873 466.577C733.381 466.377 732.934 466.081 732.558 465.706C732.182 465.33 731.885 464.883 731.685 464.391C731.485 463.899 731.386 463.372 731.393 462.841C731.444 461.86 731.87 460.936 732.583 460.26C733.295 459.584 734.24 459.208 735.222 459.208H800.459C800.962 459.208 801.46 459.307 801.925 459.499C802.389 459.692 802.812 459.974 803.167 460.329C803.523 460.685 803.805 461.107 803.997 461.571C804.19 462.036 804.289 462.534 804.289 463.037Z" fill="white"/>
<path d="M804.289 497.55C804.289 498.566 803.886 499.54 803.167 500.258C802.449 500.976 801.475 501.38 800.459 501.38H734.827C733.915 501.38 733.04 501.018 732.395 500.372C731.749 499.727 731.387 498.852 731.387 497.94V497.161C731.387 496.249 731.749 495.374 732.395 494.729C733.04 494.083 733.915 493.721 734.827 493.721H800.459C800.962 493.721 801.46 493.82 801.925 494.012C802.389 494.205 802.812 494.487 803.167 494.842C803.523 495.198 803.805 495.62 803.997 496.084C804.19 496.549 804.289 497.047 804.289 497.55Z" fill="white"/>
<path d="M804.289 532.063C804.289 533.079 803.886 534.053 803.167 534.771C802.449 535.49 801.475 535.893 800.459 535.893H735.4C734.493 535.91 733.608 535.616 732.892 535.06C732.176 534.504 731.672 533.719 731.464 532.836C731.35 532.279 731.362 531.704 731.498 531.152C731.634 530.6 731.891 530.085 732.251 529.645C732.61 529.204 733.063 528.85 733.577 528.606C734.09 528.362 734.652 528.236 735.22 528.236H800.457C800.96 528.236 801.458 528.334 801.923 528.526C802.388 528.719 802.81 529 803.166 529.356C803.522 529.711 803.804 530.133 803.997 530.598C804.189 531.062 804.289 531.56 804.289 532.063Z" fill="white"/>
<path d="M583.312 480.294C583.314 488.547 585.874 496.595 590.641 503.332C595.408 510.069 602.146 515.161 609.928 517.909L598.984 544.6C583.932 538.928 571.348 528.154 563.423 514.157C555.499 500.159 552.736 483.825 555.618 468C558.499 452.175 566.841 437.863 579.19 427.556C591.54 417.25 607.114 411.603 623.199 411.6V440.414C612.621 440.414 602.477 444.615 594.997 452.094C587.517 459.573 583.314 469.716 583.312 480.294Z" fill="#367CFF"/>
<path d="M691.9 480.294H663.085C663.085 469.716 658.883 459.571 651.403 452.091C643.923 444.611 633.778 440.408 623.2 440.408V411.594C641.42 411.594 658.895 418.832 671.778 431.716C684.662 444.6 691.9 462.074 691.9 480.294Z" fill="#262626"/>
<path d="M691.9 480.294C691.898 495.861 686.612 510.966 676.906 523.136C667.201 535.307 653.651 543.822 638.475 547.288L633.594 518.806C642.058 516.519 649.534 511.507 654.864 504.546C660.195 497.585 663.085 489.062 663.086 480.294H691.9Z" fill="white"/>
<path opacity="0.5" d="M638.474 547.288C625.33 550.266 611.602 549.33 598.984 544.597L609.928 517.909C617.546 520.583 625.794 520.897 633.593 518.809L638.474 547.288Z" fill="#367CFF"/>
<path opacity="0.15" d="M481.824 138.231H174.195C164.254 138.231 156.195 146.29 156.195 156.231V557.855C156.195 567.796 164.254 575.855 174.195 575.855H481.824C491.765 575.855 499.824 567.796 499.824 557.855V156.231C499.824 146.29 491.765 138.231 481.824 138.231Z" fill="#367CFF"/>
<path d="M420.981 309.027C420.981 328.996 415.06 348.517 403.966 365.12C392.872 381.724 377.103 394.665 358.654 402.307C340.205 409.949 319.905 411.949 300.319 408.053C280.734 404.157 262.744 394.542 248.623 380.421C234.503 366.301 224.887 348.311 220.991 328.726C217.095 309.14 219.095 288.84 226.736 270.391C234.378 251.942 247.319 236.173 263.923 225.079C280.526 213.985 300.047 208.063 320.016 208.063V309.027H420.981Z" fill="#FAFAFA"/>
<path opacity="0.6" d="M433.36 295.912H332.4V194.948C359.177 194.949 384.856 205.587 403.79 224.521C422.723 243.455 433.36 269.135 433.36 295.912Z" fill="#367CFF"/>
<path opacity="0.6" d="M215.322 467.267C219.061 467.267 222.092 464.236 222.092 460.497C222.092 456.758 219.061 453.727 215.322 453.727C211.583 453.727 208.552 456.758 208.552 460.497C208.552 464.236 211.583 467.267 215.322 467.267Z" fill="#367CFF"/>
<path d="M215.322 501.779C219.061 501.779 222.092 498.748 222.092 495.009C222.092 491.27 219.061 488.239 215.322 488.239C211.583 488.239 208.552 491.27 208.552 495.009C208.552 498.748 211.583 501.779 215.322 501.779Z" fill="#FAFAFA"/>
<path opacity="0.6" d="M447.272 460.5C447.272 461.516 446.868 462.49 446.15 463.208C445.432 463.926 444.458 464.33 443.442 464.33H240.369C239.463 464.347 238.58 464.052 237.866 463.494C237.152 462.937 236.651 462.151 236.447 461.269C236.334 460.712 236.345 460.136 236.482 459.584C236.618 459.032 236.876 458.518 237.235 458.077C237.595 457.637 238.048 457.282 238.562 457.039C239.076 456.795 239.637 456.669 240.206 456.669H443.442C443.945 456.669 444.443 456.768 444.908 456.961C445.373 457.153 445.795 457.435 446.151 457.791C446.506 458.147 446.788 458.569 446.981 459.034C447.173 459.499 447.272 459.997 447.272 460.5Z" fill="#367CFF"/>
<path d="M447.272 495.008C447.272 496.024 446.868 496.998 446.15 497.716C445.432 498.435 444.458 498.838 443.442 498.838H240.408C239.877 498.846 239.349 498.747 238.857 498.548C238.365 498.348 237.917 498.052 237.541 497.677C237.165 497.302 236.869 496.855 236.668 496.363C236.468 495.87 236.369 495.343 236.376 494.812C236.427 493.831 236.853 492.907 237.566 492.231C238.279 491.555 239.224 491.178 240.206 491.178H443.442C443.945 491.178 444.443 491.277 444.908 491.47C445.372 491.662 445.795 491.944 446.15 492.3C446.506 492.655 446.788 493.078 446.98 493.542C447.173 494.007 447.272 494.505 447.272 495.008Z" fill="white"/>
<path d="M126.855 857.059C126.747 857.059 126.64 857.038 126.54 856.997C126.441 856.955 126.35 856.895 126.274 856.818C125.115 855.66 123.228 834.411 118.143 771.144C116.062 745.256 114.096 720.804 112.662 705.944C112.562 704.883 112.148 704.759 112.013 704.719C110.05 704.127 104.079 708.835 100.746 712.958C100.678 713.042 100.594 713.112 100.499 713.163C100.405 713.215 100.301 713.247 100.193 713.259C100.086 713.27 99.9771 713.26 99.8736 713.23C99.77 713.199 99.6735 713.148 99.5895 713.081C99.5055 713.013 99.4357 712.929 99.3841 712.834C99.3325 712.739 99.3001 712.635 99.2887 712.528C99.2774 712.42 99.2872 712.312 99.3178 712.208C99.3484 712.105 99.3991 712.008 99.467 711.924C101.667 709.198 108.856 702.052 112.486 703.144C113.032 703.331 113.503 703.689 113.829 704.165C114.156 704.641 114.321 705.209 114.299 705.786C115.734 720.659 117.699 745.118 119.782 771.012C122.872 809.458 126.372 853.012 127.523 855.757C127.61 855.88 127.662 856.025 127.673 856.175C127.684 856.325 127.653 856.476 127.584 856.61C127.515 856.744 127.411 856.857 127.282 856.936C127.154 857.015 127.006 857.057 126.855 857.057V857.059Z" fill="#494949"/>
<path d="M110.552 733.213C124.193 722.279 128.714 705.261 120.65 695.201C112.587 685.141 94.992 685.85 81.3513 696.784C67.7107 707.718 63.1896 724.737 71.2532 734.797C79.3168 744.856 96.9116 744.147 110.552 733.213Z" fill="#0CBC8B"/>
<path opacity="0.2" d="M110.552 733.213C124.193 722.279 128.714 705.261 120.65 695.201C112.587 685.141 94.992 685.85 81.3513 696.784C67.7107 707.718 63.1896 724.737 71.2532 734.797C79.3168 744.856 96.9116 744.147 110.552 733.213Z" fill="white"/>
<path d="M75.075 737.354C74.9971 737.354 74.9208 737.332 74.855 737.29C74.7893 737.248 74.7368 737.188 74.7036 737.118C74.6705 737.047 74.6581 736.969 74.6679 736.891C74.6777 736.814 74.7093 736.741 74.759 736.681L113.634 689.801C113.704 689.717 113.804 689.664 113.912 689.654C114.021 689.644 114.129 689.677 114.213 689.747C114.297 689.817 114.35 689.917 114.36 690.025C114.37 690.134 114.337 690.242 114.267 690.326L75.392 737.206C75.3534 737.253 75.3049 737.29 75.2501 737.316C75.1953 737.341 75.1355 737.354 75.075 737.354Z" fill="white"/>
<path d="M135.334 847.009C135.203 847.009 135.074 846.977 134.958 846.917C134.841 846.857 134.741 846.77 134.665 846.663C134.589 846.556 134.54 846.432 134.521 846.303C134.503 846.173 134.515 846.041 134.558 845.917L149.158 803.922C149.587 802.688 150.32 801.581 151.288 800.703C152.256 799.825 153.429 799.205 154.7 798.898C155.97 798.592 157.297 798.609 158.559 798.948C159.821 799.288 160.978 799.938 161.923 800.841L169.643 808.216C169.796 808.368 169.883 808.573 169.886 808.789C169.889 809.004 169.807 809.212 169.658 809.368C169.509 809.523 169.305 809.614 169.09 809.621C168.875 809.628 168.665 809.55 168.507 809.404L160.787 802.03C160.041 801.317 159.128 800.803 158.132 800.535C157.135 800.267 156.088 800.253 155.085 800.495C154.082 800.737 153.156 801.227 152.391 801.921C151.627 802.614 151.049 803.487 150.71 804.462L136.11 846.462C136.053 846.622 135.948 846.761 135.809 846.859C135.67 846.957 135.504 847.009 135.334 847.009Z" fill="#494949"/>
<path d="M191.211 831.465C201.32 823.463 200.719 805.865 189.869 792.157C179.019 778.449 162.028 773.824 151.919 781.825C141.81 789.827 142.411 807.426 153.261 821.133C164.111 834.841 181.102 839.467 191.211 831.465Z" fill="#0CBC8B"/>
<path d="M120.221 854.381C120.036 854.381 119.857 854.319 119.712 854.204C119.566 854.09 119.464 853.93 119.421 853.75L94.921 751.288C94.7539 750.589 94.3974 749.95 93.8906 749.441C93.3839 748.932 92.7465 748.573 92.0486 748.402C91.3507 748.232 90.6194 748.258 89.9351 748.476C89.2508 748.695 88.64 749.098 88.17 749.641L80.616 758.37C80.5465 758.455 80.4606 758.525 80.3634 758.577C80.2663 758.628 80.1598 758.659 80.0504 758.669C79.9409 758.678 79.8307 758.666 79.7262 758.632C79.6217 758.598 79.525 758.543 79.4419 758.471C79.3588 758.4 79.291 758.312 79.2424 758.213C79.1938 758.115 79.1655 758.007 79.1591 757.898C79.1526 757.788 79.1682 757.678 79.205 757.575C79.2417 757.471 79.2989 757.376 79.373 757.295L86.927 748.565C87.5951 747.793 88.4631 747.221 89.4354 746.911C90.4077 746.601 91.4468 746.564 92.4383 746.806C93.4298 747.048 94.3354 747.559 95.0555 748.282C95.7756 749.006 96.2824 749.913 96.52 750.906L121.02 853.368C121.045 853.473 121.049 853.582 121.032 853.688C121.015 853.795 120.978 853.897 120.921 853.989C120.865 854.081 120.791 854.161 120.703 854.224C120.616 854.288 120.517 854.333 120.412 854.358C120.35 854.373 120.285 854.381 120.221 854.381Z" fill="#494949"/>
<path d="M111.179 781.137C114.158 763.911 106.274 748.165 93.5703 745.968C80.8663 743.772 68.1528 755.955 65.1739 773.182C62.195 790.408 70.0787 806.154 82.7827 808.351C95.4867 810.547 108.2 798.364 111.179 781.137Z" fill="#0CBC8B"/>
<path d="M126.856 857.059C126.823 857.059 126.789 857.057 126.756 857.053C126.54 857.026 126.343 856.915 126.209 856.743C126.074 856.571 126.014 856.353 126.04 856.137L141.688 729.086C141.858 727.702 142.425 726.397 143.319 725.327C144.214 724.257 145.398 723.468 146.731 723.056C148.063 722.643 149.485 722.624 150.828 723.001C152.171 723.377 153.376 724.134 154.299 725.179L172.185 745.436C172.257 745.517 172.311 745.611 172.346 745.713C172.382 745.815 172.396 745.923 172.39 746.031C172.383 746.139 172.355 746.244 172.308 746.341C172.26 746.438 172.194 746.525 172.113 746.597C172.033 746.668 171.938 746.723 171.836 746.758C171.734 746.793 171.626 746.808 171.518 746.801C171.411 746.794 171.305 746.767 171.208 746.719C171.111 746.672 171.025 746.606 170.953 746.525L153.067 726.268C152.354 725.46 151.422 724.876 150.385 724.584C149.347 724.293 148.247 724.308 147.218 724.627C146.189 724.945 145.273 725.555 144.582 726.381C143.89 727.208 143.452 728.216 143.32 729.286L127.671 856.337C127.647 856.536 127.55 856.719 127.4 856.852C127.25 856.985 127.057 857.059 126.856 857.059Z" fill="#494949"/>
<path d="M190.527 756.694C196.768 745.412 189.425 729.407 174.128 720.945C158.83 712.483 141.37 714.769 135.13 726.051C128.889 737.332 136.232 753.338 151.529 761.799C166.827 770.261 184.287 767.975 190.527 756.694Z" fill="#0CBC8B"/>
<path opacity="0.2" d="M191.211 831.465C201.32 823.463 200.719 805.865 189.869 792.157C179.019 778.449 162.028 773.824 151.919 781.825C141.81 789.827 142.411 807.426 153.261 821.133C164.111 834.841 181.102 839.467 191.211 831.465Z" fill="white"/>
<path opacity="0.5" d="M111.179 781.137C114.158 763.911 106.274 748.165 93.5703 745.968C80.8663 743.772 68.1528 755.955 65.1739 773.182C62.195 790.408 70.0787 806.154 82.7827 808.351C95.4867 810.547 108.2 798.364 111.179 781.137Z" fill="white"/>
<path opacity="0.5" d="M190.527 756.694C196.768 745.412 189.425 729.407 174.128 720.945C158.83 712.483 141.37 714.769 135.13 726.051C128.889 737.332 136.232 753.338 151.529 761.799C166.827 770.261 184.287 767.975 190.527 756.694Z" fill="white"/>
<path d="M146.87 964.861H106.84L100.207 836.786H153.503L146.87 964.861Z" fill="#292A2E"/>
<path opacity="0.3" d="M146.87 964.861H106.84L100.207 836.786H153.503L146.87 964.861Z" fill="white"/>
<path d="M191.215 831.873C191.153 831.873 191.091 831.859 191.035 831.832C190.979 831.805 190.93 831.766 190.892 831.717L151.6 782.078C151.566 782.036 151.542 781.987 151.527 781.935C151.512 781.883 151.507 781.829 151.514 781.775C151.52 781.722 151.536 781.67 151.563 781.623C151.589 781.576 151.624 781.534 151.667 781.5C151.709 781.467 151.757 781.442 151.809 781.427C151.861 781.412 151.915 781.408 151.969 781.414C152.023 781.42 152.075 781.437 152.122 781.463C152.169 781.489 152.21 781.525 152.244 781.567L191.537 831.207C191.604 831.292 191.635 831.401 191.622 831.51C191.61 831.618 191.554 831.716 191.469 831.784C191.397 831.842 191.307 831.873 191.215 831.873Z" fill="white"/>
<path d="M187.915 760.671C187.828 760.671 187.743 760.643 187.673 760.592L137.393 723.878C137.348 723.847 137.309 723.807 137.279 723.761C137.25 723.714 137.23 723.663 137.221 723.609C137.211 723.554 137.213 723.499 137.226 723.445C137.238 723.392 137.261 723.341 137.294 723.297C137.326 723.253 137.367 723.215 137.414 723.187C137.461 723.159 137.513 723.14 137.568 723.132C137.622 723.125 137.678 723.128 137.731 723.142C137.784 723.156 137.834 723.18 137.877 723.214L188.158 759.928C188.228 759.979 188.28 760.051 188.307 760.134C188.334 760.216 188.333 760.305 188.306 760.388C188.279 760.47 188.227 760.542 188.157 760.593C188.086 760.644 188.002 760.671 187.915 760.671Z" fill="white"/>
<path d="M80.744 807.813C80.7079 807.813 80.6719 807.808 80.637 807.799C80.5324 807.771 80.4431 807.702 80.3886 807.609C80.3341 807.515 80.3188 807.404 80.346 807.299L96.352 747.329C96.3811 747.225 96.4496 747.136 96.5429 747.082C96.6363 747.028 96.7472 747.012 96.852 747.038C96.9568 747.066 97.0462 747.134 97.1007 747.228C97.1553 747.322 97.1705 747.433 97.143 747.538L81.14 807.508C81.1168 807.595 81.0655 807.673 80.9938 807.728C80.9222 807.783 80.8344 807.813 80.744 807.813Z" fill="white"/>
<path d="M897.468 964.861H77.049C76.8634 964.861 76.6853 964.787 76.554 964.656C76.4227 964.525 76.349 964.347 76.349 964.161C76.349 963.975 76.4227 963.797 76.554 963.666C76.6853 963.535 76.8634 963.461 77.049 963.461H897.468C897.654 963.461 897.832 963.535 897.963 963.666C898.094 963.797 898.168 963.975 898.168 964.161C898.168 964.347 898.094 964.525 897.963 964.656C897.832 964.787 897.654 964.861 897.468 964.861Z" fill="#292A2E"/>
<path d="M285.775 919.987C285.775 919.987 290.29 943.392 312.2 944.7C334.11 946.008 329.361 963.461 329.361 963.461H245.625V921.62L285.775 919.987Z" fill="#367CFF"/>
<path d="M239.946 493.057C239.946 493.057 246.208 486.022 246.153 501.981C245.946 561.51 241.929 934.924 241.929 934.924L296.955 934.462L330.288 490.638L239.946 493.057Z" fill="#262626"/>
<path d="M379.736 919.987C379.736 919.987 384.251 943.392 406.164 944.696C428.077 946 423.325 963.457 423.325 963.457H339.586V921.62L379.736 919.987Z" fill="#367CFF"/>
<path d="M390.379 497.68C390.379 497.68 397.253 701.136 396.539 711.08L390.075 933.38L335.958 934.38L327.232 703.036C327.232 703.036 321.512 639.221 306.093 579.963C298.204 549.55 293.457 518.407 291.925 487.025L390.379 497.68Z" fill="#262626"/>
<path d="M318.987 641.93L323.499 572.921C323.499 572.921 328.134 601.61 328.134 626.338C328.134 638.425 325.645 686.28 325.645 686.28L318.987 641.93Z" fill="#0A0A0A"/>
<path d="M239.348 493.051L239.168 493.061C239.168 493.061 239.3 489.591 239.348 493.051Z" fill="#333333"/>
<path d="M239.574 493.051L239.394 493.061C239.394 493.061 239.524 489.591 239.574 493.051Z" fill="#333333"/>
<path d="M541.1 327.913C540.769 327.257 540.242 326.719 539.592 326.375C538.942 326.031 538.201 325.897 537.472 325.992C537.478 325.927 537.464 325.862 537.432 325.806C537.398 325.762 537.353 325.728 537.302 325.707C537.251 325.687 537.195 325.68 537.14 325.687L539.601 323.923C540.338 323.419 540.867 322.666 541.091 321.801C541.315 320.937 541.218 320.021 540.819 319.223C540.4 318.447 539.707 317.854 538.876 317.56C538.044 317.266 537.133 317.292 536.319 317.632C536.326 317.597 536.302 317.564 536.297 317.532L537.308 316.808C538 316.33 538.505 315.628 538.739 314.82C538.972 314.013 538.92 313.149 538.59 312.376C538.373 311.896 538.052 311.469 537.651 311.128C537.249 310.787 536.777 310.538 536.268 310.402C535.758 310.265 535.225 310.242 534.707 310.336C534.188 310.43 533.697 310.638 533.268 310.945L530.935 312.618C530.928 312.604 530.935 312.588 530.926 312.575C530.917 312.562 530.891 312.557 530.878 312.543C531.414 311.94 531.729 311.173 531.771 310.368C531.814 309.563 531.581 308.767 531.112 308.111C530.012 306.339 527.469 306.702 525.96 307.783L512.228 317.268L514.682 313.136C515.175 312.34 515.349 311.388 515.168 310.469C514.986 309.551 514.464 308.735 513.705 308.187C513.303 307.918 512.851 307.734 512.375 307.646C511.9 307.558 511.411 307.567 510.94 307.674C510.468 307.781 510.023 307.982 509.632 308.267C509.241 308.551 508.912 308.912 508.665 309.328L495.265 331.89C493.693 334.537 493.214 337.693 493.931 340.687C494.649 343.681 496.505 346.277 499.106 347.924C502.123 349.834 505.641 350.8 509.21 350.698C512.78 350.595 516.237 349.429 519.139 347.349L539.876 332.484C540.565 331.972 541.061 331.241 541.283 330.411C541.506 329.582 541.441 328.701 541.1 327.913Z" fill="#E98862"/>
<g opacity="0.25">
<path d="M517.346 321.991C517.396 322.061 517.472 322.108 517.556 322.122C517.641 322.136 517.728 322.117 517.798 322.068L530.846 313.031C530.881 313.006 530.912 312.975 530.935 312.939C530.958 312.903 530.974 312.862 530.982 312.82C530.99 312.777 530.989 312.734 530.98 312.692C530.971 312.649 530.954 312.609 530.929 312.574C530.904 312.539 530.873 312.508 530.837 312.485C530.801 312.462 530.76 312.446 530.718 312.438C530.675 312.43 530.632 312.431 530.59 312.44C530.547 312.449 530.507 312.466 530.472 312.491L517.424 321.528C517.353 321.578 517.304 321.654 517.288 321.739C517.273 321.825 517.292 321.913 517.341 321.985L517.346 321.991Z" fill="#0C0C0C"/>
</g>
<g opacity="0.25">
<path d="M521.173 327.856C521.223 327.925 521.299 327.972 521.383 327.986C521.468 328.001 521.555 327.981 521.625 327.932L536.187 317.847C536.258 317.797 536.307 317.721 536.322 317.635C536.338 317.55 536.319 317.462 536.269 317.39C536.218 317.321 536.142 317.274 536.057 317.258C535.972 317.243 535.884 317.26 535.812 317.307L521.251 327.392C521.179 327.442 521.131 327.518 521.115 327.604C521.099 327.69 521.119 327.778 521.168 327.85L521.173 327.856Z" fill="#0C0C0C"/>
</g>
<g opacity="0.25">
<path d="M525.281 334.231C525.331 334.3 525.407 334.347 525.491 334.362C525.576 334.376 525.662 334.357 525.733 334.308L537.349 326.263C537.421 326.213 537.47 326.137 537.485 326.052C537.501 325.966 537.482 325.878 537.432 325.806C537.382 325.734 537.306 325.685 537.221 325.67C537.135 325.654 537.047 325.673 536.975 325.723L525.359 333.768C525.288 333.818 525.239 333.894 525.223 333.979C525.208 334.065 525.227 334.153 525.276 334.225L525.281 334.231Z" fill="#0C0C0C"/>
</g>
<path d="M487.357 326.751L448 393.783L399.975 330.791L360.09 366.748L428.2 454.959L428.646 455.587C431.372 459.321 435.005 462.299 439.2 464.241C443.396 466.184 448.017 467.025 452.628 466.688C457.239 466.35 461.688 464.845 465.556 462.312C469.425 459.78 472.584 456.304 474.738 452.213L530.706 350.859L487.357 326.751Z" fill="#367CFF"/>
<path d="M444.14 401.844C444.054 401.844 443.97 401.822 443.895 401.78C443.82 401.739 443.757 401.678 443.713 401.605C443.668 401.532 443.643 401.449 443.639 401.363C443.636 401.277 443.655 401.192 443.694 401.116L447.553 393.555C447.613 393.437 447.718 393.348 447.845 393.307C447.971 393.266 448.108 393.278 448.226 393.338C448.344 393.398 448.433 393.503 448.474 393.63C448.515 393.756 448.503 393.893 448.443 394.011L444.585 401.571C444.543 401.653 444.479 401.722 444.401 401.77C444.322 401.818 444.232 401.844 444.14 401.844Z" fill="#0C0C0C"/>
<path d="M397.203 393.4L396.001 414.572L396.999 414.629L398.201 393.457L397.203 393.4Z" fill="#0C0C0C"/>
<path d="M270.38 240.177C270.38 240.177 268.536 263.743 263.131 272.238C247.57 296.694 242.824 324.355 257.953 339.009C273.082 353.663 370.649 355 378.426 321.78C384.973 293.817 371.654 290.649 368.672 267.48C367.323 256.998 363.533 235.009 363.533 235.009" fill="#0A0A0A"/>
<path d="M353.588 316.471C353.42 316.449 351.55 347.462 315.522 344.759C290.58 342.89 281.686 316.427 281.115 316.427C283.804 315.856 288.333 315.027 289.527 314.387C293.454 312.277 298.314 310.081 299.58 302.454C300.31 298.054 299.072 275.568 299.453 271.12L337.739 279.666C337.204 289.059 333.46 310.836 346.583 314.691C348.767 315.328 351.119 315.914 353.588 316.471Z" fill="#E98862"/>
<path opacity="0.52" d="M338.276 305.791C337.676 303.858 337.29 301.866 337.124 299.849C336.703 295.247 336.787 290.612 337.374 286.028C329.592 284.977 322.261 281.765 316.214 276.757C315.503 279.383 311.593 290.857 312.676 293.35C314.722 298.067 324.338 305.791 338.276 305.791Z" fill="#0C0C0C"/>
<path d="M333.2 296.03C318.09 297.315 298.63 291.052 294.818 270.905L291.377 252.726C287.564 232.579 295.055 214.244 314.025 210.654C332.994 207.064 350.264 220.713 354.077 240.86L355.6 248.908C357.064 256.638 360.162 293.736 333.2 296.03Z" fill="#E98862"/>
<path d="M350.194 249.785C351.507 249.785 352.572 248.72 352.572 247.407C352.572 246.094 351.507 245.029 350.194 245.029C348.881 245.029 347.816 246.094 347.816 247.407C347.816 248.72 348.881 249.785 350.194 249.785Z" fill="#0C0C0C"/>
<path d="M325.833 253.04C327.146 253.04 328.211 251.975 328.211 250.662C328.211 249.349 327.146 248.284 325.833 248.284C324.52 248.284 323.455 249.349 323.455 250.662C323.455 251.975 324.52 253.04 325.833 253.04Z" fill="#0C0C0C"/>
<path opacity="0.52" d="M339.2 268.1L339.237 268.094C340.005 267.943 340.765 267.75 341.512 267.515C342.627 267.156 344.088 266.563 343.898 265.555C343.681 264.407 338.192 252.616 337.567 251.276C337.54 251.217 337.502 251.165 337.455 251.121C337.408 251.077 337.353 251.043 337.293 251.021C337.232 250.999 337.168 250.989 337.104 250.991C337.04 250.994 336.977 251.009 336.918 251.036C336.86 251.063 336.808 251.102 336.764 251.149C336.721 251.197 336.687 251.252 336.666 251.313C336.644 251.373 336.634 251.438 336.637 251.502C336.641 251.566 336.656 251.629 336.684 251.687C339.025 256.709 342.794 264.963 342.94 265.736C342.815 266.095 340.963 266.775 339.056 267.136C338.931 267.158 338.819 267.228 338.745 267.331C338.67 267.434 338.639 267.562 338.658 267.688C338.677 267.813 338.744 267.927 338.845 268.004C338.947 268.08 339.074 268.115 339.2 268.099V268.1Z" fill="#0C0C0C"/>
<path opacity="0.52" d="M336.393 276.793C339.487 276.391 342.444 275.268 345.024 273.514C345.132 273.443 345.208 273.333 345.235 273.206C345.261 273.08 345.237 272.948 345.166 272.84C345.095 272.732 344.985 272.656 344.858 272.629C344.732 272.603 344.6 272.627 344.492 272.698C338.908 276.336 333.359 276.925 328.446 274.398C328.347 274.344 328.244 274.295 328.14 274.252C328.018 274.208 327.884 274.214 327.767 274.269C327.65 274.324 327.56 274.423 327.516 274.545C327.472 274.667 327.478 274.801 327.533 274.918C327.588 275.035 327.687 275.125 327.809 275.169C327.847 275.185 327.909 275.219 328 275.269C330.584 276.601 333.506 277.131 336.393 276.793Z" fill="#0C0C0C"/>
<path d="M276.2 259.061L293.206 255.944C306.084 250.732 309.979 228.438 309.979 228.438C309.979 228.438 325.622 243.685 363.531 235.013C363.531 235.013 355.931 182.145 299.925 197.513C281.866 202.47 268.905 220.668 270.52 244.989C271.653 262.038 276.2 259.061 276.2 259.061Z" fill="#0A0A0A"/>
<path d="M297.158 276.82C291.394 277.911 285.553 272.628 284.458 266.863C283.363 261.098 287.439 257.035 293.204 255.944L296.904 259.244L302.11 275.882L297.158 276.82Z" fill="#E98862"/>
<path d="M341.043 241.636C342.724 240.549 344.667 239.936 346.667 239.86C347.652 239.816 348.637 239.92 349.591 240.169C350.536 240.411 351.446 240.772 352.3 241.242C352.42 241.301 352.513 241.406 352.556 241.533C352.6 241.66 352.592 241.799 352.534 241.92C352.475 242.041 352.372 242.134 352.245 242.178C352.119 242.223 351.979 242.216 351.858 242.159L351.822 242.142C351.032 241.754 350.197 241.467 349.335 241.287C348.484 241.104 347.61 241.052 346.743 241.131C345.023 241.275 343.372 241.871 341.957 242.86L341.911 242.894C341.83 242.953 341.738 242.996 341.64 243.019C341.542 243.043 341.441 243.047 341.341 243.031C341.242 243.015 341.147 242.98 341.061 242.928C340.976 242.875 340.901 242.806 340.842 242.725C340.783 242.644 340.74 242.552 340.717 242.454C340.693 242.356 340.689 242.255 340.705 242.156C340.721 242.056 340.756 241.961 340.808 241.875C340.861 241.79 340.93 241.715 341.011 241.656L341.043 241.636Z" fill="#0C0C0C"/>
<path d="M325.877 245.206C324.201 244.795 322.446 244.835 320.79 245.323C319.953 245.562 319.156 245.927 318.428 246.404C317.69 246.884 317.015 247.456 316.419 248.104L316.392 248.131C316.299 248.224 316.173 248.278 316.041 248.28C315.909 248.283 315.781 248.234 315.684 248.144C315.588 248.054 315.53 247.93 315.523 247.798C315.516 247.666 315.561 247.537 315.648 247.437C316.275 246.69 316.993 246.025 317.787 245.458C318.586 244.881 319.467 244.427 320.401 244.113C322.294 243.462 324.327 243.332 326.288 243.737C326.487 243.78 326.661 243.9 326.771 244.071C326.882 244.241 326.92 244.449 326.877 244.648C326.834 244.847 326.714 245.021 326.543 245.131C326.373 245.242 326.165 245.28 325.966 245.237L325.935 245.229L325.877 245.206Z" fill="#0C0C0C"/>
<path opacity="0.52" d="M337.051 281.368C337.611 281.304 338.165 281.193 338.707 281.035C338.831 280.999 338.936 280.916 338.999 280.803C339.062 280.69 339.077 280.556 339.041 280.432C339.005 280.308 338.922 280.203 338.809 280.14C338.696 280.077 338.562 280.062 338.438 280.098C335.177 281.037 333.323 279.798 333.246 279.74C333.14 279.666 333.009 279.637 332.881 279.659C332.754 279.682 332.64 279.754 332.566 279.86C332.492 279.966 332.463 280.097 332.485 280.225C332.508 280.352 332.58 280.466 332.686 280.54C334.002 281.312 335.544 281.605 337.051 281.368Z" fill="#0C0C0C"/>
<path d="M293.245 255.728L293.076 255.257C314.621 247.523 309.352 226.38 309.297 226.167L309.78 226.04C309.837 226.257 315.226 247.837 293.245 255.728Z" fill="#0C0C0C"/>
<path opacity="0.1" d="M323.835 269.501C326.321 269.233 328.178 267.537 327.982 265.713C327.785 263.889 325.61 262.627 323.123 262.895C320.637 263.162 318.78 264.858 318.976 266.682C319.173 268.507 321.348 269.768 323.835 269.501Z" fill="#0C0C0C"/>
<path opacity="0.1" d="M350.243 262.6C350.443 264.422 352.619 265.682 355.107 265.418C355.537 265.371 355.961 265.28 356.372 265.146C356.512 262.978 356.543 260.892 356.502 258.959C355.814 258.779 355.099 258.728 354.393 258.811C351.905 259.074 350.049 260.77 350.243 262.6Z" fill="#0C0C0C"/>
<path d="M398.351 384.748C397.216 398.08 391.696 481.258 390.605 497.68H246.233C245.383 482.869 235.569 418.104 232.348 389.141C229.273 361.503 223.24 347.666 227.662 339.495C234.888 326.141 254.634 318.424 268.098 316.601C276.32 315.489 288.685 314.691 288.685 314.691C288.685 314.691 289.732 335.871 314.698 337.05C348.683 338.65 346.414 314.691 346.582 314.691C352.088 314.691 383.54 318.176 391.235 322.737C412.2 335.154 400.76 356.5 398.351 384.748Z" fill="#367CFF"/>
<path d="M492.063 394.062L478.146 461.7C477.865 463.074 477.121 464.309 476.039 465.201C474.957 466.093 473.602 466.586 472.2 466.6L376.374 467.416C375.46 467.424 374.556 467.227 373.727 466.84C372.899 466.453 372.168 465.886 371.587 465.18C371.007 464.473 370.591 463.646 370.372 462.759C370.152 461.872 370.134 460.946 370.318 460.051L384.234 392.411C384.517 391.038 385.262 389.803 386.345 388.912C387.428 388.021 388.784 387.529 390.186 387.517L486.012 386.701C486.925 386.694 487.829 386.891 488.656 387.279C489.483 387.666 490.213 388.233 490.793 388.938C491.373 389.644 491.788 390.47 492.008 391.356C492.228 392.243 492.246 393.167 492.063 394.062Z" fill="#292A2E"/>
<path d="M402.707 442.107C402.758 442.998 402.486 443.877 401.94 444.582C401.394 445.288 400.612 445.772 399.737 445.947L396.787 446.597C396.84 446.614 396.887 446.644 396.926 446.685C396.964 446.725 396.992 446.774 397.007 446.827C397.014 446.89 397 446.953 396.967 447.007C397.676 447.206 398.306 447.622 398.768 448.195C399.23 448.768 399.503 449.472 399.547 450.207C399.551 451.064 399.266 451.897 398.738 452.572C398.21 453.248 397.47 453.725 396.637 453.927L371.727 459.457C370.454 459.743 369.152 459.887 367.847 459.887C364.94 459.887 362.076 459.179 359.503 457.826C356.93 456.472 354.724 454.513 353.077 452.117C351.33 449.582 350.641 446.466 351.157 443.431C351.672 440.397 353.351 437.683 355.837 435.867L377.027 420.377C377.493 420.036 378.036 419.813 378.607 419.727L376.657 429.197L377.177 429.077L377.287 429.057L393.537 425.747C395.347 425.347 397.827 426.007 398.147 428.067C398.319 428.856 398.218 429.679 397.862 430.404C397.506 431.128 396.916 431.711 396.187 432.057C396.197 432.067 396.217 432.077 396.217 432.097C396.217 432.117 396.207 432.127 396.207 432.147L399.017 431.527C399.531 431.413 400.064 431.414 400.578 431.531C401.091 431.648 401.572 431.877 401.986 432.203C402.401 432.528 402.737 432.941 402.973 433.412C403.208 433.883 403.336 434.401 403.347 434.927C403.347 435.768 403.056 436.582 402.524 437.233C401.992 437.884 401.251 438.33 400.427 438.497L399.217 438.767C399.207 438.807 399.217 438.847 399.197 438.877C400.079 438.884 400.926 439.218 401.575 439.815C402.224 440.412 402.627 441.229 402.707 442.107Z" fill="#E98862"/>
<g opacity="0.25">
<path d="M380.031 435.43C380.05 435.514 380.101 435.586 380.173 435.633C380.246 435.679 380.333 435.695 380.417 435.678L395.965 432.489C396.007 432.48 396.047 432.463 396.083 432.439C396.119 432.415 396.149 432.384 396.173 432.348C396.197 432.312 396.213 432.272 396.221 432.23C396.229 432.187 396.229 432.144 396.22 432.101C396.212 432.059 396.195 432.019 396.171 431.983C396.147 431.948 396.116 431.917 396.08 431.893C396.044 431.87 396.003 431.853 395.961 431.845C395.919 431.837 395.875 431.837 395.833 431.846L380.285 435.034C380.2 435.052 380.125 435.102 380.077 435.175C380.029 435.248 380.012 435.337 380.029 435.422L380.031 435.43Z" fill="#0C0C0C"/>
</g>
<g opacity="0.25">
<path d="M381.248 442.326C381.267 442.409 381.319 442.482 381.391 442.528C381.463 442.575 381.55 442.591 381.634 442.574L398.986 439.016C399.071 438.998 399.146 438.947 399.194 438.875C399.242 438.802 399.259 438.713 399.242 438.628C399.222 438.544 399.17 438.471 399.098 438.424C399.026 438.376 398.939 438.358 398.854 438.372L381.5 441.931C381.458 441.94 381.418 441.956 381.382 441.98C381.346 442.005 381.316 442.036 381.292 442.071C381.268 442.107 381.252 442.148 381.243 442.19C381.235 442.232 381.235 442.276 381.244 442.318L381.248 442.326Z" fill="#0C0C0C"/>
</g>
<g opacity="0.25">
<path d="M382.523 449.8C382.542 449.883 382.594 449.956 382.666 450.002C382.738 450.049 382.825 450.065 382.909 450.048L396.75 447.209C396.792 447.2 396.832 447.183 396.868 447.159C396.904 447.135 396.934 447.104 396.958 447.068C396.982 447.032 396.998 446.992 397.006 446.95C397.014 446.907 397.014 446.864 397.005 446.821C396.997 446.779 396.98 446.739 396.956 446.703C396.932 446.668 396.901 446.637 396.865 446.613C396.829 446.59 396.788 446.573 396.746 446.565C396.704 446.557 396.66 446.557 396.618 446.566L382.777 449.404C382.692 449.422 382.617 449.472 382.569 449.545C382.521 449.618 382.504 449.707 382.521 449.792L382.523 449.8Z" fill="#0C0C0C"/>
</g>
<path d="M370.185 469.313L235.04 493.736C230.823 494.194 226.558 493.669 222.578 492.202C218.598 490.735 215.012 488.365 212.102 485.28C209.192 482.194 207.036 478.476 205.804 474.417C204.571 470.359 204.296 466.07 205 461.887L223.914 349.43C224.51 345.872 225.801 342.467 227.713 339.408C229.626 336.35 232.122 333.698 235.06 331.605C237.997 329.512 241.319 328.018 244.834 327.209C248.349 326.4 251.99 326.291 255.547 326.89C259.104 327.488 262.509 328.782 265.566 330.696C268.623 332.611 271.273 335.11 273.364 338.049C275.455 340.988 276.946 344.311 277.752 347.827C278.559 351.343 278.664 354.983 278.063 358.54L265.163 435.955L364.244 423.512L370.185 469.313Z" fill="#367CFF"/>
<path d="M235.039 494.236C234.914 494.236 234.794 494.189 234.702 494.104C234.61 494.02 234.553 493.904 234.542 493.78C234.531 493.656 234.567 493.532 234.643 493.433C234.718 493.334 234.828 493.266 234.951 493.244L369.628 468.906L363.812 424.07L265.225 436.451C265.148 436.461 265.069 436.453 264.996 436.427C264.922 436.401 264.856 436.358 264.802 436.302C264.748 436.246 264.708 436.178 264.685 436.103C264.662 436.029 264.656 435.95 264.669 435.873L272.869 386.395C272.879 386.33 272.902 386.268 272.936 386.211C272.971 386.155 273.016 386.107 273.07 386.068C273.124 386.03 273.184 386.003 273.248 385.988C273.313 385.974 273.379 385.972 273.444 385.984C273.509 385.995 273.571 386.018 273.627 386.053C273.682 386.087 273.731 386.133 273.769 386.186C273.807 386.24 273.835 386.3 273.85 386.364C273.865 386.428 273.867 386.494 273.856 386.559L265.764 435.375L364.18 423.015C364.311 422.999 364.444 423.035 364.548 423.116C364.653 423.197 364.721 423.316 364.738 423.447L370.68 469.247C370.696 469.374 370.663 469.503 370.588 469.606C370.512 469.71 370.399 469.78 370.273 469.803L235.129 494.228C235.099 494.233 235.069 494.236 235.039 494.236Z" fill="#0C0C0C"/>
<path d="M265.086 435.462L256.393 436.854L256.551 437.842L265.244 436.45L265.086 435.462Z" fill="#0C0C0C"/>
<path d="M938.875 553.252H643.121C630.836 553.252 620.877 563.211 620.877 575.496V676.761C620.877 689.046 630.836 699.005 643.121 699.005H938.875C951.16 699.005 961.119 689.046 961.119 676.761V575.496C961.119 563.211 951.16 553.252 938.875 553.252Z" fill="white"/>
<path opacity="0.4" d="M938.875 553.252H643.121C630.836 553.252 620.877 563.211 620.877 575.496V676.761C620.877 689.046 630.836 699.005 643.121 699.005H938.875C951.16 699.005 961.119 689.046 961.119 676.761V575.496C961.119 563.211 951.16 553.252 938.875 553.252Z" fill="#367CFF"/>
<path d="M938.875 700H643.121C636.958 699.993 631.05 697.542 626.693 693.184C622.335 688.827 619.884 682.918 619.877 676.756V575.5C619.884 569.338 622.335 563.429 626.693 559.072C631.05 554.714 636.958 552.263 643.121 552.256H938.875C945.037 552.263 950.946 554.714 955.303 559.072C959.661 563.429 962.112 569.338 962.119 575.5V676.76C962.111 682.922 959.659 688.829 955.302 693.185C950.944 697.542 945.037 699.993 938.875 700ZM643.121 554.252C637.488 554.258 632.088 556.499 628.105 560.483C624.122 564.466 621.882 569.867 621.877 575.5V676.76C621.884 682.392 624.125 687.79 628.108 691.772C632.09 695.754 637.489 697.994 643.121 698H938.875C944.507 697.994 949.907 695.753 953.89 691.771C957.872 687.788 960.113 682.388 960.119 676.756V575.5C960.113 569.868 957.872 564.468 953.89 560.485C949.907 556.503 944.507 554.262 938.875 554.256L643.121 554.252Z" fill="#292A2E"/>
<path d="M651.387 667.949C651.118 667.949 650.853 667.877 650.622 667.739C650.39 667.602 650.199 667.404 650.07 667.168C649.941 666.931 649.878 666.665 649.888 666.395C649.897 666.126 649.979 665.865 650.125 665.638C650.45 665.138 683.136 615.159 735.08 615.159C762.222 615.159 778.667 625.632 794.572 635.759C809.293 645.135 823.199 653.991 844.716 653.991C888.709 653.991 924.149 590.1 924.501 589.455C924.692 589.106 925.014 588.847 925.395 588.735C925.777 588.623 926.188 588.667 926.537 588.858C926.886 589.049 927.145 589.371 927.257 589.752C927.369 590.134 927.325 590.545 927.134 590.894C925.659 593.594 890.471 656.994 844.716 656.994C822.325 656.994 808.061 647.91 792.96 638.294C777.418 628.394 761.348 618.161 735.08 618.161C684.796 618.161 652.966 666.77 652.65 667.261C652.514 667.472 652.327 667.646 652.106 667.766C651.886 667.886 651.638 667.949 651.387 667.949Z" fill="white"/>
<path d="M926.238 596.047C929.48 596.047 932.108 593.419 932.108 590.177C932.108 586.935 929.48 584.307 926.238 584.307C922.996 584.307 920.368 586.935 920.368 590.177C920.368 593.419 922.996 596.047 926.238 596.047Z" fill="white"/>
</g>
<defs>
<clipPath id="clip0_1_1195">
<rect width="962.119" height="964.861" fill="white"/>
</clipPath>
</defs>
</svg>
