<svg width="1162" height="686" viewBox="0 0 1162 686" fill="none" xmlns="http://www.w3.org/2000/svg">
<g clip-path="url(#clip0_1_2251)">
<path d="M1161.27 685.862H0C12.725 653.413 36.219 625.886 69.349 617.719C117.806 605.789 169.087 638.594 217.437 626.258C244.906 619.258 266.531 598.858 289.256 581.918C374.985 518 492.468 499.109 593.912 532.941C646.939 550.616 695.256 581.526 749.575 594.667C819.815 611.667 893.27 597.567 965.504 595.246C1035.85 592.986 1136.65 621.65 1161.27 685.862Z" fill="#F3F5FD"/>
<path d="M483.867 602.023C478.867 600.387 473.735 602.223 468.826 605.958C475.293 589.628 477.962 574.878 466.906 574.213C459.17 573.749 453.244 579.683 448.742 588.121C447.159 573.286 443.074 562.221 433.923 565.89C423.877 569.917 422.349 583.719 423.873 598.161C419.447 590.785 414.682 586.671 410.355 590.998C397.442 603.911 429.138 640.298 429.138 640.298C429.138 640.298 456.401 650.656 467.015 639.548C481.4 624.493 495.808 605.932 483.867 602.023Z" fill="#8DDBE0"/>
<path d="M469.754 685.862H425.204L417.746 633.855H477.211L469.754 685.862Z" fill="#C1D8ED"/>
<path d="M687.353 685.862H526.259C514.442 676.431 513.627 655.184 525.875 645.695C535.316 638.383 549.589 640.339 558.462 647.945C556.804 642.282 556.772 636.267 558.368 630.587C561.253 620.357 567.668 609.965 577.46 605.828C602.451 595.283 620.208 617.377 623.767 629.728C630.167 620.319 644.479 615.346 653.467 621.68C664.848 629.702 664.332 642.35 655.254 651.428C667.354 649.173 676.46 650.913 684.854 659.918C691.233 666.775 692.21 678.455 687.353 685.862Z" fill="#8DDBE0"/>
<path d="M1158.2 685.862H997.109C985.292 676.431 984.477 655.184 996.725 645.695C1006.17 638.383 1020.44 640.339 1029.31 647.945C1027.65 642.282 1027.62 636.267 1029.22 630.587C1032.1 620.357 1038.52 609.965 1048.31 605.828C1073.3 595.283 1091.06 617.377 1094.62 629.728C1101.02 620.319 1115.33 615.346 1124.32 621.68C1135.7 629.702 1135.18 642.35 1126.1 651.428C1138.2 649.173 1147.31 650.913 1155.7 659.918C1162.08 666.775 1163.06 678.455 1158.2 685.862Z" fill="#8DDBE0"/>
<path d="M288.07 160.986L285.238 158.356C286.56 156.933 287.893 155.52 289.238 154.117L292.03 156.787C290.699 158.177 289.379 159.577 288.07 160.986Z" fill="#C1D8ED"/>
<path d="M300.075 148.6L297.36 145.851C300.107 143.138 302.923 140.438 305.728 137.825L308.361 140.653C305.584 143.245 302.8 145.919 300.075 148.6ZM826.488 148.759C823.782 146.076 821.003 143.398 818.225 140.798L820.866 137.977C823.666 140.601 826.478 143.306 829.209 146.016L826.488 148.759ZM316.876 132.955L314.326 130.055C317.218 127.514 320.186 124.983 323.146 122.531L325.611 125.508C322.679 127.932 319.74 130.439 316.876 132.955ZM809.733 133.087C806.871 130.562 803.938 128.05 801.018 125.623L803.488 122.652C806.438 125.103 809.399 127.639 812.288 130.189L809.733 133.087ZM334.559 118.315L332.183 115.268C335.211 112.908 338.322 110.555 341.431 108.277L343.716 111.394C340.637 113.649 337.556 115.978 334.559 118.315ZM792.086 118.42C789.086 116.07 786.007 113.736 782.945 111.485L785.234 108.372C788.326 110.646 791.434 113.003 794.467 115.372L792.086 118.42ZM353.072 104.747L350.882 101.563C354.058 99.378 357.304 97.216 360.529 95.136L362.629 98.384C359.431 100.442 356.218 102.583 353.072 104.747ZM773.599 104.826C770.467 102.664 767.257 100.518 764.058 98.449L766.158 95.204C769.388 97.294 772.632 99.461 775.795 101.646L773.599 104.826ZM372.359 92.31L370.359 89.001C373.664 87.008 377.033 85.045 380.374 83.166L382.268 86.533C378.966 88.394 375.631 90.337 372.359 92.31ZM754.33 92.364C751.06 90.387 747.73 88.439 744.421 86.575L746.321 83.209C749.66 85.092 753.029 87.059 756.332 89.056L754.33 92.364ZM392.356 81.064L390.564 77.64C393.975 75.856 397.456 74.101 400.913 72.425L402.6 75.9C399.178 77.558 395.731 79.3 392.356 81.061V81.064ZM734.339 81.095C730.958 79.323 727.51 77.583 724.092 75.923L725.78 72.447C729.235 74.124 732.717 75.882 736.132 77.672L734.339 81.095ZM413 71.053L411.421 67.526C414.938 65.952 418.521 64.415 422.07 62.956L423.539 66.53C420.023 67.974 416.477 69.5 413 71.053ZM713.694 71.066C710.211 69.506 706.663 67.981 703.147 66.535L704.616 62.961C708.17 64.422 711.755 65.961 715.274 67.539L713.694 71.066ZM434.21 62.335L432.851 58.717C436.457 57.365 440.127 56.052 443.761 54.817L445.005 58.475C441.41 59.7 437.777 61 434.21 62.335ZM692.462 62.335C688.89 60.993 685.252 59.693 681.652 58.468L682.896 54.809C686.534 56.047 690.21 57.361 693.82 58.717L692.462 62.335ZM455.915 54.951L454.784 51.257C458.462 50.131 462.206 49.05 465.914 48.042L466.927 51.772C463.259 52.769 459.554 53.839 455.915 54.951ZM670.726 54.939C667.08 53.825 663.368 52.753 659.693 51.755L660.706 48.026C664.419 49.035 668.171 50.117 671.856 51.243L670.726 54.939ZM478.031 48.939L477.131 45.181C480.872 44.288 484.675 43.443 488.437 42.67L489.214 46.455C485.5 47.218 481.733 48.054 478.031 48.937V48.939ZM648.564 48.921C644.858 48.039 641.085 47.203 637.35 46.436L638.127 42.651C641.901 43.425 645.714 44.27 649.46 45.162L648.564 48.921ZM500.475 44.321L499.815 40.514C503.598 39.858 507.445 39.253 511.25 38.714L511.791 42.541C508.026 43.073 504.218 43.673 500.475 44.321ZM626.064 44.3C622.304 43.651 618.485 43.053 614.713 42.523L615.251 38.697C619.063 39.232 622.922 39.836 626.721 40.497L626.064 44.3ZM523.156 41.119L522.736 37.278C526.558 36.86 530.436 36.497 534.258 36.2L534.558 40.052C530.774 40.346 526.938 40.706 523.156 41.119ZM603.308 41.104C599.525 40.693 595.675 40.335 591.866 40.04L592.166 36.187C596.015 36.487 599.905 36.846 603.729 37.263L603.308 41.104ZM545.986 39.34L545.805 35.48C549.647 35.301 553.545 35.18 557.393 35.12L557.452 38.984C553.645 39.043 549.787 39.163 545.986 39.34ZM580.392 39.333C576.751 39.165 573.049 39.049 569.392 38.989L568.925 38.981L568.988 35.117L569.456 35.125C573.156 35.186 576.892 35.303 580.572 35.473L580.392 39.333Z" fill="#C1D8ED"/>
<path d="M838.534 161.252C837.229 159.839 835.915 158.435 834.592 157.042L837.392 154.38C838.729 155.787 840.056 157.204 841.373 158.63L838.534 161.252Z" fill="#C1D8ED"/>
<path d="M665.124 71.812L665.046 3.134C665.072 2.7173 665.009 2.2999 664.861 1.90926C664.714 1.51862 664.486 1.16359 664.192 0.867532C663.897 0.571477 663.543 0.341108 663.154 0.191582C662.764 0.0420565 662.347 -0.0232363 661.93 0L580.571 0.078L499.212 0C498.796 -0.0226502 498.379 0.0430772 497.99 0.192865C497.6 0.342652 497.247 0.57311 496.953 0.8691C496.659 1.16509 496.431 1.51991 496.284 1.91027C496.137 2.30062 496.074 2.71766 496.1 3.134L496.022 71.812L496.015 82.065C495.991 82.4827 496.055 82.9008 496.203 83.292C496.351 83.6831 496.581 84.0385 496.876 84.3349C497.171 84.6313 497.526 84.8619 497.917 85.0117C498.307 85.1614 498.725 85.227 499.143 85.204L513.428 85.219L561.24 85.265L561.249 85.297L580.576 85.281L599.9 85.3L599.908 85.268L647.721 85.222L662 85.2C662.418 85.223 662.836 85.1574 663.226 85.0077C663.617 84.8579 663.971 84.6272 664.267 84.3309C664.562 84.0345 664.791 83.6791 664.939 83.2879C665.088 82.8967 665.152 82.4786 665.127 82.061L665.124 71.812Z" fill="#8DDBE0"/>
<path opacity="0.47" d="M655.7 21.848C652.396 21.8404 649.228 20.5269 646.889 18.1938C644.549 15.8607 643.226 12.6972 643.209 9.393L580.571 9.446L517.933 9.393C517.916 12.6973 516.593 15.8608 514.253 18.1938C511.913 20.5269 508.745 21.8404 505.441 21.848L505.4 63.366C506.815 63.3649 508.22 63.6091 509.552 64.088C511.139 64.6549 512.597 65.5347 513.838 66.6753C515.079 67.8159 516.078 69.194 516.777 70.728C517.514 72.3392 517.89 74.0922 517.877 75.864L558.677 75.902L558.686 75.935L580.571 75.919L602.455 75.935L602.465 75.902L643.265 75.864C643.252 74.0922 643.628 72.3392 644.365 70.728C645.064 69.1941 646.064 67.8161 647.305 66.6756C648.546 65.5351 650.004 64.6552 651.591 64.088C652.923 63.6091 654.328 63.3649 655.743 63.366L655.7 21.848Z" fill="white"/>
<path d="M531.009 50.278C535.317 50.278 538.81 46.7854 538.81 42.477C538.81 38.1686 535.317 34.676 531.009 34.676C526.701 34.676 523.208 38.1686 523.208 42.477C523.208 46.7854 526.701 50.278 531.009 50.278Z" fill="#8DDBE0"/>
<path d="M630.133 50.278C634.441 50.278 637.934 46.7854 637.934 42.477C637.934 38.1686 634.441 34.676 630.133 34.676C625.825 34.676 622.332 38.1686 622.332 42.477C622.332 46.7854 625.825 50.278 630.133 50.278Z" fill="#8DDBE0"/>
<path d="M594.324 19.5C598.13 21.6862 601.322 24.7991 603.603 28.5494C605.883 32.2997 607.179 36.5658 607.369 40.951C607.486 45.256 607.369 50.276 602.827 57.571C600.468 61.1894 597.21 64.134 593.372 66.117C591.756 67.0083 590.046 67.715 588.272 68.224C585.775 68.9801 583.18 69.3606 580.572 69.353C575.855 69.3532 571.221 68.1076 567.139 65.7421C563.058 63.3767 559.673 59.9753 557.328 55.882C554.989 51.8663 553.754 47.3033 553.748 42.656C553.738 42.604 553.748 42.556 553.74 42.508C553.756 35.391 556.593 28.5707 561.63 23.5421C566.666 18.5136 573.491 15.687 580.608 15.682C581.091 15.693 581.575 15.703 582.052 15.736C586.393 15.9465 590.612 17.2405 594.324 19.5Z" fill="#8DDBE0"/>
<path d="M578.943 59.126V55.178C577.688 55.0197 576.46 54.6935 575.292 54.208C574.081 53.7334 572.966 53.0437 572 52.172L574.529 48.266C575.407 48.9573 576.368 49.5352 577.39 49.986C578.27 50.3621 579.216 50.5573 580.173 50.56C581.036 50.6335 581.897 50.3966 582.601 49.892C582.873 49.6275 583.083 49.3065 583.216 48.9516C583.349 48.5968 583.403 48.2169 583.373 47.839C583.378 47.5111 583.312 47.186 583.179 46.8861C583.046 46.5861 582.851 46.3183 582.605 46.101C582.016 45.573 581.367 45.1156 580.671 44.738C579.895 44.3027 579.062 43.8693 578.171 43.438C577.283 43.0074 576.443 42.4842 575.665 41.877C574.901 41.2844 574.247 40.562 573.733 39.743C573.196 38.8366 572.93 37.7957 572.966 36.743C572.901 34.9917 573.469 33.2756 574.566 31.909C575.699 30.5952 577.259 29.7228 578.971 29.445V25.379H582.8V29.366C583.971 29.5201 585.099 29.9107 586.115 30.514C587.061 31.0948 587.923 31.8013 588.679 32.614L585.755 35.927C585.143 35.3397 584.453 34.8409 583.703 34.445C583.002 34.1045 582.232 33.9332 581.453 33.945C580.684 33.8931 579.919 34.1012 579.282 34.536C579.015 34.7777 578.808 35.0784 578.677 35.4141C578.547 35.7498 578.496 36.1114 578.53 36.47C578.528 36.7776 578.596 37.0817 578.729 37.359C578.862 37.6363 579.056 37.8795 579.298 38.07C579.893 38.5581 580.542 38.9759 581.232 39.315C582.008 39.711 582.843 40.1197 583.738 40.541C584.626 40.9607 585.464 41.4779 586.238 42.083C587.012 42.6883 587.668 43.4319 588.171 44.276C588.712 45.2458 588.977 46.3452 588.938 47.455C588.982 49.2064 588.438 50.9221 587.394 52.329C586.234 53.7623 584.591 54.7225 582.773 55.029V59.129L578.943 59.126Z" fill="white"/>
<path d="M179.903 679.343H388.349C404.312 679.343 417.252 666.403 417.252 650.44L417.252 199.637C417.252 183.674 404.312 170.734 388.349 170.734L179.903 170.734C163.94 170.734 151 183.674 151 199.637L151 650.44C151 666.403 163.94 679.343 179.903 679.343Z" fill="white"/>
<path d="M144.48 650.44V199.64C144.49 190.248 148.224 181.244 154.865 174.603C161.505 167.962 170.508 164.225 179.9 164.214H388.349C397.74 164.225 406.744 167.96 413.384 174.601C420.025 181.242 423.76 190.246 423.771 199.637V650.437C423.76 659.828 420.025 668.832 413.384 675.472C406.744 682.113 397.74 685.848 388.349 685.859H179.9C170.51 685.848 161.507 682.113 154.867 675.473C148.227 668.833 144.491 659.83 144.48 650.44ZM179.9 177.254C173.966 177.261 168.276 179.621 164.08 183.817C159.884 188.013 157.524 193.703 157.517 199.637V650.437C157.523 656.372 159.883 662.062 164.079 666.259C168.275 670.456 173.965 672.816 179.9 672.823H388.349C394.283 672.816 399.973 670.456 404.169 666.26C408.365 662.064 410.725 656.374 410.732 650.44V199.64C410.725 193.706 408.365 188.016 404.169 183.82C399.973 179.624 394.283 177.264 388.349 177.257L179.9 177.254Z" fill="#DEE8F5"/>
<path d="M316.51 201.7H251.742C248.226 201.7 244.855 200.303 242.369 197.817C239.883 195.331 238.486 191.96 238.486 188.444V170.734H329.766V188.444C329.766 191.96 328.369 195.331 325.883 197.817C323.397 200.303 320.026 201.7 316.51 201.7Z" fill="#DEE8F5"/>
<path d="M338.702 288.225H229.548C221.866 288.225 215.638 294.453 215.638 302.135V335.643C215.638 343.325 221.866 349.553 229.548 349.553H338.702C346.384 349.553 352.612 343.325 352.612 335.643V302.135C352.612 294.453 346.384 288.225 338.702 288.225Z" fill="#262626"/>
<path d="M284.125 547.739C326.163 547.739 360.241 513.661 360.241 471.623C360.241 429.585 326.163 395.507 284.125 395.507C242.087 395.507 208.009 429.585 208.009 471.623C208.009 513.661 242.087 547.739 284.125 547.739Z" fill="#F3F5FD"/>
<path d="M313.583 458.144H309.383V448.771C309.383 442.071 306.721 435.646 301.984 430.908C297.246 426.171 290.821 423.509 284.121 423.509C277.421 423.509 270.996 426.171 266.258 430.908C261.521 435.646 258.859 442.071 258.859 448.771V458.144H254.664C253.714 458.144 252.774 458.331 251.897 458.694C251.02 459.058 250.223 459.59 249.551 460.262C248.88 460.933 248.347 461.731 247.984 462.608C247.621 463.485 247.434 464.425 247.434 465.375V512.506C247.434 513.456 247.621 514.396 247.984 515.273C248.347 516.15 248.88 516.948 249.551 517.619C250.223 518.29 251.02 518.823 251.897 519.187C252.774 519.55 253.714 519.737 254.664 519.737H313.579C314.529 519.737 315.469 519.55 316.346 519.187C317.223 518.823 318.02 518.29 318.692 517.619C319.363 516.948 319.896 516.15 320.259 515.273C320.622 514.396 320.809 513.456 320.809 512.506V465.375C320.809 463.458 320.048 461.619 318.693 460.263C317.338 458.907 315.5 458.145 313.583 458.144ZM267.076 448.771C267.076 444.249 268.872 439.912 272.07 436.715C275.267 433.517 279.604 431.721 284.126 431.721C288.648 431.721 292.985 433.517 296.182 436.715C299.38 439.912 301.176 444.249 301.176 448.771V458.144H267.076V448.771Z" fill="#0CBC8B"/>
<path d="M284.125 499.887C289.903 499.887 294.587 495.203 294.587 489.425C294.587 483.647 289.903 478.963 284.125 478.963C278.347 478.963 273.663 483.647 273.663 489.425C273.663 495.203 278.347 499.887 284.125 499.887Z" fill="white"/>
<path d="M104.567 273.4C104.567 273.4 112.609 269.946 112.609 248.819L128.774 247.172C128.774 247.172 125.442 265.84 133.008 272.472L104.567 273.4Z" fill="#E98862"/>
<path d="M104.242 239.941C104.822 246.399 107.802 252.713 113.25 255.23C119.173 258.162 125.723 259.6 132.329 259.419C149.877 259.419 149.679 219.501 142.035 211.124C134.391 202.747 109.702 205.63 105.692 218.265C103.618 224.8 103.689 233.8 104.242 239.941Z" fill="#E98862"/>
<path d="M151.278 226.48C151.278 226.48 150.172 198.03 118.663 202.412C116.346 202.776 114.103 203.513 112.021 204.594C110.504 203.141 108.679 202.048 106.681 201.397C104.684 200.745 102.566 200.551 100.484 200.829C98.4013 201.108 96.4083 201.851 94.6524 203.005C92.8965 204.158 91.4227 205.692 90.3402 207.492C89.2577 209.293 88.5943 211.314 88.3992 213.406C88.204 215.497 88.4822 217.606 89.213 219.576C89.9437 221.546 91.1084 223.325 92.6207 224.784C94.133 226.242 95.9541 227.341 97.949 228C97.955 228.243 97.949 228.482 97.965 228.728C98.841 247.169 107.58 255.835 111.228 257.248C126.618 263.209 133.034 255.702 139.648 227.348C143.542 227.384 147.432 227.093 151.278 226.48Z" fill="#0F1011"/>
<path d="M141.059 241.787C141.038 243.403 140.382 244.945 139.232 246.08C138.083 247.215 136.532 247.852 134.917 247.852C133.301 247.852 131.75 247.215 130.601 246.08C129.451 244.945 128.795 243.403 128.774 241.787C128.76 240.976 128.91 240.171 129.213 239.42C129.517 238.668 129.969 237.986 130.543 237.412C131.116 236.839 131.798 236.387 132.55 236.083C133.301 235.78 134.106 235.63 134.917 235.644C139.292 235.859 141.059 238.394 141.059 241.787Z" fill="#E98862"/>
<path d="M87.311 677.554C87.311 677.554 87.381 655.806 87.381 653.88H66.381C66.381 655.8 66.311 677.486 66.311 677.486L87.311 677.554Z" fill="#E98862"/>
<path d="M112.839 685.676C113.404 685.673 113.962 685.554 114.479 685.326C114.995 685.098 115.459 684.766 115.842 684.35C116.224 683.935 116.517 683.445 116.702 682.911C116.886 682.377 116.959 681.811 116.915 681.248C116.854 680.468 116.572 679.721 116.101 679.095C115.629 678.47 114.989 677.993 114.256 677.719L89.814 669.533C89.3406 669.376 88.8388 669.323 88.3431 669.378C87.8474 669.433 87.3694 669.595 86.942 669.852C83.5817 672.184 79.562 673.375 75.474 673.252C72.2899 673.026 69.2334 671.909 66.653 670.03C66.4263 669.844 66.1513 669.726 65.8602 669.69C65.5691 669.655 65.2738 669.703 65.0088 669.828C64.7439 669.954 64.5202 670.153 64.3638 670.401C64.2075 670.649 64.125 670.937 64.126 671.23V683.182C64.1259 683.535 64.1954 683.884 64.3306 684.21C64.4659 684.535 64.6641 684.831 64.914 685.08C65.1638 685.329 65.4604 685.526 65.7866 685.66C66.1129 685.794 66.4624 685.862 66.815 685.86L112.839 685.676Z" fill="#C1D8ED"/>
<path d="M170.986 675.043C173.2 656.425 173.2 654.51 173.2 653.88H152.2C152.2 653.817 152.2 653.735 152.205 653.635C152.131 655.19 151.071 664.67 150.133 672.563L170.986 675.043Z" fill="#E98862"/>
<path d="M97.767 670.335L60.9 667.22C65.392 598.505 79.288 376.429 79.288 376.429L155.365 381.129L156.147 386.459L156.414 386.38C165.334 433.666 169.13 485.892 176.361 533.514C176.87 577.614 177.01 623.806 178.735 667.786L141.741 668.416C141.858 625.488 140.792 580.571 139.529 537.516C133.217 503.18 128.275 467.246 121.014 432.574C114.67 503.981 104.45 602.133 97.767 670.335Z" fill="#262626"/>
<path d="M196.572 685.676C197.137 685.673 197.695 685.554 198.212 685.326C198.729 685.098 199.193 684.766 199.575 684.35C199.958 683.935 200.251 683.445 200.435 682.911C200.62 682.377 200.693 681.811 200.649 681.248C200.588 680.468 200.305 679.721 199.834 679.096C199.363 678.471 198.723 677.993 197.99 677.719L173.547 669.533C173.074 669.376 172.572 669.323 172.076 669.378C171.58 669.433 171.102 669.595 170.675 669.852C167.315 672.184 163.295 673.376 159.207 673.252C156.023 673.025 152.967 671.909 150.387 670.03C150.16 669.844 149.885 669.726 149.594 669.691C149.303 669.655 149.008 669.703 148.743 669.829C148.478 669.954 148.254 670.153 148.097 670.401C147.941 670.649 147.858 670.937 147.859 671.23V683.182C147.859 683.535 147.929 683.884 148.064 684.209C148.199 684.535 148.397 684.831 148.647 685.079C148.897 685.328 149.194 685.525 149.52 685.659C149.846 685.793 150.195 685.861 150.548 685.86L196.572 685.676Z" fill="#C1D8ED"/>
<path d="M50.443 421.243L62.391 422.807C62.391 425.787 63.964 435.75 61.433 436.462C60.471 436.732 59.4 433.85 58.744 431.702C56.228 435.941 55.288 446.102 54.951 451.831C54.928 452.21 54.7913 452.573 54.5586 452.873C54.326 453.174 54.0082 453.397 53.6469 453.513C53.2855 453.63 52.8974 453.635 52.5331 453.528C52.1689 453.421 51.8454 453.206 51.605 452.912C42.179 441.357 50.443 421.243 50.443 421.243Z" fill="#E98862"/>
<path d="M156.554 335.966C156.878 308.234 171.454 270.466 138.278 269.046C134.264 268.873 114.672 268.846 100.329 268.846C90.692 268.846 82.781 271.803 78.213 276.372C62.462 292.123 81.795 318.963 81.795 339.972C81.795 360.981 72.295 370.39 72.995 381.167C74.095 398.113 156.423 394.109 160.618 384.484C164.936 374.55 156.17 368.434 156.554 335.966Z" fill="#367CFF"/>
<path d="M65.822 426.2L74.062 349.268L95.789 288.648L75.264 281.29L53.1 343.134C52.8079 343.947 52.6142 344.793 52.523 345.652L44.146 423.877L65.822 426.2Z" fill="#367CFF"/>
<path d="M242.026 326.437C242.026 326.437 256.266 322.63 258.326 319.937C260.386 317.244 255.515 308.062 255.515 308.062C255.515 308.062 269.77 302.378 268.423 300.071C266.834 297.347 249.015 306.881 249.015 306.881C249.015 306.881 252.915 302.358 251.037 301.136C250.266 300.636 249.252 301.164 246.337 304.298C243.02 307.869 237.297 312.925 237.297 312.925L242.026 326.437Z" fill="#E98862"/>
<path d="M189.352 344.184C190.395 344.184 191.433 344.034 192.433 343.738L247.043 327.638L240.879 306.723L193.094 320.808L154.394 274.938L137.728 289L181.018 340.308C182.041 341.522 183.317 342.498 184.756 343.167C186.196 343.837 187.764 344.184 189.352 344.184Z" fill="#367CFF"/>
<path d="M271.988 333.119L275.616 327.492C278.492 329.692 281.007 330.82 283.683 330.82C286.889 330.82 288.3 329.49 288.3 326.92C288.3 321.099 273.366 321.204 273.366 310.995C273.366 304.432 277.912 300.252 285.081 300.252C287.117 300.223 289.135 300.637 290.995 301.466C292.855 302.295 294.512 303.518 295.851 305.052L291.689 309.819C289.633 307.949 287.889 306.964 285.527 306.964C282.805 306.964 281.327 308.064 281.327 310.603C281.327 316.003 296.261 315.527 296.261 326.341C296.261 332.841 291.961 337.541 283.681 337.541C279.393 337.442 275.268 335.882 271.988 333.119ZM281.938 294.702H287.457V302.85H281.938V294.702ZM281.938 334.135H287.457V343.075H281.938V334.135Z" fill="white"/>
<path d="M1046.82 345.591H646.053V611.942H1046.82V345.591Z" fill="#DEE8F5"/>
<path opacity="0.55" d="M1051.3 341.315H637.309V409.006H1051.3V341.315Z" fill="#C1D8ED"/>
<path d="M1121.63 630.627H571.236V658.245H1121.63V630.627Z" fill="#F3F5FD"/>
<path d="M1102.32 603.009H590.545V630.627H1102.32V603.009Z" fill="#F3F5FD"/>
<path d="M1102.32 623.238H590.545V630.627H1102.32V623.238Z" fill="#DEE8F5"/>
<path d="M1121.63 650.856H571.236V658.245H1121.63V650.856Z" fill="#DEE8F5"/>
<path d="M1140.09 658.244H553.511V685.862H1140.09V658.244Z" fill="#F3F5FD"/>
<path d="M1140.09 678.474H553.511V685.863H1140.09V678.474Z" fill="#DEE8F5"/>
<path d="M673.802 366.352H629.513V590.58H673.802V366.352Z" fill="#F3F5FD"/>
<path d="M785.527 366.352H741.238V590.58H785.527V366.352Z" fill="#F3F5FD"/>
<path d="M1063.35 366.352H1019.07V590.58H1063.35V366.352Z" fill="#F3F5FD"/>
<path d="M616.176 345.591H687.14V371.035C687.14 371.888 686.801 372.705 686.198 373.308C685.595 373.911 684.778 374.25 683.925 374.25H619.392C618.539 374.25 617.722 373.911 617.119 373.308C616.516 372.705 616.177 371.888 616.177 371.035L616.176 345.591Z" fill="#C1D8ED"/>
<path d="M727.9 345.591H798.864V371.035C798.864 371.457 798.781 371.875 798.619 372.265C798.458 372.655 798.221 373.01 797.922 373.308C797.624 373.607 797.269 373.844 796.879 374.005C796.489 374.167 796.071 374.25 795.649 374.25H731.116C730.263 374.25 729.446 373.911 728.843 373.308C728.24 372.705 727.901 371.888 727.901 371.035L727.9 345.591Z" fill="#C1D8ED"/>
<path d="M1005.73 345.591H1076.69V371.035C1076.69 371.888 1076.35 372.705 1075.75 373.308C1075.15 373.911 1074.33 374.25 1073.48 374.25H1008.95C1008.09 374.25 1007.27 373.911 1006.67 373.308C1006.07 372.705 1005.73 371.888 1005.73 371.035L1005.73 345.591Z" fill="#C1D8ED"/>
<path d="M619.392 582.905H683.925C684.347 582.905 684.765 582.988 685.155 583.15C685.545 583.311 685.9 583.548 686.198 583.847C686.497 584.145 686.734 584.5 686.895 584.89C687.057 585.28 687.14 585.698 687.14 586.12V603.008H616.176V586.121C616.176 585.699 616.259 585.28 616.421 584.89C616.582 584.5 616.819 584.145 617.118 583.847C617.416 583.548 617.771 583.311 618.161 583.15C618.551 582.988 618.97 582.905 619.392 582.905Z" fill="#C1D8ED"/>
<path d="M731.116 582.905H795.649C796.071 582.905 796.489 582.988 796.879 583.15C797.269 583.311 797.624 583.548 797.922 583.847C798.221 584.145 798.458 584.5 798.619 584.89C798.781 585.28 798.864 585.698 798.864 586.12V603.008H727.9V586.121C727.9 585.699 727.983 585.28 728.145 584.89C728.306 584.5 728.543 584.145 728.842 583.847C729.14 583.548 729.495 583.311 729.885 583.15C730.275 582.988 730.694 582.905 731.116 582.905Z" fill="#C1D8ED"/>
<path d="M1008.95 582.905H1073.48C1073.9 582.905 1074.32 582.988 1074.71 583.15C1075.1 583.311 1075.45 583.548 1075.75 583.847C1076.05 584.145 1076.29 584.5 1076.45 584.89C1076.61 585.28 1076.69 585.698 1076.69 586.12V603.008H1005.73V586.121C1005.73 585.699 1005.81 585.28 1005.97 584.89C1006.14 584.5 1006.37 584.145 1006.67 583.847C1006.97 583.548 1007.32 583.311 1007.71 583.15C1008.1 582.988 1008.52 582.905 1008.95 582.905Z" fill="#C1D8ED"/>
<path d="M646.03 386.553C646.03 385.322 645.032 384.324 643.801 384.324C642.57 384.324 641.572 385.322 641.572 386.553V570.379C641.572 571.61 642.57 572.608 643.801 572.608C645.032 572.608 646.03 571.61 646.03 570.379V386.553Z" fill="#C1D8ED"/>
<path d="M661.743 386.553C661.743 385.322 660.745 384.324 659.514 384.324C658.283 384.324 657.285 385.322 657.285 386.553V570.379C657.285 571.61 658.283 572.608 659.514 572.608C660.745 572.608 661.743 571.61 661.743 570.379V386.553Z" fill="#C1D8ED"/>
<path d="M757.755 386.553C757.755 385.322 756.757 384.324 755.526 384.324C754.295 384.324 753.297 385.322 753.297 386.553V570.379C753.297 571.61 754.295 572.608 755.526 572.608C756.757 572.608 757.755 571.61 757.755 570.379V386.553Z" fill="#C1D8ED"/>
<path d="M773.467 386.553C773.467 385.322 772.469 384.324 771.238 384.324C770.007 384.324 769.009 385.322 769.009 386.553V570.379C769.009 571.61 770.007 572.608 771.238 572.608C772.469 572.608 773.467 571.61 773.467 570.379V386.553Z" fill="#C1D8ED"/>
<path d="M955.079 366.352H910.79V590.58H955.079V366.352Z" fill="#F3F5FD"/>
<path d="M897.452 345.591H968.416V371.035C968.416 371.888 968.077 372.705 967.474 373.308C966.871 373.911 966.054 374.25 965.201 374.25H900.668C899.815 374.25 898.998 373.911 898.395 373.308C897.792 372.705 897.453 371.888 897.453 371.035L897.452 345.591Z" fill="#C1D8ED"/>
<path d="M900.668 582.905H965.2C965.622 582.905 966.04 582.988 966.43 583.15C966.82 583.311 967.175 583.548 967.473 583.847C967.772 584.145 968.009 584.5 968.17 584.89C968.332 585.28 968.415 585.698 968.415 586.12V603.008H897.452V586.121C897.452 585.699 897.535 585.28 897.697 584.89C897.858 584.5 898.095 584.145 898.394 583.847C898.692 583.548 899.047 583.311 899.437 583.15C899.827 582.988 900.246 582.905 900.668 582.905Z" fill="#C1D8ED"/>
<path d="M927.307 386.553C927.307 385.322 926.309 384.324 925.078 384.324C923.847 384.324 922.849 385.322 922.849 386.553V570.379C922.849 571.61 923.847 572.608 925.078 572.608C926.309 572.608 927.307 571.61 927.307 570.379V386.553Z" fill="#C1D8ED"/>
<path d="M943.019 386.553C943.019 385.322 942.021 384.324 940.79 384.324C939.559 384.324 938.561 385.322 938.561 386.553V570.379C938.561 571.61 939.559 572.608 940.79 572.608C942.021 572.608 943.019 571.61 943.019 570.379V386.553Z" fill="#C1D8ED"/>
<path d="M1035.58 386.553C1035.58 385.322 1034.59 384.324 1033.35 384.324C1032.12 384.324 1031.12 385.322 1031.12 386.553V570.379C1031.12 571.61 1032.12 572.608 1033.35 572.608C1034.59 572.608 1035.58 571.61 1035.58 570.379V386.553Z" fill="#C1D8ED"/>
<path d="M1051.3 386.553C1051.3 385.322 1050.3 384.324 1049.07 384.324C1047.84 384.324 1046.84 385.322 1046.84 386.553V570.379C1046.84 571.61 1047.84 572.608 1049.07 572.608C1050.3 572.608 1051.3 571.61 1051.3 570.379V386.553Z" fill="#C1D8ED"/>
<path d="M1096.05 335.608V351.918C1096.05 352.795 1095.7 353.636 1095.08 354.256C1094.46 354.877 1093.62 355.225 1092.74 355.225H599.094C598.217 355.225 597.376 354.876 596.756 354.256C596.136 353.636 595.787 352.795 595.787 351.918V336.309C595.787 335.539 595.975 334.781 596.335 334.1C596.695 333.419 597.216 332.837 597.853 332.404L843.774 165.033C844.558 164.5 845.484 164.215 846.432 164.215C847.379 164.215 848.305 164.5 849.089 165.033L1093.99 331.703C1094.63 332.137 1095.15 332.719 1095.51 333.4C1095.86 334.08 1096.05 334.838 1096.05 335.608Z" fill="#DEE8F5"/>
<path d="M1030.14 327.7H662.726C662.454 327.7 662.189 327.613 661.97 327.452C661.752 327.291 661.59 327.063 661.51 326.804C661.43 326.544 661.435 326.265 661.525 326.008C661.615 325.752 661.785 325.531 662.01 325.378L845.716 200.348C845.927 200.205 846.176 200.128 846.431 200.128C846.686 200.128 846.935 200.205 847.146 200.348L1030.86 325.378C1031.08 325.531 1031.25 325.752 1031.34 326.008C1031.43 326.265 1031.44 326.543 1031.36 326.803C1031.28 327.063 1031.12 327.29 1030.9 327.452C1030.68 327.613 1030.41 327.7 1030.14 327.7Z" fill="#F3F5FD"/>
</g>
<defs>
<clipPath id="clip0_1_2251">
<rect width="1161.27" height="685.862" fill="white"/>
</clipPath>
</defs>
</svg>
