<svg width="42" height="34" viewBox="0 0 42 34" fill="none" xmlns="http://www.w3.org/2000/svg">
<path d="M11.461 34.0003H1.2638C0.515788 33.4033 0.4642 32.0583 1.2395 31.4577C1.83711 30.9948 2.74059 31.1187 3.30225 31.6001C3.1973 31.2417 3.19527 30.8609 3.2963 30.5014C3.47892 29.8538 3.88499 29.196 4.50482 28.9341C6.08675 28.2666 7.21077 29.6652 7.43605 30.447C7.84117 29.8514 8.74711 29.5366 9.31605 29.9375C10.0365 30.4453 10.0038 31.246 9.42917 31.8206C10.1951 31.6778 10.7715 31.788 11.3028 32.358C11.7066 32.7921 11.7685 33.5314 11.461 34.0003Z" fill="#5F22D9"/>
<path d="M41.2655 34.0003H31.0685C30.3205 33.4033 30.2689 32.0583 31.0442 31.4577C31.6421 30.9948 32.5453 31.1187 33.1068 31.6001C33.0017 31.2417 32.9998 30.8609 33.1011 30.5014C33.2834 29.8538 33.6898 29.196 34.3095 28.9341C35.8914 28.2666 37.0156 29.6652 37.2409 30.447C37.646 29.8514 38.5519 29.5366 39.1209 29.9375C39.8413 30.4453 39.8084 31.246 39.2336 31.8206C39.9995 31.6778 40.5762 31.788 41.1073 32.358C41.5111 32.7921 41.5732 33.5314 41.2655 34.0003Z" fill="#5F22D9"/>
<path d="M34.2152 12.4609H8.84674V29.3209H34.2152V12.4609Z" fill="#5F22D9" fill-opacity="0.22"/>
<path opacity="0.55" d="M34.4989 12.1904H8.29327V16.4753H34.4989V12.1904Z" fill="#C1D8ED"/>
<path d="M38.9507 30.5039H4.11084V32.2521H38.9507V30.5039Z" fill="#F3F5FD"/>
<path d="M37.7284 28.7554H5.33313V30.5036H37.7284V28.7554Z" fill="#F3F5FD"/>
<path d="M37.7284 30.0361H5.33313V30.5039H37.7284V30.0361Z" fill="#5F22D9" fill-opacity="0.22"/>
<path d="M38.9507 31.7842H4.11084V32.2519H38.9507V31.7842Z" fill="#5F22D9" fill-opacity="0.22"/>
<path d="M40.1192 32.252H2.98883V34.0002H40.1192V32.252Z" fill="#F3F5FD"/>
<path d="M40.1192 33.5322H2.98883V33.9999H40.1192V33.5322Z" fill="#5F22D9" fill-opacity="0.22"/>
<path d="M10.6032 13.7749H7.79974V27.9685H10.6032V13.7749Z" fill="#F3F5FD"/>
<path d="M17.6754 13.7749H14.8719V27.9685H17.6754V13.7749Z" fill="#F3F5FD"/>
<path d="M35.2616 13.7749H32.4587V27.9685H35.2616V13.7749Z" fill="#F3F5FD"/>
<path d="M6.95551 12.4609H11.4475V14.0715C11.4475 14.1255 11.4261 14.1773 11.3879 14.2154C11.3497 14.2536 11.298 14.275 11.244 14.275H7.15908C7.10508 14.275 7.05337 14.2536 7.0152 14.2154C6.97703 14.1773 6.95557 14.1255 6.95557 14.0715L6.95551 12.4609Z" fill="#C1D8ED"/>
<path d="M14.0276 12.4609H18.5197V14.0715C18.5197 14.0983 18.5144 14.1247 18.5042 14.1494C18.494 14.1741 18.479 14.1966 18.46 14.2154C18.4412 14.2343 18.4187 14.2493 18.394 14.2595C18.3693 14.2698 18.3429 14.275 18.3162 14.275H14.2312C14.1772 14.275 14.1255 14.2536 14.0873 14.2154C14.0492 14.1773 14.0277 14.1255 14.0277 14.0715L14.0276 12.4609Z" fill="#C1D8ED"/>
<path d="M31.6143 12.4609H36.106V14.0715C36.106 14.1255 36.0845 14.1773 36.0465 14.2154C36.0085 14.2536 35.9566 14.275 35.9028 14.275H31.8181C31.7636 14.275 31.7117 14.2536 31.6738 14.2154C31.6358 14.1773 31.6143 14.1255 31.6143 14.0715V12.4609Z" fill="#C1D8ED"/>
<path d="M7.15908 27.4834H11.244C11.2707 27.4834 11.2972 27.4887 11.3219 27.4989C11.3466 27.5091 11.369 27.5241 11.3879 27.543C11.4068 27.5619 11.4218 27.5844 11.432 27.609C11.4423 27.6337 11.4475 27.6602 11.4475 27.6869V28.7559H6.95551V27.687C6.95551 27.6603 6.96076 27.6337 6.97101 27.609C6.9812 27.5844 6.9962 27.5619 7.01513 27.543C7.03399 27.5241 7.05647 27.5091 7.08115 27.4989C7.10584 27.4887 7.13237 27.4834 7.15908 27.4834Z" fill="#C1D8ED"/>
<path d="M14.2312 27.4834H18.3162C18.3429 27.4834 18.3693 27.4887 18.394 27.4989C18.4187 27.5091 18.4412 27.5241 18.46 27.543C18.479 27.5619 18.494 27.5844 18.5042 27.609C18.5144 27.6337 18.5197 27.6602 18.5197 27.6869V28.7559H14.0276V27.687C14.0276 27.6603 14.0329 27.6337 14.0432 27.609C14.0533 27.5844 14.0683 27.5619 14.0873 27.543C14.1061 27.5241 14.1286 27.5091 14.1533 27.4989C14.178 27.4887 14.2045 27.4834 14.2312 27.4834Z" fill="#C1D8ED"/>
<path d="M31.8181 27.4834H35.9028C35.9294 27.4834 35.956 27.4887 35.9807 27.4989C36.0054 27.5091 36.0275 27.5241 36.0465 27.543C36.0655 27.5619 36.0807 27.5844 36.0908 27.609C36.101 27.6337 36.106 27.6602 36.106 27.6869V28.7559H31.6143V27.687C31.6143 27.6603 31.6193 27.6337 31.6294 27.609C31.6402 27.5844 31.6548 27.5619 31.6738 27.543C31.6927 27.5241 31.7149 27.5091 31.7396 27.4989C31.7643 27.4887 31.7909 27.4834 31.8181 27.4834Z" fill="#C1D8ED"/>
<path d="M8.8453 15.0537C8.8453 14.9758 8.78213 14.9126 8.70421 14.9126C8.62628 14.9126 8.56311 14.9758 8.56311 15.0537V26.6899C8.56311 26.7678 8.62628 26.8309 8.70421 26.8309C8.78213 26.8309 8.8453 26.7678 8.8453 26.6899V15.0537Z" fill="#C1D8ED"/>
<path d="M9.83993 15.0537C9.83993 14.9758 9.77676 14.9126 9.69883 14.9126C9.62091 14.9126 9.55774 14.9758 9.55774 15.0537V26.6899C9.55774 26.7678 9.62091 26.8309 9.69883 26.8309C9.77676 26.8309 9.83993 26.7678 9.83993 26.6899V15.0537Z" fill="#C1D8ED"/>
<path d="M15.9174 15.0537C15.9174 14.9758 15.8543 14.9126 15.7763 14.9126C15.6984 14.9126 15.6353 14.9758 15.6353 15.0537V26.6899C15.6353 26.7678 15.6984 26.8309 15.7763 26.8309C15.8543 26.8309 15.9174 26.7678 15.9174 26.6899V15.0537Z" fill="#C1D8ED"/>
<path d="M16.912 15.0537C16.912 14.9758 16.8488 14.9126 16.7709 14.9126C16.693 14.9126 16.6298 14.9758 16.6298 15.0537V26.6899C16.6298 26.7678 16.693 26.8309 16.7709 26.8309C16.8488 26.8309 16.912 26.7678 16.912 26.6899V15.0537Z" fill="#C1D8ED"/>
<path d="M28.408 13.7749H25.6046V27.9685H28.408V13.7749Z" fill="#F3F5FD"/>
<path d="M24.7603 12.4609H29.2523V14.0715C29.2523 14.1255 29.2308 14.1773 29.1926 14.2154C29.1545 14.2536 29.1027 14.275 29.0488 14.275H24.9638C24.9098 14.275 24.8581 14.2536 24.8199 14.2154C24.7818 14.1773 24.7603 14.1255 24.7603 14.0715L24.7603 12.4609Z" fill="#C1D8ED"/>
<path d="M24.9638 27.4834H29.0487C29.0754 27.4834 29.1019 27.4887 29.1266 27.4989C29.1512 27.5091 29.1737 27.5241 29.1926 27.543C29.2115 27.5619 29.2265 27.5844 29.2367 27.609C29.2469 27.6337 29.2522 27.6602 29.2522 27.6869V28.7559H24.7603V27.687C24.7603 27.6603 24.7655 27.6337 24.7758 27.609C24.786 27.5844 24.801 27.5619 24.8199 27.543C24.8387 27.5241 24.8612 27.5091 24.8859 27.4989C24.9106 27.4887 24.9371 27.4834 24.9638 27.4834Z" fill="#C1D8ED"/>
<path d="M26.6501 15.0537C26.6501 14.9758 26.5869 14.9126 26.509 14.9126C26.431 14.9126 26.3679 14.9758 26.3679 15.0537V26.6899C26.3679 26.7678 26.431 26.8309 26.509 26.8309C26.5869 26.8309 26.6501 26.7678 26.6501 26.6899V15.0537Z" fill="#C1D8ED"/>
<path d="M27.6447 15.0537C27.6447 14.9758 27.5815 14.9126 27.5036 14.9126C27.4257 14.9126 27.3625 14.9758 27.3625 15.0537V26.6899C27.3625 26.7678 27.4257 26.8309 27.5036 26.8309C27.5815 26.8309 27.6447 26.7678 27.6447 26.6899V15.0537Z" fill="#C1D8ED"/>
<path d="M33.5038 15.0537C33.5038 14.9758 33.4411 14.9126 33.3626 14.9126C33.2847 14.9126 33.2214 14.9758 33.2214 15.0537V26.6899C33.2214 26.7678 33.2847 26.8309 33.3626 26.8309C33.4411 26.8309 33.5038 26.7678 33.5038 26.6899V15.0537Z" fill="#C1D8ED"/>
<path d="M34.4988 15.0537C34.4988 14.9758 34.4355 14.9126 34.3576 14.9126C34.2798 14.9126 34.2165 14.9758 34.2165 15.0537V26.6899C34.2165 26.7678 34.2798 26.8309 34.3576 26.8309C34.4355 26.8309 34.4988 26.7678 34.4988 26.6899V15.0537Z" fill="#C1D8ED"/>
<path d="M37.3315 11.8291V12.8616C37.3315 12.9171 37.3093 12.9703 37.2701 13.0096C37.2309 13.0489 37.1777 13.0709 37.122 13.0709H5.87425C5.81874 13.0709 5.7655 13.0488 5.72625 13.0096C5.68701 12.9703 5.66492 12.9171 5.66492 12.8616V11.8735C5.66492 11.8248 5.67682 11.7768 5.69961 11.7337C5.7224 11.6906 5.75538 11.6537 5.7957 11.6263L21.3625 1.03176C21.4121 0.998021 21.4707 0.97998 21.5307 0.97998C21.5907 0.97998 21.6493 0.998021 21.6989 1.03176L37.2011 11.582C37.2416 11.6094 37.2745 11.6463 37.2973 11.6894C37.3195 11.7324 37.3315 11.7804 37.3315 11.8291Z" fill="#5F22D9" fill-opacity="0.22"/>
</svg>
