<svg width="61" height="61" viewBox="0 0 61 61" fill="none" xmlns="http://www.w3.org/2000/svg">
<path opacity="0.7" d="M30.5005 61C47.3449 61 61 47.3448 61 30.5C61 13.6553 47.3449 0 30.5005 0C13.6557 0 0 13.6553 0 30.5C0 47.3448 13.6557 61 30.5005 61Z" fill="#5F22D9" fill-opacity="0.23"/>
<path opacity="0.7" d="M30.5005 55C44.0325 55 55 44.0308 55 30.5C55 16.969 44.0325 6 30.5005 6C16.9694 6 6 16.969 6 30.5C6 44.0308 16.9694 55 30.5005 55Z" fill="#5F22D9" fill-opacity="0.58"/>
<path opacity="0.7" d="M22 39.619L24.3916 36.0136C26.2866 37.4255 27.9448 38.147 29.7081 38.147C31.8218 38.147 32.7513 37.2943 32.7513 35.6441C32.7513 31.914 22.9082 31.9812 22.9082 25.4386C22.9082 21.233 25.9046 18.5537 30.6297 18.5537C33.8192 18.5537 35.9864 19.8334 37.7284 21.6293L34.9854 24.6842C33.63 23.4856 32.4807 22.8546 30.9239 22.8546C29.1287 22.8546 28.1566 23.558 28.1566 25.1868C28.1566 28.6454 38 28.3422 38 35.2718C38 39.4351 35.1662 42.4476 29.7081 42.4476C27.3527 42.447 24.1057 41.4747 22 39.619ZM28.5585 15H32.1961V20.2212H28.5585V15ZM28.5585 40.2706H32.1961V46H28.5585V40.2706Z" fill="white"/>
</svg>
