<svg width="24" height="37" viewBox="0 0 24 37" fill="none" xmlns="http://www.w3.org/2000/svg">
<path d="M21.4802 7.06464H20.2461C19.9397 7.06464 19.646 6.94294 19.4294 6.72639C19.2128 6.50975 19.0911 6.216 19.0911 5.90969V3.73252C17.7807 4.46285 15.3655 5.32652 11.4183 5.14563C9.17211 5.04288 7.38448 4.61232 6.05713 4.1393C5.59031 3.9737 5.13257 3.78381 4.68562 3.57031V5.90969C4.68562 6.216 4.56393 6.50975 4.34738 6.72639C4.13074 6.94294 3.83699 7.06464 3.53067 7.06464H2.29632C1.68725 7.06464 1.10323 7.30658 0.672588 7.73723C0.241944 8.16796 0 8.75197 0 9.36104V34.2832C0 34.7746 0.195237 35.2458 0.542656 35.5933C0.890161 35.9407 1.3614 36.136 1.85276 36.136H21.9239C22.1672 36.136 22.4081 36.0881 22.6329 35.9949C22.8577 35.9018 23.0619 35.7654 23.234 35.5933C23.406 35.4213 23.5424 35.217 23.6356 34.9922C23.7287 34.7674 23.7766 34.5265 23.7766 34.2832V9.36079C23.7765 8.7518 23.5345 8.16779 23.1039 7.73714C22.6732 7.30658 22.0892 7.06464 21.4802 7.06464Z" fill="#DEE8F5"/>
<path d="M17.7198 4.1393C16.3924 4.61232 14.6048 5.04288 12.3586 5.14563C12.1992 5.15294 11.578 5.15294 11.4185 5.14563C9.17233 5.04288 7.3847 4.61232 6.05736 4.1393C5.59054 3.9737 5.1328 3.78381 4.68585 3.57031V5.63479C6.14313 6.28615 8.29083 6.86872 11.3081 6.86872H12.469C15.4864 6.86872 17.6341 6.28615 19.0913 5.63479V3.57031C18.6444 3.78381 18.1867 3.9737 17.7198 4.1393Z" fill="#C1D8ED"/>
<path d="M19.0913 3.02197V4.10049C17.781 4.83083 15.3658 5.6945 11.4185 5.51361C9.17233 5.41086 7.3847 4.9803 6.05736 4.50728C5.59054 4.34168 5.1328 4.15179 4.68585 3.93829V3.02197H19.0913Z" fill="#DEE8F5"/>
<path d="M11.6863 33.9297H3.36254C2.96323 33.9297 2.63959 34.2533 2.63959 34.6526V35.4132C2.63959 35.8125 2.96323 36.1362 3.36254 36.1362H11.6863C12.0856 36.1362 12.4092 35.8125 12.4092 35.4132V34.6526C12.4092 34.2533 12.0856 33.9297 11.6863 33.9297Z" fill="#5F22D9" fill-opacity="0.37"/>
<path d="M10.3904 31.7231H2.06664C1.66733 31.7231 1.34369 32.0468 1.34369 32.4461V33.2067C1.34369 33.606 1.66733 33.9296 2.06664 33.9296H10.3904C10.7897 33.9296 11.1133 33.606 11.1133 33.2067V32.4461C11.1133 32.0468 10.7897 31.7231 10.3904 31.7231Z" fill="#5F22D9" fill-opacity="0.37"/>
<path d="M11.6863 29.5166H3.36254C2.96323 29.5166 2.63959 29.8402 2.63959 30.2396V31.0001C2.63959 31.3994 2.96323 31.7231 3.36254 31.7231H11.6863C12.0856 31.7231 12.4092 31.3994 12.4092 31.0001V30.2396C12.4092 29.8402 12.0856 29.5166 11.6863 29.5166Z" fill="#5F22D9" fill-opacity="0.37"/>
<path d="M11.0383 27.3501H2.71459C2.31528 27.3501 1.99164 27.6737 1.99164 28.073V28.8336C1.99164 29.2329 2.31528 29.5566 2.71459 29.5566H11.0383C11.4376 29.5566 11.7613 29.2329 11.7613 28.8336V28.073C11.7613 27.6737 11.4376 27.3501 11.0383 27.3501Z" fill="#5F22D9" fill-opacity="0.37"/>
<path d="M9.74235 25.1436H1.41863C1.01932 25.1436 0.695679 25.4672 0.695679 25.8665V26.6271C0.695679 27.0264 1.01932 27.35 1.41863 27.35H9.74235C10.1417 27.35 10.4653 27.0264 10.4653 26.6271V25.8665C10.4653 25.4672 10.1417 25.1436 9.74235 25.1436Z" fill="#5F22D9" fill-opacity="0.37"/>
<path d="M11.0383 22.937H2.71459C2.31528 22.937 1.99164 23.2607 1.99164 23.66V24.4205C1.99164 24.8198 2.31528 25.1435 2.71459 25.1435H11.0383C11.4376 25.1435 11.7613 24.8198 11.7613 24.4205V23.66C11.7613 23.2607 11.4376 22.937 11.0383 22.937Z" fill="#5F22D9" fill-opacity="0.37"/>
<path d="M12.3342 20.7158H4.01049C3.61118 20.7158 3.28754 21.0395 3.28754 21.4388V22.1993C3.28754 22.5986 3.61118 22.9223 4.01049 22.9223H12.3342C12.7335 22.9223 13.0572 22.5986 13.0572 22.1993V21.4388C13.0572 21.0395 12.7335 20.7158 12.3342 20.7158Z" fill="#5F22D9" fill-opacity="0.37"/>
<path d="M11.0383 18.5098H2.71459C2.31528 18.5098 1.99164 18.8334 1.99164 19.2327V19.9933C1.99164 20.3926 2.31528 20.7162 2.71459 20.7162H11.0383C11.4376 20.7162 11.7613 20.3926 11.7613 19.9933V19.2327C11.7613 18.8334 11.4376 18.5098 11.0383 18.5098Z" fill="#5F22D9" fill-opacity="0.37"/>
<path d="M12.3342 16.373H4.01049C3.61118 16.373 3.28754 16.6967 3.28754 17.096V17.8566C3.28754 18.2559 3.61118 18.5795 4.01049 18.5795H12.3342C12.7335 18.5795 13.0572 18.2559 13.0572 17.8566V17.096C13.0572 16.6967 12.7335 16.373 12.3342 16.373Z" fill="#5F22D9" fill-opacity="0.37"/>
<path d="M14.6272 14.1665H6.30351C5.90421 14.1665 5.58057 14.4901 5.58057 14.8895V15.65C5.58057 16.0493 5.90421 16.373 6.30351 16.373H14.6272C15.0265 16.373 15.3502 16.0493 15.3502 15.65V14.8895C15.3502 14.4901 15.0265 14.1665 14.6272 14.1665Z" fill="#5F22D9" fill-opacity="0.37"/>
<path d="M18.5068 35.9701C21.3208 35.9701 23.6021 33.6888 23.6021 30.8747C23.6021 28.0606 21.3208 25.7793 18.5068 25.7793C15.6927 25.7793 13.4114 28.0606 13.4114 30.8747C13.4114 33.6888 15.6927 35.9701 18.5068 35.9701Z" fill="#5F22D9" fill-opacity="0.37"/>
<g opacity="0.29">
<path d="M18.5067 34.1776C20.331 34.1776 21.8099 32.6988 21.8099 30.8745C21.8099 29.0501 20.331 27.5713 18.5067 27.5713C16.6824 27.5713 15.2036 29.0501 15.2036 30.8745C15.2036 32.6988 16.6824 34.1776 18.5067 34.1776Z" fill="white"/>
</g>
<path d="M16.908 30.9443L17.4637 30.8243C17.5041 31.1293 17.5876 31.3478 17.7483 31.5085C17.9408 31.701 18.1054 31.7059 18.2601 31.551C18.6096 31.2014 17.7065 30.3111 18.3195 29.6979C18.7135 29.3038 19.2376 29.3258 19.6681 29.7563C19.7921 29.8768 19.8884 30.0228 19.9504 30.1842C20.0123 30.3457 20.0383 30.5187 20.0266 30.6912L19.4904 30.7276C19.4793 30.4918 19.4337 30.3279 19.2919 30.1861C19.1284 30.0227 18.9738 29.9999 18.8212 30.1525C18.4972 30.4765 19.4223 31.345 18.7729 31.9944C18.3828 32.3845 17.8425 32.4085 17.3452 31.9112C17.0935 31.6481 16.9393 31.307 16.908 30.9443ZM19.8124 29.2349L20.1436 29.5661L19.6543 30.0553L19.3231 29.7241L19.8124 29.2349ZM17.4445 31.6029L17.7757 31.9341L17.2389 32.4709L16.9077 32.1397L17.4445 31.6029Z" fill="white"/>
<path d="M20.5054 24.0268L13.9415 18.9082C13.6267 18.6627 13.1723 18.7189 12.9268 19.0338L12.4591 19.6336C12.2136 19.9484 12.2698 20.4027 12.5847 20.6482L19.1486 25.7668C19.4634 26.0123 19.9178 25.9561 20.1633 25.6412L20.6309 25.0415C20.8765 24.7266 20.8203 24.2723 20.5054 24.0268Z" fill="#5F22D9" fill-opacity="0.37"/>
<path d="M23.409 23.4926L16.8451 18.3741C16.5303 18.1285 16.0759 18.1848 15.8304 18.4996L15.3627 19.0994C15.1172 19.4143 15.1734 19.8685 15.4882 20.114L22.0522 25.2326C22.367 25.4781 22.8213 25.4219 23.0669 25.107L23.5345 24.5073C23.78 24.1924 23.7238 23.7381 23.409 23.4926Z" fill="#5F22D9" fill-opacity="0.37"/>
<path d="M20.3233 2.36084C20.2963 2.38835 20.2561 2.42784 20.2019 2.47701C19.2661 3.07419 16.6505 4.46761 12.3583 4.66395C12.1989 4.67125 11.5776 4.67125 11.4182 4.66395C7.12606 4.46761 4.51043 3.07419 3.57466 2.47701C3.52048 2.42793 3.48023 2.38835 3.45331 2.36084V4.27084C3.45314 4.34107 3.47123 4.4102 3.50579 4.47126C3.54044 4.5324 3.59038 4.58344 3.65067 4.61945C5.04562 5.44669 7.47517 6.38678 11.3078 6.38678H12.4687C16.3014 6.38678 18.7309 5.44669 20.1259 4.61945C20.1862 4.58344 20.2361 4.5324 20.2708 4.47126C20.3053 4.4102 20.3234 4.34107 20.3233 4.27084V2.36084Z" fill="#DEE8F5"/>
<path d="M20.3208 2.33054C20.3208 3.24457 16.5453 4.661 11.8879 4.661C7.23058 4.661 3.45372 2.88891 3.45508 2.33054C3.45907 1.04336 7.23058 0 11.8879 0C16.5453 0 20.3208 1.0437 20.3208 2.33054Z" fill="#C1D8ED"/>
<path d="M15.3442 2.03955H8.43225V2.62204H15.3442V2.03955Z" fill="#DEE8F5"/>
</svg>
