<svg width="83" height="68" viewBox="0 0 83 68" fill="none" xmlns="http://www.w3.org/2000/svg">
<g opacity="0.4">
<path d="M43.6519 48.5703H34.4297V54.7185H43.6519V48.5703Z" fill="#5F22D9"/>
<path d="M11.3245 48.5703H34.4297V54.7185H11.3245C11.093 54.7182 10.8711 54.6263 10.7074 54.4629C10.5438 54.2996 10.4519 54.0781 10.4519 53.8471V49.442C10.4519 49.211 10.5438 48.9892 10.7074 48.8259C10.871 48.6625 11.093 48.5706 11.3245 48.5703Z" fill="#5F22D9" fill-opacity="0.39"/>
<path opacity="0.15" d="M64.5555 48.5703H82.1124C82.3479 48.5703 82.5737 48.6622 82.7401 48.8255C82.9064 48.9889 83 49.2107 83 49.442V53.8471C83 54.0781 82.9064 54.2998 82.7398 54.4632C82.5734 54.6266 82.3476 54.7185 82.1124 54.7185H64.5555V48.5703Z" fill="#0F1011"/>
<path d="M43.6519 48.5703H64.9252C65.1534 48.5703 65.3722 48.6622 65.5334 48.8255C65.6946 48.9889 65.7852 49.2107 65.7852 49.442V53.8471C65.7852 54.0781 65.6946 54.2998 65.5331 54.4632C65.3719 54.6266 65.1531 54.7185 64.9252 54.7185H43.6519V48.5703Z" fill="#5F22D9" fill-opacity="0.39"/>
<path d="M33.2 54.7185H23.9778V60.8667H33.2V54.7185Z" fill="#5F22D9"/>
<path d="M0.873429 54.7185H23.9778V60.8667H0.873429C0.64178 60.8667 0.419621 60.7748 0.255822 60.6114C0.0920216 60.4481 0 60.2263 0 59.9951V55.5901C0 55.3588 0.0920216 55.1371 0.255822 54.9737C0.419621 54.8104 0.64178 54.7185 0.873429 54.7185Z" fill="#5F22D9" fill-opacity="0.39"/>
<path opacity="0.15" d="M54.7185 54.7185H71.6901C71.9178 54.7185 72.1361 54.8104 72.2969 54.9737C72.4577 55.1371 72.5481 55.3588 72.5481 55.5901V59.9951C72.5481 60.2263 72.4577 60.4481 72.2969 60.6114C72.1361 60.7748 71.9178 60.8667 71.6901 60.8667H54.7185V54.7185Z" fill="#0F1011"/>
<path d="M33.2 54.7185H55.0642C55.2988 54.7185 55.5236 54.8104 55.6893 54.9737C55.8549 55.1371 55.9481 55.3588 55.9481 55.5901V59.9951C55.9481 60.2263 55.8549 60.4481 55.6893 60.6114C55.5236 60.7748 55.2988 60.8667 55.0642 60.8667H33.2V54.7185Z" fill="#5F22D9" fill-opacity="0.39"/>
<path opacity="0.15" d="M57.7926 60.8667H75.3497C75.585 60.8667 75.8108 60.9586 75.9771 61.1222C76.1435 61.2856 76.237 61.5073 76.237 61.7383V66.1433C76.237 66.3742 76.1435 66.596 75.9771 66.7593C75.8108 66.923 75.585 67.0148 75.3497 67.0148H57.7926V60.8667Z" fill="#0F1011"/>
<path d="M36.8888 60.8667H27.6666V67.0148H36.8888V60.8667Z" fill="#5F22D9"/>
<path d="M4.56227 60.8667H27.6666V67.0148H4.56227C4.33062 67.0148 4.10847 66.923 3.94466 66.7596C3.78086 66.5963 3.68884 66.3745 3.68884 66.1433V61.7383C3.68884 61.507 3.78086 61.2853 3.94466 61.1219C4.10847 60.9586 4.33062 60.8667 4.56227 60.8667Z" fill="#5F22D9" fill-opacity="0.39"/>
<path d="M36.8889 60.8667H58.1623C58.3905 60.8667 58.6092 60.9586 58.7704 61.1219C58.9316 61.2853 59.0222 61.507 59.0222 61.7383V66.1433C59.0222 66.3745 58.9316 66.5963 58.7704 66.7596C58.6092 66.923 58.3905 67.0148 58.1623 67.0148H36.8889V60.8667Z" fill="#5F22D9" fill-opacity="0.39"/>
<path d="M36.1244 13.925C35.8937 13.683 35.5772 13.5396 35.2424 13.5259H25.623C25.2882 13.5396 24.9719 13.6827 24.7414 13.925C20.6903 18.1141 16.9901 22.6261 13.6779 27.4159C9.66944 33.3232 10.3108 38.8315 15.3617 43.9403C19.3701 48.0117 24.6613 48.5703 30.4333 48.5703C36.2054 48.5703 41.4966 48.0117 45.505 43.9403C50.5559 38.8324 51.1973 33.3232 47.1885 27.4159C43.8536 22.6431 40.1544 18.1326 36.1244 13.925Z" fill="#5F22D9"/>
<path d="M44.6056 1.67335C43.2095 0.106448 40.8722 1.48699 38.5575 3.13828C37.8175 3.66515 36.9025 3.88461 36.0048 3.75013C35.1071 3.61596 34.2959 3.13828 33.7419 2.4176C32.7326 1.11159 31.631 0 30.6104 0C29.6371 0 28.5275 1.1095 27.506 2.4152C26.9401 3.13261 26.1162 3.59955 25.2109 3.71614C24.3056 3.83243 23.3908 3.58882 22.6624 3.03779C20.4213 1.34417 18.156 -0.0909429 16.7741 1.51532C12.9726 6.94209 24.0898 14.9889 25.1235 15.8655C25.3616 16.0251 35.9381 16.0251 36.0973 15.8655C37.131 15.0676 48.7526 6.42983 44.6056 1.67335Z" fill="#5F22D9"/>
<path d="M37.5243 15.9849H23.3421C23.1834 15.9849 23.0262 15.953 22.8795 15.8914C22.7329 15.8294 22.5996 15.739 22.4874 15.6249C22.3751 15.5108 22.2861 15.3752 22.2253 15.2259C22.1646 15.0768 22.1333 14.9167 22.1333 14.7554C22.1333 14.5941 22.1646 14.434 22.2253 14.2849C22.2861 14.1356 22.3751 14 22.4874 13.8859C22.5996 13.7718 22.7329 13.6814 22.8795 13.6194C23.0262 13.5578 23.1834 13.5259 23.3421 13.5259H37.5243C37.8424 13.5339 38.1454 13.666 38.3703 13.8948C38.5953 14.1236 38.7253 14.4318 38.7331 14.7554C38.7361 14.9176 38.7069 15.079 38.6472 15.2295C38.5875 15.3801 38.4985 15.5169 38.3857 15.6316C38.273 15.7463 38.1385 15.8368 37.9904 15.8975C37.8424 15.9582 37.6838 15.988 37.5243 15.9849Z" fill="#262626"/>
<path d="M29.4944 41.8047V39.4321C28.7199 39.3378 27.962 39.1422 27.2411 38.8509C26.493 38.5664 25.804 38.1526 25.2074 37.6289L26.7653 35.2799C27.3069 35.6952 27.9003 36.042 28.5313 36.3121C29.0742 36.5381 29.6583 36.6552 30.2487 36.6561C30.9308 36.6561 31.43 36.5217 31.7467 36.2528C31.9139 36.0938 32.0433 35.9006 32.1254 35.6875C32.2074 35.4743 32.2403 35.2461 32.2216 35.0191C32.2244 34.8221 32.1835 34.6266 32.1014 34.4463C32.0193 34.2664 31.8985 34.1053 31.7467 33.975C31.3827 33.6579 30.9822 33.3831 30.553 33.1564C30.0738 32.8956 29.5583 32.6345 29.0062 32.3737C28.4582 32.1153 27.9397 31.8009 27.4594 31.4365C26.9878 31.0808 26.5839 30.6469 26.2661 30.1552C25.9346 29.6106 25.7698 28.9848 25.7911 28.3518C25.7504 27.299 26.1006 26.2672 26.7776 25.4455C27.4758 24.6557 28.4373 24.1305 29.4934 23.9625V21.5186H31.8561V23.914C32.5791 24.0056 33.2753 24.2401 33.9021 24.6027C34.4859 24.9503 35.0186 25.3734 35.4855 25.8602L33.6833 27.8535C33.3058 27.5008 32.8791 27.2014 32.4165 26.9636C31.984 26.76 31.5084 26.6585 31.028 26.6669C30.553 26.6358 30.0812 26.7612 29.6883 27.0229C29.5237 27.1685 29.3963 27.3496 29.3161 27.5514C29.2359 27.7535 29.2052 27.9709 29.2263 28.1865C29.2251 28.3712 29.2673 28.5539 29.3496 28.7204C29.4319 28.8872 29.5522 29.033 29.7012 29.1474C30.0683 29.4408 30.4688 29.692 30.8949 29.8959C31.3738 30.1331 31.8893 30.3783 32.4417 30.6316C32.991 30.8828 33.5096 31.1934 33.9882 31.5569C34.4665 31.9204 34.8714 32.3671 35.1821 32.8743C35.5163 33.457 35.6804 34.1176 35.6571 34.7847C35.6853 35.8372 35.3506 36.8687 34.7069 37.7146C34.0737 38.5296 33.1238 39.0713 31.857 39.3399V41.8074L29.4944 41.8047Z" fill="#F1F1F1"/>
</g>
</svg>
