<svg width="21" height="39" viewBox="0 0 21 39" fill="none" xmlns="http://www.w3.org/2000/svg">
<path d="M3.1711 39H18.8289C20.028 39 21 38.0332 21 36.8406V3.15945C21 1.96679 20.028 1 18.8289 1H3.1711C1.97201 1 1 1.96679 1 3.15945V36.8406C1 38.0332 1.97201 39 3.1711 39Z" fill="white"/>
<path d="M0 36.352V2.64857C0.000751904 1.94639 0.281514 1.27322 0.780853 0.776717C1.28012 0.280213 1.95706 0.000822398 2.66324 0H18.3366C19.0427 0.000822398 19.7197 0.280064 20.219 0.776568C20.7183 1.27307 20.9992 1.94624 21 2.64835V36.3517C20.9992 37.0538 20.7183 37.727 20.219 38.2234C19.7197 38.7199 19.0427 38.9992 18.3366 39H2.66324C1.95721 38.9992 1.28027 38.7199 0.781003 38.2235C0.281739 37.7271 0.000827094 37.054 0 36.352ZM2.66324 0.974915C2.21706 0.975439 1.78923 1.15188 1.47373 1.46559C1.15823 1.7793 0.980784 2.2047 0.980257 2.64835V36.3517C0.980708 36.7954 1.15816 37.2208 1.47366 37.5346C1.78916 37.8484 2.21699 38.0249 2.66324 38.0254H18.3366C18.7828 38.0249 19.2106 37.8484 19.5261 37.5347C19.8416 37.221 20.0191 36.7956 20.0196 36.352V2.64857C20.0191 2.20492 19.8416 1.77952 19.5261 1.46581C19.2106 1.15211 18.7828 0.975663 18.3366 0.97514L2.66324 0.974915Z" fill="#5F22D9" fill-opacity="0.2"/>
<path d="M12.9834 3H8.01657C7.74693 3 7.48842 2.90977 7.29778 2.74921C7.10713 2.58865 7 2.37092 7 2.14384V1H14V2.14384C14 2.37092 13.8929 2.58865 13.7022 2.74921C13.5116 2.90977 13.2531 3 12.9834 3Z" fill="#5F22D9" fill-opacity="0.2"/>
<path opacity="0.2" d="M14.9845 10H7.01552C6.45469 10 6 10.4062 6 10.9073V13.0927C6 13.5938 6.45469 14 7.01552 14H14.9845C15.5453 14 16 13.5938 16 13.0927V10.9073C16 10.4062 15.5453 10 14.9845 10Z" fill="#2C016D"/>
<path d="M10.5 29C13.5376 29 16 26.5376 16 23.5C16 20.4624 13.5376 18 10.5 18C7.46241 18 5 20.4624 5 23.5C5 26.5376 7.46241 29 10.5 29Z" fill="#F3F5FD"/>
<path d="M12.5076 22.5195H12.2214V21.8377C12.2214 21.3503 12.04 20.8829 11.7172 20.5382C11.3943 20.1936 10.9565 20 10.5 20C10.0434 20 9.60559 20.1936 9.28273 20.5382C8.95993 20.8829 8.77854 21.3503 8.77854 21.8377V22.5195H8.49267C8.42794 22.5195 8.36388 22.5331 8.30412 22.5595C8.24436 22.586 8.19005 22.6247 8.14426 22.6736C8.09853 22.7224 8.06221 22.7804 8.03748 22.8442C8.01274 22.908 8 22.9764 8 23.0455V26.474C8 26.5431 8.01274 26.6115 8.03748 26.6753C8.06221 26.7391 8.09853 26.7971 8.14426 26.8459C8.19005 26.8947 8.24436 26.9335 8.30412 26.96C8.36388 26.9864 8.42794 27 8.49267 27H12.5073C12.5721 27 12.6361 26.9864 12.6959 26.96C12.7556 26.9335 12.8099 26.8947 12.8557 26.8459C12.9015 26.7971 12.9378 26.7391 12.9625 26.6753C12.9873 26.6115 13 26.5431 13 26.474V23.0455C13 22.906 12.9481 22.7723 12.8558 22.6736C12.7635 22.575 12.6382 22.5196 12.5076 22.5195ZM9.33847 21.8377C9.33847 21.5087 9.46085 21.1932 9.67877 20.9607C9.89663 20.728 10.1922 20.5974 10.5003 20.5974C10.8085 20.5974 11.104 20.728 11.3218 20.9607C11.5398 21.1932 11.6621 21.5087 11.6621 21.8377V22.5195H9.33847V21.8377Z" fill="#5F22D9"/>
<path d="M10.5 25C10.7761 25 11 24.7761 11 24.5C11 24.2239 10.7761 24 10.5 24C10.2239 24 10 24.2239 10 24.5C10 24.7761 10.2239 25 10.5 25Z" fill="white"/>
<path d="M10 13.1767L10.2989 12.7114C10.5359 12.8933 10.7431 12.9866 10.9636 12.9866C11.2278 12.9866 11.344 12.8766 11.344 12.6641C11.344 12.1828 10.1135 12.1915 10.1135 11.3473C10.1135 10.8046 10.4881 10.4589 11.0788 10.4589C11.2466 10.4565 11.4128 10.4908 11.5661 10.5593C11.7194 10.6279 11.8559 10.729 11.9662 10.8558L11.6233 11.25C11.4539 11.0954 11.3102 11.014 11.1156 11.014C10.8913 11.014 10.7695 11.1049 10.7695 11.3149C10.7695 11.7614 12 11.722 12 12.6163C12 13.1537 11.6457 13.5424 10.9635 13.5424C10.6101 13.5342 10.2703 13.4052 10 13.1767ZM10.8198 10H11.2746V10.6738H10.8198V10ZM10.8198 13.2607H11.2746V14H10.8198V13.2607Z" fill="white"/>
</svg>
