<svg width="36" height="33" viewBox="0 0 36 33" fill="none" xmlns="http://www.w3.org/2000/svg">
<path d="M20.8643 5.63713V1.50439H1.11389V5.63707C1.11408 7.79808 1.82294 9.89945 3.13172 11.619C4.44051 13.3386 6.2771 14.5816 8.35994 15.1576C8.66564 15.2434 8.93497 15.4268 9.12676 15.6799C9.3186 15.9329 9.42241 16.2418 9.42241 16.5593C9.42241 16.8769 9.3186 17.1857 9.12676 17.4388C8.93497 17.6918 8.66564 17.8753 8.35994 17.9611C6.27704 18.537 4.44038 19.78 3.1316 21.4997C1.82281 23.2194 1.11402 25.3208 1.11389 27.4819V31.6147H20.8643V27.4819C20.864 25.3209 20.1552 23.2196 18.8464 21.5C17.5377 19.7804 15.7011 18.5373 13.6182 17.9614C13.3125 17.8756 13.0431 17.6922 12.8513 17.4392C12.6594 17.1861 12.5556 16.8772 12.5556 16.5596C12.5556 16.2421 12.6594 15.9332 12.8513 15.6801C13.0431 15.4271 13.3125 15.2436 13.6182 15.1579C15.7011 14.582 17.5377 13.339 18.8464 11.6194C20.1552 9.89976 20.8641 7.79839 20.8643 5.63738" fill="#5F22D9"/>
<path opacity="0.8" d="M20.8643 5.63713V1.50439H1.11389V5.63707C1.11408 7.79808 1.82294 9.89945 3.13172 11.619C4.44051 13.3386 6.2771 14.5816 8.35994 15.1576C8.66564 15.2434 8.93497 15.4268 9.12676 15.6799C9.3186 15.9329 9.42241 16.2418 9.42241 16.5593C9.42241 16.8769 9.3186 17.1857 9.12676 17.4388C8.93497 17.6918 8.66564 17.8753 8.35994 17.9611C6.27704 18.537 4.44038 19.78 3.1316 21.4997C1.82281 23.2194 1.11402 25.3208 1.11389 27.4819V31.6147H20.8643V27.4819C20.864 25.3209 20.1552 23.2196 18.8464 21.5C17.5377 19.7804 15.7011 18.5373 13.6182 17.9614C13.3125 17.8756 13.0431 17.6922 12.8513 17.4392C12.6594 17.1861 12.5556 16.8772 12.5556 16.5596C12.5556 16.2421 12.6594 15.9332 12.8513 15.6801C13.0431 15.4271 13.3125 15.2436 13.6182 15.1579C15.7011 14.582 17.5377 13.339 18.8464 11.6194C20.1552 9.89976 20.8641 7.79839 20.8643 5.63738" fill="white"/>
<path d="M22.0116 0.752218C22.0117 0.948805 21.9348 1.13759 21.7973 1.27815C21.6599 1.41871 21.4728 1.49982 21.2763 1.50412C21.2705 1.5045 21.2652 1.5045 21.2594 1.5045H0.752266C0.746464 1.5045 0.741099 1.5045 0.735359 1.50412C0.537338 1.49969 0.349112 1.4174 0.211421 1.27503C0.0737916 1.13266 -0.00219758 0.941754 4.84077e-05 0.743671C0.002232 0.54565 0.0824633 0.356488 0.223336 0.217299C0.364147 0.0780482 0.554245 -6.2239e-05 0.752266 1.49502e-07H21.2591C21.3579 -6.2239e-05 21.4558 0.0194025 21.547 0.0572099C21.6384 0.0949549 21.7213 0.150356 21.7912 0.220231C21.8611 0.290106 21.9165 0.373021 21.9543 0.464295C21.9922 0.55557 22.0116 0.653395 22.0116 0.752218Z" fill="#292A2E"/>
<path d="M11.338 24.6823V15.75C11.3304 15.4107 11.4344 15.0782 11.6341 14.8038C11.8336 14.5293 12.1179 14.3279 12.443 14.2306C15.9377 13.2689 19.1888 10.1341 19.3486 6.53319C19.3571 6.3401 19.1874 6.21289 18.9941 6.21289H2.98376C2.79036 6.21289 2.62085 6.3401 2.62933 6.53319C2.78911 10.1341 6.04024 13.2689 9.53486 14.2306C10.0294 14.3674 10.6401 14.9734 10.6401 15.7724V24.6829C10.6401 25.3255 10.3981 25.8711 9.94382 26.3254C9.56868 26.7006 3.91953 31.6147 3.91953 31.6147H18.0586C18.0586 31.6147 12.3572 26.6446 12.0433 26.3304C11.5889 25.8764 11.338 25.3247 11.338 24.6823Z" fill="#FAFAFA"/>
<path d="M27.1075 32.8773C31.9495 32.8773 35.8747 28.9521 35.8747 24.11C35.8747 19.268 31.9495 15.3428 27.1075 15.3428C22.2654 15.3428 18.3402 19.268 18.3402 24.11C18.3402 28.9521 22.2654 32.8773 27.1075 32.8773Z" fill="white"/>
<path opacity="0.45" d="M27.1075 31.8288C31.3705 31.8288 34.8263 28.3729 34.8263 24.1099C34.8263 19.8469 31.3705 16.3911 27.1075 16.3911C22.8445 16.3911 19.3887 19.8469 19.3887 24.1099C19.3887 28.3729 22.8445 31.8288 27.1075 31.8288Z" fill="#5F22D9"/>
<path d="M27.1075 24.5737C27.3638 24.5737 27.5716 24.3659 27.5716 24.1096C27.5716 23.8533 27.3638 23.6455 27.1075 23.6455C26.8512 23.6455 26.6434 23.8533 26.6434 24.1096C26.6434 24.3659 26.8512 24.5737 27.1075 24.5737Z" fill="#292A2E"/>
<path d="M32.8289 27.2046C32.8233 27.2063 32.8174 27.2069 32.8116 27.2063C32.8058 27.2057 32.8002 27.204 32.795 27.2012L27.0865 24.1489C27.0794 24.1451 27.0735 24.1395 27.0693 24.1326C27.0652 24.1257 27.063 24.1178 27.063 24.1098L27.061 19.6094C27.061 19.5976 27.0657 19.5863 27.0741 19.578C27.0824 19.5696 27.0937 19.5649 27.1055 19.5649C27.1173 19.5649 27.1286 19.5696 27.137 19.578C27.1453 19.5863 27.15 19.5976 27.15 19.6094L27.1519 24.0831L32.837 27.1229C32.8447 27.127 32.8511 27.1333 32.8552 27.1411C32.8594 27.1489 32.8611 27.1577 32.8602 27.1665C32.8594 27.1752 32.8559 27.1835 32.8504 27.1903C32.8448 27.1971 32.8373 27.202 32.8289 27.2046Z" fill="#292A2E"/>
</svg>
