<svg width="67" height="67" viewBox="0 0 67 67" fill="none" xmlns="http://www.w3.org/2000/svg">
<path opacity="0.1" d="M33.5 67C52.0014 67 67 52.0014 67 33.5C67 14.9986 52.0014 0 33.5 0C14.9986 0 0 14.9986 0 33.5C0 52.0014 14.9986 67 33.5 67Z" fill="#5F22D9"/>
<path opacity="0.2" d="M33.5 31.6989C40.0649 31.6989 45.3871 26.5379 45.3871 20.172C45.3871 13.8061 40.0649 8.64514 33.5 8.64514C26.9352 8.64514 21.6129 13.8061 21.6129 20.172C21.6129 26.5379 26.9352 31.6989 33.5 31.6989Z" fill="#5F22D9"/>
<path opacity="0.2" d="M58.3549 55.5738C55.2069 59.164 51.329 62.0402 46.9806 64.0108C42.6318 65.9813 37.9125 67.0005 33.1389 67C28.3648 66.9995 23.646 65.9795 19.2976 64.0085C14.9492 62.037 11.0718 59.1599 7.92474 55.5692C9.53715 50.131 12.8635 45.3597 17.4076 41.967C21.9517 38.5739 27.4708 36.741 33.1416 36.7419C38.812 36.7424 44.3306 38.5762 48.8743 41.9697C53.4184 45.3633 56.7434 50.1355 58.3549 55.5738Z" fill="#5F22D9"/>
</svg>
